<svg version="1.1" id="Layer_1" xmlns="http://www.w3.org/2000/svg" xmlns:xlink="http://www.w3.org/1999/xlink" x="0px" y="0px" viewBox="0 0 104.62 58.24" style="enable-background:new 0 0 104.62 58.24;" xml:space="preserve">
 <style type="text/css">
  .st0{fill:#040405;}
	.st1{fill:#1CE783;}
 </style>
 <g>
  <g>
   <path class="st0" d="M10.08,57.24C5.07,57.24,1,53.17,1,48.16V10.08C1,5.07,5.07,1,10.08,1h84.47c5.01,0,9.08,4.07,9.08,9.08
			v38.08c0,5-4.07,9.08-9.08,9.08H10.08z">
   </path>
   <path class="st1" d="M94.54,2c4.46,0,8.08,3.62,8.08,8.08v38.08c0,4.46-3.62,8.08-8.08,8.08H10.08C5.62,56.24,2,52.62,2,48.16
			V10.08C2,5.62,5.62,2,10.08,2H94.54 M94.54,0H10.08C4.52,0,0,4.52,0,10.08v38.08c0,5.56,4.52,10.08,10.08,10.08h84.47
			c5.56,0,10.08-4.52,10.08-10.08V10.08C104.62,4.52,100.1,0,94.54,0L94.54,0z">
   </path>
  </g>
  <g>
   <path class="st1" d="M28.7,24.26h-3.51c-1.23,0-1.85,0.33-1.85,0.33v-7.41h-5.47v22.69h5.47v-9.15c0-0.81,0.66-1.47,1.47-1.47
			h3.18c0.81,0,1.47,0.66,1.47,1.47v9.15h5.47V30C34.93,25.86,32.16,24.26,28.7,24.26z">
   </path>
   <path class="st1" d="M81.28,39.84c3.42,0,5.47-2.44,5.47-5.97v-9.61h-5.47v9.15c0,0.81-0.65,1.47-1.46,1.47h-3.18
			c-0.81,0-1.47-0.66-1.47-1.47v-9.15h-5.47v9.61c0,3.93,2.51,6,6.23,6L81.28,39.84z">
   </path>
   <path class="st1" d="M50.42,39.84c3.42,0,5.47-2.44,5.47-5.97v-9.61h-5.47v9.15c0,0.81-0.66,1.47-1.46,1.47h-3.18
			c-0.81,0-1.47-0.66-1.47-1.47v-9.15h-5.47v9.61c0,3.93,2.51,6,6.23,6L50.42,39.84z">
   </path>
   <rect x="60.06" y="17.18" class="st1" width="5.47" height="22.69">
   </rect>
  </g>
 </g>
</svg>