<?xml version="1.0" encoding="UTF-8" standalone="no"?><!DOCTYPE svg PUBLIC "-//W3C//DTD SVG 1.1//EN" "http://www.w3.org/Graphics/SVG/1.1/DTD/svg11.dtd"><svg width="100%" height="100%" viewBox="0 0 898 217" version="1.1" xmlns="http://www.w3.org/2000/svg" xmlns:xlink="http://www.w3.org/1999/xlink" xml:space="preserve" xmlns:serif="http://www.serif.com/" style="fill-rule:evenodd;clip-rule:evenodd;stroke-linejoin:round;stroke-miterlimit:2;"><rect id="Artboard1" x="0" y="0" width="897.426" height="217" style="fill:none;"/><clipPath id="_clip1"><rect x="0" y="0" width="897.426" height="217"/></clipPath><g clip-path="url(#_clip1)"><g id="Layer_1-2"><path d="M882.212,217l-869.98,0c-13.74,0 -17.02,-19.17 -4.07,-23.74l236.2,-83.34c2.61,-0.92 4.81,-2.71 6.23,-5.08l55.19,-91.76c4.88,-8.12 13.66,-13.08 23.13,-13.08l322.54,0c11.53,0 21.4,8.28 23.41,19.63l16.27,83.39c0.78,4.04 3.57,7.4 7.39,8.93l189.35,75.76c15.52,6.23 11.06,29.29 -5.66,29.29Z" style="fill:#e91b23;fill-rule:nonzero;"/></g></g></svg>