<svg xmlns="http://www.w3.org/2000/svg" viewBox="-1 13 26 10">
  <title>AWS Arrow</title>
  <path d="M.378 15.475c3.384 1.963 7.56 3.153 11.877 3.153 2.914 0 6.114-.607 9.06-1.852.44-.2.814.287.383.607-2.626 1.94-6.442 2.969-9.722 2.969-4.598 0-8.74-1.7-11.87-4.526-.247-.223-.024-.527.272-.351zm23.531-.2c.287.36-.08 2.826-1.485 4.007-.215.184-.423.088-.327-.151l.175-.439c.343-.88.802-2.198.52-2.555-.336-.43-2.22-.207-3.074-.103-.255.032-.295-.192-.063-.36 1.5-1.053 3.967-.75 4.254-.399z" fill="#FF9900"/>
</svg>
