<svg xmlns="http://www.w3.org/2000/svg" version="1.1" width="188.086" height="50.041" viewBox="0 0 188.086 50.041" id="Layer_1" xml:space="preserve"><defs id="defs31"></defs><g id="g862" transform="matrix(1.0992327,0,0,1.0992327,-9.3974125,-8.2720866)"><path style="fill:#43141a;fill-opacity:1;fill-rule:evenodd" id="path7" d="m 149.422,48.237 c 0,-2.13 1.727,-3.855 3.855,-3.855 2.13,0 3.855,1.726 3.855,3.855 0,2.129 -1.726,3.855 -3.855,3.855 -2.128,0 -3.855,-1.726 -3.855,-3.855 z m 3.856,4.414 c 2.438,0 4.415,-1.977 4.415,-4.414 0,-2.438 -1.977,-4.414 -4.415,-4.414 -2.438,0 -4.414,1.976 -4.414,4.414 0,2.437 1.976,4.414 4.414,4.414 z" /><path style="fill:#43141a;fill-opacity:1;fill-rule:evenodd" id="path9" d="m 152.246,46.236 h 1.399 v 0 c 0.632,0 1.298,0.102 1.298,0.853 0,0.837 -0.7,0.888 -1.366,0.888 v 0 h -1.331 z m 3.311,0.887 c 0,-0.973 -0.7,-1.314 -1.759,-1.314 v 0 h -2.133 v 4.916 h 0.58 v -2.271 h 1.126 l 1.4,2.271 h 0.717 l -1.502,-2.271 v 0 c 0.871,-0.034 1.571,-0.393 1.571,-1.331 z" /><polygon style="fill:#43141a;fill-opacity:1;fill-rule:evenodd" id="polygon11" points="158.783,8.599 156.427,18.345 151.871,18.345 154.293,8.599 " /><polygon style="fill:#43141a;fill-opacity:1;fill-rule:evenodd" id="polygon13" points="139.017,52.09 139.017,34.527 133.317,8.599 140.537,8.599 143.746,27.136 147.261,8.599 151.75,8.599 146.033,34.527 146.033,52.09 " /><path style="fill:#43141a;fill-opacity:1;fill-rule:evenodd" id="path15" d="m 171.925,38.999 v 4.762 0 c 0,3.056 -1.314,2.834 -2.406,2.834 -1.349,0 -2.458,0 -2.458,-2.783 v 0 l -0.051,-6.793 h -6.538 v 8.176 0 c 0,7.63 4.114,6.862 8.928,6.862 3.874,0 9.421,0.768 9.421,-7.033 v 0 -8.448 0 c 0,-2.39 -1.246,-4.147 -3.208,-6.11 0,0 -2.186,-1.861 -5.906,-5.582 -2.509,-2.475 -3.056,-4.301 -3.056,-5.991 v 0 -3.567 0 c 0,-3.038 1.298,-2.799 2.39,-2.799 1.332,0 2.476,0 2.476,2.782 v 0 l 0.034,5.462 h 6.554 v -6.008 0 c 0,-7.629 -4.113,-6.844 -8.943,-6.844 -3.857,0 -9.405,-0.785 -9.405,6.998 v 0 6.401 0 c 0,2.373 1.707,4.933 5.77,8.773 -0.002,-0.003 6.398,4.179 6.398,8.908 z" /><path style="fill:#43141a;fill-opacity:1;fill-rule:evenodd" id="path17" d="m 84.125,38.999 v 4.762 0 c 0,3.056 -1.297,2.834 -2.39,2.834 -1.331,0 -2.475,0 -2.475,-2.783 v 0 l -0.018,-6.793 h -6.554 v 8.176 0 c 0,7.63 4.097,6.862 8.944,6.862 3.858,0 9.422,0.768 9.422,-7.033 v 0 -8.448 0 c 0,-2.39 -1.263,-4.147 -3.208,-6.11 0,0 -2.185,-1.861 -5.923,-5.582 -2.526,-2.475 -3.039,-4.301 -3.039,-5.991 v 0 -3.567 0 c 0,-3.038 1.297,-2.799 2.39,-2.799 1.332,0 2.475,0 2.475,2.782 v 0 l 0.034,5.462 h 6.554 v -6.008 0 c 0,-7.629 -4.113,-6.844 -8.961,-6.844 -3.857,0 -9.405,-0.785 -9.405,6.998 v 0 6.401 0 c 0,2.373 1.707,4.933 5.786,8.773 0.002,-0.003 6.368,4.179 6.368,8.908 z" /><path style="fill:#43141a;fill-opacity:1;fill-rule:evenodd" id="path19" d="m 56.731,13.071 h 1.501 v 0 c 2.595,0 2.304,2.987 2.304,6.025 0,0 0.291,5.94 -2.304,5.94 v 0 H 56.731 Z M 49.442,52.09 h 7.289 V 30.856 h 1.297 v 0 c 2.338,0 2.492,1.11 2.492,3.603 v 0 9.404 0 c 0,2.901 0.188,6.811 0.973,8.228 v 0 h 7.22 v 0 c -0.802,-1.417 -0.717,-5.326 -0.717,-8.228 v 0 -7.681 0 c 0,-4.302 0.153,-7.579 -3.994,-8.33 v 0 0 0 c 3.141,-0.478 4.301,-1.877 4.301,-8.722 0,-9.166 -1.553,-10.531 -9.336,-10.531 v 0 H 49.443 V 52.09 Z" /><polygon style="fill:#43141a;fill-opacity:1;fill-rule:evenodd" id="polygon21" points="130.876,24.951 130.876,30.856 123.366,30.856 123.366,45.826 132.292,45.826 132.292,52.09 116.351,52.09 116.351,8.599 131.934,8.599 131.934,14.368 123.366,14.368 123.366,24.951 " /><polygon style="fill:#43141a;fill-opacity:1;fill-rule:evenodd" id="polygon23" points="45.192,24.951 45.192,30.856 37.682,30.856 37.682,45.826 46.592,45.826 46.592,52.09 30.65,52.09 30.65,8.599 46.268,8.599 46.268,14.368 37.682,14.368 37.682,24.951 " /><polygon style="fill:#43141a;fill-opacity:1;fill-rule:evenodd" id="polygon25" points="112.391,8.599 112.391,52.09 105.375,52.09 105.375,30.856 101.331,30.856 101.331,52.09 94.298,52.09 94.298,8.599 101.331,8.599 101.331,24.883 105.375,24.883 105.375,8.599 " /><polygon style="fill:#43141a;fill-opacity:1;fill-rule:evenodd" id="polygon27" points="27.543,8.599 27.543,52.09 20.528,52.09 20.528,30.856 16.483,30.856 16.483,52.09 9.485,52.09 9.485,8.599 16.483,8.599 16.483,24.883 20.528,24.883 20.528,8.599 " /></g></svg>
