<svg version="1.2" xmlns="http://www.w3.org/2000/svg" viewBox="0 0 970 1577" width="970" height="1577">
	<title>ADNOC Logistics &amp; Services</title>
	<g>
		<g>
			<path fill="#0047ba" d="m815.2 804.3c-14.4 62.3-44.7 115.1-87.9 158.3h235c44.7-244.7-116.7-505.3-378.8-561.3 52.7 14.4 284.5 123.2 231.7 403z"/>
			<path fill="#0047ba" d="m0 0v962.6h102.3c62.4 0 76.8 1.6 110.3-4.8 147.1-20.8 281.3-140.7 295.7-246.3 22.4-124.7-46.3-235-177.4-262.2-1.6 0-4.8-1.6-8-1.6-4.8 0-68.7 0-116.7-12.8 0 0-28.7 22.4-17.6 64 0 0-65.5-68.8-23.9-159.9 0 0 20.8-43.2 87.9-88l1.6-1.6c17.6-22.3 62.3-60.7 126.3-89.5 31.9-14.4 87.9-35.2 150.2-41.6 284.5-27.2 438 191.9 438 191.9v-310.2z"/>
			<path fill="#0047ba" d="m701.7 233.4c-135.8-17.5-250.9 17.6-342 80 0 0 27.1-16 67.1-30.4 6.4 25.6 28.8 48 57.6 54.4 39.9 8 78.3-14.4 86.3-52.8 1.6-9.6 1.6-20.8-1.6-30.4 260.5-8 399.6 191.9 399.6 191.9v-86.3c-38.4-38.4-145.5-113.6-267-126.4z"/>
		</g>
		<g>
			<path fill-rule="evenodd" fill="#0047ba" d="m72 1379.9h38.3l72 191.9h-43.2l-16-44.8h-67.1l-16 44.8h-40zm41.6 115.1l-24-68.8-22.4 68.8z"/>
			<path fill-rule="evenodd" fill="#0047ba" d="m206.2 1379.9h72c28.7 0 52.7 8 68.7 24 16 16 24 40 24 70.3 0 16-1.6 30.4-6.4 41.6-4.8 12.8-11.2 22.4-19.2 30.4-8 8-19.2 14.4-32 19.2-12.8 4.8-25.6 6.4-41.5 6.4h-65.6zm65.6 158.3c9.6 0 19.1-1.6 27.1-4.8 8-3.2 12.8-8 17.6-12.8 4.8-4.8 8-12.8 9.6-19.2 1.6-8 3.2-16 3.2-25.6 0-9.6-1.6-17.6-3.2-25.6q-2.4-12-9.6-19.2c-4.8-4.8-9.6-9.6-16-12.8q-9.6-4.8-23.9-4.8h-32v123.2h27.2z"/>
			<path fill="#0047ba" d="m402.8 1379.9h35.2l78.3 126.3v-126.3h40v191.9h-36.8l-78.3-124.7v124.7h-38.4z"/>
			<path fill-rule="evenodd" fill="#0047ba" d="m681 1576.6c-14.4 0-27.2-1.6-38.4-6.4-11.2-4.8-20.8-11.2-28.8-20.8-8-8-14.4-19.2-17.6-32-4.8-12.8-6.4-25.6-6.4-41.6 0-16 1.6-28.7 6.4-41.5 4.8-12.8 9.6-22.4 17.6-32 8-8 17.6-16 28.8-20.8 11.2-4.8 24-6.4 38.4-6.4 14.3 0 27.1 1.6 38.3 6.4 11.2 4.8 20.8 11.2 28.8 20.8 8 8 14.4 19.2 17.6 32 4.8 12.8 6.4 25.5 6.4 41.5 0 16-1.6 28.8-6.4 41.6-4.8 12.8-9.6 22.4-17.6 32-8 8-17.6 16-28.8 20.8-11.2 4.8-24 6.4-38.3 6.4zm0-33.6c17.5 0 28.7-6.4 38.3-17.6 8-11.2 12.8-27.2 12.8-49.6 0-20.8-4.8-36.7-12.8-49.5-9.6-11.2-22.4-16-38.3-16-17.6 0-28.8 6.4-38.4 17.6-8 11.2-12.8 27.1-12.8 49.5 0 20.8 4.8 38.4 12.8 49.6 8 9.6 20.8 16 38.4 16z"/>
			<path fill="#0047ba" d="m967.1 1506.2c-1.6 9.6-3.2 19.2-6.4 28.8-3.2 8-9.6 16-16 22.4q-9.6 9.6-24 14.4-14.4 4.8-33.6 4.8c-14.3 0-27.1-3.2-38.3-8-11.2-4.8-20.8-11.2-27.2-20.8-8-8-12.8-19.2-16-32-3.2-12.8-6.4-25.6-6.4-41.6 0-16 1.6-28.7 6.4-41.5 4.8-12.8 9.6-22.4 17.6-32 8-8 17.6-16 27.2-20.8 11.2-4.8 24-6.4 36.7-6.4 12.8 0 22.4 1.6 32 4.8 9.6 3.2 16 8 22.4 12.8 6.4 6.4 11.2 12.8 14.4 20.8 3.2 8 6.4 17.6 8 27.2l-40 4.8c-1.6-11.2-6.4-20.8-11.2-27.2-6.4-3.2-14.4-6.4-27.2-6.4-15.9 0-27.1 6.4-35.1 17.6-8 11.2-11.2 27.1-11.2 49.5 0 20.8 4.8 38.4 12.8 49.6 8 11.2 19.2 17.6 33.5 17.6 12.8 0 20.8-3.2 27.2-9.6 6.4-6.4 9.6-16 11.2-27.2h43.2z"/>
			<path fill-rule="evenodd" fill="#0047ba" d="m206.2 1258.4v-171.1h40v204.7h-167.8c-27.2 0-46.4-6.4-59.2-17.6q-19.2-16.8-19.2-52.8c0-12.8 3.2-24 8-35.2 6.4-8 14.4-16 24-20.8 11.2-6.4 22.4-9.6 36.8-9.6l4.8 33.6c-12.8 1.6-22.4 4.8-27.2 9.6-4.8 4.8-8 12.8-8 24 0 12.8 3.2 20.8 9.6 27.2 6.4 4.8 16 8 28.8 8zm-38.4-88v12.8h-51.2v-12.8h6.4v-8c0-6.4 1.6-12.8 6.4-16 3.2-3.1 9.6-4.7 16-4.7 6.4 0 12.8 1.6 16 4.7 3.2 3.2 4.8 8 6.4 14.4l-12.8 1.6c0-3.2-1.6-4.8-1.6-6.4-1.6-1.6-3.2-1.6-6.4-1.6q-9.6 0-9.6 9.6v6.4z"/>
			<path fill-rule="evenodd" fill="#0047ba" d="m666.6 1149.6v142.4h-259c0 22.3-4.8 46.3-16 57.5-3.2 1.6-6.4 4.8-9.5 6.4l-19.2-30.4c4.8-4.8 6.4-12.8 6.4-28.7v-4.8h-4.8c-27.2 0-49.6-6.4-64-19.2-14.4-12.8-22.3-33.6-22.3-57.6 0-20.8 6.4-36.8 17.5-48 11.2-11.2 27.2-17.6 48-17.6 20.8 0 36.8 4.8 47.9 16 11.2 11.2 16 27.2 16 49.6v41.6h219v-107.2zm-295.7 108.8v-30.4c0-11.2-1.6-22.4-3.2-28.8-1.6-4.8-4.8-9.6-8-11.2-4.8-1.6-9.6-3.2-16-3.2-9.6 0-16 1.6-20.7 8-4.8 4.8-6.4 12.8-6.4 24 0 25.6 12.7 41.6 39.9 41.6z"/>
			<path fill="#0047ba" d="m626.6 1092.1h38.4v38.4h-38.4z"/>
			<path fill="#0047ba" d="m848.8 1258.4v-20.8q0-26.4-9.6-38.4c-6.4-8-16-12.8-30.4-12.8q-14.4 0-28.7 4.8l-9.6-33.6c12.8-4.8 27.1-6.4 41.5-6.4 24 0 43.2 6.4 56 20.8q19.1 21.6 19.1 62.4v59.2h-191.8v-35.2z"/>
			<path fill="#0047ba" d="m967.1 1077.7v12.8h-51.2v-12.8h6.4v-8c0-6.4 1.6-12.8 6.4-16 3.2-3.2 9.6-6.4 16-6.4 6.4 0 12.8 1.6 16 4.8 3.2 3.2 4.8 8 6.4 14.4l-12.8 1.6c0-3.2-1.6-4.8-1.6-6.4-1.6-1.6-3.2-1.6-6.4-1.6q-9.6 0-9.6 9.6v8z"/>
			<path fill="#0047ba" d="m920.7 1106.5h38.4v185.5h-38.4z"/>
		</g>
	</g>
</svg>