<svg version="1.2" xmlns="http://www.w3.org/2000/svg" viewBox="0 0 1599 314" width="1599" height="314">
	<title>Maybank</title>
	<path fill-rule="evenodd" fill="#231f20" d="m1013.4 254c-24.9 0-48.9-4.7-62.9-10.1v-196.8h51.4v66.2c6.5-2.4 17.7-4.2 26.4-4.2 43.6 0 73.5 24.4 73.5 67.2 0 52.6-31.4 77.7-88.4 77.7zm4.6-112.7c-5.8 0-12.1 1.3-16.1 2.9v74.7c3.1 1 9 1.8 14.9 1.8 21.2 0 33.6-14.7 33.6-40.7 0-24.7-11.8-38.7-32.4-38.7zm169.4 112.7c-52.9 0-79-16.3-79-46.2 0-37.1 45.5-45.8 96.2-48v-5.5c0-11.1-9.3-16.4-26.8-16.4-16.2 0-35.5 4.5-47.6 8.6l-12.5-28.6c14.9-4.9 35.7-11.1 66.4-11.1 45.8 0 68.8 15.5 68.8 52.7v84.4c-12.8 5.4-38.6 10.1-65.5 10.1zm17.2-67.5c-27.7 1.1-48.6 3.6-48.6 20.3 0 11.4 11.5 17.6 29.9 17.6 7.2 0 15.3-1 18.7-2.1zm162.3 64.3v-90.8c0-11.7-6.6-19.4-25-19.4-9.6 0-18 3.6-18 3.6v106.6h-51.4v-132.8c18.7-6.1 40.8-11.1 70.1-11.1 52.6 0 75.6 17.7 75.6 48.2v95.7zm174.1 0l-51.4-69.8h-0.6v69.8h-50.7v-203.7h50.7v123.9h0.6l46.4-60.1h58l-52.3 65.2 56.7 74.7zm-687.2 56h-53.9l25.2-56-63.2-139.9h55.9l34.1 99.4 33.8-99.4h55.9zm-240.2-55.9h-48.9l-15.6-129.1-45.8 129.1h-32.3l-45.8-129.1-15.6 129.1h-48.9l27.1-187.9h59.8l39.6 116.1 39.5-116.1h59.8zm85.6 3.1c-53 0-79.1-16.2-79.1-46.2 0-37.1 45.5-45.7 96.2-48v-5.4c0-11.2-9.3-16.4-26.8-16.4-16.2 0-35.5 4.5-47.6 8.6l-12.5-28.6c15-4.9 40.2-11.1 66.4-11.1 45.8 0 68.8 15.5 68.8 52.6v84.5c-12.8 5.4-38.6 10-65.4 10zm17.1-67.5c-27.7 1.2-48.6 3.7-48.6 20.3 0 11.4 11.6 17.7 29.9 17.7 7.2 0 15.2-1.1 18.7-2.2zm-559.2 126.9c-86.5 0-156.4-70-156.4-156.5 0-86.6 69.9-156.6 156.4-156.6 86.5 0 156.5 70 156.5 156.6 0 86.5-70 156.5-156.5 156.5zm143.9-156.6c0-79.7-64.3-144-143.9-144-79.5 0-143.8 64.3-143.8 144 0 79.6 64.3 144 143.8 144 79.6 0 143.9-64.4 143.9-144z"/>
	<path fill-rule="evenodd" fill="#231f20" d="m94.7 149.6c-11.2-2.9-21 10.2-26.5 20.1 1.9-13.5 18.6-35.7 26.5-20.1zm-24.6 0.2c3.8-12.9 12.7-17.6 17.4-13.8-6.4 2-11.1 5.8-17.4 13.8zm2.4 29.6c1.6-13.1 15.8-25.1 22.4-23.4 9 2.4 9.6 9.6 3.8 14.4-4-11.8-20.5 1.7-26.2 9zm116 25.3c1-16.9-15.4-24.9-18.6-42.2-3.1-17.4 25.7-45.2 7.5-73.6 34.3 27.7 7.5 44.1 24.8 67.1-6.7-2-13.4-8-15.4-11.1-9.6 12.7 23.7 30.2 1.7 59.8zm-55.2-136.6c4 0 11 2.9 8.2 6.1-9.5 8.9-22.4 5.2-32.6 14.2 4.2-11.1 22.8-12.7 24.4-20.3z"/>
	<path fill-rule="evenodd" fill="#231f20" d="m141 94.8c16.8-0.4-2.7 8.5-8.4 28.8-2.5 8.9-22.7 6.1-25.7 1.5 5.1 1 20.9-2.4 27.1-23.7 0.2-0.6-0.4-0.7-0.7-0.3-7.8 8.5-13.6 10-16.9 7.9-3.5 2.8-5.1 4.9-8.3 10.7-5.7-5.1-3.1-9.7 2.4-14.9 0.7-0.7-0.1-1.7-1.1-2.1-5.1-2.2-6.1-9.2-0.9-11.9-1.5 4.5 3.5 7.2 7.8 3.3 4.4-4 11.6 1.8 20.5-1.7 0.9-14.3 28.3-16.1 11.3-24.4 16.4 2 20 8.1 16 12.6-3.3 3.9-18.6 8.9-23.1 14.2zm-10.7 2.9c-4.3 0.2-6.6 0-8.1 0 2.4 6-1.7 7.9-3.4 3.8 0.4 2.3 1.5 4 2.7 4 2.3 0 4.3-5.5 8.8-7.8zm48.5-42.6c7.3 3.9 12.2 21.1 11.2 29.7-5.4-6.3-9.2-9.8-17.4-15.1-1.5-4.3 3.1-16.3 6.2-14.6z"/>
	<path fill="#231f20" d="m42.4 139.2c5.2-13.9 18.1-30.4 38.8-42.7 4.8-12.4 3.2-20.8 53.6-40.3 1.3-7.4 1-16.4 3.1-16.4 2.2 0 9.6 3.4 14.9 11 2.2-0.2 4.2-0.4 5.5-0.7 0.9-4.3 3.9-16.2 7.9-22.4 3.6-5.6 10.6-6.2 19.6 1.2 9.4 7.7 16 10.8 28.8 27.3 10.9 4.8 27.9 11.1 42.6 29.1-6.4-4.2-13.6-5.8-19.6-6.4 12 10.4 19.9 27.8 13.9 53.2-2.4-23.7-19.8-33.7-30.4-41.2 5.7 20-19.3 13.1-26.9-2 2.5 0.8 5.1 0.7 6.7-0.3-0.9-30.6-15.2-48.1-21.6-53.4-8.3-6.8-12.6 9.6-15.4 21.9-0.9 4.1-4.4 7-8.9 6.9 1-1.5 2.1-5.5 2.3-6.8-12.6 1.1-26.9 8.6-35.7 12.5-22.2 10.1-27.8 15.1-32.7 32-17.7 7.5-38 27.8-46.5 37.5z"/>
	<path fill="#231f20" d="m153.4 134.9c2.5 2.9 17.2 25.1 0.2 53.3 4.6-20.8-8.3-60.5-22.6-40.2 9.7 4.2 12.9 12.1 10.3 19.8-4-7.4-14-15.5-24-12.2-5 1.8-11.6 1.9-16.5-5.5-6.5-9.3 4.3-21-14-20.1 22.2-11.3 15.7 10.6 26.4 13.3 12.5 2.9 14-4.7 18.3-9.7 3.4-4.2 9.8-7.3 16.5-2.9 3.1-9.7-1.5-25.1 7.6-33.2 3.4-3 14-2.6 19.6 1.7-7.9-0.1-17.1 9.3-21.8 35.7z"/>
	<path fill-rule="evenodd" fill="#231f20" d="m183.9 279.9c10.1-13.2 18.3-31.8 17.3-38.1-11.1 8-32.7 11.7-37.7 9 20.2-18.3 17.2-37.7 5.3-39.2-11.8-1.4-25.6 16.7-24.5 41.5-10-4.4-42.1 1.8-45.1-23.7-3.7-5.6-5.3-15.2-4.1-19 29 16.6 16.6-20.7 34.1-24.3-1.9-5.2-16.5-17.2-36.2 2.5-0.9 3.2-0.7 16 0.9 20.6-9.1-1.4-16.2-9.9-17.8-12.2-9.6-0.9-18.9-3.6-28-27.9-7.5-4.9-11.4-9.8-14.2-15.3 0.1-1.3 1.2-7.4 6.9-12.5 0 0-2.1 5.3-0.9 7.5 15.4-12.3 17.4-0.4 25.2-2.1 0.2 9.4-9.4 15.7-8.7 24.7 5.6 14.9 9.4 16.4 20.5 18.1 13.3-6.5 24.3-21.7 40.5-22 13.2-0.1 29.7 6.3 32.4 24.5 1.9 13.1-26 31.7-36.9 28-18 19.4 12.1 25.8 22.1 22.8 7.1-32.9 24.7-42.4 38.6-37.6 15.4 5.2 17.4 24.7 6.9 35.7 8.5-2 20.8-8.6 25-24.5 3.4 3.5 4.4 12 4.7 15 8.8-13 5.9-41.2-1.2-52.1 5.8 0.5 11.2 2.8 17 7.6 3.9-20.8-9.5-46.8-15.5-51.2 4-0.4 9.7 0 17.5 3.7-2-12.5-13.2-20.5-13.2-30.1 4.5 8.9 28.4 11.3 27 44-2.7-2.6-8.7-5.3-11.7-5.7 8.5 21.2 7.9 42.1 3.5 56.8-1.9-3-4.8-6.5-7.6-7.7 2.8 11.7-0.8 43.8-8.8 56.8 53.6-37.1 16.6-93.5 40.3-116.5-5 24.4 7.5 45.2 6 59.4 11.7-22.7 14.9-60.7 3.5-100.2 39.8 72 1.9 164.2-83.1 183.7zm-61.6-70.3c11-5.3 15.6-7.7 16.5-15 0.4-2.8-7.3-3.6-9.3-3.2 1.6 1.9 3.6 7.9 1.7 9.3-2.1 1.5-4-0.3-6.2-0.6-1.2 3.8-0.9 7.7-2.7 9.5zm-32.8-5.8c0 0-2.4-8.7-1.6-15.1-1.9 0.2-6.2 3.2-7.1 5.4 0.1 4.3 8.7 9.7 8.7 9.7zm-35.2-43.8c-0.8-1.6-4.8-2.8-3.6-6.4 0.8-2.4 3.6-2.4 4.1-3.5 0.4-0.9-1.6-2.7-4.8-1.8-4.3 1.2-7.7 4.8-8.4 5.7 0.6 2.4 7 9 11 11.9 3.3-2.1 2.2-4.8 1.7-5.9zm53.5 59.3c0 0-5.1-1.2-8.8-3.6-0.3 4.1 2.6 7.9 3.7 8.8 2.7-1.1 5.1-5.2 5.1-5.2z"/>
</svg>