<svg xmlns="http://www.w3.org/2000/svg" viewBox="-252.435 -223.924 784.20287 1000"> <defs/> <path fill="#000b6c" d="M520.89382 775.5893c5.8531 0 10.87408-4.8798 10.87408-10.88934 0-5.85532-5.02203-10.89372-10.87408-10.89372-6.01274 0-10.91329 5.03729-10.91329 10.89372-.001 6.00954 4.90055 10.88935 10.9133 10.88935m-76.56448-26.49774c5.6817 18.20469 17.0531 26.66069 32.49402 26.66069 16.76231 0 30.70833-13.49657 30.70833-31.37756 0-12.5145-5.51948-22.10351-17.22042-30.72028l-12.20282-9.10672c-7.3033-5.3665-10.8729-10.89374-10.8729-17.0706 0-5.36428 3.57077-10.07898 9.42281-10.07898 7.6347 0 11.69978 6.0194 14.31465 15.44217l15.77348-9.42277c-5.35449-16.74688-15.4422-23.73742-29.26138-23.73742-15.60406 0-28.46722 12.19298-28.46722 29.09843 0 10.07897 3.89985 20.32088 15.43673 28.93657l13.52921 10.08443c6.809 5.19588 11.3706 10.88498 11.3706 18.03736 0 6.50607-4.89614 12.19516-12.03537 12.19516-9.25445 0-14.48094-6.82868-17.7202-18.20796zm-39.34583 9.26638c-10.58306 0-17.22473-13.33035-17.22473-40.64285 0-27.31252 6.64167-40.80364 17.22473-40.80364 10.54175 0 17.22392 13.49112 17.22392 40.80364 0 27.3125-6.68217 40.64285-17.22392 40.64285m0 17.71804c22.24677 0 35.77308-19.1857 35.77308-58.3609 0-39.18285-13.69352-58.52165-35.77308-58.52165-22.12099 0-35.774 19.3388-35.774 58.52166 0 39.1752 13.48673 58.36089 35.774 58.36089m-60.80077-80.14507c0 10.56563-7.17752 17.55288-19.5018 21.94604l-2.78104.97334v-40.47883c14.77381.65618 22.28284 7.48049 22.28284 17.55945m2.11941 78.68178h20.2926l-20.00496-48.28193c9.75632-6.98507 15.77476-16.74577 15.77476-30.39985 0-22.1068-17.22485-35.11342-41.58568-35.11342H303.5147v113.79628h18.3873v-36.90042l2.11731-.654c2.28022-.65181 4.39764-1.4633 6.516-2.2726zm-91.38658-49.25416c11.87037-2.9266 21.45493 1.78372 21.45493 12.02454 0 11.70849-11.20094 20.00044-26.97453 20.00044v-30.72794zm14.31791-33.00601c0 7.96717-6.01716 14.46775-16.89229 16.74688l-2.94405.64853v-31.53942c12.36792.32372 19.83634 5.6902 19.83634 14.144m25.35932 44.86869c0-12.35591-6.68216-21.7787-18.05602-25.68188 6.68438-5.68911 10.58307-13.17178 10.58307-20.64898 0-18.36765-15.76917-30.07285-40.3377-30.07285h-15.60393v113.79628h15.93544c28.80525-.001 47.47914-15.77025 47.47914-37.39257M176.4044 695.9309c0 10.56564-7.15238 17.55289-19.51031 21.94605l-2.76044.97334v-40.47883c14.79372.65618 22.27075 7.48049 22.27075 17.55945m2.113 78.68178h20.33286l-20.00472-48.28193c9.7541-6.98507 15.77359-16.74577 15.77359-30.39985 0-22.1068-17.23707-35.11342-41.62291-35.11342H135.7638v113.79628h18.36984v-36.90042l2.1172-.654c2.27265-.65181 4.38996-1.4633 6.50064-2.2726zm-105.17528 0h54.13304v-17.56055H91.70987V724.8642h26.82036v-18.04393H91.70987v-28.4499h32.18788l3.5774-17.55507H73.34213zm-77.8658 0H13.3606v-70.71463l29.58725 70.71463h18.0417V660.81639h-17.881V731.531l-29.58939-70.71462H-4.52367zm-27.96104-78.68178c0 10.56563-7.15238 17.55288-19.51049 21.94604l-2.76252.97334v-40.47883c14.79581.65618 22.27301 7.48049 22.27301 17.55945m2.1151 78.68178h20.31652l-19.9961-48.28193c9.75526-6.98507 15.77027-16.74577 15.77027-30.39985 0-22.1068-17.22917-35.11342-41.6151-35.11342h-17.23245v113.79628h18.36765v-36.90042l2.1162-.654c2.27695-.65181 4.38984-1.4633 6.49946-2.2726zm-93.64053-38.85477l9.27076-48.60018 9.2642 48.60018zm-25.68082 38.85477h18.2047l4.06176-21.2986h25.36146l4.06944 21.2986h18.85322l-22.92266-113.79631h-24.70965zm-79.50095 0h18.53716l13.81154-72.34306 13.8214 72.34306h18.53279l23.40828-113.79631h-18.36656l-14.47325 73.9693-13.97341-73.9693h-17.23683l-13.97778 73.9693-14.30588-73.9693H-252.435z"/> <path fill="#0541a8" d="M452.70313-81.06183c-.84239-3.35906-1.68062-4.61897-3.35578-5.03749l-60.47605-15.96041-8.402-34.4363c-.41743-1.68062-.83703-2.94054-2.52312-3.35905l-62.1512-16.79964-7.5606-32.75786c-.41961-2.52093-1.68062-3.77866-3.36015-4.20155l-161.46726-29.9419c-2.64004-.49063-5.35329-.49063-8.00196 0l-161.47169 29.9419c-1.65658.42289-2.94381 1.68062-3.35686 4.20155l-7.54749 32.75786-62.15995 16.79964c-1.70029.41851-2.11443 1.67843-2.52749 3.35905l-8.37796 34.4363-60.49904 15.96041c-1.65658.4196-2.52967 1.67953-3.35687 5.03749-5.0211 26.03757-7.5464 53.75795-7.5464 81.47286 0 241.90313 125.97325 451.87012 314.12712 577.05328 2.52311 1.66095 5.04076 3.36124 6.72138 3.36124 1.68062 0 4.20045-1.70138 6.71821-3.36124C334.27315 452.28006 460.26384 242.31416 460.26384.41103c0-27.71382-2.52202-55.43529-7.5606-81.47286"/> <path fill="#fff" d="M115.8942 466.16975c0 1.70138-1.67613 2.52749-3.35249.86982-46.1886-52.91-77.27892-117.59853-98.2637-188.12442l-31.88587 20.15431c-8.41403 5.8789-15.1365 3.36124-20.14885-5.8767-42.8361-75.57649-70.5379-199.86033-73.06867-287.19241 0-4.20155.83485-6.72138 4.18734-10.91747 10.90873-13.4362 24.34494-26.87023 36.9474-38.6302 2.53076-2.51874 5.06261-.83812 5.06261 3.35687 0 107.49077 18.44855 207.42094 47.85173 272.92027 2.53077 5.03749 5.01782 5.03749 8.37797 2.52093l9.24559-5.87889c-17.62356-78.0985-27.7029-182.22585-25.17214-302.31143 0-4.195.83048-5.87561 3.35687-7.55404 9.20953-5.87998 26.0026-15.11574 40.30863-20.99463 4.18734-1.68062 5.01782-.8425 5.01782 2.52093C21.82767 75.69795 36.1337 196.62274 67.19778 293.19276c.83387 2.51656 3.36124 1.67953 3.36124-.83812-1.68499-35.27114-1.68499-66.34183-1.68499-104.13171l-1.67625-301.46676c0-3.36014.83387-5.03967 4.195-5.87998 14.27771-3.35905 26.87241-5.8756 41.98924-7.55623 1.68062 0 2.51437.83813 2.51437 2.51656v590.33323zM300.64209-6.59664c0-33.59272-38.63228-61.30217-89.854-64.66231V104.2499c64.6623-37.78552 89.854-75.57759 89.854-110.84654m-6.71702 125.96227c-17.63655 0-33.59052 6.7181-83.136 41.98925v189.78755c85.65912-95.73737 110.0118-161.2367 110.0118-194.8294 0-23.51119-10.92183-36.9474-26.8758-36.9474M166.28108 467.03957c-1.67515 1.65767-3.35577.83156-3.35577-.86982v-590.33214c0-1.67952.83703-2.51655 2.51765-2.51655C277.97012-119.12272 350.19084-72.09598 350.19084-4.0801c0 28.55523-10.91637 56.26686-29.39007 76.41899 36.94411 10.07716 51.22172 37.7866 51.22172 74.73837 0 65.50042-47.86485 173.82713-205.7414 319.9623"/> </svg>
