<svg xmlns="http://www.w3.org/2000/svg" viewBox="1.5 1.5 21 21"><path d="M9 4.5H8C6.9 4.5 6 5.4 6 6.5V10C6 11.1 5.1 12 4 12C5.1 12 6 12.9 6 14V17.5C6 18.6 6.9 19.5 8 19.5H9" fill="#fff" stroke="#1f2937" stroke-width="1.6" stroke-linecap="round" stroke-linejoin="round"/><path d="M15 19.5H16C17.1 19.5 18 18.6 18 17.5V14C18 12.9 18.9 12 20 12C18.9 12 18 11.1 18 10V6.5C18 5.4 17.1 4.5 16 4.5H15" fill="#fff" stroke="#1f2937" stroke-width="1.6" stroke-linecap="round" stroke-linejoin="round"/><circle cx="12" cy="10.5" r="1.6" fill="#facc15" stroke="#1f2937" stroke-width="1"/><path d="M11.2 14.2C11.2 15.8 12.6 16.6 12.6 17.8C12.6 18.6 12.1 19.2 11.2 19.6" fill="none" stroke="#facc15" stroke-width="2.2" stroke-linecap="round"/></svg>
