<svg version="1.1" id="Layer_1" xmlns="http://www.w3.org/2000/svg" xmlns:xlink="http://www.w3.org/1999/xlink" x="0px" y="0px" viewBox="-203 444 672 193" style="enable-background:new -203 444 672 193;" xml:space="preserve">
 <style type="text/css">
  .st0{fill:#FFFFFF;}
 </style>
 <g>
  <path class="st0" d="M245.6,500.1c-11.8,0-25.9,4.2-39.4,18.8c-13.5-14.6-27.7-18.8-39.4-18.8c0,0-45.1-3.4-45.1,49.3v85.3h32.7
		v-80.5c0-23.6,15.8-24.1,18.9-23.4c0,0,5.7,0.3,10.9,5.7c0,0-10.4,13.6-11.2,30.7c0,0-2.3,44.3,33.2,44.3s33.2-44.3,33.2-44.3
		c-0.8-17.1-11.2-30.7-11.2-30.7c5.2-5.4,10.9-5.7,10.9-5.7c3-0.7,18.9-0.2,18.9,23.4v80.5h32.7v-85.3
		C290.6,496.7,245.6,500.1,245.6,500.1z M206.1,587.5c-7,0-9.3-8.8-9.4-17.2c-0.2-14.6,9.3-25.1,9.4-25.3c0.2,0.2,9.6,10.7,9.4,25.3
		C215.5,578.7,213.1,587.5,206.1,587.5z">
  </path>
  <path class="st0" d="M103.3,502.3H70.6v132.5h32.7V502.3z">
  </path>
  <path class="st0" d="M87,444.9c-10.9,0-19.9,8.8-19.9,19.6c0,10.9,8.9,19.9,19.9,19.9c10.8,0,19.6-8.9,19.6-19.9
		C106.6,453.9,97.7,444.9,87,444.9z">
  </path>
  <path class="st0" d="M-32.9,511.2V444h-32.4v190.8h32.4v-95.5c53.7-26.1,51.7,15.2,51.7,15.2v80.3h32.5v-80.3
		C51.2,476.9-16.6,502.5-32.9,511.2z">
  </path>
  <path class="st0" d="M335.6,575c17.4,6.1,39.5,5.6,39.5,5.6c52.4-0.3,50.9-38.4,50.9-38.4c-1.3-42.9-51.7-42.1-51.7-42.1
		c-41.7,0-70.9,28.6-70.9,69.5c0,40.9,28.6,67.3,72.8,67.3c18.8,0,36.7-5.2,49.2-14.3v-31.5c-13.1,11.3-28.8,17.3-45.4,17.3
		C380.1,608.4,334.7,610.7,335.6,575z M339.6,547.1c5.5-13.9,16.9-21.2,33.1-21.2c13.3,0,21,5.6,21,14.5c0,12.5-14.1,13.6-27.3,13.6
		c-13,0-21-1.4-24.6-2.3l-3.5-0.8L339.6,547.1z">
  </path>
  <path class="st0" d="M-132.4,636.9c23,0,39.3-8.7,49-16v-31.7c-14.3,11.3-31.1,17.8-46,17.8c-23.8,0-40.5-16.4-40.5-40
		c0-22.4,15.2-38,36.9-38c7.1,0,13.2,1.8,19.7,3.6c6.7,1.9,13.7,4,22,4c2.6,0,5.2-0.2,7.8-0.6v-30.2c-2.2,0.2-4.3,0.4-6.5,0.4
		c-7.5,0-14.3-1.4-21.4-2.9c-7.5-1.6-15.2-3.2-24.3-3.2c-18.1,0-34.9,6.4-47.2,18.2c-13.1,12.5-20.1,29.9-20.1,50.2
		C-203,608.8-174,636.9-132.4,636.9z">
  </path>
  <path class="st0" d="M464.5,516.3c0-2-0.3-3.8-1-5.4c-0.6-1.7-1.5-3.1-2.7-4.3c-1.1-1.2-2.5-2.1-4-2.7c-1.5-0.7-3.1-1-4.9-1
		c-1.8,0-3.4,0.3-5,1c-1.5,0.6-2.8,1.6-4,2.7c-1.1,1.2-2,2.6-2.7,4.3c-0.6,1.7-1,3.5-1,5.4c0,1.9,0.3,3.6,0.9,5.2
		c0.6,1.6,1.4,3.1,2.5,4.3c1.1,1.2,2.4,2.2,4,2.9c1.5,0.7,3.3,1,5.2,1c1.7,0,3.4-0.3,4.9-1c1.5-0.7,2.8-1.6,4-2.8
		c1.1-1.2,2-2.6,2.7-4.2C464.2,520.1,464.5,518.3,464.5,516.3z M468,516.3c0,2.4-0.4,4.7-1.3,6.7c-0.8,2-2,3.7-3.5,5.1
		c-1.5,1.4-3.2,2.5-5.1,3.3c-1.9,0.8-3.9,1.2-6.1,1.2c-2.4,0-4.5-0.4-6.5-1.2c-1.9-0.8-3.6-2-5.1-3.4c-1.4-1.5-2.5-3.2-3.3-5.1
		c-0.8-2-1.2-4.2-1.2-6.5c0-2.4,0.4-4.7,1.3-6.7c0.9-2,2-3.7,3.5-5.1c1.5-1.4,3.2-2.5,5.1-3.3c1.9-0.8,4-1.2,6.1-1.2
		c2.1,0,4.1,0.4,6.1,1.2c1.9,0.8,3.6,1.9,5.1,3.3c1.5,1.4,2.6,3.1,3.5,5.1C467.6,511.6,468,513.9,468,516.3z M452.1,515.4
		c0.6,0,1.1,0,1.6,0c0.5-0.1,1-0.2,1.4-0.4c0.4-0.2,0.7-0.5,0.9-0.8c0.2-0.4,0.3-0.9,0.3-1.6c0-0.6-0.1-1-0.4-1.3
		c-0.2-0.3-0.5-0.6-0.9-0.7s-0.8-0.3-1.3-0.3c-0.5-0.1-0.9-0.1-1.4-0.1h-3.6v5.3H452.1z M448.8,525.6h-3v-18h6.8
		c2.2,0,3.8,0.4,4.9,1.2c1.1,0.8,1.7,2.1,1.7,4c0,1.6-0.5,2.8-1.4,3.6c-0.9,0.8-2,1.2-3.4,1.4l5.1,7.9h-3.4l-4.7-7.7h-2.8V525.6z">
  </path>
  <path class="st0" d="M456.8,504.1c-1.5-0.7-3.1-1-4.8-1c-1.7,0-3.4,0.3-4.9,1l0,0c-1.5,0.6-2.8,1.5-3.9,2.7c-1.1,1.2-2,2.6-2.6,4.2
		c-0.6,1.6-0.9,3.4-0.9,5.3c0,1.8,0.3,3.5,0.9,5.1c0.6,1.6,1.4,3,2.4,4.2c1.1,1.2,2.4,2.1,3.9,2.8c1.5,0.7,3.2,1,5.1,1
		c1.7,0,3.3-0.3,4.8-0.9c1.5-0.7,2.8-1.6,3.9-2.7c1.1-1.2,2-2.5,2.6-4.1c0.6-1.6,0.9-3.4,0.9-5.4c0-1.9-0.3-3.7-0.9-5.3
		c-0.6-1.6-1.5-3-2.6-4.2C459.6,505.6,458.3,504.7,456.8,504.1L456.8,504.1z M456.9,528.8c-1.5,0.6-3.1,1-4.9,1
		c-1.9,0-3.7-0.3-5.2-1c-1.5-0.7-2.9-1.7-4-2.9c-1.1-1.2-1.9-2.6-2.5-4.3c-0.6-1.6-0.9-3.4-0.9-5.2c0-2,0.3-3.8,1-5.4
		c0.6-1.7,1.5-3.1,2.7-4.3c1.1-1.2,2.5-2.1,4-2.7c1.5-0.7,3.2-1,5-1c1.7,0,3.4,0.3,4.9,1c1.5,0.6,2.8,1.6,4,2.7
		c1.1,1.2,2,2.6,2.7,4.3c0.6,1.7,1,3.5,1,5.4c0,2-0.3,3.8-1,5.5c-0.6,1.6-1.5,3-2.7,4.2C459.8,527.2,458.4,528.1,456.9,528.8z
		 M445.4,531.7c-2-0.9-3.7-2-5.2-3.5l0,0c-1.4-1.5-2.5-3.2-3.4-5.2l0,0c-0.8-2-1.2-4.2-1.2-6.6c0-2.5,0.4-4.7,1.3-6.8l0,0
		c0.9-2,2.1-3.8,3.6-5.2l0,0c1.5-1.5,3.3-2.6,5.2-3.4c2-0.8,4.1-1.2,6.3-1.2c2.2,0,4.2,0.4,6.2,1.2c2,0.8,3.7,1.9,5.2,3.4
		c1.5,1.5,2.7,3.2,3.6,5.2c0.9,2,1.3,4.3,1.3,6.8c0,2.5-0.4,4.7-1.3,6.8c-0.9,2-2,3.8-3.6,5.2c-1.5,1.5-3.2,2.6-5.2,3.4
		c-2,0.8-4,1.2-6.2,1.2C449.7,532.9,447.5,532.5,445.4,531.7L445.4,531.7z M458.1,531.4c1.9-0.8,3.6-1.9,5.1-3.3
		c1.5-1.4,2.6-3.1,3.5-5.1c0.9-2,1.3-4.2,1.3-6.7s-0.4-4.7-1.3-6.7c-0.8-2-2-3.7-3.5-5.1c-1.5-1.4-3.2-2.5-5.1-3.3
		c-1.9-0.8-3.9-1.2-6.1-1.2c-2.2,0-4.2,0.4-6.1,1.2c-1.9,0.8-3.7,1.9-5.1,3.3c-1.5,1.4-2.6,3.1-3.5,5.1c-0.8,2-1.3,4.2-1.3,6.7
		c0,2.3,0.4,4.5,1.2,6.5c0.8,2,1.9,3.7,3.3,5.1c1.4,1.5,3.1,2.6,5.1,3.4c2,0.8,4.1,1.2,6.5,1.2C454.2,532.6,456.2,532.2,458.1,531.4
		z M455.7,511.4L455.7,511.4c-0.2-0.3-0.5-0.5-0.8-0.7c-0.3-0.2-0.7-0.3-1.2-0.3l0,0l0,0c-0.5-0.1-0.9-0.1-1.3-0.1h-3.3v4.7h3
		c0.5,0,1.1,0,1.5,0c0.5-0.1,0.9-0.2,1.2-0.4c0.3-0.2,0.6-0.4,0.8-0.7c0.2-0.3,0.3-0.8,0.3-1.4C456,512,455.9,511.7,455.7,511.4
		L455.7,511.4z M456,514.1c-0.2,0.3-0.5,0.6-0.9,0.8c-0.4,0.2-0.8,0.3-1.4,0.4c-0.5,0-1,0-1.6,0h-3.3v-5.3h3.6c0.4,0,0.9,0,1.4,0.1
		c0.5,0,0.9,0.1,1.3,0.3s0.7,0.4,0.9,0.7c0.3,0.3,0.4,0.8,0.4,1.3C456.3,513.2,456.2,513.7,456,514.1z M449.1,525.9h-3.6v-18.6h7.1
		c2.2,0,3.9,0.4,5.1,1.3c1.2,0.9,1.8,2.3,1.8,4.2c0,1.7-0.5,3-1.5,3.8c-0.8,0.7-1.9,1.2-3,1.4l5.1,8h-4.1l-4.7-7.7h-2.3V525.9z
		 M448.8,517.9h2.8l4.7,7.7h3.4l-5.1-7.9c0.1,0,0.2,0,0.3,0c1.2-0.2,2.2-0.6,3-1.3c0.9-0.8,1.4-1.9,1.4-3.6c0-1.8-0.6-3.2-1.7-4
		c-1.1-0.8-2.7-1.2-4.9-1.2h-6.8v18h3V517.9z">
  </path>
 </g>
</svg>