<svg version="1.1" id="Layer_1" xmlns="http://www.w3.org/2000/svg" xmlns:xlink="http://www.w3.org/1999/xlink" x="0px" y="0px" viewBox="-203 444 193 193" style="enable-background:new -203 444 193 193;" xml:space="preserve">
 <style type="text/css">
  .st0{fill:#1EC677;}
	.st1{fill:#FFFFFF;}
 </style>
 <g>
  <path class="st0" d="M-59.2,637h-94.7c-27.2,0-49.2-22-49.2-49.2v-94.7c0-27.2,22-49.2,49.2-49.2h94.7C-32,444-10,466-10,493.2
		v94.7C-10,615-32,637-59.2,637z">
  </path>
  <path class="st1" d="M-100.1,597.5c19.5,0,33.4-7.4,41.6-13.6v-26.9c-12.1,9.6-26.4,15.1-39,15.1c-20.2,0-34.4-13.9-34.4-33.9
		c0-19,12.9-32.2,31.3-32.2c6,0,11.2,1.5,16.7,3.1c5.7,1.6,11.6,3.4,18.7,3.4c2.2,0,4.4-0.2,6.6-0.5v-25.6c-1.9,0.2-3.6,0.3-5.5,0.3
		c-6.4,0-12.1-1.2-18.2-2.5c-6.4-1.4-12.9-2.7-20.6-2.7c-15.4,0-29.6,5.4-40.1,15.4c-11.1,10.6-17.1,25.4-17.1,42.6
		C-160,573.7-135.4,597.5-100.1,597.5z">
  </path>
 </g>
</svg>