<svg
  xmlns="http://www.w3.org/2000/svg"
  viewBox="0 0 153 42"
  fill="none"
>
  <path
    fill-rule="evenodd"
    clip-rule="evenodd"
    fill="#EF4056"
    d="M50.5758 8.83154H53.0058L52.989 8.81478C57.698 8.81478 61.5357 12.7027 61.6865 17.3782L61.7367 31.1366C61.7367 31.7734 61.2172 32.2762 60.5804 32.2762H35.2253C30.5666 32.2762 26.7625 28.6229 26.5111 24.0144V7.02165C26.5111 6.38485 27.0306 5.86535 27.6674 5.86535H31.1699C31.8067 5.86535 32.3262 6.38485 32.3262 7.02165V24.735C32.3262 25.707 33.1138 26.4946 34.069 26.4946H55.9217V17.6631C55.9217 16.0711 54.6481 14.7137 53.056 14.7137H39.3478C38.3088 14.7137 37.7893 13.4735 38.5267 12.7362L50.9277 0.502737C51.2629 0.184332 51.6986 0 52.1679 0H58.1338C58.737 0 59.0554 0.720595 58.6365 1.17307L50.5758 8.83154ZM5.9158 22.84C6.08338 23.3092 6.53582 23.6276 7.03856 23.6276H10.6919C11.4963 23.6276 12.0661 22.8232 11.7979 22.0523L5.9158 6.68512C5.74822 6.21589 5.3125 5.91424 4.80975 5.91424H1.18999C0.385596 5.91424 -0.18417 6.71863 0.100718 7.47275L5.9158 22.8567V22.84ZM144.202 8.84807H135.89C135.555 8.84807 135.236 8.96538 134.985 9.19999L132.79 11.3953C132.555 11.6299 132.421 11.9483 132.421 12.3002V13.5906C132.421 14.2107 132.924 14.7134 133.544 14.7134H145.375C146.347 14.7134 147.135 15.5011 147.135 16.473V24.7013C147.135 25.6733 146.347 26.4609 145.375 26.4609H140.85H140.817H133.577C132.924 26.4609 132.404 26.9804 132.404 27.634V31.1699C132.404 31.8067 132.924 32.3262 133.577 32.3262H144.202C149.062 32.3262 153 28.3881 153 23.5282V17.6461C153 12.7862 149.062 8.84807 144.202 8.84807ZM104.068 35.3437H107.738C108.341 35.3437 108.844 35.8464 108.844 36.4497V40.1365C108.844 40.7398 108.341 41.2426 107.738 41.2426H104.068C103.465 41.2426 102.962 40.7398 102.962 40.1365V36.4497C102.962 35.8464 103.465 35.3437 104.068 35.3437ZM128.3 35.3437H118.832C118.195 35.3437 117.675 35.8632 117.675 36.5V40.0863C117.675 40.7231 118.195 41.2426 118.832 41.2426H128.3C128.937 41.2426 129.456 40.7231 129.456 40.0863V36.5C129.456 35.8632 128.937 35.3437 128.3 35.3437ZM22.4224 5.89534H18.92C18.2832 5.89534 17.7636 6.41485 17.7636 7.05166V24.8488C17.7636 25.804 16.9928 26.5917 16.0208 26.5917H3.51922C3.18406 26.5917 2.86564 26.709 2.61427 26.9436L0.368681 29.0886C0.134067 29.3232 0 29.6416 0 29.9936V31.2839C0 31.904 0.502716 32.4067 1.12277 32.4067H14.8477C19.5065 32.4067 23.3106 28.7367 23.5285 24.145V7.06841C23.5452 6.4316 23.0424 5.9121 22.4056 5.9121L22.4224 5.89534ZM124.73 14.7134H128.283V14.7469C128.92 14.7469 129.439 15.2832 129.423 15.92V24.0142C129.205 28.673 125.35 32.4268 120.641 32.4268H112.262C111.961 32.4268 111.659 32.2927 111.441 32.0749L108.86 29.4271H108.844V31.2537C108.844 31.9073 108.324 32.4268 107.67 32.4268H94.0964C94.0964 37.9235 90.6107 41.2583 85.3989 41.2583H73.4839C67.6018 41.2583 64.6523 38.3089 64.6523 32.4436V21.8021C64.6523 21.1485 65.1886 20.629 65.8254 20.629H69.3781C70.0149 20.629 70.5512 21.1653 70.5512 21.8021V33.7674C70.5512 34.6389 71.2718 35.3595 72.1432 35.3595H86.4715C87.4434 35.3595 88.231 34.5718 88.231 33.5999V32.41H83.5052C82.8517 32.41 82.3322 31.8738 82.3322 31.237V27.6842C82.3322 27.0307 82.8684 26.5112 83.5052 26.5112L102.978 26.4609L102.945 16.473C102.945 15.5011 102.157 14.7302 101.185 14.7302H89.3539C88.7338 14.7302 88.231 14.2274 88.231 13.6074V12.317C88.231 11.9651 88.3651 11.6467 88.5997 11.4121L90.795 9.21675C91.0464 8.98214 91.3648 8.84807 91.7 8.84807H100.012C104.771 8.84807 108.844 11.9651 108.844 17.6461V26.4609H121.798C122.77 26.4609 123.557 25.6733 123.557 24.7013V15.8865C123.557 15.2329 124.093 14.7134 124.73 14.7134Z"
  />
</svg>
