<svg xmlns="http://www.w3.org/2000/svg" viewBox="0 0 487 463" title="vinfast">
	<path fill="#16161a"
		d="m347 207-6 11-3 4-62 104-8 9 1-2q2-4 2-9v-4l-1-1v-1h-1v-1h-1l-1-1-4-3-1-1v1h-2l-1 1-6 4-1 1h-1q0 1 0 0l-2 1v1h-1l-1 2h-3l1-2 4-3 2-2 2-1 1-2 3-4a308 308 0 0 0 47-63l10-13-1 1h1l1-1h1l1-1h1l4-4v1h1l-1-1 1-1 2-2h1l-1-1 1-1 1-1v-3h1v-5l-1-1v-5l5-9 1-3 3-5 21-38 3-5 66-105a64 64 0 0 1 19-19v1q1 1-1 4l-2 4v1l-5 8-8 14-7 13-3 7-17 30-7 13-35 65-5 8-1 2zm54-104q-1 2 0 0l2-2 1-3 2-3 5-10 4-7 4-7z" />
	<path fill="#c4c5c7"
		d="m171 187 1 2 1 2 8 11 3 3 1 2 3 4 3 5 2 2 10 14 1 1 2 3 1 2 2 2 2 3 4 5 2 1c1 3 15 18 20 22l1 1-3 1-3-2-2-1 6 6 2 3v2l-3 24h-2l-2-2a202 202 0 0 1-46-61A5619 5619 0 0 1 71 49L59 33q-9-12-22-16l-5-2 4 1h1l6 3 8 4 2 2 4 3 2 2v1h1l8 11 12 17 2 2 23 35 5 7 4 6 2 3 5 7 6 8 2 4 1 1v1l2 2 1 2 1 2h1v1l2 3 2 3 2 2 1 1 3 5 1 1 1 1v1l2 4 1 1v1l2 1 1 2 3 4zm-35-37 1 1 2 3 1 3 1 2 1 2 1 2 7 10 19 32 2 3v1l1 1 2 3 1 2a277 277 0 0 0 32 41l3 3 14 13h2l-1-1-23-28-2-2-1-2-32-47-8-11-1-3-3-3-4-5v-1l-1-1-5-8-1-1-1-1-1-1-1-1-1-2-1-2z" />
	<path fill="#16161a"
		d="m206 327-22-35a821 821 0 0 1-45-81l-33-61-30-57-8-14-29-53v-3l7 4a88 88 0 0 1 21 29l1 2a614 614 0 0 0 41 71l29 50 23 40 20 35 7 13 1 1 2 4 4 8 32 67-8-10-1-4-1-1h1v-1l-1-1-1-1h-1v-3l-1-1v-1l-1-1-1-2v-1l-1-1-1-1q-2 1 0 0v-1l-1-2-2-5-1-2-1-2-1-2-1-3v-1h-1v-2l-1-1v-1l-1-1v-1l-1-1v-1l-1-2-2-3-2-4v-1l-2-4-1-2-1-2-1-1v-2l-1-2-1-2-1-1-1-1v-1l-1-2v-1l-2-4-1-2-1-1-1-2-1-2-1-1v-2h-1l-1-1v-1l-1-1-1-1v-2h-1l-1-2-4-6-1-2-1-1v4q-1 0 0 0v2l-1-1h-1l-1 1v1h1l2 1v1q2 0 0 0l-1 1v7q0 2 0 0l-1-1-1-1-1-2-1-1-1-2-4-8-2-3-2-4-3-5-3-4-23-43-26-46-2-2-1-3v1l-4-7 49 91 48 86 35 52 16 16q3 3 8 3l-1 1-5-1-6-5z" />
	<path fill="#595d69"
		d="m461 12 10-8-4 4-6 6-2 3h-1l-3 4-1 1-2 3-5 7-5 9-1 2-2 3-4 7v2l-1 2h-1l-2 3-1 3-1 1v1l-1 1-1 1-1 2v3l-1 1-11 23-33 64-1 3h-1v1l-1 2-1 2-1 1-1 1-3 6-16 32-26 50-1 3-1 1v1l-1 2-1 2-1 1-3 7-3 6-1 2-2 6-1 3-2 4-1 2-1 2v1l-1 1-2 6-7 16-9 19-1 2-10 11-2 2-2 4-1 1-1 3-3 2q-2 0-2-3l-1-1-1-2 1-6v-2l4-12 2-6q1-3-1 0l3-7 2-2a644 644 0 0 0 39-63l50-91a1371 1371 0 0 0 55-101l9-17 27-42z" />
	<path fill="#3f4249"
		d="m402 58 1-1 2-2 5-6 1-3 9-10 7-8 3-3-2 3q-7 6-12 15l-10 13-9 14-34 54-4 6-15 25-3 5-25 37-1 2-1 1-1 1-1 1-1 1-2 4-1 1-2 3-3 5-1 2-5 10-1 1-1 1-1 2-5 7-4 5q-15 20-23 27-5 4-7 3h-1l1-1v-3q-1 1 0 0h-2q-7 6-6 1a263 263 0 0 0 46-55l4-5 2-4 6-8 2-2 2-3 1-2 2-3 1-2 1-1 1-2 3-4 1-1 2-2 2-3 1-2 1-1 1-2 1-1 2-3 1-1 1-2 1-1 2-3 12-19 20-28 4-6 4-6 1-1 1-1 2-4 7-10 2-3 1-1 2-3 3-5 1-1zm-8 12" />
	<path fill="#a8acaf"
		d="M483 2v1l-4 4-3 2-2 2-10 14-3 4-11 18-3 6-22 41-129 246 1-3 2-4 5-14 22-47 5-12 1-2 48-95 1-3 7-13 9-17 28-57 1-1 1-1 1-3 1-4 1-1 1-1 1-1 1-2v-2h1l1-2v-1l2-3 2-4 9-13 3-6 2-3 2-3 3-5h1l2-3 6-6 4-4 5-3-1 2c-10 6-14 11-22 25a1109 1109 0 0 0-55 108l-40 81-14 32 3-5 44-84a2155 2155 0 0 1 76-142c7-9 8-10 16-16" />
	<path fill="#3e4148"
		d="m180 254 21 32 14 17 2 2 4 5 2 2 5 9 6 13 1 6 3 19 1 1 2 2h2l4-4 1-1v-11l-1-2-5-16v-2l1-5 1-1q1 1 10-7l-1 2-2 1-2 2-4 3-1 2h3l1-2h1v-1l2-1q0 1 0 0h1l1-1 6-4 1-1h2v-1l1 1 4 3 1 1h1v1h1v1l1 1v4q1 5-2 9l-1 2v1h1l14-21a1341 1341 0 0 0 55-93l3-4 6-11-2 4-47 81-20 33q-14 19-25 30l-9 7h-3c-6-2-20-18-32-35l-31-49 25 39 25 32-2-2q3 0 1-2l-2-3-1-2-1-2v-2h-1v-1l-1-2-1-1-1-3v-1l-1-1-1-2h-1v-1q2 0 0 0v-1l-1-1-1-1-2-6-1-2v-1l-2-3v-1l-1-1-1-2v-2l-2-2v-1l-2-3-3-6-3-5v-1z" />
	<path fill="#323237"
		d="M150 229 93 125l-1-2v-1l1 3 2 2 1 2 2 3 1 2v2l2 2 3 4 40 74 3 4 9 16 7 11q0 1 0 0v-7l1-1q1 0 0 0v-1l-2-1h-1v-1l1-1h1l1 1v-2q-1 0 0 0v-4l1 1 1 2 1 1 10 16 1 2 1 2 1 1 1 2 2 4v1l1 2v1l1 1 1 1 1 2 1 2v2l1 1 1 2 1 2 2 4v1l2 4 2 3 1 2v1l1 1v1l1 1v1l1 1v2h1v1l1 3 1 2 1 2 1 2 1 1v2l1 1 1 3v1q-1 1 0 0l1 1 1 1v1l1 2 1 1v1l1 1v3h1l1 1 1 1v1h-1l1 1 1 4 2 2 1 1 5 7 2 2 2 2-2-2-3-2a202 202 0 0 1-27-38l-20-31-2-4z" />
	<path fill="#798798"
		d="m380 163-2 5-46 90-1 2-27 59-5 14-2 4-1 3-2 4-6 12h1l8-12 2-4-4 9-8 12-4 6c-8 16-24 39-33 48l-3 3v-1l8-8 11-15 9-15-7 10-21 28 3-5 9-15h-1l1-6v-4l-1-3v-4a56 56 0 0 1 6-24l3-9 2-5 2-3 2-2 1-1q2-3 1 0l-3 9-1 3-2 8v8l1 1q0 3 2 3l3-2 1-3 1-1 2-4 2-2 11-13 13-27 6-15v-1l1-2 1-2 1-2 1-2 1-3v-1l1-1 1-4 1-2 1-1 2-5 4-8 1-2 1-2v-1l1-1v-1l2-3 2-4 33-64z" />
	<path fill="#97a5b3"
		d="m136 150 3 3 2 4 1 1 1 1 1 1 1 1 1 3 5 7 4 5 4 6 45 65 7 9 5 5 10 12h-2l-1-1h-1l-2-2v-1l-4-2-6-7-3-3-2-2-1-2h-1l-3-3-1-1-1-2-10-13-2-1-1-2-13-20-1-1v-1l-2-3-1-1v-1l-2-3-1-1-15-26z" />
	<path fill="#3a4c64"
		d="m217 305-2-2-18-22-13-22-4-5v-2l-1-1-1-1-1-1-4-7q1 0 0 0l-2-4-17-29-52-90-14-24-17-30 2 3 3 3v-1l-9-12-1-2-1-2-2-5-2-2-1-3 3 4 21 33 18 29h-1l1 2 3 6 1 1 1 1 1 2v1-2l1 2 34 55 32 53h-1l2 2 1 3-1-2-5-7-1-2-15-24-1-2-14-23-37-60-7-13-1-1-4-5 85 148a366 366 0 0 0 41 60" />
	<path fill="#798798"
		d="m217 305-5-6c-11-14-20-27-36-54l-69-120-16-28-6-10 10 15 1 1q-1 2 2 5l34 59 24 41 26 44 11 19 1 1a214 214 0 0 0 38 47l5 6q-1 0 0 0l3 6 1-4-1-2 1-2 1-2h1l-1 5v6l1 6 3 11 1 7-1 1 1 1-4 4h-2l-2-2-1-1h1v-3l-1-3-1-13-2-13-4-6v-1l-1-1z" />
	<path fill="#72737a"
		d="m297 228 1-2 1-2 10-17 2-4 1-1 1-1 1-1 1-1 1-2 1-1 1-2 3-3-1 1-6 11 11-17 16-26 3-5-17 28-30 51-36 47-7 3h-6l-1-3v-6l1-1h3l-1 2v3l8-2 7-5a204 204 0 0 0 32-44" />
	<path fill="#67819b"
		d="m149 156-12-17-3-4-2-1-3-3-2-4-6-8v-1l1 1q2 1-1-2l-3-5-2-2-1-1h-1l-4-6-5-7 14 16 1 1v1l1 1v1h1v1h1l3 5 2 4 5 7 2 2 1 2 2 3 1 1 1 1v1l1 1 1 1v1l1 1v1l1 1 1 1 1 1v1l1 1 1 1v1z" />
	<path fill="#354972"
		d="m314 233-2 1-1 2-3 4-17 25 2-3 23-37h1l4-5q2-4 1-6l3-4 7-11-5 9v5l1 1v4l-1 1v3l-2 2-2 3-1 1-4 4h-1l-1 1z" />
	<path fill="#c4c5c7"
		d="m259 353 3-1-3 7-1 4-1 4-4 17v7l1 3v9l-1 1-3 6-1 1v-2h1-1v-2l1-2h-1v-6l-1-1v-3l1 1v-2l2-12v-2l1-4 1-4 1-4v-1l1-1 4-12z" />
	<path fill="#97a5b3"
		d="m149 156 1 1 2 4 1 2 10 13 8 11 1 2 3 5 6 9-1-1-1-1-1-1-6-7-6-8-36-53-1-1 3 3 2 1 3 4 1 2z" />
	<path fill="#bdcadb" d="m96 103 44 73 14 23 1 2-2-2-3-4-18-28-25-43z" />
	<path fill="#5d6e8b"
		d="m238 359-3-19-2-9-5-10-5-9-2-2h1l9 11a29 29 0 0 1 6 19l2 19zm119-206-21 38-3 5v-1l-1 1-1-1z" />
	<path fill="#3e4148" d="m401 103 18-33-4 7z" />
	<path fill="#798798" d="m281 277-2 2-1 1z" />
	<path fill="#97a5b3"
		d="m194 272 2 3a392 392 0 0 0 42 48h2l2-2-1 2-1 2 1 2-1 4-1 1-1-4-1-3-5-6a362 362 0 0 1-38-47" />
	<path fill="#5d6e8b" d="m242 328 2 3 2 8 2 7v11l-1 1-1-1 1-1-1-8-3-10-1-6z" />
	<path fill="#16161a"
		d="m170 225 1 2 5 7 1 2 2 3a655 655 0 0 0 44 62l3 4 11 10q5 5 10 0c3-2 12-11 19-20h1v-1h1v-1l2-2 11-14-1 2h-1l-2 3c-7 10-21 27-28 32q-6 8-14 0a580 580 0 0 1-65-90m105 108-10 12 1-1a273 273 0 0 0 30-45z" />
	<path fill="#798798" d="m442 33 2-4q2-3 1-4v-1l-1 1q-7 5-18 18l16-18q4-3 5-2v1l-3 6z" />
	<path fill="#97a5b3" d="m177 236-1-3-2-2h1l42 62 6 8-18-21-26-41z" />
	<path fill="#c9d2de" d="M158 207v2l-2-1-1-3-1-1v-1l-1-1-1-2v-1h-1 2l2 3z" />
	<path fill="#564e47" d="m150 229 2 2 6 12 20 35v-1l-22-37z" />
	<path fill="#c4c5c7" d="m250 291 1-1h8l2-2v-1l2-1 2-1 4-3 2-2-4 5q-5 5-10 6z" />
	<path fill="#3e485c" d="m67 58 1 2 2 2 5 9-3-3-2-3z" />
	<path fill="#768ea5" d="M114 109h1l1 1 2 2 3 5q3 3 1 2l-1-1v1l-5-7z" />
	<path fill="#6d9dd1" d="M322 214q1 2-1 6l-4 5h-1l2-2 4-7z" />
	<path fill="#101010" d="m71 167 1 2 1 1v2l1 2h1v1l2 2v1h-2v-1l-1-2-1-2v-1l-2-4z" />
	<path fill="#595d69" d="m355 192 5-8-1 3z" />
	<path fill="#a8acaf" d="m379 187-3 7-1-1 2-3z" />
	<path fill="#3e4148" d="m265 344-9 11v-1z" />
	<path fill="#a0a5a9" d="m394 70 1-2 2-3 5-7z" />
	<path fill="#808790" d="M38 23v3l-1-2z" />
	<path fill="#99a6b4" d="m354 194 1-2h1z" />
	<path fill="#37486d" d="m315 233-1 1h-1l1-1z" />
	<path fill="#9d9a98" d="M267 294v1h-1z" />
	<path fill="#36476f" d="M325 224h-1z" />
	<path fill="#35476e" d="M327 220v2z" />
	<path fill="#fff"
		d="m439 19 4-1 3-2h2l3-1 7-1 1-1-4 6a505 505 0 0 0-49 85l-14 26a1371 1371 0 0 1-55 101 1394 1394 0 0 1-58 96l-2 2-2 2-9 12-1 1-9 10v1l-8 7-3 2h-1q-5 0-8-3a199 199 0 0 1-28-32 711 711 0 0 1-56-93l-2-8v1l28 48v1l3 5 28 44c12 17 26 33 32 35h3l9-7q11-11 25-30a877 877 0 0 0 59-100l8-14 2-4 7-13h1l1-2 3-5 1-3 27-49 55-101v-1l2-3 3-6v-1q-1-1-5 2a88 88 0 0 0-19 21 579 579 0 0 0-45 73l-18 29-3 5-16 26-8 16v1l-1 3-7 11-3 4-6 11-18 30-5 7-2 3a355 355 0 0 1-34 44l-3 4q-9 8-10 7l-1 1h-1l-2 2h-2a219 219 0 0 1-42-48l-2-3-1-1a705 705 0 0 1-40-69v-3l2 2 27 45a580 580 0 0 0 53 68q8 7 14 0c7-5 21-22 28-32l2-3h1l1-2 28-43 6-11-4 5-43 65v1h-1l-1 1c-7 9-16 18-19 20q-5 5-10 0l-11-10-3-4-6-8a209 209 0 0 1-26-36l-16-26-66-108-1-2-5-8-1-3-39-62-3-4-15-17-7-4h-1v1l1 2 8 15 21 38 8 14 44 82-52-91-15-27-26-43h2l3 1h1l1 1 4 1q13 4 22 16l12 16a617 617 0 0 1 62 104l18 32 50 82a245 245 0 0 0 30 36l2 2h2l1-3 2-21v-2l-3-6 3-1 4 1 4-1 1-1-1 2v1l1 14v2h1l2 1h7q5-1 10-6l4-5 12-15a692 692 0 0 0 50-87l2-3h1v-1l4-8h1v-1l1-2h1-1l1-1v-1l4-7h1-1l10-16 44-71 18-27q9-12 19-20zM158 207l-5-8-10-14 15 24z" />
	<path fill="#16161a"
		d="m257 455-3 2-1 1-2 1-2 1h-1v1h-2l-4 1-5-1-7-4a94 94 0 0 1-23-24l-7-10-10-14-1-3-5-7-1-2-6-10-1-2-1-2-2-3-8-16-2-4-7-12-4-7-9-19-17-33-1-4-10-21-3-6-1-1-15-33a1602 1602 0 0 1-47-104l-2-4-1-2v-1l-1-1v-2l-9-19-1-3-2-3-1-4-1-1-1-4-1-1-2-6-2-4v-1l-4-7-4-12L7 21l-1-2-2-4v-2L1 5V2l1 1q8 3 24 31l5 9 7 12 8 17-3-6-3-4 2 4 2 3 8 17 2 4 21 45 55 112h1l5 13 6 11 49 93 1 1 1 1 14 22 22 32 1 1v1h-1l1 1h-2l-1-1v-1l-1-1-3-2h-1v-1l-3-4-2-2h-1v-1h-1l-1-2v-1h-1v-1h-1l-1-1h-3q1 0 0 0v-1h-1l1-1h1l-2-2v-1l-1-1-1-1-1-1v-2h-1q0 2 0 0l-1-1-1-2-2-1v-1l-1-1-1-1-1-1-1-2v-1l-1-1-1-2h-1l-2-4h-1v-1l-1-1v-1q-1 0 0 0v-1h-1v-1h-1v-1h-1v-1h-1v-1l-2-4v-1l-1-1v-1l-2-2-1-1v-1l-1-1-2-4-1-1v-1l-1-1v-1l-1-1v-1l-1-1-1-1-1-2v-1l-1-1-2-2v-1l-2-3v-2q0-2-1-1l-1-2-1-1-2-4v-1l-2-3-1-1v-1l-1-1v-1l-1-1-1-1v-1q0-2 0 0l-1-2-1-1v-1l-1-1-1-2v-1l-1-1v-1l-1-2-2-2-1-1-1-3-1-1v-1l-1-1v-1l-1-1v-1l-1-1h-1v-2l-1-1v-1q-1 0 0 0v-1l-1-1-1-1v-1l-2-2-1-2q0 1 0 0v-1l-1-2-1-1-1-1v-1l-2-3-1-1-1-2v-1l-1-2-1-1-2-4-1-1v-1l-2-3-1-1v3-1h1v1l-1 1v1h1v-1h1v2l2 5v3l1 1 2 4v2l1 1v5h1l1 1 1 1 1 1 1 2 1 2-2 1 1 1v1l2 3 5 11a599 599 0 0 0 35 71l10 17 16 25 5 7 1 2a145 145 0 0 0 32 33l7 2h3l14-9 2-1 2-1zq-1 0 0 0M2 4v5l1 1v1l10 25 1 1v2l1 2 2 4v1l1 1 2 5 2 4v1l1 3 1 1 2 6 10 24 2 3 2 6 2 2 1 3 7 16 4 9v1l1 1 1 2v1l1 3 1 1 3 7 1 2 1 2 1 3 1 1v2l3 5 1 2v2h1v-2l1 1h1v-1l-1-1-1-2v-1l-1-3-1-1q-1 1-1-1v-1l-1-2v-2l-1-2-1-1v-3h-1l-1-1v-2l-1-1v-1l-1-1v-2l-1-2-1-1-1-3v-1l-1-2-1-3-4-8v-1l-1-2-1-3-1-2-1-2-1-1-1-3v-2l-1-1-1-2-1-2-1-2-1-3-1-2-2-5-1-2-4-11-2-3-3-8v-1l-1-2v-2l-1-1v-1l-1-1v-1l-1-1-4-13v-3l1 1 1 1 1 1v2q3 2 2 6l1 1 1 1 1 1v1l1 1 1 2h1v4l1 1 1 1 2 2v1l1 1v1l1 2 1 1 1 2q-1 1 1 2 2 0 1 1l1 2 1 1v1h2l-1-1v-1l-2-2-1-2v-1l-1-1q0 1 0 0v-2l-1-1A423 423 0 0 0 7 10zm69 163v1l2 4v1l1 2 1 2v1h2v-1q-1 1-2-1v-2h-1l-1-2v-2l-1-1z" />
	<path fill="#3e485c"
		d="m483 7-1 2-5 13-1 1-1 3-5 12-1 2-5 14-1 1v2l-1 1-1 1-6 15v1l-3 7-1 2-1 2-15 33-1 2v1l-1 2-1 2v1l-1 1-6 14-2 5-1 2-1 2-5 12-2 5-6 12-1 1-11 25-1 2-5 12-1 2-1 3h-1v1l-1 2-9 19-3 7-1 2v1l-5 9-4 9-7 14-2 4-8 17-2 4-6 14-16 29-13 25-2 4-1 1-1 1v1l-1 1-1 2-1 2-1 2-5 8v1l-1 1q-2 0-2 3l-2 3-2 2-2 4-4 6-1 1-2 3-6 8-18 19q-1 0 0 0l1-2 6-5-2 1-2 1-1 1-1 1-2 2-2 1-8 4h-3l-7-2-1-1v1l-1-1-2-1v-1h-1l-1-1-1-1-1-1h-1v-1q0 1 0 0l-2-1v-1l-6-6q0 1 0 0l-2-2-2-3h-1l-3-4-2-3-14-18-3-5-15-26-10-18-5-10a660 660 0 0 1-31-68l-1-2-1-2-1-1-1-1-1-1h-1v-5l-1-1v-2l-2-4-1-1v-3l-2-5v-2h-1v1h-1v-1l1-1v-1h-1v1-3l1 1 2 3v1l1 1 2 4 1 1 1 2v1l1 2 1 1 2 3v1l1 1 1 1 1 2v1q0 1 0 0l1 2 2 2v1l1 1 1 1v1q-1 0 0 0v1l1 1v2h1l1 1v1l1 1v1l1 1v1l1 1 1 3 1 1 2 2 1 2v1l1 1v1l1 2 1 1v1l1 1 1 2q0-1 0 0v1l1 1 1 1v1l1 1v1l1 1 2 3v1l2 4 1 1 1 2q1-1 1 1v2l2 3v1l2 2 1 1v1l1 2 1 1 1 1v1l1 1v1l1 1v1l1 1 2 4 1 1v1l1 1 2 2v1l1 1v1l2 4v1h1v1h1v1h1v1h1v1q-2 0 0 0v1l1 1v1h1l2 4h1l1 2 1 1v1l1 2 1 1 1 1 1 1v1l2 1 1 2 1 1q0 1 0 0h1v2l1 1 1 1 1 1h-1q-1 1-3-2l-1-1-4-7h-1l-1-1-2-4v-1h-2v-1h1l-1-1h-1l-1-2h-1v-1l-2-1-1-2-1-3-1-1h-1v1l1 1 1 1v3l1 1v1l1 1 1 1v1l1 2 1 1 1 1v2l1 1 2 3v1l2 2 1 3 1 1 4 6 9 14 4 5 2 4 1 1 2 2 1 2 2 2 2 2 1 2h1l1 2h1l9 9 1 1h2l-1-2-2-13v-2 1-4l-1-8-1-1 2 2h1v6l1 9q-1 3 3 5h1l1-6 1-3v-8q0-1 0 0h-1l-2-1h-1v-1l1-2 1-1 8-7q14-15 29-40l2-3 3-2v1l-1 1h1l1-1 4-2 2-3v-5l-1-3q0 2 0 0l2-5 3-6h3l12-17 5-7 1-2 1-1 3-4 1-2 1-2 2-3 1-1 1-2 1-1 2-3 1-2v-2l2-2 1-3 1-3h1l1-1 1-4 54-105 42-90 21-47 5-12 5-10-1 1-1 2 10-14 2-2v2l-1 1-13 27-5 11-5 12-28 62-26 56-10 20-2 3-38 78h-1l-8 17a814 814 0 0 1-50 92l-3 5-4 6-2 3-2 4a299 299 0 0 1-32 44v3h1l2-1h1l2-1q9-5 23-23l21-31a498 498 0 0 0 32-57l45-92 2-5 54-120 7-15 5-9 20-48 10-24 7-18 1-2V7l4-4zM277 385l-6 9zm-130-69 1 3 5 10 3 6 12 23 1 2v-3l-1-1-1-2v-1l-1-1-1-3-5-9-1-4-2-2v-1h-1v-1l-1-2-1-1v-1l-1-1v-1l-1-1-1-1v-2l-1-1-1-3-1-1zm26 50 1 1 1 3v1l2 3v1l2 3 2 3 2 3v1l1 1 1 1v-1l-1-2-2-3-1-1v-1l-1-2-1-1v-1l-1-1v-1l-1-1v-1l-2-3-1-1z" />
	<path fill="#a0a5a9"
		d="m17 7 3 2 5 4 1 1 3 6 8 10 15 27 50 93 2 3 17 31 4 7a2908 2908 0 0 0 83 144v2l1 1 3 7 1 1 1 2 1 3v1l1 1v3l5 24-1 1h2v4l1 8q-2 0 0 0v1l-3-3-1-2 13 20 3 5-2-3a213 213 0 0 1-23-35 1123 1123 0 0 1-50-85l-50-96-4-8-8-15-6-13-5-10-1-1-1-3 4 7 38 74 44 80h1v2l1 1-1-3-2-4-3-7-26-49L60 81 31 27l-4-8-7-9zm37 61q0-1 0 0l2 4 10 21 39 79-1-3-46-94-1-2z" />
	<path fill="#97a5b3"
		d="m476 9 3-2v2l-1 2-1 1-1 3-29 70-6 16-5 9-3 8-17 37-31 69-10 21-2 5-15 32-65 121-18 27a81 81 0 0 1-25 24h-2q-1 1-1-1t8-11l4-5 2-2 17-25 8-13 15-28 29-53 34-67 22-46 2-3 36-76 28-62 5-12z" />
	<path fill="#16161a"
		d="m376 194 3-7 10-19 72-139 3-4 1-2 1-1-5 10a308 308 0 0 0-20 47l-14 29-38 81-74 138-3 4-12 17 5-10 7-15 20-41 9-17 12-25 9-19z" />
	<path fill="#fff"
		d="m1 2 4-1q5-1 7 2l2 1 2 2 1 1 3 3 7 9 9 15 2 3 4 7 1 2 2 3 2 4 1 2v1l1 1 1 2v2l-1-3-2-2 35 72 35 70 50 97 3 7h-1v1l-15-27-33-62-32-62-4-7-4-8-33-65-19-33-3-5C16 17 6 4 2 3z" />
	<path fill="#3f4249"
		d="m207 400 2 2h-1l-1 1h1v1q1 0 0 0h3l1 1h1v1h1v1l1 2h1v1h1l2 2 3 4v1h1l4 2 1 3h2l-1-1h1v-1l-1-1v-1l-2-2v-1h1l-6-7-11-14-25-42a635 635 0 0 1-34-63 991 991 0 0 1-40-81L54 90l-2-4-10-20-2-4 3 4 3 6v-1l-1-2-14-26-5-9 3 5a522 522 0 0 1 40 75l12 23 1 3 2 4v1l2 3 1 1v1l2 5 3 4 6 13-1-1-2-4a524 524 0 0 1-32-61l25 52 4 8 29 60a3202 3202 0 0 0 85 160l28 35 2 2 1 1 1 8v4-1 2l3 15h-2l-1-1-1-1-11-10-1-2-4-4-1-2-2-2-1-1-1-2-1-2-4-5-2-3-1-2-2-3-12-18v-1l-3-4v-2l-1-1-1-1-1-2v-1l-1-1-1-1v-1l-1-1v-3l-1-1-1-1v-1h1l1 1 1 3 1 2 2 1v1h1l1 2h1l1 1h-1v1h2v1l2 4 1 1h1v1l5 7q2 3 3 2z" />
	<path fill="#fff"
		d="m476 1 6 1h1c-8 6-9 7-16 16a492 492 0 0 0-40 71l-73 142-7 13-3 5-16 27a2721 2721 0 0 0 70-140 1671 1671 0 0 1 55-108 68 68 0 0 1 23-27" />
	<path fill="#fff"
		d="m375 193-14 27-9 19-12 25-9 17-35 66-3 6-5 10-5 8-3 4a259 259 0 0 1-37 47l-1 1h-1l-4-1h-1l-1-1a282 282 0 0 1-55-81l-25-48-28-61h-1l-1-3-1-1v-1l1 2 5 8 1 2 2 3 50 96 4 7a326 326 0 0 0 30 51l1 1c4 6 11 15 15 18q5 5 8 5t4-2h1l3-3a225 225 0 0 0 37-54l12-21 4-8 1-1 20-38 46-89z" />
	<path fill="#ddd"
		d="m220 347 18 17 5 1 1-1h1l3-2 8-6 3-3v1l-4 12-1 1v1l-1 4-1 4-1 4v2l-1 2-1 10v2l-1-1v3l1 1v6h1l-1 2v2h1-1v2l-4 6-2 1q1 0 0 0h-3l-4-5-1-2-1-4v-2l1-1v2l1-1v-7l-1-6-1-1-2-13v-2c-1-1-3-7-2-8l-1-1v-2h-1l-1-1v-1l-1-2-2-4h1q2 0 0 0v-1l-1-3-1-1-1-1-2-3zm9 11 1 3v1l1 4 1 4q2 1 1 3l1 1 2 5v2-4l1 36 3 3q3 1 6-2l1-1v-23l1-9 1-5v-7l1-2v-3h-1v1q-1 1 0 0l-2-2h-1q-6 3-13-3l-1-1-2-1z" />
	<path fill="#a0a5a9"
		d="m430 25 3-2 5-3 1-1-1 1q-10 8-19 20a984 984 0 0 0-72 114l-4 7v1l-1 1-1 2v1h-1l-4 8h-1v1l-2 3a307 307 0 0 0-27 49l-1 2-2 3-3 5-29 43-2 2-4 3-2 1-2 1v1l-2 2h-8l-1 1-2-1h-1v-2l-1-14 1 1v6l1 3h6l7-3 12-13 7-9 1-1v-1h1v-1l3-5 3-3 1-1 3-6 19-31 33-55a791 791 0 0 1 45-73l8-12 9-14z" />
	<path fill="#a8acaf"
		d="m274 336-1 1-2 2-2 3-2 5-7 20-1 20v4l-1 6h1l-1 2-8 13-3 5-1 1-4 1-4-1-3-4-3-5-9-16-1-8v-4h-2l1-1v-1q-1 1-1-1v-5l-1-2v-4l-2-7-1-4v-3l-1-1v-1l-1-3-1-2-1-1v-1l-4-7v-2l-1-1-1-1v-1h-1v-1l-2-3-1-1v-2l-2-3-1-2-5-7a798 798 0 0 1-45-78l-24-44-4-7-20-36-7-15-42-76 33 60 35 64a2737 2737 0 0 0 85 146h1l14 20-2-2-4-5v1l4 9 2 3v2l1 2v2l1 1v2l1 1v1l1 5v2l1 4v18l1 1v3l3 6 6 8 1 2 4 5h3q1 0 0 0l2-1 4-6 1-1 4-7v-9l-1-3v-7l4-17 2-8 1-1 1-2 2-6 2-3h-1l-1 1-4 5-3 3-8 6 8-7 11-13 8-10v-1l2-2zm-19 19" />
	<path fill="#101010"
		d="m2 4 5 6 4 4v1l1 2 1 1 1 1 1 1 2 3 6 9 2 5 15 30 1 2 2 2v1l1 1h-2v-1l-1-1-1-2q1-1-1-1-2-1-1-2l-1-2-1-1-1-2v-1l-1-1v-1l-2-2-1-1-1-1v-4h-1l-1-2-1-1v-1l-1-1-1-1-1-1q1-4-2-6v-2l-1-1-1-1-1-1v3l1 3 4 12 1 1v1l1 1v2l1 2v1l1 1 3 8 1 2 2 6 7 17 1 2 1 2 1 2 1 1v2l1 3 1 1 1 2 1 2v1l1 2 1 2v1l1 1v1l1 2 2 4 1 3 1 2v1l1 3 1 1 1 2v2l1 1v1l1 1v2l1 1h1v3l1 1 1 2v2l1 2v1q0 2 1 1l1 1 1 3v1l1 2 1 1v1h-1l-1-1v2h-1v-2l-1-2-3-6v-1l-1-1-1-3-1-2-1-2v-1l-2-4-3-7-1-2-1-1v-1l-1-1v-2l-3-7-1-1v-2l-1-1-1-2-1-1v-1l-1-2-9-20-1-1v-1l-1-3-1-2-1-1v-1l-1-1v-2l-1-1v-1l-1-1-1-4-14-32v-2l-1-1-2-5-2-5-1-2-1-4-1-1-1-4-1-2z" />
	<path fill="#fff"
		d="m229 358 1 1 2 1 1 1q7 6 13 3h1l2 2q-1 2 0 0v-1h1v3l-1 2v7l-2 8v-5 34l-1 1q-3 3-6 2l-3-3v-19l-1-15-2-5-1-1q1-2-1-3l-1-4-1-4v-1l-1-3z" />
	<path fill="#b4b9c1"
		d="m65 109 30 58 2 4 4 7 19 37 2 3 10 21-1-2-5-8 1 3 1 1 3 9 1 2 4 8h-1q0-2 2 3l49 94a476 476 0 0 0 51 74h1l4 1v1l-1 1-3-1-2-2-2-2-11-13q-14-15-36-56l-30-56a2882 2882 0 0 1-81-163l-11-22z" />
	<path fill="#c4c5c7"
		d="m235 411-9-14v-3l-1-1v-18l-1-4v-2l-1-5v-1l-1-1v-2l-1-1v-2l-1-2v-2l-2-3-4-9v-1l1 2 3 3 2 2v1l2 3 1 1 1 1 1 3v1q2 0 0 0h-1l1 1 2 6 1 1h1v2l1 1c-1 1 1 7 2 8v4l1 1 2 23-1 1v2z" />
	<path fill="#3e4148"
		d="M296 340a1455 1455 0 0 0 65-120l43-84 43-83 3-6-2 5-19 35-17 34-33 66-2 3-2 3-5 11-66 127-1 1-4 8-2 4-9 12 2-5z" />
	<path fill="#16161a"
		d="m238 418 4 1 4-1 1-1v1h-1q-1 3-4 2-3 0-8-5c-4-3-11-12-15-18l-2-4-29-48-4-7a1382 1382 0 0 1-50-96l26 49 3 7 50 86a148 148 0 0 0 25 34" />
	<path fill="#5d6e8b"
		d="m234 421-7-7-12-14a309 309 0 0 1-30-50l-15-28-49-96-33-68 15 31 62 123a1152 1152 0 0 0 58 96z" />
	<path fill="#595d69"
		d="M247 271q-1 5 6-1h2q-1 1 0 0v3l-1 1h1q2 1 7-3a135 135 0 0 0 27-32l7-10 1-1-1 1v2l-1 1-2 2-28 38-7 5-8 2v-3l1-2h-3l-1 1-1-1v-1z" />
	<path fill="#5d6e8b"
		d="m249 454-2 1h-1v-3l7-10 12-14 16-25 1-2 4-6 3-6 1-1 1-3a532 532 0 0 1 36-63l20-41h1l-2 4-7 14a883 883 0 0 1-45 83l-13 23-7 11-13 19-2 2-12 16q0 2 1 1z" />
	<path fill="#595d69" d="m235 414-1-1-23-33-18-29-7-13-26-47 36 62 20 33q9 16 17 25z" />
	<path fill="#c4c5c7" d="m54 68 3 5 2 5 3 4 4 9v1l2 3 21 43 4 8-27-53z" />
	<path fill="#798798"
		d="m243 424-1 2v1h1l2 1h1q0-1 0 0v8l-1 3-1 6h-1q-4-2-3-5v-2l-1-7-1-6 3 1zv-1zm1 5h-3l1 8h1l1-5z" />
	<path fill="#323237" d="m277 385-2 4a150 150 0 0 1-28 34l2-4z" />
	<path fill="#595d69"
		d="m147 316 1 1 1 1 1 3 1 1v2l1 1 1 1v1l1 1v1l1 1 1 2v1h1v1l2 2 1 4 1 1 4 8 1 3 1 1v1l1 2 1 1v3l-1-2-20-39z" />
	<path fill="#49679a"
		d="m294 354-2 5q0 2 0 0l1 1v7l-2 3-4 2-1 1h-1l1-1v-1l-3 2-2 3 3-4 3-5h1l1-1v-2z" />
	<path fill="#798798"
		d="m458 17-3 5-2 3-2 3-3 6-3 4-1 2-7 11-2 3v1-2l1-1 1-2 4-7 1-2 1-2 4-7 2-4 3-3 2-3 1-1z" />
	<path fill="#ddd" d="m136 252-4-8-1-2-3-9-1-1h1l4 9 1 3 1 1v1l1 2 2 5 1 2z" />
	<path fill="#3f4249" d="m247 417 21-28 7-10-9 15z" />
	<path fill="#2c3b45" d="m134 242-2-3-10-21-2-3-4-8-10-20z" />
	<path fill="#5d6e8b" d="m97 171 1 1 8 15 10 20 4 8-4-7-15-30z" />
	<path fill="#595d69"
		d="m173 366 1 1 1 1 2 3v1l1 1v1l1 1v1l1 1 1 2v1l1 1 2 3 1 2v1l-1-1-1-1v-1l-2-3-2-3-2-3v-1l-2-3v-1l-1-3z" />
	<path fill="#a0a5a9" d="m188 345 29 48 2 4-1-1a307 307 0 0 1-30-51" />
	<path fill="#97a5b3" d="M244 429v2l-1 5h-1l-1-8z" />
	<path fill="#3f4249" d="m234 413-5-6-16-23-20-33 18 29z" />
	<path fill="#595d69" d="m65 111-7-13-5-14z" />
	<path fill="#5d6e8b" d="M108 121v2-1l-1-2-1-1-1-1-3-6-1-2h1l1 3z" />
	<path fill="#354972" d="m86 148-2-3v-2l-2-3-1-3 4 8z" />
	<path fill="#798798" d="m429 64-1 4-1 3-1 1v-3z" />
	<path fill="#c1c2c4" d="m171 306-2-3v-1h1z" />
	<path fill="#354972" d="m92 159-1-2-4-8z" />
	<path fill="#798798" d="M433 57v2l-1 2-1 1-1 1 1-3z" />
	<path fill="#87b7e5" d="M289 364v2l-1 1h-1z" />
	<path fill="#fff" d="m172 306 1 3-1-1z" />
</svg>