<svg version="1.0" xmlns="http://www.w3.org/2000/svg"
 width="150" height="150" viewBox="0 0 2084 2084"
 preserveAspectRatio="xMidYMid meet">

<g transform="translate(0.000000,2084.000000) scale(0.100000,-0.100000)"
fill="currentColor" stroke="none">
<path d="M830 19810 c-93 -16 -136 -44 -173 -115 -46 -87 -20 -298 63 -495 17
-41 60 -147 94 -235 308 -777 1231 -2924 2046 -4755 1228 -2761 2253 -4934
3699 -7845 484 -974 673 -1345 889 -1745 508 -943 1003 -1727 1470 -2327 525
-675 1037 -1110 1380 -1173 223 -40 583 170 992 581 597 598 1286 1616 2032
3004 559 1038 2134 4259 3143 6425 1117 2399 2807 6240 3405 7740 54 135 112
279 129 320 63 149 85 245 86 365 0 99 -3 115 -25 155 -56 101 -215 132 -383
76 -142 -48 -269 -125 -546 -330 -80 -59 -157 -114 -172 -122 -15 -7 -87 -30
-161 -50 -298 -80 -450 -135 -652 -236 -322 -161 -577 -365 -805 -643 -379
-464 -982 -1305 -2761 -3855 -1880 -2695 -2524 -3595 -2957 -4132 -137 -169
-605 -722 -804 -948 -172 -196 -361 -379 -416 -404 -42 -18 -42 -18 -90 5 -56
27 -253 220 -414 404 -232 267 -772 909 -878 1043 -437 556 -1134 1533 -2821
3952 -1760 2524 -2384 3397 -2791 3900 -381 472 -819 743 -1469 910 -69 18
-146 43 -172 56 -25 13 -111 72 -190 131 -262 195 -409 282 -543 321 -86 25
-146 31 -205 22z m225 -200 c60 -30 177 -105 290 -186 241 -174 369 -258 438
-288 30 -14 138 -45 240 -70 270 -66 410 -124 597 -246 300 -198 561 -466 912
-940 294 -398 637 -904 1555 -2295 1845 -2797 2622 -3928 3543 -5160 659 -882
1103 -1386 1442 -1641 189 -141 281 -167 402 -111 315 146 825 693 1572 1687
888 1181 1816 2530 3476 5050 1097 1665 1360 2054 1698 2505 310 414 509 628
765 820 249 186 400 255 735 336 239 57 287 83 675 363 267 193 392 251 483
226 75 -20 80 -78 16 -186 -44 -75 -134 -183 -311 -375 -180 -196 -274 -334
-530 -784 -528 -926 -1147 -2133 -3696 -7200 -1621 -3225 -1912 -3781 -2454
-4695 -1184 -1997 -1883 -3052 -2287 -3456 -124 -124 -197 -174 -253 -174
-256 2 -1001 1050 -2325 3265 -331 554 -513 866 -630 1080 -185 337 -325 602
-763 1450 -214 415 -802 1578 -1770 3505 -1334 2656 -1840 3654 -2343 4620
-636 1224 -1055 1975 -1229 2204 -25 32 -110 129 -189 215 -189 206 -257 291
-301 379 -43 86 -40 116 17 145 51 26 107 15 225 -43z"/>
<path d="M2180 18805 c-11 -13 -11 -27 0 -73 18 -81 66 -184 189 -409 60 -109
263 -488 451 -843 1589 -2990 2615 -4851 4400 -7975 762 -1333 964 -1678 1213
-2070 701 -1102 1410 -2017 1748 -2258 152 -108 223 -104 389 21 362 271 1120
1269 1835 2417 389 624 2238 3875 3410 5995 673 1217 1098 2006 2228 4130 115
217 247 463 292 545 161 292 215 416 215 490 0 88 -82 44 -271 -144 -158 -158
-243 -257 -402 -469 -452 -600 -1207 -1793 -2103 -3320 -521 -887 -2294 -3819
-2982 -4932 -456 -737 -597 -952 -839 -1280 -522 -707 -1037 -1299 -1321
-1518 -178 -137 -265 -162 -376 -108 -252 123 -756 663 -1343 1436 -360 476
-473 647 -1125 1705 -719 1168 -2378 3916 -2888 4785 -821 1398 -1625 2666
-2039 3215 -247 328 -498 597 -613 656 -45 23 -52 23 -68 4z"/>
</g>
</svg>
