<svg version="1.2" xmlns="http://www.w3.org/2000/svg" viewBox="0 0 1243 1544" width="1243" height="1544">
	<title>Mixue</title>
	<g>
		<g>
			<g>
				<g>
					<path fill="#ffffff" d="m370.8 509.8c0-122.1 95.7-225.7 228.6-262.9 0.3 0.1 0.5 0.3 0.8 0.3 27 8.8 66.2 13.8 107.4 13.8 41.2 0 80.4-5 107.4-13.8 0.2 0 0.5-0.1 0.7-0.3 133 37.2 228.7 140.8 228.7 262.9 0 153.2-150.8 277.4-336.8 277.4-185.9 0-336.8-124.2-336.8-277.4z"/>
					<path fill="#0b318f" d="m659 402c-10.4-24.5-29.8-40.9-52.2-40.9-6.5 0-12.8 1.4-18.7 4.1-3.6 1.1-7.1 2.9-10.5 5.4-16.4 12.2-28.1 35.1-30.4 62 0 0.8-0.1 1.8-0.2 2.7-0.1 0.6-0.1 1.2-0.1 1.9 0 1.7-0.1 3.3-0.1 5 0 27.3 8.6 48.3 24.6 64.2 16.2 16.1 42.2 15.9 55.6-4.2 9.4-14.1 12.6-38.7 11.3-54.5l-19.2-11.7 17.8-15.1c-1-14-5.8-27.2-11.9-37.3 8.7 5 16.1 13.4 21.2 24 1.9 3.8 6.6 5.2 10.1 2.9 2.9-1.8 4-5.4 2.7-8.5z"/>
					<path fill="#f39800" d="m853.5 494.9c-15.6-0.6-34.9-3.7-56.7-13.6-16.3-7.3-28.5-11-33.6-12.4-0.5-0.1-1.1-0.3-1.5-0.3-0.7-0.2-1.2-0.3-1.2-0.3-3.5-0.8-7.1-1.2-10.8-1.2-28.1 0-51 22.9-51 51.3 0 24.1 16.6 44.3 38.9 49.8 49.7 12.9 116.7-15.5 141.1-43 24.3-27.4-8.6-29.7-25.2-30.3z"/>
					<path fill="#231815" d="m1236.4 1295.5l-0.2-0.7c-7.9-31.4-21.4-75.2-28.3-97.4 6.3-6.5 11.9-14 16.6-22.2 23.9-42.5 21.8-103.1-5.9-170.7-31.4-76.7-81-125.2-113.8-149.7-12.8-54.9-41.1-79.9-52.1-87.8-2.9-2.1-5.2-5-6.6-8.4-8.3-20.2-19.2-32.1-27.3-38.8-3.1-2.6-10.8-8.6-20.9-14.4 20.8-21.7 37.9-45.7 51.1-71.5 20.2-39.2 30.4-81 30.4-124.1 0-43.2-10.2-85-30.4-124.2-19.1-37.4-46.5-70.8-81.1-99.3-38.1-31.5-83-55.1-131.9-70.2 0.3-12.1 3.5-21.6 4.5-24.3 0.2-0.6 0.4-1.1 0.6-1.7l0.3-0.8 0.3-0.8c0.6-1.7 1.3-3.5 1.9-5.4l6.6-19.3 7.4-21.2c25-8.8 42.5-34 39.6-62.7-2.7-27.9-24.8-50.5-52.5-53.6-36-4-66.5 24.3-66.5 59.7 0 4 0.4 8 1.2 11.9-3.5 4.1-7.4 7.9-11 9.1-0.2 0.1-0.5 0.1-0.6 0.2-1.3-0.5-4.6-3.1-8.8-9.8 8.8-13.1 12.5-29.5 9.5-46.3-5-27.6-28.4-48.8-56.3-50.9-36.4-2.7-66.9 26.3-66.9 62.3 0 12.7 3.8 24.7 10.5 34.8-4.1 6.7-7.5 9.3-8.8 9.8q-0.2 0-0.6-0.2c-3.5-1.2-7.5-4.9-10.9-9.1 0.8-3.9 1.1-7.8 1.1-11.9 0-35.3-30.5-63.7-66.4-59.6-27.7 3-49.8 25.7-52.6 53.5-2.9 28.7 14.6 53.9 39.7 62.8l7.3 21.2 6.6 19.3c0.6 1.7 1.3 3.6 2 5.4l0.2 0.7 0.3 0.9c0.3 0.5 0.4 1.1 0.6 1.6 1.1 2.7 4.2 12.1 4.5 24.3-48.8 15-93.7 38.7-131.9 70.2-34.6 28.6-61.9 61.9-81.1 99.3-20.2 39.2-30.4 81-30.4 124.2 0 43.1 10.2 84.9 30.4 124.2 11.5 22.4 26 43.5 43.3 62.9-19.2 10.9-34.8 27.2-43.9 46.5-2.1 4.3-5.3 7.8-9.5 9.8-13.2 6.5-43.4 24.3-60.7 58.8-15.2 0.3-33.9-1.4-52.4-8.5-0.1-0.1-6-2.3-8-3.2l-4.2-59c3.4-2.4 6.6-5.1 9.6-8.1 13.7-13.8 20.6-31.5 19.3-49.8-0.8-11.3-4.7-21.7-10.9-30.6 0.6-1.2 1-2.6 1.2-4l44.1-324.3c0.8-1 1.6-2.1 2.3-3.2 10.4-15.7 12.6-36.8 5.8-55-4.6-12.5-13.2-22.2-24-28 1.9-7.2 2.5-14.5 1.7-22-3.2-29.4-27.8-50.1-37-56.8 6.4-19.9 4.2-36.3 0.3-47.8-10.4-31-40.2-50.4-62.4-57.7-7.9-2.6-12-6.9-13.3-14.1-1.2-6.7 0.4-13 0.4-13 1.5-5.3 0.2-10.9-3.4-15-3.6-4-9-6-14.3-5.1-2.1 0.3-51.1 8.6-75.8 48.5-12.3 19.7-16.4 43.2-12.2 70.1 1.1 7.1-1.5 14.3-7 19-13.5 11.7-29.1 29.9-31.4 53.1-1.2 12.9-0.3 26.8 6.1 39.3-33.3 22.5-33.9 63.6-23.6 84.8 3.3 6.9 8.8 15.2 17.5 22.9l90 314.3c0.5 1.5 1.1 2.8 1.9 4-4.8 9.7-7.1 20.4-6.3 31.6 1.7 22.9 16.2 42.3 36.9 53l1.7 23.4-9 0.9c-11.6 1.2-22.6 5-31.8 11-33.9 22.2-38.5 65.3-32.2 95.6 5.5 25.9 20.2 50.2 44 72.4 6.7 6.3 27.7 23.3 44.1 30.2l18.8 261.5c-5.3 17.7-10.6 36.5-14.6 52.4l-0.2 0.7c-6.2 24.7-16.6 66.1 24.1 103.1 0.6 0.6 1.3 1.1 1.9 1.7l7.5 104.3c0.8 11.4 6 21.7 14.5 29.1 7.8 6.8 17.4 10.4 27.6 10.4 1 0 2.1 0 3.2-0.1 12.1-0.9 23.1-6.9 30.6-16.7 6.4-8.5 9.2-19.1 8.5-29.8l-4.2-57.6c32.4 8.1 63.5 15.2 91 21.6 16.9 3.9 37.2 8.9 55 13.4 25.3 6.4 49.8 15.4 73.5 26.3 61.8 28 130.4 42.9 201.4 42.9 71 0 139.6-14.9 201.4-42.9 23.7-10.8 48.2-19.9 73.5-26.3 17.7-4.5 38.1-9.5 55-13.4 27.7-6.4 59-13.6 91.7-21.8 40.6-10.2 69.7-23.6 88.9-41.1 41.3-36.8 30.9-78.2 24.6-103zm-219.1-517.3c2.7 8.1 13.1 14.9 20 21.3 10.6 9.9 26.5 33.8 26.6 40-35.8 3.8-76.1 7.4-113.8 7.4-7.5 0-15-0.2-22.3-0.5-40.9-1.8-83.6-19.9-110.3-37.7 56.1-14.6 107.6-40.1 150.5-75.5 1.2-1 2.4-2 3.6-3 8.7 3.8 18.4 9.9 25.8 16 3 2.4 13 11.2 19.9 32zm-440-662.7c-16.2 0-29.4-13.2-29.4-29.6 0-16.3 13.1-29.5 29.4-29.5 16.1 0 29.3 13.2 29.3 29.5 0 5.8-1.7 11.3-4.6 15.9h0.1c0 0 12.9 26.2 34.4 33.9 3.7 1.3 7.4 2 10.9 2 18.7 0 34.6-17.8 45.1-47-9.9-5.4-16.7-16-16.7-28.1 0-17.7 14.3-32 31.9-32 17.5 0 31.7 14.4 31.7 32 0 12.1-6.7 22.7-16.6 28.1 10.4 29.2 26.4 47 45.1 47 3.5 0 7.1-0.7 10.9-2 21.4-7.7 34.4-33.9 34.4-33.9h0.1c-3-4.6-4.7-10.1-4.7-15.9 0-16.3 13.2-29.5 29.4-29.5 16.2 0 29.4 13.2 29.4 29.5 0 16.3-13.1 29.6-29.4 29.6-1 0-2-0.1-2.9-0.2l-13.3 38.5-6.7 19.3c-0.7 1.9-1.3 3.8-2.1 5.6q-0.4 1.2-0.8 2.5c-2 5.3-6.4 19.3-6.4 37-23.2 7.5-58.5 12.3-98.1 12.3-39.6 0-75-4.8-98.2-12.3 0-17.7-4.3-31.6-6.3-37q-0.5-1.3-0.9-2.5c-0.7-1.8-1.4-3.7-2.1-5.6l-6.6-19.3-13.3-38.5c-1.1 0.1-2 0.2-3 0.2zm-206.5 394.3c0-122.1 95.7-225.7 228.6-262.9 0.3 0.1 0.5 0.3 0.8 0.3 27 8.8 66.2 13.8 107.4 13.8 41.2 0 80.4-5 107.4-13.8 0.2 0 0.5-0.1 0.7-0.3 133 37.2 228.7 140.8 228.7 262.9 0 153.2-150.8 277.4-336.8 277.4-185.9 0-336.8-124.2-336.8-277.4zm-3.8 276.8c16.6-9.2 22.9-10.6 25.8-19.9 6.4-20.9 23.4-36.6 42-44.2 4.1 3.7 8.2 7.2 12.5 10.7 44.4 36.6 97.9 62.7 156.1 76.9-14.5 9.1-33.4 18-51.9 21.5-13.2 2.5-27.8 3.8-42.3 3.8-12.6 0-25-1-36.4-2.8-21.4-3.6-47.4-12.5-63.2-16.5-13.7-3.5-39.1-9.1-68.1-9.6 0 0 5.8-9.3 25.5-19.9zm-332.3-479.7c-2.1-4.4-2.5-9.2-2.5-14 0-8.2 2.5-15.6 7.2-22.2 1.8-2.6 4-5.1 6.2-7.3 1.2-1.2 5.6-6.3 7.4-5.3 7.6 4.2 14.5 5.7 20.8 4.4 4.4-1 8.3-5.4 8.5-9.8 0.2-2.4-2.7-4.7-5.2-6.6l-0.4-0.4c-17.6-14-25-22.6-22.3-45.2 2.4-20.7 26.5-38.3 35.5-43.4 6.1-3.3 9.1-10.6 7.1-17.3-8.5-27.7-7.4-50.6 3.3-68 9.2-15.1 24.3-23.8 35.3-28.5 0.3-0.2 0.7-0.2 1 0 0.3 0.2 0.5 0.5 0.6 0.9 1.8 11.1 8.7 30.9 34.1 39.2 16.2 5.3 36.6 19.6 43 38.4 5 14.6 1.2 31.2-11.2 49.3l-0.6 1c-4.6 6.7-9.3 13.6-6 15.9 3.1 2.2 17.6 0.5 26.4-4 0.4-0.3 0.8-0.2 1.2 0 8.6 6.1 23.7 20.4 25.4 36.1 1.2 11.2-3.3 22.8-13.4 34.3-3.5 4-5.1 7-4.5 9.2 0.3 1.5 1.7 2.6 4.1 3.7 2.7 1.1 15.3 0.6 21.6-3.5 0.3-0.2 0.8-0.2 1.1-0.1 9.3 4.1 16.1 11.7 16.4 22.4 0.1 6.8-1.9 11.9-5.3 16.8-7.6 11.1-21.8 18.1-33.8 22.9-21.3 8.3-48.4 14.1-76.3 16.2-34.2 2.5-67.6-0.8-91.4-8.9-16.1-5.6-27.6-14.6-33.3-26.2zm25.4 57.6c21.6 7 48.1 10.7 76.5 10.7 8.3 0 16.7-0.3 25.2-1 31.5-2.3 61.1-8.6 85.6-18.3 4.4-1.8 9-3.7 13.5-5.9l-39.3 289.1c-15.1 11.5-33.3 15.8-54.3 12.7-11.6-1.7-21.3-5.3-26.9-7.7zm95.6 572.7c-26.6-20.6-42.5-42.9-47.4-66-4.2-19.7-2.1-47.1 17.4-59.9 4.7-3.1 10.5-5 16.8-5.6 0.5-0.1 0.9-0.2 1.4-0.3 22.5 49 17.4 102.6 11.8 131.8zm-17-245c-0.4-5.6 0.8-11 3.2-15.9 10.2 3.2 23.6 6.2 38.2 6.2 14.4 0 30.2-2.9 45.6-11.1 2.6 4.3 4.2 9.1 4.6 14.2 0.6 9.6-3.2 19.1-10.8 26.7-8.2 8.1-19.7 13.2-32.4 14.1-25.2 1.8-46.9-13.5-48.4-34.2zm115.8 819.4c-2.6 3.1-6.4 5-10.5 5.3-4.1 0.3-7.9-1-11-3.7-3.1-2.6-5-6.4-5.3-10.5l-41.1-571.5c4.6-30.4 6.6-75.2-8.5-119.7l-4.1-55.9c3 0.3 6.1 0.6 9.2 0.6q3.1 0 6.1-0.3c5.2-0.3 10.3-1.2 15.2-2.5l53.7 747.1c0.3 4-1.1 8-3.7 11.1zm447.3-6.2c-228.7 0-414.8-168.7-414.8-375.9 0-59.9 15-117 44.7-170 1.2-2 1.1-5.1 0-6.8-1.1-1.5-3.2-2.2-5.5-1.9-5.1 0.7-12.1 6-18 10.9-13.7 11.5-22.4 24.3-30.6 36.9-10-1.4-20.9-5.3-29-8.5l-10.9-152.3c19.3 6.4 38.2 8.4 54.3 8.4 25.7 0 44.2-5.1 45.4-5.5 0.1-0.1 0.4-0.1 0.5-0.1h3.1c19.1 0.3 39.4 3.2 60.3 8.6 4.6 1.2 10.6 2.9 16.9 4.8 14.5 4.2 32.5 9.5 48.9 12.3 13.2 2.2 27.3 3.3 42 3.3 16.9 0 33.6-1.5 48.7-4.4 31.7-6 62.4-23.5 80.6-37.9l10.8-8.6c19.2 2.5 38.7 3.8 58.5 3.8 22.1 0 43.9-1.6 65.2-4.8l14.5 11.4c30.9 23.9 85.8 49.2 138.9 51.5 7.5 0.4 15.6 0.6 23.8 0.6 39.7 0 81.5-3.9 117.3-7.6l2.4-0.3c23.1 14.1 81.9 60.3 116.4 144.6 39.4 96.2 16.5 160.6-37.2 174.1 0.2-1.6 0.5-3 0.8-4.6 5-35.7 6.2-74-3.3-109.5-1-4-2.2-7.9-3.5-11.8-4-11.5-8.8-22.8-15.1-33.1-4.1-6.6-15.6-26.7-25.7-22.2-4.1 1.8-4.2 7.1-3 10.7 11.5 34.9 17.4 71.3 17.4 108-0.1 207.2-186.2 375.9-414.8 375.9zm-322.2-78.3c-27.5-6.3-58.6-13.5-90.9-21.6-3.6-0.9-7.1-1.8-10.5-2.8l-11.2-155.5c4.9 15.2 10.7 30.2 17.6 45 23.1 49.4 56 93.7 97.9 131.7 1.9 1.8 3.9 3.5 5.9 5.2-2.8-0.7-5.8-1.3-8.8-2zm809.1-54.6c-14.6 13.3-39.5 24.4-73.9 33-32.3 8.1-63.5 15.3-91 21.6q-4.4 1-8.8 2c2-1.7 4-3.5 5.9-5.2 41.9-38 74.8-82.3 97.9-131.7 9.4-20.3 17-41.4 22.5-63.1 1.8-0.1 3.6-0.4 5.2-0.6 11.2-1.7 21.6-5 31.3-9.5 7.3 23.2 17.8 58.4 24.4 84.5l0.2 0.7c5.9 23.4 11.4 45.5-13.7 68.3z"/>
					<path fill="#e60012" d="m1017.3 778.2c2.7 8.1 13.1 14.9 20 21.3 10.6 9.9 26.5 33.8 26.6 40-35.8 3.8-76.1 7.4-113.8 7.4-7.5 0-15-0.2-22.3-0.5-40.9-1.8-83.6-19.9-110.3-37.7 56.1-14.6 107.6-40.1 150.5-75.5 1.2-1 2.4-2 3.6-3 8.7 3.8 18.4 9.9 25.8 16 3 2.4 13 11.2 19.9 32z"/>
					<path fill="#ffffff" d="m577.3 115.5c-16.2 0-29.4-13.2-29.4-29.6 0-16.3 13.1-29.5 29.4-29.5 16.2 0 29.3 13.2 29.3 29.5 0 5.8-1.7 11.3-4.6 15.9h0.1c0 0 12.9 26.2 34.4 33.9 3.7 1.3 7.4 2 10.9 2 18.7 0 34.6-17.8 45.1-47.1-9.9-5.4-16.7-16-16.7-28.1 0-17.7 14.3-32 31.8-32 17.6 0 31.8 14.4 31.8 32 0 12.1-6.8 22.8-16.7 28.1 10.5 29.3 26.4 47.1 45.1 47.1 3.5 0 7.2-0.7 10.9-2 21.5-7.7 34.4-33.9 34.4-33.9h0.1c-2.9-4.6-4.6-10.1-4.6-15.9 0-16.3 13.1-29.5 29.3-29.5 16.2 0 29.4 13.2 29.4 29.5 0 16.3-13.1 29.6-29.4 29.6-1 0-1.9-0.1-2.9-0.2l-13.3 38.5-6.7 19.3c-0.6 1.9-1.3 3.8-2 5.6q-0.5 1.2-0.9 2.5c-2 5.3-6.4 19.3-6.4 37-23.2 7.5-58.5 12.3-98.1 12.3-39.6 0-75-4.8-98.1-12.3 0-17.7-4.4-31.6-6.4-37q-0.4-1.3-0.9-2.5c-0.6-1.8-1.4-3.7-2-5.6l-6.7-19.3-13.3-38.5c-1 0.1-1.9 0.2-2.9 0.2z"/>
					<path fill="#e60012" d="m367 786.6c16.6-9.2 22.9-10.6 25.8-19.9 6.4-20.9 23.4-36.6 42-44.2 4.1 3.7 8.2 7.2 12.5 10.7 44.4 36.6 97.9 62.7 156.1 76.9-14.5 9.1-33.4 18-51.9 21.5-13.2 2.5-27.8 3.8-42.3 3.8-12.6 0-25-1-36.4-2.8-21.4-3.6-47.4-12.5-63.2-16.5-13.7-3.5-39.1-9.1-68.1-9.6 0 0 5.8-9.3 25.5-19.9z"/>
					<path fill="#ffffff" d="m34.7 306.9c-2.1-4.4-2.5-9.2-2.5-14 0-8.2 2.5-15.6 7.2-22.2 1.8-2.6 4-5.1 6.2-7.3 1.2-1.2 5.6-6.3 7.4-5.3 7.6 4.2 14.5 5.7 20.8 4.4 4.4-1 8.3-5.4 8.5-9.8 0.2-2.4-2.7-4.7-5.2-6.6l-0.4-0.4c-17.6-14-25-22.6-22.3-45.2 2.4-20.7 26.5-38.3 35.5-43.4 6.2-3.3 9.1-10.6 7.1-17.3-8.5-27.7-7.4-50.6 3.3-68 9.2-15.1 24.3-23.8 35.3-28.5 0.3-0.1 0.7-0.1 1 0.1 0.3 0.2 0.5 0.5 0.6 0.8 1.8 11.1 8.7 31 34.1 39.3 16.2 5.3 36.6 19.6 43 38.4 5 14.6 1.2 31.2-11.2 49.3l-0.6 1c-4.6 6.7-9.3 13.5-6 15.9 3.1 2.2 17.6 0.4 26.4-4.1 0.4-0.2 0.8-0.1 1.2 0.1 8.6 6 23.7 20.4 25.4 36 1.2 11.3-3.3 22.9-13.4 34.3-3.5 4.1-5.1 7.1-4.5 9.3 0.3 1.4 1.7 2.6 4.1 3.6 2.7 1.1 15.3 0.6 21.6-3.4 0.3-0.2 0.8-0.2 1.1-0.1 9.3 4.1 16.1 11.7 16.4 22.4 0.1 6.8-1.9 11.9-5.3 16.8-7.6 11.1-21.8 18.1-33.8 22.8-21.3 8.4-48.4 14.2-76.3 16.2-34.2 2.5-67.6-0.7-91.4-8.8-16.1-5.7-27.6-14.7-33.3-26.3z"/>
					<path fill="#fac02c" d="m60.1 364.5c21.6 7 48.1 10.7 76.5 10.7 8.3 0 16.7-0.3 25.2-1 31.5-2.3 61.1-8.6 85.6-18.3 4.4-1.8 9-3.7 13.5-5.9l-39.3 289.1c-15.1 11.5-33.3 15.7-54.3 12.7-11.6-1.7-21.3-5.3-26.9-7.7z"/>
					<path fill="#ffffff" d="m155.8 937.2c-26.6-20.6-42.6-42.9-47.5-66-4.2-19.7-2-47.1 17.4-59.9 4.7-3.1 10.5-5 16.8-5.7 0.5 0 1-0.1 1.5-0.2 22.5 49 17.3 102.6 11.8 131.8z"/>
					<path fill="#fac02c" d="m138.8 692.2c-0.5-5.6 0.8-11 3.1-15.9 10.3 3.2 23.6 6.2 38.3 6.2 14.4 0 30.2-2.9 45.6-11.1 2.5 4.3 4.1 9.1 4.6 14.2 0.6 9.6-3.2 19.1-10.8 26.6-8.2 8.2-19.7 13.3-32.3 14.2-25.3 1.8-47.1-13.5-48.5-34.2z"/>
					<path fill="#fac02c" d="m254.5 1511.6c-2.6 3.1-6.3 5-10.4 5.3-4.1 0.3-8-1-11.1-3.7-3.1-2.6-5-6.4-5.3-10.5l-41-571.5c4.5-30.4 6.6-75.3-8.6-119.7l-4-55.9c3 0.4 6.1 0.5 9.1 0.5q3.1 0 6.2-0.2c5.2-0.3 10.2-1.2 15.1-2.5l53.8 747.1c0.2 4-1.1 8-3.8 11.1z"/>
					<path fill="#e60012" d="m379.7 1427.1c-27.5-6.3-58.7-13.5-91-21.6-3.5-0.9-7.1-1.8-10.5-2.8l-11.2-155.5c4.9 15.2 10.8 30.2 17.6 45 23.1 49.4 56.1 93.7 97.9 131.7 2 1.8 3.9 3.5 5.9 5.2-2.8-0.7-5.7-1.3-8.7-2z"/>
					<path fill="#ffffff" d="m701.8 1505.4c-228.7 0-414.7-168.7-414.7-376 0-59.8 15-116.9 44.6-169.9 1.2-2.1 1.1-5.1 0-6.8-1.1-1.5-3.2-2.3-5.5-2-5.1 0.8-12.1 6.1-18 11-13.7 11.4-22.3 24.3-30.5 36.9-10-1.4-21-5.3-29-8.5l-11-152.3c19.3 6.4 38.2 8.4 54.3 8.4 25.7 0 44.2-5.1 45.4-5.5 0.2-0.1 0.4-0.1 0.6-0.1h3c19.1 0.3 39.4 3.2 60.4 8.6 4.5 1.2 10.5 2.9 16.9 4.8 14.5 4.2 32.5 9.5 48.8 12.3 13.3 2.2 27.3 3.3 42.1 3.3 16.8 0 33.6-1.5 48.6-4.4 31.8-6 62.4-23.5 80.6-37.9l10.8-8.6c19.2 2.5 38.8 3.8 58.5 3.8 22.2 0 43.9-1.6 65.2-4.8l14.6 11.4c30.8 23.9 85.7 49.2 138.8 51.5 7.6 0.4 15.6 0.5 23.8 0.5 39.8 0 81.6-3.8 117.3-7.5l2.4-0.3c23.2 14.1 82 60.3 116.5 144.6 39.4 96.2 16.4 160.5-37.2 174.1 0.2-1.6 0.5-3 0.7-4.6 5.1-35.7 6.2-74-3.2-109.5-1-4-2.3-7.9-3.6-11.8-4-11.5-8.7-22.8-15.1-33.1-4.1-6.6-15.5-26.7-25.6-22.2-4.1 1.8-4.3 7.1-3.1 10.7 11.6 34.9 17.4 71.3 17.4 108 0 207.2-186.1 375.9-414.8 375.9z"/>
					<path fill="#e60012" d="m1188.8 1372.4c-14.7 13.4-39.6 24.5-74 33.1-32.3 8.1-63.4 15.3-90.9 21.6q-4.4 1-8.8 2c1.9-1.7 3.9-3.5 5.8-5.2 41.9-38 74.9-82.3 97.9-131.7 9.5-20.3 17-41.4 22.6-63.1 1.7-0.1 3.5-0.4 5.2-0.7 11.1-1.7 21.6-4.9 31.3-9.5 7.2 23.3 17.7 58.5 24.3 84.6l0.3 0.7c5.8 23.4 11.4 45.5-13.7 68.2z"/>
					<path fill="#f39800" d="m201.6 633.3c8.2-4.9 15.8-9.8 22.7-14.6l4.1-30.4c-13.5-4.5-26.1-9.2-37.8-14.1 17.7-11 32.2-21.9 44.1-32l3.3-24.1c-1.3 1.3-2.7 2.6-4.1 3.9-17.4-5.8-33.4-12.1-48.1-18.7 16.5-11.4 30.3-22.6 41.7-33.1 5.2 2.5 10.6 4.9 16.1 7.4l2.2-15.9c-2.2-1-4.4-2-6.4-3 2.8-2.9 5.4-5.7 7.9-8.4l4-29.6c-6.1 8.5-14.8 19-26.8 30.9-17.1-8.7-32.6-17.5-46.3-26.3 14.2-12.6 26-24.8 35.5-35.7 10.8 6.7 23.9 14 39 20.9l2.2-16c-11.8-5.5-22.2-11.4-31.2-16.8 5.5-6.9 10-13 13.6-18.1-7.8 2.6-16.1 4.9-24.6 6.9-0.7 0.9-1.4 1.8-2.1 2.6-0.8-0.5-1.6-1.1-2.3-1.6q-10.2 2.2-20.9 3.8c3.4 2.6 7.8 5.9 13.2 9.6-9.7 10.8-21.5 23-35.9 35.5-16-10.9-29.4-21.4-40.6-31.1 4.4-3.8 8.3-7.3 11.5-10.3-7.5 0-14.9-0.3-22.1-0.9-0.3 0.3-0.6 0.6-0.9 0.9-0.3-0.3-0.6-0.7-1-1-8.6-0.7-17-1.8-25-3.2 3.9 4.3 8.5 9.1 13.9 14.2-8.6 6.7-18.3 13.7-28.5 20.1l4.4 15.3c13-7.7 25.2-16.6 35.6-25 11.1 9.8 24.5 20.4 40.4 31.5-12.7 10.4-27.2 21-43.4 31.4-11.2-8.3-20.6-16.2-28.4-23.3l7.8 27.2c2.1 1.7 4.1 3.3 6.3 5q-2.1 1.2-4.2 2.4l4.4 15.3c4.6-2.6 9-5.2 13.3-7.9 13.4 9.4 28.7 19 46.4 28.2-13.8 8.4-29.1 16.9-46.4 25.2 0-0.1-0.2-0.2-0.2-0.2l6.5 22.7c12.1 7.5 26.2 15.3 42.3 23.1-9.7 5.1-20.1 10.3-31.3 15.4l9.2 31.8c9.2 4.4 19 8.8 29.6 13-6.3 3.1-12.9 6.3-19.7 9.4 5.7 2.2 13.7 4.7 23 6q0.1 0 0.2 0c5.5-2.7 11-5.5 16.1-8.2 5.8 2 11.9 3.9 18.1 5.9 7.1-2.3 13.8-5.7 19.9-10.4-7.3-1.6-13.8-3.6-20.3-5.6zm-79.2-165.2c16.2-10.6 30.7-21.5 43.3-32 13.9 8.9 29.4 17.9 46.7 26.8-11.7 10.4-25.9 21.4-42.9 32.7-17.8-9-33.5-18.3-47.1-27.5zm0.6 72.1q26.5-13.4 47.5-26.8c15.1 7.3 31.8 14.2 49.9 20.4-12.6 10.4-28.2 21.5-47.3 32.9-19.4-8.8-36-17.9-50.1-26.5zm59.1 86.4c-18.5-6.7-35-14.1-49.5-21.5 15.3-6.9 29-14 41.5-21 14.2 6.2 29.9 12.3 46.8 18-11.2 8-24.1 16.2-38.8 24.5z"/>
					<path fill="#0b318f" d="m796.8 481.3c21.8 9.9 41.1 12.9 56.7 13.6 0.3 0 0.6 0 1 0 4.8-13.4 6.4-30.2 5.3-42l-18.8-11.6 17.6-14.9c-1-13.7-5.7-26.8-11.7-36.6 8.5 4.8 15.9 13.1 20.8 23.5 1.9 3.8 6.5 5.2 10 2.9 2.8-1.8 3.9-5.4 2.6-8.4-10.2-24-29.4-40.2-51.4-40.2-6.4 0-12.6 1.4-18.4 4-3.5 1.1-7 2.8-10.3 5.3-16.2 12.1-27.7 34.6-30 61-0.1 0.9-0.1 1.8-0.2 2.8-0.1 0.6-0.1 1.2-0.1 1.9-0.1 1.6-0.1 3.3-0.1 4.9q0 13.2 2.6 24.3c6.3 2 14.6 5.1 24.4 9.5z"/>
					<path fill="#e60012" d="m595.3 572.1c-3.6-7.4-7.6-14.5-12.8-20.9-9-11-21.7-18.6-36.1-18.3-12.2 0.2-23.6 7.1-30.2 18.1-7.6 12.7-6.8 29.2-1.7 42.9 5.9 15.7 18.8 27.7 33.4 35.1 16 8.2 34.5 12.2 52.3 12.8 20.6 0.8 38.9-4.2 39.4-4-14.2-10.3-23.7-23.7-32-39.1-4.4-8.5-8.1-17.6-12.3-26.6z"/>
					<path fill="#0b318f" d="m873 590.6c-0.1 0-0.1-0.1-0.1-0.1-4.8-4.8-12.5-4.4-16.8 0.8-28.6 34.5-77.5 57.2-132.9 57.2-39.5 0-75.6-11.5-103.4-30.6 5.6 7.4 11.9 14.2 19.8 19.9-0.3-0.2-11.3 2.7-25.7 3.7 30.6 19 68.4 30.3 109.3 30.3 62.3 0 117.4-26.1 150.4-65.8 3.8-4.5 3.6-11.2-0.6-15.4z"/>
				</g>
			</g>
		</g>
	</g>
</svg>