<svg version="1.2" xmlns="http://www.w3.org/2000/svg" viewBox="0 0 1546 487" width="1546" height="487">
	<title>Mixue Wordmark</title>
<g>
		<g>
			<g>
				<g>
					<path fill="#e60012" d="m756.9 353.2h-5.8-0.2-6c-11 0-19.9 8.3-19.9 18.5v3.8 3.4 7.5c0 10.2 8.9 18.5 19.9 18.5h6 0.6 5.4c3.2 0 6.2-0.7 8.9-2v10.7c0 12-10.4 21.7-23.2 21.7h-10c-2.8 0-5 2.1-5 4.7 0 2.5 2.2 4.6 5 4.6h10.8c18.4 0 33.3-13.8 33.3-30.9v-27.3-7.5-3.4-3.8c0-10.2-8.9-18.5-19.8-18.5zm9 22.3v3.4 7.5c0 5.1-4.5 9.2-9.9 9.2h-4.5-0.6-5.1c-5.5 0-9.9-4.1-9.9-9.2v-7.5-3.4-3.8c0-5.1 4.4-9.2 9.9-9.2h5.1 0.2 4.8c5.5 0 9.9 4.1 9.9 9.2v3.8z"/>
					<path fill="#e60012" d="m819.5 353.2h-5.7-0.2-6.1c-10.9 0-19.8 8.3-19.8 18.5v3.8 3.4 7.5c0 10.2 8.9 18.5 19.8 18.5h6.1 0.5 5.4c3.2 0 6.3-0.7 9-2v10.7c0 12-10.5 21.7-23.3 21.7h-10c-2.7 0-5 2.1-5 4.7 0 2.5 2.3 4.6 5 4.6h10.9c18.3 0 33.2-13.8 33.2-30.9v-27.3-7.5-3.4-3.8c0.1-10.2-8.8-18.5-19.8-18.5zm9 22.3v3.4 7.5c0 5.1-4.4 9.2-9.9 9.2h-4.5-0.5-5.2c-5.4 0-9.9-4.1-9.9-9.2v-7.5-3.4-3.8c0-5.1 4.5-9.2 9.9-9.2h5.2 0.2 4.8c5.4 0 9.9 4.1 9.9 9.2v3.8z"/>
					<path fill="#e60012" d="m935.3 388.6c-5.1 0-9.3 3.9-9.3 8.7 0 4.8 4.1 8.7 9.3 8.7 5.2 0 9.3-3.9 9.3-8.7 0-4.8-4.1-8.7-9.3-8.7z"/>
					<path fill="#e60012" d="m654 387.3h-28.2v-24.8h23.5c2.7 0 5-2.1 5-4.6 0-2.6-2.3-4.7-5-4.7h-76.9c-2.8 0-5 2.1-5 4.7 0 2.5 2.2 4.6 5 4.6h42.5v24.8h-47.3c-2.9 0-5.3 2.2-5.3 5 0 2.7 2.4 4.9 5.3 4.9h47.3v23.9c0 7.8-6.9 14.2-15.3 14.2h-8.8c-2.8 0-5 2.1-5 4.7 0 2.5 2.2 4.6 5 4.6h9.7c14 0 25.3-10.5 25.3-23.5v-23.9h28.2c3 0 5.3-2.2 5.3-4.9 0.1-2.8-2.3-5-5.3-5z"/>
					<path fill="#e60012" d="m897.5 353.2h-41.8c-3 0-5.4 2.2-5.4 4.8 0 2.7 2.4 4.9 5.4 4.9h34.8l-22.4 75.7c-0.7 2.5 1 5.2 3.9 5.9q0.7 0.1 1.3 0.1c2.4 0 4.6-1.4 5.3-3.6l24.1-81.7c0.5-1.5 0.1-3-0.9-4.2-1-1.2-2.6-1.9-4.3-1.9z"/>
					<path fill="#e60012" d="m697.6 353.9l-14.7 6.7c-2.7 1.2-3.9 4.2-2.5 6.7 1.3 2.6 4.6 3.6 7.3 2.4l7.1-3.3v73.2c0 2.8 2.4 5 5.4 5 3 0 5.5-2.2 5.5-5v-81.3c0-3.6-4-6.3-8.1-4.4z"/>
					<path fill="#e60012" d="m1100.7 349.5c-3.8 0-6.9 2.8-6.9 6.4 0 3.5 3.1 6.4 6.9 6.4 3.8 0 6.9-2.9 6.9-6.4 0-3.6-3.1-6.4-6.9-6.4z"/>
					<path fill="#e60012" d="m1185.9 367.3c2.7 0 5-2.1 5-4.7 0-2.5-2.3-4.6-5-4.6h-4v-3.6c0-2.8-2.5-5-5.5-5-3 0-5.4 2.2-5.4 5v3.6h-38.7v-3.6c0-2.8-2.4-5-5.5-5-3 0-5.4 2.2-5.4 5v3.6h-4c-2.7 0-5 2.1-5 4.6 0 2.6 2.3 4.7 5 4.7h4v44.1h-4c-2.7 0-5 2.1-5 4.7 0 2.5 2.3 4.6 5 4.6h68.4c2.8 0 5-2.1 5-4.6 0-2.6-2.2-4.7-5-4.7h-4v-44.1zm-14.8 44.1h-38.7v-8.5h38.7zm0-17.8h-38.7v-8.5h38.7zm0-17.8h-38.7v-8.5h38.7z"/>
					<path fill="#e60012" d="m1100.7 387.3c-3 0-5.5 2.3-5.5 5.1v47.2c0 2.8 2.5 5 5.5 5 3 0 5.4-2.2 5.4-5v-47.2c0-2.8-2.4-5.1-5.4-5.1z"/>
					<path fill="#e60012" d="m1100.7 368.4c-3.8 0-6.9 2.9-6.9 6.4 0 3.6 3.1 6.5 6.9 6.5 3.8 0 6.9-2.9 6.9-6.5 0-3.5-3.1-6.4-6.9-6.4z"/>
					<path fill="#e60012" d="m1135.1 424.7c-2-1.9-5.1-1.9-7.1 0l-12.9 12c-1.9 1.8-1.9 4.7 0 6.5 2 1.9 5.2 1.9 7.1 0l12.9-12c1.9-1.8 1.9-4.7 0-6.5z"/>
					<path fill="#e60012" d="m1175.3 424.7c-2-1.9-5.1-1.9-7.1 0-1.9 1.8-1.9 4.7 0 6.5l12.9 12c2 1.9 5.1 1.9 7.1 0 1.9-1.8 1.9-4.7 0-6.5z"/>
					<path fill="#e60012" d="m1218.2 387.3c-3 0-5.4 2.3-5.4 5.1v47.2c0 2.8 2.4 5 5.4 5 3 0 5.5-2.2 5.5-5v-47.2c0-2.8-2.5-5.1-5.5-5.1z"/>
					<path fill="#e60012" d="m1218.2 349.5c-3.8 0-6.9 2.8-6.9 6.4 0 3.5 3.1 6.4 6.9 6.4 3.8 0 6.9-2.9 6.9-6.4 0-3.6-3.1-6.4-6.9-6.4z"/>
					<path fill-rule="evenodd" fill="#e60012" d="m1218.2 385.4c-5.8 0-10.6-4.7-10.6-10.6 0-5.8 4.8-10.6 10.6-10.6 5.9 0 10.6 4.8 10.6 10.6 0 5.9-4.7 10.6-10.6 10.6z"/>
					<path fill="#e60012" d="m1261.9 358h-8.8v-3.8c0-2.6-2.3-4.8-5.1-4.8-2.8 0-5.1 2.2-5.1 4.8v3.8h-8.8c-2.8 0-5 2.1-5 4.7 0 2.5 2.2 4.6 5 4.6h8.8v72.6c0 2.6 2.3 4.7 5.1 4.7 2.8 0 5.1-2.1 5.1-4.7v-72.6h8.8c2.8 0 5-2.1 5-4.6 0-2.6-2.2-4.7-5-4.7z"/>
					<path fill="#e60012" d="m1303.4 358h-8.8v-3.8c0-2.6-2.3-4.8-5.1-4.8-2.9 0-5.2 2.2-5.2 4.8v3.8h-8.8c-2.8 0-5 2.1-5 4.7 0 2.5 2.2 4.6 5 4.6h8.8v72.6c0 2.6 2.3 4.7 5.2 4.7 2.8 0 5.1-2.1 5.1-4.7v-72.6h8.8c2.8 0 5-2.1 5-4.6 0-2.6-2.3-4.7-5-4.7z"/>
					<path fill="#e60012" d="m1261.2 373.8c-2.1 0-3.9 1.6-3.9 3.6v62.2c0 2 1.8 3.6 3.9 3.6 2.2 0 3.9-1.6 3.9-3.6v-62.2c0.1-2-1.7-3.6-3.9-3.6z"/>
					<path fill="#e60012" d="m1302.7 373.8c-2.2 0-3.9 1.6-3.9 3.6v62.2c0 2 1.7 3.6 3.9 3.6 2.2 0 3.9-1.6 3.9-3.6v-62.2c0-2-1.7-3.6-3.9-3.6z"/>
					<path fill="#e60012" d="m1276.7 373.8c-2.2 0-4 1.7-4 3.7 0 0.5 0.3 44.2-4.8 61.1-0.5 1.9 0.7 3.9 2.8 4.5q0.5 0.1 1.1 0.1c1.7 0 3.3-1 3.8-2.6 5.3-17.9 5-61.3 5-63.1 0-2.1-1.6-3.6-3.9-3.7z"/>
					<path fill="#e60012" d="m1235.2 373.8c-2.2 0-3.9 1.7-3.9 3.7 0 0.5 0.3 44.2-4.8 61.1-0.6 1.9 0.6 3.9 2.8 4.5q0.5 0.1 1 0.1c1.8 0 3.3-1 3.8-2.6 5.4-17.9 5.1-61.3 5.1-63.1 0-2.1-1.7-3.6-4-3.7z"/>
					<path fill="#e60012" d="m1406.8 414.7c0-2.6-2.3-4.8-5.2-4.8h-67.6c-2.9 0-5.2 2.2-5.2 4.8 0 2.7 2.3 4.8 5.2 4.8h67.6c2.9 0 5.2-2.1 5.2-4.8z"/>
					<path fill="#e60012" d="m1408.6 384.5h-50.3c-3.7 0-6.9-2.6-7.2-6.1q0-0.6 0.1-1.3l1.6-9.8h68c2.6 0 4.9-1.8 5.1-4.3 0.2-2.7-2.1-5-5-5h-66.6l0.4-2.7c0.5-3.1-2-5.8-5.4-5.8-2.7 0-5 1.8-5.4 4.3l-3.4 21.5v-0.1q-0.3 1.4-0.3 2.8c0 6 3.5 11.1 8.6 13.9 2.5 1.4 5.6 2.2 8.8 2.2h50.4c3.9 0 7 3 7 6.6v28.2c0 3.5-3.1 6.5-7 6.5h-40.4c-2.7 0-5 1.8-5.2 4.3-0.1 2.7 2.2 5 5 5h41.2c9.6 0 17.3-7.3 17.3-16.2v-27.8c0-9-7.7-16.2-17.3-16.2z"/>
					<path fill="#e60012" d="m532.4 398.1h-32.6c-5.2 0-9.4 3.9-9.4 8.8v27.6c0 4.8 4.2 8.7 9.4 8.7h32.6c5.3 0 9.5-3.9 9.5-8.7v-27.6c-0.1-4.9-4.3-8.8-9.5-8.8zm-0.7 33.6c0 1.2-1 2.2-2.4 2.2h-26.4c-1.3 0-2.4-1-2.4-2.2v-22.1c0-1.2 1.1-2.2 2.4-2.2h26.4c1.3 0 2.4 1 2.4 2.2v22.1z"/>
					<path fill="#e60012" d="m499.8 390.9h32.6c6.4 0 10.9-5.8 9-11.5l-6.4-18.5c-0.7-2-2.6-3.3-4.8-3.3-3.5 0-5.9 3.1-4.9 6.2l5.2 14.8c0.5 1.5-0.7 2.9-2.3 2.9h-24.2c-1.6 0-2.7-1.4-2.2-2.9l7.9-22.9c0.9-2.7-0.7-5.6-3.8-6.2-2.6-0.5-5 1-5.8 3.2l-9.2 26.7c-2 5.7 2.5 11.5 8.9 11.5z"/>
					<path fill="#e60012" d="m475.5 423c6.3-9.3 10-20 10.1-30.8 0.1-6.5 0.1-13.1 0-19.5 0-3.3 0 0.4 0-1.7q0-0.3 0-0.5c0-2.6-2.2-4.6-4.9-4.6h-16.8l1-10.9c0.3-2.8-1.9-5.3-4.9-5.5-3-0.2-5.6 1.8-5.9 4.6l-1.1 11.8h-3.3c-2.7 0-5 2-5 4.6 0 2.5 2.3 4.6 5 4.6h2.4l-1.7 18.1-0.7 8c-0.5 4.3 0.9 8.7 3.8 12.2l5.3 6.3 3.4 4 0.1 0.1q-0.1 0.1-0.1 0.1c-3.5 3.9-7.6 7.4-12.1 10.3q-1.4 0.9-2.8 1.6c-2.2 1.2-3.1 3.7-2.2 5.9 1.2 2.7 4.6 3.7 7.3 2.3q1.7-1 3.4-2c4.7-3 9-6.5 12.8-10.5q0 0 0.1-0.1l8.4 10.1c1.9 2.2 5.3 2.6 7.7 0.9 2.3-1.8 2.8-4.9 0.9-7.1zm-6.8-8.1l-5.6-6.8c-1.8-2.1-2.7-4.8-2.4-7.5l2.4-25.6h12.4c0.1 5.7 0.1 11.4 0 17.1-0.1 7.7-2.6 15.7-6.8 22.8z"/>
					<path fill="#e60012" d="m1545 398.8l-7.1-9.2c-5-6.4-13.1-10.3-21.6-10.3h-40.2c-8.6 0-16.6 3.9-21.6 10.3l-7.1 9.2c-1.6 2-1.3 5 0.9 6.5 2.2 1.6 5.4 1.2 7.1-0.9l8-10.4c2.6-3.3 6.8-5.3 11.3-5.3h43c4.5 0 8.7 2 11.3 5.3l8 10.4c1.7 2.1 4.9 2.6 7.1 0.9 2.2-1.5 2.5-4.5 0.9-6.5z"/>
					<path fill="#e60012" d="m1476.6 417.7c-2-1.9-5.1-1.9-7.1 0l-20.4 19c-1.9 1.8-1.9 4.7 0 6.5 2 1.9 5.1 1.9 7.1 0l20.4-19c1.9-1.8 1.9-4.7 0-6.5z"/>
					<path fill="#e60012" d="m1522.8 417.7c-1.9-1.9-5.1-1.9-7 0-2 1.8-2 4.7 0 6.5l20.4 19c2 1.9 5.1 1.9 7.1 0 1.9-1.8 1.9-4.7 0-6.5z"/>
					<path fill="#e60012" d="m1530.9 405.5c0-2.6-2.2-4.7-5-4.7h-22.6v-2.9c0-2.8-2.5-5.1-5.5-5.1-3 0-5.4 2.3-5.4 5.1v2.9h-26c-2.8 0-5.1 2.1-5.1 4.7 0 2.5 2.3 4.6 5.1 4.6h26v17.6c0 4.2-3.7 7.6-8.2 7.6h-5.4c-2.8 0-5 2.1-5 4.7 0 2.5 2.2 4.6 5 4.6h6.3c10 0 18.2-7.6 18.2-16.9v-17.6h22.6c2.8 0 5-2.1 5-4.6z"/>
					<path fill="#e60012" d="m1452.6 367.3h13.1v4c0 2.8 2.4 5.1 5.4 5.1 3.1 0 5.5-2.3 5.5-5.1v-4h39.1v4c0 2.8 2.5 5.1 5.5 5.1 3 0 5.4-2.3 5.4-5.1v-4h13.1c2.8 0 5-2.1 5-4.7 0-2.5-2.2-4.6-5-4.6h-13.1v-3.6c0-2.8-2.4-5-5.4-5-3 0-5.5 2.2-5.5 5v3.6h-39.1v-3.6c0-2.8-2.4-5-5.5-5-3 0-5.4 2.2-5.4 5v3.6h-13.1c-2.7 0-5 2.1-5 4.6 0 2.6 2.3 4.7 5 4.7z"/>
					<g>
						<path fill="#e60012" d="m983.1 349.5c-3.8 0-6.9 2.8-6.9 6.4 0 3.5 3.1 6.4 6.9 6.4 3.8 0 6.9-2.9 6.9-6.4 0-3.6-3.1-6.4-6.9-6.4z"/>
						<path fill="#e60012" d="m983.3 370c-3 0-5.4 2.2-5.4 5v64.1c0 2.8 2.4 5.1 5.4 5.1 3 0 5.5-2.3 5.5-5.1v-64.1c0-2.8-2.5-5-5.5-5z"/>
						<path fill="#e60012" d="m1031.6 349.5c-2.7 0.4-4.6 2.6-4.6 5.1v73.2c0 3.9-3.4 7.1-7.6 7.1h-1.3c-2.8 0-5 2.1-5 4.6 0 2.6 2.2 4.7 5 4.7h1.3c9.9 0 17.9-7.3 18.4-16.3v-73.4c0-3-2.9-5.4-6.2-5z"/>
						<path fill="#e60012" d="m1054.4 385.2c-0.1-0.7-0.2-2.2-0.4-5.1q-0.1-0.4-0.1-0.7c-0.1-3.6 2.5-4.3 3.9-4.4h0.9 2.9l6.6 0.1c2.6 0 4.8-1.8 5.1-4.1 0.2-1.3-0.3-2.7-1.2-3.7-1-1-2.3-1.5-3.7-1.5 0 0-12.9-0.1-14 0-3.5 0.3-10.7 2.1-11.4 12.1-0.1 2 0 4.2 0.5 6.9 0 0.1 0 0.1 0 0.2 0.8 8 2.4 15.9 4.7 23.5q0.1 0.2 0.1 0.4c3.5 11 8.4 21.5 14.9 31.3 1.8 2.7 5.6 3.4 8.2 1.3 2.1-1.6 2.5-4.4 1.1-6.5-9.7-14.8-16.1-31.7-18.1-49.8z"/>
						<path fill="#e60012" d="m1012.4 365.9c-0.9-0.2-15.3 0-15.3 0-1.4 0-2.7 0.5-3.6 1.5-1 1-1.4 2.3-1.3 3.7 0.3 2.3 2.5 4.1 5.1 4.1l8.5-0.1h2.1c1.4 0.1 3.8 0.8 3.7 4-1.1 20.4-7.7 39.5-18.6 56-1.4 2.1-0.9 4.9 1.1 6.5 2.7 2.1 6.5 1.4 8.3-1.3 8-12.2 13.7-25.4 17-39.3q0.8-3.7 1.5-7.4c0.5-2.9 0.9-6.8 1.4-11.8q0.1-1.1 0.2-2.2c0.1-12.5-9.2-13.6-10.1-13.7z"/>
					</g>
				</g>
				<g>
					<path fill-rule="evenodd" fill="#e60012" d="m1517.3 78.2c-9.9 0-17.8-8-17.8-17.9 0-9.9 7.9-17.9 17.8-17.9 9.9 0 17.9 8 17.9 17.9 0 9.9-8 17.9-17.9 17.9z"/>
					<path fill="#e60012" d="m667.1 122.3c-2-6.3-8.7-9.7-15-7.6l-78.7 26-78.8-26.1c-6.2-2.1-12.9 1.3-15 7.6-2.1 6.2 1.3 13 7.6 15.1l48.3 16-48.4 16c-6.2 2.1-9.6 8.9-7.5 15.1 1.6 5 6.3 8.2 11.3 8.2 1.2 0 2.4-0.2 3.7-0.6l78.7-26.1 78.8 26.2q1.8 0.6 3.7 0.6c5 0 9.6-3.2 11.3-8.2 2.1-6.3-1.3-13-7.6-15.1l-48.3-16 48.3-16.1c6.3-2 9.7-8.8 7.6-15z"/>
					<path fill-rule="evenodd" fill="#e60012" d="m573.4 130c-9.9 0-17.9-8-17.9-17.9 0-9.9 8-17.9 17.9-17.9 9.8 0 17.8 8 17.8 17.9 0 9.9-8 17.9-17.8 17.9z"/>
					<path fill-rule="evenodd" fill="#e60012" d="m462.6 171.2c-9.9 0-17.8-8-17.8-17.9 0-9.9 7.9-17.9 17.8-17.9 9.9 0 17.9 8 17.9 17.9 0 9.9-8 17.9-17.9 17.9z"/>
					<path fill-rule="evenodd" fill="#e60012" d="m684.1 171.2c-9.9 0-17.9-8-17.9-17.9 0-9.9 8-17.9 17.9-17.9 9.9 0 17.8 8 17.8 17.9 0 9.9-7.9 17.9-17.8 17.9z"/>
					<path fill="#e60012" d="m688.7 267.3c-4.7 0-9.1 2.5-11.4 6.7-2.3 4.2-6.9 7.1-12 7.1h-77.9v-14.3h66.1c18.8 0 34.1-15.4 34.1-34.2 0-18.9-15.3-34.2-34.1-34.2h-66.1v-7.2c0-6.9-5.6-12.5-12.5-12.5h-3.1c-6.9 0-12.5 5.6-12.5 12.5v7.2h-66c-18.9 0-34.2 15.3-34.2 34.2 0 18.8 15.3 34.2 34.2 34.2h66v14.3h-101.7c-7.1 0-12.9 5.8-12.9 13 0 7.1 5.8 12.9 12.9 12.9h208.2c14.7 0 27.5-8 34.3-19.9 5.1-8.8-1.3-19.8-11.4-19.8zm-37-45.1c5.7 0 10.3 4.6 10.3 10.3 0 5.7-4.6 10.4-10.3 10.4h-64.3v-20.7zm-156.7 20.7c-5.7 0-10.4-4.7-10.4-10.4 0-5.7 4.7-10.3 10.4-10.3h64.3v20.7z"/>
					<path fill="#e60012" d="m934.5 99.4h-49.9c-5.7 0-10.4-4.6-10.4-10.3 0-5.7 4.7-10.3 10.4-10.3h74.9c7.1 0 12.9-5.8 12.9-13 0-7.1-5.8-12.9-12.9-12.9h-198.6c-7.1 0-12.9 5.8-12.9 12.9 0 7.2 5.8 13 12.9 13h74.9c5.7 0 10.3 4.6 10.3 10.3 0 5.7-4.6 10.3-10.3 10.3h-49.9c-24.5 0-44.4 20-44.4 44.6v40.3c0 7.3 5.9 13.3 13.2 13.3 7.3 0 13.2-6 13.2-13.3v-40.9c0-10 8.1-18.1 18-18.1h60.3v55.1c0 7.8 6.3 14.1 14 14.1 7.8 0 14-6.3 14-14.1v-55.1h60.3c9.9 0 18 8.1 18 18.1v40.9c0 7.3 5.9 13.3 13.2 13.3 7.3 0 13.2-6 13.2-13.3v-40.3c0-24.6-19.9-44.6-44.4-44.6z"/>
					<path fill="#e60012" d="m461.5 115.2c7.3 0 13.2-5.9 13.2-13.2v-3c0-5.9 4.8-10.6 10.6-10.6h86.6 2.9 86.6c5.9 0 10.6 4.7 10.6 10.6v3c0 7.3 5.9 13.2 13.2 13.2 7.3 0 13.2-5.9 13.2-13.2v-3c-0.4-20.2-16.8-36.5-37-36.5h-70.3q0.1-1.1 0.1-2.2c0-9.9-8-18-17.8-18-9.9 0-17.9 8.1-17.9 18q0 1.1 0.2 2.2h-70.4c-20.2 0-36.6 16.3-36.9 36.5v3c0 7.3 5.9 13.2 13.1 13.2z"/>
					<path fill="#e60012" d="m792.6 191.2c4.5 4.4 11.6 4.4 16.1 0l18.5-18.5c3.3-3.4 4.4-8.7 2-13.4-0.5-1.1-1.3-2-2.1-2.8l-18.4-18.4c-4.4-4.5-11.6-4.5-16 0-4.5 4.4-4.5 11.6 0 16.1l10.4 10.4-10.4 10.5c-4.5 4.4-4.5 11.6-0.1 16.1z"/>
					<path fill="#e60012" d="m927.8 138c-4.4-4.4-11.6-4.4-16.1 0l-18.3 18.4c-1.1 1.1-2 2.4-2.6 3.9-1.8 4.4-0.7 9.2 2.5 12.4l18.4 18.5c4.4 4.4 11.6 4.4 16.1 0 4.4-4.5 4.4-11.7 0-16.1l-10.5-10.5 10.5-10.5c4.4-4.4 4.4-11.6 0-16.1z"/>
					<path fill="#e60012" d="m943 206.2h-6-181c-7.1 0-12.9 5.8-12.9 12.9 0 7.2 5.8 12.9 12.9 12.9h155 30.8c3.6 0 6.7 2.9 6.7 6.5-0.1 1.5-0.7 2.9-1.6 4-1.1 1.3-2.8 2.2-4.7 2.2h-13.7-17.6-155.4c-6.5 0-12.2 5-12.4 11.5-0.2 6.8 5.2 12.3 11.9 12.3h156 17.6 13.6c1.9 0 3.6 0.9 4.7 2.2 0.9 1.1 1.5 2.5 1.6 4 0 3.6-3.1 6.4-6.6 6.4h-30.9-154.9c-7.2 0-12.9 5.8-12.9 13 0 7.1 5.7 12.9 12.9 12.9h180.9 6c11.5 0 22.4-5.7 28.2-15.7 2.8-4.8 4.4-10.4 4.4-16.4v-36.5c0-6-1.6-11.6-4.4-16.5-5.8-10-16.7-15.7-28.2-15.7z"/>
					<path fill="#e60012" d="m1543.5 286.1c-10.9-15.2-20-32-27.6-49.4 13.8-25.4 22.8-53.7 25.8-83.8 0.8-7.6-5.1-14.1-12.7-14.1-6.5 0-12 4.9-12.7 11.4-1.9 18.6-6.3 36.4-13 53.1-10.3-31.9-16.3-63.7-19.8-89.7h45.5c7 0 12.8-5.7 12.8-12.8 0-7.1-5.8-12.8-12.8-12.8h-48.5c-1.7-19.5-1.9-31.9-1.9-32.4 0-7.3-5.9-13.2-13.1-13.2q0 0 0 0c-7.2 0-13.1 5.9-13.1 13.1 0 0.9 0 13.1 1.6 32.5h-43.1c-19.5 0.5-35.2 16.5-35.2 36.2q0 4.8 0 9.6c0 37.2-2.1 74.1-6.1 110.5-3.5-2.9-8.5-3.8-13.1-1.9l-7.6 3.3v-132.1h12.7c7 0 12.8-5.7 12.8-12.8 0-7.1-5.8-12.8-12.8-12.8h-12.7v-31.6c0-7.7-6.3-14.1-14-14.1-7.8 0-14.1 6.4-14.1 14.1v31.6h-12.6c-7.1 0-12.8 5.7-12.8 12.8 0 7.1 5.7 12.8 12.8 12.8h12.6v144l-17.6 7.5c-6.5 2.8-9.6 10.3-6.8 16.8 2.7 6.5 10.2 9.6 16.7 6.8l53.4-22.7c0.1 0 0.3-0.1 0.5-0.2-1.1 8.6-2.3 17.2-3.7 25.8-1.3 8.1 4.9 15.4 13.1 15.4 6.5 0 12-4.8 13-11.3 6.8-43.1 10.9-86.9 12.2-131.2h17.1c5.8 0 10.5 4.7 10.5 10.6v66.1c0 4.4-2.6 8.1-6.4 9.8-0.3 0.1-0.6 0.2-1 0.3q-0.6 0.1-1.3 0.2c-6.4 0.9-11.3 6.3-11.3 12.9 0 7.4 6.2 13.3 13.6 12.9 0.9 0 1.6-0.1 2-0.2 17.3-2.9 30.4-17.8 30.6-35.9h0.1v-66.1h-0.1c-0.3-20.1-16.6-36.2-36.7-36.2h-16.6c0-1.8 0-3.4 0-5.1q0-4.8 0-9.6c0-5.8 4.7-10.6 10.6-10.6h43.9c1.1 8.5 2.4 17.7 4.1 27.4 5.9 34.4 14.9 66.3 26.2 94.6-10.6 16.9-23.6 32-38.6 44.9-5.7 4.9-6 13.5-0.8 18.8 4.8 4.8 12.3 5 17.4 0.6 12.8-11 24.3-23.4 34.3-37 7.1 14.1 14.8 27.1 23.2 38.6 2.5 3.5 6.5 5.4 10.5 5.4 2.7 0 5.4-0.8 7.7-2.5 5.8-4.2 7.1-12.4 2.9-18.3z"/>
					<path fill-rule="evenodd" fill="#e60012" d="m1035.8 78.2c-9.9 0-17.9-8-17.9-17.9 0-9.9 8-17.9 17.9-17.9 9.9 0 17.8 8 17.8 17.9 0 9.9-7.9 17.9-17.8 17.9z"/>
					<path fill="#e60012" d="m1036.3 99.7c-7.7 0-14 6.3-14 14.1v179.1c0 7.7 6.3 14.1 14 14.1 7.8 0 14-6.4 14-14.1v-179.1c0.1-7.8-6.2-14.1-14-14.1z"/>
					<path fill="#e60012" d="m1161.4 42.5c-6.9 1-11.9 7.3-11.9 14.4v204.5c0 10.9-8.8 19.7-19.6 19.7h-3.5c-7.2 0-12.9 5.8-12.9 12.9 0 7.2 5.7 13 12.9 13h3.5c25.5 0 46.4-20.2 47.6-45.6h0.1v-204.9c0-8.5-7.5-15.2-16.2-14z"/>
					<path fill="#e60012" d="m1220.7 142.4c-0.2-2-0.5-6.2-1.2-14.4 0-0.7 0-1.3-0.1-2-0.2-10 6.4-11.9 10.1-12.2h2.3 7.4l17.3 0.2c6.8 0 12.4-4.9 13.2-11.4 0.4-3.8-0.8-7.6-3.2-10.4-2.4-2.7-5.9-4.2-9.5-4.2 0 0-33.6-0.3-36.4 0-9 0.8-27.9 6-29.5 33.9-0.3 5.5 0 11.8 1.2 19.2 0 0.2 0 0.4 0.1 0.6 2 22.4 6.1 44.3 12.1 65.6 0.2 0.4 0.3 0.8 0.4 1.2 8.9 30.7 21.8 60 38.5 87.3 4.7 7.7 14.5 9.7 21.4 3.8 5.4-4.6 6.4-12.3 2.8-18.2-25.3-41.3-41.8-88.4-46.9-139z"/>
					<path fill="#e60012" d="m1111.7 88.2c-2.3-0.5-39.7 0-39.7 0-3.6 0-7 1.6-9.4 4.3-2.5 2.8-3.7 6.6-3.2 10.3 0.7 6.6 6.4 11.5 13.1 11.5l22.1-0.2h5.3c3.6 0.3 9.9 2.1 9.7 11.2-2.8 57.1-20 110.5-48.2 156.3-3.6 6-2.6 13.7 2.8 18.3 6.9 5.9 16.7 3.9 21.4-3.8 20.8-33.8 35.6-70.8 44.1-109.6 1.6-6.9 2.8-13.8 4-20.7 1.1-8.2 2.4-19 3.7-33.1 0.1-2 0.2-4.1 0.3-6.2 0.5-34.9-23.6-37.8-26-38.3z"/>
				</g>
				<g>
					<path fill="#ffffff" d="m116.9 160.8c0-38.5 30.2-71.2 72.1-82.9q0.1 0 0.3 0.1c8.5 2.7 20.9 4.3 33.9 4.3 13 0 25.3-1.6 33.8-4.3q0.1 0 0.3-0.1c41.9 11.7 72.1 44.4 72.1 82.9 0 48.3-47.6 87.5-106.2 87.5-58.7 0-106.3-39.2-106.3-87.5z"/>
					<path fill="#0b318f" d="m207.8 126.8c-3.2-7.7-9.4-12.9-16.4-12.9-2.1 0-4.1 0.4-5.9 1.3q-1.7 0.5-3.3 1.7c-5.2 3.9-8.9 11.1-9.6 19.5q-0.1 0.5-0.1 0.9 0 0.3 0 0.6-0.1 0.8-0.1 1.6c0 8.6 2.7 15.2 7.8 20.2 5.1 5.1 13.3 5.1 17.5-1.3 3-4.4 4-12.2 3.6-17.2l-6.1-3.7 5.7-4.7c-0.4-4.5-1.9-8.6-3.8-11.8 2.8 1.6 5.1 4.2 6.7 7.6 0.6 1.2 2.1 1.6 3.2 0.9 0.9-0.6 1.2-1.7 0.8-2.7z"/>
					<path fill="#0b318f" d="m269.2 156.1c-5-0.2-11-1.2-17.9-4.3-5.2-2.3-9-3.5-10.6-3.9q-0.3-0.1-0.5-0.1-0.3-0.1-0.4-0.1-1.6-0.4-3.4-0.4c-8.8 0-16 7.3-16 16.2 0 7.6 5.2 14 12.2 15.7 15.7 4.1 36.8-4.9 44.5-13.5 7.7-8.7-2.7-9.4-7.9-9.6z"/>
					<path fill="#231815" d="m389.9 408.6v-0.2c-2.5-9.9-6.8-23.7-9-30.7q3-3.1 5.3-7c7.5-13.4 6.8-32.6-1.9-53.9-9.9-24.2-25.5-39.5-35.9-47.2-4-17.3-12.9-25.2-16.4-27.7-0.9-0.6-1.7-1.5-2.1-2.6-2.6-6.4-6-10.2-8.6-12.3-1-0.8-3.4-2.7-6.6-4.5 6.6-6.9 12-14.4 16.1-22.5 6.4-12.4 9.6-25.6 9.6-39.2 0-13.6-3.2-26.8-9.6-39.2-6-11.8-14.6-22.3-25.6-31.3-12-9.9-26.1-17.4-41.5-22.1 0-3.9 1-6.9 1.4-7.7q0.1-0.3 0.1-0.5l0.1-0.3 0.1-0.2q0.4-0.9 0.6-1.7l2.1-6.1 2.3-6.7c7.9-2.8 13.5-10.7 12.6-19.8-0.9-8.8-7.9-15.9-16.6-16.9-11.4-1.3-21 7.7-21 18.8q0 1.9 0.4 3.8c-1.1 1.3-2.3 2.5-3.5 2.8-0.1 0.1-0.1 0.1-0.2 0.1-0.4-0.1-1.4-1-2.7-3.1 2.7-4.1 3.9-9.3 3-14.6-1.6-8.7-9-15.4-17.8-16-11.5-0.9-21.1 8.3-21.1 19.6 0 4 1.2 7.8 3.3 11-1.3 2.1-2.4 2.9-2.7 3.1q-0.1 0-0.3-0.1c-1-0.4-2.3-1.5-3.4-2.8q0.4-1.9 0.4-3.8c0-11.2-9.7-20.1-21-18.8-8.7 1-15.7 8.1-16.6 16.9-0.9 9 4.6 17 12.5 19.8l2.4 6.7 2.1 6q0.2 0.9 0.6 1.7v0.3l0.1 0.3c0.1 0.1 0.2 0.3 0.2 0.5 0.3 0.8 1.3 3.8 1.4 7.6-15.4 4.8-29.5 12.2-41.6 22.2-10.9 9-19.5 19.5-25.5 31.3-6.4 12.4-9.6 25.5-9.6 39.2 0 13.6 3.2 26.7 9.6 39.1 3.6 7.1 8.2 13.8 13.6 19.9-6 3.4-10.9 8.6-13.8 14.7-0.7 1.3-1.7 2.4-3 3-4.2 2.1-13.7 7.7-19.2 18.6-4.8 0.1-10.6-0.5-16.5-2.7 0 0-1.9-0.7-2.5-1l-1.3-18.6q1.6-1.2 3-2.6c4.3-4.3 6.5-9.9 6.1-15.7-0.3-3.5-1.5-6.8-3.5-9.6q0.3-0.6 0.4-1.3l13.9-102.3q0.4-0.5 0.7-1c3.3-4.9 4-11.6 1.9-17.3-1.5-4-4.2-7-7.6-8.9 0.6-2.2 0.8-4.5 0.6-6.9-1.1-9.3-8.8-15.8-11.7-17.9 2-6.3 1.3-11.5 0.1-15.1-3.3-9.8-12.7-15.9-19.7-18.2-2.5-0.8-3.8-2.2-4.2-4.4-0.4-2.2 0.1-4.2 0.1-4.2 0.5-1.6 0.1-3.4-1-4.7-1.2-1.3-2.9-1.9-4.6-1.6-0.6 0.1-16.1 2.7-23.9 15.3-3.8 6.2-5.1 13.6-3.8 22.1 0.3 2.3-0.5 4.5-2.2 6-4.3 3.7-9.2 9.5-9.9 16.8-0.4 4-0.1 8.4 1.9 12.4-10.5 7-10.7 20-7.4 26.7 1 2.2 2.7 4.8 5.5 7.2l28.4 99.2q0.2 0.7 0.6 1.2c-1.5 3.1-2.3 6.5-2 10 0.5 7.2 5.1 13.3 11.6 16.7l0.5 7.4-2.8 0.3c-3.7 0.3-7.1 1.6-10 3.4-10.7 7-12.2 20.6-10.2 30.2 1.8 8.2 6.4 15.8 13.9 22.8 2.1 2 8.7 7.4 13.9 9.6l5.9 82.4c-1.6 5.6-3.3 11.6-4.6 16.6v0.2c-2 7.8-5.3 20.9 7.6 32.5q0.3 0.3 0.6 0.5l2.3 32.9c0.3 3.6 1.9 6.9 4.6 9.2 2.5 2.2 5.5 3.3 8.7 3.3q0.5 0 1 0c3.8-0.3 7.3-2.2 9.7-5.3 2-2.7 2.9-6 2.6-9.4l-1.3-18.2c10.2 2.6 20 4.8 28.7 6.8 5.4 1.3 11.8 2.8 17.4 4.3 7.9 2 15.7 4.8 23.2 8.3 19.5 8.8 41.1 13.5 63.5 13.5 22.3 0 44-4.7 63.5-13.5 7.5-3.4 15.2-6.3 23.2-8.3 5.5-1.4 12-3 17.3-4.3 8.7-2 18.6-4.2 28.9-6.8 12.8-3.3 22-7.5 28.1-13 13-11.6 9.7-24.7 7.7-32.5zm-69.1-163.2c0.9 2.6 4.2 4.8 6.3 6.8 3.4 3.1 8.4 10.6 8.4 12.6-11.3 1.2-24 2.3-35.9 2.3q-3.5 0-7-0.1c-12.9-0.6-26.4-6.3-34.8-11.9 17.7-4.6 33.9-12.7 47.5-23.8 0.3-0.4 0.7-0.7 1.1-1 2.7 1.2 5.8 3.1 8.2 5.1 0.9 0.7 4 3.5 6.2 10zm-138.8-209c-5.1 0-9.2-4.1-9.2-9.3 0-5.1 4.1-9.3 9.2-9.3 5.1 0 9.3 4.1 9.3 9.3 0 1.8-0.5 3.6-1.4 5 0 0 4.1 8.3 10.8 10.7q1.8 0.6 3.5 0.6c5.9 0 10.9-5.6 14.2-14.8-3.1-1.7-5.3-5-5.3-8.9 0-5.5 4.5-10 10.1-10 5.5 0 10 4.5 10 10 0 3.9-2.1 7.2-5.3 8.9 3.3 9.2 8.4 14.8 14.3 14.8q1.6 0 3.4-0.6c6.8-2.4 10.9-10.7 10.9-10.7-0.9-1.4-1.5-3.2-1.5-5 0-5.1 4.2-9.3 9.3-9.3 5.1 0 9.2 4.1 9.2 9.3 0 5.1-4.1 9.3-9.2 9.3q-0.5 0-0.9 0l-4.2 12.1-2.1 6.1q-0.4 0.9-0.7 1.8-0.1 0.4-0.3 0.7c-0.6 1.7-2 6.2-2 11.7-7.3 2.4-18.4 3.9-30.9 3.9-12.5 0-23.7-1.5-31-3.9 0-5.5-1.4-9.9-2-11.7q-0.1-0.3-0.3-0.7c-0.2-0.6-0.4-1.2-0.6-1.8l-2.1-6.1-4.2-12.1q-0.5 0-1 0zm-65.1 124.4c0-38.5 30.2-71.2 72.1-82.9q0.1 0 0.3 0.1c8.5 2.7 20.9 4.3 33.9 4.3 13 0 25.3-1.6 33.8-4.3q0.1 0 0.3-0.1c41.9 11.7 72.1 44.4 72.1 82.9 0 48.3-47.6 87.5-106.2 87.5-58.7 0-106.3-39.2-106.3-87.5zm-1.2 87.3c5.3-2.9 7.3-3.4 8.2-6.3 2-6.6 7.3-11.5 13.2-13.9q1.9 1.7 4 3.4c14 11.5 30.8 19.7 49.2 24.2-4.6 2.9-10.5 5.7-16.4 6.8-4.1 0.8-8.8 1.2-13.3 1.2-4 0-7.9-0.3-11.5-0.9-6.8-1.1-14.9-3.9-19.9-5.2-4.4-1.1-12.3-2.8-21.5-3 0 0 1.8-2.9 8-6.3zm-104.7-151.3c-0.7-1.4-0.9-2.9-0.9-4.4 0-2.6 0.9-4.9 2.3-7 0.6-0.8 1.3-1.6 2-2.3 0.4-0.4 1.7-2 2.3-1.7q3.6 2 6.6 1.4c1.4-0.3 2.6-1.7 2.7-3.1 0-0.7-0.9-1.5-1.7-2.1l-0.1-0.1c-5.6-4.4-7.9-7.1-7.1-14.2 0.8-6.6 8.4-12.2 11.3-13.7 1.9-1.1 2.8-3.4 2.2-5.5-2.7-8.7-2.4-16 1-21.4 2.9-4.8 7.7-7.6 11.2-9.1q0.1 0 0.3 0.1 0.1 0 0.2 0.2c0.5 3.5 2.7 9.8 10.7 12.4 5.1 1.7 11.6 6.2 13.6 12.1 1.5 4.6 0.4 9.9-3.5 15.6l-0.2 0.3c-1.5 2.1-3 4.3-1.9 5 1 0.7 5.5 0.1 8.3-1.3 0.1 0 0.3 0 0.4 0 2.7 2 7.5 6.5 8 11.4 0.4 3.6-1.1 7.2-4.2 10.8q-1.7 1.9-1.5 2.9 0.2 0.7 1.3 1.2c0.9 0.3 4.9 0.2 6.9-1.1 0-0.1 0.2-0.1 0.3 0 2.9 1.3 5.1 3.7 5.1 7 0.1 2.2-0.6 3.8-1.6 5.3-2.4 3.6-6.9 5.8-10.7 7.2-6.7 2.7-15.2 4.5-24 5.2-10.8 0.7-21.3-0.3-28.8-2.8-5.1-1.8-8.8-4.7-10.5-8.3zm8 18.2c6.8 2.2 15.1 3.3 24.1 3.3q3.9 0 7.9-0.3c9.9-0.7 19.3-2.7 27-5.8q2.1-0.8 4.3-1.8l-12.4 91.2c-4.8 3.6-10.5 5-17.2 4-3.6-0.6-6.7-1.7-8.4-2.4zm30.1 180.6c-8.3-6.5-13.4-13.5-14.9-20.8-1.3-6.2-0.7-14.9 5.5-18.9 1.4-1 3.3-1.6 5.3-1.8q0.2 0 0.4-0.1c7.1 15.5 5.5 32.4 3.7 41.6zm-5.3-77.3c-0.2-1.7 0.2-3.4 1-5 3.2 1 7.4 2 12 2 4.6 0 9.6-0.9 14.4-3.5 0.8 1.3 1.3 2.8 1.4 4.4 0.3 3.1-1 6.1-3.4 8.4-2.5 2.6-6.2 4.2-10.2 4.5-7.9 0.6-14.8-4.2-15.2-10.8zm36.5 258.5c-0.8 0.9-2 1.6-3.3 1.6-1.3 0.1-2.5-0.3-3.5-1.1-1-0.9-1.6-2-1.7-3.3l-12.9-180.3c1.4-9.6 2.1-23.7-2.7-37.7l-1.3-17.7q1.4 0.2 2.9 0.2 1 0 1.9-0.1 2.5-0.2 4.8-0.8l17 235.7c0 1.2-0.4 2.5-1.2 3.5zm141-2c-72.1 0-130.8-53.2-130.8-118.6 0-18.8 4.8-36.9 14.1-53.6 0.4-0.6 0.4-1.6 0-2.1-0.3-0.5-1-0.7-1.7-0.6-1.6 0.2-3.8 1.9-5.7 3.4-4.3 3.6-7 7.7-9.6 11.7-3.2-0.5-6.6-1.7-9.2-2.7l-3.4-48.1c6.1 2.1 12 2.7 17.1 2.7 8.1 0 13.9-1.6 14.3-1.7q0.1-0.1 0.2-0.1h1c6 0.1 12.4 1 19 2.7 1.4 0.4 3.3 1 5.3 1.5 4.6 1.4 10.3 3.1 15.4 3.9q6.3 1.1 13.3 1.1c5.3 0 10.6-0.5 15.3-1.4 10-1.9 19.7-7.4 25.4-12l3.5-2.7c6 0.8 12.2 1.2 18.4 1.2q10.5 0 20.6-1.5l4.6 3.6c9.7 7.5 27 15.5 43.7 16.3 2.4 0.1 5 0.1 7.5 0.1 12.6 0 25.8-1.2 37-2.4h0.8c7.3 4.4 25.8 19 36.7 45.6 12.4 30.3 5.2 50.6-11.7 54.9 0.1-0.5 0.1-1 0.2-1.5 1.6-11.2 2-23.3-1-34.5q-0.5-1.9-1.1-3.7c-1.3-3.7-2.8-7.2-4.8-10.5-1.3-2.1-4.9-8.4-8.1-7-1.3 0.6-1.3 2.3-0.9 3.4 3.6 11 5.5 22.5 5.5 34.1-0.1 65.3-58.7 118.5-130.9 118.5zm-101.5-24.7c-8.7-2-18.5-4.2-28.7-6.8q-1.7-0.4-3.4-0.9l-3.5-49q2.3 7.2 5.6 14.2c7.3 15.5 17.6 29.5 30.9 41.5q0.9 0.9 1.8 1.6-1.3-0.3-2.7-0.6zm255.1-17.2c-4.6 4.2-12.5 7.7-23.3 10.4-10.2 2.6-20 4.8-28.7 6.8q-1.4 0.3-2.8 0.6 1-0.8 1.9-1.6c13.2-12 23.6-26 30.9-41.5 2.9-6.4 5.3-13.1 7.1-19.9q0.8-0.1 1.6-0.2c3.5-0.6 6.8-1.6 9.9-3 2.2 7.3 5.6 18.4 7.7 26.6v0.3c1.9 7.3 3.6 14.3-4.3 21.5z"/>
					<path fill="#e60012" d="m320.8 245.4c0.9 2.6 4.2 4.8 6.3 6.8 3.4 3.1 8.4 10.6 8.4 12.6-11.3 1.2-24 2.3-35.9 2.3q-3.5 0-7-0.1c-12.9-0.6-26.4-6.3-34.8-11.9 17.7-4.6 33.9-12.7 47.5-23.8 0.3-0.4 0.7-0.7 1.1-1 2.7 1.2 5.8 3.1 8.2 5.1 0.9 0.7 4 3.5 6.2 10z"/>
					<path fill="#ffffff" d="m182 36.4c-5.1 0-9.2-4.1-9.2-9.3 0-5.1 4.1-9.3 9.2-9.3 5.2 0 9.3 4.1 9.3 9.3 0 1.8-0.5 3.6-1.4 5 0 0 4.1 8.3 10.8 10.7q1.8 0.6 3.5 0.6c5.9 0 10.9-5.6 14.2-14.8-3.1-1.7-5.3-5.1-5.3-8.9 0-5.6 4.5-10.1 10.1-10.1 5.5 0 10 4.6 10 10.1 0 3.8-2.2 7.2-5.3 8.9 3.3 9.2 8.3 14.8 14.2 14.8q1.7 0 3.5-0.6c6.7-2.4 10.8-10.7 10.8-10.7h0.1c-1-1.4-1.5-3.2-1.5-5 0-5.1 4.1-9.3 9.3-9.3 5.1 0 9.2 4.1 9.2 9.3 0 5.1-4.1 9.3-9.2 9.3q-0.5 0-1 0l-4.2 12.1-2.1 6.1q-0.3 0.9-0.6 1.8-0.2 0.4-0.3 0.7c-0.6 1.7-2 6.2-2 11.7-7.3 2.4-18.5 3.9-30.9 3.9-12.5 0-23.7-1.5-31-3.9 0-5.5-1.4-9.9-2-11.7q-0.1-0.3-0.3-0.7c-0.2-0.6-0.4-1.2-0.6-1.8l-2.1-6.1-4.2-12.1q-0.5 0-1 0z"/>
					<path fill="#e60012" d="m115.7 248.1c5.3-2.9 7.3-3.4 8.2-6.3 2-6.6 7.3-11.5 13.2-13.9q1.9 1.7 4 3.4c14 11.5 30.8 19.7 49.2 24.2-4.6 2.9-10.5 5.7-16.4 6.8-4.1 0.8-8.8 1.2-13.3 1.2-4 0-7.9-0.3-11.5-0.9-6.8-1.1-14.9-3.9-19.9-5.2-4.4-1.1-12.3-2.8-21.5-3 0 0 1.8-2.9 8-6.3z"/>
					<path fill="#ffffff" d="m11 96.8c-0.7-1.4-0.9-2.9-0.9-4.4 0-2.6 0.9-4.9 2.3-7 0.6-0.8 1.3-1.6 2-2.3 0.4-0.4 1.7-2 2.3-1.7q3.6 2 6.6 1.4c1.4-0.3 2.6-1.7 2.7-3.1 0-0.7-0.9-1.5-1.7-2.1l-0.1-0.1c-5.6-4.4-7.9-7.1-7.1-14.2 0.8-6.6 8.4-12.2 11.3-13.7 1.9-1.1 2.8-3.4 2.2-5.5-2.7-8.7-2.4-16 1-21.4 2.9-4.8 7.7-7.6 11.2-9q0.1-0.1 0.3 0 0.1 0.1 0.2 0.2c0.5 3.6 2.7 9.8 10.7 12.4 5.1 1.7 11.6 6.2 13.6 12.1 1.5 4.7 0.4 9.9-3.5 15.6l-0.2 0.3c-1.5 2.1-3 4.3-1.9 5 1 0.7 5.5 0.2 8.3-1.3 0.1 0 0.3 0 0.4 0.1 2.7 1.9 7.5 6.4 8 11.3 0.4 3.6-1.1 7.2-4.2 10.9q-1.7 1.9-1.5 2.9 0.2 0.6 1.3 1.1c0.9 0.4 4.9 0.2 6.9-1.1 0 0 0.2 0 0.3 0 2.9 1.3 5.1 3.7 5.1 7.1 0.1 2.1-0.6 3.7-1.6 5.3-2.4 3.5-6.9 5.7-10.7 7.2-6.7 2.6-15.2 4.4-24 5.1-10.8 0.8-21.3-0.3-28.8-2.8-5.1-1.8-8.8-4.7-10.5-8.3z"/>
					<path fill="#fac02c" d="m19 115c6.8 2.2 15.1 3.3 24.1 3.3q3.9 0 7.9-0.3c9.9-0.7 19.3-2.7 27-5.8q2.1-0.8 4.3-1.8l-12.4 91.2c-4.8 3.6-10.5 4.9-17.2 4-3.6-0.6-6.7-1.7-8.4-2.4z"/>
					<path fill="#ffffff" d="m49.1 295.6c-8.4-6.5-13.4-13.5-14.9-20.8-1.4-6.2-0.7-14.9 5.5-18.9 1.4-1 3.3-1.6 5.2-1.8q0.3 0 0.5-0.1c7.1 15.5 5.5 32.4 3.7 41.6z"/>
					<path fill="#fac02c" d="m43.8 218.3c-0.2-1.7 0.2-3.4 1-5 3.2 1 7.4 2 12 2 4.6 0 9.6-0.9 14.4-3.5 0.8 1.3 1.3 2.8 1.5 4.4 0.2 3.1-1 6.1-3.4 8.5-2.6 2.5-6.3 4.1-10.2 4.4-8 0.6-14.9-4.2-15.3-10.8z"/>
					<path fill="#fac02c" d="m80.3 476.8c-0.9 1-2 1.6-3.3 1.7-1.3 0-2.5-0.4-3.5-1.2-1-0.8-1.6-2-1.7-3.3l-12.9-180.3c1.4-9.6 2-23.7-2.7-37.7l-1.3-17.7q1.4 0.2 2.9 0.2 1 0 1.9-0.1 2.5-0.2 4.8-0.8l17 235.7c0 1.2-0.4 2.5-1.2 3.5z"/>
					<path fill="#e60012" d="m119.7 450.1c-8.6-2-18.5-4.2-28.6-6.8q-1.7-0.4-3.4-0.9l-3.5-49q2.3 7.2 5.6 14.2c7.2 15.6 17.6 29.5 30.8 41.5q0.9 0.9 1.9 1.7-1.3-0.4-2.8-0.7z"/>
					<path fill="#ffffff" d="m221.3 474.8c-72.1 0-130.8-53.2-130.8-118.6 0-18.8 4.8-36.9 14.1-53.6 0.4-0.6 0.4-1.6 0-2.1-0.3-0.5-1-0.7-1.7-0.6-1.6 0.2-3.8 1.9-5.7 3.4-4.3 3.6-7 7.7-9.6 11.7-3.2-0.5-6.6-1.7-9.2-2.7l-3.4-48.1c6.1 2.1 12 2.7 17.1 2.7 8.1 0 13.9-1.6 14.3-1.7q0.1-0.1 0.2-0.1h0.9c6.1 0.1 12.5 1 19.1 2.7 1.4 0.4 3.3 1 5.3 1.6 4.6 1.3 10.3 3 15.4 3.8q6.3 1.1 13.3 1.1c5.3 0 10.6-0.5 15.3-1.4 10-1.9 19.7-7.4 25.4-12l3.4-2.7c6.1 0.8 12.3 1.2 18.5 1.2q10.5 0 20.6-1.5l4.5 3.6c9.8 7.5 27.1 15.5 43.8 16.3 2.4 0.1 4.9 0.1 7.5 0.1 12.6 0 25.8-1.2 37-2.4h0.8c7.3 4.4 25.8 19 36.7 45.6 12.4 30.3 5.2 50.6-11.7 54.9 0-0.5 0.1-1 0.2-1.5 1.6-11.2 2-23.3-1-34.5q-0.5-1.9-1.1-3.7c-1.3-3.7-2.8-7.2-4.8-10.5-1.3-2.1-4.9-8.4-8.1-7-1.3 0.6-1.3 2.3-0.9 3.4 3.6 11 5.4 22.5 5.4 34.1 0 65.3-58.7 118.5-130.8 118.5z"/>
					<path fill="#e60012" d="m374.9 432.9c-4.6 4.2-12.5 7.7-23.3 10.4-10.2 2.6-20 4.8-28.7 6.8q-1.4 0.3-2.8 0.7 1-0.9 1.9-1.7c13.2-12 23.6-25.9 30.8-41.5 3-6.4 5.4-13.1 7.2-19.9q0.8-0.1 1.6-0.2c3.5-0.6 6.8-1.6 9.9-3 2.2 7.3 5.6 18.4 7.6 26.6l0.1 0.3c1.9 7.3 3.6 14.3-4.3 21.5z"/>
					<path fill="#0b318f" d="m63.6 199.7c2.6-1.5 4.9-3 7.1-4.6l1.3-9.6q-6.4-2.1-11.9-4.4c5.6-3.5 10.2-6.9 13.9-10.1l1.1-7.6q-0.7 0.6-1.3 1.2c-5.5-1.8-10.6-3.8-15.2-5.9 5.2-3.6 9.6-7.1 13.2-10.4q2.4 1.2 5 2.3l0.7-5c-0.7-0.3-1.4-0.6-2-0.9 0.9-0.9 1.7-1.8 2.5-2.7l1.3-9.3c-2 2.7-4.7 6-8.5 9.7-5.4-2.7-10.3-5.5-14.6-8.2 4.5-4 8.2-7.9 11.2-11.3 3.4 2.1 7.5 4.4 12.3 6.6l0.7-5.1c-3.7-1.7-7-3.6-9.8-5.3 1.7-2.1 3.1-4.1 4.2-5.7-2.4 0.8-5 1.6-7.7 2.2q-0.3 0.4-0.7 0.8-0.4-0.2-0.7-0.5-3.2 0.7-6.6 1.2c1.1 0.8 2.4 1.9 4.2 3-3.1 3.5-6.8 7.3-11.4 11.2-5-3.4-9.2-6.7-12.8-9.8q2.1-1.8 3.7-3.2-3.6 0-7-0.3-0.1 0.1-0.3 0.3c-0.1-0.1-0.2-0.2-0.3-0.3-2.7-0.3-5.4-0.6-7.9-1 1.2 1.3 2.7 2.8 4.4 4.4-2.7 2.2-5.8 4.4-9 6.4l1.4 4.8c4.1-2.4 7.9-5.2 11.2-7.9 3.5 3.1 7.8 6.5 12.8 9.9-4.1 3.3-8.6 6.7-13.7 9.9-3.5-2.6-6.5-5-9-7.3l2.5 8.6q0.9 0.8 2 1.6-0.7 0.3-1.4 0.7l1.4 4.8q2.2-1.2 4.2-2.4c4.2 2.9 9.1 5.9 14.7 8.8-4.4 2.7-9.2 5.4-14.7 8q0 0-0.1-0.1l2.1 7.2c3.8 2.3 8.3 4.8 13.3 7.3q-4.5 2.4-9.8 4.8l2.9 10.1c2.9 1.4 6 2.7 9.3 4.1q-3 1.5-6.2 2.9c1.8 0.7 4.3 1.5 7.2 1.9q0.1 0 0.1 0c1.8-0.8 3.5-1.7 5.1-2.6q2.8 1 5.7 1.9c2.3-0.7 4.4-1.8 6.3-3.3-2.3-0.5-4.4-1.1-6.4-1.8zm-25-52.1c5.1-3.3 9.7-6.7 13.7-10.1q6.5 4.3 14.7 8.5c-3.7 3.3-8.2 6.8-13.6 10.3-5.6-2.8-10.5-5.8-14.8-8.7zm0.2 22.8q8.3-4.2 15-8.5c4.7 2.3 10 4.5 15.7 6.5-4 3.3-8.9 6.8-14.9 10.3-6.1-2.7-11.4-5.6-15.8-8.3zm18.6 27.3c-5.8-2.2-11-4.5-15.6-6.9 4.8-2.1 9.2-4.3 13.1-6.6 4.5 2 9.4 3.9 14.8 5.7-3.6 2.5-7.6 5.1-12.3 7.8z"/>
					<path fill="#0b318f" d="m251.3 151.8c6.9 3.1 12.9 4.1 17.9 4.3q0.1 0 0.3 0c1.5-4.2 2-9.5 1.7-13.3l-6-3.6 5.6-4.7c-0.4-4.3-1.8-8.5-3.7-11.6 2.7 1.6 5 4.2 6.6 7.5 0.5 1.2 2 1.6 3.1 0.9 0.9-0.6 1.2-1.7 0.8-2.7-3.2-7.5-9.3-12.7-16.2-12.7-2 0-4 0.5-5.8 1.3q-1.7 0.5-3.3 1.7c-5.1 3.8-8.7 10.9-9.4 19.2q0 0.4-0.1 0.9 0 0.3 0 0.6 0 0.8 0 1.6 0 4.1 0.8 7.6c2 0.6 4.6 1.6 7.7 3z"/>
					<path fill="#e60012" d="m187.7 180.5c-1.1-2.4-2.4-4.6-4-6.6-2.8-3.5-6.8-5.9-11.4-5.8-3.8 0-7.4 2.2-9.5 5.7-2.4 4-2.2 9.2-0.5 13.5 1.8 5 5.9 8.8 10.5 11.1 5 2.6 10.9 3.9 16.5 4 6.5 0.3 12.3-1.3 12.4-1.2-4.5-3.3-7.5-7.5-10.1-12.4-1.4-2.6-2.5-5.5-3.9-8.3z"/>
					<path fill="#0b318f" d="m275.3 186.3q0 0 0-0.1c-1.5-1.5-4-1.3-5.3 0.3-9 10.9-24.4 18.1-41.9 18.1-12.5 0-23.9-3.7-32.6-9.7 1.7 2.3 3.7 4.5 6.2 6.3-0.1-0.1-3.6 0.8-8.1 1.1 9.6 6 21.6 9.6 34.5 9.6 19.6 0 37-8.2 47.4-20.8 1.2-1.4 1.1-3.5-0.2-4.8z"/>
				</g>
			</g>
		</g>
	</g>
</svg>
