<svg viewBox="0 0 210 43.079525" xmlns="http://www.w3.org/2000/svg" width="210" height="43.079525"> <g transform="matrix(1.25,0,0,-1.25,-35.4325,898.59753)"><g style="fill:#33af2e;fill-opacity:1" transform="matrix(0.8725718,0,0,0.8725718,3.6120799,150.03887)"><g id="g3063" clip-path="url(#clipPath3065)" style="fill:#33af2e;fill-opacity:1"><g transform="translate(43.773,612.8589)" style="fill:#33af2e;fill-opacity:1"><path d="m 0,0 0,14.503 c 0,1.394 0.241,2.822 0.76,3.942 3.187,8.052 15.93,7.825 18.941,-0.018 0.459,-1.199 0.746,-2.492 0.746,-3.924 l 0,-14.503 -8.61,0 0,13.047 c 0,1.323 0.031,2.85 -1.704,2.85 -1.034,0 -1.518,-0.848 -1.518,-2.426 L 8.615,0 0,0 z" style="fill:#33af2e;fill-opacity:1;fill-rule:evenodd;stroke:none" /></g><g transform="translate(66.3316,641.4816)" style="fill:#33af2e;fill-opacity:1"><path d="m 0,0 9.098,0 0,-4.885 5.372,0 0,-5.916 -5.372,0 0,-7.008 c 0,-1.789 1.002,-2.789 2.977,-2.789 l 2.395,0 0,-8.015 -5.191,0 c -1.854,0 -3.364,0.276 -4.488,0.703 -1.122,0.423 -2.125,1.279 -2.973,2.246 -0.549,0.848 -1.122,1.82 -1.397,2.944 C 0.147,-21.595 0,-20.598 0,-19.782 L 0,0 z" style="fill:#33af2e;fill-opacity:1;fill-rule:evenodd;stroke:none" /></g><path d="m 108.668,646.068 9.099,0 0,-33.204 -9.099,0 0,33.204 z" style="fill:#33af2e;fill-opacity:1;fill-rule:evenodd;stroke:none" /><g transform="translate(175.1592,629.201)" style="fill:#33af2e;fill-opacity:1"><path d="m 0,0 c 2.081,0 3.771,-1.69 3.771,-3.767 0,-2.086 -1.69,-3.772 -3.771,-3.772 -2.085,0 -3.774,1.686 -3.774,3.772 C -3.774,-1.69 -2.085,0 0,0 m 0.042,8.421 c 6.86,0 12.472,-5.305 12.472,-12.192 l -0.034,-12.535 -8.98,0.036 0,3.426 -1.698,-3.426 c -7.337,-0.821 -13.92,5.098 -13.92,12.499 0,6.858 5.576,12.192 12.16,12.192" style="fill:#33af2e;fill-opacity:1;fill-rule:evenodd;stroke:none" /></g><g transform="translate(146.1905,612.8589)" style="fill:#33af2e;fill-opacity:1"><path d="m 0,0 8.586,0 0,11.65 0,1.79 c 0,2.699 2.702,4.462 4.617,2.308 l 5.069,4.935 c -1.822,2.452 -4.454,3.75 -7.045,4.033 C 9.11,24.959 7.031,24.513 5.463,23.672 3.331,22.537 1.622,20.704 0.694,18.445 -0.349,16.2 0,12.472 0,9.683 L 0,0 z" style="fill:#33af2e;fill-opacity:1;fill-rule:evenodd;stroke:none" /></g><g transform="translate(189.47,612.9868)" style="fill:#33af2e;fill-opacity:1"><path d="M 0,0 0,8.34 C 12.5,8.068 -1.633,25.51 22.242,24.818 l 0,-8.62 C 7.62,17.08 21.027,-1.884 0,0" style="fill:#33af2e;fill-opacity:1;fill-rule:evenodd;stroke:none" /></g><g transform="translate(132.0735,628.7607)" style="fill:#33af2e;fill-opacity:1"><path d="m 0,0 c 2.08,0 3.77,-1.685 3.77,-3.772 0,-2.079 -1.69,-3.766 -3.77,-3.766 -2.086,0 -3.772,1.687 -3.772,3.766 C -3.772,-1.685 -2.086,0 0,0 m -3.402,3.689 1.699,4.886 C 3.48,9.652 9.39,6.779 11.41,1.78 c 0.543,-1.513 0.819,-3.219 0.819,-4.887 0,-1.972 -0.276,-3.793 -0.975,-5.486 -0.7,-1.552 -1.543,-2.792 -2.664,-3.916 -1.123,-1.117 -2.37,-1.973 -3.913,-2.515 -3.546,-1.436 -8.037,-1.11 -11.258,0.969 -1.976,1.276 -3.371,2.943 -4.336,5.189 -1.005,2.245 -1.553,4.758 -1.553,7.584 l 0,18.593 9.101,0 -0.033,-13.622 z" style="fill:#33af2e;fill-opacity:1;fill-rule:evenodd;stroke:none" /></g><g transform="translate(106.7059,624.7346)" style="fill:#33af2e;fill-opacity:1"><path d="m 0,0 -16.96,-0.033 c 0.349,-2.844 3.061,-4.708 5.845,-3.75 0.411,0.141 0.774,0.375 1.177,0.656 0.186,0.124 0.372,0.247 0.471,0.398 l 7.379,-3.505 c -0.724,-1.233 -2.036,-2.582 -3.658,-3.62 -1.285,-0.828 -2.771,-1.441 -4.3,-1.758 -0.928,-0.19 -1.909,-0.342 -2.843,-0.254 -6.704,0.117 -12.34,5.773 -12.255,12.924 0.01,1.812 0.472,3.48 1.189,4.99 2.008,4.229 6.361,7.082 11.066,7.264 C -5.866,13.272 -0.341,8.06 0.041,1.058 0.041,0.755 0.03,0.389 0,0 m -16.797,3.005 c 0.037,0.102 0.068,0.198 0.106,0.298 0.521,1.747 2.055,3.008 3.869,3.008 1.331,0 2.529,-0.683 3.265,-1.741 L -9.54,4.538 -9.526,4.521 c 0.35,-0.495 0.583,-1.029 0.681,-1.516 l -0.016,0 -7.915,0 -0.021,0 z" style="fill:#33af2e;fill-opacity:1;fill-rule:evenodd;stroke:none" /></g><path d="m 32.565,637.244 9.099,0 0,-24.391 -9.099,0 0,24.391 z" style="fill:#33af2e;fill-opacity:1;fill-rule:evenodd;stroke:none" /><g transform="translate(37.1142,647.4811)" style="fill:#33af2e;fill-opacity:1"><path d="m 0,0 c 2.505,0 4.536,-2.031 4.536,-4.533 0,-2.505 -2.031,-4.535 -4.536,-4.535 -2.498,0 -4.532,2.03 -4.532,4.535 C -4.532,-2.031 -2.498,0 0,0" style="fill:#33af2e;fill-opacity:1;fill-rule:evenodd;stroke:none" /></g><g transform="translate(-63.5076,618.9644)" style="fill:#33af2e;fill-opacity:1"><path d="m 0,0 0.724,-0.654 c -1.578,-1.892 -3.121,-3.265 -4.655,-4.143 -2.026,-1.167 -4.129,-1.753 -6.308,-1.753 -1.458,0 -2.755,0.317 -3.884,0.941 -1.132,0.62 -1.963,1.497 -2.498,2.63 -0.532,1.132 -0.8,2.284 -0.8,3.471 0,2.663 0.72,5.285 2.166,7.852 1.451,2.576 3.356,4.614 5.719,6.118 2.38,1.495 4.712,2.253 6.994,2.253 1.837,0 3.22,-0.405 4.146,-1.222 0.929,-0.807 1.387,-1.82 1.387,-3.02 0,-1.084 -0.349,-2.01 -1.054,-2.774 C 1.244,8.932 0.474,8.548 -0.398,8.548 c -0.747,0 -1.355,0.251 -1.863,0.735 -0.496,0.487 -0.742,1.066 -0.742,1.729 0,0.883 0.437,1.642 1.328,2.289 0.592,0.453 0.889,0.853 0.889,1.193 0,0.289 -0.115,0.533 -0.362,0.708 -0.324,0.256 -0.752,0.393 -1.266,0.393 -1.363,0 -2.647,-0.551 -3.852,-1.659 -1.593,-1.463 -2.809,-3.314 -3.651,-5.547 -0.847,-2.25 -1.268,-4.38 -1.268,-6.394 0,-1.586 0.43,-2.86 1.283,-3.809 0.871,-0.945 1.892,-1.43 3.076,-1.43 1.05,0 2.168,0.28 3.374,0.813 C -2.237,-1.897 -1.089,-1.087 0,0 m 19.803,16.715 c 1.284,0 2.489,-0.298 3.623,-0.893 1.12,-0.589 1.976,-1.417 2.547,-2.464 0.581,-1.054 0.864,-2.23 0.864,-3.514 0,-2.633 -0.737,-5.26 -2.199,-7.893 -1.476,-2.637 -3.405,-4.698 -5.811,-6.221 -2.406,-1.519 -4.824,-2.28 -7.261,-2.28 -2.205,0 -3.915,0.662 -5.12,1.974 -1.215,1.31 -1.828,2.924 -1.828,4.818 0,2.267 0.459,4.377 1.36,6.352 0.891,1.976 2.047,3.698 3.43,5.162 1.389,1.468 2.984,2.662 4.786,3.576 1.808,0.926 3.671,1.383 5.609,1.383 M 18.81,15.424 c -0.869,0 -1.585,-0.258 -2.147,-0.752 C 15.521,13.646 14.241,11.25 12.814,7.494 11.382,3.735 10.667,0.341 10.667,-2.675 c 0,-0.747 0.219,-1.367 0.68,-1.857 0.454,-0.482 0.988,-0.731 1.601,-0.731 0.643,0 1.201,0.199 1.691,0.594 0.716,0.585 1.591,1.892 2.63,3.938 1.038,2.033 1.892,4.279 2.556,6.732 0.667,2.468 1.003,4.722 1.003,6.77 0,0.845 -0.207,1.492 -0.62,1.959 -0.399,0.467 -0.868,0.694 -1.398,0.694 M 41.607,16.715 38.486,6.242 c 2.098,3.215 3.618,5.379 4.58,6.496 1.405,1.649 2.577,2.71 3.495,3.219 0.918,0.509 1.836,0.758 2.757,0.758 1.059,0 1.823,-0.313 2.298,-0.948 0.467,-0.633 0.71,-1.341 0.71,-2.094 0,-0.798 -0.23,-1.976 -0.656,-3.51 l -1.1,-3.921 c 2.107,3.246 3.627,5.404 4.559,6.477 1.427,1.661 2.664,2.774 3.724,3.364 0.727,0.419 1.514,0.632 2.337,0.632 0.863,0 1.577,-0.287 2.152,-0.862 0.581,-0.585 0.868,-1.336 0.868,-2.256 0,-1.038 -0.248,-2.388 -0.731,-4.039 L 60.77,0.469 c -0.399,-1.349 -0.603,-2.22 -0.603,-2.61 0,-0.129 0.053,-0.253 0.152,-0.369 0.114,-0.105 0.227,-0.165 0.358,-0.165 0.179,0 0.334,0.06 0.461,0.165 0.589,0.477 1.206,1.16 1.852,2.07 0.155,0.207 0.367,0.496 0.658,0.909 l 0.834,-0.544 c -1.125,-2.095 -2.354,-3.622 -3.697,-4.594 -1.336,-0.984 -2.576,-1.465 -3.709,-1.465 -0.992,0 -1.796,0.264 -2.391,0.815 -0.604,0.535 -0.899,1.178 -0.899,1.909 0,0.706 0.198,1.758 0.605,3.177 l 2.752,9.486 c 0.376,1.323 0.56,2.141 0.56,2.461 0,0.125 -0.055,0.233 -0.168,0.34 -0.113,0.099 -0.232,0.157 -0.337,0.157 -0.217,0 -0.43,-0.054 -0.635,-0.15 C 56.251,11.899 55.78,11.475 55.135,10.795 54.493,10.114 53.57,8.887 52.371,7.129 51.169,5.363 50.338,3.999 49.868,2.994 49.409,2.003 48.956,0.724 48.502,-0.848 l -1.489,-5.022 -6.161,0 4.55,15.906 c 0.241,0.869 0.366,1.458 0.366,1.777 0,0.127 -0.053,0.219 -0.153,0.319 -0.115,0.103 -0.22,0.148 -0.333,0.148 -0.595,0 -1.548,-0.786 -2.857,-2.362 -1.976,-2.442 -3.778,-5.366 -5.4,-8.794 l -1.979,-6.994 -6.204,0 4.575,15.666 c 0.458,1.54 0.681,2.637 0.681,3.285 0,0.266 -0.059,0.482 -0.194,0.673 -0.128,0.182 -0.343,0.333 -0.632,0.442 -0.289,0.096 -0.855,0.162 -1.68,0.162 l 0.247,0.921 8.307,1.436 1.461,0 z" style="fill:#33af2e;fill-opacity:1;fill-rule:nonzero;stroke:none" /></g><g transform="translate(-157.61,646.1309)" style="fill:#33af2e;fill-opacity:1"><path d="M 0,0 2.431,-22.706 18.139,0 29.718,0 29.423,-0.909 c -1.593,0 -2.801,-0.335 -3.635,-1.021 -0.83,-0.679 -1.53,-2.023 -2.121,-4.039 l -6.082,-21.144 c -0.389,-1.333 -0.587,-2.324 -0.587,-2.974 0,-0.602 0.243,-1.088 0.73,-1.45 0.488,-0.369 1.442,-0.569 2.871,-0.602 l -0.211,-0.898 -16.503,0 0.294,0.898 c 1.769,0 3.087,0.343 3.926,1.015 0.852,0.677 1.564,2.016 2.147,4.011 l 6.21,21.41 -18.904,-27.334 -1.002,0 -2.969,27.879 -6.31,-21.955 c -0.261,-0.901 -0.393,-1.639 -0.393,-2.245 0,-0.806 0.286,-1.462 0.842,-1.955 0.562,-0.501 1.52,-0.774 2.867,-0.826 l -0.247,-0.898 -10.913,0 0.214,0.898 c 1.317,0.052 2.33,0.325 3.032,0.831 1.227,0.908 2.123,2.301 2.683,4.195 l 7.126,24.406 c -0.679,0.747 -1.298,1.235 -1.84,1.463 -0.534,0.226 -1.452,0.335 -2.737,0.335 L -11.793,0 0,0 z m 49.371,-10.797 -4.724,-16.187 -0.489,-1.987 c -0.044,-0.236 -0.072,-0.417 -0.072,-0.532 0,-0.195 0.072,-0.364 0.202,-0.514 0.146,-0.137 0.287,-0.214 0.427,-0.214 0.342,0 0.819,0.259 1.414,0.779 0.251,0.206 0.83,0.957 1.758,2.237 l 0.859,-0.443 c -1.161,-2.096 -2.39,-3.642 -3.694,-4.608 -1.306,-0.97 -2.725,-1.45 -4.231,-1.45 -0.931,0 -1.633,0.241 -2.114,0.715 -0.498,0.481 -0.734,1.094 -0.734,1.822 0,0.628 0.257,1.809 0.779,3.521 l 0.582,1.982 c -1.884,-3.236 -3.692,-5.517 -5.432,-6.869 -1.006,-0.781 -2.074,-1.171 -3.21,-1.171 -1.493,0 -2.578,0.616 -3.245,1.84 -0.669,1.225 -1,2.613 -1,4.153 0,2.288 0.701,4.911 2.1,7.878 1.398,2.97 3.231,5.346 5.502,7.149 1.87,1.496 3.625,2.245 5.26,2.245 0.908,0 1.643,-0.268 2.199,-0.791 0.548,-0.535 0.958,-1.498 1.216,-2.894 l 0.876,3.007 5.771,0.332 z m -7.792,-4.624 c 0,1.313 -0.204,2.268 -0.616,2.853 -0.285,0.402 -0.687,0.603 -1.186,0.603 -0.505,0 -1.025,-0.241 -1.568,-0.731 -1.08,-1.009 -2.257,-3.045 -3.511,-6.126 -1.261,-3.078 -1.893,-5.731 -1.893,-7.974 0,-0.874 0.147,-1.484 0.428,-1.866 0.282,-0.378 0.598,-0.568 0.94,-0.568 0.733,0 1.469,0.419 2.217,1.254 1.069,1.214 2.043,2.686 2.892,4.417 1.535,3.056 2.297,5.767 2.297,8.138 m 11.098,3.503 8.514,1.467 c 1.534,-2.424 2.627,-5.094 3.266,-7.994 1.589,2.357 2.791,4.001 3.6,4.951 1.092,1.265 1.989,2.088 2.692,2.467 0.712,0.38 1.459,0.576 2.254,0.576 0.891,0 1.58,-0.244 2.051,-0.733 0.487,-0.489 0.725,-1.149 0.725,-1.969 0,-0.78 -0.238,-1.422 -0.725,-1.915 -0.471,-0.497 -1.069,-0.749 -1.781,-0.749 -0.517,0 -1.119,0.106 -1.789,0.281 -0.676,0.182 -1.138,0.288 -1.405,0.288 -0.68,0 -1.334,-0.252 -1.949,-0.731 -0.846,-0.663 -1.884,-2.091 -3.117,-4.265 1.38,-4.871 2.485,-7.842 3.309,-8.918 0.488,-0.626 0.984,-0.945 1.49,-0.945 0.426,0 0.794,0.096 1.098,0.319 0.47,0.336 1.192,1.184 2.167,2.547 l 0.878,-0.505 c -1.437,-2.311 -2.828,-3.935 -4.191,-4.876 -1.049,-0.731 -2.067,-1.094 -3.07,-1.094 -1.039,0 -1.907,0.234 -2.592,0.689 -0.695,0.468 -1.308,1.222 -1.842,2.271 -0.54,1.043 -1.168,2.725 -1.902,5.031 -1.899,-2.42 -3.389,-4.189 -4.465,-5.302 -1.085,-1.112 -1.976,-1.832 -2.697,-2.181 -0.714,-0.342 -1.48,-0.508 -2.285,-0.508 -0.851,0 -1.523,0.241 -2.013,0.729 -0.494,0.489 -0.735,1.124 -0.735,1.902 0,0.832 0.258,1.508 0.796,2.045 0.537,0.535 1.223,0.807 2.041,0.807 0.443,0 0.942,-0.127 1.487,-0.395 0.817,-0.386 1.398,-0.579 1.753,-0.579 0.481,0 0.893,0.099 1.268,0.29 0.493,0.241 1.11,0.772 1.857,1.586 0.458,0.499 1.283,1.568 2.513,3.206 -1.572,5.786 -2.781,9.252 -3.663,10.385 -0.552,0.727 -1.247,1.091 -2.092,1.091 -0.436,0 -0.979,-0.064 -1.604,-0.191 l 0.158,0.922 z" style="fill:#33af2e;fill-opacity:1;fill-rule:nonzero;stroke:none" /></g><g transform="translate(-208.9141,612.9067)" style="fill:#33af2e;fill-opacity:1"><path d="M 0,0 0,33.284 28.817,16.631 0,0 z" style="fill:#33af2e;fill-opacity:1;fill-rule:nonzero;stroke:none" /></g><path d="m 17.707,612.907 -2.19,0 0,43.201 2.19,0 0,-43.201 z" style="fill:#33af2e;fill-opacity:1;fill-rule:nonzero;stroke:none" /></g></g></g></svg>
