<svg xmlns:svg="http://www.w3.org/2000/svg" xmlns="http://www.w3.org/2000/svg" id="svg1440" version="1.1" width="1024" height="298" viewBox="-1.13618547 -1.13618547 138.03864094 40.14521994"> <defs id="defs1437" /> <path d="m 108.758,8.8284368 c 1.28,0.22934 2.54266,0.48534 3.77333,0.75334 V 33.087107 c 1.13067,-0.264 3.23333,-0.81333 4.63467,-1.228 v -21.16667 c 1.344,0.348 2.61333,0.69734 3.772,1.03067 V 7.1897768 c -3.65867,-1.27734 -7.588,-2.31734 -12.18,-3.27734 z M 0,18.874837 c 0,3.476 3.37333,6.732 9.26,9.524 V 9.4268368 C 3.37333,12.197507 0,15.430837 0,18.874837 m 135.76626,-6.6e-4 c 0,3.48266 -3.37866,6.73333 -9.26666,9.52933 V 9.4208368 c 5.888,2.7773402 9.26666,6.0106702 9.26666,9.4533402 m -108.82333,7.75626 c 0,1.45467 -0.87333,1.94 -1.91866,1.94 -0.81334,0 -2.06934,-0.296 -3.09334,-0.576 V 9.8531068 c 1.024,-0.27067 2.28,-0.56667 3.09334,-0.56667 1.04533,0 1.91866,0.48534 1.91866,1.9400002 z M 25.70827,4.5437768 c -1.644,0 -4.01467,0.48533 -8.30534,1.81066 V 31.502437 c 3.77334,1.14267 6.66134,1.81067 8.30534,1.81067 3.78933,0 5.924,-2.31733 5.924,-6.036 v -16.69733 c 0,-3.7186702 -2.13467,-6.0360002 -5.924,-6.0360002 m 37.992,13.0106602 c 0,1.584 -0.55467,2.388 -2.65734,2.39334 l -1.816,0.005 V 5.4168068 c 0.808,-0.0427 1.24,-0.0533 1.72534,-0.0533 2.27333,0 2.748,0.86133 2.748,2.47866 z M 61.2536,0.22110675 c -0.9,0 -4.18267,0.11333 -7.20133,0.29067 V 37.350437 c 1.024,0.0547 3.72,0.19467 5.17466,0.232 v -12.50933 l 2.02667,-0.005 c 5.42133,-0.016 7.67467,-2.44667 7.67467,-7.12533 V 7.0880768 c 0,-4.58134 -2.53334,-6.86667005 -7.67467,-6.86667005 M 101.7784,20.535137 96.0384,1.8058068 c -1.56267,-0.204 -3.44934,-0.41467 -4.904,-0.54933 V 36.607137 c 1.02266,-0.0973 3.632,-0.39333 4.98,-0.56533 l -0.41067,-20.832 6.07467,20.01733 c 1.29333,-0.204 3.18,-0.53333 4.42,-0.77066 V 3.3964768 c -1.29467,-0.25334 -3.644,-0.652 -4.776,-0.82534 z m -56.94187,9.04387 c 0,1.45467 -0.50133,2.37733 -2.31733,2.156 -1.784,-0.216 -2.264,-0.97067 -2.264,-2.69467 V 1.6710068 c -1.18533,0.12933 -3.82667,0.496 -4.95867,0.65867 V 30.009677 c 0,4.42 2.14534,6.14 7.22267,6.72133 4.64533,0.53333 7.49067,-1.816 7.49067,-6.72133 V 0.76567675 c -0.96934,0.0547 -4.14934,0.32400005 -5.17334,0.43200005 z m 37.3504,0.8408 c 0,1.45467 -0.48533,2.20933 -2.31733,2.264 -1.88667,0.0533 -2.39867,-0.75467 -2.39867,-2.264 V 7.4544768 c 0,-1.50934 0.512,-2.344 2.39867,-2.29067 1.832,0.0533 2.31733,0.836 2.31733,2.29067 z M 79.8696,0.01713675 c -4.79733,-0.232 -7.65333,1.88534005 -7.65333,6.73600005 V 30.850477 c 0,5.12133 2.58666,7.228 7.65333,7.00666 4.95867,-0.21466 7.54533,-2.10133 7.54533,-7.54533 V 7.3091368 c 0,-5.19066 -2.33866,-7.03866005 -7.54533,-7.29200005" style="fill:#e51e25;fill-opacity:1;fill-rule:nonzero;stroke:none;stroke-width:1.33333325" id="path274" /> <path d="m 133.01293,30.298307 h 0.56 l 0.82533,1.296 0.82534,-1.296 h 0.54133 v 2.73467 h -0.50533 v -1.944 l -0.844,1.30533 h -0.0533 l -0.84266,-1.30533 v 1.944 h -0.50667 z m -1.95333,0.47867 h -0.844 v -0.47867 h 2.21066 v 0.47867 h -0.84266 v 2.256 h -0.524 z" style="fill:#e51e25;fill-opacity:1;fill-rule:nonzero;stroke:none;stroke-width:1.33333325" id="path278" /> </svg>
