<svg width="200" height="171" viewBox="0 0 200 171" fill="none" xmlns="http://www.w3.org/2000/svg">
<path d="M180.306 -0.562507C182.201 -0.517328 184.096 -0.476269 185.992 -0.43946C190.62 -0.340619 195.243 -0.185535 199.869 -6.79493e-06C198.562 2.75321 197.113 5.19633 195.322 7.66015C194.56 8.71202 194.56 8.71202 193.783 9.78515C193.233 10.5367 192.684 11.2882 192.119 12.0625C191.256 13.2497 191.256 13.2497 190.376 14.4609C185.648 20.9596 180.878 27.4272 176.102 33.8909C171.622 39.9599 167.198 46.0683 162.792 52.1909C156.554 60.8456 150.208 69.4195 143.869 78C156.079 78.33 168.289 78.66 180.869 79C179.32 82.8712 178.422 84.867 175.962 87.9336C175.389 88.6573 174.815 89.381 174.224 90.1267C173.612 90.8893 172.999 91.6518 172.369 92.4375C168.083 97.8585 163.846 103.286 159.869 108.937C151.296 121.101 142.382 133.02 133.432 144.908C128.682 151.227 123.998 157.595 119.324 163.971C118.757 164.742 118.19 165.514 117.607 166.309C117.102 166.998 116.597 167.686 116.077 168.396C114.869 170 114.869 170 113.869 171C110.839 171.089 107.832 171.115 104.802 171.098C103.893 171.096 102.985 171.095 102.049 171.093C99.1344 171.088 96.2202 171.075 93.306 171.062C91.3353 171.057 89.3646 171.053 87.3939 171.049C82.5521 171.038 77.7103 171.021 72.8685 171C74.2029 168.173 75.7062 165.704 77.5638 163.191C78.3781 162.087 78.3781 162.087 79.2088 160.96C79.7978 160.169 80.3867 159.378 80.9935 158.562C81.6095 157.731 82.2255 156.899 82.8602 156.042C88.8537 147.972 94.9524 139.983 101.056 131.996C111.152 118.781 121.017 105.398 130.869 92C118.329 91.67 105.789 91.34 92.8685 91C94.3416 88.0538 95.6439 85.7882 97.5638 83.1914C98.1065 82.4553 98.6492 81.7193 99.2084 80.9609C99.7975 80.1694 100.387 79.378 100.994 78.5625C101.611 77.7285 102.228 76.8944 102.865 76.0351C108.146 68.9228 113.518 61.8807 118.9 54.8445C125.671 45.9798 132.276 36.998 138.869 28C141.346 24.6234 143.825 21.2489 146.306 17.875C147.139 16.7388 147.139 16.7388 147.988 15.5796C149.068 14.1109 150.166 12.6559 151.284 11.2156C152.942 9.02452 152.942 9.02452 154.115 6.46606C159.606 -3.3809 170.471 -0.968721 180.306 -0.562507Z" fill="#00C28D"/>
<path d="M88.5443 -0.683601C89.932 -0.668744 89.932 -0.668744 91.3478 -0.653587C94.2938 -0.614496 97.2361 -0.526688 100.181 -0.437507C102.182 -0.402386 104.182 -0.370448 106.183 -0.341804C111.08 -0.264751 115.973 -0.144008 120.869 -6.79493e-06C116.982 5.99867 112.87 11.7129 108.431 17.3125C103.26 23.8947 98.1844 30.5392 93.181 37.25C88.5082 43.5111 83.7835 49.7186 78.9325 55.8425C73.669 62.4935 68.544 69.2498 63.4012 75.9941C61.1496 78.9408 58.8839 81.8765 56.6185 84.8125C51.9803 90.8346 47.4133 96.9073 42.8685 103C47.1418 108.775 51.5454 114.437 55.9967 120.075C56.8959 121.214 57.7901 122.358 58.6786 123.506C59.6721 124.753 60.7409 125.94 61.8255 127.109C62.8685 129 62.8685 129 62.4466 131.289C60.2565 135.051 57.5193 138.143 54.6185 141.375C53.4881 142.653 52.3579 143.932 51.2279 145.211C50.6742 145.833 50.1206 146.456 49.5501 147.097C46.9544 150.035 44.4122 153.017 41.8685 156C38.2945 152.509 34.9578 148.889 31.7435 145.062C31.2698 144.5 30.796 143.938 30.308 143.359C25.4955 137.613 20.8735 131.723 16.2743 125.806C13.8368 122.675 11.3832 119.557 8.931 116.437C8.48241 115.866 8.03382 115.294 7.57163 114.705C5.59743 112.191 3.62515 109.729 1.4896 107.348C-0.131496 105 -0.131496 105 0.125584 103.061C0.893882 100.93 1.76948 99.4734 3.13413 97.6719C3.60528 97.0454 4.07643 96.4189 4.56186 95.7734C5.07555 95.1057 5.58925 94.438 6.1185 93.75C6.91998 92.6943 6.91998 92.6943 7.73764 91.6172C12.0436 85.9828 16.506 80.4832 21.0079 75.0051C25.3006 69.7604 29.3787 64.3796 33.4149 58.9363C37.3322 53.6699 41.3947 48.5361 45.5138 43.4268C49.4682 38.5174 53.3246 33.5433 57.1537 28.5351C59.2301 25.823 61.3254 23.1262 63.4271 20.4336C64.0479 19.638 64.6688 18.8424 65.3084 18.0227C66.5245 16.4657 67.7415 14.9095 68.9598 13.3542C69.5239 12.6315 70.0881 11.9087 70.6693 11.1641C71.166 10.5294 71.6627 9.89465 72.1744 9.24072C73.8505 7.1404 73.8505 7.1404 74.8404 5.20634C78.3847 -0.864058 81.8394 -0.9549 88.5443 -0.683601Z" fill="#00C28D"/>
</svg>
