<svg version="1.2" xmlns="http://www.w3.org/2000/svg" viewBox="0 0 1590 1591" width="1590" height="1591">
	<title>Volaris</title>
	<g>
		<g>
			<g>
				<g>
					<g>
						<g>
							<path fill="#eeefef" d="m681.3 0h227v227.3h-227z"/>
							<path fill="#b5d5f0" d="m681.3 227.3h227v227.2h-227z"/>
							<path fill="#6cadde" d="m681.3 454.5h227v227.2h-227z"/>
							<path fill="#b5d5f0" d="m454.2 454.5h227.1v227.2h-227.1z"/>
							<path fill="#d6a6cc" d="m454.2 909h227.1v227.3h-227.1z"/>
							<path fill="#b5d5f0" d="m908.3 454.5h227v227.2h-227z"/>
							<path fill="#dae7a2" d="m908.3 909h227v227.3h-227z"/>
							<path fill="#231f20" d="m681.3 681.7h227v227.3h-227z"/>
							<path fill="#91268f" d="m681.3 909h227v227.3h-227z"/>
							<path fill="#d6a6cc" d="m681.3 1136.3h227v227.2h-227z"/>
							<path fill="#eeefef" d="m681.3 1363.5h227v227.2h-227z"/>
							<path fill="#eeefef" d="m0.2 681.7h227v227.3h-227z"/>
							<path fill="#d6a6cc" d="m227.2 681.7h227v227.3h-227z"/>
							<path fill="#91268f" d="m454.2 681.7h227.1v227.3h-227.1z"/>
							<path fill="#8dc63f" d="m908.3 681.7h227v227.3h-227z"/>
							<path fill="#dae7a2" d="m1135.3 681.7h227.1v227.3h-227.1z"/>
							<path fill="#eeefef" d="m1362.4 681.7h227v227.3h-227z"/>
						</g>
					</g>
				</g>
			</g>
		</g>
	</g>
</svg>