<svg version="1.2" xmlns="http://www.w3.org/2000/svg" viewBox="0 0 1623 394" width="1623" height="394">
	<title>volaris-logo-svg</title>
	<g>
		<g>
			<g>
				<g>
					<g>
						<g>
							<path fill-rule="evenodd" fill="#231f20" d="m1086.7 217c-8.4-8.2-21-14.4-33.9-14.4-8.9 0-20 5.1-20 15.2 0 26.8 91.1 6 91.1 68 0 42.9-42.8 55.4-79.9 55.4-25.4 0-51.2-6.1-69.5-24.2l31.4-31.3c10.3 10.2 24.6 17.3 40.7 17.3 12.1 0 24.6-4.4 24.6-13.4 0-29.1-91.1-5.7-91.1-68.4 0-39.5 36.4-56.8 72.8-56.8 22.8 0 48.2 5.5 64.2 22.1zm-660.6-142.1h53.6v262.2h-53.6zm272.4 262.1h-49.3v-22.2h-0.7c-8.2 12.2-28.9 26.4-53.2 26.4-51.3 0-85.2-36.1-85.2-87 0-46.9 29.9-89.9 79.2-89.9 22.1 0 42.8 5.9 54.9 22.2h0.7v-18h53.6zm-49.3-84.3c0-23.6-19.1-42.6-42.8-42.6-23.7 0-42.8 19-42.8 42.6 0 23.6 19.1 42.7 42.8 42.7 23.7 0 42.8-19.1 42.8-42.7zm91.4-84.2h53.6v27h0.7c11.4-20.5 26.4-31.2 49.9-31.2 6.1 0 12.9 0.3 17.9 1.7v47.6c-7.5-2.1-15-3.5-22.8-3.5-40.7 0-45.7 22.9-45.7 56.5v70.4h-53.6zm151.1 0h53.5v168.5h-53.5zm0-93.6h53.5v52.6h-53.5zm-591.6 266.3c-53.3 0-96.4-39.5-96.4-88.4 0-48.9 43.1-88.4 96.4-88.4 53.2 0 96.3 39.5 96.3 88.4 0 48.9-43.1 88.4-96.3 88.4zm42.8-88.4c0-23.6-19.2-42.6-42.8-42.6-23.7 0-42.9 19-42.9 42.6 0 23.6 19.2 42.7 42.9 42.7 23.6 0 42.8-19.1 42.8-42.7zm-341.9-84.3h57.9l43.9 114.5h0.7l40.6-114.5h53.9l-68.5 168.6h-56.7z"/>
						</g>
						<g>
							<path fill="#eeefef" d="m1397.9 0h56.1v56.2h-56.1z"/>
							<path fill="#b5d5f0" d="m1397.9 56.2h56.1v56.1h-56.1z"/>
							<path fill="#6cadde" d="m1397.9 112.3h56.1v56.2h-56.1z"/>
							<path fill="#b5d5f0" d="m1341.8 112.3h56.1v56.2h-56.1z"/>
							<path fill="#d6a6cc" d="m1341.8 224.7h56.1v56.2h-56.1z"/>
							<path fill="#b5d5f0" d="m1454 112.3h56.1v56.2h-56.1z"/>
							<path fill="#dae7a2" d="m1454 224.7h56.1v56.2h-56.1z"/>
							<path fill="#231f20" d="m1397.9 168.5h56.1v56.2h-56.1z"/>
							<path fill="#91268f" d="m1397.9 224.7h56.1v56.2h-56.1z"/>
							<path fill="#d6a6cc" d="m1397.9 280.9h56.1v56.1h-56.1z"/>
							<path fill="#eeefef" d="m1397.9 337h56.1v56.2h-56.1z"/>
							<path fill="#eeefef" d="m1229.5 168.5h56.2v56.2h-56.2z"/>
							<path fill="#d6a6cc" d="m1285.7 168.5h56.1v56.2h-56.1z"/>
							<path fill="#91268f" d="m1341.8 168.5h56.1v56.2h-56.1z"/>
							<path fill="#8dc63f" d="m1454 168.5h56.1v56.2h-56.1z"/>
							<path fill="#dae7a2" d="m1510.1 168.5h56.1v56.2h-56.1z"/>
							<path fill="#eeefef" d="m1566.2 168.5h56.2v56.2h-56.2z"/>
						</g>
					</g>
				</g>
			</g>
		</g>
	</g>
</svg>