<svg xmlns="http://www.w3.org/2000/svg" xmlns:xlink="http://www.w3.org/1999/xlink" version="1.1" id="Laag_1" x="0px" y="0px" viewBox="0 0 161 56" style="enable-background:new 0 0 161 56;" xml:space="preserve" width="161" height="56"> <style type="text/css"> .st0{fill-rule:evenodd;clip-rule:evenodd;fill:#1672F3;} </style> <path class="st0" d="M143.1,40.2c3.1,0,5.7,2.5,5.7,5.6v8.9c0,0.9-0.7,1.3-1.3,1.3c-0.7,0-1.3-0.4-1.3-1.3v-8.9c0-1.7-1.3-3-3-3 c-1.7,0-3,1.3-3,3v8.9c0,0.9-0.7,1.3-1.3,1.3c-0.7,0-1.3-0.4-1.3-1.3v-8.9C137.4,42.7,139.9,40.2,143.1,40.2z M156,40.2 c1.6,0,3.4,0.9,4.2,2.3c0.1,0.2,0.2,0.5,0.2,0.7c0,0.7-0.6,1.3-1.3,1.3c-0.4,0-0.7-0.2-1-0.6c-0.5-0.7-1.2-1.1-2.1-1.1 c-1.3,0-2,0.8-2,1.7c0,2.6,7,1.7,7,7c0,2.9-2.5,4.6-5.1,4.6c-1.5,0-3.4-0.7-4.2-2c-0.2-0.3-0.2-0.5-0.2-0.8c0-0.7,0.6-1.3,1.3-1.3 c0.3,0,0.7,0.2,1,0.6c0.6,0.7,1.4,0.9,2.2,0.9c1.8,0,2.6-1.1,2.6-2c0-3.2-7-2-7-7C151.5,41.6,153.9,40.2,156,40.2z M62.4,40.2 c1.6,0,3.4,0.9,4.2,2.3c0.1,0.2,0.2,0.5,0.2,0.7c0,0.7-0.6,1.3-1.3,1.3c-0.4,0-0.7-0.2-1-0.6c-0.5-0.7-1.2-1.1-2.1-1.1 c-1.4,0-2.1,0.8-2.1,1.7c0,2.6,7,1.7,7,7c0,2.9-2.5,4.6-5.1,4.6c-1.5,0-3.4-0.7-4.2-2c-0.2-0.3-0.2-0.5-0.2-0.8 c0-0.7,0.7-1.3,1.3-1.3c0.3,0,0.7,0.2,1,0.6c0.5,0.7,1.4,0.9,2.2,0.9c1.8,0,2.6-1.1,2.6-2c0-3.2-7-2-7-7 C57.8,41.6,60.2,40.2,62.4,40.2z M75.7,40.2c3.1,0,5.7,2.5,5.7,5.5v4.7c0,3-2.5,5.5-5.7,5.5c-3.1,0-5.7-2.5-5.7-5.5v-4.7 C70,42.7,72.5,40.2,75.7,40.2z M85.3,35c0.6,0,1.3,0.4,1.3,1.3v15c0,0.8,0.2,1.8,1,2.3c0.6,0.2,0.8,0.7,0.8,1.1 c0,0.7-0.5,1.3-1.2,1.3c-0.2,0-0.3-0.1-0.5-0.1c0,0-0.2-0.1-0.5-0.3c-1.5-0.9-2.1-2.7-2.1-4.4v-15C84,35.4,84.6,35,85.3,35z M100.2,40.2c0.7,0,1.3,0.4,1.3,1.3v8.9c0,3.1-2.5,5.6-5.7,5.6s-5.7-2.5-5.7-5.6v-8.9c0-0.9,0.7-1.3,1.3-1.3c0.7,0,1.3,0.4,1.3,1.3 v8.9c0,1.7,1.3,3,3,3c1.7,0,3-1.3,3-3v-8.9C98.9,40.7,99.5,40.2,100.2,40.2z M128.2,40.2c3.1,0,5.7,2.5,5.7,5.5v4.7 c0,3-2.5,5.5-5.7,5.5c-3.1,0-5.7-2.5-5.7-5.5v-4.7C122.5,42.7,125,40.2,128.2,40.2z M107.7,36.7c0.6,0,1.3,0.4,1.3,1.3v2.7h4.1 c0.9,0,1.3,0.6,1.3,1.3c0,0.6-0.4,1.3-1.3,1.3H109v8.7c0,0.8,0.6,1.5,1.9,1.5c1.2,0,1.7-0.9,2.5-0.9c0.9,0,1.3,0.7,1.3,1.4 c0,0.5-0.4,0.8-0.7,1.1c-0.9,0.6-2,1-3.1,1c-2.5,0-4.4-1.7-4.4-4.1v-8.7h-1.8c-0.9,0-1.3-0.6-1.3-1.3c0-0.6,0.4-1.3,1.3-1.3h1.8V38 C106.4,37.2,107,36.7,107.7,36.7z M118.1,40.8c0.7,0,1.3,0.4,1.3,1.3v12.7c0,0.8-0.7,1.3-1.3,1.3s-1.3-0.4-1.3-1.3V42 C116.8,41.2,117.5,40.8,118.1,40.8z M22.3,1.7c1-2.3,4.3-2.3,5.3,0l22,50.2c0.8,1.9-0.6,4.1-2.7,4.1c-1.2,0-2.2-0.7-2.7-1.8 L27.6,15.3c-1-2.4-4.4-2.3-5.4,0L10.9,42.5c-1,2.4,1.3,4.7,3.7,3.8l8.8-3.9c1.1-0.4,2.3-0.2,3.1,0.7l0.1,0.1c1.5,1.5,0.9,4-1.1,4.7 c0,0-20,7.5-20.8,7.8c-0.8,0.3-2,0.2-2,0.2c-2.1,0-3.5-2.1-2.7-4.1L22.3,1.7z M128.2,42.8c-1.7,0-3,1.3-3,2.9v4.7 c0,1.6,1.3,2.9,3,2.9c1.7,0,3-1.3,3-2.9v-4.7C131.2,44.1,129.9,42.8,128.2,42.8z M75.7,42.8c-1.7,0-3,1.3-3,2.9v4.7 c0,1.6,1.3,2.9,3,2.9c1.7,0,3-1.3,3-2.9v-4.7C78.7,44.1,77.4,42.8,75.7,42.8z M118.1,35c1,0,1.8,0.8,1.8,1.7c0,0.9-0.8,1.7-1.8,1.7 c-1,0-1.8-0.8-1.8-1.7C116.4,35.8,117.2,35,118.1,35z M62.2,16.6c3.2,0,5.2,2,5.2,4.9v5.9c0,3-2.5,4.9-5.2,4.9 c-2.7,0-5.3-1.6-5.3-4.6c0-2.8,2.4-4.2,4.9-4.7l3-0.6v-0.8c0-1.4-0.8-2.4-2.6-2.4c-1.9,0-2.1,1.6-3.4,1.6c-0.7,0-1.3-0.5-1.3-1.3 c0-0.4,0.2-0.8,0.5-1.1C59,17.2,60.6,16.6,62.2,16.6z M80.9,16.6c0.7,0,1.3,0.5,1.3,1.3c0,0.2,0,0.3-0.1,0.5l-4.8,12.9 c-0.3,0.7-0.7,1-1.2,1c-0.5,0-0.9-0.3-1.2-1l-4.8-12.9C70,18.2,70,18,70,17.9c0-0.8,0.7-1.3,1.3-1.3c0.5,0,0.9,0.2,1.1,0.8l3.7,10 l3.6-10C80,16.9,80.5,16.6,80.9,16.6z M101.1,16.6c0.7,0,1.3,0.5,1.3,1.3c0,0.2,0,0.3-0.1,0.5l-4.8,12.9c-0.3,0.7-0.7,1-1.2,1 c-0.5,0-0.9-0.3-1.2-1l-4.8-12.9c-0.1-0.2-0.1-0.4-0.1-0.5c0-0.8,0.7-1.3,1.3-1.3c0.5,0,0.9,0.2,1.1,0.8l3.7,10l3.6-10 C100.1,16.9,100.6,16.6,101.1,16.6z M109.4,16.6c3.2,0,5.2,2,5.2,4.9v5.9c0,3-2.5,4.9-5.2,4.9c-2.7,0-5.3-1.6-5.3-4.6 c0-2.8,2.4-4.2,4.9-4.7l3-0.6v-0.8c0-1.4-0.8-2.4-2.6-2.4c-1.9,0-2.1,1.6-3.4,1.6c-0.7,0-1.3-0.5-1.3-1.3c0-0.4,0.2-0.8,0.5-1.1 C106.3,17.2,107.9,16.6,109.4,16.6z M85.7,16.3c0.7,0,1.3,0.4,1.3,1.3v12.7c0,0.8-0.7,1.3-1.3,1.3c-0.7,0-1.3-0.4-1.3-1.3V17.5 C84.4,16.7,85.1,16.3,85.7,16.3z M64.8,24.8L62,25.5c-1.7,0.4-2.6,1.3-2.6,2.3c0,1.2,0.9,2.1,2.6,2.1c1.6,0,2.7-1,2.7-2.4V24.8z M112,24.8l-2.7,0.6c-1.7,0.4-2.6,1.3-2.6,2.3c0,1.2,0.9,2.1,2.6,2.1c1.6,0,2.7-1,2.7-2.4V24.8z M85.7,10.5c1,0,1.8,0.8,1.8,1.7 c0,0.9-0.8,1.7-1.8,1.7c-1,0-1.7-0.8-1.7-1.7C84,11.3,84.8,10.5,85.7,10.5z"/> </svg>
