<svg xmlns="http://www.w3.org/2000/svg" viewBox="0 0 192 192"><title>Signalmelo</title><path fill="#618FFF" d="M27.69 96.96c-.12 9.95 2.45 20.72 7.83 30.63 2.55 4.7 5.92 9 9.33 13.14 2.08 2.52 5.04 2.12 7.11-.23 2.06-2.34 2.02-4.4-.43-7.35-8.37-10.07-12.88-21.67-13.43-34.78-.76-18.16 4.83-33.94 18.22-46.33 25.87-23.94 67.43-19.94 87.85 7 12.51 16.5 14.99 34.86 9.04 54.52-2.24 7.36-5.77 14.06-10.9 19.86-2.44 2.75-2.27 5.42.08 7.5 2.41 2.14 5.06 1.86 7.59-.86.87-.94 1.72-1.91 2.46-2.94 9.73-13.46 14.48-28.46 13.8-45.18-.81-19.94-8.62-36.59-23.7-49.31-14.2-11.99-30.97-17.05-49.44-16.09-37.66 1.96-65.63 31.49-65.43 70.41"/><path fill="#618FFF" d="M97.59 46.28c-28.77-.24-50.73 22.38-49.79 51.47.32 9.89 3.41 18.94 9.23 26.96.65.89 1.35 1.75 2.12 2.52 1.93 1.96 4.55 2.16 6.37.57 2.3-2 2.79-4.48.94-6.77-4.94-6.1-7.62-13.06-8.43-20.86-2.96-28.19 21.62-50.15 48.45-43.25 15.93 4.1 27.38 16.48 29.35 32.25 1.42 11.39-.83 21.96-8.11 31.11-1.2 1.51-2.43 2.98-1.45 5.2 1.89 4.26 5.88 5 8.81 1.37 7.48-9.26 11.02-20.09 11.13-31.89.25-26.91-21.42-48.44-48.62-48.68"/><path fill="#618FFF" d="M97.17 64.46c-16.11-.02-29.21 12.45-30.34 29.04-.45 6.65.86 12.97 4.45 18.68 1.18 1.88 2.78 2.62 4.86 1.45 2.22-1.25 2.7-3.14 1.81-5.56-1.21-3.34-2.76-6.69-3.18-10.16-1.16-9.33 2.03-17.16 9.9-22.35 7.4-4.88 15.42-5.5 23.24-.93 8.34 4.86 12.31 12.42 11.24 22.11-.42 3.82-2.1 7.52-3.42 11.19-1 2.81-.65 4.8 1.49 5.91 2.24 1.16 4.14.57 5.57-2.22 1.29-2.51 2.37-5.17 3.16-7.88 5.77-19.74-8.57-39.24-28.78-39.27"/><path fill="#618FFF" d="M112.93 94.52c0-8.89-7.13-16.1-15.93-16.1s-15.93 7.21-15.93 16.1c0 7.49 5.07 13.76 11.92 15.56-.04 13.31-.09 26.62-.13 39.94-.01 1.75-.07 3.5.11 5.23.29 2.74 3.23 4.51 5.38 2.99 1.07-.75 1.78-2.74 1.8-4.18.17-14.61.22-29.22.29-43.83 7.14-1.59 12.49-8.01 12.49-15.71"/></svg>
