<svg width="24" height="24" viewBox="0 0 24 24" fill="none" xmlns="http://www.w3.org/2000/svg">
<g clip-path="url(#clip0_177_21689)">
<rect width="24" height="24" fill="#DD344C"/>
<path d="M18.2148 7.29542L12.7158 4.31299C12.2666 4.06885 11.7324 4.06934 11.2852 4.3125L5.78516 7.29542C5.30078 7.55812 5 8.063 5 8.61378V15.3525C5 15.9033 5.30078 16.4082 5.78418 16.6704L11.2842 19.6587C11.5078 19.7803 11.7539 19.8413 12 19.8413C12.2461 19.8413 12.4922 19.7803 12.7158 19.6587L18.2158 16.6704C18.6992 16.4082 19 15.9033 19 15.3525V8.61378C19 8.063 18.6992 7.55812 18.2148 7.29542ZM6.26172 8.17432L11.7627 5.19092C11.8369 5.15088 11.918 5.13037 12 5.13037C12.082 5.13037 12.1631 5.15088 12.2383 5.19141L17.7383 8.17432C17.8994 8.26221 18 8.43018 18 8.61377V9.92719L12.5019 12.9087L12.5 10.2227C12.5 10.0464 12.4072 9.8833 12.2559 9.79346C12.1045 9.7041 11.917 9.69971 11.7617 9.78369L6 12.9087V8.61377C6 8.43018 6.10059 8.26221 6.26172 8.17432ZM17.7393 15.7915L12.2393 18.7798C12.0889 18.8608 11.9111 18.8608 11.7607 18.7798L6.26074 15.7915C6.09961 15.7041 6 15.5361 6 15.3525V14.0461L11.501 11.063L11.5029 13.749C11.5029 13.9253 11.5957 14.0884 11.7471 14.1782C11.8262 14.2251 11.9141 14.2485 12.0029 14.2485C12.085 14.2485 12.167 14.2285 12.2412 14.188L18 11.0646V15.3525C18 15.5361 17.9004 15.7041 17.7393 15.7915Z" fill="white"/>
</g>
<defs>
<clipPath id="clip0_177_21689">
<rect width="24" height="24" fill="white"/>
</clipPath>
</defs>
</svg>
