<svg width="40" height="40" viewBox="0 0 40 40" fill="none" xmlns="http://www.w3.org/2000/svg">
<g clip-path="url(#clip0_177_21686)">
<rect width="40" height="40" fill="#DD344C"/>
<path d="M30.667 12.0027L21.167 6.98857C20.4365 6.6038 19.5635 6.6038 18.833 6.98857L9.33301 12.0032C8.51074 12.4373 8 13.2845 8 14.2142V25.7581C8 26.6863 8.50977 27.5325 9.3291 27.9671L18.8281 32.9998C19.1943 33.1937 19.5967 33.2908 19.998 33.2908C20.4014 33.2908 20.8047 33.1932 21.1719 32.9979L30.6748 27.9441C31.4922 27.5091 32 26.6634 32 25.7371V14.2142C32 13.2845 31.4893 12.4373 30.667 12.0027ZM9.7998 12.8875L19.2998 7.87334C19.5186 7.75762 19.7598 7.69951 20 7.69951C20.2402 7.69951 20.4814 7.75762 20.7002 7.87334L30.2002 12.887C30.6934 13.1478 31 13.6565 31 14.2142V16.6518L20.5 22.1365V16.9617C20.5 16.7864 20.4082 16.6243 20.2588 16.5335C20.1074 16.4437 19.9209 16.4373 19.7676 16.5193L9 22.1808V14.2142C9 13.6566 9.30664 13.1478 9.7998 12.8875ZM30.2051 27.0613L20.7031 32.115C20.2617 32.3484 19.7354 32.3494 19.2959 32.116L9.79785 27.0833C9.30566 26.8226 9 26.3148 9 25.7581V23.31L19.5 17.7894V22.9617C19.5 23.1365 19.5918 23.2986 19.7412 23.3894C19.8203 23.4373 19.9102 23.4617 20 23.4617C20.0791 23.4617 20.1592 23.4427 20.2314 23.4051L31 17.7803V25.7371C31 26.2928 30.6953 26.8001 30.2051 27.0613Z" fill="white"/>
</g>
<defs>
<clipPath id="clip0_177_21686">
<rect width="40" height="40" fill="white"/>
</clipPath>
</defs>
</svg>
