<svg width="24" height="24" viewBox="0 0 24 24" fill="none" xmlns="http://www.w3.org/2000/svg">
<g clip-path="url(#clip0_175_84)">
<rect width="24" height="24" fill="#E7157B"/>
<path d="M18 13V12C17.8799 11.0044 17.2568 10.0693 16.292 9.49316C15.7529 9.17041 15.1328 9 14.5 9C14.3131 9 14.1333 9.02679 13.9543 9.05518C13.9776 8.87244 14 8.68927 14 8.5C14 8.29065 13.966 8.09052 13.9382 7.88867C14.1121 7.95929 14.3011 8 14.5 8C15.3271 8 16 7.32715 16 6.5C16 5.67285 15.3271 5 14.5 5C13.8961 5 13.3776 5.3606 13.1401 5.87616C12.9337 5.59076 12.6907 5.33801 12.4247 5.10828C12.8739 4.44049 13.6361 4 14.5 4C15.8789 4 17 5.12158 17 6.5C17 7.22638 16.6836 7.87567 16.1873 8.33282C16.3998 8.41876 16.6077 8.51654 16.8057 8.63476C18.0381 9.37158 18.8369 10.5771 18.9971 11.9419L19 13H18ZM9.22327 17H4.5C4.22363 17 4 16.7764 4 16.5C4 14.1679 5.46167 12.1753 7.51465 11.3767C6.60156 10.7444 6 9.69214 6 8.5C6 6.57031 7.57031 5 9.5 5C11.4297 5 13 6.57031 13 8.5C13 9.6933 12.3975 10.7467 11.4828 11.3788C11.7704 11.49 12.0521 11.6167 12.3184 11.7759C13.3741 12.4069 14.1705 13.3739 14.6115 14.4904L14.5605 14.4395C14.2094 14.0874 13.7247 13.9675 13.2631 14.0417C12.8941 13.4758 12.3997 12.9897 11.8047 12.6343C11.1113 12.2192 10.3135 12 9.5 12C7.18748 12 5.27734 13.7529 5.02734 16H10.4733L9.22327 17ZM9.5 11C10.8789 11 12 9.87842 12 8.5C12 7.12158 10.8789 6 9.5 6C8.12109 6 7 7.12158 7 8.5C7 9.87842 8.12109 11 9.5 11ZM19.5 14H17V15H18.0002L15.5469 16.8398L13.8535 15.1465C13.6748 14.9658 13.3857 14.9507 13.1875 15.1094L8.18747 19.1094L8.81247 19.8906L13.4629 16.1699L15.1465 17.8535C15.3223 18.0308 15.6025 18.0493 15.7998 17.8999L19 15.4998V17H20V14.5C20 14.2236 19.7764 14 19.5 14Z" fill="white"/>
</g>
<defs>
<clipPath id="clip0_175_84">
<rect width="24" height="24" fill="white"/>
</clipPath>
</defs>
</svg>
