<svg width="40" height="40" viewBox="0 0 40 40" fill="none" xmlns="http://www.w3.org/2000/svg">
<g clip-path="url(#clip0_175_81)">
<rect width="40" height="40" fill="#E7157B"/>
<path d="M30 21.5V22H29V21.5C29 17.916 26.085 15 22.501 15C22.2669 15 22.0361 15.0138 21.8084 15.038C21.8947 14.6844 21.9518 14.3205 21.9774 13.9471C22.1492 13.9732 22.3211 14 22.5 14C24.4297 14 26 12.4297 26 10.5C26 8.57031 24.4297 7 22.5 7C21.3177 7 20.2747 7.59308 19.6407 8.49353C19.3846 8.28137 19.1084 8.09418 18.8216 7.92267C19.6364 6.76343 20.9785 6 22.5 6C24.9815 6 27 8.01855 27 10.5C27 12.1454 26.1028 13.5723 24.7813 14.3571C27.8041 15.3248 30 18.1595 30 21.5ZM18.1733 28H6.5C6.22363 28 6 27.7764 6 27.5C6 23.1512 8.94073 19.4844 12.9355 18.3615C11.1918 17.4379 10 15.6065 10 13.5C10 10.4673 12.4678 8 15.501 8C18.5332 8 21 10.4673 21 13.5C21 15.6031 19.8125 17.4324 18.074 18.3574C18.8757 18.5826 19.6479 18.91 20.3672 19.3398C22.9084 20.8588 24.5856 23.5015 24.9275 26.4062L23.7607 25.2393C23.7309 25.2094 23.6917 25.1971 23.66 25.1702C23.0691 23.1193 21.7259 21.3174 19.8535 20.1982C18.543 19.4146 17.0371 19 15.5 19C10.9814 19 7.27439 22.5449 7.01463 27H19.4233L18.1733 28ZM15.501 18C17.9815 18 20 15.9815 20 13.5C20 11.0185 17.9815 9 15.501 9C13.0195 9 11 11.0185 11 13.5C11 15.9815 13.0195 18 15.501 18ZM33.5 24H29V25H32.0002L26.3467 29.2397L23.0537 25.9463C22.874 25.7661 22.5869 25.7505 22.3877 25.9092L13.3877 33.1094L14.0127 33.8906L22.6631 26.9697L25.9463 30.2534C26.1221 30.4297 26.4014 30.4492 26.5996 30.2998L33 25.4998V29H34V24.5C34 24.2236 33.7764 24 33.5 24Z" fill="white"/>
</g>
<defs>
<clipPath id="clip0_175_81">
<rect width="40" height="40" fill="white"/>
</clipPath>
</defs>
</svg>
