<svg version="1.1" id="Layer_1" xmlns="http://www.w3.org/2000/svg" xmlns:xlink="http://www.w3.org/1999/xlink" x="0px" y="0px" viewBox="0 0 162 48.7" style="enable-background:new 0 0 162 48.7;" xml:space="preserve">
 <style type="text/css">
  .st0{fill:#FFFFFF;}
 </style>
 <g>
  <path class="st0" d="M78,2.4L59.9,32.8c-2,3.1-2.9,6.3-3.1,9.4h-7.1c0.4-3.9,2-7.5,5.1-12.8L67.6,8.2c2.4-4.5,4.9-5.9,9.4-5.9H78z">
  </path>
  <path class="st0" d="M76.6,34.4c-1.4,1.2-3.9,3.1-6.1,3.1c-1.6,0-1.6-1.4-0.6-3.3C73.8,26.9,77.8,23,82.7,23h1L76.6,34.4z
		 M83.3,18.7c-9.2,0-14.9,5.3-19.8,17.1c-1.2,2.9-2,6.7,2.4,6.5c2.4,0,6.5-1.4,9.4-3.3c-0.2,1-0.4,2.4-0.2,3.1h6.5
		c0.2-2.6,1.2-5.7,3.3-9.4L92.9,19C89.6,18.9,86.4,18.7,83.3,18.7z">
  </path>
  <path class="st0" d="M143,34.4c-1.4,1.2-3.9,3.1-6.1,3.1c-1.6,0-1.6-1.4-0.6-3.3c3.9-7.3,7.9-11.2,12.8-11.2h1L143,34.4z
		 M149.6,18.7c-9.2,0-14.9,5.3-19.8,17.1c-1.2,2.9-2,6.7,2.4,6.5c2.4,0,6.5-1.4,9.4-3.3c-0.2,1-0.4,2.4-0.2,3.1h6.5
		c0.2-2.6,1.2-5.7,3.3-9.4l7.9-13.4C155.9,18.9,152.8,18.7,149.6,18.7z">
  </path>
  <path class="st0" d="M128.6,48.7h-2.2c-2.7,0-5.1-1.8-5.9-4.5L117.4,32l-6.1,10h-6.9l19.2-32.6c2.6-4.1,5.1-5.7,9.6-5.7h0.8
		l-12.8,21.6l9.6-6.7h7.7l-16.1,11.2L128.6,48.7z">
  </path>
  <path class="st0" d="M65.4,0.4c-6.5,0-9.8,1.8-16.1,6.3L27.7,22.2H13.7c-3.9,0-7.3,0.2-9.6,2.6l-3.5,3.3c0,0,10.4-0.4,20-0.8L0,42
		h8.8l21-15.1c4.1-0.2,6.9-0.2,6.9-0.2c4.9-0.2,7.7-4.5,7.7-4.5h-8.1L53.4,9.8L40.8,30.2c-2.7,4.7-3.9,8.1-4.5,11.6h7.3
		c0.2-3.1,1.4-6.3,3.1-9.4L64,3.5c1.2-2,2.2-3.5,2.2-3.5L65.4,0.4z">
  </path>
  <path class="st0" d="M99.6,25.3c0,0.6,0.2,1,1.4,1.8l2,1.4c2.2,1.4,2.9,3.5,2.7,5.3c-0.8,4.9-4.3,8.6-11.8,8.6
		c-3.3,0-4.7-0.2-8.6-0.8l2.9-4.9c2.7,0.4,4.3,0.8,6.3,0.8c2.7,0,3.9-1.4,4.1-2.4c0-0.6-0.2-1.4-1.6-2.4l-1.6-1.2
		c-2.6-1.8-3.1-3.1-2.7-5.5c0.6-4.3,5.5-7.5,12.4-7.5c2.2,0,4.5,0.2,7.1,0.4l-2.7,4.7c-1.8-0.2-4.5-0.2-6.3-0.2
		C101.1,23.6,99.8,24.4,99.6,25.3z">
  </path>
  <path class="st0" d="M158.5,35.2c2,0,3.5,1.6,3.5,3.7c0,2-1.6,3.7-3.5,3.7s-3.5-1.6-3.5-3.7C154.9,36.9,156.5,35.2,158.5,35.2z
		 M158.5,41.8c1.6,0,2.7-1.2,2.7-2.9c0-1.6-1.2-2.9-2.7-2.9c-1.6,0-2.7,1.2-2.7,2.9C155.7,40.5,156.9,41.8,158.5,41.8z M158.1,40.8
		h-0.8v-3.9h1.4c0.8,0,1.4,0.6,1.4,1.2c0,0.6-0.4,1-0.8,1.2l1,1.6h-1.2l-0.8-1.6h-0.4v1.6H158.1z M158.5,38.7c0.4,0,0.8-0.2,0.8-0.6
		s-0.2-0.6-0.8-0.6h-0.6v1.2H158.5z">
  </path>
 </g>
</svg>