<svg width="443.03168mm" height="109.63118mm" viewBox="0 0 1255.8383 310.76554" version="1.1" id="svg28" xmlns="http://www.w3.org/2000/svg" xmlns:svg="http://www.w3.org/2000/svg"> <defs id="defs3"> <style id="style1">.h{fill:none;}.i{fill:#fff;}.j{fill:#7dc6dd;}.k{fill:#36697f;}.l{fill:#37a5cc;}.m{clip-path:url(#f);}.n{clip-path:url(#e);}.o{clip-path:url(#g);}</style> </defs> <g id="g29" transform="scale(4)"> <g id="a"> <g id="g8" /> </g> <g id="b"> <g id="c"> <path id="polygon8" d="m 297.1374,16.3181 8.6945,9.5767 h 8.1276 L 302.2407,13.4514 313.9595,0.693 h -7.6549 l -9.1672,10.2382 V 0.693 h -6.4264 l 0.0314,25.2018 h 6.395 z" /> <path d="m 280.3467,11.0572 -5.8594,-0.6616 c -3.4337,-0.378 -4.2842,-1.2286 -4.2842,-2.3941 0,-1.2916 1.7641,-2.4572 5.1978,-2.4572 3.3077,0 5.0403,1.2287 5.3554,3.0872 h 6.3004 C 286.7417,3.3077 282.2684,0 275.7475,0 c -7.7496,0 -11.6557,3.0872 -11.6557,8.537 0,4.4419 2.5831,6.521 7.9385,7.088 l 5.9539,0.63 c 2.2682,0.252 3.3077,1.1341 3.3077,2.2682 0,1.2916 -1.512,2.4571 -5.1663,2.4571 -4.2213,0 -5.9224,-1.071 -6.2059,-3.2132 h -6.1744 c 0.2834,5.7963 4.0637,8.7576 12.1598,8.7576 7.4029,0 11.5297,-3.2447 11.5297,-8.1276 0,-4.2528 -2.4571,-6.8044 -7.088,-7.34 z" id="path9" /> <path id="polygon9" d="M 247.0491,10.3956 V 6.1428 h 13.8608 V 0.693 h -20.2873 v 25.2018 h 20.2873 V 20.4449 H 247.0491 V 15.877 h 11.1517 v -5.4814 z" /> <path d="m 225.5016,0.693 h -11.7818 v 25.2018 h 11.7818 c 9.0411,0 11.5297,-3.3707 11.5297,-12.7899 0,-8.852 -2.3941,-12.4118 -11.5297,-12.4118 z m -0.252,19.7519 h -5.1033 V 6.1428 h 5.1033 c 4.0323,0 5.2294,1.1027 5.2294,6.962 0,5.3555 -1.3546,7.3401 -5.2294,7.3401 z" id="path10" /> <path d="m 196.2676,0 c -9.1671,0 -13.9239,5.6389 -13.9239,13.2309 0,7.6234 4.7568,13.2939 13.9239,13.2939 9.1986,0 13.9555,-5.6704 13.9555,-13.2939 C 210.2231,5.6389 205.4663,0 196.2676,0 Z m 0,20.8544 c -4.7568,0 -7.3715,-2.8981 -7.3715,-7.6234 0,-4.6308 2.6147,-7.5606 7.3715,-7.5606 4.7884,0 7.3715,2.9298 7.3715,7.5606 0,4.7253 -2.5831,7.6234 -7.3715,7.6234 z" id="path11" /> <path id="polygon11" d="m 158.6541,0.693 v 5.4498 h 8.1276 v 19.752 h 6.4263 V 6.1428 h 8.0961 V 0.693 Z" /> <path d="m 149.298,16.2552 c 0,3.2761 -2.0162,4.5993 -5.45,4.5993 -3.3392,0 -5.5128,-1.3861 -5.5128,-4.5993 V 0.693 h -6.4265 v 16.2867 c 0,7.2769 6.4895,9.5451 11.9393,9.5451 5.4184,0 11.8763,-2.2682 11.8763,-9.5451 V 0.693 h -6.4264 v 15.5622 z" id="path12" /> <path d="m 113.102,0.693 -9.6711,25.2018 h 6.647 l 1.6881,-4.7253 h 10.7958 l 1.6605,4.7253 h 6.8675 L 121.2927,0.693 h -8.1906 z m 0.5772,15.1211 3.5294,-9.8794 3.4715,9.8794 z" id="path13" /> </g> </g> <g id="d"> <g clip-path="#e" id="g28"> <g id="g13" /> <g id="g14" /> <g id="g15" /> <g id="g16" /> <g id="g17" /> <g id="g18" /> <g id="g19" /> <g id="g20" /> <g id="g21" /> <g clip-path="#f" id="g22"> <path d="m 13.6308,0.7255 0.02,-0.0339 64.1293,14.1717 h 6.6615 V 77.6914 H 11.9881 c -2.513,0 -4.5502,-2.0372 -4.5502,-4.5502 v -6.1561 z" fill="#36697f" id="path21" style="fill:#705a01;fill-opacity:1" /> <path d="M 78.2288,63.6907 H 13.6308 V 0.7255 l 0.0199,-0.0379 h 60.0279 c 2.513,0 4.5502,2.0372 4.5502,4.5502 z" fill="#37a5cc" id="path22" style="fill:#dbae03;fill-opacity:1" /> <path id="polygon22" style="fill:#eacd5d;fill-opacity:1" d="M 0,8.913 V 71.9161 L 13.6507,63.6907 V 0.6876 Z" /> </g> <g clip-path="#g" id="g23" /> <g id="g24" /> <g id="g25" /> <g id="g26" /> <g id="g27" /> </g> </g> </g> <path d="m 200.47358,81.768122 v 93.762868 h 18.79312 v 26.31251 h -73.92302 v -26.31251 h 18.58597 V 81.768122 H 145.34368 V 55.663679 h 73.92302 v 26.104443 z" fill="#ffffff" id="path16" style="stroke-width:4.18649" /> <g id="g1" transform="matrix(4.1038904,0,0,4.1038904,-1931.4134,-436.1761)"> <path d="m 579.275,146.74223 v 18.21292 h 3.24001 v 3.4921 H 571.5001 v -3.4921 h 3.24 v -18.21292 h -3.24 v -3.49221 h 11.01461 v 3.49221 z" id="path1" style="stroke-width:1" /> <path d="m 602.47523,155.20024 v 13.24701 h -4.46341 v -12.88671 c 0,-2.41111 -1.1519,-3.38381 -2.9878,-3.38381 a 4.9888055,4.9888055 0 0 0 -4.1392,2.4121 v 13.85842 h -4.46331 v -19.14922 h 3.81541 l 0.2881,1.9795 a 6.9566077,6.9566077 0 0 1 5.6875,-2.4834 c 3.56351,-2e-4 6.26271,2.2674 6.26271,6.40611 z" id="path2" style="stroke-width:1" /> <path d="m 616.25644,168.44725 h -5.5068 l -6.22761,-19.14922 h 4.64361 l 4.4272,15.58602 4.42731,-15.58602 h 4.4639 z" id="path3-8" style="stroke-width:1" /> <path d="m 640.33947,160.27634 h -12.34621 c 0.0718,3.6709 1.7637,5.29111 5.0752,5.29111 a 9.980011,9.980011 0 0 0 5.11141,-1.58401 l 1.5839,2.66401 a 12.048013,12.048013 0 0 1 -6.98291,2.2676 c -5.8315,0 -9.14301,-3.8516 -9.14301,-9.03511 v -1.98 c 0,-5.18361 3.24001,-9.10651 8.56691,-9.10651 5.21921,0 8.27881,3.2393 8.27881,9.32231 a 17.97902,17.97902 0 0 1 -0.1441,2.1606 z m -3.8514,-3.0957 c 0,-3.31151 -1.4756,-5.11131 -4.24711,-5.11131 -2.7358,0 -4.1758,1.8 -4.2476,5.29101 h 8.49471 z" id="path4-8" style="stroke-width:1" /> <path d="m 659.99579,155.20024 v 13.24701 h -4.4634 v -12.88671 c 0,-2.41111 -1.1519,-3.38381 -2.98781,-3.38381 a 4.9900055,4.9900055 0 0 0 -4.14,2.4121 v 13.85842 h -4.46251 v -19.14922 h 3.81541 l 0.2876,1.9795 a 6.9566077,6.9566077 0 0 1 5.68751,-2.4834 c 3.5635,-2e-4 6.2632,2.2674 6.2632,6.40611 z" id="path5-2" style="stroke-width:1" /> <path d="m 674.73061,168.44725 a 12.937214,12.937214 0 0 1 -3.3476,0.4678 c -3.67141,0 -5.79541,-1.62 -5.79541,-5.22001 v -11.08571 h -2.9156 v -3.3113 h 3.024 l 0.3593,-4.71581 h 3.9961 v 4.71581 h 4.13921 v 3.3115 h -4.13921 v 10.83401 c 0,1.40431 0.7559,2.05181 2.33941,2.05181 a 9.971211,9.971211 0 0 0 1.8716,-0.18 z" id="path6-4" style="stroke-width:1" /> <path d="m 694.24143,157.86424 v 1.9438 c 0,5.36421 -3.1675,9.10741 -9.07081,9.10741 -5.86721,0 -8.96291,-3.7432 -8.96291,-9.10741 v -1.9438 c 0,-5.25491 3.0957,-9.07001 8.96291,-9.07001 5.90331,-3e-4 9.07081,3.8151 9.07081,9.07001 z m -13.57001,-0.0722 v 2.016 c 0,3.78 1.5478,5.76001 4.5,5.76001 2.9873,0 4.60741,-1.98001 4.60741,-5.76001 v -2.016 c 0,-3.67091 -1.62001,-5.61531 -4.60741,-5.61531 -2.9525,0 -4.5003,1.9444 -4.5003,5.61531 z" id="path7-5" style="stroke-width:1" /> <path d="m 709.28585,149.22563 -0.792,4.14 a 5.9309065,5.9309065 0 0 0 -1.15181,-0.1084 c -2.16,0 -3.9595,0.9356 -5.04,3.81541 v 11.37501 h -4.46291 v -19.14962 h 3.23931 l 0.72,3.0235 a 5.5326061,5.5326061 0 0 1 5.1836,-3.4561 6.9827077,6.9827077 0 0 1 2.30381,0.3602 z" id="path8-5" style="stroke-width:1" /> </g> </svg>
