<?xml version="1.0" encoding="UTF-8"?>
<svg id="Layer_1" data-name="Layer 1" xmlns="http://www.w3.org/2000/svg" viewBox="0 0 333.22 333.22">
  <defs>
    <style>
      .cls-1 {
        fill: #fff;
      }

      .cls-2 {
        fill: red;
      }

      .cls-3 {
        fill: #0090e2;
      }
    </style>
  </defs>
  <path class="cls-1" d="M208.51,5.92l-98.11,98.11-6.36,6.36L5.92,208.51c-7.9,7.9-7.9,20.74,0,28.64l90.16,90.16c7.9,7.9,20.74,7.9,28.64,0l98.11-98.11,6.36-6.36,98.11-98.11c7.9-7.9,7.9-20.74,0-28.64L237.15,5.92c-7.9-7.9-20.74-7.9-28.64,0Z"/>
  <path class="cls-2" d="M214.87,12.29l-98.11,98.11,106.07,106.07,98.11-98.11c4.39-4.39,4.39-11.52,0-15.91L230.78,12.29c-4.39-4.39-11.52-4.39-15.91,0ZM249.06,110.39c0,7.24-2.94,13.8-7.7,18.53-4.75,4.75-11.29,7.7-18.53,7.7-7.24,0-13.8-2.98-18.53-7.7s-7.7-11.29-7.7-18.53c0-7.24,2.94-13.77,7.67-18.53,4.75-4.75,11.29-7.7,18.56-7.7s13.77,2.94,18.53,7.7,7.7,11.29,7.7,18.53Z"/>
  <path class="cls-3" d="M12.29,214.87c-4.39,4.39-4.39,11.52,0,15.91l90.16,90.16c4.39,4.39,11.52,4.39,15.91,0l98.11-98.11-106.07-106.07L12.29,214.87ZM99.48,222.82c0,7.24-2.94,13.8-7.7,18.53-4.75,4.75-11.29,7.7-18.53,7.7-7.24,0-13.8-2.98-18.53-7.7-4.75-4.75-7.7-11.29-7.7-18.53,0-7.24,2.94-13.77,7.67-18.53,4.75-4.75,11.29-7.7,18.56-7.7,7.24,0,13.77,2.94,18.53,7.7,4.72,4.72,7.7,11.29,7.7,18.53ZM173.76,222.77c0,7.24-2.94,13.8-7.7,18.53-4.75,4.75-11.29,7.7-18.53,7.7-7.24,0-13.8-2.98-18.53-7.7s-7.7-11.29-7.7-18.53c0-7.24,2.94-13.77,7.67-18.53,4.75-4.75,11.29-7.7,18.56-7.7,7.24,0,13.77,2.94,18.53,7.7,4.72,4.72,7.7,11.29,7.7,18.53Z"/>
  <path class="cls-3" d="M147.9,313.49c-3.52,0-6.5,2.74-6.5,6.46s2.98,6.5,6.5,6.5,6.46-2.74,6.46-6.5-2.98-6.46-6.46-6.46ZM147.9,325.4c-2.96,0-5.26-2.29-5.26-5.45s2.29-5.41,5.26-5.41,5.22,2.32,5.22,5.41-2.29,5.45-5.22,5.45ZM150.85,318.36c0-1.47-.86-2.13-2.62-2.13h-2.83v7.48h1.14v-3.25h1.27l1.96,3.25h1.24l-2.1-3.28c1.1-.14,1.93-.72,1.93-2.06ZM146.54,319.51v-2.34h1.53c1.29,0,1.64.4,1.64,1.12,0,.82-.45,1.22-1.83,1.22h-1.34Z"/>
</svg>