<svg width="378" height="81" viewBox="0 0 378 81" fill="none" xmlns="http://www.w3.org/2000/svg"> <mask id="mask0_227_11006" style="mask-type:luminance" maskUnits="userSpaceOnUse" x="0" y="0" width="378" height="81"> <path d="M377.965 0.799805H0V80.7998H377.965V0.799805Z" fill="white"/> </mask> <g mask="url(#mask0_227_11006)"> <path d="M153.063 15.691V28.06C153.041 29.803 153.364 31.5331 154.013 33.151C154.662 34.7688 155.624 36.2426 156.844 37.4877C158.064 38.7327 159.518 39.7246 161.122 40.4062C162.727 41.0879 164.45 41.446 166.193 41.46H194.057V32.871H167.689C167.506 32.8784 167.324 32.848 167.154 32.7817C166.983 32.7153 166.828 32.6145 166.699 32.4855C166.569 32.3565 166.467 32.2021 166.4 32.032C166.333 31.8619 166.302 31.6798 166.308 31.497V12.256C166.301 12.0731 166.332 11.8907 166.399 11.7203C166.466 11.5499 166.568 11.3953 166.697 11.2661C166.827 11.137 166.982 11.0361 167.153 10.9698C167.324 10.9035 167.506 10.8733 167.689 10.881H194.058V2.29199L166.193 2.40399C162.69 2.42568 159.339 3.83752 156.877 6.32913C154.415 8.82074 153.043 12.1881 153.063 15.691Z" fill="#0052A3"/> <path d="M135.214 18.7818L149.61 2.17578H133.949L127.729 9.39178C127.344 9.79913 126.88 10.1236 126.365 10.3454C125.85 10.5671 125.296 10.6815 124.735 10.6815C124.174 10.6815 123.62 10.5671 123.105 10.3454C122.59 10.1236 122.126 9.79913 121.741 9.39178L115.526 2.17578H99.86L114.37 18.7818C114.759 19.1778 115.064 19.6473 115.27 20.163C115.475 20.6786 115.575 21.2299 115.564 21.7847C115.553 22.3395 115.432 22.8866 115.208 23.394C114.983 23.9014 114.66 24.3589 114.256 24.7398L99.975 41.4608H115.526L121.742 34.2448C122.548 33.473 123.62 33.0421 124.736 33.0421C125.852 33.0421 126.924 33.473 127.73 34.2448L134.06 41.4608H149.721L135.211 24.7408C134.803 24.3594 134.477 23.8981 134.255 23.3856C134.032 22.8732 133.917 22.3205 133.917 21.7618C133.917 21.2031 134.032 20.6504 134.255 20.1379C134.477 19.6255 134.803 19.1642 135.211 18.7828" fill="#0052A3"/> <path d="M0.828003 15.581V41.581L14.071 41.467V29.32C14.0505 28.9072 14.1169 28.4948 14.2661 28.1094C14.4153 27.724 14.6438 27.3742 14.9369 27.0828C15.2299 26.7915 15.581 26.565 15.9673 26.4181C16.3535 26.2711 16.7664 26.2071 17.179 26.23H39.864V19.47H15.338C15.0004 19.4231 14.6895 19.2605 14.4585 19.0099C14.2274 18.7593 14.0905 18.4363 14.071 18.096V12.254C14.0709 11.9078 14.2012 11.5742 14.436 11.3198C14.6708 11.0653 14.9929 10.9087 15.338 10.881H41.823V2.29199H13.149C6.354 2.29199 0.828003 8.24499 0.828003 15.581Z" fill="#0052A3"/> <path d="M83.167 2.29199H62.32C54.26 2.29199 47.696 8.36099 47.696 15.692V28.062C47.696 35.39 54.259 41.462 62.32 41.462H82.935C84.7119 41.513 86.4806 41.2017 88.1334 40.5473C89.7862 39.8928 91.2885 38.9089 92.5488 37.6553C93.8092 36.4017 94.8012 34.9047 95.4645 33.2554C96.1278 31.6061 96.4485 29.8391 96.407 28.062V15.581C96.407 8.36099 91.227 2.29199 83.167 2.29199ZM82.819 31.497C82.8127 31.6864 82.7686 31.8726 82.6894 32.0448C82.6102 32.217 82.4975 32.3717 82.3578 32.4998C82.2182 32.6279 82.0544 32.7269 81.876 32.791C81.6976 32.8551 81.5083 32.8829 81.319 32.873H62.436C62.0722 32.8681 61.7245 32.7217 61.4667 32.4649C61.2089 32.208 61.0612 31.8609 61.055 31.497V12.256C61.0481 12.0731 61.0791 11.8907 61.1462 11.7203C61.2132 11.5499 61.3148 11.3953 61.4445 11.2661C61.5742 11.137 61.7293 11.0361 61.9 10.9698C62.0706 10.9035 62.2531 10.8733 62.436 10.881H81.552C81.7261 10.8706 81.9005 10.8952 82.0649 10.9533C82.2293 11.0114 82.3804 11.1018 82.5093 11.2193C82.6382 11.3367 82.7423 11.4788 82.8154 11.6371C82.8885 11.7954 82.9292 11.9667 82.935 12.141L82.819 31.497Z" fill="#0052A3"/> <path d="M344.687 2.17578H309.452V41.3468H322.689V12.0278C322.712 11.6999 322.853 11.3915 323.086 11.1595C323.319 10.9275 323.628 10.7877 323.956 10.7658H343.422C343.756 10.7684 344.076 10.9021 344.312 11.1381C344.549 11.3741 344.684 11.6936 344.687 12.0278V41.3468H357.928V15.3468C357.928 8.24678 351.481 2.17578 344.687 2.17578Z" fill="#0052A3"/> <path d="M371.402 0.80081H371.056C370.545 0.77181 370.034 0.850162 369.556 1.03081C369.282 1.02003 369.008 1.05795 368.747 1.14281C368.574 1.17144 368.413 1.25239 368.287 1.37481C368.169 1.37481 368.169 1.37481 368.053 1.49081C366.882 2.01333 365.889 2.86553 365.195 3.9433C364.5 5.02108 364.135 6.27775 364.143 7.55981C364.133 8.87202 364.495 10.1602 365.187 11.2752C365.879 12.3901 366.873 13.2863 368.053 13.8598C368.169 13.8598 368.169 13.9718 368.287 13.9718C368.422 14.0641 368.585 14.1053 368.747 14.0878C368.982 14.2018 369.437 14.2018 369.556 14.3158C370.05 14.408 370.553 14.4469 371.056 14.4318H371.402C372.285 14.4148 373.156 14.2232 373.965 13.8681C374.774 13.5129 375.504 13.0011 376.114 12.3623C376.724 11.7235 377.202 10.9703 377.52 10.146C377.837 9.32179 377.989 8.44282 377.965 7.55981C377.952 5.80489 377.262 4.12271 376.04 2.86364C374.817 1.60456 373.156 0.865654 371.402 0.80081ZM375.434 12.0238C375.313 11.8984 375.232 11.7396 375.202 11.5678C375.202 11.3378 374.976 11.1118 374.976 10.6498V9.50681C375 9.30206 374.981 9.09463 374.921 8.89746C374.861 8.70028 374.761 8.5176 374.627 8.36081C374.444 8.04907 374.163 7.80704 373.827 7.67281C374.259 7.54177 374.628 7.2572 374.864 6.87281C375.012 6.67878 375.118 6.45667 375.177 6.22007C375.236 5.98348 375.246 5.73737 375.206 5.49681C375.215 5.02396 375.091 4.55812 374.847 4.15296C374.603 3.74781 374.249 3.41983 373.827 3.20681C373.301 3.06554 372.759 2.98831 372.214 2.97681H367.834V12.2548H368.989V8.36081H371.981C372.555 8.36081 372.895 8.36081 373.015 8.47481C373.255 8.58781 373.458 8.76622 373.6 8.98949C373.743 9.21276 373.82 9.4718 373.822 9.73681V12.0248C373.83 12.1135 373.871 12.1961 373.936 12.2568H375.201C374.136 13.1638 372.798 13.6877 371.401 13.7448C371.292 13.8013 371.176 13.8405 371.055 13.8608C370.544 13.8898 370.033 13.8115 369.555 13.6308C369.276 13.5927 369.003 13.5152 368.746 13.4008C368.628 13.2868 368.402 13.2868 368.286 13.1708C368.168 13.1708 368.168 13.0568 368.052 13.0568C367.062 12.5243 366.238 11.7293 365.67 10.759C365.102 9.78882 364.812 8.68089 364.832 7.55681C364.829 6.46661 365.128 5.39685 365.696 4.4666C366.265 3.53636 367.08 2.78211 368.052 2.28781C368.168 2.17381 368.168 2.17381 368.286 2.17381C368.412 2.05139 368.573 1.97044 368.746 1.94181C368.981 1.82981 369.436 1.82981 369.555 1.71381C370.05 1.62459 370.552 1.58706 371.055 1.60181H371.401C372.977 1.6243 374.482 2.25781 375.6 3.36875C376.717 4.4797 377.36 5.98126 377.392 7.55681C377.352 9.24547 376.647 10.85 375.43 12.0218M373.359 6.87081C372.942 7.11718 372.462 7.23607 371.978 7.21281H368.986V4.12181H372.206C372.552 4.12181 373.011 4.12181 373.127 4.35181C373.357 4.43362 373.551 4.59247 373.677 4.80138C373.803 5.01029 373.853 5.25637 373.818 5.49781C373.818 6.29781 373.818 6.75781 373.358 6.87381" fill="#0052A3"/> <path d="M289.869 2.29199H254.631V41.461H267.989V12.142C267.993 11.8077 268.127 11.4882 268.364 11.2523C268.601 11.0164 268.921 10.8831 269.255 10.881H288.723C289.038 10.9089 289.33 11.0542 289.543 11.288C289.755 11.5219 289.872 11.8271 289.869 12.143V41.461H303.226V15.461C303.226 8.36099 296.78 2.29199 289.869 2.29199Z" fill="#0052A3"/> <path d="M235.169 2.29182H214.326C206.38 2.29182 199.818 8.24681 199.818 15.5768V28.0618C199.818 35.3898 206.38 41.3468 214.326 41.3468L224.001 41.4608H234.943C236.726 41.5132 238.5 41.2038 240.16 40.5513C241.82 39.8988 243.33 38.9168 244.6 37.6644C245.87 36.4121 246.872 34.9155 247.548 33.2649C248.223 31.6143 248.557 29.844 248.529 28.0608V15.5808C248.582 13.8152 248.273 12.0575 247.619 10.4164C246.966 8.77528 245.982 7.28578 244.73 6.04007C243.477 4.79436 241.983 3.81895 240.338 3.17422C238.694 2.52949 236.934 2.22916 235.169 2.29182ZM234.821 31.4968C234.824 31.6884 234.787 31.8786 234.712 32.0548C234.637 32.2311 234.525 32.3894 234.384 32.5193C234.243 32.6493 234.077 32.748 233.895 32.8089C233.713 32.8698 233.521 32.8916 233.33 32.8728H214.562C214.373 32.8826 214.183 32.8546 214.005 32.7905C213.827 32.7264 213.663 32.6274 213.524 32.4993C213.384 32.3712 213.271 32.2166 213.192 32.0445C213.113 31.8724 213.069 31.6862 213.062 31.4968V12.1398C213.072 11.9565 213.119 11.7771 213.201 11.6128C213.283 11.4485 213.398 11.3028 213.539 11.1847C213.679 11.0666 213.843 10.9786 214.019 10.9261C214.195 10.8737 214.38 10.8579 214.562 10.8798H233.442C233.806 10.8563 234.165 10.9741 234.445 11.2089C234.724 11.4436 234.902 11.7771 234.942 12.1398L234.821 31.4968Z" fill="#0052A3"/> <path d="M9.822 57.5986C9.56258 57.1735 9.28016 56.7629 8.976 56.3686L12.045 55.4326C12.4652 56.1283 12.837 56.852 13.158 57.5986H20.038C21.0102 57.6127 21.9825 57.5767 22.951 57.4906C22.8712 58.1026 22.8378 58.7196 22.851 59.3366V61.0746C22.8397 61.7095 22.8732 62.3444 22.951 62.9746H20.119V60.0336H2.832V62.9776H0C0.0755513 62.3388 0.108957 61.6958 0.1 61.0526V59.3366C0.107669 58.7197 0.0742616 58.1031 0 57.4906C0.968495 57.5767 1.94079 57.6128 2.913 57.5986H9.822ZM1.243 73.0136C1.26153 72.1015 1.22815 71.189 1.143 70.2806C1.882 70.3356 2.412 70.3616 3.815 70.3616H19.115C20.491 70.3616 21.046 70.3356 21.787 70.2806C21.7059 71.1892 21.6726 72.1015 21.687 73.0136V77.7136C21.6734 78.716 21.7255 79.7181 21.843 80.7136H18.9V79.6726H4.022V80.7186H1.109C1.20396 79.7215 1.24869 78.7202 1.243 77.7186V73.0136ZM19.192 67.5246C19.176 68.1598 19.2121 68.7953 19.3 69.4246C18.4893 69.3474 17.6753 69.311 16.861 69.3156H6.14C5.327 69.3103 4.51427 69.3467 3.705 69.4246C3.78444 68.7946 3.81786 68.1595 3.805 67.5246V65.9716C3.81342 65.3368 3.78002 64.7021 3.705 64.0716C4.51427 64.1488 5.32712 64.1822 6.14 64.1716H16.862C17.6762 64.1823 18.4904 64.1489 19.301 64.0716C19.2181 64.7014 19.182 65.3365 19.193 65.9716L19.192 67.5246ZM3.81 60.8906C4.47726 60.9744 5.14958 61.0112 5.822 61.0006H17.207C17.8781 61.0122 18.5492 60.9754 19.215 60.8906V63.2956C18.5486 63.2173 17.878 63.1809 17.207 63.1866H5.8C5.13638 63.1817 4.47309 63.2181 3.814 63.2956L3.81 60.8906ZM4.022 73.9246H9.872V72.6346H4.022V73.9246ZM4.022 77.4036H9.872V76.0136H4.022V77.4036ZM6.538 67.3656H16.465V66.1246H6.538V67.3656ZM12.575 73.9246H18.9V72.6346H12.575V73.9246ZM12.575 77.4036H18.9V76.0136H12.575V77.4036Z" fill="#0052A3"/> <path d="M75.945 63.8617C77.1751 63.8691 78.4045 63.8047 79.627 63.6687V66.9917C78.441 66.8562 77.2478 66.7924 76.054 66.8007H69.224V76.4117H74.837C75.9523 76.4443 77.0685 76.3888 78.175 76.2457V79.4857C77.0758 79.3508 75.9682 79.2966 74.861 79.3237H60.726C59.6118 79.3098 58.4977 79.3639 57.39 79.4857V76.2457C58.4877 76.3757 59.5929 76.4312 60.698 76.4117H66.02V66.7997H59.878C58.5875 66.7924 57.2976 66.8562 56.014 66.9907V63.6677C57.2969 63.8111 58.5873 63.8756 59.878 63.8607H66.02V59.2047C66.0275 58.1868 65.9748 57.1694 65.862 56.1577H69.384C69.2688 57.1786 69.2153 58.2054 69.224 59.2327V63.8617H75.945Z" fill="#0052A3"/> <path d="M132.869 64.9567C133.479 64.9745 134.089 64.941 134.693 64.8567V67.4187C134.072 67.3149 133.443 67.2707 132.814 67.2867H132.34V68.9987C132.313 69.6331 132.339 70.2686 132.417 70.8987C132.232 70.9058 132.047 70.8971 131.863 70.8727L133.636 72.1727C132.533 73.2661 131.338 74.2615 130.063 75.1477L130.298 75.3337C131.731 76.4358 133.308 77.3362 134.986 78.0097C134.288 78.781 133.675 79.6252 133.158 80.5277C129.158 78.3887 126.964 76.3527 125.245 73.2487C125.245 73.6757 125.245 73.6757 125.273 74.3997C125.297 74.5317 125.297 74.9877 125.297 75.2807V77.9307C125.297 79.9587 124.556 80.5517 121.91 80.5517C121.434 80.5517 120.904 80.5517 119.552 80.4987C119.471 79.5536 119.285 78.6204 118.997 77.7167C118.787 77.8247 118.76 77.8247 118.309 78.0657C117.647 78.3897 117.647 78.3897 116.43 78.9187C116.138 79.0287 115.821 79.1867 115.556 79.3187L114.281 76.6727C115.986 76.2642 117.639 75.6627 119.208 74.8797C118.348 73.8716 117.35 72.9893 116.245 72.2587L117.884 70.8387C117.264 70.8284 116.644 70.8642 116.03 70.9457V68.5097C116.67 68.6 117.317 68.6374 117.963 68.6217H122.619V67.2837H115.019C114.967 69.8509 114.719 72.4104 114.276 74.9397C113.97 76.949 113.308 78.8877 112.321 80.6647C111.675 79.7713 110.919 78.9632 110.07 78.2597C110.9 76.5522 111.427 74.7136 111.629 72.8257C112.186 68.9279 112.425 64.9913 112.344 61.0547C112.376 59.9258 112.334 58.7961 112.219 57.6727C113.344 57.7944 114.476 57.8405 115.608 57.8107H121.719C121.437 57.329 121.128 56.8642 120.792 56.4187L123.731 55.5337C124.212 56.254 124.628 57.0161 124.974 57.8107H131.436C132.472 57.8233 133.507 57.7679 134.536 57.6447V60.3727C133.763 60.2999 132.986 60.2665 132.21 60.2727H125.296V61.5247H130.219C130.953 61.5333 131.688 61.505 132.419 61.4397C132.368 62.0297 132.342 62.5187 132.342 63.4237V64.9497L132.869 64.9567ZM122.619 63.7527H118.148C117.493 63.7458 116.839 63.7815 116.189 63.8597V61.4247C116.829 61.5119 117.474 61.5476 118.12 61.5317H122.62V60.2787H115.129V60.9447C115.129 62.6037 115.129 62.6037 115.079 64.9577H122.619V63.7527ZM119.367 74.8307C120.505 74.2697 120.505 74.2697 122.622 73.1207V70.8417H118.281C119.27 71.4869 120.169 72.2603 120.955 73.1417L119.367 74.8307ZM122.622 75.7387C121.544 76.4145 120.431 77.0308 119.286 77.5847C120.056 77.7236 120.836 77.7948 121.618 77.7977C122.518 77.7977 122.618 77.7167 122.618 77.1577L122.622 75.7387ZM129.664 63.7527H125.296V64.9527H129.664V63.7527ZM125.296 68.6227H129.664V67.2837H125.296V68.6227ZM126.25 70.8427C126.789 71.7878 127.446 72.66 128.207 73.4377C129.329 72.7379 130.332 71.8616 131.175 70.8427H126.25Z" fill="#0052A3"/> <path d="M174.402 66.4267C175.788 67.4828 177.064 68.6755 178.212 69.9867L176.678 72.2867C175.981 71.2853 175.221 70.33 174.401 69.4267V77.4737C174.374 78.5734 174.427 79.6736 174.559 80.7657H171.435C171.551 79.6723 171.604 78.5731 171.593 77.4737V73.1457C171.593 72.4967 171.621 71.7797 171.755 69.7457C171.066 71.9312 169.982 73.9715 168.555 75.7647C168.192 74.7547 167.66 73.8134 166.983 72.9807C168.208 71.7051 169.221 70.2416 169.983 68.6457C170.489 67.6737 170.914 66.662 171.254 65.6207H169.876C169.096 65.601 168.316 65.6552 167.546 65.7827V62.8717C168.333 62.997 169.13 63.0485 169.926 63.0257H171.594V60.3517C170.483 60.5707 170.033 60.6197 168.494 60.8367C168.306 59.9289 167.965 59.0596 167.486 58.2657C171.775 57.8117 174.923 57.0357 176.515 55.9927L178.155 58.4537C178.006 58.4971 177.864 58.5607 177.732 58.6427C177.015 58.9367 175.639 59.3877 174.396 59.7347V63.0247H175.851C176.508 63.0465 177.165 63.0026 177.813 62.8937V65.7567C177.146 65.6518 176.472 65.6069 175.797 65.6227H174.397L174.402 66.4267ZM188.883 70.7337C189.736 70.5788 190.571 70.3365 191.375 70.0107L191.61 73.1457C190.763 73.2456 189.924 73.3979 189.096 73.6017L188.883 73.6517V77.6427C188.852 78.6973 188.906 79.7528 189.045 80.7987H185.84C185.981 79.7409 186.034 78.6733 186 77.6067V74.2937L180.042 75.6327C179.008 75.8737 178.137 76.1147 177.475 76.3007L177.131 73.1947H177.372C178.13 73.136 178.882 73.0122 179.619 72.8247L186 71.3777V59.2307C186.035 58.1927 185.981 57.1536 185.84 56.1247H189.045C188.907 57.1445 188.853 58.174 188.883 59.2027V70.7337ZM179.537 64.2857C181.329 65.508 183.003 66.8951 184.537 68.4287L182.867 70.8117C181.399 69.1262 179.707 67.6504 177.837 66.4257L179.537 64.2857ZM180.437 57.5957C182.309 58.7778 184.026 60.1887 185.548 61.7957L183.748 64.2007C182.303 62.4933 180.616 61.0069 178.74 59.7887L180.437 57.5957Z" fill="#0052A3"/> <path d="M225.628 58.7758C225.638 57.8642 225.584 56.953 225.468 56.0488H228.62C228.491 56.9427 228.438 57.846 228.462 58.7488V60.9688H228.887C229.417 60.9748 229.947 60.9414 230.472 60.8688V63.6688C229.937 63.5954 229.397 63.5619 228.857 63.5688H228.457V67.6628C229.145 67.4178 229.513 67.2858 230.682 66.8338V69.4798C229.487 69.9618 228.745 70.2568 228.457 70.3648V77.9648C228.457 80.1068 227.767 80.6148 224.935 80.6148C224.299 80.6148 223.876 80.5868 223.079 80.5378C223.03 79.5808 222.816 78.6395 222.445 77.7558C223.163 77.8841 223.89 77.9544 224.619 77.9658C225.487 77.9658 225.619 77.8658 225.619 77.1398V71.4058C224.506 71.8058 224.506 71.8058 224.398 71.8618C223.998 71.9718 223.998 71.9718 223.473 72.1508C223.21 72.2648 223.131 72.2928 222.894 72.3968L222.309 69.4308C223.437 69.2761 224.546 69.0063 225.619 68.6258V63.5668H224.518C223.837 63.5645 223.157 63.6076 222.482 63.6958V60.8118C223.164 60.9258 223.854 60.9794 224.545 60.9718H225.628V58.7758ZM241.883 65.6498C242.52 65.6649 243.158 65.6315 243.79 65.5498L245.19 67.0728C244.89 67.5855 244.617 68.1128 244.37 68.6528C243.313 70.8196 241.92 72.8057 240.243 74.5378C242.251 76.0275 244.511 77.1427 246.915 77.8298C246.197 78.6942 245.641 79.681 245.273 80.7428C242.669 79.7107 240.253 78.2555 238.123 76.4358C235.856 78.3202 233.251 79.7564 230.447 80.6678C230.09 79.6789 229.59 78.7477 228.963 77.9038C231.559 77.2375 233.998 76.0666 236.141 74.4578C234.528 72.6338 233.262 70.5298 232.406 68.2498C232.052 68.2551 231.699 68.2821 231.349 68.3308V65.4888C232.234 65.6043 233.126 65.6585 234.019 65.6508H236.535V62.2258H234.047C233.031 62.2202 232.015 62.2656 231.003 62.3618V59.4438C232.005 59.5471 233.012 59.5938 234.019 59.5838H236.535V58.7758C236.561 57.8731 236.509 56.9698 236.381 56.0758H239.528C239.422 56.9647 239.379 57.8599 239.397 58.7548V59.5858H243.075C244.084 59.5945 245.093 59.5391 246.095 59.4198V62.3858C245.092 62.2759 244.084 62.2225 243.075 62.2258H239.397V65.6498H241.883ZM235.318 68.2188C235.977 69.8926 236.956 71.4213 238.202 72.7188C239.587 71.4476 240.711 69.9192 241.512 68.2188H235.318Z" fill="#0052A3"/> <path d="M297.945 61.7749C298.786 61.7969 299.627 61.7514 300.461 61.6389V63.9139C299.627 63.8092 298.785 63.7735 297.945 63.8069H292.914V65.0389H297.945C298.786 65.0619 299.627 65.0177 300.461 64.9069V67.1779C299.626 67.0894 298.785 67.056 297.945 67.0779H292.914V68.2779H299.082C299.941 68.3026 300.801 68.2588 301.653 68.1469V70.6079C300.81 70.4954 299.959 70.45 299.108 70.4719H292.122V71.8869H299.643C300.65 71.9191 301.659 71.8743 302.659 71.7529V74.4529C301.66 74.3202 300.651 74.2673 299.643 74.2949H294.4C297.041 76.0197 300.017 77.1662 303.133 77.6589C302.75 78.1493 302.422 78.6797 302.153 79.2409C302.131 79.2919 302.019 79.5409 301.861 79.9089C301.813 80.0089 301.73 80.2089 301.627 80.4199C299.795 79.9628 298.018 79.308 296.327 78.4669C294.739 77.7134 293.288 76.6994 292.035 75.4669C292.094 76.2669 292.118 76.9379 292.118 77.2359V78.7869C292.085 79.4339 292.137 80.0824 292.272 80.7159H289.127C289.259 80.0917 289.312 79.4533 289.285 78.8159V77.2409C289.285 76.6249 289.316 76.1159 289.366 75.4719C287.995 76.8598 286.368 77.9689 284.575 78.7379C283.065 79.4488 281.487 80.0047 279.865 80.3969C279.482 79.4469 278.983 78.5476 278.381 77.7189C280.359 77.4295 282.285 76.8542 284.098 76.0109C285.126 75.5747 286.088 74.9986 286.958 74.2989H281.847C280.848 74.271 279.848 74.3238 278.857 74.4569V71.7569C279.849 71.8787 280.848 71.9235 281.847 71.8909H289.286V70.4659H284.049C283.017 70.4659 282.429 70.4969 281.798 70.5469C281.876 69.8373 281.909 69.1236 281.898 68.4099V65.0919C281.898 64.2349 281.924 63.5139 281.979 62.7599C281.267 63.6345 280.449 64.4178 279.544 65.0919C279.207 64.1564 278.742 63.272 278.163 62.4639C280.126 61.1076 281.779 59.3498 283.012 57.3069C283.357 56.7596 283.641 56.1761 283.858 55.5669L286.927 56.0729C286.497 56.8558 286.01 57.6067 285.472 58.3199H290.842C290.619 57.649 290.308 57.0103 289.919 56.4199L292.804 55.7519C293.293 56.5541 293.675 57.4163 293.942 58.3169H298.918C299.777 58.3395 300.637 58.294 301.489 58.1809V60.6709C300.759 60.5883 300.024 60.5549 299.289 60.5709H292.906V61.7709L297.945 61.7749ZM290.161 60.5749H284.661V61.7749H290.161V60.5749ZM284.661 65.0439H290.161V63.8069H284.661V65.0439ZM284.661 68.2769H290.161V67.0769H284.661V68.2769Z" fill="#0052A3"/> <path d="M335.258 80.6306C335.391 79.477 335.444 78.3155 335.416 77.1546V60.1666C335.419 59.0942 335.366 58.0225 335.258 56.9556C336.296 57.0686 337.34 57.1141 338.384 57.0916H354.904C355.939 57.1145 356.975 57.0691 358.004 56.9556C357.892 58.022 357.846 59.0944 357.866 60.1666V77.1866C357.845 78.3369 357.9 79.4874 358.03 80.6306H355.036V79.1616H338.274V80.6306H335.258ZM338.274 76.5696H355.011V59.6826H338.274V76.5696ZM342.114 65.6776C341.281 65.6751 340.448 65.7293 339.622 65.8396V62.8396C340.501 62.9516 341.388 62.9954 342.274 62.9706H347.727C347.756 62.0934 347.702 61.2154 347.565 60.3486H350.588C350.438 61.2139 350.382 62.0931 350.422 62.9706H351.301C352.187 62.9962 353.074 62.9537 353.953 62.8436V65.8436C353.128 65.733 352.296 65.6789 351.463 65.6816H350.481L350.505 72.6126C350.505 74.9936 349.819 75.6126 347.068 75.6126C346.316 75.615 345.565 75.5782 344.817 75.5026C344.736 74.7752 344.577 74.0587 344.342 73.3656C344.234 73.0656 344.21 72.9656 344.103 72.6176C344.953 72.818 345.823 72.916 346.696 72.9096C347.544 72.9096 347.73 72.7216 347.73 71.9216V66.8276C345.983 69.8526 344.048 71.7796 340.422 74.1616C339.976 73.2145 339.379 72.3462 338.655 71.5906C340.083 70.9317 341.417 70.0864 342.622 69.0766C343.813 68.1601 344.797 67.0012 345.507 65.6766L342.114 65.6776Z" fill="#0052A3"/> </g> </svg>
