<svg version="1.2" xmlns="http://www.w3.org/2000/svg" viewBox="0 0 1534 1225" width="1534" height="1225">
	<path fill="#E10600" d="m371.43 0.29c-204.03 0-371.15 163.76-371.15 367.45 0 131.55 29.19 280.09 234.69 359.72l1298.65 497.53v-245.02c0-104.93-100.58-133.61-100.58-133.61l-1011.1-356.19c-38.23-13.75-62.79-38.31-62.79-90.37 0.07-12.35 2.65-24.56 7.42-35.96 4.86-11.4 11.84-21.69 20.66-30.37 8.9-8.68 19.34-15.51 30.81-20.15 11.47-4.7 23.75-6.98 36.1-6.91h677.3c45.73 0 93.97 37.28 93.97 87.29v85.81h306.74v-479.22zm-371.22 918.5v306.12h303.58v-306.12z"/>
</svg>