<svg xmlns="http://www.w3.org/2000/svg" width="1826" height="186" viewBox="0 0 1826 186" fill="none">
<path d="M726.548 125.952C726.548 132.123 722.017 137.381 715.9 138.295C710.463 138.981 705.253 135.552 703.44 130.523L661.981 15.7722C658.81 6.62869 651.333 1.14258 642.271 1.14258H545.308V184.013H616.445V138.295H603.758C595.375 138.295 590.618 130.981 590.618 122.066V66.9759C590.618 53.4892 603.758 43.4314 615.991 48.6889C620.523 50.7462 624.374 54.8608 626.186 59.6611L659.263 146.525C667.872 169.383 689.394 184.013 713.635 184.013H714.994C746.258 184.013 771.859 158.868 771.859 127.095V1.14258H726.548V125.952Z" fill="#E10600"/>
<path d="M953.325 1.14258H817.395V47.0888H953.325C977.339 47.0888 998.409 68.3474 998.409 92.5778C998.409 116.808 977.339 138.067 953.325 138.067H817.395V184.013H953.325C987.534 184.013 1017.44 164.812 1032.84 136.695C1039.87 123.666 1043.95 108.579 1043.95 92.5778C1043.95 76.5766 1039.87 61.7184 1032.84 48.4603C1017.44 20.1154 987.761 1.14258 953.325 1.14258Z" fill="#E10600"/>
<path d="M1072.26 46.8602C1073.4 46.8602 1074.53 46.8602 1075.89 47.0888C1084.27 48.2317 1089.26 55.0893 1089.26 64.2329V184.013H1134.57V1.14258H1062.75V46.8602H1072.26Z" fill="#E10600"/>
<path d="M1406.43 147.439V184.013L1214.54 109.722C1184.18 97.8353 1179.88 75.6623 1179.88 56.0037C1179.88 25.6015 1204.57 1.14258 1234.7 1.14258H1406.2V72.6906H1360.89V59.8897C1360.89 52.3463 1353.87 46.8602 1347.07 46.8602H1246.94C1239.23 46.8602 1232.89 53.0321 1232.89 60.804C1232.89 68.576 1236.51 72.2334 1242.18 74.2907L1391.48 127.552C1391.48 127.552 1406.43 131.895 1406.43 147.439Z" fill="#E10600"/>
<path d="M1224.51 138.296H1179.65V184.013H1224.51V138.296Z" fill="#E10600"/>
<path d="M228.137 147.439V184.013L36.4748 109.722C6.11697 97.8353 1.8125 75.6623 1.8125 56.0037C1.8125 25.6015 26.5065 1.14258 56.6378 1.14258H228.137V72.6906H182.827V59.8897C182.827 52.3463 175.804 46.8602 169.007 46.8602H68.8716C61.1688 46.8602 54.8254 53.0321 54.8254 60.804C54.8254 68.576 58.4502 72.2334 64.114 74.2907L213.411 127.552C213.411 127.552 228.363 131.895 228.363 147.439H228.137Z" fill="#E10600"/>
<path d="M46.6696 138.295H1.8125V184.013H46.6696V138.295Z" fill="#E10600"/>
<path d="M1678.29 47.0888V1.14258H1638.42C1635.24 1.14258 1632.3 2.28552 1629.81 4.34281L1558.9 69.0332C1556.86 70.8619 1554.36 72.0049 1551.42 72.0049H1502.03C1499.09 72.0049 1496.59 69.4904 1496.59 66.5187V1.14258H1451.74V184.013H1496.59V118.408C1496.59 115.437 1499.09 112.922 1502.03 112.922H1551.42C1554.14 112.922 1556.63 113.836 1558.9 115.894L1629.81 180.584C1632.07 182.641 1635.24 183.784 1638.42 183.784H1678.29V138.067H1656.54C1649.74 138.067 1643.17 135.552 1637.96 131.209L1604.21 101.264C1599 96.6924 1599 88.4632 1604.21 83.6628L1637.96 53.7178C1643.17 49.3746 1649.74 47.0888 1656.54 46.8602H1678.29V47.0888Z" fill="#E10600"/>
<path d="M430.898 1.14258C410.735 1.59975 391.705 10.9719 379.245 26.973L255.095 184.013H318.076L420.477 56.6895C425.461 50.5176 429.312 47.3174 437.242 47.3174C445.171 47.3174 454.46 56.2323 454.46 66.7473V122.066C454.46 130.981 449.928 138.295 441.546 138.295H428.859V184.013H499.77V69.4904C499.77 60.1183 499.996 1.14258 430.898 1.14258Z" fill="#E10600"/>
<path d="M1824.19 1.14355V46.8612H1814.22V10.5157H1813.77L1800.85 46.8612H1792.02L1779.1 10.5157H1778.65V46.8612H1768.91V1.14355H1786.13L1796.78 32.0029H1797.23L1808.1 1.14355H1824.19Z" fill="#E10600"/>
<path d="M1747.39 9.8299V46.8612H1737.19V9.8299H1723.37V1.14355H1761.21V9.8299H1747.16H1747.39Z" fill="#E10600"/>
</svg>
