<svg xmlns="http://www.w3.org/2000/svg" width="1481" height="1287" viewBox="0 0 1481 1287"><path d="M1120 0c-115 0-161 30-229 93L747 251 607 93C543 30 496 0 378 0H208s263 327 297 365c59 64 93 94 174 94h140c76 0 114-30 174-94 33-34 296-365 296-365z" style="fill:#fcb813"/><path d="M1026 429c-80 17-127 34-169 106l-34 60-38 55c-43 68-30 114-5 199 17 47 170 438 170 438l81-144c59-98 59-158 34-247l-64-199 208-47c89-21 135-51 191-153l80-145c9 0-407 64-454 77" style="fill:#f37920"/><path d="m704 650-34-60-34-59c-42-68-89-89-169-106-47-13-467-77-467-77l81 145c59 97 106 127 191 153l216 46-64 208c-21 85-21 145 34 243l81 144 169-437c30-85 39-132-4-200" style="fill:#f6921e"/></svg>