<svg xmlns="http://www.w3.org/2000/svg" version="1.1" viewBox="0.48 4.5 1999.5 691.5"><path d="M 207.758 118 L 208.017 231 269 231 L 329.983 231 330.242 118 L 330.500 5 269 5 L 207.500 5 207.758 118 M 453 118 L 453 231 513.992 231 L 574.983 231 575.242 118 L 575.500 5 514.250 5 L 453 5 453 118 M 698 118.008 L 698 231.015 759.250 230.758 L 820.500 230.500 820.754 117.750 L 821.009 5 759.504 5 L 698 5 698 118.008 M 943.246 117.750 L 943.500 230.500 1004.750 230.758 L 1066 231.015 1066 118.008 L 1066 5 1004.496 5 L 942.991 5 943.246 117.750 M 1188.246 117.750 L 1188.500 230.500 1249.750 230.758 L 1311 231.015 1311 118.008 L 1311 5 1249.496 5 L 1187.991 5 1188.246 117.750 M 1433.758 118 L 1434.017 231 1495.008 231 L 1556 231 1556 118 L 1556 5 1494.750 5 L 1433.500 5 1433.758 118 M 1678.758 118 L 1679.017 231 1740 231 L 1800.983 231 1801.242 118 L 1801.500 5 1740 5 L 1678.500 5 1678.758 118 M 105.811 286.748 C 113.681 286.917, 126.281 286.917, 133.811 286.747 C 141.340 286.578, 134.900 286.439, 119.500 286.440 C 104.100 286.440, 97.940 286.579, 105.811 286.748 M 971.818 286.749 C 984.093 286.908, 1003.893 286.908, 1015.818 286.749 C 1027.743 286.589, 1017.700 286.459, 993.500 286.459 C 969.300 286.460, 959.543 286.590, 971.818 286.749 M 1137.250 286.748 C 1145.362 286.916, 1158.638 286.916, 1166.750 286.748 C 1174.862 286.580, 1168.225 286.442, 1152 286.442 C 1135.775 286.442, 1129.138 286.580, 1137.250 286.748 M 1682.468 362 C 1682.468 393.625, 1682.595 406.562, 1682.749 390.750 C 1682.904 374.937, 1682.904 349.062, 1682.749 333.250 C 1682.595 317.437, 1682.468 330.375, 1682.468 362 M 255.473 376.500 C 255.474 415, 255.598 430.605, 255.750 411.177 C 255.902 391.749, 255.901 360.249, 255.749 341.177 C 255.598 322.105, 255.473 338, 255.473 376.500 M 349.472 376 C 349.472 413.125, 349.597 428.313, 349.750 409.750 C 349.902 391.188, 349.902 360.813, 349.750 342.250 C 349.597 323.688, 349.472 338.875, 349.472 376 M 715.473 377 C 715.473 414.675, 715.597 430.087, 715.750 411.250 C 715.902 392.412, 715.902 361.587, 715.750 342.750 C 715.597 323.912, 715.473 339.325, 715.473 377 M 991.750 329.748 C 1000.688 329.914, 1015.313 329.914, 1024.250 329.748 C 1033.188 329.582, 1025.875 329.447, 1008 329.447 C 990.125 329.447, 982.813 329.582, 991.750 329.748 M 975.374 341.500 C 975.376 347.550, 975.541 349.896, 975.740 346.713 C 975.939 343.531, 975.937 338.581, 975.736 335.713 C 975.535 332.846, 975.372 335.450, 975.374 341.500 M 1155.250 363.743 C 1159.513 363.931, 1166.487 363.931, 1170.750 363.743 C 1175.013 363.556, 1171.525 363.402, 1163 363.402 C 1154.475 363.402, 1150.987 363.556, 1155.250 363.743 M 123.296 390.744 C 127.583 390.932, 134.333 390.931, 138.296 390.742 C 142.258 390.552, 138.750 390.399, 130.500 390.400 C 122.250 390.401, 119.008 390.556, 123.296 390.744 M 989.250 394.747 C 996.263 394.919, 1007.737 394.919, 1014.750 394.747 C 1021.763 394.575, 1016.025 394.435, 1002 394.435 C 987.975 394.435, 982.237 394.575, 989.250 394.747 M 975.382 408.500 C 975.384 415.100, 975.546 417.670, 975.741 414.211 C 975.937 410.752, 975.936 405.352, 975.738 402.211 C 975.540 399.070, 975.380 401.900, 975.382 408.500 M 123.750 423.744 C 128.287 423.929, 135.713 423.929, 140.250 423.744 C 144.787 423.559, 141.075 423.407, 132 423.407 C 122.925 423.407, 119.213 423.559, 123.750 423.744 M 105.750 465.748 C 114.137 465.915, 127.862 465.915, 136.250 465.748 C 144.637 465.581, 137.775 465.444, 121 465.444 C 104.225 465.444, 97.362 465.581, 105.750 465.748 M 972.319 465.749 C 985.419 465.907, 1006.569 465.907, 1019.319 465.749 C 1032.068 465.591, 1021.350 465.461, 995.500 465.462 C 969.650 465.462, 959.218 465.591, 972.319 465.749 M 1672.818 465.749 C 1685.093 465.908, 1704.893 465.908, 1716.818 465.749 C 1728.743 465.589, 1718.700 465.459, 1694.500 465.459 C 1670.300 465.460, 1660.543 465.590, 1672.818 465.749 M 1342.250 467.742 C 1345.963 467.934, 1352.037 467.934, 1355.750 467.742 C 1359.463 467.549, 1356.425 467.392, 1349 467.392 C 1341.575 467.392, 1338.537 467.549, 1342.250 467.742 M 208.060 581.750 L 208.121 639.500 237.614 667.500 C 253.835 682.900, 267.626 695.500, 268.260 695.500 C 268.893 695.500, 283.014 682.900, 299.638 667.500 L 329.864 639.500 329.932 581.750 L 330 524 269 524 L 208 524 208.060 581.750 M 453 581.437 L 453 638.874 482.589 667.187 C 498.863 682.759, 512.583 695.648, 513.078 695.830 C 513.573 696.011, 526.695 684.299, 542.239 669.802 C 557.783 655.306, 571.594 642.448, 572.930 641.230 C 575.253 639.113, 575.451 639.092, 577.430 640.751 C 579.195 642.230, 579.168 642.109, 577.250 639.928 L 575 637.371 575 580.686 L 575 524 514 524 L 453 524 453 581.437 M 698 581.367 L 698 638.734 728.013 667.446 C 744.520 683.238, 758.422 696.010, 758.906 695.829 C 759.390 695.648, 773.349 682.900, 789.927 667.500 C 806.504 652.100, 820.390 639.575, 820.784 639.667 C 821.178 639.759, 821.380 613.771, 821.234 581.917 L 820.968 524 759.484 524 L 698 524 698 581.367 M 943 581.331 L 943 638.661 973.088 667.385 C 989.636 683.183, 1003.562 695.971, 1004.035 695.804 C 1004.509 695.637, 1018.644 682.716, 1035.448 667.092 L 1066 638.683 1066 581.342 L 1066 524 1004.500 524 L 943 524 943 581.331 M 1188 581.300 C 1188 625.726, 1187.719 638.915, 1186.750 640.002 C 1185.711 641.167, 1185.758 641.211, 1187.030 640.262 C 1188.793 638.947, 1185.841 636.353, 1222.866 671.750 C 1236.817 685.087, 1248.524 696, 1248.883 696 C 1249.241 696, 1263.364 683.138, 1280.267 667.417 L 1311 638.834 1311 581.417 L 1311 524 1249.500 524 L 1188 524 1188 581.300 M 1434 580.695 L 1434 637.391 1431.250 640.442 C 1428.617 643.363, 1428.610 643.396, 1431.092 641.220 L 1433.685 638.947 1463.586 667.474 C 1480.032 683.163, 1493.769 696, 1494.114 696 C 1494.458 696, 1508.523 683.160, 1525.370 667.467 L 1556 638.934 1556 581.467 L 1556 524 1495 524 L 1434 524 1434 580.695 M 1678.758 581.158 L 1678.500 638.316 1690 649.488 C 1710.617 669.517, 1738.085 695.493, 1738.983 695.810 C 1739.466 695.981, 1753.280 683.614, 1769.681 668.328 C 1786.081 653.042, 1799.950 640.132, 1800.500 639.640 C 1801.151 639.057, 1801.407 618.697, 1801.234 581.372 L 1800.968 524 1739.992 524 L 1679.016 524 1678.758 581.158 M 137.499 559.388 C 132.358 560.999, 125.914 565.272, 123.308 568.797 C 118.229 575.668, 116.606 580.290, 116.566 588.006 C 116.502 600.221, 122.045 609.253, 133.278 615.237 C 136.752 617.087, 139.095 617.487, 146.500 617.493 C 154.721 617.499, 155.976 617.232, 161 614.401 C 174.413 606.844, 180.029 590.236, 173.949 576.104 C 170.971 569.180, 162.607 561.555, 155.762 559.522 C 149.669 557.713, 143 557.664, 137.499 559.388 M 258.424 560.057 C 243.378 565.846, 235.433 582.745, 240.535 598.106 C 242.909 605.254, 251.452 613.952, 258.428 616.324 C 270.100 620.293, 281.456 617.689, 290.090 609.064 C 297.125 602.037, 299.473 595.831, 298.773 586.116 C 297.317 565.925, 277.105 552.870, 258.424 560.057 M 382.293 559.449 C 373.014 562.349, 365.341 570.579, 362.361 580.829 C 358.631 593.661, 364.779 607.685, 377.136 614.529 C 381.970 617.206, 383.390 617.500, 391.500 617.500 C 399.714 617.500, 400.980 617.229, 406 614.401 C 412.450 610.767, 418.247 603.685, 420.162 597.099 C 426.930 573.830, 405.249 552.274, 382.293 559.449 M 503.424 559.996 C 488.421 565.949, 480.865 581.704, 485.450 597.474 C 487.651 605.047, 495.997 613.797, 503.428 616.324 C 515.096 620.292, 526.460 617.688, 535.074 609.074 C 550.018 594.130, 545.962 570.710, 526.722 560.848 C 520.646 557.733, 510.098 557.347, 503.424 559.996 M 626.820 559.580 C 620.403 561.554, 611.926 569.452, 608.948 576.230 C 605.838 583.308, 605.801 593.586, 608.862 600.031 C 612.050 606.741, 616.140 611.208, 622.144 614.534 C 626.969 617.206, 628.393 617.500, 636.500 617.500 C 644.610 617.500, 646.030 617.206, 650.864 614.529 C 660.853 608.997, 666.502 599.377, 666.444 588 C 666.399 579.103, 663.311 572.398, 656.312 566.002 C 648.036 558.438, 637.783 556.206, 626.820 559.580 M 748.063 560.131 C 744.808 561.417, 740.750 564.154, 737.956 566.949 C 719.110 585.795, 732.385 618, 759 618 C 767.732 618, 773.658 615.489, 780.090 609.064 C 787.059 602.102, 789.401 595.964, 788.823 586.166 C 788.163 574.968, 782.307 566.273, 771.795 560.885 C 765.500 557.658, 755.150 557.329, 748.063 560.131 M 871.820 559.519 C 865.343 561.596, 856.882 569.525, 853.990 576.230 C 847.939 590.257, 853.593 606.848, 867 614.401 C 872.024 617.232, 873.279 617.499, 881.500 617.493 C 888.905 617.487, 891.248 617.087, 894.722 615.237 C 901.326 611.719, 905.683 607.347, 908.671 601.240 C 915.853 586.561, 909.285 568.157, 894.270 560.889 C 888.513 558.102, 878.203 557.473, 871.820 559.519 M 994.332 559.790 C 977.081 565.956, 969.115 585.545, 977.324 601.613 C 980.606 608.035, 985.184 612.290, 992.321 615.552 C 997.297 617.825, 999.184 618.157, 1005.321 617.834 C 1016.716 617.235, 1024.849 612.234, 1030.721 602.213 C 1034.162 596.341, 1034.996 585.514, 1032.569 578.209 C 1027.559 563.123, 1009.434 554.392, 994.332 559.790 M 1116.820 559.519 C 1110.343 561.596, 1101.882 569.525, 1098.990 576.230 C 1094.551 586.519, 1096.682 599.593, 1104.257 608.546 C 1111.600 617.225, 1127.581 620.627, 1138.189 615.771 C 1145.653 612.354, 1150.427 607.867, 1153.710 601.182 C 1157.456 593.554, 1157.563 583.004, 1153.971 575.542 C 1150.922 569.209, 1145.068 563.360, 1139.165 560.749 C 1133.193 558.107, 1122.978 557.545, 1116.820 559.519 M 1239.332 559.790 C 1232.624 562.188, 1227.477 566.178, 1223.980 571.693 C 1214.097 587.276, 1219.857 607.286, 1236.491 615.156 C 1256.127 624.445, 1278.958 610.356, 1278.990 588.928 C 1279.003 580.405, 1276.824 574.217, 1271.798 568.508 C 1263.698 559.305, 1250.559 555.777, 1239.332 559.790 M 1361.629 559.685 C 1355.002 561.975, 1346.852 569.593, 1344.044 576.120 C 1340.610 584.101, 1340.941 593.407, 1344.947 601.543 C 1350.029 611.867, 1358.109 617.077, 1370.143 617.791 C 1376.739 618.182, 1378.526 617.906, 1383.189 615.771 C 1390.653 612.354, 1395.427 607.867, 1398.710 601.182 C 1402.481 593.502, 1402.619 582.934, 1399.046 575.577 C 1395.978 569.262, 1390.045 563.350, 1384.165 560.749 C 1377.925 557.988, 1367.907 557.516, 1361.629 559.685 M 1485.324 559.379 C 1478.983 561.454, 1474.303 564.723, 1470.446 569.774 C 1458.601 585.288, 1464.270 607.463, 1482.131 615.478 C 1487.568 617.918, 1489.173 618.187, 1495.893 617.786 C 1508.128 617.055, 1516.719 611.224, 1521.750 600.234 C 1523.927 595.479, 1524.184 593.772, 1523.796 586.648 C 1523.304 577.616, 1521.893 574.101, 1516.257 567.863 C 1508.880 559.697, 1495.538 556.038, 1485.324 559.379 M 1609 558.875 C 1600.710 561.605, 1593.241 567.816, 1589.381 575.190 C 1588.316 577.224, 1587.477 581.641, 1587.204 586.648 C 1586.816 593.772, 1587.073 595.479, 1589.250 600.234 C 1594.281 611.224, 1602.872 617.055, 1615.107 617.786 C 1621.827 618.187, 1623.432 617.918, 1628.869 615.478 C 1635.827 612.356, 1641.167 607.056, 1644.342 600.122 C 1647.287 593.692, 1647.281 582.296, 1644.330 575.851 C 1641.590 569.866, 1635.048 563.351, 1629.165 560.749 C 1624.170 558.539, 1613.135 557.514, 1609 558.875 M 1729.492 559.797 C 1712.106 565.809, 1704.347 584.925, 1712.515 601.621 C 1715.579 607.883, 1720.475 612.413, 1727.811 615.771 C 1732.476 617.907, 1734.258 618.182, 1740.857 617.788 C 1757.859 616.772, 1768.980 604.992, 1768.980 588 C 1768.980 578.405, 1766.249 572.208, 1759.247 565.912 C 1750.883 558.392, 1740.015 556.158, 1729.492 559.797 M 1854 558.875 C 1848.268 560.762, 1843.001 564.192, 1839.197 568.514 C 1826.416 583.034, 1830.880 606.001, 1848.277 615.226 C 1851.738 617.061, 1854.125 617.469, 1861.500 617.483 C 1869.117 617.497, 1871.242 617.121, 1875.330 615.033 C 1885.645 609.764, 1891.459 600.019, 1891.459 588 C 1891.459 575.750, 1885.897 566.543, 1875.393 561.404 C 1869.575 558.557, 1858.825 557.287, 1854 558.875" stroke="none" fill="#ffcb08" fill-rule="evenodd"/><path d="M 85 117.992 L 85 231 65.210 231 C 50.666 231, 43.862 231.406, 39.542 232.531 C 21.868 237.135, 7.890 250.906, 2.595 268.932 C 1.180 273.750, 1.001 285.948, 1.012 376.932 C 1.025 488.016, 0.840 484.022, 6.486 495.561 C 11.994 506.818, 24.149 517.033, 36.928 521.143 C 42.461 522.923, 46.780 523.336, 64.250 523.753 L 85 524.248 85.024 581.374 L 85.048 638.500 116.135 666.220 L 147.222 693.939 159.968 682.220 C 166.978 675.774, 180.632 663.300, 190.308 654.500 L 207.902 638.500 207.951 581.250 L 208 524 269 524 L 330 524 330.047 581.250 L 330.094 638.500 360.911 665.902 C 377.861 680.973, 392.047 693.271, 392.437 693.231 C 392.826 693.190, 406.602 680.860, 423.051 665.829 L 452.958 638.500 452.979 581.250 L 453 524 513.992 524 L 574.984 524 575.242 581.223 L 575.500 638.446 606.450 666.132 L 637.400 693.818 641.533 690.159 C 643.806 688.147, 657.441 675.709, 671.833 662.521 L 698 638.542 698 581.271 L 698 524 759.500 524 L 821 524 821 581.418 L 821 638.837 843.250 658.668 C 855.487 669.575, 869.376 681.974, 874.114 686.221 L 882.728 693.943 912.864 666.311 L 943 638.678 943 581.339 L 943 524 1004.500 524 L 1066 524 1066 581.333 L 1066 638.666 1078.250 649.582 C 1084.987 655.585, 1098.907 668.029, 1109.183 677.234 L 1127.865 693.970 1157.933 666.397 L 1188 638.823 1188 581.411 L 1188 524 1249.500 524 L 1311 524 1311 581.284 L 1311 638.569 1331.200 656.534 C 1342.310 666.415, 1356.263 678.908, 1362.208 684.297 L 1373.016 694.093 1403.258 666.255 L 1433.500 638.417 1433.758 581.209 L 1434.016 524 1495.008 524 L 1556 524 1556.019 581.250 L 1556.037 638.500 1586.940 666 C 1603.937 681.125, 1618.043 693.500, 1618.287 693.500 C 1618.678 693.500, 1672.651 644.283, 1677.232 639.750 C 1678.882 638.117, 1679 634.185, 1679 581 L 1679 524 1740 524 L 1801 524 1801 580.945 L 1801 637.890 1805.250 641.850 C 1807.588 644.028, 1821.621 656.621, 1836.436 669.835 L 1863.372 693.861 1868.936 688.791 C 1871.996 686.003, 1885.635 673.547, 1899.245 661.111 L 1923.990 638.500 1923.995 581.388 L 1924 524.277 1940.750 523.706 C 1959.152 523.080, 1964.470 521.999, 1973.913 516.966 C 1981.025 513.175, 1990.837 503.231, 1994.392 496.209 C 2000.247 484.647, 2000.002 489.856, 1999.976 377.568 C 1999.960 310.092, 1999.593 272.946, 1998.915 270 C 1995.943 257.096, 1984.967 243.034, 1973.257 237.127 C 1963.209 232.059, 1957.424 231, 1939.790 231 L 1924 231 1924 117.992 L 1924 4.985 1862.750 5.242 L 1801.500 5.500 1801.246 118.250 L 1800.991 231 1740 231 L 1679.009 231 1678.754 118.250 L 1678.500 5.500 1617.250 5.242 L 1556 4.985 1556 117.992 L 1556 231 1495.004 231 L 1434.009 231 1433.754 118.250 L 1433.500 5.500 1372.250 5.242 L 1311 4.985 1311 118 L 1311 231.015 1249.750 230.758 L 1188.500 230.500 1188.246 117.750 L 1187.991 5 1126.996 5 L 1066 5 1066 118.008 L 1066 231.015 1004.750 230.758 L 943.500 230.500 943.246 117.750 L 942.991 5 882 5 L 821.009 5 820.754 117.750 L 820.500 230.500 759.250 230.758 L 698 231.015 698 118 L 698 4.985 636.750 5.242 L 575.500 5.500 575.246 118.250 L 574.991 231 513.996 231 L 453 231 453 117.992 L 453 4.985 391.750 5.242 L 330.500 5.500 330.246 118.250 L 329.991 231 269 231 L 208.009 231 207.754 118.250 L 207.500 5.500 146.250 5.242 L 85 4.985 85 117.992 M 1294.402 284.009 C 1286.436 285.158, 1282.064 286.947, 1277.797 290.802 C 1272.065 295.981, 1270 300.658, 1270 308.465 C 1270 314.308, 1272.313 321.996, 1291.601 380.255 C 1303.481 416.140, 1314.517 448.286, 1316.124 451.692 C 1319.649 459.159, 1325.471 464.468, 1332.388 466.523 C 1339.047 468.500, 1358.948 468.504, 1365.568 466.529 C 1371.613 464.725, 1377.173 460.267, 1380.537 454.527 C 1381.932 452.147, 1385.117 444.193, 1387.617 436.850 C 1426.115 323.746, 1428.349 316.744, 1428.402 309 C 1428.477 298.053, 1424.785 291.830, 1415.500 287.255 C 1410.002 284.546, 1406.876 283.907, 1398.981 283.882 C 1387.346 283.846, 1379.923 289.542, 1376.069 301.466 C 1374.996 304.785, 1368.604 328.378, 1361.864 353.896 C 1353.421 385.861, 1349.366 399.702, 1348.827 398.396 C 1348.397 397.353, 1342.424 375.125, 1335.554 349 C 1328.024 320.366, 1321.981 299.362, 1320.339 296.117 C 1317.237 289.986, 1311.606 285.356, 1306.132 284.436 C 1304.134 284.100, 1301.825 283.701, 1301 283.549 C 1300.175 283.397, 1297.206 283.604, 1294.402 284.009 M 273.792 285.402 C 266.502 287.364, 261.419 291.448, 258.261 297.879 L 255.500 303.500 255.500 376.500 L 255.500 449.500 258 454.449 C 259.375 457.171, 262.075 460.642, 264 462.162 C 269.016 466.123, 278.807 468.398, 287.400 467.599 C 296.183 466.783, 301.532 464.395, 306.210 459.202 C 313.211 451.429, 313.098 452.915, 312.782 372.884 L 312.500 301.500 310 297.047 C 303.849 286.089, 288.992 281.311, 273.792 285.402 M 369.500 284.867 C 360.181 287.319, 353.243 293.622, 350.868 301.792 C 349.768 305.578, 349.500 320.311, 349.500 377 L 349.500 447.500 351.804 452.500 C 356.571 462.848, 364.262 467.317, 377.500 467.431 C 388.225 467.524, 394.310 465.633, 399.564 460.573 C 405.931 454.443, 407 449.639, 407 427.144 L 407 408.651 413.954 401.480 L 420.908 394.308 439.204 423.871 C 449.267 440.130, 459.110 455.473, 461.078 457.966 C 463.045 460.460, 467.018 463.785, 469.907 465.356 C 479.707 470.685, 492.696 468.675, 501.892 460.407 C 512.235 451.108, 514.152 440.033, 507.714 426.781 C 505.769 422.776, 494.506 404.449, 482.685 386.054 L 461.194 352.608 474.847 338.397 C 490.670 321.928, 495.144 315.314, 495.798 307.424 C 497.214 290.345, 477.995 278.560, 461.500 286.394 C 455.613 289.190, 453.540 291.323, 427.409 321.467 L 407.500 344.435 406.981 322.967 C 406.510 303.525, 406.260 301.123, 404.322 297.500 C 401.553 292.321, 397.497 288.524, 392.500 286.431 C 388.066 284.573, 374.199 283.630, 369.500 284.867 M 588.759 285.423 C 581.081 288.163, 577.012 292.346, 572.592 302.042 C 571.223 305.044, 559.874 336.075, 547.370 371 L 524.636 434.500 524.580 443 C 524.534 449.920, 524.935 452.272, 526.733 455.653 C 533.003 467.443, 549.435 471.936, 562.645 465.473 C 568.882 462.421, 572.591 457.559, 576.176 447.735 L 578.279 441.970 606.785 442.235 L 635.290 442.500 638.621 450.420 C 640.453 454.777, 643.173 459.615, 644.666 461.173 C 653.231 470.114, 671.567 470.927, 681.423 462.803 C 687.322 457.940, 689.417 452.848, 689.364 443.500 C 689.319 435.615, 688.977 434.558, 665.643 370 C 652.622 333.975, 640.858 302.220, 639.500 299.432 C 636.031 292.312, 630.663 287.274, 624.637 285.485 C 618.129 283.552, 594.117 283.511, 588.759 285.423 M 735.951 285.304 C 727.035 287.822, 721.517 292.445, 717.799 300.512 L 715.500 305.500 715.500 377 C 715.500 447.575, 715.527 448.558, 717.603 453 C 723.246 465.074, 736.857 470.458, 751.959 466.589 C 759.650 464.619, 764.232 461.355, 767.259 455.692 C 769.484 451.529, 769.500 451.189, 769.500 406.750 C 769.500 382.137, 769.576 362, 769.670 362 C 769.763 362, 770.613 364.363, 771.559 367.250 C 774.365 375.818, 778.228 382.767, 799.171 416.927 C 821.153 452.783, 823.497 456.170, 829.516 460.792 C 836.197 465.920, 841.179 467.312, 853 467.353 C 868.323 467.406, 876.008 463.478, 880.871 453.107 L 883.500 447.500 883.805 378.500 C 883.973 340.550, 883.829 307.140, 883.484 304.256 C 882.095 292.629, 873.373 285.328, 859.629 284.288 C 849.598 283.530, 842.362 285.725, 836.578 291.283 C 829.056 298.510, 828.870 299.968, 829.208 348.925 C 829.390 375.171, 829.154 390.194, 828.582 388.776 C 822.028 372.515, 781.479 304.069, 773 294.953 C 766.634 288.108, 758.793 284.705, 748.500 284.319 C 744.033 284.152, 738.491 284.587, 735.951 285.304 M 1498.788 285.151 C 1493.855 286.519, 1487.052 292.646, 1483.803 298.645 C 1482.357 301.315, 1477.575 313.625, 1473.177 326 C 1468.779 338.375, 1458.164 368.209, 1449.590 392.298 C 1434.927 433.492, 1434 436.528, 1434 443.352 C 1434 455.134, 1439.141 463, 1449.500 467.066 C 1454.059 468.855, 1465.796 468.552, 1470.766 466.517 C 1476.582 464.135, 1482.272 457.356, 1485.276 449.230 L 1487.763 442.500 1516.456 442.500 L 1545.148 442.500 1548.030 449.907 C 1552.404 461.148, 1557.987 466.141, 1568.320 468.051 C 1579.864 470.185, 1591.092 465.404, 1596.306 456.134 C 1598.912 451.500, 1599.314 449.794, 1599.252 443.634 C 1599.184 436.920, 1597.793 432.655, 1575.601 371.114 C 1550.463 301.404, 1548.852 297.311, 1544.534 292.206 C 1538.977 285.635, 1535.331 284.552, 1518 284.325 C 1509.475 284.213, 1500.830 284.584, 1498.788 285.151 M 1642.479 285.736 C 1634.955 288.436, 1631.424 291.436, 1628.312 297.774 L 1625.500 303.500 1625.500 376 C 1625.500 456.673, 1625.042 451.093, 1632.286 458.728 C 1638.576 465.357, 1639.895 465.500, 1694.571 465.500 L 1743.641 465.500 1749.513 462.497 C 1757.485 458.420, 1760.494 452.864, 1760.407 442.383 C 1760.327 432.719, 1757.349 426.729, 1750.526 422.509 L 1745.662 419.500 1714.331 419.197 L 1683 418.895 1683 362.629 C 1683 300.712, 1682.882 299.353, 1676.945 292.591 C 1672.328 287.332, 1665.910 284.802, 1656 284.335 C 1649.547 284.031, 1646.291 284.368, 1642.479 285.736 M 1839.754 285.555 C 1833.835 287.430, 1828.897 292.279, 1824.954 300.092 C 1823.284 303.400, 1814.931 325.771, 1806.392 349.804 C 1797.853 373.837, 1787.495 402.950, 1783.373 414.500 C 1775.383 436.891, 1774.267 442.796, 1776.441 451.179 C 1779.244 461.987, 1788.532 468.333, 1801.544 468.333 C 1814.322 468.333, 1820.750 463.578, 1826.596 449.798 L 1829.692 442.500 1858.206 442.235 L 1886.721 441.970 1889.484 449.544 C 1894.266 462.656, 1902.215 468.358, 1915.595 468.275 C 1924.375 468.221, 1930.107 465.867, 1935.183 460.231 C 1939.429 455.518, 1940.987 450.846, 1940.994 442.807 C 1940.999 437.887, 1937.757 428.101, 1917.122 370.757 C 1893.165 304.177, 1890.847 298.268, 1886.328 292.241 C 1881.497 285.798, 1877.389 284.557, 1860 284.290 C 1848.435 284.113, 1843.295 284.434, 1839.754 285.555 M 85.628 287.061 C 73.306 288.491, 67.178 292.258, 63.129 300.893 L 60.500 306.500 60.500 376 L 60.500 445.500 63.129 451.107 C 66.137 457.522, 70.676 461.448, 77.705 463.715 C 84.035 465.757, 133.445 466.630, 158 465.134 C 177.651 463.936, 184.265 462.549, 194.764 457.423 C 211.366 449.318, 220.943 432.869, 220.985 412.386 C 221.025 393.014, 213.767 379.618, 199.428 372.596 L 193.856 369.868 198.408 366.853 C 214.287 356.335, 219.524 332.538, 210.298 312.822 C 202.404 295.953, 187.659 288.741, 157.500 286.998 C 138.465 285.897, 95.324 285.935, 85.628 287.061 M 943.406 286.985 C 934.549 287.963, 928.416 290.623, 924.356 295.247 C 918.356 302.081, 918.500 300.095, 918.500 376 C 918.500 454.234, 918.239 451.369, 926.017 458.396 C 933.734 465.368, 934.994 465.500, 994 465.500 C 1035.266 465.500, 1047.463 465.210, 1051 464.146 C 1067.960 459.043, 1069.489 432.432, 1053.285 424.380 C 1049.849 422.673, 1046.106 422.454, 1012.702 422 L 975.904 421.500 975.839 408.274 L 975.774 395.049 1004.137 394.774 C 1031.593 394.509, 1032.652 394.425, 1037.264 392.154 C 1044.208 388.734, 1047.410 382.894, 1047.461 373.552 C 1047.511 364.462, 1045.094 359.497, 1038.916 356 C 1034.547 353.527, 1034.185 353.495, 1005 353 L 975.500 352.500 975.500 341.249 L 975.500 329.998 1006.614 329.999 C 1023.726 329.999, 1040.072 329.555, 1042.937 329.012 C 1055.096 326.706, 1059.939 321.585, 1060.756 310.169 C 1061.553 299.027, 1057.078 291.793, 1047 287.937 C 1044.286 286.898, 1033.061 286.553, 997 286.400 C 971.425 286.291, 947.308 286.555, 943.406 286.985 M 1116.628 286.990 C 1104.206 288.560, 1098.161 292.295, 1094.129 300.893 L 1091.500 306.500 1091.211 375.860 C 1090.888 453.391, 1090.818 452.472, 1097.618 459.999 C 1102.979 465.933, 1110.190 468.289, 1121.500 467.802 C 1129.027 467.479, 1131.340 466.957, 1135.632 464.613 C 1138.454 463.072, 1141.743 460.486, 1142.939 458.868 C 1147.431 452.793, 1148 449.073, 1148 425.793 L 1148 403.838 1165.750 404.169 C 1181.355 404.460, 1183.923 404.744, 1187 406.517 C 1192.661 409.779, 1194.884 415.598, 1196.604 431.656 C 1198.636 450.632, 1200.133 455.485, 1205.561 460.701 C 1212.729 467.589, 1225.960 469.983, 1237.657 466.509 C 1251.804 462.308, 1256.372 452.627, 1253.028 433.934 C 1252.493 430.945, 1251.575 423.629, 1250.986 417.677 C 1250.398 411.724, 1248.984 404.360, 1247.844 401.312 C 1244.485 392.335, 1237.184 386.373, 1226.074 383.537 L 1221.648 382.407 1227.324 379.630 C 1245.618 370.680, 1254.230 352.463, 1251.266 328.984 C 1248.303 305.509, 1234.595 293.353, 1205.500 288.399 C 1194.988 286.609, 1128.041 285.548, 1116.628 286.990 M 116.750 327.545 C 116.338 327.979, 116 335.059, 116 343.280 L 116 358.227 133.251 357.851 C 148.319 357.522, 150.946 357.219, 154.001 355.453 C 158.932 352.605, 161.206 347.783, 160.720 341.209 C 160.240 334.718, 157.774 331.155, 152.456 329.265 C 148.051 327.700, 117.981 326.251, 116.750 327.545 M 1148 346.481 L 1148 363.150 1167.750 362.825 C 1184.346 362.552, 1188.018 362.217, 1190.741 360.729 C 1195.289 358.244, 1197.100 354.990, 1197.716 348.198 C 1198.457 340.021, 1196.212 335.449, 1190.072 332.635 C 1186.064 330.798, 1183.186 330.494, 1166.750 330.176 L 1148 329.813 1148 346.481 M 606.989 344 C 606.916 344.275, 602.920 357.775, 598.110 374 L 589.363 403.500 598.182 403.788 C 603.032 403.946, 610.942 403.946, 615.759 403.788 L 624.519 403.500 615.821 373.500 C 611.037 357, 607.062 343.725, 606.989 344 M 1508.059 372.773 C 1503.447 388.573, 1499.473 402.063, 1499.229 402.750 C 1498.885 403.719, 1502.738 404, 1516.393 404 C 1526.077 404, 1534 403.743, 1534 403.428 C 1534 402.404, 1517.758 346.535, 1517.093 345.273 C 1516.737 344.598, 1512.672 356.973, 1508.059 372.773 M 1858 344.180 C 1858 344.462, 1854.175 357.696, 1849.500 373.588 C 1844.825 389.480, 1841 402.824, 1841 403.241 C 1841 403.659, 1848.923 404, 1858.607 404 C 1872.279 404, 1876.108 403.721, 1875.739 402.750 C 1875.478 402.063, 1871.562 388.675, 1867.037 373 C 1859.791 347.898, 1858 342.187, 1858 344.180 M 116 407 L 116 423.150 135.750 422.825 C 157.827 422.462, 160.967 421.688, 164.515 415.734 C 167.249 411.145, 167.178 402.057, 164.379 398.301 C 159.770 392.117, 157.416 391.532, 135.750 391.175 L 116 390.850 116 407 M 137.499 559.388 C 132.358 560.999, 125.914 565.272, 123.308 568.797 C 118.229 575.668, 116.606 580.290, 116.566 588.006 C 116.502 600.221, 122.045 609.253, 133.278 615.237 C 136.752 617.087, 139.095 617.487, 146.500 617.493 C 154.721 617.499, 155.976 617.232, 161 614.401 C 174.413 606.844, 180.029 590.236, 173.949 576.104 C 170.971 569.180, 162.607 561.555, 155.762 559.522 C 149.669 557.713, 143 557.664, 137.499 559.388 M 258.424 560.057 C 243.378 565.846, 235.433 582.745, 240.535 598.106 C 242.909 605.254, 251.452 613.952, 258.428 616.324 C 270.100 620.293, 281.456 617.689, 290.090 609.064 C 297.125 602.037, 299.473 595.831, 298.773 586.116 C 297.317 565.925, 277.105 552.870, 258.424 560.057 M 382.293 559.449 C 373.014 562.349, 365.341 570.579, 362.361 580.829 C 358.631 593.661, 364.779 607.685, 377.136 614.529 C 381.970 617.206, 383.390 617.500, 391.500 617.500 C 399.714 617.500, 400.980 617.229, 406 614.401 C 412.450 610.767, 418.247 603.685, 420.162 597.099 C 426.930 573.830, 405.249 552.274, 382.293 559.449 M 503.424 559.996 C 488.421 565.949, 480.865 581.704, 485.450 597.474 C 487.651 605.047, 495.997 613.797, 503.428 616.324 C 515.096 620.292, 526.460 617.688, 535.074 609.074 C 550.018 594.130, 545.962 570.710, 526.722 560.848 C 520.646 557.733, 510.098 557.347, 503.424 559.996 M 626.820 559.580 C 620.403 561.554, 611.926 569.452, 608.948 576.230 C 605.838 583.308, 605.801 593.586, 608.862 600.031 C 612.050 606.741, 616.140 611.208, 622.144 614.534 C 626.969 617.206, 628.393 617.500, 636.500 617.500 C 644.610 617.500, 646.030 617.206, 650.864 614.529 C 660.853 608.997, 666.502 599.377, 666.444 588 C 666.399 579.103, 663.311 572.398, 656.312 566.002 C 648.036 558.438, 637.783 556.206, 626.820 559.580 M 748.063 560.131 C 744.808 561.417, 740.750 564.154, 737.956 566.949 C 719.110 585.795, 732.385 618, 759 618 C 767.732 618, 773.658 615.489, 780.090 609.064 C 787.059 602.102, 789.401 595.964, 788.823 586.166 C 788.163 574.968, 782.307 566.273, 771.795 560.885 C 765.500 557.658, 755.150 557.329, 748.063 560.131 M 871.820 559.519 C 865.343 561.596, 856.882 569.525, 853.990 576.230 C 847.939 590.257, 853.593 606.848, 867 614.401 C 872.024 617.232, 873.279 617.499, 881.500 617.493 C 888.905 617.487, 891.248 617.087, 894.722 615.237 C 901.326 611.719, 905.683 607.347, 908.671 601.240 C 915.853 586.561, 909.285 568.157, 894.270 560.889 C 888.513 558.102, 878.203 557.473, 871.820 559.519 M 994.332 559.790 C 977.081 565.956, 969.115 585.545, 977.324 601.613 C 980.606 608.035, 985.184 612.290, 992.321 615.552 C 997.297 617.825, 999.184 618.157, 1005.321 617.834 C 1016.716 617.235, 1024.849 612.234, 1030.721 602.213 C 1034.162 596.341, 1034.996 585.514, 1032.569 578.209 C 1027.559 563.123, 1009.434 554.392, 994.332 559.790 M 1116.820 559.519 C 1110.343 561.596, 1101.882 569.525, 1098.990 576.230 C 1094.551 586.519, 1096.682 599.593, 1104.257 608.546 C 1111.600 617.225, 1127.581 620.627, 1138.189 615.771 C 1145.653 612.354, 1150.427 607.867, 1153.710 601.182 C 1157.456 593.554, 1157.563 583.004, 1153.971 575.542 C 1150.922 569.209, 1145.068 563.360, 1139.165 560.749 C 1133.193 558.107, 1122.978 557.545, 1116.820 559.519 M 1239.332 559.790 C 1232.624 562.188, 1227.477 566.178, 1223.980 571.693 C 1214.097 587.276, 1219.857 607.286, 1236.491 615.156 C 1256.127 624.445, 1278.958 610.356, 1278.990 588.928 C 1279.003 580.405, 1276.824 574.217, 1271.798 568.508 C 1263.698 559.305, 1250.559 555.777, 1239.332 559.790 M 1361.629 559.685 C 1355.002 561.975, 1346.852 569.593, 1344.044 576.120 C 1340.610 584.101, 1340.941 593.407, 1344.947 601.543 C 1350.029 611.867, 1358.109 617.077, 1370.143 617.791 C 1376.739 618.182, 1378.526 617.906, 1383.189 615.771 C 1390.653 612.354, 1395.427 607.867, 1398.710 601.182 C 1402.481 593.502, 1402.619 582.934, 1399.046 575.577 C 1395.978 569.262, 1390.045 563.350, 1384.165 560.749 C 1377.925 557.988, 1367.907 557.516, 1361.629 559.685 M 1485.324 559.379 C 1478.983 561.454, 1474.303 564.723, 1470.446 569.774 C 1458.601 585.288, 1464.270 607.463, 1482.131 615.478 C 1487.568 617.918, 1489.173 618.187, 1495.893 617.786 C 1508.128 617.055, 1516.719 611.224, 1521.750 600.234 C 1523.927 595.479, 1524.184 593.772, 1523.796 586.648 C 1523.304 577.616, 1521.893 574.101, 1516.257 567.863 C 1508.880 559.697, 1495.538 556.038, 1485.324 559.379 M 1609 558.875 C 1600.710 561.605, 1593.241 567.816, 1589.381 575.190 C 1588.316 577.224, 1587.477 581.641, 1587.204 586.648 C 1586.816 593.772, 1587.073 595.479, 1589.250 600.234 C 1594.281 611.224, 1602.872 617.055, 1615.107 617.786 C 1621.827 618.187, 1623.432 617.918, 1628.869 615.478 C 1635.827 612.356, 1641.167 607.056, 1644.342 600.122 C 1647.287 593.692, 1647.281 582.296, 1644.330 575.851 C 1641.590 569.866, 1635.048 563.351, 1629.165 560.749 C 1624.170 558.539, 1613.135 557.514, 1609 558.875 M 1729.492 559.797 C 1712.106 565.809, 1704.347 584.925, 1712.515 601.621 C 1715.579 607.883, 1720.475 612.413, 1727.811 615.771 C 1732.476 617.907, 1734.258 618.182, 1740.857 617.788 C 1757.859 616.772, 1768.980 604.992, 1768.980 588 C 1768.980 578.405, 1766.249 572.208, 1759.247 565.912 C 1750.883 558.392, 1740.015 556.158, 1729.492 559.797 M 1854 558.875 C 1848.268 560.762, 1843.001 564.192, 1839.197 568.514 C 1826.416 583.034, 1830.880 606.001, 1848.277 615.226 C 1851.738 617.061, 1854.125 617.469, 1861.500 617.483 C 1869.117 617.497, 1871.242 617.121, 1875.330 615.033 C 1885.645 609.764, 1891.459 600.019, 1891.459 588 C 1891.459 575.750, 1885.897 566.543, 1875.393 561.404 C 1869.575 558.557, 1858.825 557.287, 1854 558.875" stroke="none" fill="#ed1c24" fill-rule="evenodd"/><path d="M 84.246 117.228 L 84 229.957 64.750 230.251 L 45.500 230.546 64.781 230.773 C 79.457 230.946, 84.177 230.701, 84.539 229.750 C 84.801 229.063, 84.897 178.100, 84.753 116.500 L 84.491 4.500 84.246 117.228 M 1924.494 117.750 L 1924.500 230.500 1939.751 230.540 L 1955.002 230.581 1940.005 230.264 L 1925.009 229.948 1924.748 117.474 L 1924.487 5 1924.494 117.750 M 0.481 377 C 0.481 433.375, 0.602 456.437, 0.750 428.250 C 0.897 400.062, 0.897 353.937, 0.750 325.750 C 0.602 297.562, 0.481 320.625, 0.481 377 M 276.344 284.989 C 266.914 286.973, 259.470 293.150, 257.141 300.922 C 256.331 303.626, 256.003 325.747, 256.010 377.116 L 256.020 449.500 258.434 454.686 C 262.715 463.880, 270.815 467.460, 285.855 466.803 C 296.936 466.319, 301.934 464.330, 306.747 458.490 C 312.511 451.498, 312.378 453.248, 312.751 379.500 C 312.991 332.010, 312.753 309.474, 311.962 304.783 C 310.480 295.988, 306.698 290.658, 299.681 287.478 C 293.800 284.813, 282.771 283.637, 276.344 284.989 M 370.622 285.009 C 363.701 286.232, 357.120 290.635, 353.526 296.447 L 350.500 301.342 350.224 373.836 C 349.914 455.433, 349.703 452.802, 357.156 460.035 C 362.301 465.028, 368.358 467, 378.552 467 C 392.247 467, 399.611 463.241, 403.841 454.091 C 406.298 448.775, 406.445 447.493, 406.832 428.029 L 407.238 407.559 413.801 400.761 C 417.410 397.022, 420.708 394.309, 421.129 394.732 C 421.549 395.154, 430.270 409, 440.508 425.500 C 451.237 442.791, 461.092 457.511, 463.771 460.247 C 469.874 466.480, 474.996 468.413, 483.747 467.784 C 504.232 466.314, 516.335 447.481, 508.672 429 C 507.418 425.975, 496.151 407.565, 483.636 388.090 L 460.880 352.679 466.232 347.090 C 490.281 321.970, 494.333 316.630, 495.562 308.434 C 496.846 299.875, 492.065 291.199, 483.595 286.714 C 480.463 285.056, 477.736 284.541, 472 284.523 C 460.366 284.487, 459.035 285.566, 431.365 317.442 L 407.500 344.933 406.885 324.217 C 406.231 302.190, 405.635 298.833, 401.397 293.276 C 396.289 286.579, 382.577 282.896, 370.622 285.009 M 591.101 285.023 C 588.681 285.531, 585.177 286.971, 583.313 288.223 C 579.935 290.493, 574.569 297.804, 572.101 303.500 C 567.584 313.928, 525.109 435.430, 524.558 439.502 C 522.428 455.235, 531.779 466.773, 547.477 467.780 C 561.674 468.691, 569.688 463.484, 574.966 449.916 L 577.851 442.500 606.786 442.235 L 635.721 441.970 637.956 448.235 C 642.755 461.689, 648.923 466.904, 661.062 467.772 C 678.751 469.038, 689.243 460.065, 689.206 443.705 C 689.190 436.834, 688.078 433.415, 665.220 369.955 C 652.036 333.356, 640.315 301.578, 639.173 299.339 C 636.125 293.364, 632.286 289.190, 627.624 286.781 C 624.092 284.955, 621.492 284.610, 609.500 284.374 C 601.800 284.223, 593.520 284.515, 591.101 285.023 M 737.972 285.302 C 731.128 286.847, 724.236 290.805, 721.192 294.940 C 715.921 302.102, 715.999 300.855, 716.010 377.376 L 716.020 448.500 718.381 453.571 C 723.098 463.702, 731.037 467.544, 745.727 466.806 C 755.363 466.321, 758.799 465.009, 763.788 459.905 C 769.436 454.129, 769.500 453.513, 769.500 405.250 C 769.500 380.912, 769.561 361, 769.635 361 C 769.709 361, 770.534 363.363, 771.469 366.250 C 772.403 369.137, 774.863 374.875, 776.935 379 C 782.999 391.073, 819.553 450.020, 824.481 455.674 C 827.270 458.874, 831.188 461.927, 834.746 463.674 C 840.129 466.318, 841.307 466.500, 853 466.500 C 864.910 466.500, 865.746 466.364, 870.708 463.614 C 876.257 460.539, 879.938 455.995, 882.143 449.500 C 884.139 443.618, 884.140 305.311, 882.144 299.664 C 878.621 289.696, 870.268 284.709, 856.953 284.622 C 845.791 284.550, 838.330 287.833, 833.945 294.747 C 829.158 302.295, 828.798 306.530, 829.164 350.990 C 829.349 373.455, 829.447 391.760, 829.383 391.667 C 829.318 391.575, 827.395 387.092, 825.109 381.704 C 821.154 372.382, 817.577 366.194, 789.154 319.500 C 771.915 291.180, 765.869 285.835, 749.612 284.541 C 746.250 284.273, 741.013 284.616, 737.972 285.302 M 1287.148 285.913 C 1280.465 288.221, 1277.319 290.530, 1273.500 295.930 C 1270.744 299.827, 1270.504 300.837, 1270.546 308.336 C 1270.591 316.253, 1271.254 318.484, 1292.420 382 C 1304.424 418.025, 1315.296 449.583, 1316.578 452.128 C 1319.515 457.957, 1324.295 462.775, 1329.478 465.129 C 1332.816 466.645, 1336.160 466.960, 1349.136 466.978 C 1364.327 466.999, 1364.924 466.921, 1370.136 464.206 C 1379.805 459.169, 1380.296 458.050, 1404.918 384.890 C 1417.062 348.805, 1427.458 316.858, 1428.020 313.897 C 1431.472 295.692, 1417.758 282.827, 1396.352 284.190 C 1388.041 284.719, 1382.636 288.365, 1378.783 296.039 C 1377.143 299.304, 1370.726 321.565, 1362.824 351.394 C 1353.693 385.866, 1349.364 400.703, 1348.820 399.394 C 1348.387 398.352, 1342.379 376.125, 1335.469 350 C 1328.559 323.875, 1322.371 300.995, 1321.718 299.155 C 1319.992 294.296, 1314.229 288.009, 1309.556 285.886 C 1304.238 283.471, 1294.186 283.483, 1287.148 285.913 M 1501.184 285.069 C 1493.178 286.645, 1487.868 291.243, 1483.107 300.724 C 1481.940 303.048, 1470.550 334.098, 1457.795 369.724 L 1434.604 434.500 1434.564 443 C 1434.518 452.846, 1436.517 457.808, 1442.527 462.762 C 1449.588 468.582, 1462.517 469.859, 1471.500 465.623 C 1478.162 462.481, 1480.436 459.795, 1484.386 450.402 L 1487.710 442.500 1516.399 442.235 L 1545.089 441.969 1546.578 445.735 C 1553.507 463.256, 1559.243 468, 1573.500 468 C 1581.940 468, 1586.839 466.165, 1592.143 461.019 C 1597.383 455.934, 1598.986 451.662, 1598.994 442.753 C 1598.999 437.760, 1595.847 428.252, 1574.962 370.270 C 1561.741 333.565, 1549.441 300.827, 1547.629 297.517 C 1543.662 290.273, 1538.544 286.396, 1531.114 285.007 C 1524.769 283.821, 1507.341 283.857, 1501.184 285.069 M 1646.344 284.989 C 1636.519 287.056, 1629.350 293.260, 1626.850 301.856 C 1625.774 305.559, 1625.500 320.689, 1625.500 376.500 C 1625.500 454.757, 1625.312 452.554, 1632.551 458.910 C 1639.241 464.784, 1641.435 465, 1694.532 465 C 1727.884 465, 1743.747 464.650, 1746.101 463.862 C 1755.484 460.720, 1759.956 453.825, 1759.956 442.500 C 1759.956 430.566, 1755.147 423.606, 1744.771 420.525 C 1740.689 419.312, 1733.731 419, 1710.818 419 L 1682 419 1681.990 360.750 L 1681.980 302.500 1679.606 297.401 C 1675.879 289.396, 1669.159 285.521, 1657.482 284.641 C 1653.642 284.351, 1648.630 284.508, 1646.344 284.989 M 1842.718 285.031 C 1834.346 287.136, 1828.568 292.317, 1824.402 301.454 C 1823.136 304.229, 1811.728 335.636, 1799.051 371.247 C 1776.978 433.248, 1776.001 436.302, 1776.022 443.247 C 1776.070 459.216, 1785.283 468, 1801.982 468 C 1814.643 468, 1821.915 462.154, 1827.170 447.750 L 1829.268 442 1858.022 442 L 1886.775 442 1889.985 449.962 C 1895.529 463.715, 1903.219 468.693, 1917.500 467.769 C 1927.988 467.091, 1934.209 463.329, 1938.619 455 C 1939.992 452.407, 1940.461 449.426, 1940.429 443.500 C 1940.386 435.624, 1940.042 434.551, 1918.170 374.159 C 1889.795 295.810, 1890.683 298.058, 1885.994 292.730 C 1879.782 285.673, 1876.753 284.679, 1860.500 284.357 C 1852.800 284.205, 1844.798 284.508, 1842.718 285.031 M 80.045 288.052 C 73.214 289.453, 66.972 293.805, 64.328 299.009 C 60.232 307.075, 59.883 314.014, 60.230 380.570 C 60.514 435.077, 60.773 444.126, 62.159 448.178 C 64.574 455.231, 67.459 458.587, 73.774 461.688 L 79.500 464.500 126.500 464.456 C 171.481 464.415, 173.831 464.320, 181.197 462.261 C 206.030 455.318, 218.372 441.047, 220.576 416.725 C 222.405 396.536, 213.429 378.487, 198.507 372.351 C 196.032 371.333, 194.006 370.174, 194.004 369.776 C 194.002 369.377, 195.252 368.404, 196.781 367.613 C 200.874 365.497, 208.862 356.566, 211.014 351.701 C 213.964 345.031, 215.166 335.222, 214.021 327.152 C 211.180 307.118, 200.514 295.639, 179.314 289.798 C 171.948 287.769, 169.003 287.631, 128 287.392 C 104.075 287.252, 82.495 287.549, 80.045 288.052 M 937.734 288.071 C 932.911 289.229, 926.979 292.257, 924.788 294.680 C 923.847 295.721, 922.047 298.807, 920.788 301.537 L 918.500 306.500 918.500 376 L 918.500 445.500 921.129 451.107 C 924.360 457.996, 928.705 461.453, 936.711 463.504 C 941.942 464.845, 950.461 465.026, 996.654 464.783 L 1050.500 464.500 1055.154 461.764 C 1061.329 458.134, 1064.008 452.721, 1063.978 443.934 C 1063.953 436.453, 1061.616 430.416, 1057.488 427.169 C 1051.529 422.482, 1047.086 422, 1009.818 422 L 975 422 975 408 L 975 394 1002.750 393.994 C 1019.028 393.991, 1032.062 393.555, 1034.277 392.940 C 1039.258 391.557, 1044.593 386.763, 1046.044 382.367 C 1047.845 376.911, 1046.900 364.682, 1044.421 361.363 C 1038.841 353.888, 1034.215 353.014, 1000.218 353.006 L 974.937 353 975.218 341.250 L 975.500 329.500 1011.500 329 C 1043.001 328.562, 1047.891 328.286, 1050.631 326.786 C 1063.988 319.473, 1064.354 297.995, 1051.252 290.293 L 1046.500 287.500 994 287.334 C 965.125 287.242, 939.806 287.574, 937.734 288.071 M 1109.803 288.358 C 1102.883 290.282, 1097.554 294.222, 1095.162 299.184 C 1091.254 307.290, 1090.914 314.512, 1091.214 383 L 1091.500 448.500 1094.500 454.500 C 1096.945 459.390, 1098.491 461.090, 1102.858 463.692 C 1114.887 470.857, 1133.689 468.813, 1141.913 459.446 C 1147.046 453.600, 1148 448.162, 1148 424.739 L 1148 403.841 1166.430 404.171 C 1183.191 404.470, 1185.109 404.687, 1187.618 406.562 C 1193.860 411.227, 1195.594 416.685, 1197.922 439 C 1199.820 457.191, 1205.423 464.485, 1219.496 467.085 C 1236.171 470.165, 1251.749 462.524, 1253.572 450.371 C 1253.980 447.645, 1253.768 441.592, 1253.085 436.515 C 1252.418 431.557, 1251.256 422.325, 1250.502 416 C 1249.748 409.675, 1248.416 402.802, 1247.543 400.728 C 1244.106 392.565, 1235.230 385.726, 1225.250 383.550 C 1223.463 383.160, 1222.023 382.539, 1222.050 382.171 C 1222.078 381.802, 1224.714 380.263, 1227.907 378.752 C 1245.257 370.541, 1253.646 352.804, 1250.963 330 C 1249.871 320.712, 1248.911 317.445, 1245.362 310.923 C 1239.811 300.725, 1228.279 293.481, 1211.651 289.750 C 1203.324 287.881, 1198.536 287.667, 1158.500 287.374 C 1124.554 287.126, 1113.427 287.351, 1109.803 288.358 M 116 342.385 L 116 358 131.057 358 C 149.151 358, 153.914 357.001, 158.001 352.346 C 160.657 349.321, 161 348.207, 161 342.600 C 161 337.620, 160.537 335.682, 158.832 333.514 C 154.992 328.632, 151.067 327.683, 132.750 327.205 L 116 326.769 116 342.385 M 1148 347.140 L 1148 364.280 1166.868 363.786 C 1188.085 363.229, 1191.616 362.290, 1195.737 356.102 C 1198.937 351.298, 1198.932 341.688, 1195.727 336.898 C 1191.988 331.310, 1186.678 330.095, 1165.750 330.044 L 1148 330 1148 347.140 M 1507.723 372.806 C 1502.925 389.174, 1499 402.889, 1499 403.283 C 1499 403.677, 1506.875 404, 1516.500 404 C 1528.534 404, 1534 403.657, 1534 402.903 C 1534 401.511, 1517.975 345.924, 1517.098 344.272 C 1516.739 343.597, 1512.520 356.437, 1507.723 372.806 M 1857.062 346.649 C 1856.474 348.767, 1852.478 362.425, 1848.182 377 L 1840.371 403.500 1857.828 403.774 C 1867.430 403.924, 1875.472 403.862, 1875.699 403.635 C 1876.090 403.244, 1859.182 343.892, 1858.469 343.149 C 1858.283 342.956, 1857.650 344.531, 1857.062 346.649 M 598.094 372.750 C 593.491 388.563, 589.513 402.063, 589.255 402.750 C 588.891 403.721, 592.845 404, 607 404 C 621.159 404, 625.108 403.722, 624.737 402.750 C 624.474 402.063, 620.527 388.563, 615.965 372.750 C 611.404 356.938, 607.400 344, 607.067 344 C 606.735 344, 602.697 356.938, 598.094 372.750 M 116 407.120 L 116 424.241 134.750 423.810 C 151.056 423.436, 154.108 423.106, 158.166 421.283 C 164.085 418.624, 166.295 415.237, 166.750 408.128 C 167.665 393.816, 159.971 390.102, 129.250 390.031 L 116 390 116 407.120 M 84.242 581.095 L 84 638.690 86.250 640.595 C 88.496 642.497, 88.497 642.496, 86.758 640.430 C 85.154 638.524, 84.996 633.831, 84.750 580.930 L 84.483 523.500 84.242 581.095 M 1924.242 580.936 L 1924 638.371 1921.778 640.936 L 1919.556 643.500 1922.286 640.969 L 1925.017 638.438 1924.750 580.969 L 1924.483 523.500 1924.242 580.936" stroke="none" fill="#ffffff" fill-rule="evenodd"/></svg>