<svg xmlns="http://www.w3.org/2000/svg" viewBox="0 0 145 147"><path fill="#199F45" d="M95.354.121 65.261 30.138l19.051 19.1 30.093-30.017zM30.158 65.15.065 95.167l19.052 19.1 30.092-30.017zm71.498 31.985c4.275 4.282 6.322 9.17 4.574 10.913-1.745 1.743-6.625-.32-10.901-4.602a8 8 0 0 1-.191-.196L74.455 123.88c-5.735-6.023-9.251-14.182-9.24-23.159q.005-3.252.611-6.341c.979-5.082 3.101-9.756 6.1-13.742l-3.529-3.538-5.998 5.978a3.224 3.224 0 0 1-4.498-.006L22.133 47.819a3.225 3.225 0 0 1 .007-4.097l5.92-5.906a.327.327 0 0 0-.372-.524q-3.886-.033-7.774-.067l15.277-15.531q.156 4.06.31 8.117a.327.327 0 0 0 .547.348l6.557-6.545a3.224 3.224 0 0 1 4.591.007l35.017 35.103a3.225 3.225 0 0 1-.007 4.098l-6.59 6.574 3.754 3.764a32.6 32.6 0 0 1 12.617-5.05 33 33 0 0 1 6.345-.594c8.972.011 17.123 3.548 23.135 9.294l-20.477 20.426q.097.097.193.165m-4.62 49.806.005-3.7c23.922.03 43.542-19.406 43.736-43.323l3.7.03c-.102 12.587-5.082 24.4-14.028 33.266-8.95 8.866-20.815 13.742-33.413 13.726m.011-9.107.005-3.7c18.905.024 34.434-15.332 34.618-34.23l3.7.036c-.099 10.154-4.131 19.681-11.354 26.827-7.225 7.148-16.802 11.079-26.969 11.067m.019-9.111-.004-3.699c13.891.017 25.326-11.261 25.497-25.141l3.7.047c-.096 7.721-3.175 14.963-8.674 20.388-5.498 5.43-12.787 8.415-20.519 8.405m.03-7.696-.052-3.7c9.475-.131 17.194-7.952 17.206-17.434l3.7.005c-.013 11.492-9.37 20.97-20.854 21.129"/></svg>
