<svg xmlns="http://www.w3.org/2000/svg" width="192" height="192" fill="none" viewBox="0 0 192 192"><g clip-path="url(#a)"><path fill="#00af57" d="m21.96 49.04.04-.039c7.822-7.668 20.378-7.621 28.141.141l13.045 13.045c6.248 6.249 6.248 16.38 0 22.627l-4.7 4.701c-4.687 4.686-4.687 12.284 0 16.971l25.029 25.027c4.686 4.686 12.284 4.686 16.97 0l4.7-4.7c6.248-6.248 16.379-6.248 22.627 0l15.044 15.044c7.762 7.762 7.809 20.316.142 28.138v.008l-.165.161-.826.826q-.007.006-.016 0a.01.01 0 0 0-.015 0c-17.739 16.675-45.64 16.347-62.976-.989l-57-57C4.664 95.665 4.335 67.764 21.009 50.025a.012.012 0 0 0 0-.017.012.012 0 0 1 0-.018l.847-.847z"/><path fill="url(#b)" d="m21.96 49.04.04-.039c7.822-7.668 20.378-7.621 28.141.141l13.045 13.045c6.248 6.249 6.248 16.38 0 22.627l-4.7 4.701c-4.687 4.686-4.687 12.284 0 16.971l25.029 25.027c4.686 4.686 12.284 4.686 16.97 0l4.7-4.7c6.248-6.248 16.379-6.248 22.627 0l15.044 15.044c7.762 7.762 7.809 20.316.142 28.138v.008l-.165.161-.826.826q-.007.006-.016 0a.01.01 0 0 0-.015 0c-17.739 16.675-45.64 16.347-62.976-.989l-57-57C4.664 95.665 4.335 67.764 21.009 50.025a.012.012 0 0 0 0-.017.012.012 0 0 1 0-.018l.847-.847z"/><mask id="c" width="102" height="102" x="82" y="8" maskUnits="userSpaceOnUse" style="mask-type:alpha"><rect width="102" height="102" x="82" y="8" fill="#d9d9d9" rx="12"/></mask><g mask="url(#c)"><circle cx="96" cy="96" r="88" fill="url(#d)"/></g></g><defs><radialGradient id="d" cx="0" cy="0" r="1" gradientTransform="translate(83 110)scale(99.5)" gradientUnits="userSpaceOnUse"><stop offset=".2" stop-color="#78c9ff"/><stop offset=".85" stop-color="#60d673"/></radialGradient><linearGradient id="b" x1="60" x2="110.5" y1="134" y2="83.5" gradientUnits="userSpaceOnUse"><stop stop-color="#78c9ff" stop-opacity="0"/><stop offset=".75" stop-color="#78c9ff"/></linearGradient><clipPath id="a"><path fill="#fff" d="M8 8h176v176H8z"/></clipPath></defs></svg>