<svg version="1.1" id="Layer_1" xmlns:x="ns_extend;" xmlns:i="ns_ai;" xmlns:graph="ns_graphs;" xmlns="http://www.w3.org/2000/svg" xmlns:xlink="http://www.w3.org/1999/xlink" x="0px" y="0px" viewBox="0 0 367.5 45" style="enable-background:new 0 0 367.5 45;" xml:space="preserve">
 <style type="text/css">
  .st0{fill:#FF2638;}
	.st1{fill:#FFC600;}
	.st2{fill:#0079F2;}
	.st3{fill:#000C2C;}
 </style>
 <metadata>
  <sfw xmlns="ns_sfw;">
   <slices>
   </slices>
   <sliceSourceBounds bottomLeftOrigin="true" height="45" width="367.5" x="-253.2" y="0">
   </sliceSourceBounds>
  </sfw>
 </metadata>
 <g>
  <polygon class="st0" points="20,23.4 40,43.1 0,43.1 	">
  </polygon>
  <polygon class="st1" points="0,3.8 20,23.4 40,3.8 	">
  </polygon>
  <polygon class="st2" points="20,23.4 40,43.1 60,23.4 40,3.8 	">
  </polygon>
  <path class="st3" d="M361.9,13.1c0,0.3-0.4,0.4-0.6,0.2c-1.5-1.7-3.9-3-7.2-3c-7.2,0-11.2,5.8-11.2,12.8c0,7,4.1,12.7,11.2,12.7
		c3.4,0,6-1.2,7.6-3.2c0.2-0.2,0.6-0.1,0.6,0.2v2.2c0,0.2,0.1,0.3,0.3,0.3h4.6c0.2,0,0.3-0.1,0.3-0.3V0.3c0-0.2-0.1-0.3-0.3-0.3h-5
		c-0.2,0-0.3,0.1-0.3,0.3C361.9,0.3,361.9,13.1,361.9,13.1z M362.2,23.1c0,4.4-2.6,7.8-6.8,7.8c-4.2,0-6.8-3.4-6.8-7.8
		c0-4.5,2.6-7.8,6.8-7.8C359.6,15.2,362.2,18.6,362.2,23.1z M341.6,10.9c0-0.1-0.1-0.3-0.3-0.3c-0.2,0-0.4,0-0.5,0
		c-3.4,0-5.4,1.4-6.5,2.7c-0.2,0.2-0.6,0.1-0.6-0.2v-2c0-0.2-0.1-0.3-0.3-0.3h-4.6c-0.2,0-0.3,0.1-0.3,0.3v23.8
		c0,0.2,0.1,0.3,0.3,0.3h5c0.2,0,0.3-0.1,0.3-0.3V22.5c0-4.7,2.3-6.8,6.3-6.8c0.3,0,0.7,0,0.9,0.1c0.2,0,0.3-0.1,0.3-0.3
		c0,0,0,0,0,0C341.5,15.5,341.5,10.9,341.6,10.9z M318,23.8c0.2,0,0.3,0.1,0.3,0.2c0,0,0,0,0,0v1.2c0,3.3-2.2,6.1-6.7,6.1
		c-2.7,0-4.3-0.9-4.3-3.2c0-1.7,1.1-3,4.5-3.5L318,23.8L318,23.8z M310.5,35.8c3.5,0,6.1-1,7.8-3c0.2-0.2,0.6-0.1,0.6,0.2
		c0.1,1.4,0.3,2.2,0.3,2.2h4.9c0.2,0,0.4-0.2,0.3-0.4c-0.3-1.1-0.6-2.8-0.6-4.2V19.4c0-5.6-3.4-9.1-10.5-9.1
		c-7.2,0-10.1,3.8-10.7,7.9c0,0.2,0.1,0.3,0.3,0.3c0,0,0,0,0,0h4.9c0.1,0,0.3-0.1,0.3-0.2c0.5-2.1,2.2-3.4,5.1-3.4
		c3.3,0,5.2,1.5,5.2,4.5v0.1c0,0.1-0.1,0.3-0.2,0.3l-6.8,1c-6.4,0.9-9.3,3.6-9.3,7.7C302,32.6,304.5,35.8,310.5,35.8L310.5,35.8z
		 M287.2,35.8c7.8,0,12.6-5.9,12.6-12.7c0-6.9-4.9-12.8-12.6-12.8c-7.7,0-12.6,5.9-12.6,12.8C274.7,29.9,279.5,35.8,287.2,35.8
		L287.2,35.8z M280.2,23.1c0-4.7,3-7.8,7-7.8c4.1,0,7.1,3.1,7.1,7.8c0,4.7-3,7.8-7.1,7.8C283.2,30.9,280.2,27.8,280.2,23.1
		L280.2,23.1z M254.2,13.3c-0.2,0.2-0.6,0.1-0.6-0.2V0.3c0-0.2-0.1-0.3-0.3-0.3h-5c-0.2,0-0.3,0.1-0.3,0.3v34.6
		c0,0.2,0.1,0.3,0.3,0.3h4.6c0.2,0,0.3-0.1,0.3-0.3v-2.2c0-0.3,0.4-0.4,0.6-0.2c1.7,2,4.3,3.2,7.6,3.2c7.2,0,11.3-5.8,11.3-12.7
		c0-7-4.1-12.8-11.3-12.8C258.1,10.3,255.6,11.6,254.2,13.3z M253.4,23.1c0-4.5,2.6-7.8,6.8-7.8c4.2,0,6.8,3.4,6.8,7.8
		c0,4.4-2.6,7.8-6.8,7.8C256,30.9,253.4,27.4,253.4,23.1z M243.3,30.6c0-0.2-0.1-0.3-0.3-0.3c0,0,0,0-0.1,0
		c-0.3,0.1-0.8,0.1-1.4,0.1c-1.9,0-2.7-0.9-2.7-2.9v-12c0-0.2,0.1-0.3,0.3-0.3h4c0.2,0,0.3-0.1,0.3-0.3v-3.9c0-0.2-0.1-0.3-0.3-0.3
		h-4c-0.2,0-0.3-0.1-0.3-0.3V4.8c0-0.2-0.1-0.3-0.3-0.3h-5c-0.2,0-0.3,0.1-0.3,0.3v5.8c0,0.2-0.1,0.3-0.3,0.3h-3.1
		c-0.2,0-0.3,0.1-0.3,0.3V15c0,0.2,0.1,0.3,0.3,0.3h3.1c0.2,0,0.3,0.1,0.3,0.3v12.6c0,4.6,2.2,7.2,7.1,7.2c1.4,0,2.3-0.2,2.7-0.2
		c0.1,0,0.2-0.1,0.2-0.3V30.6z M204,23.1c0,7,5,12.7,12.1,12.7c7,0,10.7-4.8,11.5-9.1c0-0.2-0.1-0.3-0.2-0.3c0,0,0,0-0.1,0h-5.1
		c-0.1,0-0.2,0.1-0.3,0.2c-0.7,2.5-2.9,4.2-5.8,4.2c-4,0-6.5-3.2-6.5-7.8c0-4.6,2.5-7.8,6.5-7.8c2.9,0,5.1,1.7,5.8,4.2
		c0,0.1,0.2,0.2,0.3,0.2h5.1c0.2,0,0.3-0.1,0.3-0.3c0,0,0,0,0-0.1c-0.8-4.3-4.4-9.1-11.5-9.1C209,10.3,204,16,204,23.1z M194.6,24.9
		c0,4-2.2,6.1-5.6,6.1c-3.4,0-4.7-2.2-4.7-5.5V11.1c0-0.2-0.1-0.3-0.3-0.3l0,0h-5c-0.2,0-0.3,0.1-0.3,0.3l0,0v15.1
		c0,5.7,3,9.6,8.9,9.6c3.3,0,5.5-1.2,6.8-2.8c0.2-0.2,0.6-0.1,0.6,0.2v1.7c0,0.2,0.1,0.3,0.3,0.3h4.6c0.2,0,0.3-0.1,0.3-0.3V11.1
		c0-0.2-0.1-0.3-0.3-0.3l0,0h-5c-0.2,0-0.3,0.1-0.3,0.3l0,0C194.6,11.1,194.6,24.9,194.6,24.9z M168.9,13.1c0,0.3-0.4,0.4-0.6,0.2
		c-1.5-1.7-3.9-3-7.2-3c-7.2,0-11.2,5.8-11.2,12.8c0,7,4.1,12.7,11.2,12.7c3.3,0,6-1.2,7.6-3.2c0.2-0.2,0.6-0.1,0.6,0.2v2.2
		c0,0.2,0.1,0.3,0.3,0.3h4.6c0.2,0,0.3-0.1,0.3-0.3V0.3c0-0.2-0.1-0.3-0.3-0.3c0,0,0,0,0,0h-5c-0.2,0-0.3,0.1-0.3,0.3c0,0,0,0,0,0
		L168.9,13.1L168.9,13.1z M169.1,23.1c0,4.4-2.6,7.8-6.8,7.8c-4.2,0-6.8-3.4-6.8-7.8c0-4.5,2.6-7.8,6.8-7.8
		C166.5,15.2,169.1,18.6,169.1,23.1z M135,35.8c7.8,0,12.6-5.9,12.6-12.7c0-6.9-4.9-12.8-12.6-12.8c-7.7,0-12.6,5.9-12.6,12.8
		C122.4,29.9,127.3,35.8,135,35.8L135,35.8z M128,23.1c0-4.7,3-7.8,7-7.8c4.1,0,7.1,3.1,7.1,7.8c0,4.7-3,7.8-7.1,7.8
		C131,30.9,128,27.8,128,23.1L128,23.1z M121.8,10.9c0-0.1-0.1-0.3-0.3-0.3c-0.2,0-0.4,0-0.5,0c-3.4,0-5.4,1.4-6.5,2.7
		c-0.2,0.2-0.6,0.1-0.6-0.2v-2c0-0.2-0.1-0.3-0.3-0.3l0,0H109c-0.2,0-0.3,0.1-0.3,0.3l0,0v23.8c0,0.2,0.1,0.3,0.3,0.3h5
		c0.2,0,0.3-0.1,0.3-0.3V22.5c0-4.7,2.3-6.8,6.3-6.8c0.3,0,0.7,0,0.9,0.1c0.2,0,0.3-0.1,0.3-0.3c0,0,0,0,0,0
		C121.8,15.5,121.8,10.9,121.8,10.9z M86.2,33c0-0.3,0.4-0.4,0.6-0.2c1.5,1.7,3.9,3,7.2,3c7.2,0,11.3-5.8,11.3-12.7
		c0-7-4.1-12.8-11.3-12.8c-3.3,0-5.9,1.2-7.6,3.2c-0.2,0.2-0.6,0.1-0.6-0.2v-2.2c0-0.2-0.1-0.3-0.3-0.3l0,0h-4.6
		c-0.2,0-0.3,0.1-0.3,0.3l0,0v33.6c0,0.2,0.1,0.3,0.3,0.3h5c0.2,0,0.3-0.1,0.3-0.3L86.2,33L86.2,33z M86,23.1c0-4.5,2.6-7.9,6.8-7.9
		c4.2,0,6.8,3.4,6.8,7.9c0,4.4-2.6,7.8-6.8,7.8C88.6,30.9,86,27.4,86,23.1z">
  </path>
 </g>
</svg>