<svg version="1.1" id="Layer_1" x="0px" y="0px" width="500" height="209.52023" viewBox="0 0 500 209.52023" enable-background="new 0 0 1000 759.9296875" xml:space="preserve" xmlns="http://www.w3.org/2000/svg"><defs id="defs5" /><g id="g5" transform="translate(-30.691955,-334.0484)"><path fill="#1068a2" d="m 363.52265,369.09646 h -73.41936 c -9.64867,0 -19.60454,-7.83347 -19.60454,-17.46818 0,-9.64868 9.95587,-17.48214 19.60454,-17.48214 h 220.99809 c 9.64871,0 19.59057,7.84741 19.59057,17.48214 0,9.63473 -9.94192,17.46818 -19.59057,17.46818 h -69.94246 v 152.80103 c 0,11.84093 -9.77438,21.64321 -21.61529,21.64321 h -34.40575 c -11.91374,-0.0838 -21.54677,-9.72938 -21.61526,-21.64321 V 369.09646" id="path4" style="stroke-width:0.890656" /><path fill="#1068a2" d="M 52.307238,543.56864 C 40.402028,543.47736 30.775555,533.8447 30.691955,521.9394 V 355.66369 c 0,-11.82696 9.788316,-21.61529 21.615283,-21.61529 l 152.382162,0.014 c 70.48705,0 78.05517,70.27761 38.83211,94.05721 60.26585,21.50358 47.07048,115.44901 -58.45063,115.44901 H 52.307238 Z M 185.90868,417.52139 c 50.61718,0 52.94906,-50.63114 6.21369,-50.63114 H 110.2133 v 50.63114 z m -75.69538,32.96749 v 58.00382 h 66.11651 c 66.96827,0 66.47957,-57.96196 18.55732,-58.00382 H 110.2133" id="path5" style="stroke-width:0.890656" /></g></svg>
