<svg version="1.1" id="Camada_1" x="0px" y="0px" viewBox="0 0 512 512" xml:space="preserve" width="512" height="512" xmlns:xlink="http://www.w3.org/1999/xlink" xmlns="http://www.w3.org/2000/svg"><defs id="defs2"><radialGradient id="radialGradient7" cx="207.8468" cy="162.4585" r="119.25" gradientTransform="matrix(0.8927,0.011707,0.02038045,-1.5542,-127.2929,366.1006)" gradientUnits="userSpaceOnUse"><stop offset="0.32800001" style="stop-color:#d4dfe7;stop-opacity:1;" id="stop1" /><stop offset="0.66139293" style="stop-color:#b5c6da;stop-opacity:1;" id="stop2" /><stop offset="0.70783669" style="stop-color:#91afda;stop-opacity:1;" id="stop3" /><stop offset="0.86339998" style="stop-color:#356fb8;stop-opacity:1;" id="stop4" /><stop offset="0.89960003" style="stop-color:#2b63ad;stop-opacity:1;" id="stop5" /><stop offset="1" style="stop-color:#3061b0;stop-opacity:1;" id="stop6" /></radialGradient><radialGradient id="radialGradient55" cx="207.8468" cy="162.4585" r="119.25" gradientTransform="matrix(0.8927,0.011707,0.02038045,-1.5542,-127.2929,366.1006)" gradientUnits="userSpaceOnUse"><stop offset="0.32800001" style="stop-color:#f0f6ff;stop-opacity:1;" id="stop50" /><stop offset="0.66139293" style="stop-color:#f0f6ff;stop-opacity:1;" id="stop51" /><stop offset="0.70783669" style="stop-color:#cbe5ff;stop-opacity:1;" id="stop52" /><stop offset="0.8634" style="stop-color:#0080FF" id="stop53" /><stop offset="0.8996" style="stop-color:#0079FF" id="stop54" /><stop offset="1" style="stop-color:#0077FF" id="stop55" /></radialGradient><radialGradient xlink:href="#radialGradient7" id="radialGradient3" cx="84.78389" cy="530.9436" fx="84.78389" fy="530.9436" r="539.03949" gradientTransform="matrix(1.1030385,0,0,1.1030384,-249.1582,-345.4317)" gradientUnits="userSpaceOnUse" /><radialGradient xlink:href="#radialGradient7" id="radialGradient5" cx="271.70523" cy="548.72723" fx="271.70523" fy="548.72723" r="243" gradientUnits="userSpaceOnUse" gradientTransform="matrix(1.2039207,0,0,1.1902078,-267.5493,-393.06896)" /><radialGradient xlink:href="#radialGradient7" id="radialGradient6" cx="937.37091" cy="540.90228" fx="966.7782" fy="543.71106" r="413.95001" gradientTransform="matrix(1.3794653,0,0,1.217943,-677.84801,-408.15826)" gradientUnits="userSpaceOnUse" /></defs><path d="M 511.96879,253.25337 C 510.97146,113.80908 394.42638,1.0329207 255.98755,0.18780376 V 0 C 116.74135,0.75121505 -0.56359197,115.31151 0.05380246,255.60091 H 0.00631058 C -0.99101894,396.17203 116.36142,511.29574 255.98755,512 v -0.1878 C 396.42104,511.15488 514.20088,394.52875 511.96879,253.25337 Z" id="path1" style="fill:url(#radialGradient3);stroke-width:0.472206" /><path d="m 452.55644,256.02347 c 0,0 0,0.047 0,0.047 v 0 c 0,32.63091 -2.80202,65.21486 -7.88365,97.84576 -4.27427,27.23155 -8.786,34.97846 -37.4236,40.61257 -36.80621,7.27739 -100.92025,13.56882 -151.26164,13.09931 v 0.1878 C 205.64616,408.28542 141.53211,401.994 104.72591,394.7166 76.135797,389.08249 71.624069,381.28863 67.302307,354.10404 62.125691,321.37923 59.466147,288.65443 59.371161,255.92962 h 0.04751 c 0,-32.67785 2.802022,-65.30876 7.883653,-97.93966 4.274268,-27.23154 8.785997,-34.97845 37.423606,-40.61256 36.8062,-7.2774 100.92025,-13.56882 151.26164,-13.09931 v 0.1878 c 50.34139,-0.46951 114.45543,5.82192 151.26164,13.09931 28.59011,5.63412 33.10184,13.42797 37.4236,40.61256 5.08163,32.58396 7.88365,65.21486 7.88365,97.84576 v 0 c 0,-0.0469 0,-0.0469 0,0 z" id="path2" style="fill:url(#radialGradient6);stroke-width:0.472206" /><ellipse id="circle1" style="fill:url(#radialGradient5);stroke-width:0.472206" cy="256.07043" cx="255.98756" rx="115.40527" ry="114.09078" /></svg>
