<svg style="fill: currentColor" width="128px" height="48px" class="" role="img" xmlns="http://www.w3.org/2000/svg" fill="currentColor" aria-label="nr_logo_gradient icon" viewBox="0 200 652 250" xmlns:xlink="http://www.w3.org/1999/xlink">
 <title>
  Network Rail
 </title>
 <defs>
  <linearGradient id="a-logo" x1="0%" x2="100%" y1="100%" y2="0%">
   <stop offset="0%" stop-color="#F07E26">
   </stop>
   <stop offset="70%" stop-color="#F07E26">
   </stop>
   <stop offset="100%" stop-color="#F59D24">
   </stop>
  </linearGradient>
 </defs>
 <path fill="url(#a-logo)" d="M20.3 289.1h582.8l-322.8 68.6-260-68.6zM341.8 374l105.9 28 155.4-112.8L341.8 374zm149.3 39.3l80.9 21.4L603 289 491.1 413.3z">
 </path>
 <path fill="#004D6F" d="M42.4 209.3h21l13.8 47.6h.2l9.9-47.6h16.4L88.9 278h-21l-14.1-47.5h-.2L43.8 278H27.4l15-68.7zm100.3 67.1a65 65 0 01-17 2.7c-16.2 0-24.9-9.9-24.9-22.2.1-11.3 7.6-28.6 29.2-28.6 12.7 0 22.3 6.5 22.3 21.1 0 1.9-.6 6.3-1.3 9.2h-34.3c.2 5.2 2.7 9.3 13 9.3 4.4 0 10.5-1.2 15.2-3.4l-2.2 11.9zm-4.3-27.2c0-5.2-2-9.6-8.2-9.6-7.2 0-11.2 4.9-12.4 9.6h20.6zm20.1-19.7h7.6l3.5-15.1h16.7l-3.5 15.1h13.5l-2.1 11.8H180l-3 13.5c-.8 3.7-1.4 6.1-1.4 8.4 0 3.3 4 5.1 7.4 5.1 1.7 0 3.7-.8 5.4-1.3l-1.9 11.4c-3.6.6-7 1-10.4 1-8.6 0-17.2-4.1-17.2-14.4 0-2.4.4-4.8 1.5-9.9l3-13.6h-6.9l2-12zM261.6 278h-19.5l-.5-35.1h-.2L224.6 278H205l-4.3-48.5h16.7l.3 35.1h.2l16.1-35.1h20.3l.2 35.1h.2l15.7-35.1h17L261.6 278zm47.7 1.1c-17.9 0-25.1-9.9-25.1-22.2.1-17.1 12.4-28.6 31.4-28.6 16.5 0 25.1 9.5 25.1 21.7-.1 20.3-13.3 29.1-31.4 29.1zm5.4-39c-8.1 0-13.2 8.8-13.2 16.5 0 6.6 3.4 10.9 9.1 10.8 7.8 0 12.8-6.6 12.8-17.5 0-5.1-2.2-9.8-8.7-9.8zm53.1-10.6l-1.9 9.9h.2c2.7-5.7 8.2-11.1 15-11.1 2.2 0 4.8.3 7 1.3l-3.9 14.8c-2.1-1.6-4.5-2-7.7-2-7 0-11.3 6.2-12.5 13.3l-4.8 22.4h-16.8l7.7-35.8c.9-4.1 1.6-8.3 2.1-12.6l15.6-.2zm32-20.2h17l-8.9 40.6h.2l16.1-20.3h19.1l-20.1 23.3 12.5 25.1H417l-9.8-24h-.2l-5.2 24h-17.1l15.1-68.7zm58.3 0H479c13.1.1 28.8.5 28.7 17.5-.1 11.7-8.5 18.3-19 19.6v.2c5.4.5 7.1 7.8 8.1 12.2l4.8 19.2h-17.2l-3.5-17.5c-1.7-9-4.5-9.6-12.7-9.6h-1.9l-5.7 27.2h-17.3l14.8-68.8zm10.9 28.5h7.2c8 0 14.2-1.9 14.3-8.5 0-4.9-2.9-7-8.5-7.1h-9.7l-3.3 15.6zm70.6 33.4l-.2-.2v.2c-3.6 5.6-9.8 7.9-16.4 7.9-10.4 0-16.2-4.6-16.1-14.1.1-11.9 12-17.7 26.8-17.7 3.4 0 6.7.3 9.1.5.2-.7.2-1.3.2-1.9 0-3.5-3.4-6.3-8.9-6.3-6.1 0-10.1 1-15.7 3.9l1.7-12.2a54 54 0 0117.8-2.8c11.6 0 21 4.5 20.9 16.5 0 7.6-4.3 18.5-6.3 33.1h-13.7l.8-6.9zm-11.2-3.3c7.1 0 11.5-4.9 12.7-11.5-1.4-.3-3.5-.3-4.4-.3-8-.3-13.9 2.6-13.9 6.8 0 2.4 2.2 5 5.6 5zm43.4-38.4h17L578.4 278h-17l10.4-48.5zm4.3-20.2h17l-2.7 12.3h-17l2.7-12.3zm27.3 0h17L605.7 278h-17l14.7-68.7z">
 </path>
</svg>