<svg version="1.1" id="Layer_1" xmlns:x="ns_extend;" xmlns:i="ns_ai;" xmlns:graph="ns_graphs;" xmlns="http://www.w3.org/2000/svg" xmlns:xlink="http://www.w3.org/1999/xlink" x="0px" y="0px" viewBox="0 0 404.5 45" style="enable-background:new 0 0 404.5 45;" xml:space="preserve">
 <style type="text/css">
  .st0{fill:#FFFFFF;}
	.st1{fill:#FFFFFF;filter:url(#Adobe_OpacityMaskFilter);}
	.st2{mask:url(#mask0_2132_30313_1_);}
	.st3{fill:#FFFFFF;filter:url(#Adobe_OpacityMaskFilter_1_);}
	.st4{mask:url(#mask1_2132_30313_1_);}
 </style>
 <metadata>
  <sfw xmlns="ns_sfw;">
   <slices>
   </slices>
   <sliceSourceBounds bottomLeftOrigin="true" height="45" width="404.5" x="-188.9" y="0">
   </sliceSourceBounds>
  </sfw>
 </metadata>
 <g>
  <g>
   <g>
    <path class="st0" d="M53.2,45l7.3-7.7L30.9,9.4C25.2,4,20.7,0,13.7,0C4.1,0,0,7.5,0,16.7v26.5h11.3v-27c0-3.3,0.8-5.8,3.4-5.8
				c1.8,0,3,1.2,5.3,3.3L53.2,45L53.2,45z M64.8,43.2h11.2V1.4H64.8V43.2z">
    </path>
   </g>
  </g>
  <g>
   <g>
    <g>
     <g>
      <path class="st0" d="M163.4,29.3h11.4v13.7h5.3V29.3h11.4v-4.5h-28.1V29.3z">
      </path>
      <defs>
       <filter id="Adobe_OpacityMaskFilter" filterUnits="userSpaceOnUse" x="98.1" y="24.8" width="120.8" height="18.8">
        <feColorMatrix type="matrix" values="1 0 0 0 0  0 1 0 0 0  0 0 1 0 0  0 0 0 1 0">
        </feColorMatrix>
       </filter>
      </defs>
      <mask maskUnits="userSpaceOnUse" x="98.1" y="24.8" width="120.8" height="18.8" id="mask0_2132_30313_1_">
       <path class="st1" d="M404.5,1.4H98.1v42.2h306.3V1.4z">
       </path>
      </mask>
      <g class="st2">
       <path class="st0" d="M216.1,34.6c0.9-0.4,1.6-1,2.1-1.8c0.5-0.8,0.8-1.7,0.8-2.8c0-1.7-0.5-2.9-1.6-3.8
							c-1.1-0.9-2.5-1.4-4.3-1.4h-19.4v18.2h5.2v-3.3l20.2,3.8v-4.4l-21.9-4h16C214.1,35.2,215.2,35,216.1,34.6L216.1,34.6z
							 M198.7,31.6V29H212c0.4,0,0.8,0.1,1,0.3c0.3,0.2,0.4,0.5,0.4,0.9c0,0.4-0.1,0.7-0.4,0.9c-0.3,0.2-0.6,0.3-1,0.3L198.7,31.6
							L198.7,31.6z">
       </path>
       <path class="st0" d="M98.1,43.1h5.3V24.8h-5.3V43.1z">
       </path>
      </g>
      <path class="st0" d="M161.7,34.1c-1.1-0.8-2.9-1.4-5.6-1.8l-11.6-1.6c-0.5-0.1-0.8-0.1-1.1-0.2c-0.3-0.1-0.5-0.2-0.6-0.2
						c-0.1-0.1-0.2-0.2-0.2-0.4c0-0.3,0.2-0.5,0.6-0.7c0.4-0.2,1-0.4,1.9-0.5c0.9-0.1,2-0.2,3.4-0.2c2.7,0,5,0.2,7,0.7
						c2,0.5,4.1,1.2,6.1,2.2v-4.8c-1.3-0.7-3-1.2-5-1.7c-2-0.4-4.2-0.7-6.9-0.7c-2.6,0-4.7,0.2-6.6,0.7c-1.9,0.5-3.3,1.1-4.4,2.1
						c-1,0.9-1.5,2-1.5,3.3c0,1.3,0.6,2.3,1.7,3.1c1.1,0.8,3,1.3,5.5,1.7l10.7,1.4c0.7,0.1,1.2,0.2,1.6,0.2c0.4,0.1,0.6,0.2,0.8,0.3
						c0.2,0.1,0.3,0.3,0.3,0.5c0,0.3-0.3,0.6-0.8,0.9c-0.5,0.3-1.3,0.5-2.3,0.6c-1,0.1-2.2,0.2-3.6,0.2c-2.4,0-4.6-0.2-6.7-0.8
						c-2.1-0.5-4.2-1.4-6.3-2.7v5c1.6,0.9,3.4,1.5,5.3,2c1.9,0.5,4.2,0.7,6.8,0.7c2.9,0,5.3-0.3,7.2-0.8c1.9-0.6,3.4-1.3,4.3-2.3
						c0.9-1,1.4-2.1,1.4-3.3C163.3,35.9,162.8,34.9,161.7,34.1L161.7,34.1z">
      </path>
      <path class="st0" d="M130,42.1l-13.9-17.2h-9.6v18.2h5.3V28.8h0.7l11.5,14.3h11.2V24.8H130V42.1z">
      </path>
      <path class="st0" d="M349.5,29.3h11.4v13.7h5.3V29.3h11.4v-4.5h-28.1V29.3z">
      </path>
      <path class="st0" d="M342.2,42.1l-13.9-17.2h-9.6v18.2h5.3V28.8h0.7l11.5,14.3h11.2V24.8h-5.3V42.1z">
      </path>
      <path class="st0" d="M290.7,43.1h25.6v-4.4h-20.4v-2.8h18.2v-4.1h-18.2v-2.4h20.4v-4.4h-25.6V43.1z">
      </path>
      <path class="st0" d="M402.9,34.1c-1.1-0.8-2.9-1.4-5.6-1.8l-11.6-1.6c-0.5-0.1-0.8-0.1-1.1-0.2c-0.3-0.1-0.5-0.2-0.6-0.2
						c-0.1-0.1-0.2-0.2-0.2-0.4c0-0.3,0.2-0.5,0.6-0.7c0.4-0.2,1-0.4,1.9-0.5c0.9-0.1,2-0.2,3.4-0.2c2.7,0,5,0.2,7,0.7
						c2,0.5,4.1,1.2,6.1,2.2v-4.8c-1.3-0.7-3-1.2-5-1.7c-2-0.4-4.2-0.7-6.9-0.7c-2.6,0-4.7,0.2-6.6,0.7c-1.9,0.5-3.3,1.1-4.4,2.1
						c-1,0.9-1.5,2-1.5,3.3c0,1.3,0.6,2.3,1.7,3.1c1.1,0.8,3,1.3,5.5,1.7l10.7,1.4c0.7,0.1,1.2,0.2,1.6,0.2c0.4,0.1,0.6,0.2,0.8,0.3
						c0.2,0.1,0.3,0.3,0.3,0.5c0,0.3-0.2,0.6-0.8,0.9c-0.5,0.3-1.3,0.5-2.3,0.6c-1,0.1-2.2,0.2-3.6,0.2c-2.4,0-4.6-0.2-6.7-0.8
						c-2.1-0.5-4.2-1.4-6.3-2.7v5c1.6,0.9,3.4,1.5,5.3,2c1.9,0.5,4.2,0.7,6.8,0.7c2.9,0,5.3-0.3,7.2-0.8c1.9-0.6,3.4-1.3,4.3-2.3
						c0.9-1,1.4-2.1,1.4-3.3C404.5,35.9,403.9,34.9,402.9,34.1L402.9,34.1z">
      </path>
      <path class="st0" d="M269.7,42.1l-7.8-17.2h-10.1v18.2h5.3V28.9h0.7l6.6,14.2h10.5l6.6-14.2h0.7v14.2h5.3V24.8h-10.1
						L269.7,42.1z">
      </path>
      <path class="st0" d="M243.5,33.9c0,1-0.3,1.9-1,2.6c-0.6,0.8-1.6,1.4-2.9,1.9c-1.3,0.5-2.8,0.7-4.6,0.7c-1.8,0-3.3-0.2-4.6-0.7
						c-1.3-0.5-2.2-1.1-2.9-1.9c-0.6-0.8-1-1.7-1-2.6v-9.1h-5.3V34c0,2,0.6,3.7,1.7,5.2c1.1,1.4,2.7,2.5,4.8,3.3
						c2.1,0.8,4.5,1.1,7.2,1.1s5.1-0.4,7.2-1.1c2.1-0.8,3.7-1.9,4.8-3.3c1.1-1.4,1.7-3.2,1.7-5.2v-9.2h-5.3L243.5,33.9L243.5,33.9z">
      </path>
      <path class="st0" d="M166.3,19.6h5.3V5.9H183V1.4h-28.1v4.5h11.4V19.6z">
      </path>
      <path class="st0" d="M137.4,15.3h13.7l2.8,4.3h6.3L147.9,1.4h-7.2l-12.3,18.2h6.3L137.4,15.3L137.4,15.3z M143.9,5.4h0.8l3.9,6
						H140L143.9,5.4L143.9,5.4z">
      </path>
      <defs>
       <filter id="Adobe_OpacityMaskFilter_1_" filterUnits="userSpaceOnUse" x="98.1" y="1.4" width="92.2" height="18.2">
        <feColorMatrix type="matrix" values="1 0 0 0 0  0 1 0 0 0  0 0 1 0 0  0 0 0 1 0">
        </feColorMatrix>
       </filter>
      </defs>
      <mask maskUnits="userSpaceOnUse" x="98.1" y="1.4" width="92.2" height="18.2" id="mask1_2132_30313_1_">
       <path class="st3" d="M404.5,1.4H98.1v42.2h306.3V1.4z">
       </path>
      </mask>
      <g class="st4">
       <path class="st0" d="M190.3,1.4H185v18.2h5.3V1.4z">
       </path>
       <path class="st0" d="M126.9,19.6V1.4h-5.3v17.2L107.7,1.4h-9.6v18.2h5.3V5.4h0.7l11.5,14.3H126.9z">
       </path>
      </g>
      <path class="st0" d="M223.2,19.6h25.6v-4.4h-20.4v-2.8h18.2V8.2h-18.2V5.8h20.4V1.4h-25.6V19.6z">
      </path>
      <path class="st0" d="M212.2,19.6l9.3-18.2h-6l-8.8,17.2L198,1.4h-6l9.3,18.2H212.2z">
      </path>
     </g>
    </g>
   </g>
  </g>
 </g>
</svg>