<svg version="1.1" id="logo" xmlns="http://www.w3.org/2000/svg" xmlns:xlink="http://www.w3.org/1999/xlink" x="0px" y="0px" viewBox="0 0 512 464.6" style="enable-background:new 0 0 512 464.6;" xml:space="preserve"> <style type="text/css"> .st0{fill:#E60012;} </style> <g transform="translate(-36.3,-44.29859)"> <path class="st0" d="M67.6,384.4l19.7,26.6h7.8v-39.7h-8.1v26.1l-19.5-26.1h-8v39.7h8.1V384.4z M261.5,371.2h-33.7v8.4h12.7V411 h8.5v-31.3h12.4L261.5,371.2z M259.1,506.2h16.7v-75h-16.7V506.2z M172,384.4l19.7,26.6h7.8v-39.7h-8.1v26.1l-19.5-26.1h-8v39.7 h8.1V384.4z M209.7,485.6l-15.9-54.4h-13.3l-15.8,54.2l-14.4-54.2h-16.3l21.2,75h18l14-49.4l13.9,49.4h18.1l21.3-75h-16.3 L209.7,485.6z M90.6,460.7c-10.8-1.8-17.8-3.8-17.8-8.8c0-5.8,7.8-8.1,18.2-8.1c9.7,0,19.5,3.7,22.9,5.2l5.3-13 c-3.8-1.5-15.7-5.8-29-5.8c-16.2,0-33.4,7.9-33.4,22.5c0,11.9,8.4,17.9,29.9,21.6c15.1,2.6,23.5,4,23.3,10.6 c-0.1,3.6-2.9,9.6-20,9.6c-13.7,0-23.4-5-26.8-7l-7.1,12.8c3.8,2,16.5,7.9,32.8,7.9c23.8,0,36.4-8.3,36.4-23.9 C125.4,475.3,122.3,465.9,90.6,460.7 M134,371.2h-8.8v39.7h8.8V371.2z M390,410.9v-39.7H382v26.1l-19.5-26.1h-8v39.7h8.1v-26.6 l19.7,26.6H390z M321.5,403.6h-22.8v-9.3h21.1v-7.2h-21.1v-8.6h22.8v-7.3h-30.9v39.7h30.9V403.6L321.5,403.6z M507.3,369.9 c-11.7,0-21.2,9.5-21.2,21.2c0,11.7,9.5,21.2,21.2,21.2c11.7,0,21.2-9.5,21.2-21.2C528.5,379.4,519,369.9,507.3,369.9 M507.3,403.5 c-6.8,0-12.3-5.5-12.3-12.4c0-6.8,5.5-12.4,12.3-12.4c6.8,0,12.3,5.5,12.3,12.4C519.7,397.9,514.1,403.5,507.3,403.5 M510,460.8 h-35v-29.5h-15.5v75H475v-29.9h35v29.9h15.5v-75H510V460.8z M294,447.2h23.9v59.1h16.1v-59.1h23.4v-15.9H294L294,447.2L294,447.2z M409.6,445.5c8.5,0,16.3,4.5,20.6,11.6l12.2-10.6c-7.5-11.1-19.8-17.7-33.2-17.7c-22,0-40,17.9-40,40s18,40,40,40 c13.4,0,25.8-6.6,33.2-17.7l-12.2-10.6c-4.2,7.1-12.1,11.6-20.6,11.6c-13.1,0-23.8-10.5-23.8-23.3S396.5,445.5,409.6,445.5 M440,371.2h-16.4v39.7H440c11.3,0,20.4-8.9,20.4-19.9S451.3,371.2,440,371.2 M440.4,402.6h-8.7v-23h8.7c6.4,0,11.5,5.2,11.5,11.5 C452,397.5,446.8,402.6,440.4,402.6"/> <path class="st0" d="M163.4,48.5h-58.5c-37.9,0-68.6,30.7-68.6,68.6v130.4c0,37.9,30.7,68.6,68.6,68.6h58.5c1.1,0,2-0.9,2-2V50.5 C165.4,49.4,164.6,48.5,163.4,48.5z M143.8,294.6h-38.9c-12.6,0-24.4-4.9-33.3-13.8s-13.8-20.7-13.8-33.3V117.2 c0-12.6,4.9-24.4,13.8-33.3c8.9-8.9,20.7-13.8,33.3-13.8h38.9V294.6L143.8,294.6z M103.1,103.7c13.9,0,25.2,11.3,25.2,25.2 S117.1,154,103.1,154C89.2,154,78,142.7,78,128.8C78,115,89.3,103.7,103.1,103.7z M235.3,48.5h-41.4c-1,0-1.7,0.8-1.7,1.8v264 c0,1.1,0.9,2,1.9,2h41.2c37.9,0,68.6-30.7,68.6-68.6V117.2C304,79.3,273.2,48.6,235.3,48.5L235.3,48.5z M245.1,222.8 c-15,0-27.1-12.1-27.1-27.1c0-14.9,12.1-27.1,27.1-27.1c14.9,0,27.1,12.1,27.1,27.1C272.2,210.7,260.1,222.8,245.1,222.8z"/> <path class="st0" d="M349.1,316.2v-46c4.8-3.9,22.7-19.4,41.7-35.7c17.1-14.7,34.2-29.5,51.6-43.8c13.1-10.8,38.1-30.6,38.8-50 c0.9-22.8-15.3-37.6-39.4-37.6c-14.4,0-31.3,8-41.6,16.7s-23.4,20-23.4,20l-37.9-41.1c32.2-36.1,66.8-54.3,102.8-54.3 c76.8-1.9,134.7,83.7,76.3,150.8c-21.2,23.4-45.3,45.3-70,64.7h100.3v56.3H349.1L349.1,316.2z"/> </g> </svg>
