<svg id="Layer_1" data-name="Layer 1" xmlns="http://www.w3.org/2000/svg" width="195" height="93" viewBox="0 0 195 93"><defs><style>.cls-1{fill:#21376b;}.cls-2{fill:#db0c28;}</style></defs><path class="cls-1" d="M79.17,27.59H34.88s-4.47,0-4.47-4.25V17.91H25.3v5.43c0,4.25-4.51,4.25-4.51,4.25H11.08s-4.57-.07-4.57-4.25V13.69h4.63v9.65h9.69V18a4.29,4.29,0,0,1,4.53-4.3h5.05a4.24,4.24,0,0,1,4.53,4.22v5.43h6.51V13.69H46v9.65h7V4.87H57.4v8.8H74.74a4.11,4.11,0,0,1,4.43,4.08ZM57.44,23.34h17.3V17.83l-17.3,0Z"/><path class="cls-1" d="M105.48,27.59s4.48,0,4.48-4.29V4.87h-4.38V23.34H98.12V17.91a4.29,4.29,0,0,0-4.59-4.22h-6.2c-4.42,0-4.27,4.38-4.27,4.38v5.36a4,4,0,0,0,4.27,4.16h6.2V30.9H83.06v4.21H93.48a4.29,4.29,0,0,0,4.64-4.21V27.59ZM87.33,17.92h6.2v5.45h-6.2Z"/><rect class="cls-1" x="113.13" y="4.87" width="4.41" height="22.72"/><polygon class="cls-1" points="12.9 44.9 12.9 62.8 6.51 62.8 6.51 39.65 15.64 39.65 31.38 56.93 31.38 39.65 37.9 39.65 37.87 62.8 29.78 62.8 12.9 44.9"/><path class="cls-2" d="M186.38,65l6.69,5.46c-28.62-1.27-118.44.28-191.14,17.65,0,0,62.25-23.09,184.45-23.11"/><path class="cls-1" d="M182.62,17.8c2.07,2.13,5.78,5.42,5.82,8a11.75,11.75,0,0,1-2.16,7.44l-1.76-.29s2.56-4.07,2.56-5.33.32-3-1.6-4.08a105.63,105.63,0,0,0,.91,11.16,66.58,66.58,0,0,0,1.33,7c1.17,3.41,1.6,4.54,1.6,5.41a8.32,8.32,0,0,1-.86,3.16c-.43,1.08-1.83,6.12-2.28,8.33a4,4,0,0,1-.55,2.28,1.07,1.07,0,0,1-.57,1.83,24.42,24.42,0,0,0-3.33-.13s-2.14.32-.65-1.16a5.31,5.31,0,0,1,1.82-1.11c.24-.12.21-.79.75-1.4s.95-3.64,2.35-7.81c0,0-2.86-7.07-3.59-8.13,0,0,.1,3.09.15,3.86s-5,8.87-5,12.29c0,0,.09.4-.45,1.43,0,0,.75,2.16-.54,2.16h-3.85s-1.57-.63-.07-1.5l1.58-.75a3.43,3.43,0,0,1,.82-1.42s1.64-5,3.57-9.27c0,0,.77.86-2-10.37a34.74,34.74,0,0,0-1.51-4.85s-2-3.82-2.83-4.46c0,0-6.21,5.22-17.23,5.1L154.24,46s-.3,2.84-.55,4.72a69.4,69.4,0,0,0,.55,7.69,4.87,4.87,0,0,1-.21,1.89s1.64,2-.49,2.39l-3.75,0s-1.57-.91,1.73-2.51a4.16,4.16,0,0,1,.34-1.53s-.07-4.09-.32-8a11.93,11.93,0,0,1-.54-3,32.3,32.3,0,0,0-.82-7.16s-.46,1-1.19,6.24a10,10,0,0,1-.26,3.86s-.63,6.64-.68,7.52a3.34,3.34,0,0,1-.24,2.18s.92,1.68-.05,2.08a4,4,0,0,1-.88.15c-3.72.22-3.6-.12-3.6-.12s-.7-.83,1-1.51c.21-.07.6-.54.83-.66a6.15,6.15,0,0,1,.73-1.83s.76-5.25.86-8.24a6.11,6.11,0,0,1,0-3.58,48.8,48.8,0,0,0,.31-7.29,36,36,0,0,0-.43-5.6s.82-4-5.29-3.32c0,0-4.57-.31-5.84-3.3,0,0-3-6.57-3.21-7.95a27,27,0,0,0-1.84-5.94s-3.86-1.18-5.15-1.69l-1-.3a3.38,3.38,0,0,0-1.33.51c-.28.22-.62-.11-.62-.11a1.22,1.22,0,0,1,.29-1.56l-.41-.74s1.62-2.94,2.94-2.94a13.15,13.15,0,0,1,3.71-.32,4.92,4.92,0,0,1,4.2-1,5.7,5.7,0,0,0,3.77,0s-1.3,2.05.64,5.13a40.88,40.88,0,0,1,2,7.55,2.75,2.75,0,0,0,1.72,1.92c.84.44,3.2.94,4.92-1.8a19.23,19.23,0,0,1,5.1-3.6,9.12,9.12,0,0,0,2.56-1.93A40.72,40.72,0,0,1,158.2,7.9c1.31-1,4.2-3.18,7-2.76,3.49.53,4,.87,7.77,4.25l7.6,6.55s1.72,1.51,2.07,1.86"/><path class="cls-1" d="M93,62.76H86.43V39.61H93Zm.29-11.71,16.2-11.44h8L101.63,51.05l15.86,11.71h-8.13Z"/><rect class="cls-1" x="16.99" y="30.78" width="4.46" height="4.33"/><rect class="cls-1" x="9.69" y="30.78" width="4.47" height="4.33"/><rect class="cls-1" x="41.44" y="4.88" width="4.55" height="4.33"/><path class="cls-1" d="M72.77,51.23a8.88,8.88,0,0,0,4.11-2.16,4.54,4.54,0,0,0,1.5-3.39A4.11,4.11,0,0,0,77.5,43a7.64,7.64,0,0,0-4.21-2.69,22.11,22.11,0,0,0-6.76-.7H45.87V62.79H66a34,34,0,0,0,6.59-.47,9.07,9.07,0,0,0,4.07-1.85,4.67,4.67,0,0,0,1.7-3.82c0-2.62-1.78-4.39-5.61-5.42M66,58.91H52.42V53.55H66c2.33,0,4.2,1.21,4.2,2.7s-1.87,2.66-4.2,2.66m0-15.2c2.33,0,4.2,1.21,4.2,2.69s-1.87,2.69-4.2,2.69H52.42V43.71"/></svg>