<svg version="1.1" id="Layer_1" xmlns:x="ns_extend;" xmlns:i="ns_ai;" xmlns:graph="ns_graphs;" xmlns="http://www.w3.org/2000/svg" xmlns:xlink="http://www.w3.org/1999/xlink" x="0px" y="0px" viewBox="0 0 164 48" style="enable-background:new 0 0 164 48;" xml:space="preserve">
 <style type="text/css">
  .st0{fill:#FFFFFF;}
	.st1{fill:#FFB000;}
	.st2{fill:#64BA00;}
	.st3{fill:#F96E10;}
	.st4{fill:#0298EC;}
 </style>
 <metadata>
  <sfw xmlns="ns_sfw;">
   <slices>
   </slices>
   <sliceSourceBounds bottomLeftOrigin="true" height="48" width="164" x="0" y="0">
   </sliceSourceBounds>
  </sfw>
 </metadata>
 <g>
  <path class="st0" d="M151.7,26c0.1,0.1,0.1,0.1,0.1,0.2c0,0.1,0.1,0.2,0.1,0.2v0.6c0,0.2-0.1,0.3-0.2,0.5c-0.1,0.1-0.1,0.1-0.2,0.1
		c-0.1,0-0.1,0.1-0.2,0.1h-0.4c-0.1,0-0.2,0-0.2,0c-0.1,0-0.1-0.1-0.2-0.1c-0.1-0.1-0.2-0.3-0.2-0.5v-0.6c0-0.2,0.1-0.3,0.2-0.5
		c0.1-0.1,0.1-0.1,0.2-0.1c0.1,0,0.1,0,0.2-0.1h0.4c0.1,0,0.1,0,0.2,0C151.6,25.9,151.6,26,151.7,26z">
  </path>
  <path class="st0" d="M64.6,28.9h-3.1c-0.5,0-0.9,0.1-1.4,0.3c-0.4,0.2-0.8,0.5-1.2,0.8c-0.3,0.3-0.6,0.7-0.8,1.2
		c-0.2,0.4-0.3,0.9-0.3,1.4V40h1.2v-6.9c0-0.8,0.3-1.5,0.9-2.1c0.5-0.5,1.3-0.9,2.1-0.9h1.8c0.4,0,0.8,0.1,1.1,0.2
		c0.4,0.1,0.7,0.4,0.9,0.6c0.3,0.3,0.5,0.6,0.6,1c0.1,0.4,0.2,0.7,0.2,1.1V40h1.3v-7.5c0-0.5-0.1-0.9-0.3-1.4
		c-0.2-0.4-0.5-0.8-0.8-1.1c-0.3-0.4-0.7-0.6-1.1-0.8C65.5,28.9,65.1,28.9,64.6,28.9z">
  </path>
  <path class="st0" d="M52.4,28.7h-2.4c-1,0-2,0.4-2.8,1.1c-0.7,0.7-1.1,1.7-1.1,2.7v3.8c0,1,0.4,2,1.1,2.8c0.4,0.4,0.8,0.7,1.3,0.9
		c0.5,0.2,1,0.3,1.5,0.3h2.4c1,0,2-0.4,2.8-1.1c0.4-0.4,0.7-0.8,0.8-1.3c0.2-0.5,0.3-1,0.3-1.5v-3.8c0-1-0.4-2-1.1-2.8
		C54.4,29.1,53.4,28.7,52.4,28.7z M54.9,32.4v4.1c0,0.6-0.3,1.3-0.7,1.7c-0.5,0.4-1.1,0.7-1.7,0.7h-2.7c-0.6,0-1.2-0.3-1.7-0.7
		c-0.4-0.5-0.7-1.1-0.7-1.7v-4.1c0-0.6,0.3-1.3,0.7-1.7c0.5-0.4,1.1-0.7,1.7-0.7h2.7c0.6,0,1.2,0.3,1.7,0.7
		C54.6,31.2,54.9,31.8,54.9,32.4z">
  </path>
  <path class="st0" d="M41,28.9h-3.1c-0.5,0-0.9,0.1-1.4,0.3c-0.4,0.1-0.7,0.3-1,0.6v-4.9h-1.2V40h1.3v-7c0-0.8,0.3-1.5,0.9-2.1
		c0.6-0.5,1.3-0.9,2.1-0.9h1.8c0.4,0,0.8,0.1,1.1,0.2c0.4,0.1,0.7,0.4,0.9,0.6c0.3,0.3,0.5,0.6,0.6,1c0.1,0.4,0.2,0.7,0.2,1.1V40
		h1.3v-7.5c0-0.5-0.1-0.9-0.3-1.4c-0.2-0.4-0.5-0.8-0.8-1.1c-0.3-0.3-0.7-0.6-1.1-0.8C41.9,28.9,41.5,28.9,41,28.9z">
  </path>
  <path class="st0" d="M108.1,28.7h-2.4c-1,0-2,0.4-2.8,1.1c-0.7,0.7-1.1,1.7-1.1,2.7v3.8c0,1,0.4,2,1.1,2.7c0.4,0.4,0.8,0.7,1.3,0.9
		c0.5,0.2,1,0.3,1.5,0.3h2.4c1,0,2-0.4,2.8-1.1c0.7-0.7,1.1-1.7,1.1-2.7v-3.8c0-1-0.4-2-1.1-2.7c-0.4-0.4-0.8-0.7-1.3-0.9
		C109.1,28.8,108.6,28.7,108.1,28.7z M110.6,32.5v4.1c0,0.6-0.3,1.3-0.7,1.7c-0.2,0.2-0.5,0.4-0.8,0.5c-0.3,0.1-0.6,0.2-0.9,0.2
		h-2.7c-0.6,0-1.2-0.3-1.7-0.7c-0.4-0.5-0.7-1.1-0.7-1.7v-4.1c0-0.6,0.3-1.3,0.7-1.7c0.5-0.4,1.1-0.7,1.7-0.7h2.7
		c0.6,0,1.2,0.3,1.7,0.7C110.4,31.2,110.6,31.8,110.6,32.5z">
  </path>
  <path class="st0" d="M128.4,28.9h-3c-0.6,0-1.2,0.2-1.7,0.4c-0.5,0.3-0.9,0.6-1.2,1c-0.3-0.4-0.7-0.8-1.2-1
		c-0.5-0.3-1.1-0.4-1.6-0.4h-2.9c-0.9,0-1.8,0.4-2.5,1.1c-0.3,0.3-0.6,0.7-0.8,1.2c-0.2,0.4-0.2,0.9-0.2,1.4v7.5h1.2v-6.9
		c0-0.4,0.1-0.8,0.2-1.1c0.1-0.3,0.3-0.7,0.6-0.9c0.3-0.3,0.6-0.5,0.9-0.6c0.3-0.2,0.7-0.2,1.1-0.2h1.7c0.7,0,1.3,0.2,1.8,0.6
		c0.5,0.4,0.8,0.9,1,1.6v7.7h1.4v-7.8c0.2-0.6,0.5-1.1,1-1.5c0.5-0.4,1.1-0.6,1.7-0.6h1.8c0.8,0,1.5,0.3,2.1,0.9
		c0.6,0.5,0.9,1.3,0.9,2v6.9h1.4v-7.5c0-0.5-0.1-0.9-0.3-1.4c-0.2-0.4-0.4-0.8-0.8-1.2C130.3,29.4,129.4,29,128.4,28.9z">
  </path>
  <path class="st0" d="M142.4,29.7c-0.4-0.3-0.8-0.6-1.3-0.8c-0.5-0.2-1-0.3-1.5-0.3h-2.4c-0.9,0-1.9,0.3-2.6,1v-4.9h-1.4v11.4
		c0,1,0.4,2,1.1,2.7c0.4,0.4,0.8,0.7,1.3,0.8c0.5,0.2,1,0.3,1.5,0.3h2.4c0.5,0,1-0.1,1.5-0.3c0.5-0.2,0.9-0.5,1.3-0.8
		c0.4-0.4,0.7-0.8,0.9-1.3c0.2-0.5,0.3-1,0.3-1.5v-3.8c0-0.5-0.1-1-0.3-1.5C143.1,30.6,142.8,30.1,142.4,29.7z M134.7,32.4
		c0-0.6,0.3-1.3,0.7-1.7c0.5-0.4,1.1-0.7,1.7-0.7h2.7c0.6,0,1.2,0.3,1.7,0.7c0.4,0.5,0.7,1.1,0.7,1.7v4.1c0,0.6-0.3,1.3-0.7,1.7
		c-0.5,0.4-1.1,0.7-1.7,0.7h-2.7c-0.3,0-0.6-0.1-0.9-0.2s-0.6-0.3-0.8-0.5c-0.5-0.5-0.7-1.1-0.7-1.7V32.4z">
  </path>
  <path class="st0" d="M99.4,38.1c-0.2,0.2-0.4,0.4-0.7,0.5c-0.3,0.2-0.6,0.2-0.9,0.2h-2.5c-0.6,0-1.2-0.3-1.6-0.8
		c-0.2-0.2-0.4-0.5-0.5-0.8C93,37,92.9,36.7,93,36.4v-4.1c0-0.6,0.2-1.2,0.7-1.7c0.4-0.4,1-0.7,1.6-0.8h2.5c0.5,0,1.1,0.2,1.5,0.6
		l0.1,0.1h1.5l-0.1-0.2c-0.3-0.5-0.8-1-1.3-1.3c-0.5-0.3-1.2-0.5-1.8-0.5h-2.3c-1,0.1-1.9,0.5-2.6,1.2c-0.7,0.7-1.1,1.7-1,2.7v3.8
		c0,0.5,0.1,1,0.2,1.5c0.2,0.5,0.4,0.9,0.8,1.2c0.7,0.7,1.6,1.1,2.6,1.2h2.3c0.7,0,1.3-0.2,1.8-0.6c0.6-0.3,1-0.8,1.3-1.4l0.1-0.2
		h-1.5V38.1z">
  </path>
  <path class="st0" d="M85.8,37.6l-0.1-0.1c-0.3-0.1-0.7-0.3-0.9-0.5c-0.7-0.7-1.1-1.5-1.4-2.4l-1.7-5.6c0-0.1-0.1-0.1-0.1-0.2
		c0-0.1-0.1-0.1-0.1-0.2v-0.1h-1.2v0.1c0.1,0.3,0.1,0.6,0.2,0.9l1.5,5.2c0.5,1.9,1.7,3.4,3.1,3.9l-2.5,5H84l7.8-15.1h-1.4L85.8,37.6
		z">
  </path>
  <path class="st0" d="M151.7,29.3h-1.2v10.8h1.2V29.3z">
  </path>
  <path class="st0" d="M163.7,31c-0.2-0.5-0.5-0.9-0.9-1.2c-0.4-0.4-0.8-0.6-1.2-0.9c-0.5-0.2-1-0.3-1.5-0.3h-2.4c-1,0-2,0.4-2.8,1.1
		c-0.4,0.4-0.6,0.8-0.8,1.2s-0.3,1-0.3,1.5v3.8c0,1,0.4,2,1.1,2.7c0.4,0.4,0.8,0.7,1.3,0.9c0.5,0.2,1,0.3,1.5,0.3h2.4
		c1,0,2-0.4,2.8-1.1c0.7-0.7,1.1-1.7,1.1-2.7v-3.8C164,32,163.9,31.4,163.7,31z M162.6,32.4v4.1c0,0.6-0.3,1.3-0.7,1.7
		c-0.5,0.4-1.1,0.7-1.7,0.7h-2.7c-0.3,0-0.6-0.1-0.9-0.2c-0.3-0.1-0.6-0.3-0.8-0.5c-0.4-0.5-0.7-1.1-0.7-1.7v-4.1
		c0-0.6,0.3-1.3,0.7-1.7c0.5-0.4,1.1-0.7,1.7-0.7h2.7c0.6,0,1.2,0.3,1.7,0.7C162.4,31.1,162.6,31.7,162.6,32.4L162.6,32.4z">
  </path>
  <path class="st0" d="M76.4,28.7H73c-0.8,0-1.5,0.2-2.1,0.8c-0.6,0.5-0.9,1.2-1,1.9v4.8c0,0.6,0.1,1.1,0.3,1.6
		c0.2,0.5,0.5,0.9,0.9,1.3c0.4,0.4,0.8,0.6,1.3,0.8c0.4,0.1,0.7,0.2,1.1,0.2h2.2c0.7,0,1.4-0.2,2-0.6c0.2-0.1,0.4-0.3,0.5-0.5
		c0.1-0.2,0.3-0.3,0.4-0.5c0.1-0.2,0.2-0.4,0.3-0.6l0.1-0.1l-1.2-0.2l-0.1,0.1c-0.1,0.3-0.3,0.5-0.5,0.8c-0.4,0.3-0.9,0.5-1.4,0.5
		h-2.5c-0.2,0-0.4,0-0.6-0.1c-0.5-0.1-0.9-0.5-1.1-0.9c-0.2-0.2-0.3-0.4-0.3-0.7c-0.1-0.1-0.1-0.3-0.1-0.4v-2h5.2
		c0.8,0,1.5-0.3,2.1-0.8c0.6-0.5,0.9-1.3,1-2.1v-0.4c0-0.8-0.4-1.6-0.9-2.1c-0.3-0.3-0.6-0.5-1-0.7S76.8,28.7,76.4,28.7z M77.6,33.4
		c-0.3,0.2-0.6,0.3-1,0.3h-5.4v-2.3c0-0.3,0.2-0.6,0.4-0.9c0.2-0.2,0.4-0.4,0.6-0.5c0.2-0.1,0.5-0.2,0.8-0.2h3.7
		c0.2,0,0.5,0.1,0.7,0.2c0.2,0.1,0.4,0.3,0.6,0.4c0.2,0.3,0.3,0.7,0.4,1c0,0.4,0,0.7-0.1,1.1C78.1,32.9,77.9,33.2,77.6,33.4
		L77.6,33.4z">
  </path>
  <path class="st0" d="M148.3,38.6c0,0.3-0.1,0.6-0.3,0.8c-0.2,0.3-0.4,0.4-0.7,0.6c-0.3,0.1-0.6,0.1-0.9,0.1
		c-0.3-0.1-0.6-0.2-0.8-0.4c-0.2-0.2-0.4-0.5-0.4-0.8c-0.1-0.3,0-0.6,0.1-0.9c0.1-0.3,0.3-0.5,0.6-0.7c0.3-0.2,0.5-0.3,0.8-0.3
		c0.2,0,0.4,0,0.6,0.1c0.2,0.1,0.4,0.2,0.5,0.3c0.1,0.1,0.3,0.3,0.3,0.5C148.3,38.2,148.3,38.4,148.3,38.6z">
  </path>
  <path class="st1" d="M26.1,32.7l4.4,7.6L26.1,48h-8.7L13,40.3l4.4-7.6H26.1z">
  </path>
  <path class="st2" d="M26.1,14.2l4.4,7.6l-4.4,7.7h-8.7L13,21.9l4.4-7.6H26.1z">
  </path>
  <path class="st3" d="M10.7,24.8l3.6,6.3l-3.6,6.3H3.6L0,31.1l3.6-6.3H10.7z">
  </path>
  <path class="st4" d="M45,0l5.7,10L45,20H33.6L28,10l5.7-10H45z">
  </path>
 </g>
</svg>