<svg width="1024" height="1024" viewBox="0 0 1024 1024" fill="none" xmlns="http://www.w3.org/2000/svg">
<rect width="1024" height="1024" fill="black"/>
<path d="M194 406.623C194 366.631 215.324 329.673 249.947 309.658L627.948 91.1468C702.614 47.984 796 101.867 796 188.111V836.447C796 922.567 702.856 976.465 628.189 933.551L250.189 716.295C215.43 696.317 194 659.283 194 619.191V406.623Z" fill="#FFD739"/>
<mask id="mask0_6009_4509" style="mask-type:alpha" maskUnits="userSpaceOnUse" x="194" y="75" width="602" height="874">
<path d="M194 406.623C194 366.631 215.324 329.673 249.947 309.658L627.948 91.1466C702.614 47.9838 796 101.867 796 188.111V836.447C796 922.567 702.856 976.465 628.189 933.551L250.189 716.295C215.43 696.317 194 659.283 194 619.191V406.623Z" fill="#FFD739"/>
</mask>
<g mask="url(#mask0_6009_4509)">
<path d="M490.703 511.911L192.055 683.949L-105.958 511.891L192.689 339.854L490.703 511.911Z" fill="#FFA901"/>
<path d="M490.62 511.86L803.655 690L1116.2 512.139L803.165 334L490.62 511.86Z" fill="#FFF2A8"/>
</g>
</svg>
