<svg viewBox="0 0 1000 1007.8503" xmlns="http://www.w3.org/2000/svg" width="1000" height="1007.8503" id="svg2" version="1.1"><defs id="defs4" /><g id="layer1" transform="translate(703.04247,324.95399)"><g id="g3065" transform="matrix(2.1993753,0,0,2.1993753,842.61209,-818.44924)"><g id="flowRoot2998" style="font-size:40px;font-style:normal;font-weight:normal;line-height:125%;letter-spacing:0px;word-spacing:0px;fill:#085aa4;fill-opacity:1;stroke:none;font-family:Sans" transform="matrix(13.045694,0,0,13.045694,10367.398,-4749.8996)"><path id="path3061" style="font-variant:normal;font-stretch:normal;fill:#085aa4;fill-opacity:1;font-family:Franklin Gothic Heavy;-inkscape-font-specification:Franklin Gothic Heavy" d="m -835.27004,387.70079 0,20.27343 -7.75391,0 0,-20.27343 -5.52734,0 0,-6.38672 18.80859,0 0,6.38672 z" /><path id="path3063" style="font-variant:normal;font-stretch:normal;fill:#000000;fill-opacity:1;font-family:Franklin Gothic Heavy;-inkscape-font-specification:Franklin Gothic Heavy" d="m -813.73368,401.58465 -0.2861,6.38957 -19.83629,0 0,-5.98903 4.42502,-3.10895 c 0.64849,-0.44504 1.85965,-1.40188 3.63347,-2.87054 1.77382,-1.46864 2.93093,-2.59714 3.47135,-3.38552 0.5404,-0.78835 0.81062,-1.61486 0.81063,-2.47954 -1e-5,-0.8265 -0.23526,-1.49088 -0.70572,-1.99316 -0.47049,-0.50224 -1.0872,-0.75338 -1.85012,-0.7534 -1.90734,2e-5 -2.97545,1.50045 -3.20433,4.5013 l -6.5803,-1.2779 c 0.4832,-3.06444 1.68164,-5.3437 3.59533,-6.83781 1.91369,-1.49404 4.17388,-2.24108 6.78057,-2.24111 2.82285,3e-5 5.12755,0.7566 6.91409,2.26973 1.78653,1.51317 2.67979,3.52858 2.67981,6.04626 -2e-5,1.67846 -0.48639,3.27427 -1.45911,4.7874 -0.97275,1.51316 -3.81786,3.8274 -8.53532,6.9427 z" /></g><g id="flowRoot3006" style="font-size:40px;font-style:normal;font-weight:normal;line-height:125%;letter-spacing:0px;word-spacing:0px;fill:#085aa4;fill-opacity:1;stroke:none;font-family:Sans" transform="matrix(1.1837059,0,0,1.1837059,381.36963,153.43849)"><path id="path3015" style="font-variant:normal;font-stretch:normal;fill:#085aa4;fill-opacity:1;font-family:Franklin Gothic Heavy;-inkscape-font-specification:Franklin Gothic Heavy" d="m -841,387.70079 0,20.27343 -7.75391,0 0,-20.27343 -5.52734,0 0,-6.38672 18.80859,0 0,6.38672 z" /><path id="path3017" style="font-variant:normal;font-stretch:normal;fill:#085aa4;fill-opacity:1;font-family:Franklin Gothic Heavy;-inkscape-font-specification:Franklin Gothic Heavy" d="m -798.58075,407.97422 -1.50391,-5.2539 -7.14844,0 -1.60156,5.2539 -6.64063,0 8.24219,-26.66015 8.65235,0 8.33984,26.66015 z m -7.26563,-11.07421 4.33594,0 -2.16797,-7.73438 z" /><path id="path3019" style="font-variant:normal;font-stretch:normal;fill:#085aa4;fill-opacity:1;font-family:Franklin Gothic Heavy;-inkscape-font-specification:Franklin Gothic Heavy" d="m -745.03023,407.97422 -8.96485,0 -4.60937,-10.07812 -2.75391,3.92578 0,6.15234 -7.71484,0 0,-26.66015 7.71484,0 0,11.01562 7.36328,-11.01562 7.34375,0 -6.73828,9.74609 z" /><path id="path3021" style="font-variant:normal;font-stretch:normal;fill:#085aa4;fill-opacity:1;font-family:Franklin Gothic Heavy;-inkscape-font-specification:Franklin Gothic Heavy" d="m -703.99021,401.60704 0,6.36718 -20.05859,0 0,-26.66015 20.05859,0 0,6.15234 -12.03125,0 0,3.86719 9.72657,0 0,5.91797 -9.72657,0 0,4.35547 z" /><path id="path3023" style="font-variant:normal;font-stretch:normal;fill:#085aa4;fill-opacity:1;font-family:Franklin Gothic Heavy;-inkscape-font-specification:Franklin Gothic Heavy" d="m -638.95489,387.38077 0,20.27343 -7.75391,0 0,-20.27343 -5.52734,0 0,-6.38672 18.80859,0 0,6.38672 z" /><path id="path3025" style="font-variant:normal;font-stretch:normal;fill:#085aa4;fill-opacity:1;font-family:Franklin Gothic Heavy;-inkscape-font-specification:Franklin Gothic Heavy" d="m -578.37761,380.99405 -7.07031,26.66015 -6.875,0 -3.73047,-14.70703 -3.51562,14.70703 -7.16797,0 -7.08985,-26.66015 7.69532,0 3.73046,15.37109 3.63282,-15.37109 6.44531,0 3.94531,15.37109 3.73047,-15.37109 z" /><path id="path3027" style="font-variant:normal;font-stretch:normal;fill:#085aa4;fill-opacity:1;font-family:Franklin Gothic Heavy;-inkscape-font-specification:Franklin Gothic Heavy" d="m -545.35592,407.95769 c -3.75001,0 -6.80665,-1.24349 -9.16993,-3.73047 -2.36328,-2.48697 -3.54492,-5.81379 -3.54492,-9.98047 0,-3.98435 1.12956,-7.27537 3.38867,-9.87304 2.25911,-2.59763 5.39387,-3.89646 9.4043,-3.89649 3.71092,3e-5 6.73501,1.22399 9.07227,3.67188 2.33721,2.44793 3.50583,5.71616 3.50586,9.80468 -3e-5,4.23178 -1.17841,7.62371 -3.53516,10.17579 -2.35679,2.55208 -5.39715,3.82812 -9.12109,3.82812 z m -0.0391,-6.05469 c 1.3802,10e-6 2.37303,-0.6022 2.97852,-1.80664 0.60545,-1.20442 0.90818,-3.40819 0.9082,-6.61133 -2e-5,-4.63539 -1.2435,-6.9531 -3.73047,-6.95312 -2.6823,2e-5 -4.02344,2.64325 -4.02343,7.92969 -10e-6,4.96094 1.28905,7.44141 3.86718,7.4414 z" /></g><g id="flowRoot3029" style="font-size:40px;font-style:normal;font-weight:normal;line-height:125%;letter-spacing:0px;word-spacing:0px;fill:#085aa4;fill-opacity:1;stroke:none;font-family:Sans" transform="matrix(1.0700722,0,0,1.0700722,282.56153,245.3955)"><path id="path3038" style="font-variant:normal;font-stretch:normal;fill:#085aa4;fill-opacity:1;font-family:Franklin Gothic Heavy;-inkscape-font-specification:Franklin Gothic Heavy" d="m -843.77344,381.31407 0,26.66015 -8.18359,0 0,-26.66015 z" /><path id="path3040" style="font-variant:normal;font-stretch:normal;fill:#085aa4;fill-opacity:1;font-family:Franklin Gothic Heavy;-inkscape-font-specification:Franklin Gothic Heavy" d="m -804.55151,407.97422 -6.66016,0 -7.30469,-11.77734 c -0.93751,-1.5104 -1.88152,-3.34634 -2.83203,-5.50781 0.42968,1.71876 0.64452,3.1771 0.64453,4.375 l 0,12.91015 -6.64062,0 0,-26.66015 7.73437,0 6.21094,9.76562 c 1.23696,1.94012 2.17446,3.64585 2.8125,5.11719 -0.41668,-2.27863 -0.62502,-4.60936 -0.625,-6.99219 l 0,-7.89062 6.66016,0 z" /><path id="path3042" style="font-variant:normal;font-stretch:normal;fill:#085aa4;fill-opacity:1;font-family:Franklin Gothic Heavy;-inkscape-font-specification:Franklin Gothic Heavy" d="m -777.16552,387.70079 0,20.27343 -7.75391,0 0,-20.27343 -5.52734,0 0,-6.38672 18.80859,0 0,6.38672 z" /><path id="path3044" style="font-variant:normal;font-stretch:normal;fill:#085aa4;fill-opacity:1;font-family:Franklin Gothic Heavy;-inkscape-font-specification:Franklin Gothic Heavy" d="m -737.55379,401.60704 0,6.36718 -20.05859,0 0,-26.66015 20.05859,0 0,6.15234 -12.03125,0 0,3.86719 9.72657,0 0,5.91797 -9.72657,0 0,4.35547 z" /><path id="path3046" style="font-variant:normal;font-stretch:normal;fill:#085aa4;fill-opacity:1;font-family:Franklin Gothic Heavy;-inkscape-font-specification:Franklin Gothic Heavy" d="m -698.80061,407.97422 -9.08203,0 -3.88672,-10.19531 -2.57813,0 0,10.19531 -8.18359,0 0,-26.66015 13.92578,0 c 3.0729,2e-5 5.45896,0.71943 7.1582,2.1582 1.6992,1.43883 2.54881,3.33661 2.54883,5.69336 -2e-5,1.53648 -0.31252,2.8939 -0.9375,4.07227 -0.62502,1.1784 -1.88804,2.21681 -3.78906,3.11523 z m -15.54688,-15.89843 3.4961,0 c 1.02863,1e-5 1.85545,-0.21483 2.48047,-0.64453 0.62498,-0.42967 0.93748,-1.06118 0.9375,-1.89454 -2e-5,-1.7057 -1.0482,-2.55857 -3.14454,-2.55859 l -3.76953,0 z" /><path id="path3048" style="font-variant:normal;font-stretch:normal;fill:#085aa4;fill-opacity:1;font-family:Franklin Gothic Heavy;-inkscape-font-specification:Franklin Gothic Heavy" d="m -668.91787,407.97422 -1.50391,-5.2539 -7.14844,0 -1.60156,5.2539 -6.64063,0 8.24219,-26.66015 8.65235,0 8.33984,26.66015 z m -7.26563,-11.07421 4.33594,0 -2.16797,-7.73438 z" /><path id="path3050" style="font-variant:normal;font-stretch:normal;fill:#085aa4;fill-opacity:1;font-family:Franklin Gothic Heavy;-inkscape-font-specification:Franklin Gothic Heavy" d="m -634.44202,397.79844 7.48047,0.44922 c -0.35159,3.26824 -1.55927,5.77475 -3.62305,7.51953 -2.06382,1.7448 -4.59963,2.61719 -7.60742,2.61719 -3.6198,0 -6.54298,-1.19792 -8.76953,-3.59375 -2.22657,-2.39583 -3.33985,-5.70312 -3.33985,-9.92187 0,-4.17967 1.05469,-7.55207 3.16407,-10.11719 2.10936,-2.56508 5.05207,-3.84763 8.82812,-3.84766 3.52863,3e-5 6.24022,0.97659 8.13477,2.92969 1.8945,1.95315 2.96547,4.54429 3.21289,7.77344 l -7.63672,0.41015 c -2e-5,-1.78383 -0.34182,-3.07289 -1.02539,-3.86718 -0.68361,-0.79425 -1.48765,-1.19139 -2.41211,-1.19141 -2.57814,2e-5 -3.8672,2.59116 -3.86719,7.77344 -10e-6,2.90365 0.33528,4.87631 1.00586,5.91797 0.67056,1.04167 1.61132,1.5625 2.82227,1.5625 2.16144,0 3.37237,-1.47135 3.63281,-4.41407 z" /><path id="path3052" style="font-variant:normal;font-stretch:normal;fill:#085aa4;fill-opacity:1;font-family:Franklin Gothic Heavy;-inkscape-font-specification:Franklin Gothic Heavy" d="m -600.13465,387.70079 0,20.27343 -7.75391,0 0,-20.27343 -5.52734,0 0,-6.38672 18.80859,0 0,6.38672 z" /><path id="path3054" style="font-variant:normal;font-stretch:normal;fill:#085aa4;fill-opacity:1;font-family:Franklin Gothic Heavy;-inkscape-font-specification:Franklin Gothic Heavy" d="m -572.16191,381.31407 0,26.66015 -8.1836,0 0,-26.66015 z" /><path id="path3056" style="font-variant:normal;font-stretch:normal;fill:#085aa4;fill-opacity:1;font-family:Franklin Gothic Heavy;-inkscape-font-specification:Franklin Gothic Heavy" d="m -532.78455,381.31407 -8.28125,26.66015 -8.33984,0 -8.63282,-26.66015 8.63282,0 4.19922,14.53125 c 0.28644,0.85938 0.54035,1.70574 0.76171,2.53906 l 4.92188,-17.07031 z" /><path id="path3058" style="font-variant:normal;font-stretch:normal;fill:#085aa4;fill-opacity:1;font-family:Franklin Gothic Heavy;-inkscape-font-specification:Franklin Gothic Heavy" d="m -498.79944,401.60704 0,6.36718 -20.05859,0 0,-26.66015 20.05859,0 0,6.15234 -12.03125,0 0,3.86719 9.72657,0 0,5.91797 -9.72657,0 0,4.35547 z" /></g></g></g></svg>
