<svg version="1.2" xmlns="http://www.w3.org/2000/svg" viewBox="0 0 1519 447" width="1519" height="447">
	<title>MSB Wordmark</title>
	<defs>
		<clipPath clipPathUnits="userSpaceOnUse" id="cp1">
			<path d="m1519 0v447h-1519v-447z"/>
		</clipPath>
		<radialGradient id="g1" cx="0" cy="0" r="1" gradientUnits="userSpaceOnUse" gradientTransform="matrix(161.05,0,0,161.05,286.195,102.961)">
			<stop offset="0" stop-color="#9e0b0f"/>
			<stop offset=".16" stop-color="#b91319"/>
			<stop offset=".323" stop-color="#ce181f"/>
			<stop offset=".486" stop-color="#de1a22"/>
			<stop offset=".646" stop-color="#e81c23"/>
			<stop offset=".8" stop-color="#ed1c24"/>
		</radialGradient>
		<radialGradient id="g2" cx="0" cy="0" r="1" gradientUnits="userSpaceOnUse" gradientTransform="matrix(161.55,2.228,-2.228,161.55,430.366,197.165)">
			<stop offset=".3" stop-color="#9e0b0f"/>
			<stop offset=".44" stop-color="#b91319"/>
			<stop offset=".583" stop-color="#ce181f"/>
			<stop offset=".725" stop-color="#de1a22"/>
			<stop offset=".865" stop-color="#e81c23"/>
			<stop offset="1" stop-color="#ed1c24"/>
		</radialGradient>
		<radialGradient id="g3" cx="0" cy="0" r="1" gradientUnits="userSpaceOnUse" gradientTransform="matrix(344.715,0,0,344.715,319.813,19.202)">
			<stop offset=".35" stop-color="#ed1c24"/>
			<stop offset="1" stop-color="#f37021"/>
		</radialGradient>
		<radialGradient id="g4" cx="0" cy="0" r="1" gradientUnits="userSpaceOnUse" gradientTransform="matrix(120.954,0,0,120.954,51.601,307.56)">
			<stop offset=".3" stop-color="#ed1c24"/>
			<stop offset="1" stop-color="#9e0b0f"/>
		</radialGradient>
	</defs>
	<g id="Clip-Path" clip-path="url(#cp1)">
		<g>
			<path fill-rule="evenodd" fill="#000000" d="m1519 233.4c0 23.8-10.6 46.4-29.9 63.4-18.9 16.8-43.8 26-69.8 26h-105.9c-17.6 0-31.9-14.1-31.9-31.6v-223.2c0-17.4 14.3-31.6 31.9-31.6h106.2c49.4 0 89.7 34.7 91.8 78.9 0.9 19.6-5.4 38.1-18.4 53.6l-1.8 2.2 2 2c16.6 16.6 25.8 38 25.8 60.3zm-175.3-89.2h80.2c12.3 0 25.5-9.6 25.5-25.2 0-12.1-9.7-25.2-25.5-25.2h-80.2zm113.1 90.4c0-24.1-19.8-33.1-32.4-33.1h-80.7v64h80.7c21.2 0 32.4-18 32.4-30.9z"/>
			<path fill="#000000" d="m1150.6 150.7c-24.4-6.5-53.6-14.1-54.7-33.5-0.8-13.7 10.3-25.3 28-27.5 35.9-4.4 68.1 16.5 85 20.6 16.7 4.1 30.4-10.1 32.1-24 2.6-21.4-18.8-33.1-26.9-38-13.6-8.2-37.6-18-74.4-18-63.8 0-108.3 36.4-108.3 88.5 0 28.2 10.5 49.1 31.5 64.6 40.9 30.3 120.1 26.7 120.2 57.9 0.1 28-52.2 45.3-109.9 7.6-5-4-11.1-6.1-17.7-6.1-15.4 0-28.5 12.9-28.5 28.1 0 5.1 1.3 10.1 3.9 14.4l-1.1 0.7 1.2-0.6c0.3 0.6 0.6 1.1 1 1.7 5.2 7.7 12.9 14.9 22.2 20.9 14.9 9.6 41.3 21.1 82.6 21.1 33.6 0 61.8-8.3 81.6-24.1 20.2-16 30.8-39 30.8-66.5-0.1-54.7-47.5-74-98.6-87.8z"/>
			<path fill="#000000" d="m962.7 36.5h-19.6c-11.3 0-21.6 6.4-26.5 16.5l-67.2 137.3-67.2-137.3c-4.9-10.1-15.2-16.5-26.5-16.5h-19.6c-17.5 0-31.8 14.2-31.8 31.5v226.8c0 22.2 24 39 47.7 26.3 9-4.8 14.4-14.3 14.4-24.4v-135l55.8 105.9c5.7 10.8 16.5 16.3 27.2 16.3 10.7 0 21.4-5.5 27.1-16.3l55.8-105.9v135c0 10.1 5.4 19.6 14.4 24.4 23.8 12.6 47.8-4.1 47.8-26.3v-226.8c0.1-17.3-14.3-31.5-31.8-31.5z"/>
			<path fill="url(#g1)" d="m269.2 330.8l-169.4-199.5c-28.6-33.7-24.1-84.4 10-112.7 34.1-28.2 85.4-23.8 114 9.9l169.4 199.5c28.6 33.7 24.1 84.4-10 112.7-34.1 28.2-85.4 23.8-114-9.9z"/>
			<path fill="url(#g2)" d="m452.4 96.6l-42 198.8c-9.1 43-52.2 70.9-95.8 61.9-43.6-9-71.8-51.6-62.7-94.6l42-198.8c9.1-43.1 52.2-70.9 95.8-61.9 43.6 9 71.8 51.5 62.7 94.6z"/>
			<path fill="url(#g3)" d="m480.5 330.8l-169.4-199.5c-28.6-33.7-24.1-84.4 9.9-112.7 34.1-28.2 85.4-23.8 114.1 9.9l169.4 199.5c28.6 33.7 24.1 84.4-10 112.7-34.1 28.2-85.4 23.8-114-9.9z"/>
			<path fill="url(#g4)" d="m161.6 272.8c3.9 49.3-37.4 90.1-87.3 86.2-39.2-3.1-70.9-34.4-74-73.2-3.9-49.3 37.3-90.1 87.2-86.2 39.2 3 71 34.5 74.1 73.2z"/>
			<path fill="#ef4123" d="m736.6 432c-4 0-7.6-0.7-11-2.1q-5-2.1-8.8-5.9c-2.4-2.4-4.4-5.4-5.7-8.7-1.4-3.3-2.1-6.8-2.1-10.6v-0.2q0-5.6 2.1-10.6 2.1-5.1 5.8-8.8c2.5-2.5 5.4-4.5 8.8-6 3.4-1.5 7.1-2.2 11.2-2.2 4.2 0 7.8 0.6 10.8 1.8 3 1.3 5.6 2.8 7.9 4.8q0.6 0.5 1.3 1.6c0.4 0.8 0.6 1.6 0.6 2.6 0 1.5-0.5 2.9-1.6 3.9-1.1 1.1-2.4 1.6-4 1.6q-2.2 0-3.7-1.2-2.3-2-5-3.2-2.8-1.3-6.4-1.3c-2.2 0-4.3 0.5-6.1 1.4q-2.9 1.3-4.9 3.6-2.1 2.2-3.3 5.3c-0.8 2.1-1.2 4.2-1.2 6.5v0.2c0 2.3 0.4 4.5 1.2 6.6 0.8 2.1 1.9 3.9 3.3 5.4 1.4 1.5 3.1 2.7 5 3.6 2 0.9 4.1 1.3 6.5 1.3 2.4 0 4.6-0.5 6.5-1.3 2-0.9 3.8-2 5.4-3.4 0.3-0.4 0.8-0.6 1.4-0.9 0.6-0.3 1.2-0.4 2-0.4 1.4 0 2.7 0.5 3.7 1.6 1 1 1.5 2.2 1.5 3.7 0 1.6-0.6 2.8-1.7 3.8q-3.6 3.4-8.1 5.4c-3.1 1.5-6.9 2.1-11.4 2.1z"/>
			<path fill="#ef4123" d="m817.2 425.3c0 1.7-0.6 3.1-1.8 4.3q-1.7 1.7-4.4 1.7c-1.7 0-3.1-0.6-4.3-1.7-1.3-1.1-1.8-2.6-1.8-4.3v-2.7q-2.7 3.8-6.6 6.5c-2.6 1.9-6 2.8-10.1 2.8-6.2 0-10.9-1.8-14.1-5.5-3.3-3.6-5-8.6-5-14.8v-28.1q0-2.6 1.8-4.4 1.8-1.7 4.3-1.7 2.7 0 4.4 1.7 1.8 1.8 1.8 4.4v24.5q0 6.3 2.9 9.5 3 3.3 8.5 3.3 5.5 0 8.8-3.4c2.2-2.2 3.3-5.4 3.3-9.6v-24.3q0-2.6 1.7-4.4 1.8-1.7 4.4-1.7c1.7 0 3.2 0.6 4.4 1.7 1.2 1.2 1.8 2.7 1.8 4.4v41.8zm-22.1-53.5c-1.4 0-2.6-0.2-3.7-0.5-1.1-0.3-2.2-1-3.3-2.2l-6.9-6.4c-1.2-1-1.7-2-1.7-3 0-0.5 0.2-1 0.7-1.4q0.7-0.7 1.7-1.2c0.7-0.4 1.5-0.7 2.4-0.9 0.8-0.3 1.7-0.4 2.5-0.4q3 0 4.8 2.9l5.8 8.8c0.2 0.4 0.4 0.7 0.6 1.1 0.2 0.4 0.3 0.8 0.3 1.1 0 1.4-1 2.1-3.2 2.1z"/>
			<path fill="#ef4123" d="m832.5 383.5q0-2.6 1.7-4.3c1.1-1.2 2.6-1.7 4.3-1.7q2.7 0 4.4 1.7 1.8 1.7 1.8 4.3v2.6c1.8-2.4 3.9-4.6 6.5-6.4 2.6-1.8 6-2.8 10.2-2.8q9.2 0 14.1 5.5c3.3 3.6 4.9 8.5 4.9 14.7v28.3c0 1.7-0.6 3.1-1.7 4.3-1.2 1.1-2.6 1.7-4.4 1.7q-2.6-0.1-4.4-1.7c-1.1-1.1-1.7-2.6-1.7-4.3v-24.6q0-6.3-3-9.6c-2-2.2-4.8-3.3-8.4-3.3q-5.5 0-8.8 3.4c-2.2 2.3-3.3 5.5-3.3 9.7v24.3q0 2.6-1.8 4.3c-1.1 1.2-2.6 1.7-4.4 1.7-1.7 0-3.1-0.6-4.3-1.7-1.1-1.1-1.7-2.6-1.7-4.3z"/>
			<path fill-rule="evenodd" fill="#ef4123" d="m918.9 447q-5.7 0-10.7-1.2-5-1.2-9.9-3.5-3.4-1.3-3.5-4.8c0-1.3 0.5-2.5 1.6-3.5q1.5-1.5 3.6-1.5c0.7 0 1.4 0.1 2.3 0.5q3.6 1.9 7.7 3.1c2.6 0.7 5.5 1.1 8.7 1.1q8.1 0 12.5-4.1c2.9-2.7 4.4-6.7 4.4-12.1v-4.1c-2.3 2.9-4.8 5.2-7.8 7q-4.5 2.8-11 2.7c-3.2 0-6.2-0.5-9.1-1.6-2.9-1.2-5.5-2.8-7.7-4.9q-3.4-3.1-5.4-7.7-2.1-4.6-2.1-10.4v-0.3q0-5.8 2.1-10.4 		q2-4.7 5.4-7.8c2.2-2.1 4.8-3.7 7.7-4.8 2.9-1.2 5.9-1.7 9.1-1.7q6.7 0 11.2 2.6c3 1.8 5.4 3.9 7.5 6.4v-2.5c0-1.7 0.6-3.1 1.8-4.3q1.7-1.7 4.3-1.7 		q2.7 0 4.4 1.7 		q1.8 1.8 1.8 4.4v36.5		q0 13.2-6.8 19.9		q-7.3 7-22.1 7zm1.1-30.7		q3.1 0 6-1 		q2.9-1.1 5-3c1.4-1.2 2.6-2.8 3.4-4.5		q1.2-2.8 1.2-5.9v-0.2		q0-3.2-1.2-5.9c-0.9-1.9-2-3.4-3.4-4.7-1.4-1.2-3.1-2.2-5-2.9-1.9-0.7-3.9-1.1-6-1.1		q-3.2 0-6 1.1c-1.8 0.7-3.4 1.7-4.8 2.9		q-2.1 2-3.3 4.6c-0.7 1.8-1.1 3.7-1.1 5.9v0.2		q0 3.2 1.2 5.9c0.8 1.8 1.9 3.3 3.2 4.6		q2.1 1.9 4.8 2.9c1.9 0.7 3.9 1.1 6 1.1z"/>
			<path fill="#ef4123" d="m1022.7 426.5c-0.8 1.6-1.7 2.8-2.8 3.8-1.1 1-2.5 1.5-4.2 1.5h-0.6		q-2.6 0-4.2-1.4c-1.1-1-2-2.3-2.8-3.9l-17.8-40.3		q-0.2-0.7-0.4-1.5c-0.2-0.5-0.3-1-0.3-1.5 0-1.5 0.6-2.9 1.8-4.1		q1.7-1.7 4.3-1.7 		q2.5 0 3.9 1.3c0.9 0.8 1.6 1.8 2.1 3.1l13.8 35 13.9-35.2		q0.7-1.6 2.1-2.9c0.9-0.8 2.1-1.2 3.7-1.2 1.7 0 3.1 0.5 4.2 1.6		q1.7 1.7 1.7 4.1		q0 0.8-0.2 1.6		q-0.3 0.8-0.5 1.3z"/>
			<path fill="#ef4123" d="m1110.2 372c0 3.9-0.7 6.8-2.1 9.1-1.4 2.2-4 3.5-7.9 4v40.3c0 1.6-0.6 3-1.8 4.2		q-1.7 1.8-4.4 1.8c-1.7 0-3.1-0.6-4.3-1.7-1.3-1.1-1.8-2.6-1.8-4.3v-2.8		q-2.7 3.8-6.6 6.5c-2.6 1.9-6 2.8-10.1 2.8-6.2 0-10.9-1.8-14.1-5.5		q-5-5.4-4.9-14.8v-28.1		q0-2.6 1.7-4.4 		q1.8-1.7 4.3-1.7 		q2.7 0 4.4 1.7 		q1.8 1.8 1.8 4.4v24.5		q0 6.3 3 9.5		q2.9 3.3 8.4 3.3		q5.5 0 8.8-3.4c2.2-2.2 3.3-5.4 3.3-9.6v-24.3		q0-2.6 1.7-4.4 		q1.8-1.7 4.4-1.7 		q1 0 2 0.3c1-0.1 1.8-0.2 2.4-0.5 0.6-0.2 1-0.6 1.3-1.1		q0.4-0.7 0.4-1.7c0.1-0.6 0.1-1.3 0.1-2.2v-0.3		q0-2 1.3-3.3 		q1.3-1.3 4-1.3 		q2.1 0 3.4 1.3 		q1.3 1.3 1.3 3.3v0.1z"/>
			<path fill-rule="evenodd" fill="#ef4123" d="m1140.9 432q-6.1 0-11.3-2.1-5.2-2.1-9-5.9		q-3.8-3.7-5.9-8.7c-1.4-3.3-2.2-6.8-2.2-10.6v-0.2c0-3.8 0.8-7.4 2.2-10.7 1.4-3.3 3.5-6.3 6-8.7		q3.8-3.8 9-6c3.4-1.5 7.3-2.2 11.4-2.2 2 0 4.1 0.2 6 0.6 0.5 0 1.2 0 2 0		q1.2 0.1 2.4 0 		q1.3 0 2.2 0.1c0.6 0 0.9 0 1 0		q1.9 0 3-0.3 		q1-0.4 1.4-1.1 		q0.5-0.7 0.6-1.7 		q0.1-1 0.1-2.4v-0.2		q0-2 1.3-3.3c0.8-0.9 2.2-1.3 4-1.3		q2.1 0 3.3 1.3 		q1.3 1.3 1.4 3.3v0.1		q0 5.4-1.8 8.6		q-1.8 3.2-6.8 4.2		q3.8 3.8 6 8.8		q2.3 5 2.3 10.7v0.2c0 3.8-0.7 7.3-2.2 10.6-1.4 3.3-3.4 6.3-6 8.7		q-3.7 3.8-9 6		q-5.3 2.2-11.4 2.2zm0.2-10.6		q3.7 0 6.7-1.3		q3-1.4 5.1-3.6		q2.1-2.3 3.3-5.3		q1.1-3.1 1.1-6.5v-0.1c0-2.3-0.4-4.6-1.2-6.6		q-1.2-3.1-3.4-5.4c-1.4-1.5-3.2-2.8-5.2-3.7		q-2.9-1.3-6.6-1.3		q-3.6 0-6.6 1.3		q-3 1.4-5.1 3.6		q-2.2 2.3-3.2 5.4c-0.8 2-1.2 4.2-1.2 6.4v0.2		q0 3.5 1.2 6.5		q1.3 3.1 3.4 5.4c1.5 1.5 3.2 2.7 5.2 3.6 2 0.9 4.1 1.4 6.5 1.4z"/>
			<path fill="#ef4123" d="m1181.9 383.5q0.1-2.6 1.8-4.3c1.1-1.2 2.6-1.7 4.3-1.7		q2.7 0 4.4 1.7 		q1.8 1.7 1.8 4.3v2.6c1.7-2.4 3.9-4.6 6.5-6.4		q3.9-2.8 10.2-2.8 		q9.1 0 14.1 5.5c3.3 3.6 4.9 8.5 4.9 14.7v28.3c0 1.7-0.6 3.1-1.7 4.3-1.2 1.1-2.6 1.7-4.4 1.7		q-2.6-0.1-4.4-1.7c-1.2-1.1-1.8-2.6-1.8-4.3v-24.6		q0-6.3-2.9-9.6c-2-2.2-4.8-3.3-8.5-3.3		q-5.4 0-8.7 3.4		q-3.3 3.4-3.3 9.7v24.3		q0 2.6-1.8 4.3c-1.1 1.2-2.6 1.7-4.4 1.7-1.7 0-3.1-0.6-4.3-1.7-1.2-1.1-1.8-2.6-1.8-4.3z"/>
			<path fill="#ef4123" d="m1292.9 431.7c-2.2 0-4.2-0.3-6.1-0.8-1.9-0.5-3.5-1.4-4.9-2.6-1.4-1.2-2.5-2.8-3.2-4.7		q-1.2-3-1.2-7.4v-27.7h-2		q-2.2 0-3.7-1.5c-1-1-1.5-2.3-1.5-3.7 0-1.5 0.5-2.7 1.5-3.7 1-1 2.2-1.5 3.7-1.5h2v-9c0-1.7 0.6-3.1 1.8-4.3 1.2-1.2 2.7-1.7 4.4-1.7		q2.5 0 4.3 1.7c1.2 1.1 1.8 2.6 1.8 4.3v9h9.6		q2.2 0 3.8 1.5c1 1 1.6 2.2 1.6 3.7		q-0.1 2.2-1.6 3.7		q-1.6 1.5-3.8 1.5h-9.6v25.9c0 2.3 0.6 4 1.7 5		q1.7 1.6 4.8 1.6c0.8 0 1.4 0 2-0.1		q0.8-0.2 1.1-0.2 		q2 0 3.6 1.5c1 1 1.6 2.1 1.6 3.6 0 1.1-0.3 2.1-1 2.9		q-0.9 1.3-2.3 1.7		q-2 0.7-4 1.1c-1.3 0.3-2.8 0.2-4.4 0.2z"/>
			<path fill-rule="evenodd" fill="#ef4123" d="m1332 431.9q-3.8 0-7.2-1c-2.3-0.7-4.3-1.8-6-3.1		q-2.6-2.1-4.2-5.2		q-1.5-3-1.5-7v-0.2		q0-4.3 1.6-7.5c1.1-2.1 2.6-3.9 4.5-5.3 1.9-1.4 4.2-2.4 7-3.1 2.7-0.8 5.7-1.1 8.9-1.1 3 0 5.7 0.2 7.9 0.6 2.2 0.4 4.4 0.9 6.5 1.6v-1.3c0-3.8-1.2-6.7-3.4-8.6-2.3-2-5.6-2.9-9.9-2.9-2.4 0-4.5 0.2-6.4 0.5		q-2.9 0.6-5.4 1.6c-0.8 0.2-1.4 0.3-1.9 0.3		q-2.1 0-3.7-1.5c-1-0.9-1.5-2.1-1.5-3.5		q0-1.7 0.9-3c0.7-0.9 1.5-1.5 2.4-1.8 2.6-0.9 5.2-1.7 8-2.3		q4-0.8 9.3-0.8		q11.9 0 17.7 5.9c3.8 3.8 5.7 9.2 5.7 16.3v26		q0 2.5-1.7 4.1c-1.2 1.1-2.5 1.7-4.2 1.7		q-2.6 0-4.3-1.6		q-1.7-1.5-1.7-3.5v-2		q-2.7 3.2-7 5.4c-2.8 1.6-6.3 2.3-10.4 2.3zm2.8-62.8c-1.3 1.2-2.5 1.9-3.6 2.3-1.2 0.3-2.4 0.5-3.8 0.5-0.8 0-1.4-0.2-2-0.5-0.5-0.3-0.8-0.9-0.8-1.5		q0-1 1.2-2.4l6.7-8.4		q1.1-1.4 2.5-2.1c0.8-0.5 2-0.7 3.4-0.7h3.6		q2.1 0 3.5 0.7		q1.3 0.7 2.4 2.1l6.7 8.4		q1.2 1.4 1.2 2.4		q0 0.9-0.9 1.5c-0.5 0.3-1.2 0.5-2 0.5-1.4 0-2.7-0.2-3.8-0.5-1.1-0.3-2.3-1.1-3.7-2.3l-5.2-4.4zm0.5 53.9		q3.1 0 5.7-0.8c1.8-0.5 3.2-1.2 4.5-2.3		q1.9-1.4 3-3.5c0.7-1.4 1.1-3 1.1-4.7v-3.6		q-2.4-0.9-5.4-1.5c-2-0.4-4.3-0.6-6.8-0.6		q-6 0-9.3 2.3c-2.1 1.6-3.2 3.7-3.2 6.5v0.2c0 2.5 1 4.5 2.9 5.9 2 1.4 4.5 2.1 7.5 2.1zm24-63.9		q-2.1 0-3.7-0.4c-1.1-0.4-2.2-1.1-3.4-2.3l-6.8-6.4c-1.2-0.9-1.7-2-1.7-2.9 0-0.5 0.2-1 0.6-1.4		q0.7-0.7 1.7-1.3c0.8-0.3 1.5-0.6 2.4-0.9 0.9-0.2 1.7-0.3 2.5-0.3		q3.1 0 4.9 2.9l5.8 8.8c0.1 0.3 0.4 0.7 0.5 1.1 0.2 0.4 0.4 0.7 0.4 1.1 0 1.3-1.1 2-3.2 2z"/>
			<path fill="#ef4123" d="m1376 383.5q0-2.6 1.7-4.3c1.1-1.2 2.6-1.7 4.4-1.7		q2.6 0 4.4 1.7 		q1.7 1.7 1.7 4.3v2.5		q1.3-1.8 2.9-3.4c1-1.1 2.1-2 3.5-2.9 1.3-0.8 2.8-1.5 4.4-2		q2.5-0.8 5.6-0.8		q5.7 0 9.8 2.6		q4 2.5 6.1 6.7c2.2-2.8 4.7-5.1 7.6-6.7		q4.4-2.6 10.4-2.6		q8.9 0 13.9 5.3		q4.9 5.2 4.9 14.9v28.2c0 1.7-0.6 3.2-1.8 4.3-1.1 1.2-2.6 1.7-4.3 1.7		q-2.7 0-4.4-1.7c-1.2-1.1-1.8-2.6-1.8-4.3v-24.5		q0-6.3-2.8-9.6		q-2.8-3.2-8-3.3		q-5.2 0-8.3 3.4		q-3.1 3.3-3.1 9.7v24.3		q0 2.6-1.8 4.3c-1.2 1.2-2.6 1.7-4.3 1.7-1.8 0-3.3-0.6-4.4-1.7-1.2-1.1-1.8-2.6-1.8-4.3v-24.6c0-4.2-0.9-7.4-2.8-9.6-1.9-2.1-4.5-3.2-8-3.2-3.5 0-6.2 1.2-8.3 3.5-2.1 2.4-3.2 5.6-3.2 9.6v24.3		q0 2.6-1.7 4.3c-1.2 1.2-2.7 1.7-4.4 1.7-1.8 0-3.1-0.6-4.4-1.7-1.1-1.1-1.7-2.6-1.7-4.3z"/>
		</g>
	</g>
</svg>