<svg xmlns="http://www.w3.org/2000/svg" version="1.0" width="1000" height="331" viewBox="0 0 1000 330.99999" id="Layer_1" xml:space="preserve"><defs id="defs166" /><polygon id="polygon5" points="143.153,76.619 155.816,19.884 132.089,19.871 119.447,76.646 91.243,76.633 103.873,19.871 42.051,19.871 39.997,29.04 78.092,29.04 74.083,47.098 35.66,47.098 33.451,56.715 73.327,56.715 68.875,76.633 0.743,76.633 17.816,0 187.687,0 181.664,27.668 199.567,27.668 206.24,0 232.636,0 215.562,76.646 188.945,76.633 195.102,47.197 177.688,47.197 170.573,76.633 " transform="matrix(4.3123337,0,0,4.3123337,-3.2040639,0.23843561)" /></svg>
