<svg viewBox="-0.03 -0.03 1400.1 452.4" xmlns="http://www.w3.org/2000/svg"><path d="M401.01 14.832v422.68c0 4.124-1.445 7.628-4.336 10.511s-6.394 4.32-10.52 4.32h-92.82c-4.54 0-8.158-1.437-10.836-4.32-2.679-2.876-4.018-6.38-4.018-10.496v-132.13c0-4.117-1.446-7.613-4.329-10.496-2.883-2.876-6.38-4.32-10.496-4.32h-127.27c-4.533 0-8.135 1.445-10.814 4.32-2.679 2.883-4.01 6.38-4.01 10.496v132.13c0 4.117-1.446 7.62-4.322 10.496-2.883 2.883-6.379 4.32-10.488 4.32H14.808c-4.525 0-8.127-1.437-10.799-4.32C1.331 445.14 0 441.636 0 437.512V14.832c0-4.117 1.332-7.62 4.01-10.503C6.681 1.446 10.283 0 14.81 0h91.942c4.11 0 7.606 1.446 10.488 4.321 2.876 2.876 4.321 6.372 4.321 10.481v146.2c0 4.117 1.332 7.613 4.011 10.488 2.679 2.876 6.281 4.314 10.814 4.314h127.27c4.117 0 7.613-1.438 10.496-4.314 2.883-2.875 4.329-6.371 4.329-10.488v-146.2c0-4.109 1.339-7.605 4.018-10.48S288.794 0 293.334 0h92.82c4.125 0 7.629 1.445 10.52 4.328s4.336 6.387 4.336 10.503zM645.38 129.51v25.759c0 4.094 1.438 7.575 4.329 10.435 2.883 2.86 6.386 4.29 10.503 4.29h166.86c4.116 0 7.612 1.446 10.496 4.33 2.883 2.89 4.328 6.394 4.328 10.51v86.555c0 4.124-1.445 7.628-4.329 10.511-2.883 2.89-6.379 4.329-10.496 4.329h-166.86c-4.116 0-7.62 1.445-10.503 4.32-2.89 2.884-4.328 6.387-4.328 10.504v136.47c0 4.124-1.438 7.627-4.313 10.503-2.876 2.883-6.365 4.32-10.466 4.32h-92.972c-4.11 0-7.598-1.437-10.473-4.32-2.876-2.884-4.306-6.387-4.306-10.511V14.835c0-4.117 1.43-7.62 4.306-10.503C530.03 1.448 533.52.003 537.629.003h314.16c4.116 0 7.62 1.453 10.503 4.344 2.883 2.898 4.328 6.417 4.328 10.549v84.996c0 4.139-1.445 7.658-4.328 10.549-2.884 2.898-6.387 4.343-10.503 4.343h-191.57c-4.117 0-7.62 1.438-10.503 4.298-2.891 2.861-4.329 6.342-4.329 10.428zM1090.6 14.083c1.65-3.708 4.427-6.901 8.347-9.58 3.912-2.679 8.135-4.018 12.668-4.018h86.517c4.116 0 8.127 1.339 12.047 4.018 3.912 2.679 6.697 5.872 8.347 9.58l180.45 420.33c1.642 3.708 1.331 7.628-.931 11.744-2.27 4.124-6.697 6.183-13.288 6.183h-105.67c-4.54 0-8.763-1.34-12.675-4.026-3.912-2.68-6.894-5.88-8.952-9.603l-16.686-37.156c-2.066-3.716-5.055-6.917-8.968-9.603-3.912-2.679-7.93-4.026-12.047-4.026h-130.39c-4.532 0-8.755 1.347-12.668 4.026-3.92 2.686-6.697 5.887-8.346 9.603l-17.3 37.156c-1.65 3.723-4.434 6.924-8.346 9.603-3.913 2.686-7.93 4.026-12.047 4.026h-106.29c-2.059 0-4.223-.41-6.493-1.234-2.263-.825-4.117-2.058-5.562-3.708-1.438-1.65-2.369-3.708-2.785-6.183-.4-2.466.212-5.357 1.862-8.656l179.21-418.48zm36.459 268.75h55.007c4.117 0 7.098-1.34 8.952-4.018 1.854-2.68 1.756-5.872-.302-9.58-4.125-10.292-9.066-22.346-14.832-36.15s-11.124-26.674-16.065-38.623c-1.65-3.708-3.512-5.562-5.57-5.562s-3.912 1.854-5.554 5.562l-30.905 74.773c-1.65 3.708-1.65 6.9 0 9.58s4.737 4.018 9.27 4.018z"/></svg>
