<svg version="1.2" xmlns="http://www.w3.org/2000/svg" viewBox="0 0 1539 515" width="1539" height="515">
  <title>Masan</title>
  <defs>
    <clipPath id="cp1" clipPathUnits="userSpaceOnUse">
      <path d="m1925-385.74v6160.32h-6164.53v-6160.32z"/>
    </clipPath>
  </defs>
  <g clip-path="url(#cp1)">
    <g>
      <path fill="#00447c" d="m1538.2 0.8v342.2h-342.4v-342.2z"/>
      <path fill="#4f8abe" d="m1452.6 86.4v256.6h-256.8v-256.6z"/>
      <path fill="#00447c" d="m1367 171.9v342.2h-342.4v-342.2z"/>
      <path fill="#4f8abe" d="m1281.4 257.5v256.6h-256.8v-256.6z"/>
      <path fill="#95b9d8" d="m1195.8 343v171.1h-171.2v-171.1z"/>
      <path fill="#00447c" fill-rule="evenodd" d="m0.9 257.5h43.9l26.8 91.4 28.5-91.4h43v125.8h-26.7v-107.7l-34.4 107.7h-22.2l-33.5-107.7v107.7h-25.4zm283.5 0l48.1 125.4h-29.9l-10-27.2h-54.8l-10.4 27.2h-28.1l49.8-125.4zm0.9 78.3l-19.5-53.9-20.3 53.9zm132.7 9c0 5.9-0.5 24 22.6 24 15 0 24-6.8 24-17.6 0-10.9-7.7-13.1-24-16.8-29.9-7.7-46.2-16.3-46.2-38 0-20.8 15-38.9 49.8-38.9 13.2 0 28.6 2.7 38.1 14.5 6.8 9 6.8 19.4 6.8 23.5h-25.8c-0.5-4.5-1.8-19-20.4-19-12.2 0-20.4 6.8-20.4 16.7 0 11.8 9.1 14.1 27.2 18.6 21.7 5 43 10.9 43 35.3 0 22.6-18.6 41.2-53.4 41.2-48.5 0-48.5-31.2-49-43.5zm212-87.3l48.5 125.4h-29.9l-10-27.2h-54.8l-10.4 27.2h-28.5l50.2-125.4zm0.5 78.3l-19-53.9-20.4 53.9zm111.4-78.3h39l47.1 98.7v-98.7h25.3v125.4h-37.1l-48.9-104.1v104.1h-25.4zm-290.3 211.8c0-1.8-0.5-4.1-1.8-6.3-2.7-4.6-7.7-5-10.4-5-15.4 0-18.6 14-18.6 24 0 4 0.4 11.7 5.4 16.7 3.2 3.6 7.3 5.4 14.5 5.4 6.8 0 9.1-0.9 10.4-1.3v-13.1h-12.2v-10.4h25.8v31.2c-4.1 1.3-10.4 3.6-23.1 3.6-14.5 0-21.7-3.6-26.7-8.1-6.8-7.3-8.2-17.2-8.2-23.6 0-22.2 13.6-34.4 32.7-34.4 8.1 0 16.7 2.3 21.7 8.2 4.1 4.5 4.1 9.5 4.5 13.1z"/>
      <path fill="#00447c" fill-rule="evenodd" d="m510.9 449.8h24c7.3-0.4 14.1-0.4 19 4.1 4.1 3.6 5.9 8.1 5.9 12.2 0 11.8-10.4 14.5-13.1 15.4 9.1 0.9 10 6.3 11.3 14.5 0.9 7.2 1.4 10.4 1.8 12.2 0.5 2.7 0.9 3.2 1.8 4.1h-14.9c-0.5-3.2-2.3-19-3.2-21.7-1.3-3.7-4.5-3.7-6.8-3.7h-11.7v25.4h-14.1zm13.6 27.6h10.9c1.3 0 4.5 0 6.8-1.8 0.9-0.5 3.1-2.7 3.1-7.3 0-4-1.8-6.3-3.1-6.7-1.8-1.9-4.6-1.9-8.6-1.9h-9.1zm106.9-28.5c6.8 0 16.3 1.4 22.2 8.6 6.8 7.7 8.1 17.2 8.1 23.6 0 9-2.7 19-8.1 24.4-6.8 8.2-17.2 9.1-22.2 9.1-8.2 0-16.8-2.8-22.2-8.6-6.8-7.3-7.7-17.7-7.7-23.6 0-16.7 7.3-33.5 29.9-33.5zm-11.3 50.7c1.8 2.7 5.4 5 11.3 5 5.4 0 9.5-1.8 11.8-5.9 2.2-3.2 4.5-7.7 4.5-18.1 0-2.7-0.4-7.2-1.8-10.9-2.7-7.6-7.7-11.3-14-11.3-5.5 0-9.1 2.3-11.8 5.5-3.6 4-4.6 10.8-4.6 18.1 0 5.9 1 12.6 4.6 17.6zm99.6-49.3v38.5c0 6.7 0.9 15.3 14.1 15.3 1.8 0 8.6 0 11.7-5.4 1.4-2.2 2.3-4.5 2.3-10.8v-37.6h13.1v39.4c0 18.5-14.9 24.4-27.6 24.4-6.3 0-17.7-1.4-23.5-10.9-3.2-4.5-3.2-9.5-3.2-15.3v-37.6zm88.3 0h19.5c9 0 16.3 0.4 21.7 6.8 3.2 4 3.7 8.6 3.7 11.7 0 7.3-3.2 13.6-7.7 16.8-5 3.2-11.4 3.2-14.5 3.2h-9.1v24.4h-13.6zm13.1 28.1h5.5c4.5 0 12.2 0 12.2-9.5 0-8.6-6.8-8.6-10.9-8.6h-6.8z"/>
    </g>
  </g>
</svg>