<svg xmlns="http://www.w3.org/2000/svg" role="img" viewBox="471 -72.7 1051.6 254.7">
 <title>Taboola</title>
 <g transform="matrix(1.3333333,0,0,-1.3333333,0,254.73333)">
  <g transform="scale(0.1)">
   <path fill="#054164" d="M4960.8,2032.6v420.9H3532.5v-420.9h461.1l0.2-1233.3h505.6l-0.2,1233.3H4960.8"/>
   <path fill="#054164" d="M5380.9,1228.9c-7.7-124.6-88.9-186.4-192.7-185.8c-83,0.5-142.6,56.2-142.3,111.7c0.4,80.7,53.6,105.7,155.4,128.3c62.2,13.5,124.7,29.3,180.2,56.7L5380.9,1228.9z M5818.5,1067.1l2.7,491.6c1.4,230.8,7.4,468.5-564.9,471.8c-284,1.6-602.7-52-618.4-388.8l424.6-2.4c2.5,50.7,30.7,122,171.5,121.3c73.8-0.4,149.7-30.9,149.2-111.8c-0.4-76.1-62.8-94.2-125.2-105.5c-233.2-42.4-676.3-25.9-678.6-404.4c-1.3-251.6,189.5-363.4,420.2-364.8c147.8-0.8,288.8,30.6,386.2,140.8h4.7c-2.6-32.2,4.1-80.8,15.4-113.2l466.2-2.7C5821.9,875.5,5817.9,977.2,5818.5,1067.1"/>
   <path fill="#054164" d="M6519.4,1097.6c-163.8,0.9-199.8,155.9-199,299c0.8,140.7,38.6,295.1,202.4,294.1c163.9-0.8,199.9-155.8,199.1-296.5C6721.1,1251.1,6683.3,1096.8,6519.4,1097.6z M6672.6,2022.3c-136.2,0.7-258.9-58.6-328.6-159.7h-4.6l3.3,593.5h-456.9V799.3h431.1l0.8,128.9h4.6c57.3-76.6,126-162.3,349.9-163.7c339.1-1.9,504.9,331.8,506.7,631.7C7180.5,1677.8,7074,2019.9,6672.6,2022.3"/>
   <path fill="#054164" d="M8950.5,1527.8c-173.2,1-195.2,171.9-194.4,298.8c0.7,126.9,24.8,295.3,197.8,294.3c173-0.9,195.1-169.6,194.4-296.5C9147.6,1697.4,9123.4,1526.8,8950.5,1527.8z M7816.5,1527.7c-173.1,1.1-195.1,172-194.4,298.9c0.8,126.8,24.8,295.2,198,294.2c173.1-0.9,195.1-169.5,194.4-296.5C8013.7,1697.4,7989.5,1526.8,7816.5,1527.7L7816.5,1527.7z M8955.9,2453.2c-284.9,1.7-471.4-115.7-570.4-286.3c-98.1,168.3-282.2,284.7-563.5,286.3c-450,2.7-654.7-291.4-656.7-623.8c-2-332.3,199.4-631.2,649.4-633.8c285-1.6,471.4,116.7,570.5,288.1c98-169,282.2-286.5,563.4-288.2c450-2.5,654.9,294,656.8,626.3C9607.2,2154,9405.9,2450.6,8955.9,2453.2"/>
   <path fill="#054164" d="M9654.6,799.3h447.2v1653.8h-447.2V799.3"/>
   <path fill="#054164" d="M10934,1233.1c-7.6-124.7-88.7-186.4-192.6-185.9c-83,0.5-142.7,56.2-142.3,111.6c0.5,80.7,53.5,105.8,155.4,128.4c62.2,13.4,124.7,29.3,180.2,56.5L10934,1233.1z M11374.5,1071.3v491.6c1.4,230.8,7.3,468.5-565,471.7c-283.9,1.8-602.7-51.8-618.5-388.7l424.9-2.3c2.5,50.7,30.6,122,171.4,121.3c74-0.4,149.8-30.9,149.3-111.7c-0.4-76.1-62.9-94.3-125.2-105.5c-233.4-42.5-676.2-25.9-678.5-404.4c-1.5-251.6,189.4-363.4,420.2-364.9c147.8-0.8,288.6,30.7,386.1,140.9l4.7-0.1c-2.6-32.2,5.1-87.4,16.4-119.8h459.3C11369,875.7,11374.1,981.3,11374.5,1071.3"/>
   <path fill="#054164" d="M7336.6,1195.4l-2.4-399.2c356.8-168.3,637.8-248.4,1027.7-250.7c357.8-2.1,716.9,86.5,1048,250.7l2.2,399.2c-370-140.9-662.2-213.7-1047.5-211.4C7997.7,986.1,7661,1050.5,7336.6,1195.4"/>
  </g>
 </g>
</svg>
