<svg xmlns="http://www.w3.org/2000/svg" xml:space="preserve" viewBox="0 0 504 504"><g fill="#64ae55"><path d="M375.585 15.39c12.28-.18 24.69-1.82 36.89.09.92 1.69 2.26 3.29 2.39 5.29.67 7.74-1.51 15.32-3.25 22.78-13.7 52.45-25.33 105.5-41.74 157.2.08-13.63.94-27.25 1.08-40.88.96-12.96.38-25.97 1.34-38.93 1.02-35.19 2.13-70.36 3.29-105.55M334.305 22.27c8.09-2.85 16.6-4.71 25.17-5.23.12 30.63 1.32 61.23 1.43 91.85.99 23.33.33 46.72 1.49 70.05-.01 16.14.43 32.27.57 48.41-25.58-.55-51.05 2.64-76.28 6.52-.19-10.97-.01-21.96-.71-32.92-.23-36.02-1.34-72.02-1.56-108.03-.75-9.72-.45-19.46-.64-29.19 6.81-6.28 13.37-12.83 20.33-18.96 9.27-8.43 18.33-17.79 30.2-22.5M238.725 109.02c11.32-12.04 22.92-23.81 34.8-35.29.21 25.74-.62 51.46-.59 77.19-.16 28.48-.34 56.96-.5 85.44-11.49 2.13-22.91 4.57-34.28 7.22-.51-8.89-.18-17.8.25-26.68.03-35.96.34-71.92.32-107.88M216.255 133.92c7.37-8.09 14.3-16.59 22.14-24.23-2.39 45.42-6.22 90.74-9.01 136.13-26.7 6.94-52.95 15.66-78.26 26.68.78-.44 1.56-.87 2.34-1.31-.09-8.79 1.07-17.53 1.35-26.31.97-13.63 1.64-27.29 2.56-40.93-.24-3.75 3.15-5.99 5.23-8.6 17.67-20.67 35.7-41.02 53.65-61.43M97.475 276.27c12.44-15.25 24.51-30.8 37.12-45.92 1.94 15.76 3.07 31.61 4.95 47.38-13.64 6.57-27.1 13.55-39.95 21.56-19.93 12.2-37.88 27.26-55.48 42.55 1.62-2.95 3.74-5.57 5.88-8.14 15.54-19.38 31.67-38.27 47.48-57.43M199.895 403.32c4.24-.16 8.48-.14 12.71-.06-.09 15.73-.06 31.47-.01 47.21-3.91-.28-8.83 1.06-11.77-2.3-.98-4.68-.2-9.51-.48-14.25-.67-10.19-.23-20.4-.45-30.6"/></g><path fill="#00528e" d="M286.685 233.87c25.23-3.88 50.7-7.07 76.28-6.52-7.8 16.55-16.58 33.54-31.38 44.93-24.59 19.02-53.83 30.97-83.5 39.54-23.85 6.82-48.02 12.51-72.3 17.59-17.44 3.91-35.14 6.32-52.81 8.87-26.52 3.83-53.32 6.72-80.15 5.87l-.96-.05c.73-.78 1.48-1.53 2.25-2.26 17.6-15.29 35.55-30.35 55.48-42.55 12.85-8.01 26.31-14.99 39.95-21.56 3.82-1.84 7.69-3.55 11.58-5.23 25.31-11.02 51.56-19.74 78.26-26.68 2.92-.76 5.84-1.51 8.77-2.24 11.37-2.65 22.79-5.09 34.28-7.22 4.72-.95 9.49-1.71 14.25-2.49M378.795 377.84c10.72-1.05 22.25.88 30.94 7.61 4.59 3.5 8.58 8.54 8.78 14.55.17 5.29 0 10.58.07 15.88-.02 4.27.38 8.8-1.7 12.71-3.8 7.69-11.94 12.12-19.87 14.46-10.65 2.67-22.43 2.25-32.4-2.62-5.26-2.67-10.37-6.39-12.92-11.87-2.63-5.51-1.49-11.77-1.71-17.65.17-6.45-1.06-13.64 2.91-19.26 5.84-8.38 16-12.69 25.9-13.81m.37 11.9c-5.79 1.12-12.58 3.99-14.33 10.19-.43 6.65-.07 13.34-.18 20.01-.37 4.12 2.56 7.63 5.96 9.55 5.93 3.59 13.2 3.79 19.88 2.84 5.42-1.26 11.86-4.08 13.28-10.03.45-6.78.13-13.6.17-20.39.23-3.68-2.33-6.74-5.25-8.62-5.74-3.66-12.88-4.6-19.53-3.55M462.735 377.82c10.23-.98 21.11.87 29.6 6.93 4.76 3.3 8.96 8.19 9.58 14.16.29 5.34.04 10.69.13 16.03-.09 4.73.58 9.81-1.84 14.12-4.07 7.51-12.16 11.86-20.12 14.14-11.39 2.68-24.08 1.94-34.35-4.05-5.43-3.2-10.47-8.04-11.84-14.41-.69-4.93-.23-9.92-.35-14.88.14-5.97-.93-12.55 2.64-17.81 5.8-8.77 16.38-13.2 26.55-14.23m-3.2 12.7c-4.51 1.44-9.56 4.04-10.97 8.91-.57 7.95-.84 16 .09 23.93 2.2 5.42 8.22 8.05 13.64 9.09 4.99.5 10.24.69 15.03-1.06 4.37-1.55 9.17-4.47 10.1-9.39.32-6.7.07-13.42.13-20.12.23-4.06-3-7.24-6.23-9.16-6.57-3.65-14.63-4.3-21.79-2.2M3.985 380.69c1.99-1.68 4.74-1.43 7.16-1.51 10.68.04 21.36 0 32.05.03 8.25-.07 17.08 4.31 20.4 12.18 2.92 6.64 1.05 14.84-4.32 19.69 2.88 3.33 5.51 7.24 5.61 11.8.76 7.02-3.47 13.8-9.48 17.18a26.34 26.34 0 0 1-13.22 3.31c-10.69.01-21.38.01-32.06 0-2.51.02-5.37-.38-7.01-2.48-1.19-1.72-1.13-3.91-1.18-5.9.05-16.03.03-32.05.01-48.08.04-2.18.12-4.8 2.04-6.22m12.81 10.11c-.01 4.83-.01 9.65-.02 14.48 8.8-.04 17.6.1 26.4-.05 3.81.02 7.41-3.42 6.86-7.34.47-4.37-3.93-7.26-7.89-7.05-8.45-.14-16.9.01-25.35-.04m-.02 26.31c0 4.8.02 9.59-.01 14.39 8.48-.01 16.96.03 25.44 0 2.53.1 5.2-.77 6.68-2.93 2.94-4.13.45-11.02-4.94-11.32-9.04-.35-18.11-.06-27.17-.14M99.685 385.28c1.93-4.92 7.71-6.39 12.48-6.54 4.15.28 8.94 1.02 11.64 4.55 1.78 2.74 2.81 5.87 4.19 8.82 7.62 17.07 15.06 34.21 22.78 51.23-5.28-.53-11.61 1.64-16.05-2.09-3.35-4.43-4.43-10.12-7.29-14.85-.25-.14-.75-.43-1-.57-9.58-.31-19.17.09-28.75-.19-3.14 5.72-5.35 11.88-8.2 17.74-4.18-.11-8.55.56-12.51-1.15q-.555-1.335-1.11-2.64c7.52-18.28 15.95-36.18 23.82-54.31m2.8 28.94c6.56-.03 13.12-.02 19.69-.02-3.22-7.45-6.55-14.85-9.92-22.23-3.13 7.47-6.54 14.82-9.77 22.25M161.475 384.84c-.28-3.55 3.37-5.9 6.61-5.6 27.59-.1 55.2-.01 82.79-.04-.01 21.4.1 42.81-.05 64.21-4.12-.3-8.73.79-12.46-1.46-2.11-1.27-2.06-3.92-2.06-6.06.05-14.06-.02-28.11.04-42.17-15.06.01-30.12.01-45.18.03-5.08.04-10.19-.26-15.24.44.14 16.39.01 32.78.06 49.18-4.03-.19-8.38.7-12.12-1.19-2.29-1.22-2.55-3.97-2.46-6.27.07-17.02-.06-34.05.07-51.07M274.595 379.46c11.51-.62 23.09-.06 34.63-.28 7.52-.42 15.56 2.38 20.22 8.51 4.72 6.04 4.72 15.41-.34 21.25-.42.91-2.3 1.98-1.16 3.04 3.69 4 5.71 9.44 4.81 14.9-1.35 9.8-11.27 16.14-20.63 16.43-10.65.16-21.3 0-31.95.08-2.89-.1-6.27.26-8.52-1.91-1.54-1.39-1.62-3.62-1.67-5.53-.01-16.34.03-32.69-.02-49.03-.37-3.19 1.08-6.96 4.63-7.46m10.16 11.34c-.04 4.82-.04 9.65-.04 14.48 8.84-.04 17.67.09 26.5-.05 4.21.02 7.66-4.06 6.76-8.22-.04-3.94-4.11-6.25-7.67-6.15-8.52-.18-17.04 0-25.55-.06m-.02 26.32c-.02 4.79 0 9.58-.02 14.38 9.15-.11 18.31.24 27.44-.15 3.79-.24 5.74-3.88 6.32-7.22-.73-1.95-1.2-4.23-3.03-5.47-2.04-1.71-4.82-1.54-7.3-1.58-7.81.04-15.61 0-23.41.04M276.435 463.03c1.95-4.85 10.4-4.6 12.05.39 3.76 8.45 7.43 16.95 11.28 25.37-2.31-.12-4.7.2-6.93-.51-1.68-2.1-2.5-4.73-3.56-7.16-4.62-.27-9.24-.47-13.85-.01-1.09 2.55-2.19 5.09-3.22 7.67-2.28-.08-4.84.35-6.65-1.37 3.71-8.09 7.18-16.29 10.88-24.38m1.53 12.51c2.95.03 5.9.04 8.86.02-1.52-3.3-3.01-6.62-4.57-9.9-1.35 3.33-2.81 6.61-4.29 9.88M319.855 460.6c5.29-1.69 10.92-.65 16.37-.92 4.58-.28 9.52 1.91 11.39 6.31 1.77 4.78-1 9.77-5.4 11.86 2.19 3.55 4.11 7.25 6.15 10.89-2.42-.14-5.04.4-7.31-.62-2.26-2.93-3.67-6.39-5.7-9.46-2.97-.02-5.94-.04-8.9-.05-.01 3.41 0 6.82-.03 10.23-2.14-.45-5.41.75-6.51-1.77-.33-8.81-.12-17.65-.06-26.47m6.57 4.52c.02 2.71.03 5.44.05 8.17 4.02-.11 8.07.26 12.07-.2 3.7-.86 3.89-6.64.29-7.73-4.11-.55-8.28-.14-12.41-.24M416.265 463.03c2.2-5.29 11.29-4.36 12.48 1.29 3.54 8.18 7.21 16.32 10.81 24.48-2.29-.18-4.74.28-6.9-.58-1.79-2.01-2.47-4.73-3.54-7.14-4.62-.09-9.24-.11-13.85.01-1.07 2.54-2.18 5.07-3.21 7.63-2.01-.43-5.85 1.15-6.26-1.74 3.21-8.1 6.99-15.97 10.47-23.95m1.55 12.54c2.93 0 5.86 0 8.8-.01-1.47-3.31-2.97-6.62-4.42-9.93-1.48 3.3-2.92 6.63-4.38 9.94M461.775 461.42c2.26-2.61 6.07-1.52 9.09-1.75-4.48 6.17-9.54 11.95-13.71 18.33-.44 3.6-.11 7.25-.18 10.87-2.08-.14-4.15-.31-6.21-.55-.4-3.48-.38-6.99-.33-10.48-3.95-5.89-9.3-10.9-12.3-17.38 2-.45 4.04-.78 6.1-.95 3.21 4.09 6.22 8.34 9.6 12.3 2.66-3.45 5.14-7.05 7.94-10.39M479.955 459.8c7.66-1.88 17.58-.37 21.45 7.37-2.19.47-4.79 2.21-6.78.35-3.93-3.45-9.92-4.26-14.54-1.74-1.83.75-2.36 3.78-.42 4.67 4.2 2.11 9.14.35 13.56 1.62 3.82.81 7.84 3.47 8.15 7.71.15 4.31-3.65 7.57-7.52 8.64-7.93 2.25-18.28 1.09-22.65-6.83 2.14-.77 4.78-2.39 6.9-.66 2.55 1.99 5.63 3.45 8.96 3.24 2.75-.21 6.18-.51 7.68-3.2.38-2.18-1.73-3.66-3.68-3.73-4.07-.32-8.21-.12-12.22-.99-3.78-.89-7.54-4.18-7.1-8.37.26-4.29 4.36-7.12 8.21-8.08M304.705 460.47c2.05-.39 4.11-.75 6.18-1.09.87 9.79.25 19.64.38 29.46-2.17-.12-4.32-.27-6.46-.52-.46-9.28-.3-18.58-.1-27.85M355.825 460.54c2.15-.53 4.35-.87 6.57-1.04.03 6.83-.13 13.67.05 20.5-.23 1.87 1.52 3 3.08 3.52 3.05 1.22 6.98.57 9.18-1.95.78-6.52-.17-13.13.43-19.66.62-2.9 4.37-1.94 6.52-2.4.1 6.13.03 12.27.03 18.4-1.47 7.02 10.12 8.28 12.65 2.97.46-6.8-.14-13.64.33-20.45 2.08-.36 4.17-.68 6.28-.94.48 7.12.58 14.31.02 21.43-.09 3.05-2.61 5.29-5.11 6.65-5.47 2.8-12.31 2.29-17.49-.91-6.95 4.44-18.94 3.86-22.45-4.59-.5-7.16-.19-14.36-.09-21.53"/><path fill="#4fbdee" d="M362.965 227.35c33.2.55 66.76 2.64 98.94 11.44-31.45 22.05-63.88 43.01-98.88 59.03-39.9 18.76-82.27 31.92-125.41 40.75-60.53 12.59-123.13 15.43-184.5 7.83-3.5-.4-6.95-1.18-10.29-2.25 26.83.85 53.63-2.04 80.15-5.87 17.67-2.55 35.37-4.96 52.81-8.87 24.28-5.08 48.45-10.77 72.3-17.59 29.67-8.57 58.91-20.52 83.5-39.54 14.8-11.39 23.58-28.38 31.38-44.93"/></svg>