<svg xmlns="http://www.w3.org/2000/svg" width="88mm" height="22mm" viewBox="0 0 88 22">
	<path fill="#00528e"
		d="M61.49 21.197c.066 0 .708-.006.967-.017.26-.01 1.279-.057 2.053-.15s3.202-.406 4.286-.626 3.777-.758 6.101-1.51c2.323-.75 4.349-1.913 5.166-2.937.38-.477.602-.855.781-1.18.204-.373.342-.676.479-.958-.238-.006-1-.024-2.366.1-1.163.103-2.318.294-2.444.314-.241.04-.63.107-.904.157a51 51 0 0 0-2.161.458 36.12 36.12 0 0 0-3.094.895c-1.128.377-2.177.833-2.252.865-.155.067-.35.154-.871.393a25 25 0 0 0-2.971 1.647c-.807.526-1.626 1.184-2.241 1.707-.433.367-.765.668-.921.807l.142.018c.03.003.184.015.25.016" />
	<path fill="#4fbdee"
		d="M81.323 13.82c-.137.282-.275.584-.479.958a8 8 0 0 1-.781 1.18c-.817 1.024-2.843 2.186-5.166 2.937-2.324.752-5.017 1.29-6.101 1.51s-3.512.534-4.286.626a31 31 0 0 1-2.053.149 35 35 0 0 1-.967.017 5 5 0 0 1-.25-.016l-.142-.018s.045.023.11.044c.065.022.164.047.228.059s.218.04.348.057a34.7 34.7 0 0 0 3.033.239c.931.022 2.839.106 5.735-.257 2.747-.344 6.35-1.182 9.05-2.298s4.244-2.022 5.136-2.592 2.831-1.872 2.831-1.872c-2.601-.717-5.745-.71-6.246-.723" />
	<path fill="#64ae55"
		d="M82.115.464s1.457-.08 2.11-.036c.079.006.439.02.37.715-.045.48-.316 1.498-.4 1.826l-.77 3.08c-.045.18-.473 1.906-.904 3.482-.371 1.357-.756 2.602-.774 2.677ZM81.323 13.82c-.238-.006-1-.024-2.366.099-1.163.104-2.318.295-2.444.315l-.181-10.722.075-.072q.74-.706 1.495-1.393C78.509 1.495 79.054.993 79.87.78a10 10 0 0 1 1.223-.23zM61.098 21.162c.134-.186.647-.827.997-1.252.254-.31 1.822-2.192 2.797-3.378.361-.439.635-.793.739-.922.383-.479 1.301-1.603 1.301-1.603L67.231 17v.001a25 25 0 0 0-2.971 1.647c-.807.526-1.626 1.184-2.241 1.707-.433.368-.765.668-.921.807M72.894 14.987c-.417.105-1.305.344-2.54.757a30 30 0 0 0-2.252.865l.273-4.435c1.372-1.605 2.79-3.208 4.16-4.758.298-.339.62-.69.954-1.047zM75.61 14.39a51 51 0 0 0-2.162.458l.055-8.494a71 71 0 0 1 2.178-2.214z" />
	<path fill="#00528e"
		d="m1.882 18.825.434-.979.436.979Zm.978-1.286c-.114-.258-.5-.264-.544-.264s-.431.006-.545.264c-.091.206-.755 1.709-1.024 2.309-.067.149.04.253.205.253l.363.001.34-.767h1.32l.253.567c.067.151.188.199.319.199l.449.001zM15.464 18.825l.434-.979.436.979Zm.98-1.286c-.116-.258-.502-.264-.546-.264s-.43.006-.545.264c-.09.206-.755 1.709-1.023 2.309-.067.149.04.253.205.253l.362.001.34-.767h1.321l.252.567c.067.151.188.199.32.199l.45.001zM5.114 17.287h-.32c-.223 0-.32.1-.32.266v2.278c0 .247.224.266.344.266h.295V17.93zM13.207 19.229v-1.676c0-.166.097-.266.32-.266h.32v1.942c0 .169-.021.369-.291.609-.34.3-.846.323-1.004.323s-.59-.023-.908-.293c-.36.267-.765.293-.978.293s-.56-.06-.813-.234c-.255-.175-.413-.363-.413-.698v-1.676c0-.166.097-.266.32-.266h.32v1.942c0 .18.08.24.159.295a.86.86 0 0 0 .463.124c.21 0 .404-.08.463-.125.084-.064.159-.115.159-.294v-1.676c0-.166.097-.266.32-.266h.317v1.942c0 .18.08.24.16.296a.87.87 0 0 0 .463.123c.21 0 .404-.08.462-.125.085-.064.159-.114.159-.294M7.64 18.597H6.591V17.8H7.64c.356 0 .424.28.424.399 0 .116-.068.398-.424.398m.576.586a1 1 0 0 0-.126-.146c.107-.05.505-.21.603-.69.1-.481-.288-.91-.692-1.017-.157-.05-.31-.043-.365-.043H6.272c-.223 0-.32.1-.32.266v2.278c0 .246.226.266.345.266h.295v-.983h.744c.087 0 .162.027.211.117.05.089.366.66.4.726.031.065.168.145.33.145h.443s-.468-.87-.505-.92M19.282 19.03l1.331-1.743h-.533a.42.42 0 0 0-.342.163c-.079.1-.752.985-.752.985h-.052l-.878-1.148h-.364c-.077 0-.159.022-.19.09a.19.19 0 0 0 .018.177c.026.037 1.122 1.475 1.122 1.475v.806c0 .246.226.266.345.266h.295ZM23.568 18s-.195.074-.304.106a.44.44 0 0 1-.338-.053c-.068-.053-.096-.11-.17-.155-.07-.044-.271-.18-.683-.167-.411.014-.718.158-.718.374 0 .217.166.286.55.326.385.04.622-.059 1.085.112.464.171.593.496.593.7s-.151.917-1.408.917-1.48-.776-1.48-.776.184-.06.267-.094a.5.5 0 0 1 .257-.009c.139.03.194.123.217.145.143.132.31.196.607.22.353.03.926-.05.898-.395-.027-.327-.571-.315-.866-.3-.221.01-.61-.012-.916-.16-.288-.14-.546-.499-.416-.873.175-.505.748-.698 1.339-.698.237 0 .515.036.765.132.333.127.618.353.72.647M5.451 10.333H2.256V8.53h3.195c.818 0 .972.637.972.902 0 .264-.154.902-.972.902m0 3.258H2.256v-1.804h3.195c.818 0 .972.638.972.902 0 .265-.154.902-.972.902m2.063-2.524c.473-.394.787-1.032.73-1.854-.065-.945-1.029-2.138-2.793-2.138H1.417q-.986 0-.986.755v6.475q0 .755.986.755h4.034c1.61 0 2.63-.989 2.77-2.01.117-.86-.195-1.534-.707-1.983M38.8 10.333h-3.195V8.53H38.8c.818 0 .972.637.972.902 0 .264-.154.902-.972.902m0 3.258h-3.195v-1.804H38.8c.818 0 .972.638.972.902 0 .265-.154.902-.972.902m2.063-2.524c.473-.394.787-1.032.73-1.854-.064-.945-1.029-2.138-2.793-2.138h-4.034q-.986 0-.986.755v6.475q0 .755.986.755H38.8c1.61 0 2.63-.989 2.77-2.01.117-.86-.195-1.534-.707-1.983M12.918 11.438l1.23-2.775 1.238 2.775Zm2.776-3.65c-.325-.731-1.42-.748-1.546-.748-.125 0-1.22.017-1.544.749-.26.585-2.142 4.85-2.904 6.55-.19.424.114.72.581.72h1.03l.963-2.173h3.748l.714 1.606c.191.429.535.568.905.568h1.276zM31.397 7.076H21.168c-.633 0-.909.283-.909.754v6.475c0 .699.641.755.98.755h.84V8.905h7.5v5.4c0 .699.641.755.98.755h.838z" />
	<path fill="#64ae55" d="M25.078 10.072v5.237c0 .592.542.639.828.639h.71V10.07z" />
	<path fill="#00528e"
		d="M50.443 11.068v1.17a.96.96 0 0 1-.195.63c-.34.49-1.153.927-2.252.927s-1.911-.436-2.251-.927a.96.96 0 0 1-.195-.63V9.897c0-.191.014-.37.195-.63.34-.49 1.153-.926 2.25-.926 1.1 0 1.913.436 2.253.926a.96.96 0 0 1 .195.63Zm.504-3.356a4.6 4.6 0 0 0-1.36-.623 6 6 0 0 0-1.591-.202q-1.72 0-2.95.825-1.314.88-1.314 2.132v2.427q0 1.271 1.314 2.139 1.223.818 2.95.818 1.7 0 2.95-.818 1.316-.867 1.316-2.14V9.845q-.001-1.251-1.315-2.132M60.84 11.068v1.17a.96.96 0 0 1-.196.63c-.34.49-1.153.927-2.252.927s-1.91-.436-2.25-.927a.96.96 0 0 1-.196-.63V9.897c0-.191.014-.37.195-.63.34-.49 1.153-.926 2.251-.926 1.1 0 1.912.436 2.252.926a.96.96 0 0 1 .195.63Zm.503-3.356a4.6 4.6 0 0 0-1.36-.623 6 6 0 0 0-1.59-.202q-1.72 0-2.95.825-1.315.88-1.315 2.132v2.427q0 1.271 1.314 2.139 1.224.818 2.95.818 1.7 0 2.951-.818 1.315-.867 1.315-2.14V9.845q0-1.251-1.315-2.132" />
</svg>