<svg id="Capa_1" data-name="Capa 1" xmlns="http://www.w3.org/2000/svg" width="95.1mm" height="32mm" viewBox="0 0 269.57 90.72"> <defs> <style> .cls-1 { fill: #178770; } .cls-1, .cls-2 { stroke-width: 0px; } .cls-2 { fill: #f78e31; } </style> </defs> <g> <path class="cls-1" d="M217.36,11.45h3.11c.35,0,.68.05.99.14s.58.24.82.44c.24.2.43.47.58.81.14.34.21.74.21,1.22s-.13.91-.4,1.31c-.27.4-.63.67-1.08.8v.03c.61.14,1.06.43,1.36.87.3.44.45.98.45,1.63,0,1-.27,1.74-.82,2.2-.55.46-1.37.7-2.46.7h-2.76v-10.14ZM218.61,15.83h1.44c.17,0,.35-.02.53-.05.18-.03.37-.11.55-.22.18-.11.34-.29.45-.52.12-.23.18-.53.18-.9,0-.54-.14-.95-.43-1.24s-.72-.43-1.32-.43h-1.41v3.35ZM218.61,20.57h1.7c.62,0,1.07-.18,1.35-.53.28-.36.43-.8.43-1.34,0-.66-.18-1.15-.55-1.46-.37-.31-.85-.47-1.44-.47h-1.49v3.81Z"/> <path class="cls-1" d="M226.72,11.45h1.68l2.73,10.14h-1.31l-.73-2.78h-3.24l-.75,2.78h-1.31l2.93-10.14ZM226.11,17.79h2.73l-1.29-4.9h-.03l-1.41,4.9Z"/> <path class="cls-1" d="M231.83,11.45h1.62l3.35,8.47h.03v-8.47h1.25v10.14h-1.72l-3.25-8.21h-.03v8.21h-1.25v-10.14Z"/> <path class="cls-1" d="M245.94,18.11c-.03.51-.1.99-.23,1.42-.12.44-.3.82-.54,1.17-.24.34-.55.61-.94.8-.39.19-.85.29-1.38.29-.68,0-1.25-.15-1.69-.44-.45-.29-.78-.69-1-1.18-.22-.49-.37-1.04-.45-1.64-.08-.6-.12-1.27-.12-2.01s.04-1.39.13-2c.09-.6.24-1.15.48-1.65.23-.5.57-.89,1.01-1.19.44-.29.99-.44,1.65-.44,1.01,0,1.76.27,2.24.8.48.54.73,1.32.76,2.35h-1.31c-.02-.64-.16-1.16-.41-1.55-.26-.39-.68-.58-1.28-.58-.42,0-.76.11-1.02.32-.26.21-.46.51-.6.89-.13.38-.22.81-.27,1.31-.05.49-.07,1.07-.07,1.73s.02,1.24.07,1.73c.05.49.14.93.27,1.31.13.38.33.67.6.89.27.21.61.32,1.02.32.36,0,.66-.08.9-.23.24-.15.41-.35.53-.6.12-.25.2-.53.26-.83.05-.3.08-.63.09-.99h1.31Z"/> <path class="cls-1" d="M251.89,11.69c.44.29.78.69,1.01,1.18.23.49.39,1.04.48,1.65.09.61.13,1.27.13,2s-.04,1.4-.13,2c-.08.6-.24,1.15-.48,1.65-.23.5-.57.89-1.01,1.19-.44.29-.99.44-1.66.44s-1.21-.15-1.66-.44c-.44-.29-.78-.69-1.01-1.18-.23-.49-.39-1.04-.48-1.65-.08-.61-.13-1.27-.13-2s.04-1.39.13-2c.09-.6.24-1.15.48-1.65.23-.5.57-.89,1.01-1.19.44-.29.99-.44,1.66-.44s1.22.15,1.66.44ZM249.21,12.59c-.26.21-.46.51-.6.89-.13.38-.22.81-.27,1.31-.05.49-.07,1.07-.07,1.73s.02,1.24.07,1.73c.05.49.14.93.27,1.31.13.38.33.67.6.89.27.21.61.32,1.02.32s.76-.11,1.02-.32c.27-.21.46-.51.6-.89.13-.38.22-.81.27-1.31.05-.49.07-1.07.07-1.73s-.02-1.24-.07-1.73c-.05-.49-.14-.93-.27-1.31-.13-.38-.33-.67-.6-.89-.26-.21-.61-.32-1.02-.32s-.76.11-1.02.32Z"/> <path class="cls-1" d="M217.48,26.71h2.71c.76,0,1.38.13,1.85.38.48.26.84.61,1.08,1.06.24.45.4.97.49,1.56.09.59.13,1.28.13,2.07,0,.7-.05,1.35-.16,1.94-.1.59-.28,1.12-.53,1.6-.25.47-.6.85-1.05,1.12-.45.28-1.01.41-1.68.41h-2.84v-10.14ZM218.73,35.83h1.31c.51,0,.93-.12,1.26-.35.33-.24.57-.55.73-.93.16-.38.27-.8.33-1.25.06-.45.09-.95.09-1.5,0-.61-.02-1.13-.06-1.58-.04-.44-.14-.86-.3-1.24-.16-.38-.4-.68-.73-.91-.33-.23-.77-.34-1.31-.34h-1.31v8.1Z"/> <path class="cls-1" d="M225.26,26.71h5.24v1.11h-3.99v3.18h3.76v1.11h-3.76v3.64h4.16v1.11h-5.41v-10.14Z"/> <path class="cls-1" d="M223.56,48.63c-.03.51-.1.98-.23,1.42-.12.44-.3.82-.54,1.17-.24.34-.55.61-.94.8-.39.19-.85.29-1.38.29-.68,0-1.25-.15-1.69-.44-.45-.29-.78-.69-1-1.18-.22-.49-.38-1.04-.45-1.64-.08-.6-.12-1.27-.12-2.01s.04-1.39.13-2c.09-.6.24-1.15.48-1.65.23-.5.57-.89,1.01-1.19.44-.29.99-.44,1.65-.44,1.01,0,1.76.27,2.24.8.48.53.73,1.32.76,2.35h-1.31c-.02-.64-.16-1.16-.41-1.55-.26-.39-.68-.58-1.28-.58-.42,0-.76.11-1.02.32-.26.21-.46.51-.6.89-.13.38-.22.81-.27,1.31-.05.49-.07,1.07-.07,1.73s.02,1.24.07,1.73c.05.49.14.93.27,1.31.13.38.33.68.6.89.27.21.61.32,1.02.32.36,0,.66-.08.9-.23.24-.15.41-.35.53-.6.12-.25.2-.53.26-.83.05-.3.08-.63.09-.99h1.31Z"/> <path class="cls-1" d="M229.51,42.2c.44.29.78.69,1.01,1.18.23.49.39,1.04.48,1.65.09.61.13,1.27.13,2s-.04,1.4-.13,2c-.08.6-.24,1.15-.48,1.65-.23.5-.57.89-1.01,1.19-.44.29-.99.44-1.66.44s-1.21-.15-1.66-.44c-.44-.29-.78-.69-1.01-1.18-.23-.49-.39-1.04-.48-1.65-.08-.61-.13-1.27-.13-2s.04-1.39.13-2c.09-.6.24-1.15.48-1.65.23-.5.57-.89,1.01-1.19.44-.29.99-.44,1.66-.44s1.22.15,1.66.44ZM226.83,43.11c-.26.21-.46.51-.6.89-.13.38-.22.81-.27,1.31-.05.49-.07,1.07-.07,1.73s.02,1.24.07,1.73c.05.49.14.93.27,1.31.13.38.33.68.6.89.27.21.61.32,1.02.32s.76-.11,1.02-.32c.27-.21.46-.51.6-.89.13-.38.22-.81.27-1.31.05-.49.07-1.07.07-1.73s-.03-1.24-.07-1.73c-.05-.49-.14-.93-.27-1.31-.13-.38-.33-.67-.6-.89-.26-.21-.61-.32-1.02-.32s-.76.11-1.02.32ZM228.14,39.39h1.39l-1.53,2.02h-.85l.99-2.02Z"/> <path class="cls-1" d="M232.63,41.96h3.28c.81,0,1.44.23,1.9.68.46.45.7,1.07.7,1.87,0,.63-.12,1.17-.37,1.65-.25.47-.64.78-1.19.91v.03c.43.05.76.23,1.02.54.25.31.39.7.42,1.15l.09,1.73c.03.53.09.9.17,1.12.09.21.21.37.37.48h-1.51c-.09-.09-.17-.28-.23-.57-.06-.28-.1-.58-.11-.9l-.08-1.58c-.03-.33-.09-.6-.18-.8-.1-.2-.21-.35-.35-.45-.14-.09-.28-.16-.44-.18-.16-.03-.33-.04-.53-.04h-1.69v4.52h-1.25v-10.14ZM233.88,46.57h1.24c.28,0,.52-.01.73-.04.21-.03.42-.1.63-.22.21-.12.38-.32.52-.6.14-.28.21-.65.21-1.1,0-.5-.16-.9-.48-1.19-.32-.29-.77-.43-1.35-.43h-1.49v3.58Z"/> <path class="cls-1" d="M240.13,41.96h2.71c.76,0,1.38.13,1.85.38.48.26.84.61,1.08,1.06.24.45.41.97.49,1.56.09.59.13,1.28.13,2.07,0,.7-.05,1.35-.16,1.94-.1.59-.28,1.13-.53,1.6-.25.47-.6.85-1.05,1.12-.45.28-1.01.41-1.68.41h-2.84v-10.14ZM241.38,51.08h1.31c.51,0,.93-.12,1.26-.36.33-.24.57-.55.73-.93.16-.38.27-.8.33-1.25.06-.45.09-.95.09-1.5,0-.61-.02-1.13-.06-1.58-.04-.45-.14-.86-.3-1.24-.16-.38-.4-.68-.73-.91-.33-.23-.77-.34-1.31-.34h-1.31v8.1Z"/> <path class="cls-1" d="M252.68,42.2c.44.29.78.69,1.01,1.18.23.49.39,1.04.48,1.65.09.61.13,1.27.13,2s-.04,1.4-.13,2c-.08.6-.24,1.15-.48,1.65-.23.5-.57.89-1.01,1.19-.44.29-.99.44-1.66.44s-1.21-.15-1.66-.44c-.44-.29-.78-.69-1.01-1.18-.23-.49-.39-1.04-.48-1.65-.08-.61-.13-1.27-.13-2s.04-1.39.13-2c.09-.6.24-1.15.48-1.65.23-.5.57-.89,1.01-1.19.44-.29.99-.44,1.66-.44s1.22.15,1.66.44ZM250.01,43.11c-.26.21-.46.51-.6.89-.13.38-.22.81-.27,1.31-.05.49-.07,1.07-.07,1.73s.02,1.24.07,1.73c.05.49.14.93.27,1.31.13.38.33.68.6.89.27.21.61.32,1.02.32s.76-.11,1.02-.32c.27-.21.46-.51.6-.89.13-.38.22-.81.27-1.31.05-.49.07-1.07.07-1.73s-.03-1.24-.07-1.73c-.05-.49-.14-.93-.27-1.31-.13-.38-.33-.67-.6-.89-.26-.21-.61-.32-1.02-.32s-.76.11-1.02.32Z"/> <path class="cls-1" d="M255.8,41.96h3.11c.35,0,.68.05.99.14.31.09.58.24.82.44.24.2.43.47.57.81.14.34.21.74.21,1.21s-.13.91-.4,1.31c-.27.4-.63.67-1.08.8v.03c.61.14,1.06.43,1.36.87.3.44.45.98.45,1.63,0,1-.27,1.74-.82,2.2-.55.46-1.37.7-2.46.7h-2.76v-10.14ZM257.05,46.34h1.43c.17,0,.35-.02.53-.05.18-.03.37-.11.55-.22.18-.11.34-.29.45-.52.12-.23.18-.53.18-.9,0-.54-.14-.95-.43-1.24-.28-.28-.72-.43-1.32-.43h-1.41v3.35ZM257.05,51.08h1.7c.62,0,1.07-.18,1.35-.53.28-.35.43-.8.43-1.34,0-.66-.18-1.15-.55-1.46-.37-.31-.85-.47-1.44-.47h-1.49v3.81Z"/> <path class="cls-1" d="M265.17,41.96h1.68l2.73,10.14h-1.31l-.72-2.78h-3.24l-.75,2.78h-1.31l2.93-10.14ZM264.56,48.3h2.73l-1.29-4.9h-.03l-1.41,4.9Z"/> </g> <rect class="cls-2" width="16.24" height="90.72"/> <g> <path class="cls-1" d="M36.22,0v17.18c2.01-3.47,5.11-5.2,9.3-5.2,4.76,0,8.12,2.19,10.08,6.58,1.36,2.98,2.04,7.52,2.04,13.62,0,13.98-4.29,20.97-12.87,20.97-2.62,0-4.76-.7-6.43-2.1-.78-.66-1.58-1.71-2.39-3.14v4.32h-7.81V0h8.08ZM43.16,16.44c-2.86,0-4.88,1.53-6.05,4.6-.78,2.09-1.17,5.65-1.17,10.7,0,5.34.49,9.08,1.46,11.23,1.17,2.63,3.03,3.95,5.59,3.95,2.92,0,4.92-1.67,6.01-5,.75-2.22,1.13-5.84,1.13-10.86s-.43-8.57-1.29-10.74c-1-2.58-2.89-3.86-5.67-3.86Z"/> <path class="cls-1" d="M107.69,11.51v4.27c2.68-3.55,6.15-5.32,10.4-5.32,2.84,0,5.18.76,7.01,2.29,1.91,1.55,3,3.95,3.27,7.19.08.83.12,2.33.12,4.51v27h-8.37v-25.25c0-3.16-.17-5.23-.52-6.22-.66-1.97-2.26-2.95-4.78-2.95s-4.42,1.02-5.78,3.07c-.72,1.09-1.08,2.64-1.08,4.66v26.68h-8.25V11.51h7.97Z"/> <path class="cls-1" d="M169.99,10.46c5.77,0,9.86,2.07,12.27,6.22,1.84,3.14,2.76,8.16,2.76,15.05s-1.12,12.38-3.37,15.76c-1.33,2.01-2.98,3.44-4.95,4.32-1.98.9-4.56,1.35-7.76,1.35-3.44,0-6.17-.65-8.2-1.94-4.52-2.82-6.78-9.28-6.78-19.37,0-7.58,1.27-13,3.82-16.28,2.65-3.41,6.73-5.11,12.23-5.11ZM169.54,16.44c-2.73,0-4.66,1.39-5.77,4.16-.92,2.24-1.38,6.07-1.38,11.48s.49,9.29,1.46,11.48c1.11,2.48,2.97,3.72,5.56,3.72,2.82,0,4.75-1.45,5.81-4.36.89-2.43,1.34-6.23,1.34-11.41s-.49-9.25-1.46-11.52c-1-2.38-2.86-3.56-5.56-3.56Z"/> <path class="cls-1" d="M189.14,11.13h7.92v6.2c1.23-2.2,2.47-3.78,3.7-4.74,1.85-1.46,3.98-2.2,6.39-2.2.56,0,1.22.04,1.97.12v7.88c-.91-.13-1.76-.2-2.53-.2-3.7,0-6.41,1.29-8.12,3.88-.59.89-.94,1.79-1.05,2.71-.05.5-.08,1.26-.08,2.27v24.39h-8.2V11.13Z"/> <path class="cls-1" d="M149,47.21c-2.29,0-4.02-.99-5.18-2.96-1.21-2.13-1.82-6.35-1.82-12.66,0-4.87.43-8.47,1.3-10.81,1.05-2.89,2.98-4.34,5.79-4.34.88,0,1.66.15,2.35.43v-6.3c-.76-.08-1.55-.12-2.39-.12-5.04,0-8.89,1.67-11.53,5.01-2.62,3.29-3.92,8.78-3.92,16.49,0,4.76.43,8.52,1.3,11.28,1.19,3.84,3.14,6.56,5.87,8.17,1.97,1.18,4.59,1.78,7.85,1.78,1.01,0,1.95-.05,2.83-.14v-6.3c-.71.31-1.52.48-2.43.48Z"/> <path class="cls-1" d="M83.41,37.65c0,2.93-.48,5.04-1.43,6.34-1.47,1.99-3.47,2.99-5.97,2.99-3.55,0-5.32-2.05-5.32-6.14,0-2.05.42-3.63,1.27-4.75.76-1.01,2.28-1.88,4.54-2.59,2.16-.66,3.92-1.29,5.29-1.89v-5.66c-.32.22-.66.43-1.08.6-.79.35-2.8.96-6.02,1.84-2.62.69-4.41,1.22-5.36,1.59-1.66.61-2.99,1.41-3.97,2.39-2.13,2.07-3.19,5.08-3.19,9.02s.93,6.65,2.78,8.7c1.8,1.99,4.46,2.99,7.98,2.99,3.82,0,6.79-1.18,8.92-3.55.68-.75,1.32-1.65,1.92-2.71.11,1.36.42,2.47.94,3.35,1.01,1.65,3.04,2.47,6.1,2.47,1.47,0,2.93-.23,4.38-.68v-5.35c-.46.13-.89.2-1.27.2-1.12,0-1.83-.42-2.13-1.28-.19-.61-.29-1.66-.29-3.15v-18.71c0-3.88-.38-6.56-1.15-8.02-1.91-3.64-6.1-5.47-12.56-5.47-5.54,0-9.53,1.45-11.99,4.35-1.66,1.94-2.48,4.97-2.45,9.1h7.82c0-2.55.37-4.37,1.11-5.47,1.04-1.54,2.78-2.31,5.24-2.31,3.73,0,5.67,1.85,5.86,5.5h.04v16.29Z"/> </g> </svg>
