<svg id="Final_wordmark_Dev" data-name="Final wordmark Dev" xmlns="http://www.w3.org/2000/svg" viewBox="0 0 899.99 898.06"><defs><style>.cls-1{fill:#ff0028;}.cls-2{fill:#fff;}</style></defs><polygon class="cls-1" points="315.87 430.81 311.43 505.98 358.19 493.45 316.75 430.57 315.87 430.81"/><path class="cls-1" d="M844,476l56-33.47-20.87-11.61h0l-100.78,27L732.12,285.49l30.77-8.24,38.75,144.63L843,410.8l49.75-42.21-61.42-22,42.22-49.75-64.21-11.63,33.41-56.05-65.24-.83,23.65-60.8-64.48,10L750,113.6,688,134l2.67-65.19L632.88,99.11l-8-64.75-52,39.36L554.21,11.18,509.39,58.6,480.69,0,444.36,54.19l-38-53L379.42,60.58,333.29,14.43l-16.91,63L263.31,39.5l-6.26,64.94L198.42,75.82l4.6,65.09-62.56-18.55,15.25,63.44-64.75-8,25.44,60.09-65.2,2.69,34.94,55.1L22.27,309l43.54,48.61L5,381.34l51,40.72L0,455.53l57,31.72L7.27,529.47l61.42,22L26.48,601.24l64.2,11.63-33.41,56,65.25.82L98.86,730.55l64.48-10L150,784.46,212,764l-2.67,65.19L267.11,799l8,64.75,52-39.36,18.59,62.54,44.82-47.42,28.7,58.6,36.33-54.2,38,53,26.94-59.43,46.13,46.15,16.91-63,53.08,37.95,6.25-64.95,58.63,28.63L697,757.15l62.56,18.55-15.25-63.45,64.75,8-25.44-60.09,65.2-2.69-34.94-55.1L877.72,589l-43.53-48.6L895,516.72ZM234.36,603.68,198.79,470.94l-3.88,143.31-26.69,7.15-75-122.17L128.78,632,98,640.22,51.8,467.78l46.67-12.5L168.59,569.4l3.66-133.89L218.92,423l46.21,172.44Zm167-44.74L375,519l-65.36,17.52-2.82,47.79L276,592.53l13.54-188.44,36.69-9.84,106,156.43ZM542.88,366.21l38.7,144.44-30.77,8.24-38.7-144.44-63,16.88,38.7,144.44L457.05,544l-38.7-144.43L369,412.81l-7.5-28L584.77,325l7.51,28ZM646.43,493.27,600.22,320.83,710.81,291.2l7.5,28-79.82,21.39,11,41.07L722.81,362l7.45,27.81L657,409.47,669.69,457,751,435.23l7.5,28Z"/><polygon class="cls-2" points="584.77 324.97 361.45 384.81 368.95 412.81 418.35 399.57 457.05 544.01 487.82 535.77 449.12 391.33 512.11 374.45 550.81 518.89 581.58 510.64 542.88 366.21 592.28 352.97 584.77 324.97"/><polygon class="cls-2" points="172.25 435.51 168.59 569.4 98.47 455.28 51.8 467.78 98 640.22 128.78 631.97 93.21 499.23 168.22 621.4 194.91 614.25 198.79 470.94 234.36 603.68 265.13 595.44 218.93 423 172.25 435.51"/><polygon class="cls-2" points="751.04 435.23 669.69 457.02 656.95 409.47 730.26 389.83 722.81 362.02 649.5 381.67 638.5 340.59 718.31 319.2 710.81 291.2 600.22 320.83 646.43 493.27 758.54 463.23 751.04 435.23"/><path class="cls-2" d="M326.21,394.25l-36.69,9.84L276,592.53l30.83-8.26,2.82-47.79L375,519l26.34,40,30.83-8.26ZM311.43,506l4.44-75.17.88-.24,41.44,62.88Z"/><polygon class="cls-2" points="801.64 421.88 762.89 277.25 732.12 285.49 778.33 457.93 879.12 430.92 842.97 410.81 842.97 410.8 801.64 421.88"/><path class="cls-1" d="M790.53,763.52h-2.95V745.59h6.8a8.23,8.23,0,0,1,4.89,1.21,4.57,4.57,0,0,1,1.65,3.94,4.39,4.39,0,0,1-1.34,3.55,6.16,6.16,0,0,1-3.34,1.35l5,7.88h-3.34l-4.63-7.67h-2.77Zm3.29-10.18c.55,0,1.07,0,1.58-.06a3.57,3.57,0,0,0,1.32-.37,2.39,2.39,0,0,0,.91-.85,2.84,2.84,0,0,0,.34-1.53,2.11,2.11,0,0,0-.36-1.3,2.59,2.59,0,0,0-.93-.74,3.89,3.89,0,0,0-1.26-.32,12.41,12.41,0,0,0-1.34-.07h-3.55v5.24Z"/><path class="cls-1" d="M793.77,770.88a16.33,16.33,0,1,1,16.33-16.33A16.35,16.35,0,0,1,793.77,770.88Zm0-29.8a13.48,13.48,0,1,0,13.48,13.47A13.48,13.48,0,0,0,793.77,741.08Z"/></svg>
