<svg version="1.2" xmlns="http://www.w3.org/2000/svg" viewBox="0 0 1454 1460" width="1454" height="1460"><defs><linearGradient id="P" gradientUnits="userSpaceOnUse"/><radialGradient id="g1" cx="0" cy="0" r="1" href="#P" gradientTransform="matrix(929.086,0,0,929.086,582.449,501.978)"><stop stop-color="#fff"/><stop offset=".5" stop-color="#bf921e"/><stop offset="1" stop-color="#836522"/></radialGradient></defs><style>.a{fill:url(#g1)}</style><path fill-rule="evenodd" class="a" d="m712.6 951.1q10.3 2.6 20.5 2.6 2.6 7.7 2.6 15.4c-46.2 28.2-92.4 53.9-138.6 79.6-18 7.7-33.4 18-48.8 23.1q-28.2 15.5-59 28.3-53.9 25.7-107.8 46.2c-7.8-7.7-20.6-15.4-30.9-20.5-5.1-20.6-5.1-43.7-7.7-64.2q-2.5-18-5.1-36 0-18-2.6-36-2.5-28.2-5.1-56.5v-2.5q0-20.6-2.6-41.1c18 0 30.8-10.3 38.5-25.7 113 41.1 231.1 69.3 346.6 87.3zm-207.9-891.3c10.2-10.3 17.9-23.1 30.8-30.8 7.7-5.2 17.9-5.2 25.6-7.8 51.4-12.8 102.7-17.9 151.5-20.5h28.2l5.2 2.6c77 0 154 15.4 228.4 41.1q-100.1-7.7-200.2 0-25.7 2.5-51.3 7.7-48.8 7.7-97.6 18-61.6 17.9-120.6 38.5c-10.3 5.1-23.1 0-33.4-2.6 10.3-15.4 23.1-30.8 33.4-46.2zm-92.4 69.3q-43.7-5.1-84.8-7.7c56.5-35.9 118.1-66.8 182.3-87.3-18 25.7-38.5 48.8-53.9 74.5-15.4 2.6-30.8 10.3-43.6 20.5zm531.3-79.6c18 0 33.4 0 51.4 2.6q51.3 20.5 100.1 48.8c95 53.9 174.5 133.5 236.2 223.5q46.2 69.3 77 148.9-25.7 30.9-53.9 59.1-20.6 18-41.1 38.5c-7.7-7.7-18-15.4-30.8-12.8-10.3-2.6-23.1 5.1-30.8 12.8-2.6-2.5-5.2-5.1-5.2-5.1-23.1-18-43.6-38.5-66.7-56.5q-28.2-20.6-59-43.7-30.8-20.5-61.7-43.6-30.8-20.6-64.1-43.7c-25.7-15.4-51.4-30.8-77-48.8-59.1-30.8-115.6-66.8-174.6-95.1-77-38.5-159.2-66.7-241.3-87.3q0-10.3 0-20.5c15.4-5.2 30.8-12.9 46.2-18q53.9-19.3 107.8-30.8c36-7.7 71.9-15.5 107.8-20.6 30.8-2.6 61.6-7.7 92.5-7.7 30.8-2.6 59-2.6 87.2 0zm295.2 539.4c-5.1 15.4-5.1 30.9-2.5 46.3q-36 28.2-74.5 56.5-23.1 18-46.2 33.4-17.9 15.4-35.9 25.7c-25.7 17.9-51.4 35.9-77 51.3-36 25.7-74.5 48.8-110.4 72h-2.6q-20.5 12.8-41 28.2c-12.9-7.7-25.7-15.4-41.1-15.4-28.3 0-53.9 15.4-66.8 38.5-38.5-7.7-77-12.8-115.5-20.5-87.3-15.4-172-36-254.1-64.2-2.6-28.3-18-54-43.7-66.8q0-23.1 0-48.8c0-38.6 5.2-77.1 7.7-115.6q7.7-113 33.4-226.1 10.3-59 30.8-115.6 10.3-35.9 25.7-66.7c2.6-10.3 12.8-10.3 20.5-12.9 18-2.6 30.8-15.4 43.7-25.7 69.3 15.4 136 41.1 200.2 69.4 66.7 28.2 128.3 64.2 190 100.2 43.6 25.6 84.7 51.3 125.7 79.6q36 25.7 69.3 51.4 20.6 12.8 41.1 28.2 15.4 12.9 30.8 25.7 18 12.8 36 25.7v2.6q28.2 20.5 56.4 43.6zm-857.3-423.8c-102.7 51.4-195.1 118.2-279.9 195.2 51.4-87.3 120.7-164.4 205.4-223.5 28.2-2.5 59 2.6 89.9 5.2-5.2 7.7-7.7 18-15.4 23.1zm990.8 783.4q25.7-7.7 53.9-12.8c-43.6 143.8-130.9 274.8-249 369.9-128.3 100.2-287.5 156.7-449.2 154.1-28.2 0-53.9 0-82.1-5.1-46.3-2.6-92.5-15.4-138.7-28.3-23.1-7.7-46.2-15.4-69.3-28.2-15.4-23.2-28.2-51.4-41-79.7q-18-53.9-30.9-107.9c10.3-2.5 20.6-5.1 28.3-15.4q5.1-15.4-2.6-33.4 25.7-10.2 51.4-20.5 41-18 82.1-36 30.8-15.4 64.2-30.8 82.1-41.1 161.7-84.8c33.4 25.7 84.7 15.5 107.8-20.5q7.7 2.6 15.4 2.6 25.7 0 51.4 2.5c15.4 0 30.8 2.6 43.6 2.6 35.9 0 71.9 2.6 107.8 2.6 46.2-2.6 92.4-2.6 136.1-7.7q79.5-7.7 159.1-23.2zm-1296.3-249.1q-36-25.7-71.9-51.4c7.7-66.8 25.7-133.6 51.3-195.2 2.6-10.3 7.7-20.6 12.9-30.8 7.7-12.9 12.8-28.3 25.6-38.6 12.9-12.8 28.3-25.7 43.7-38.5 51.3-43.7 105.2-79.6 161.7-113q43.6-28.3 89.9-51.4 10.2 5.1 17.9 12.9-25.6 53.9-43.6 113c-30.8 100.2-48.8 205.5-59.1 308.2-2.5 23.1-2.5 46.3-5.1 66.8 0 28.3-2.6 56.5-2.6 84.8-12.8 2.5-25.6 10.2-33.3 23.1 0 2.6-2.6 5.1-5.2 7.7q-61.6-28.3-120.6-61.7-30.8-17.9-61.6-35.9zm1375.9 82.2c-35.9-51.4-79.6-97.6-123.2-141.3 2.6-18 2.6-36-2.6-53.9 30.8-30.9 61.6-64.3 87.3-97.7 15.4 41.1 25.7 84.8 33.4 125.9 7.7 56.5 7.7 110.5 5.1 167zm0 18q-5.1 59-20.5 118.1c-100.1 23.1-200.3 33.4-300.4 36q-53.9 0-107.8 0c-10.3 0-23.1-2.6-35.9-2.6-18 0-36-2.6-53.9-2.6q-33.4-2.5-66.8-7.7-2.5-7.7-2.5-15.4c59-33.4 118-69.3 174.5-107.9 20.5-15.4 41.1-30.8 64.2-43.6q23.1-18 46.2-36 51.3-38.5 100.1-79.6 10.3 10.3 25.7 15.4c15.4 0 30.8-5.1 43.6-15.4 46.2 43.6 92.4 89.9 133.5 141.3zm-1150 377.6q-61.6 17.9-123.2 33.3c-69.4-82.1-123.3-177.2-151.5-282.5-12.8-41.1-18-82.2-23.1-125.9v2.6c-5.1-43.7-5.1-89.9 0-133.6q20.5 18 43.6 33.4c23.1 15.4 43.7 28.3 66.8 41.1 15.4 10.3 30.8 18 46.2 28.3 33.4 12.8 64.2 30.8 95 43.6 2.5 28.3 20.5 54 46.2 66.8q0 12.9 2.5 28.3 0 15.4 2.6 33.4c2.6 25.7 5.1 48.8 7.7 71.9q2.6 20.5 5.1 41.1 2.6 30.8 7.7 61.6c-12.8 2.6-25.6 7.8-30.8 18-2.5 12.9 0 25.7 5.2 38.6zm41 30.8c15.4 61.6 38.6 120.7 66.8 179.8-82.2-41.1-156.6-97.6-218.2-164.4 41.1-7.7 82.1-18 123.2-33.4q12.8 10.3 28.2 18z"/></svg>