<svg version="1.1" id="Layer_1" xmlns="http://www.w3.org/2000/svg" xmlns:xlink="http://www.w3.org/1999/xlink" x="0px" y="0px" viewBox="72.8 468.1 200 156.7" style="enable-background:new 72.8 468.1 200 156.7;" xml:space="preserve">
 <style type="text/css">
  .st0{fill:#FFFFFF;}
 </style>
 <g transform="translate(5791 21308.662)">
  <path class="st0" d="M-5677.7-20793.8l-40.5,110h76.4l21.9-62.9l-35.5,21l14.6-40.6l-31.2-27.5H-5677.7z M-5601.6-20815.3l0.8,2.2
		l-2.1-1.2l-2.1,1.2l0.8-2.2l-1.7-1.5h2.2l0.7-2l0.7,2h2.2L-5601.6-20815.3z M-5598.8-20799.6l-1.7-1.5h2.2l0.7-2l0.7,2h2.2
		l-1.7,1.5l0.8,2.2l-2.1-1.2l-2.1,1.2L-5598.8-20799.6z M-5593.5-20831l0.8,2.2l-2.1-1.2l-2.1,1.2l0.8-2.2l-1.7-1.5h2.2l0.7-2l0.7,2
		h2.2L-5593.5-20831z M-5590.7-20815.3l-1.7-1.5h2.2l0.7-2l0.7,2h2.2l-1.7,1.5l0.8,2.2l-2.1-1.2l-2.1,1.2L-5590.7-20815.3z
		 M-5585.4-20799.6l-1.7-1.5h2.3l0.7-2l0.7,2h2.2l-1.7,1.5l0.8,2.2l-2.1-1.2l-2.1,1.2L-5585.4-20799.6z M-5580.1-20831l0.8,2.2
		l-2.1-1.2l-2.1,1.2l0.8-2.2l-1.7-1.5h2.3l0.7-2l0.7,2h2.2L-5580.1-20831z M-5577.3-20815.3l-1.7-1.5h2.2l0.7-2l0.7,2h2.2l-1.7,1.5
		l0.8,2.2l-2.1-1.2l-2.1,1.2L-5577.3-20815.3z M-5572.1-20799.6l-1.7-1.5h2.2l0.7-2l0.7,2h2.2l-1.7,1.5l0.8,2.2l-2.1-1.2l-2.1,1.2
		L-5572.1-20799.6z M-5605.1-20832.5l-1.7,1.5l0.8,2.2l-2.1-1.2l-2.1,1.2l0.8-2.2l-1.7-1.5h2.2l0.7-2l0.7,2H-5605.1z
		 M-5624.8-20832.5l-1.7,1.5l0.8,2.2l-2.1-1.2l-2.1,1.2l0.8-2.2l-1.7-1.5h2.2l0.7-2l0.7,2H-5624.8z M-5632.3-20816.8h2.3l-1.7,1.5
		l0.8,2.2l-2.1-1.2l-2.1,1.2l0.8-2.2l-1.7-1.5h2.2l0.7-2L-5632.3-20816.8z M-5637.6-20801h2.2l-1.7,1.5l0.8,2.2l-2-1.2l-2.1,1.2
		l0.8-2.2l-1.7-1.5h2.2l0.7-2L-5637.6-20801z M-5638.2-20832.5l-1.7,1.5l0.8,2.2l-2.1-1.2l-2.1,1.2l0.8-2.2l-1.7-1.5h2.2l0.7-2
		l0.7,2H-5638.2z M-5645.7-20816.8h2.3l-1.7,1.5l0.8,2.2l-2.1-1.2l-2.1,1.2l0.8-2.2l-1.7-1.5h2.2l0.7-2L-5645.7-20816.8z
		 M-5651-20801h2.3l-1.7,1.5l0.8,2.2l-2.1-1.2l-2.1,1.2l0.8-2.2l-1.7-1.5h2.2l0.7-2L-5651-20801z M-5651.6-20832.5l-1.7,1.5l0.8,2.2
		l-2.1-1.2l-2.1,1.2l0.8-2.2l-1.7-1.5h2.2l0.7-2l0.7,2H-5651.6z M-5659.1-20816.8h2.2l-1.7,1.5l0.8,2.2l-2.1-1.2l-2.1,1.2l0.8-2.2
		l-1.7-1.5h2.2l0.7-2L-5659.1-20816.8z M-5664.3-20801h2.3l-1.7,1.5l0.8,2.2l-2.1-1.2l-2.1,1.2l0.8-2.2l-1.7-1.5h2.3l0.7-2
		L-5664.3-20801z M-5601.3-20793.8h42.6l-17.2-46.8h-84.6l-17.2,46.7h46.7l13-36.2l13,36.2L-5601.3-20793.8z M-5518.2-20683.8
		l-40.5-110h-5.1l-31.4,27.6l14.5,40.4l-35.8-21.2l22,63.1L-5518.2-20683.8z">
  </path>
 </g>
</svg>