<svg version="1.1" id="svg2" xmlns:svg="http://www.w3.org/2000/svg" xmlns="http://www.w3.org/2000/svg" xmlns:xlink="http://www.w3.org/1999/xlink" x="0px" y="0px" viewBox="0 0 999 755" style="enable-background:new 0 0 999 755;" xml:space="preserve"> <style type="text/css"> .st0{fill:#FFFFFF;} </style> <g> <polygon points="0,0 0,755 208.2,557.9 999,557.9 999,0 "/> <g> <path class="st0" d="M176.7,208.2c-36.2,0-50.8,23.6-50.8,23.6V130.9l-36,33v211.3h36v-19.5c0,0,14.3,23.6,50.8,23.6 c50.2,0,81.5-40,81.5-85.4C258.1,244.3,222.8,208.2,176.7,208.2z M172.4,345.7c-26.4,0-48.9-19.1-48.9-52c0-29.4,19.4-52,48.9-52 c28.3,0,49.1,20.6,49.1,51.9C221.5,324.4,201.2,345.7,172.4,345.7z"/> <path class="st0" d="M317.7,230.3v-18h-35.5v162.8h36v-90.4c0-22.6,11.3-42.5,39.2-42.5c14.7,0,26.7,5.8,26.7,5.8l8.1-35.5 c0,0-11.4-4.3-27-4.3C329.6,208.1,317.7,230.3,317.7,230.3z"/> <path class="st0" d="M524.9,231.8c0,0-14.6-23.6-50.8-23.6c-46.1,0-81.4,36.1-81.4,85.7c0,45.3,31.3,85.4,81.5,85.4 c36.5,0,50.8-23.6,50.8-23.6v19.5h36V212.3h-36V231.8z M478.4,345.7c-28.8,0-49.1-21.3-49.1-52.1c0-31.3,20.8-51.9,49.1-51.9 c29.5,0,48.9,22.6,48.9,52C527.3,326.6,504.8,345.7,478.4,345.7z"/> <polygon class="st0" points="712.8,212.3 664.9,338 616.9,212.3 578,212.3 643.4,375.1 685.6,375.1 750.7,212.3 "/> <path class="st0" d="M838.6,208.1c-54.6,0-88,39.8-88,85.5c0,45.3,33.6,85.6,87.6,85.6c52,0,87.5-37.9,87.5-85.5 C925.7,241.1,884.5,208.1,838.6,208.1z M838.2,345.9c-29.8,0-51-22.2-51-52.2c0-28.1,20.6-52.1,50.9-52.1l0,0 c27.4,0,51.2,19.7,51.2,52.3C889.3,324.9,865.8,345.9,838.2,345.9z"/> </g> </g> </svg>
