<svg xmlns="http://www.w3.org/2000/svg" role="img" width="347" height="277" viewBox="0 0 347 277" fill="none"><title>myAccessi</title><g clip-path="url(#clip0_79_2)"><path d="M259.28 77.74L217.44 15.71L181.63 77.74L178.5 83.16L143.12 144.44L141.22 147.74L140.58 148.84L104.18 211.88L108.1 217.69L120.64 236.29L147.73 276.45L148.14 275.74L184.13 213.41L186.67 209.01L222.04 147.74L222.05 147.72L260.99 80.28L259.28 77.74Z" fill="#683CE8"/><path opacity="0.7" d="M165.96 64.56L158.35 77.74L130.58 125.85L117.94 147.74L91.64 193.29L43.55 276.59L18.6 239.6L0 212.02L37.11 147.74L48.09 128.73L77.53 77.74L87.03 61.28L122.41 0L165.96 64.56Z" fill="#683CE8"/><path d="M346.66 207.3L307.73 274.74L307.15 275.74H226.32L228.79 271.46L264.18 210.17L300.22 147.74H306.49L346.66 207.3Z" fill="#683CE8"/><path d="M300.22 147.74H222.06L264.18 210.17L307.73 274.74L346.66 207.3L306.49 147.74H300.22Z" fill="#683CE8"/></g><defs><clipPath id="clip0_79_2"><rect width="346.66" height="276.59" fill="white"/></clipPath></defs></svg>
