<svg viewBox="0 0 250 127.55556" xmlns="http://www.w3.org/2000/svg" width="250" height="127.55556" version="1.0"> <path fill="red" d="M0 63.77779V0h250v127.55556H0V63.77779zm53.8794 27.849c1.159164-.40367 2.720394-1.41829 3.635817-2.36286l.737432-.76093-.353874-.84695-.353883-.84695-.827998.79412c-1.605847 1.54011-3.757918 2.22857-5.496976 1.75851-2.804668-.7581-4.331034-4.22505-4.331034-9.83741 0-5.62664 1.563983-8.26965 4.904316-8.28792 2.005617-.01097 2.897557.90096 3.536663 3.61587.246625 1.04763.334183 1.17082.752407 1.05859.2603-.06985.69829-.12837.97329-.13004.490374-.00297.49999-.05398.49999-2.65189v-2.64886l-1.611113-.37595c-2.477519-.57813-5.337521-.67314-7.050076-.23423-4.67661 1.19858-7.326499 5.18633-7.335518 11.03901-.007559 4.90332 1.867639 8.56896 5.230426 10.22446 2.177549 1.072 4.887176 1.26057 7.090131.49343zm22.55836.00467c1.67834-.468 2.76499-1.05834 3.95253-2.14724 2.79401-2.56196 4.04629-6.65656 3.32035-10.85663-.97215-5.62453-5.00012-9.07203-10.59952-9.07203-6.41794 0-10.453114 4.37225-10.441172 11.31333.009008 5.23491 2.306292 8.98239 6.473972 10.56076 2.161.8184 4.81889.89194 7.29384.20181zm-4.77109-1.72476c-2.33329-1.40051-3.52482-4.92316-3.53885-10.46224-.00912-3.59511.37615-5.32066 1.48953-6.67138 2.19413-2.66186 5.95195-1.53194 7.64622 2.29909.87706 1.98322 1.23023 3.9257 1.23937 6.81672.01344 4.25608-.94722 6.97485-2.84414 8.04924-1.21514.68824-2.81412.67565-3.99213-.03143zM131 91.74065c2.35709-.50699 4.97229-2.40562 6.20062-4.50162 1.32641-2.26335 1.92269-5.67156 1.47491-8.43026-.88108-5.42812-4.56595-8.88937-9.78665-9.19273-3.59685-.209-6.35696.75311-8.42079 2.93529-1.92938 2.04004-2.90424 4.87485-2.9054 8.44867-.00251 7.79384 5.75222 12.3937 13.43731 10.74065zm-4.28582-1.75548c-2.38189-1.21039-3.67886-4.9535-3.6908-10.65183-.00859-4.09058.64203-6.1352 2.35629-7.40497.90322-.66903 2.76103-.75903 3.88036-.18797 2.63093 1.34219 4.10181 4.90811 4.14022 10.03738.03069 4.09538-.83025 6.80294-2.55324 8.02982-1.02817.73212-2.88461.81188-4.13283.17757zm84.83449 1.50592c1.60393-.59168 3.34653-2.31336 3.8566-3.81034.42105-1.23573.48892-3.34143.13786-4.27739-.6239-1.66338-2.14167-3.08053-6.48588-6.05591-.94629-.6481-1.92129-1.50323-2.16666-1.90025-.5335-.86322-.5807-2.26731-.09933-2.95458.71168-1.01605 2.45427-1.54195 3.8574-1.16413 1.03109.27765 1.46811.82275 2.02215 2.52226.25668.78738.48994 1.14342.7408 1.13073.20139-.01018.71616-.03518 1.14395-.05556l.77777-.03703v-1.98413c0-1.4007-.09112-2.07525-.3099-2.29403-.17045-.17045-1.27058-.49073-2.44473-.71174-6.28895-1.18379-9.91693 1.08462-9.90987 6.19616.00392 2.84318.99295 4.21373 5.03734 6.98061 3.41399 2.33559 4.55702 3.98241 3.81501 5.49647-.55052 1.12333-1.38439 1.53889-3.08798 1.53889-1.34902 0-1.60275-.06855-2.10204-.56783-.31229-.3123-.80866-1.1623-1.10301-1.88889-.56643-1.39813-.99349-1.65081-2.255-1.33418-.50968.12792-.52871.20755-.52871 2.21236 0 1.40109.09064 2.14972.27777 2.29435.15278.11808.92779.39343 1.72223.61189 3.08297.84777 4.91126.86123 7.10423.05227zm21.02677-.19337c1.20733-.47794 1.31925-.58072 1.38532-1.2722.06195-.64826.01624-.7309-.33059-.59782-.22135.08494-1.00371.205-1.73856.26678-1.7111.14388-2.70933-.3299-3.33606-1.58337-.41178-.82353-.44973-1.41579-.51633-8.05555l-.07191-7.16666h4.86601l.12816-.64075c.07047-.3524.19382-.90241.27409-1.22223l.14593-.58147H228v-5.77778h-2.18316l-.14623.86543c-.2214 1.31056-1.29935 3.41409-2.09077 4.08003-.71169.59885-1.93845 1.05102-2.85763 1.0533-.45168.00112-.49999.1086-.49999 1.11235v1.11112h2.62516l.09497 7.16666c.10265 7.74516.20878 8.52536 1.36602 10.0426.31245.40963 1.09589 1.01364 1.74096 1.34223 1.08516.55276 1.32395.5892 3.19277.48736 1.38359-.07541 2.43365-.27388 3.33334-.63003zm-198.113746.34364.795025-.13152.390045-3.0327c.214529-1.66798.444264-3.30769.510532-3.6438.117495-.59594.094976-.61111-.907298-.61111-.979405 0-1.027778.02951-1.027778.62707 0 1.11281-.675571 2.66804-1.456985 3.35413-1.034695.90847-2.007319 1.12722-5.018392 1.12866-3.895488.00187-3.619948.50656-3.704953-6.78603l-.069219-5.9383 2.958106.10289c4.029243.14014 4.544244.44183 4.951372 2.90047.126008.76098.199827.83331.850141.83306l.712156-.00026.023979-4.88862.023972-4.88863h-.722451c-.711462 0-.726157.021-.965502 1.3798-.136492.77488-.42447 1.56121-.656866 1.79361-.745126.74513-3.162948 1.02107-5.980908.68259l-1.166671-.14013V63.11111l2.722226.01708c1.497221.00939 3.119971.13697 3.606108.2835 1.105309.33315 1.798462 1.30883 2.006989 2.82502l.154152 1.12076.810816-.06761.810824-.06764v-6.44443h-19.88799l-.000454.56026c-.000408.5091.122394.58361 1.34466.81589 2.769426.52631 2.654889-.08061 2.654889 14.06829 0 12.87255-.010718 12.98848-1.260272 13.62305-.345741.17557-1.103616.38834-1.684172.47282-.926775.13484-1.055552.21931-1.055552.69236v.53877l6.944445.062c3.819444.03411 8.194445.08443 9.722218.11183 1.527781.02741 3.135544-.00936 3.572808-.0817zm65.534906-.36358c-.00583-.47542-.29828-.73344-1.21882-1.07531-1.33813-.49694-1.41734-.92469-1.43191-7.73225-.01393-6.51109.07244-7.08137 1.28743-8.50081.92883-1.08514 1.86892-1.52496 3.25948-1.52496 3.10481 0 3.80545 2.21519 3.60812 11.40773-.12278 5.71943-.21869 6.06392-1.79997 6.46479-.64253.16289-.81204.31365-.81204.72223v.51636h11.14202l-.07102-.49466c-.05651-.39368-.26975-.52844-1.04428-.66001-1.34832-.22904-1.97933-.70003-2.1489-1.60396-.07862-.41909-.16282-3.69485-.18711-7.27945-.03668-5.41463-.10701-6.70579-.41561-7.63035-.53118-1.59127-1.5183-2.81633-2.87496-3.5679-1.07136-.59352-1.36891-.65254-3.28903-.65239-2.60583.0002-3.64882.42142-5.5619 2.24619l-1.32699 1.26574-.00245-1.08938c-.00135-.59917-.06208-1.44992-.13497-1.89058l-.13252-.8012-1.41116.29581c-1.10737.23212-5.50293.74987-6.37445.75084-.09167.0001-.16667.25018-.16667.55574 0 .47045.10323.55556.6738.55556 1.26808 0 2.16094.54671 2.42072 1.48225.34074 1.2271.29642 15.05486-.05151 16.06752-.30725.89427-1.03 1.3312-2.20969 1.33584-.73985.0029-.83332.06559-.83332.55884v.55555h5.55555c4.29811 0 5.55479-.06286 5.55216-.27778zm54.85219-.20482c-.05076-.3449-.34121-.57234-1.01801-.79714-.52084-.173-1.07084-.53084-1.22223-.79519-.19586-.34204-.29566-2.28473-.34608-6.7372-.06824-6.02613-.05294-6.2982.41546-7.38703.90622-2.10656 2.59012-3.12825 4.69132-2.84643 1.1879.15933 1.89532.86937 2.35992 2.36863.32399 1.04552.38193 2.2103.38193 7.67696 0 4.7169-.07378 6.57328-.27523 6.92507-.15137.26435-.70137.62219-1.22221.79519-.67681.2248-.96725.45224-1.018.79714l-.07102.4826h10.25313v-.54549c0-.4455-.13991-.57174-.76325-.68867-1.56679-.29393-1.56254-.27414-1.63526-7.60021l-.06519-6.56619.58707-1.19994c.74703-1.52688 1.89134-2.3273 3.52033-2.46238 1.60438-.13305 2.47507.34186 3.09801 1.68977.46051.99649.48052 1.3325.48052 8.07173 0 6.58004-.02695 7.06177-.4194 7.49566-.23067.25503-.75567.52678-1.16667.60388-.60053.11265-.74727.24442-.74727.67102v.53082h11.04949l-.10115-.52909c-.08099-.4237-.27576-.55251-.97765-.64666-1.22853-.16478-1.91043-.68246-2.18064-1.65548-.13615-.49021-.23253-3.45884-.23325-7.18399-.00135-6.93132-.1014-7.67276-1.28738-9.54033-.42509-.66941-1.03376-1.22041-1.84112-1.66668-1.08912-.60201-1.40002-.66665-3.20607-.66665-1.74572 0-2.16285.07996-3.28081.62893-.70446.34591-1.86527 1.19591-2.5796 1.88889l-1.29876 1.25994-.78838-1.25613c-.53742-.85629-1.13103-1.45756-1.86485-1.88889-.97921-.57557-1.26726-.63274-3.18761-.63274-2.54929 0-3.56413.41418-5.57388 2.27485L152 73.15899l-.00305-1.41283c-.00166-.77705-.05969-1.62393-.12895-1.88195-.12232-.45575-.16631-.46065-1.54309-.17206-1.11192.23308-5.50683.75113-6.38047.75211-.09167.0001-.16667.25018-.16667.55574 0 .46267.10591.55556.63351.55556 1.18216 0 2.06154.45807 2.39039 1.24516.46112 1.10359.44974 15.32223-.01315 16.43006-.35324.84543-1.03514 1.21367-2.24744 1.21367-.66604 0-.76331.07078-.76331.55556v.55555h11.14203l-.07101-.4826zm42.61942.1311c-.07418-.19334-.13489-.43035-.13489-.52667 0-.09632-.46119-.22713-1.02488-.29067-1.56695-.17661-1.90114-.65016-2.10539-2.9834-.0943-1.07738-.17857-5.56945-.18726-9.98238L194 69.39744l-1.61112.27996c-.8861.15399-2.75772.3945-4.15913.53449-1.40142.14-2.58555.29206-2.6314.33791-.26093.26093.2699 1.00576.71679 1.00576.92814 0 1.91679.4853 2.23254 1.09589.41454.80163.66241 9.20784.39871 13.52172-.22276 3.64396-.39368 3.98988-2.08045 4.21025-.96637.12625-1.30038.3548-1.30699.89436-.00264.21547 1.34769.27778 6.02038.27778 5.40159 0 6.00984-.03631 5.88888-.3515zm-4.78068-26.21485c2.22426-1.1502 1.95926-4.599-.417-5.4268-3.26236-1.13648-5.38518 3.53141-2.42641 5.33549.85744.5228 1.94166.55763 2.84341.09131zm-39.24309-11.47432c1.16784-.28624 2.62911-1.14648 3.83378-2.2569 1.27118-1.17173 1.45491-1.53564 1.13251-2.24321l-.25796-.56618-1.07918 1.00945c-2.63212 2.46203-5.94403 2.79491-8.03875.80794-1.27174-1.20629-2.35451-4.25399-2.36432-6.65488l-.00385-.94444H158.934l-.16128-1.60585c-.20249-2.01634-.57295-3.08452-1.57984-4.55527-1.50844-2.20334-3.63991-3.09699-6.93211-2.90641-4.13409.23932-7.18719 3.09767-8.14659 7.62697-.41811 1.97385-.41835 3.84288-.00073 5.61422.44321 1.87989 1.05369 3.01057 2.38625 4.41954 2.20272 2.32905 5.37738 3.1294 8.94474 2.25502zm-6.88741-13.42402c.36036-2.14432.82486-3.30281 1.65851-4.13648.77067-.77065.94795-.84327 2.05878-.84327.88864 0 1.41855.13445 1.97059.5.85479.56601 1.86857 2.43967 2.08721 3.8575l.14078.91305-.84756.14457c-.46616.07953-2.28008.20954-4.03092.28893l-3.18336.14435.14597-.86865zm-35.89036 12.74247c0-.55743-.07318-.6114-.83334-.61438-1.14854-.00452-1.87475-.41951-2.33299-1.33316-.35464-.70708-.38857-1.76039-.38889-12.07119l-.00034-11.29651 2.49999.15825c1.37501.08703 2.86731.30323 3.31622.48044.96621.38143 1.51712 1.36557 1.51712 2.71013 0 .89284.0154.91086.77779.91086H116v-6.19179l-11.66667-.00162-11.66667-.00161-.00158 1.59751c-.00086.87863-.06597 2.27945-.14468 3.11293l-.14311 1.51541.86691-.07097c.86417-.07074.86729-.07448.98645-1.18208.06575-.61111.23784-1.32408.3824-1.58439.41584-.74868 1.73959-1.12634 4.55362-1.29913l2.6111-.16032v11.4774c0 12.86716.03326 12.57914-1.50129 12.99954-.45762.12536-1.08204.25421-1.38759.28631-.40747.04281-.57288.20646-.62052.61393l-.06495.55555h12.46325v-.61111zm16.00006.10556c-.00005-.38506-.16058-.53766-.67352-.64025-.37041-.07408-.87041-.38507-1.11111-.69108-.4098-.52099-.43766-.92264-.43766-6.31133 0-4.69167.06355-5.90704.34394-6.57811.69389-1.66072 1.97964-2.54719 3.69447-2.54719 2.07232 0 2.72821.91356 3.09972 4.31741.28975 2.6548.14728 9.99499-.21137 10.88935-.17394.43376-.48949.66694-1.13922.84191-.70619.19015-.89865.34722-.89865.7334v.49144h10v-.5c0-.32757-.13411-.50042-.38889-.50124-.21388-.00068-.74797-.10098-1.18686-.2229-1.32176-.36717-1.37868-.66668-1.52006-7.99809-.1213-6.29041-.14743-6.59822-.64595-7.61051-.62322-1.2655-1.93645-2.44495-3.11567-2.79824-.47344-.14185-1.4992-.25782-2.27947-.25773-1.67067.00021-3.56415.80067-4.91866 2.07936l-.83333.78669V24.6582l-.5.10944c-1.42419.31171-3.17048.54732-5.11406.68999-1.34923.09904-2.16244.25193-2.16032.40616.00679.49312.34709.73684 1.21882.87287 1.0793.16843 1.59715.74949 1.77816 1.99514.07471.51419.10519 5.73941.06773 11.61162-.0776 12.16539-.00751 11.70261-1.81354 11.97346-.90241.13533-1.41932.57047-1.16527.98096.0499.08064 2.30025.14661 5.00078.14661h4.91005l-.00006-.50555z"/> </svg>
