<svg xmlns="http://www.w3.org/2000/svg" viewBox="0 0 440 438"><title>GenStory</title><defs><linearGradient id="g" x1="86" y1="36" x2="289" y2="420" gradientUnits="userSpaceOnUse"><stop offset="0" stop-color="#7FE6DD"/><stop offset=".52" stop-color="#67B7FF"/><stop offset="1" stop-color="#9A8BFF"/></linearGradient></defs><path fill="#000" fill-rule="evenodd" stroke="url(#g)" stroke-linecap="round" stroke-linejoin="round" stroke-width="8" d="M344 35C302 17 238 12 177 21C111 31 63 64 45 114C27 165 43 212 90 248C123 273 163 286 197 299C226 310 244 324 246 343C248 369 223 387 184 388C152 389 123 379 89 360L67 405C111 428 159 438 214 434C300 428 367 387 385 317C401 256 376 206 326 171C291 147 249 135 224 122C209 115 206 102 217 93C243 74 295 81 336 101L359 46C350 41 347 37 344 35ZM327 83C296 69 253 66 222 76C187 88 171 115 182 138C192 159 218 170 255 183C310 202 348 239 350 299C352 350 324 396 277 414C229 433 172 430 117 403L129 379C148 388 167 393 187 393C218 393 240 384 252 369C263 355 267 338 264 321C258 290 232 274 188 257C146 241 112 223 100 189C86 149 95 112 127 84C178 39 262 41 342 80Z"/></svg>
