<svg xmlns="http://www.w3.org/2000/svg" fill="none" viewBox="0 0 105 35">
  <path fill="#14394c" fill-rule="evenodd" d="M35.168 17.5c0 1.163-.115 2.3-.333 3.4l-1.228-3.399 1.229-3.4c.217 1.1.332 2.236.332 3.399ZM21.023.335l2.009 3.458 4.32-.846a17.532 17.532 0 0 0-6.33-2.612Zm6.325 31.72-4.335-.846-1.988 3.455a17.535 17.535 0 0 0 6.324-2.609Zm1.57-25.835 3.283 1.549a17.628 17.628 0 0 0-4.834-4.812l1.551 3.263Zm3.293 20.994a17.358 17.358 0 0 0 2.62-6.292L31.36 22.9l.85 4.314Zm.001-19.427-.85 4.313 3.47 1.98a17.355 17.355 0 0 0-2.62-6.293Zm-14.628-6.24L21.013.335A17.765 17.765 0 0 0 14.16.332l3.424 1.215ZM6.255 28.775l-3.288-1.543a17.643 17.643 0 0 0 4.844 4.82l-1.556-3.277ZM7.818 2.947l4.357.847 1.98-3.46a17.524 17.524 0 0 0-6.337 2.613Zm9.766 30.506-3.418 1.216a17.774 17.774 0 0 0 6.841 0l-3.423-1.216Zm11.334-4.672-1.55 3.262a17.64 17.64 0 0 0 4.829-4.806l-3.28 1.544h.001ZM2.963 27.224l.845-4.323-3.472-1.983a17.356 17.356 0 0 0 2.627 6.306ZM1.566 17.5l-1.23-3.414L3.809 12.1l-.847-4.323A17.358 17.358 0 0 0 0 17.5c0 1.169.116 2.31.336 3.415l1.23-3.415Zm12.587 17.166-2.02-3.456-4.31.846a17.535 17.535 0 0 0 6.33 2.61ZM6.255 6.226l1.559-3.277a17.641 17.641 0 0 0-4.85 4.826l3.291-1.549Z" clip-rule="evenodd"/>
  <path fill="#14394c" d="m28.918 6.22-8.296.005-3.038-4.678L28.918 6.22l4.688 11.28-4.684-3.018m0 6.036 4.685-3.019-4.689 11.28-11.334 4.672 3.033-4.678h-6.065l3.032 4.678-11.328-4.678L1.566 17.5l4.69-11.274 11.328-4.679-3.034 4.679H6.255v8.257L1.565 17.5l4.69 3.028v8.247h22.657"/>
  <path fill="#14394c" d="m23.667 17.507-9.115-5.247v10.494l9.115-5.246Z"/>
  <path fill="#14394c" d="m22.853 20.528 3.018 5.233 3.04-5.233h-6.059Zm6.06-6.042-3.041-5.233-3.02 5.233h6.06Zm-5.247 3.021 5.246 3.021v-6.042l-5.246 3.02v.001Zm2.206 8.254-5.255-3.006v6.02l5.255-3.014ZM14.55 28.773v-6.02l-5.254 3.008 5.254 3.012Zm-8.296-8.245 3.041 5.232 3.019-5.232h-6.06Zm6.06-6.042L9.297 9.253l-3.041 5.233h6.06ZM9.297 9.253l5.254 3.007V6.225L9.297 9.253Zm11.325-3.028-.005 6.035 5.254-3.006-5.25-3.028Zm0 0-3.036 5.222-3.035-5.222h6.07Zm-6.071 22.55 3.035-5.222 3.035 5.221h-6.07ZM11.5 17.505l-5.246-3.02v6.043l5.247-3.021v-.002Zm86.243 7.314h-2.88c-5.594 0-7.282-1.232-7.282-5.794v-2.983c0-4.54 1.688-5.8 7.282-5.8h2.88c4.86 0 6.816 1 7.219 4.54h-2.422c-.369-1.934-1.499-2.348-4.766-2.348H95.07c-3.96 0-4.854.723-4.854 3.696v2.778c0 2.963.898 3.718 4.854 3.718h2.44c3.982 0 4.919-.821 4.919-3.526h-7.166v-2.126H105v1.924c0 4.474-1.771 5.921-7.257 5.921Zm-51.179-8.562h8.38c1.388 0 2.283-.708 2.283-1.937 0-1.23-.895-1.946-2.282-1.946h-8.381v3.883Zm0 2.12v4.145h9.019c1.387 0 2.282-.856 2.282-2.082s-.901-2.063-2.288-2.063h-9.013Zm8.501-8.133c3.334 0 4.797 1.744 4.797 4.082 0 1.207-.571 2.196-1.628 2.825 1.524.607 2.292 1.804 2.292 3.283 0 2.338-1.464 4.214-4.797 4.214H43.96V10.244h11.105Zm23.795-.063c3.38 0 6.063 2.196 6.063 5.431v9.04H82.35v-8.948c0-2.022-1.432-3.33-3.493-3.33-2.06 0-3.514 1.308-3.52 3.33l-.032 8.947h-2.511l-.032-8.947c-.006-2.022-1.438-3.33-3.52-3.33-2.083 0-3.493 1.308-3.493 3.33v8.947h-2.575v-9.039c0-3.235 2.683-5.431 6.064-5.431 2.035 0 3.769.897 4.807 2.066 1.06-1.169 2.771-2.066 4.81-2.066h.006Z"/>
</svg>