<?xml version="1.0" encoding="UTF-8"?>
<svg xmlns="http://www.w3.org/2000/svg" xmlns:xlink="http://www.w3.org/1999/xlink" width="512px" height="512px" viewBox="0 0 512 512" version="1.1">
<g id="surface1">
<path style=" stroke:none;fill-rule:nonzero;fill:rgb(10.980392%,29.803923%,69.411767%);fill-opacity:1;" d="M 263.511719 253.210938 C 265.078125 252.980469 266.476562 252.789062 267.851562 253.78125 C 280.144531 260.300781 268.386719 303.253906 265.386719 315.011719 C 251.183594 370.445312 192.132812 496.496094 131.515625 510.546875 C 77.035156 523.183594 95.234375 450.523438 105.519531 420.988281 C 126.355469 361.195312 192.269531 304.496094 241.910156 266.496094 C 246.632812 262.882812 258.199219 253.992188 263.511719 253.226562 Z M 263.511719 253.210938 "/>
<path style=" stroke:none;fill-rule:nonzero;fill:rgb(10.980392%,29.803923%,69.411767%);fill-opacity:1;" d="M 277.984375 244.722656 C 271.636719 237.34375 283.144531 210.238281 286.796875 201.539062 C 310.710938 144.574219 402.542969 17.910156 471.167969 21.640625 C 515.863281 24.066406 488.640625 85.160156 476.253906 107.792969 C 453.21875 149.886719 421.257812 173.496094 380.902344 197.371094 C 366.890625 205.667969 296.371094 246.347656 285.992188 247.015625 C 283.757812 247.167969 279.417969 246.367188 277.984375 244.703125 Z M 277.984375 244.722656 "/>
<path style=" stroke:none;fill-rule:nonzero;fill:rgb(10.980392%,29.803923%,69.411767%);fill-opacity:1;" d="M 68.875 72.257812 C 91.640625 67.191406 150.519531 74.667969 171.375 86.460938 C 218.152344 112.859375 245.066406 168.984375 238.011719 222.144531 C 235.144531 226.867188 218.6875 229.027344 212.933594 229.8125 C 199.359375 231.644531 176.574219 233.195312 163.363281 231.246094 C 145.453125 228.625 105.882812 191.695312 94.796875 176.515625 C 74.894531 149.257812 71.664062 120.027344 63.542969 88.335938 C 61.878906 81.875 55.035156 75.335938 68.855469 72.257812 Z M 68.875 72.257812 "/>
</g>
</svg>
