<svg xmlns="http://www.w3.org/2000/svg" role="img" width="157" height="32" viewBox="0 0 157 32" fill="none"><title>Selector Logo</title><g clip-path="url(#clip0_2423_295234)"><path fill-rule="evenodd" clip-rule="evenodd" d="M28.6417 14.9623C29.2147 15.2911 29.41 16.026 29.0811 16.599C28.7496 17.172 28.0173 17.3673 27.4444 17.0358C26.8714 16.7043 26.6761 15.972 27.005 15.3991C27.3364 14.8261 28.0687 14.6308 28.6417 14.9623ZM4.14967 6.94041L6.50586 5.5786C6.44162 5.36277 6.40822 5.13409 6.40822 4.8977C6.40822 3.56672 7.48739 2.49012 8.8158 2.49012C10.1442 2.49012 11.2234 3.56672 11.2234 4.8977C11.2234 5.14179 11.1874 5.37562 11.118 5.59916L13.5256 7.01493C13.9624 6.5627 14.5765 6.28006 15.2549 6.28006C15.9332 6.28006 16.5422 6.55756 16.979 7.00722L19.3352 5.60687C19.2658 5.38332 19.2272 5.14436 19.2272 4.8977C19.2272 3.56672 20.3038 2.49012 21.6348 2.49012C22.9658 2.49012 24.0424 3.56672 24.0424 4.8977C24.0424 6.22867 22.9658 7.30528 21.6348 7.30528C20.959 7.30528 20.3501 7.02777 19.9107 6.57812L17.5545 7.97847C17.6239 8.20202 17.6624 8.44098 17.6624 8.69021C17.6624 10.0186 16.5858 11.0978 15.2549 11.0978C13.9239 11.0978 12.8473 10.0212 12.8473 8.69021C12.8473 8.44611 12.8832 8.20972 12.9526 7.98875L10.545 6.57298C10.1082 7.02521 9.49414 7.30785 8.8158 7.30785C8.13747 7.30785 7.51052 7.02007 7.07114 6.56013L4.71495 7.92195C4.77919 8.13778 4.81259 8.36646 4.81259 8.60285C4.81259 9.93126 3.73599 11.0104 2.40501 11.0104C1.07403 11.0104 0 9.92869 0 8.59771C0 7.26673 1.0766 6.19013 2.40758 6.19013C3.09362 6.19013 3.71286 6.47791 4.15224 6.93784L4.14967 6.94041ZM22.8373 10.2858C23.9884 10.9513 24.3841 12.4211 23.7186 13.5722C23.0532 14.7233 21.5809 15.1164 20.4323 14.4535C20.2062 14.3225 20.0084 14.1606 19.8439 13.9782L17.5263 15.2911C17.7164 15.9078 17.6599 16.599 17.3104 17.2028C16.6449 18.3539 15.1726 18.7496 14.0241 18.0841C13.0194 17.506 12.5929 16.3112 12.9398 15.2526L10.6427 13.9011C10.2033 14.3738 9.57636 14.6719 8.87747 14.6719C8.17858 14.6719 7.53878 14.3687 7.09941 13.8882L4.69953 15.2732C4.77148 15.5018 4.81259 15.7485 4.81259 16.0029C4.81259 17.3313 3.73599 18.4105 2.40501 18.4105C1.07403 18.4105 0 17.3287 0 16.0003C0 14.6719 1.0766 13.5927 2.40758 13.5927C3.11161 13.5927 3.74627 13.8934 4.18564 14.3764L6.58294 12.9915C6.511 12.7628 6.46989 12.5161 6.46989 12.2618C6.46989 10.9333 7.54906 9.85418 8.87747 9.85418C10.2059 9.85418 11.285 10.9308 11.285 12.2618C11.285 12.5238 11.2439 12.7756 11.1669 13.012L13.4614 14.3636C14.2065 13.5568 15.4373 13.3435 16.4291 13.9165C16.6552 14.0475 16.8531 14.2094 17.0175 14.3944L19.3352 13.0814C19.145 12.4647 19.2015 11.7736 19.551 11.1697C20.2165 10.0186 21.6888 9.62292 22.8373 10.2884V10.2858ZM9.41448 26.0623C9.98747 26.3938 10.1853 27.1261 9.85386 27.699C9.5224 28.272 8.79011 28.4699 8.21712 28.1384C7.64413 27.807 7.44885 27.0747 7.78031 26.5017C8.1092 25.9287 8.84407 25.7334 9.41705 26.0623H9.41448ZM22.2335 26.0623C22.8065 26.3938 23.0018 27.1261 22.6703 27.699C22.3388 28.272 21.6066 28.4699 21.0336 28.1384C20.4606 27.807 20.2653 27.0747 20.5968 26.5017C20.9256 25.9287 21.6605 25.7334 22.2335 26.0623ZM28.6417 22.3623C29.2147 22.6937 29.4126 23.426 29.0811 23.999C28.7496 24.572 28.0173 24.7699 27.4444 24.4384C26.8714 24.1069 26.6761 23.3746 27.005 22.8017C27.3364 22.2287 28.0687 22.0334 28.6417 22.3623ZM28.6417 7.56222C29.2147 7.89368 29.4126 8.62598 29.0811 9.19896C28.7496 9.77195 28.0173 9.96723 27.4444 9.63834C26.8714 9.30688 26.6761 8.57459 27.005 8.0016C27.3364 7.42861 28.0687 7.23333 28.6417 7.56479V7.56222ZM4.19849 21.7944L6.57781 20.448C6.25405 19.3997 6.68315 18.228 7.67496 17.655C8.82608 16.9896 10.2984 17.3827 10.9613 18.5338C11.3133 19.1453 11.3673 19.8442 11.1694 20.4686L13.3843 21.7456C13.5462 21.5658 13.7389 21.409 13.9599 21.2831C14.9594 20.7076 16.1978 20.9285 16.943 21.7456L19.3403 20.3607C19.1424 19.7389 19.1964 19.0374 19.5484 18.4284C20.2139 17.2773 21.6862 16.8816 22.8348 17.5471C23.9859 18.2126 24.3816 19.6849 23.7161 20.836C23.0506 21.9871 21.5783 22.3803 20.4297 21.7173C20.2088 21.5889 20.0161 21.4321 19.8542 21.2548L17.4569 22.6398C17.7935 23.6933 17.3644 24.8778 16.3649 25.4533C15.2137 26.1188 13.7414 25.7231 13.0785 24.572C12.7265 23.9631 12.6726 23.2616 12.8704 22.6398L10.6555 21.3602C10.4937 21.5375 10.3009 21.6968 10.08 21.8227C9.07532 22.4008 7.82913 22.1773 7.08656 21.3448L4.70724 22.6912C4.77662 22.9147 4.81516 23.1537 4.81516 23.4029C4.81516 24.7313 3.73856 25.8105 2.40758 25.8105C1.0766 25.8105 0 24.7288 0 23.4003C0 22.0719 1.0766 20.9928 2.40758 20.9928C3.11932 20.9928 3.75911 21.3011 4.19849 21.7919V21.7944ZM15.8227 0.159621C16.3957 0.49108 16.5935 1.22338 16.2621 1.79636C15.9306 2.36935 15.1983 2.56463 14.6253 2.23574C14.0524 1.90428 13.8571 1.17199 14.186 0.598997C14.5174 0.0260089 15.2497 -0.16927 15.8227 0.159621ZM15.8227 29.7623C16.3957 30.0938 16.5935 30.8261 16.2621 31.3991C15.9306 31.972 15.1983 32.1673 14.6253 31.8384C14.0524 31.507 13.8571 30.7747 14.186 30.2017C14.5174 29.6287 15.2497 29.4334 15.8227 29.7623Z" fill="#FF5721"/><path fill-rule="evenodd" clip-rule="evenodd" d="M46.9472 11.1746C45.8449 8.92887 43.4939 8.28394 41.2276 8.28394C38.5451 8.30449 35.5902 9.53269 35.5902 12.5261C35.5902 15.7919 38.3344 16.5807 41.3099 16.9353C43.2447 17.1434 44.6784 17.7061 44.6784 19.0782C44.6784 20.6584 43.0571 21.2623 41.3304 21.2623C39.6037 21.2623 37.8771 20.5557 37.2321 18.9549L34.9453 20.1394C36.0271 22.8014 38.3139 23.7161 41.2867 23.7161C44.5319 23.7161 47.402 22.3234 47.402 19.0782C47.402 15.6043 44.5731 14.8155 41.536 14.4404C39.7887 14.2322 38.2907 13.8776 38.2907 12.6109C38.2907 11.5292 39.2697 10.6761 41.3073 10.6761C42.8875 10.6761 44.2596 11.4675 44.7606 12.2974L46.9447 11.1746H46.9472Z" fill="#22252B"/><path fill-rule="evenodd" clip-rule="evenodd" d="M62.2408 14.6998H51.3438V17.4029H62.2408V14.6998Z" fill="#22252B"/><path fill-rule="evenodd" clip-rule="evenodd" d="M62.2408 8.76184H51.3438V11.4649H62.2408V8.76184Z" fill="#22252B"/><path fill-rule="evenodd" clip-rule="evenodd" d="M62.2408 20.6379H51.3438V23.3409H62.2408V20.6379Z" fill="#22252B"/><path fill-rule="evenodd" clip-rule="evenodd" d="M66.2266 8.76184V23.3409H76.4607V20.8023H68.9733V8.76184H66.2266Z" fill="#22252B"/><path fill-rule="evenodd" clip-rule="evenodd" d="M91.1106 8.76184H80.2109V11.4649H91.1106V8.76184Z" fill="#22252B"/><path fill-rule="evenodd" clip-rule="evenodd" d="M91.1106 14.6998H80.2109V17.4029H91.1106V14.6998Z" fill="#22252B"/><path fill-rule="evenodd" clip-rule="evenodd" d="M91.1106 20.6379H80.2109V23.3409H91.1106V20.6379Z" fill="#22252B"/><path fill-rule="evenodd" clip-rule="evenodd" d="M106.057 19.6178C105.102 20.5737 103.665 21.0927 102.396 21.0927C98.7987 21.0927 97.4034 18.5772 97.3829 16.1645C97.3623 13.7312 98.8809 11.1103 102.396 11.1103C103.665 11.1103 104.952 11.5472 105.911 12.4824L107.74 10.7147C106.242 9.23978 104.372 8.4895 102.396 8.4895C97.1336 8.4895 94.6593 12.3591 94.6798 16.1645C94.7004 19.9493 96.9872 23.6724 102.396 23.6724C104.495 23.6724 106.43 22.9864 107.928 21.5089L106.057 19.6178Z" fill="#22252B"/><path fill-rule="evenodd" clip-rule="evenodd" d="M114.883 23.3409H117.627V11.2568H122.244V8.76184H110.266V11.2568H114.883V23.3409Z" fill="#22252B"/><path fill-rule="evenodd" clip-rule="evenodd" d="M129.32 22.9273L128.371 24.5691C128.788 25.0805 128.87 25.8179 128.523 26.4192L126.76 29.4717C126.313 30.2476 125.311 30.5174 124.533 30.0678C123.757 29.6181 123.487 28.6186 123.937 27.8401L125.699 24.7876C126.046 24.1863 126.727 23.8882 127.377 23.9936L128.325 22.3517C126.329 20.9848 125.016 18.6877 125.016 16.0848C125.016 11.8915 128.415 8.49207 132.608 8.49207C136.802 8.49207 140.199 11.8915 140.199 16.0848C140.199 20.2782 136.799 23.675 132.608 23.675C131.429 23.675 130.314 23.4078 129.32 22.9273ZM132.608 10.987C135.422 10.987 137.704 13.2687 137.704 16.0822C137.704 18.8958 135.422 21.1775 132.608 21.1775C129.795 21.1775 127.513 18.8958 127.513 16.0822C127.513 13.2687 129.795 10.987 132.608 10.987Z" fill="#FF5721"/><path fill-rule="evenodd" clip-rule="evenodd" d="M156.878 23.1534L152.469 18.1815C155.233 17.6213 156.151 15.6017 156.151 13.595C156.151 11.0692 154.342 8.77983 150.909 8.75928C148.599 8.77983 146.292 8.75928 143.984 8.75928V23.3384H146.729V18.4718H149.37L153.612 23.3384H156.878V23.1508V23.1534ZM150.909 11.3185C152.636 11.3185 153.404 12.4876 153.404 13.6592C153.404 14.8309 152.656 16 150.909 16H146.729V11.321H150.909V11.3185Z" fill="#22252B"/></g><defs><clipPath id="clip0_2423_295234"><rect width="156.878" height="32" fill="white"/></clipPath></defs></svg>
