<svg xmlns="http://www.w3.org/2000/svg" viewBox="0 0 512 512" fill="none"><path d="M512 169.521C512 188.375 506.978 206.951 497.477 223.24L480.405 252.507C455.587 295.053 447.802 344.964 458.487 393.045L458.96 395.17C465.312 423.75 458.448 453.235 440.131 476.07C421.814 498.905 394.518 512 365.244 512H364.85C343.794 512 323.007 504.93 306.317 492.092L256.172 453.519C222.911 427.934 179.166 420.204 139.151 432.84L137.851 433.251C105.302 443.528 70.846 437.853 43.316 417.676C15.789 397.5 0 366.354 0 332.223C0 299.053 15.845 267.366 42.385 247.461L43.472 246.646C65.939 229.796 77.428 202.059 73.456 174.257L64.216 109.578C60.278 82.012 68.483 54.138 86.728 33.101C104.972 12.065 131.406 0 159.253 0C178.872 0 197.768 5.903 213.898 17.07L276.766 60.593C276.778 60.601 276.87 60.666 276.882 60.674C302.637 78.468 335.487 82.327 364.717 70.96L366.757 70.166C399.578 57.403 436.523 61.653 465.586 81.534C494.648 101.416 512 134.308 512 169.521Z" fill="url(#a)"/><path d="M316.289 152.988C291.663 152.988 269.76 164.72 256 182.821C242.24 164.72 220.337 152.988 195.711 152.988C154.157 152.988 120.351 186.388 120.351 227.442C120.351 268.496 154.157 301.896 195.711 301.896C220.337 301.896 242.24 290.164 256 272.063C269.76 290.164 291.663 301.896 316.289 301.896C357.843 301.896 391.649 268.496 391.649 227.442C391.649 186.388 357.843 152.988 316.289 152.988ZM195.711 242.333C187.388 242.333 180.639 235.666 180.639 227.442C180.639 219.218 187.388 212.551 195.711 212.551C204.035 212.551 210.784 219.218 210.784 227.442C210.784 235.666 204.035 242.333 195.711 242.333ZM316.289 242.333C307.965 242.333 301.216 235.666 301.216 227.442C301.216 219.218 307.965 212.551 316.289 212.551C324.612 212.551 331.361 219.218 331.361 227.442C331.361 235.666 324.612 242.333 316.289 242.333Z" fill="url(#b)"/><path d="M257.02 359.693C285.764 373.61 306.779 368.937 352.892 338.614" stroke="#FFD2D9" stroke-width="12" stroke-linecap="round"/><defs><linearGradient id="a" x1="256" y1="512" x2="256" y2="0" gradientUnits="userSpaceOnUse"><stop stop-color="#FD3A84"/><stop offset="1" stop-color="#FFA68D"/></linearGradient><linearGradient id="b" x1="256" y1="301.896" x2="256" y2="152.988" gradientUnits="userSpaceOnUse"><stop stop-color="#FFC8D1"/><stop offset="1" stop-color="#FFF6F7"/></linearGradient></defs></svg>
