<svg version="1.1" id="Layer_1" xmlns="http://www.w3.org/2000/svg" xmlns:xlink="http://www.w3.org/1999/xlink" x="0px" y="0px" viewBox="0 0 408.9 227.2" style="enable-background:new 0 0 408.9 227.2;" xml:space="preserve">
 <style type="text/css">
  .st0{fill:#21409A;}
 </style>
 <g>
  <path class="st0" d="M110.7,95V84.4H91.3v65.6h19.9v-36.3c3.4-7.6,9.2-11.4,17.3-11.4c2.4,0,4.7,0.2,7,0.7V84.1
		c-2-0.7-4.1-1-6.2-0.9C122.4,83.1,116.3,87.1,110.7,95">
  </path>
  <path class="st0" d="M164.7,128.4c-5.5-6.5-5.5-16,0-22.5c5.3-5.8,14.3-6.2,20.1-0.9c0,0,0,0,0,0c0.3,0.3,0.6,0.6,0.9,0.9
		c5.5,6.5,5.5,16,0,22.5c-5.3,5.8-14.4,6.2-20.2,0.9c0,0,0,0,0,0C165.2,128.9,164.9,128.7,164.7,128.4 M199.1,141.2
		c6.4-6.5,9.6-14.6,9.6-24.2c0.2-9-3.3-17.7-9.6-24.1c-13.2-13.1-34.5-13.1-47.7,0c-12.8,13.5-12.8,34.7,0,48.2
		C164.5,154.2,185.8,154.3,199.1,141.2">
  </path>
  <path class="st0" d="M311.2,110.9c0.7-3.3,2.5-6.2,4.9-8.4c2.2-2,5.1-3,8.1-3c3,0,5.9,1.3,8,3.4c2.3,2.1,3.8,4.9,4.3,8L311.2,110.9
		z M324.7,83.1c-8.8-0.2-17.3,3.3-23.5,9.6c-6.4,6.4-9.6,14.5-9.6,24.3c0,10,3.1,18.2,9.2,24.5s14.1,9.5,24,9.5
		c6.7,0,12.4-1.2,17.1-3.7c4.9-2.6,9.3-6.1,13-10.3l-14.4-8.1c-3.7,3.4-8.5,5.1-14.4,5.1c-8.6,0-13.6-3.8-15.1-11.4H356
		c0-0.5,0.1-1.1,0.1-1.6c0.1-0.7,0.1-1.3,0.2-1.9s0.1-1,0.1-1.4c0-9.6-3-17.8-8.9-24.5C341.6,86.5,334,83.1,324.7,83.1">
  </path>
  <path class="st0" d="M402.7,83.1c-6.7,0-12.9,4-18.5,11.9V84.4h-19.4v65.6h19.9v-36.3c3.4-7.6,9.2-11.4,17.2-11.4
		c2.4,0,4.7,0.2,7,0.7V84.1C406.9,83.4,404.8,83.1,402.7,83.1">
  </path>
  <path class="st0" d="M72.1,72c0.3-2.3,0.5-4.5,0.5-6.8l0,0c-0.5-25.7,19.9-46.9,45.5-47.5c25.7-0.5,46.9,19.9,47.5,45.5l0,0
		c0,0.6,0,1.3,0,1.9h18.8c0-36-29.2-65.2-65.3-65.2C83.6,0,54.6,28.5,54,64.1l0,0c0,1.8-0.1,3.7-0.4,5.5
		c-0.9,6.7-3.4,16.3-10.3,24.2c-5.5,6.2-12.9,10.4-22.2,12.6V62.8H0v87.1h21v-24.4c6.2-1,12.2-2.9,17.9-5.5l19,30H83l-27.8-41.5
		c0.7-0.7,1.4-1.5,2.1-2.2C67.4,94.7,70.9,81.2,72.1,72">
  </path>
  <path class="st0" d="M260.4,127.3c-5.7,5.8-15.1,6-20.9,0.3l-0.3-0.3c-5.5-6.4-5.5-15.8,0-22.2c5.7-5.8,15-6,20.8-0.3l0.3,0.3
		C265.8,111.5,265.8,120.9,260.4,127.3 M283.2,169.1V84.4h-18.9v5.6c-4.4-4.5-10.6-7-16.9-6.8c-8.4,0-15.7,3.2-21.8,9.5
		s-9.2,14.2-9.2,23.5c0,9.3,3.2,17.1,9.5,23.3c6.3,6.2,13.5,9.3,21.6,9.3c6.2,0.1,12.2-1.8,17.1-5.4v25.8l0,0c0,22.1-17.9,40-40,40
		s-40-17.9-40-40h-18.7c0.3,32.4,26.9,58.4,59.3,58.1c31.3-0.3,56.8-25.1,58.1-56.4l0,0V169.1L283.2,169.1z">
  </path>
  <path class="st0" d="M289.4,199.3h0.8c0.9,0,1.6-0.3,1.6-1s-0.5-1-1.5-1c-0.3,0-0.6,0-0.9,0.1L289.4,199.3z M289.4,203.1h-1.6v-6.8
		c0.9-0.2,1.7-0.2,2.6-0.2c0.8-0.1,1.6,0.1,2.4,0.5c0.4,0.4,0.7,0.9,0.7,1.5c-0.1,0.8-0.6,1.4-1.4,1.6v0.1c0.7,0.3,1.2,0.9,1.2,1.6
		c0.1,0.6,0.2,1.2,0.5,1.7h-1.7c-0.3-0.5-0.4-1.1-0.5-1.7c-0.1-0.7-0.5-1.1-1.4-1.1h-0.7V203.1z M285.2,199.6
		c-0.1,2.9,2.2,5.3,5.1,5.4c0,0,0,0,0,0h0.2c2.9,0,5.2-2.3,5.2-5.2c0,0,0,0,0,0v-0.2c0-2.9-2.3-5.2-5.2-5.2S285.2,196.7,285.2,199.6
		C285.2,199.6,285.2,199.6,285.2,199.6L285.2,199.6 M297.4,199.6c0.1,3.9-2.9,7.1-6.8,7.2c-3.9,0.1-7.1-2.9-7.2-6.8
		c-0.1-3.9,2.9-7.1,6.8-7.2h0.2c3.8-0.1,6.9,2.9,7,6.7V199.6">
  </path>
 </g>
</svg>