<svg xmlns="http://www.w3.org/2000/svg" width="1563" height="1428" viewBox="0 0 1563 1428"
	version="1.2">
	<defs>
		<clipPath id="cp1" clipPathUnits="userSpaceOnUse">
			<path d="M10146.44-9240.29V6396.86H-910.83V-9240.29z" />
		</clipPath>
	</defs>
	<g id="Clip-Path: Page 1" clip-path="url(#cp1)">
		<g id="Page 1">
			<path id="Path 3" fill-rule="evenodd"
				d="M1562.4 1273c0 102.1-65 154.1-145.7 154.1-79.9 0-144.9-52-144.9-154.1s65-155.1 144.9-155.1c80.7 0 145.7 53 145.7 155.1m-73.3 0c0-73.4-31.6-113.3-71.5-113.3s-72.4 39-72.4 113.3 31.5 110.5 71.5 110.5c39.9.9 72.4-36.2 72.4-110.5m-969.3 148.6h-74.2l-26-71.5-54.8-153.2-46.4 128.1c13-5.6 45.5-18.6 60.3-22.3 0 0 22.3 26.9 40.9 47.4-14.9 0-73.4 5.5-115.2 13.9l-21.3 57.6h-55.7l97.5-268.4c8.3-22.3-7.5-31.6-7.5-31.6h93.8zm-298.9-90c0 56.6-44.6 95.6-127.2 95.6-33.4 0-67.8-7.4-91.9-15.8v-70.5s8.3 14.8 25 24.1c15.8 9.3 36.2 15.8 62.2 15.8 39 0 56.7-22.3 56.7-39 0-26.9-28.8-37.2-66-51.1-25-10.2-47.3-19.5-58.4-32.5-14-14.8-20.5-28.8-20.5-52 0-27.8 13-54.8 39-69.6 22.3-13 51.1-18.6 82.7-18.6 34.3 0 57.5 3.7 74.2 6.5v53.9s-28.8-14-71.5-14c-36.2 0-54.7 14.9-54.7 30.7s28.7 27.8 66.8 41.8c53.9 18.5 83.6 44.5 83.6 94.7m1050 79.8c-20.4 10.2-49.2 15.8-80.8 15.8-49.2 0-88.2-14.8-114.2-43.6q-35.3-40.9-35.3-110.5 0-67.8 37.2-109.6 39.9-45.5 110.5-45.5c34.3 0 55.7 3.7 78.9 11.1l-9.3 58.5c-4.7-5.5-21.4-24.1-58.5-24.1q-44.6.9-65.9 36.2-18.6 27.9-18.6 73.4c0 71.5 30.7 106.8 82.6 106.8 40 0 61.3-13 65-15.8zm-241.4-46.5-9.2 56.7H819.7v-266.5s-.9-26.9-16.7-33.4h211.7v56.6c-7.4-12.1-24.1-12.1-24.1-12.1H890.3v78h98.4v44.6h-98.4v88.2h99.3c10.2-.9 28.8-3.7 39.9-12.1"
				fill="#ffffff" />
			<path id="Path 4" fill-rule="evenodd"
				d="M783.5 1345.4c0 28.8-18.6 53-43.6 65-24.2 11.2-47.4 11.2-79.9 11.2H546.8v-266.5s0-20.5-16.8-33.5h138.4q41.8 0 65 17.7c16.7 13 27.8 31.6 27.8 56.6 0 16.7-7.4 31.6-17.6 44.6-11.2 12.1-25.1 20.4-42.7 23.2 49.2 5.6 82.6 29.7 82.6 81.7m-166.2-101.2h23.2c34.4 0 52.9-14.8 52.9-40.8 0-22.3-16.7-37.2-51-37.2h-25.1zm92.9 91c0-28.8-26-46.4-62.2-46.4h-30.7v88.2h35.3c33.4 0 57.6-11.1 57.6-41.8m55.7-335.2c-53 1.9-104.9-29.7-116.1-35.3-7.4-3.7-10.2-.9-11.1 3.7 0 6.5 4.6 20.5 52 30.7h-1.9q.6.5 1.5.8c-2.8-.3-9.7-1-18.2-1.8l-.9-.9h-4.7c-16.7-3.7-40.8-9.3-62.2-22.3q-9.3-4.6-16.7-13c-7.4-6.5-13-14.8-17.6-24.1q-31.6-11.2-56.7-26.9c-3.7 8.3-5.5 17.6-5.5 17.6-8.4-5.6-26-23.2-36.2-50.1-35.3-36.3-54.8-83.6-48.3-141.2 7.4-61.3 60.3-103.1 112.3-99.3-27.8-21.4-74.3.9-82.6 12 8.3-70.5 135.5-55.7 151.3-74.3 0 19.5-5.6 22.3-15.8 30.7 44.6-5.6 47.4 12.1 88.2-.9-18.5 28.7-38 21.3-57.5 34.3 50.1 13.9 109.5-5.6 117.9 52.9-36.2-39-63.2-1.8-123.5-15.7 21.4 16.7 54.8 12 83.6 41.7-38.1-16.7-64.1-.9-118.9-14.8 23.2 26 24.2 44.6 20.4 65.9-26.9-61.3-80.7-39-102.1-65-25 9.3-23.2 60.4-3.7 91C530 853.3 631.2 896 753.8 868.1c125.3-27.8 155-110.5 110.5-176.4C920 811.5 736.2 888.6 592.2 839.4c21.4 3.7 63.2 6.5 89.2.9-3.7-2.8-10.2-6.5-10.2-19.5 17.6 13 56.6 13.9 67.7 9.3-8.3-4.7-13.9-19.5-11.1-27 14.9 5.6 49.2 12.1 73.3 4.7-15.7-6.5-28.7-23.2-29.7-30.7 18.6 5.6 57.6 9.3 72.4-7.4-12 .9-33.4-11.1-39.9-20.4 25.1 0 45.5-23.2 45.5-44.6-9.3 3.7-12.1 4.7-19.5 3.7 16.7-36.2-5.6-57.5-32.5-73.3-71.5-38.1-180.1-66-252.5-107.7-52-30.7-81.7-77.1-87.3-126.3-3.7-5.6-10.2-12.1-22.3-20.5-31.5 35.3 31.6 59.5-28.7 118.9 26.9-37.1-19.5-84.5-6.5-121.6l5.5-11.2c-4.6-1.8-11.1-4.6-14.8-8.3-4.7-25.1 3.7-30.7-1.9-54.8-2.8-2.8-17.6-4.7-27.8 6.5q-1.9 1.8-4.7 1.8l-3.7-22.3c13 1.9 27.9-8.3 28.8-18.5 0-7.5 0-9.3.9-20.5 1.9-34.3-15.8-57.5-27.8-56.6 10.2-13 29.7-13 31.5-4.6 4.7 16.7 10.3 33.4 15.8 32.5 5.6-1 15.8-41.8-3.7-46.5 17.7-8.3 37.1-4.6 31.6 11.2-3.7 15.8-10.2 36.2-6.5 37.1 2.8.9 29.7-31.6 24.1-41.8 26.9 8.4 13.9 24.2 9.3 28.8-3.7 4.7-15.8 8.4-21.4 26.9-.9 5.6 25.1 2.8 27.9-9.2 7.4 9.2 9.3 24.1.9 26-11.1 1.8-29.7.9-37.1 19.5-7.4 18.5 3.7 36.2 6.5 42.7 3.7 2.8 15.8 12 32.5 16.7 16.7-42.7 55.7-80.8 118.8-102.2-45.5-32.5-65-81.7-112.3-88.2 71.5-14.8 76.1 53.9 156.9 48.3-91.9-42.7-90.1-101.2-178.3-83.6 80.8-49.2 135.6 31.6 189.4 45.5C600.6 129 578.3 70.5 517 73.3 635.9 45.4 645.2 181 777 130.9c-67.8-11.2-123.5-61.3-130-98.5-.9-4.6 4.7-5.5 7.5-1.8 34.3 41.8 83.5 68.7 112.3 74.3-23.2-15.8-38.1-51.1-33.4-71.5.9-3.8 5.5-2.8 6.5 0 15.7 50.1 60.3 65 76.1 65.9 5.6-9.3-3.7-26-9.3-29.7 5.6-2.8 36.2-1.9 76.1 15.8 3.8-1.9 5.6-11.2 1-18.6 21.3-1.9 29.7 17.6 28.7 26 7.5-1.9 25.1-8.4 31.6-16.7 11.2 18.5 2.8 39-2.8 43.6 14-2.8 33.5-9.3 45.5-16.7 4.7-7.4 13-14.9 22.3-20.4.9-4.7 3.7-10.2 10.2-16.7 20.4-21.4 16.7-39 2.8-32.5-5.6 2.7-7.4-3.8-7.4-3.8-9.3-24.1-46.4-23.2-47.4 1.9-.9 13.9 9.3 18.6 15.8 14.9 1.9-1 8.4-4.7 3.7-13-.9-1.9 0-2.8 1.9-1.9 2.8.9 4.6 4.6 3.7 9.3-.9 13-18.6 18.6-28.8 10.2-10.2-7.4-13-26 2.8-41.8C978.5-4.7 1010-2.9 1024 23.1c23.2-7.4 26.9 14 19.5 26-7.5 13-19.5 16.8-22.3 27 9.3-3.7 18.5-4.7 25-2.8 11.2 5.6 13 23.2 9.3 36.2 6.5 6.5 24.2 13 33.4 0 1.9-1.9 4.7 1.9 6.5 4.6 15.8 19.5 36.3 14.9 33.5 0-1-3.7-2.8-6.5 0-7.4 1.8-.9 28.7-14.8 24.1-34.3-3.7-16.8-22.3-20.5-35.3-17.7-21.3 5.6-20.4 30.7-9.3 28.8 10.3-1.9 5.6-10.2 4.7-12.1-2.8-2.8 2.8-1.8 5.6 0 1.8 2.8 3.7 7.5.9 12.1-1.9 1.9-13 13-23.2 2.8-5.6-5.6-9.3-32.5 22.3-40.9 30.6-9.3 47.3 10.2 46.4 30.7 0 20.4-14.9 30.6-27.9 35.3 7.4 22.2-26.9 41.7-47.3 7.4-12.1 13.9-30.7 5.6-38.1 0-.9.9-1.8 1.8-1.8 2.8 0 4.6 6.5 11.1 9.2 15.8 3.7 7.4 0 11.1-4.6 18.5 7.4 13 3.7 30.7-4.6 40.9.9-13-1.9-27.9-9.3-37.2 0 6.5-3.7 16.8-11.2 19.5 1.9-8.3-1.8-18.5-5.5-21.3-1 8.3-7.5 19.5-13 19.5 2.7-13.9-5.6-19.5-9.3-21.4.9 15.8-2.8 28.8-12.1 37.2 1.9-42.7-29.7-32.5-36.2-29.7-32.5 14.8-47.4 49.2-42.7 70.5-18.6-1.8-43.6 1-68.7 19.5 43.6-16.7 75.2-3.7 87.3 1.9-23.3 28.8 27.8-1.9 40.8 34.3-15.8-7.4-50.1-1.8-68.7 0-13 1.9-10.2-20.4-2.8-26.9-71.5 39-131.8-30.6-66.8-78 7.4-5.6 25-14.8 39-17.6-62.2 1.8-83.6 0-112.4-8.4 0 0 10.2 19.5 35.3 28.8-13 16.7-52.9 28.8-76.1 35.3l.9.9c68.7.9 76.1 17.7 26 76.2 86.3-47.4 58.5 14.8 60.4 46.4 57.5-110.5 175.4 32.5 187.5-99.4 8.3 7.5 11.1 24.2 11.1 31.6 7.5-2.8 16.7-4.6 24.2 0 3.7-5.6 6.5-15.8 6.5-28.8 16.7 25.1 3.7 29.7 13 39 6.5 7.4-7.5 25.1-4.7 29.7 37.2 60.4 0 78-17.6 95.7 10.2-22.3 9.3-56.7-15.8-63.2 4.6 37.2-43.6 67.8-61.3 66 81.7-66-104.9-116.1-163.4-11.2-11.1-27.8-14.8-52-14.8-52-30.7 3.7-43.7 9.3-63.2 22.3-3.7-30.6 10.3-74.3 10.3-74.3s-27.9-.9-43.7 0c8.4-18.6 21.4-30.6 30.7-41.8-10.3-1.8-27.9-11.1-37.2-22.3 13-1.8 42.7-15.7 43.7-39.9-27 24.2-47.4 26.9-72.5 28.8 6.5 13.9 21.4 34.4 34.4 39-14.9 16.7-21.4 36.2-25.1 56.6 7.5-1.8 36.2-6.5 49.2-3.7-2.8 3.7-6.5 12.1-8.3 22.3-27.9 7.4-44.6 20.4-46.4 33.4-2.8 16.8 32.4 32.5 74.2 47.4 17.7 4.6 39 4.6 78-.9 52-8.4 76.1 13 77.1 13.9-3.7-2.8-24.2-9.3-35.3 1.9-11.2 12 17.6 26.9 40.8 29.7q18.6 1.8 34.4 7.4c78.9 12.1 104.9 87.3 133.7 84.5-13.9-7.4-25.1-24.1-24.2-26.9 1.9-9.3 15.8-23.2 14.9-36.2-3.7-5.6-13.9-15.8-23.2-25.1-8.4-9.3-5.6-22.3 12.1-29.7-4.7-14.9 1.8-23.2 23.2-20.5-2.8 3.8-9.3 11.2-4.7 18.6 7.5 11.2 8.4 30.7 9.3 30.7 1.9.9 1.9-17.7 1.9-24.2.9-9.3-1-39.9 31.5-22.3-8.3 1-12 8.4-12 16.7 0 14.9-10.3 36.3-8.4 37.2 1.9 3.7 8.4-4.7 16.7-15.8 8.4-12.1 30.7-7.4 28.8 6.5-7.4-5.6-37.1 17.6-39.9 27.9-5.6 15.7 14.8 37.1 28.8 25 11.1 17.7-19.5 27.9-27 9.3-3.7-7.4-14.8-7.4-14.8-5.6-.9 16.8 10.2 36.3 1.8 66.9-25-8.4-36.2-8.4-45.5-.9-4.6-19.5-23.2-39-45.4-57.6l-1-.9c-8.3-5.6-22.3-5.6-15.8 5.5 54.8 43.7 98.5 98.5 105 165.3-15.8-37.1-52-49.2-77.1-38 88.2 12 68.7 127.2 106.8 141.1-11.2-16.7-15.8-40.9-13-43.6 7.4-8.4 29.7-17.7 35.2-32.5 0-8.4-7.4-26-12-40.9-5.6-14.9 4.6-27.9 28.8-26 2.7-19.5 13.9-25.1 37.1-10.2-5.6 1.8-16.7 7.4-15.8 17.6 2.8 15.8-6.5 39-4.6 40 .9.9 10.2-20.5 14.8-27 5.6-10.2 18.6-45.5 46.4-8.3-10.2-3.7-17.6 3.7-22.2 13-7.5 15.8-29.8 35.3-29.8 37.1 1 4.7 13-.9 27.9-10.2 15.8-8.4 38.1 9.3 28.8 24.1-4.7-11.1-50.2-.9-59.4 9.3-14 14.9-2.8 50.2 19.5 43.7 2.7 26-36.2 20.4-35.3-3.7 0-10.3-13-16.8-13.9-14-9.3 18.6-7.5 45.5-32.5 76.2 3.7 101.2-78 50.1-117.9 103 26.9-71.5 109.5-47.3 89.1-110.5 3.7 2.8-13.9-11.1-27.9-23.2q-.9 1.9-1.8 2.8c-1.9 10.2-7.5 13.9-8.4 14.9-16.7 25-38.1 45.5-62.2 62.2 7.4 5.6 19.5 7.4 19.5 7.4-22.3 29.7-96.5 38.1-143.9 44.6q-2.8 0-5.6.9c-3.7 0-11.1 2.8-12 11.2 0 8.3 4.6 14.8 18.5 16.7 27.9.9 74.3-7.5 100.3-18.6 0 0-41.8 48.3-168 39m-75.6-.1c.8 0 1.3.1 1.3.1q-.7 0-1.3-.1m221.3-874.6c9.3.9 16.7-2.8 24.2-4.7 0-6.5-5.6-16.7-14.9-14.8-8.4 2.8-10.2 13-9.3 19.5m210.8 585.9c2.8-.9 2.8-26.9.9-40.8-18.6 10.2-3.7 37.1-.9 40.8M825.3 117.9c26.9-1.9 40.8 7.4 62.2 6.5 3.7 0 6.5-6.5 1.8-14.9-1.8-4.6-19.5-26-64 8.4m45.5 316.6"
				fill="#ffffff" />
		</g>
	</g>
</svg>