<svg xmlns="http://www.w3.org/2000/svg" xml:space="preserve" viewBox="0 0 500 500"><path d="M278.623 314.863c-7.385 8.139-19.526 14.857-36.919 18.593-43.011 9.385-78.461-5.16-91.584-24.821-7.028-10.63-7.562-28.199 1.379-31.491 7.518 8.853 26.421 1.424 35.761 22.373 1.292-7.161.98-13.611-6.981-22.55 18.947 4.892 28.155-.624 41.454 4.936-9.874-10.052-21.616-8.406-29.134-14.322 20.993 4.937 30.692-8.05 43.323 5.337-3.024-19.927-23.974-13.165-41.543-18.013 6.939-4.582 13.611-2.046 20.194-11.965-14.145 4.448-15.078-1.424-30.869.533 3.602-2.981 5.428-3.958 5.428-10.63-5.428 6.227-49.996 1.245-52.977 25.575 2.981-3.736 19.083-11.475 28.869-4.003-18.148-1.557-36.829 12.942-39.32 34.071-5.916 49.107 45.19 76.818 101.503 77.529 17.124.266 34.916-1.601 51.418-6.227v-44.925zm0-221.376c-3.826 1.468-7.517 3.514-9.652 4.804-18.147 13.077-8.14 31.314 9.652 30.869v-8.941a41 41 0 0 0-5.783 1.824c1.957-1.424 3.87-2.58 5.783-3.514zm0-32.426v8.14c-3.069.757-6.894 2.625-11.61 6.272 4.715-.445 8.274.222 11.61.889v15.923c-18.726.579-25.709-.133-35.095-2.891-.089 0 3.38 6.538 12.143 9.918-4.359 5.65-18.681 9.965-26.732 12.055.133.177.266.222.355.311 24.064.4 26.644 6.227 9.163 26.332 30.335-16.413 20.594 5.026 21.262 15.835 5.248-9.785 11.876-13.789 18.904-15.078v16.456c-10.186 2.625-19.972 8.585-25.888 19.082-4.092-9.607-5.426-18.014-5.426-18.014-10.675 1.467-15.122 3.557-22.106 7.783-1.378-10.364 3.647-25.486 3.647-25.486s-9.875-.356-15.568 0c2.982-6.316 7.65-10.675 10.943-14.367-3.826-.534-11.789-4.581-15.124-8.496 4.759-.533 16.857-4.582 17.391-13.032-9.651 8.362-16.724 9.385-25.397 9.874 2.224 4.848 10.14 12.01 14.99 13.656-5.382 5.603-10.632 12.498-11.922 19.436 2.581-.799 12.944-2.178 17.436-1.467-.889 1.334-2.179 4.226-3.157 7.739-9.608 2.58-15.613 7.206-16.191 11.743-1.156 8.184 24.285 15.657 45.858 22.952 9.075 3.069 19.661 7.339 30.514 12.677V304.23c-14.946 21.484-57.913 31.313-93.764 19.26 7.518 1.423 22.463 2.18 31.404.355-1.246-.933-3.472-2.312-3.472-6.761 6.051 4.627 19.928 4.937 23.887 3.292-3.068-1.69-5.247-6.895-4.137-9.341 5.382 1.957 17.615 4.226 25.754 1.601-5.561-2.269-10.097-7.739-10.41-10.363 6.583 1.823 20.284 3.069 25.621-2.759-4.493.178-12.01-3.647-14.188-6.805 8.939 0 16.012-8.229 16.012-15.656-3.337 1.512-4.093 1.867-6.939 1.512 5.871-12.455-2.001-19.839-11.342-25.22-25.041-13.256-63.072-22.641-88.693-37.274-18.102-10.364-28.6-26.555-30.645-43.191-1.424-2-3.781-4.448-8.14-7.561-10.765 11.786 10.542 19.616-9.785 39.453 9.963-13.61-9.786-30.958-.222-43.812-1.558-.622-4.094-1.69-5.25-2.847-1.601-8.851 1.156-10.764-.845-18.948-.756-.891-6.006-1.691-9.83 2.223-2.402 2.447-5.47-1.601-5.694-5.292v-.934c0-.577.133-1.157.355-1.646 5.027 3.203 12.099-1.156 12.722-5.471-.134-2.536.044-3.336.268-6.983.622-11.965-5.65-19.749-9.832-19.483 3.737-4.803 10.321-4.67 11.21-1.6 1.645 5.738 3.601 11.341 5.426 11.163 1.825-.311 5.471-14.366-1.423-16.101 6.316-2.758 13.078-1.646 11.387 3.781-1.512 5.427-3.779 12.41-2.625 12.766 1.291.355 10.72-10.809 8.584-14.322 9.475 2.758 4.938 8.228 3.428 9.918-1.425 1.602-5.695 2.981-7.518 9.296-.578 1.824 8.673.846 9.607-3.068 2.58 3.157 3.424 8.184.579 8.763-4.226.888-10.364.444-13.211 6.982-2.758 6.272 1.29 12.366 2.358 14.456 1.246 1.023 5.649 4.27 11.519 5.871 5.783-14.856 19.438-27.977 41.678-35.228-16.056-11.031-22.774-28.2-39.72-30.379 25.353-4.937 26.866 18.681 55.288 16.769-32.292-14.946-31.491-34.96-62.538-29.046 28.422-16.634 47.37 11.076 66.496 15.835-14.055-8.274-21.75-28.333-43.545-27.356 41.944-9.518 44.968 37.008 91.584 19.706-23.975-3.781-43.501-21.083-45.77-33.85-.311-1.512 1.691-1.823 2.492-.756 12.008 14.456 29.49 23.752 39.497 25.443-8.14-5.427-13.165-17.303-11.475-24.419.223-1.112 1.868-1.024 2.18 0 5.337 17.169 21.127 22.506 26.599 22.729 1.913-3.158-1.2-9.074-3.069-10.23 1.333-.843 8.406-.71 18.147 2.359m22.818 151.276v138.732c-7.161 3.603-14.856 6.494-22.819 8.719v-44.925c11.341-12.498 11.386-28.378 1.823-42.123 5.694 11.966 4.271 22.686-1.823 31.492V199.305c7.652 3.78 15.391 8.14 22.819 13.032m0-72.368v14.633c-6.762-1.423-14.902-1.423-22.819.622v-16.456c7.562-1.424 15.569.267 22.819 1.201m0-18.104c-4.271-1.868-12.366-4.18-22.819-1.646v8.941c4.315-.089 9.029-1.29 13.967-3.914-2.581 2.091-3.558 9.742 1.201 9.297 2.09-.222 4.758-.578 7.651-.889v-6.716c-.312-.311-.312-.757 0-1.469zm0-56.4v5.738c-.312 0-.622 0-.935.089-2.981.801-3.603 4.182-3.336 6.494 1.556.178 2.936 0 4.271-.311v21.75c-4.004 5.338-5.516 11.565-4.716 16.191-5.114-.534-11.474-.134-18.102 3.113V93.487a37 37 0 0 1 4.315-1.379c-1.513.089-2.937.134-4.315.178V76.363c3.291.666 6.36 1.378 10.052 1.156 1.201.134 2.401-2.224.756-5.026-.624-1.156-3.827-5.026-10.809-3.291v-8.14c2.669.802 5.515 1.868 8.495 3.158 1.201-.666 1.779-3.78.222-6.582 7.562-.534 10.408 6.182 10.231 9.029.934-.178 2.314-.578 3.871-1.202m0 60.003c.266-.667.888-1.556 1.823-2.713a25 25 0 0 0-1.823-.89zm0 8.185c5.915-.579 12.587-.89 16.501.978-3.603-9.652-14.813-5.872-16.501-7.695zm0 20.949v-14.633c12.142 1.512 22.15.934 24.152-20.061 2.981 2.313 3.914 8.007 4.003 10.72 2.49-.935 5.827-1.468 8.45 0 1.246-1.824 2.225-5.472 2.225-10.008 5.828 8.808 1.512 10.454 4.671 13.434 2.18 2.713-2.803 8.717-1.735 10.409 13.032 20.594-.133 26.554-6.227 32.87 3.514-7.828 3.113-19.482-5.604-21.973 1.867 13.076-15.258 23.485-21.306 22.73 13.787-10.856 5.693-20.463-8.629-23.488m68.765-76.06c-2.358.178-5.605-1.068-8.451-4.493-.667-.889-1.602-2.357-2.269-1.557-3.336 4.537-9.474 2.18-11.698-.089 1.201-4.448.845-10.63-3.468-12.321-2.136-.756-5.295-.266-8.541.979.801-3.602 5.203-5.115 7.873-9.518 2.356-3.869.979-11.342-6.94-9.03-4.848-8.54-15.967-9.296-20.417-4.715-5.469 5.515-4.268 11.832-.8 14.545 3.515 2.802 9.653.934 10.185-3.602.09-1.469-.577-2.892-1.423-3.203-.622-.222-.934.178-.622.668 1.69 2.758-.712 4.181-1.512 4.581-2.224 1.112-5.737-.579-5.427-5.337.49-8.406 13.389-8.852 16.637-.534 0 0 .622 2.18 2.669 1.29 4.981-2.047 6.138 3.914-1.112 11.164-2.135 2.224-3.114 4.047-3.336 5.738-3.292 1.912-6.273 4.493-8.051 7.161-4.092 2.491-10.942 4.626-15.701 5.56 1.646-1.467 4.582-8.628.756-14.857-1.333 1.735-4.448 3.425-7.115 4.493v5.738c2.58 0 4.314 3.025 4.314 4.982-1.379.4-2.803.933-4.314 1.29v21.75a25.44 25.44 0 0 1 10.452-8.228c2.313-.979 13.387-4.537 12.721 10.274 3.293-3.158 4.36-7.606 4.271-12.809 1.334.577 4.314 2.624 3.157 7.428 2.135-.267 4.449-3.869 4.76-6.716 1.113.712 2.58 4.403 1.823 7.295 2.757-.98 3.736-4.404 4.002-6.807 2.448 3.381 3.649 8.452 3.293 12.945 2.935-3.558 4.314-9.83 1.557-14.322 1.689-2.402 2.934-3.87 1.511-6.272-.71-1.601-3.068-3.781-3.202-5.56.134-.223.356-.534.622-.8 2.803 1.823 9.297 4.848 13.299-.134 3.114 5.159 7.162 6.806 10.498 6.449zm0-28.377v3.247c-.177.044-.311.044-.445.089-7.784 2.001-7.472 10.542-3.247 10.053 3.47-.668 1.913-3.693 1.379-4.226-.89-.889 1.158-.622 1.914.133q.199.2.399.534v3.38c-.045.044-.089.089-.089.178-.356.622-4.27 4.492-8.14.844-1.957-1.956-3.113-11.075 7.874-14.1a3 3 0 0 1 .355-.132m0 227.424c-1.424-2.848-3.336-8.051 0-11.076v-4.092c-6.984.223-9.83 4.448-8.23 9.118 1.824 5.204 4.271 11.12 4.315 13.923-1.957 5.203-9.829 8.362-12.409 11.342-.891.979.578 9.296 4.803 14.857-13.7-4.804-6.716-44.258-37.718-48.528 8.895-3.691 21.616.356 26.954 13.3-2.357-27-22.73-48.395-46.481-64.096v138.732c15.567-7.828 28.733-19.037 37.184-34.472 4.849 3.916 11.12 8.897 9.83 7.873 7.251 21.662-21.928 13.434-31.269 38.164 14.055-18.505 42.744-.758 41.499-35.674 8.673-10.364 7.962-19.705 11.298-26.288.045-.044.133-.132.222-.132v-22.951zm0-214.214c.711-1.379.445-2.581 0-3.38zm0 18.592v-3.424c2.312-.223 3.825-1.868 3.203-4.359-.356-1.424-.712-2.357 0-2.624.845-.311 10.141-5.027 8.717-11.832-1.245-5.738-7.515-6.984-11.919-6.316v-3.247c10.764-2.803 16.502 3.736 16.191 10.808-.267 7.029-5.517 10.454-10.098 12.277 1.557 4.225-1.69 8.227-6.094 8.717m.979 197.446c-.133-.267-.533-.935-.979-1.824v22.952c.979-.312 4.626 1.868 4.492 4.982-.222 8.495 13.611 10.408 12.366 1.245-7.65 2.313-11.699-9.697-6.849-14.811 3.335-3.47 19.348-6.982 21.171-3.292.4-.667.622-1.379.711-2.045v-1.023c-.445-4.094-6.359-7.429-10.809-5.16-5.515 3.068-9.563 5.204-9.873 3.335-.134-.668 7.65-7.338 10.318-12.765 1.601-3.024 4.449-5.516 7.829-4.404-9.563-12.632-14.234-.49-16.281 2.981-1.423 2.313-4.891 9.43-5.291 9.163-.669-.311 2.624-8.229 1.778-13.745-.533-3.513 3.603-5.515 5.381-6.049-8.006-5.16-11.965-3.114-12.854 3.514-.711-.045-1.423-.045-2.091-.045v4.092c.4-.356.89-.712 1.512-1.023.447 4.803.581 13.566-.531 13.922M169.914 463.558h-20.149l-7.072-19.305-15.08-40.921-12.631 34.294c3.602-1.557 12.409-4.893 16.278-6.05 0 0 6.272 7.206 11.432 12.677-4.138.134-20.062 1.468-31.536 3.869l-5.739 15.435H90.296l26.377-71.879c2.313-6.05-2.046-8.54-2.046-8.54h25.753zm-84.911-24.241c0 15.256-12.277 25.664-34.694 25.664-9.075 0-18.504-1.957-25.176-4.181v-18.859s2.268 3.826 7.029 6.538c4.091 2.269 9.74 4.093 16.857 4.093 10.764 0 15.39-5.872 15.39-10.498 0-7.294-7.695-9.741-17.925-13.611-6.85-2.624-12.811-5.293-16.013-8.763-3.603-3.96-5.47-7.606-5.47-13.967 0-7.383 3.558-14.632 10.674-18.592 6.05-3.38 13.923-5.026 22.552-5.026 9.163 0 15.613.934 20.15 1.868v14.455s-7.917-3.913-19.526-3.913c-9.785 0-14.945 4.046-14.945 8.45 0 4.181 7.916 7.429 18.235 11.031 14.677 4.984 22.862 11.922 22.862 25.311m125.211 12.277h-9.563v-23.619h8.495c1.468 0 2.891.089 4.225.311v-12.988c-1.778.534-3.868.8-6.227.8h-6.493v-20.949h6.937c2.18 0 4.138.222 5.783.622V383.14h-36.428c4.404 3.513 4.536 9.029 4.536 9.029v71.39h31.893V451.46a37 37 0 0 1-3.158.134m179.297 9.296c-5.694 2.712-13.39 4.091-21.974 4.091-13.433 0-24.241-3.913-31.225-11.697q-9.606-10.81-9.607-29.624 0-18.013 10.007-29.223c7.34-8.229 17.392-12.321 30.113-12.321 9.386 0 15.346 1.023 21.751 3.025l-2.625 15.656c-1.29-1.511-5.872-6.271-15.879-6.271-8.051 0-14.144 3.202-18.148 9.518-3.246 5.115-4.847 11.654-4.847 19.616 0 19.171 8.228 28.734 22.372 28.734 10.808 0 16.769-3.559 17.925-4.271zm-70.546-12.411-2.534 15.079h-54.709v-71.39s-.223-7.25-4.582-9.029h57.601v15.167c-1.868-3.069-6.538-3.158-6.538-3.158h-27.31v20.861h26.954v11.965h-26.954v23.619h27.132c2.844-.178 7.961-.845 10.94-3.114m116.493-66.363v11.253c-10.809.044-19.571 10.541-19.615 30.29-.089 19.838 8.673 29.713 19.525 29.757h.09v11.564c-21.885 0-39.588-13.922-39.588-41.321 0-27.31 17.704-41.543 39.588-41.543m-222.088 46.17c7.562 1.157 12.722 5.605 12.722 12.053 0 7.207-5.248 10.454-12.722 11.12v12.099c8.452 0 14.458-.134 20.727-3.024 6.805-3.159 11.788-9.652 11.788-17.525 0-13.789-8.94-20.284-22.329-21.929 4.805-.711 8.674-2.802 11.521-6.183 2.802-3.336 4.715-7.428 4.715-11.921 0-6.76-2.847-11.652-7.474-15.033q-6.337-4.803-17.747-4.803h-1.201v12.631c5.339 1.379 7.962 4.76 7.962 9.252 0 5.249-2.802 8.807-7.962 10.275zm222.088 36.695v-11.564c10.808-.044 19.571-9.874 19.659-29.623 0-19.839-8.762-30.381-19.571-30.424h-.088v-11.253c21.838 0 39.542 14.233 39.542 41.544 0 27.354-17.704 41.32-39.542 41.32" style="fill:#ec1c24"/></svg>