<svg width="64" height="64" viewBox="0 0 64 64" fill="none" xmlns="http://www.w3.org/2000/svg">
<path d="M24.8284 45.3619L24.9456 45.2761L28.7063 31.6566C28.8628 31.1609 29.1511 30.8842 29.6794 30.8278C30.6539 30.7236 33.374 30.7111 34.3317 30.8301C34.8123 30.8897 35.1314 31.1769 35.2748 31.6307L39.0983 45.4204C40.4776 40.8015 41.3628 36.0543 42.3353 31.3351C42.5032 31.0067 42.8121 30.8653 43.165 30.8278C43.9069 30.7489 45.9258 30.7396 46.6548 30.8301C47.7042 30.9601 47.3161 31.9478 47.189 32.6428C46.1705 38.2182 44.4608 44.7411 42.5145 50.0564C42.2495 50.7805 42.1186 51.8147 41.1909 51.9296C40.3685 52.0317 38.1959 52.0142 37.3528 51.9316C36.9988 51.897 36.6669 51.7969 36.4635 51.4842L32.0076 36.0034L27.5923 51.3512C27.4163 51.7033 27.1615 51.8711 26.7691 51.9229C26.1622 52.0029 23.0922 52.0177 22.572 51.8903C22.4632 51.8635 22.3157 51.7815 22.2273 51.712C21.8363 51.4045 21.084 48.9265 20.8748 48.2981C19.2864 43.5274 17.9086 38.279 16.9416 33.3401C16.7936 32.584 16.1605 30.9755 17.3001 30.8283C17.9793 30.7408 20.1627 30.7451 20.8469 30.8298C21.1846 30.8717 21.5046 31.0439 21.6551 31.3587C22.5871 36.0558 23.555 40.7465 24.8292 45.3616L24.8284 45.3619Z" fill="#0F2E65" style="fill:#0F2E65;fill:color(display-p3 0.0588 0.1804 0.3961);fill-opacity:1;"/>
<path d="M31.2683 12.0146C37.8291 11.7353 43.9857 15.4922 46.6351 21.4908C46.9414 22.1841 47.9663 24.2537 46.6554 24.4372C46.2159 24.4989 43.1365 24.4948 42.8043 24.3916C42.6649 24.3482 42.5015 24.2013 42.4168 24.0817C42.1247 23.6704 41.8393 22.7729 41.5214 22.2452C37.1783 15.0337 26.481 15.1617 22.3186 22.4794C21.9512 23.1252 21.6891 24.3508 20.9062 24.4384C20.1234 24.526 18.3345 24.5265 17.5328 24.4814C15.9618 24.3927 16.891 22.5393 17.2442 21.7064C19.6198 16.1054 25.1702 12.2741 31.2683 12.0146Z" fill="#FC5A05" style="fill:#FC5A05;fill:color(display-p3 0.9882 0.3529 0.0196);fill-opacity:1;"/>
</svg>
