<svg xmlns="http://www.w3.org/2000/svg" baseProfile="tiny-ps" version="1.2" viewBox="0 0 458 96">
  <title>Deskera Brand Wordmark - Dual</title>
  <path d="M192.009 53.158c-8.374-1.545-16.218-2.257-16.218-6.893 0-4.12 3.974-6.316 9.125-6.316 5.798 0 10.139 1.529 10.584 7.99h19.324c-1.031-13.003-11.079-21.116-29.758-21.116-15.587 0-29.356 6.52-29.356 20.427 0 15.449 13.126 18.493 24.591 20.423 8.76 1.547 16.746 2.19 16.746 8.113 0 4.248-3.992 6.567-10.305 6.567-6.956 0-11.438-1.905-11.771-7.92h-20.524C154.868 89.02 167.546 96 186.871 96c17.261 0 30.014-7.468 30.014-21.888 0-15.058-13.283-19.022-24.876-20.954Zm99.28-25.618h-25.983l-22.753 24.235L242.503 0h-21.407v94.62h21.457l.069-23.654 21.859 23.655h27.494l-31.669-34.37 30.983-32.711Zm62.203 25.8v41.28h20.424V58.787c0-11.093 1.643-15.203 11.172-15.203h.315v-16.76c-25.656 0-31.911 12.983-31.911 26.516Zm83.995-21.244c-3.645-2.147-8.526-5.273-18.018-5.273-17.974 0-32.563 13.953-32.563 34.41 0 18.33 12.019 34.528 32.563 34.528 8.985 0 13.51-2.514 18.018-5.12v3.96H458V27.54h-20.513v4.556Zm-2.133 36.354c-2.393 4.774-6.979 8.404-13.958 8.404-11.276 0-15.96-8.706-15.96-15.924v-.12c0-8.12 5.734-16.334 15.867-16.334 7.548 0 12.423 4.298 14.622 9.265 1.051 2.292 1.531 4.873 1.434 7.352-.191 2.58-.765 5.064-2.005 7.357ZM33.946 8.83H0v85.79h33.946c28.313 0 47.014-17.416 47.014-42.895 0-25.48-18.702-42.894-47.014-42.894Zm-.439 66.866h-12.05V26.492h12.05c16.024 0 26.537 9.738 26.537 24.601S49.53 75.696 33.507 75.696Zm85.433-49.204c-18.992 0-34.605 14.043-34.605 34.591 0 20.672 15.613 34.588 34.475 34.588 15.616 0 27.761-7.642 32.956-21.594h-20.8c-3.457 4.11-8.086 4.95-12.156 4.95-7.026 0-12.359-4.81-14.051-12.614h47.873v-5.33c-.388-21.328-15.22-34.59-33.692-34.59Zm-13.901 27.149c1.935-6.58 7.877-10.194 13.687-10.194 5.94 0 11.105 3.227 13.042 10.194h-26.729Zm210.316-26.818c-18.927 0-34.485 13.995-34.485 34.47 0 20.6 15.558 34.468 34.355 34.468 15.561 0 27.663-7.615 32.841-21.518h-20.727c-3.445 4.096-8.059 4.931-12.114 4.931-7.001 0-12.316-4.794-14.002-12.569h47.707v-5.312c-.388-21.254-15.166-34.47-33.575-34.47ZM303.051 54.06c1.937-6.578 7.877-10.194 13.689-10.194 5.938 0 11.103 3.227 13.04 10.194h-26.729Z" class="shape"/>
  <defs>
    <style>
      path.shape{fill:#181818}@media (prefers-color-scheme:dark){path.shape{fill:#ffc64a}}
    </style>
  </defs>
</svg>
