<svg version="1.2" xmlns="http://www.w3.org/2000/svg" viewBox="0 0 1545 619" width="1545" height="619"><path fill-rule="evenodd" fill="#f22b2c" d="m50.9 616.4v-103.2h0.6l41.4 103.2h28.4v-165.2h-29.4v94.5h-0.6l-39.6-94.5h-30.2v165.2zm100.6-40.1c0 23.4 15.7 42.4 49.8 42.4 34.2 0 49.9-19 49.9-42.4v-85.1c0-23.3-15.7-42.3-49.9-42.3-34.1 0-49.8 19-49.8 42.3zm32.5-84.4c0-12.4 4.2-18.3 17.3-18.3 13.2 0 17.4 5.9 17.4 18.3v83.7c0 12.4-4.2 18.3-17.4 18.3-13.1 0-17.3-5.9-17.3-18.3zm128.1 124.5v-103.2h0.5l41.5 103.2h28.4v-165.2h-29.4v94.5h-0.5l-39.7-94.5h-30.2v165.2zm144.1-61.3h20.8v16c0 16.5-4.8 22.9-17.9 22.9-11.3 0-15.2-6.9-15.2-17.4v-84.9c0-14 6.6-18.1 14.4-18.1 12.9 0 18.7 6.5 18.7 31.1h30.9v-10.5c0-24.7-16.2-45.3-48.8-45.3-32 0-47.8 19-47.8 42.3v85.2c0 26.3 17.9 42.3 43.6 42.3 15.3 0 23.1-4.6 32.8-14.6l6.1 12.3h15.7v-83.7h-53.3zm116.3 61.3v-73.2h43.6v-24.8h-43.6v-42.5h58.3v-24.7h-90.8v165.2zm78.7-41.7c0 28.4 18.9 44 49.9 44 31 0 49.9-15.6 49.9-44v-123.5h-32.6v124.7c0 12.1-5.5 18.1-17.3 18.1-11.8 0-17.4-6-17.4-18.1v-124.7h-32.5zm294.3-85.8c-2.9-23.4-18.7-40.1-45.2-40.1-32 0-50.4 14.9-50.4 41.2 0 47.4 66.2 56.1 66.2 88.8 0 9.8-7.6 15.1-18.9 15.1-10.5 0-18.1-8.2-19.5-24.9l-30.9 3.9c1.3 24.7 18.6 45.7 48.8 45.7 30.5 0 51.5-15.1 51.5-42.3 0-44.9-66.2-58.4-66.2-86.5 0-10.3 5.8-16.2 16.3-16.2 7.3 0 16 4.1 17.3 18.3zm58.8 127.4v-67.7h14.2c40.1 0 58.8-13.5 58.8-48.7 0-35.3-18.7-48.8-58.8-48.8h-46.8v165.2zm0-141.9h12.7c21.2 0 27.8 5.8 27.8 25.5 0 19.6-6.6 25.3-27.8 25.3h-12.7zm128.7 74.2c5.8 0 12.6-0.3 16.8-0.7l23.1 68.4h33.1l-27.6-74.8c11-4.4 22.8-15.1 22.8-41.7 0-35.2-18.6-48.7-55.1-48.7h-45.7v165.2h32.6zm0-74.2h11.5c17.6 0 24.2 5.7 24.2 25.5 0 19.6-6.6 25.3-24.2 25.3h-11.5zm99.2-23.3v165.2h32.6v-165.2zm96.6 165.2v-103.2h0.5l41.5 103.2h28.3v-165.2h-29.4v94.5h-0.5l-39.7-94.5h-30.1v165.2zm144.1-61.3h20.7v16c0 16.4-4.7 22.9-17.8 22.9-11.3 0-15.3-6.9-15.3-17.4v-84.9c0-14 6.6-18.1 14.5-18.1 12.8 0 18.6 6.4 18.6 31.1h31v-10.5c0-24.7-16.3-45.3-48.8-45.3-32.1 0-47.8 19-47.8 42.3v85.1c0 26.3 17.8 42.4 43.6 42.4 15.2 0 23.1-4.6 32.8-14.7l6 12.4h15.8v-83.8h-53.3zm-842.7-353.1h139.5v-16.5l-36.8-38.8-22.3 26.9h-87.6v-69.9h128.7v-16.5l-36.7-33.1-22.5 21.2h-69.5v-62.3l-72.9-12.7v75h-104.2v28.4h104.2v69.9h-123.7v28.4h119.5c-11.6 53-53.3 108.2-119.4 152.6l16.5 26.2c94-39.2 149-85.2 163.4-139.5 14.4 39.7 55 96.6 120.7 139.5l52.3-61.9c-55.3-23.5-117.8-69.2-149.2-116.9z"/><path fill-rule="evenodd" fill="#f22b2c" d="m1141 101.9l-69.2-12.9v220.2h-50.3v-296.1l-69.1-12.8v308.9h-50.3v-207.3l-69.1-12.9v291.7l69.1-11.3v-30h169.7v41.3l69.2-11.3zm330.9-67.7l-25.4 27.8h-98.5c8.3-1.7 31.9-23.2 39.9-41.8l-59.5-20c-11.1 34.3-27.3 61.8-27.3 61.8h-22.1l-61.3-27.8v191l61.3-12.8v-10.6h169v23.4l61.8-12.8v-112l15-17zm-192.8 114.7h169v18.8h-169zm0-52.9h169v18.7h-169zm182.2 195.6c34.1-10.3 58.5-22.8 73.2-37.7l-51.5-26.6c-10.3 15.9-24.9 31.6-43.8 47-8.5-6.9-19.3-19.6-32.3-39.5v-15.8l-62.1-10.6v112.5c0 4.7-3 6.6-8.8 6.6h-49.4v20c26.7 1.5 39.5 11.9 39.5 30.9v2.2h44.1q36.7 0 36.7-35v-57.3c13.5 33.7 44.4 62.3 96.7 91.3l40.5-43.1c-29.4-12.2-55.6-25.4-82.8-44.9zm-171.7-72.3l-26.7 19.8h-69.2v23.8h68.4c-11.1 32.9-34.6 62.6-70.5 89l20.2 20.5c54.3-21.7 90.1-57 107.2-106l19.5-14.3zm-994.7 34.4c24.9-7.8 49.7-23.9 64.4-44.7l-54-33c-10.9 21.1-31 39.7-42.1 48.9-25.5-26.2-43.3-56.5-57.3-88.9 9-11.4 17.3-23.4 24.7-36.2h73.9l-16.6 45.3 52.8 17.1 48.3-86.2-54.7-34.8-28 28.1h-60.2c6.5-15.3 12-31.4 15.8-48.5l-70.9-20.6c-6.7 24.8-15.5 47.9-26.1 69.1h-60.1l5.8-19.4-51.7-20c-13.9 37.4-49 97.8-49 97.8l68.4 29.9 17.4-57.8h52c-36.1 56.5-87 98.7-147.2 128.9l21.9 31.3c19.4-6.2 39.6-14.6 59.8-24.9v75.8c-27.3 6.1-47 9.7-47 9.7l19.8 60c69.8-18.7 116.5-37.8 163.1-73.3l-14.3-32.5c-17.8 7.7-39.5 14.8-61.4 21v-98.5c11.2-8.5 22.2-17.7 32.6-27.7 26.6 71.6 60.3 140.2 166.5 211l53.4-61.2c-41-23-73.6-44.3-100-65.7z"/></svg>