<svg xmlns="http://www.w3.org/2000/svg" viewBox="0 0 1400 1400"><defs><style>.a994d081-920a-4a9c-a132-357baac52b04{fill:#031f3d;}.b96575ab-05f5-4d5e-b03a-d1d5c70995cf{fill:#fff;}</style></defs><title>TLG-LOGO-SQUARE-BLUE-WHITE</title><g id="f4f291f1-c050-43cb-9657-8bf0d77c1509" data-name="TLG-LOGO-SQUARE-BLUE-WHITE"><rect class="a994d081-920a-4a9c-a132-357baac52b04" width="1400" height="1400"/><path class="b96575ab-05f5-4d5e-b03a-d1d5c70995cf" d="M198.14,631.13H161.26V589.2H282.51v41.93H245.88v145H198.14Z"/><path class="b96575ab-05f5-4d5e-b03a-d1d5c70995cf" d="M289.84,589.2h41.93v59.61h.51c7.07-12.63,21.22-17.68,36.12-17.68,13.39,0,29.31,4.8,38.15,15.41,11.87,13.89,13.13,26.27,13.13,51.28v78.31H377.75V699.84c0-6.82,0-29.3-22.48-29.3-23.5,0-23.5,21-23.5,27.79v77.8H289.84Z"/><path class="b96575ab-05f5-4d5e-b03a-d1d5c70995cf" d="M572,732.18c-6.82,15.66-16.67,27.78-28.54,35.87a68.2,68.2,0,0,1-39.92,12.63c-40.16,0-74.27-32.59-74.27-74.27,0-39.16,30.82-75.28,73.51-75.28s74,33.85,74,76.54a57.12,57.12,0,0,1-1,11.12H470.71c2.53,16.67,16.42,26.52,32.84,26.52,12.89,0,19.71-5.81,25.52-13.13ZM534.88,690.5c-1.77-8.34-10.11-24-31.83-24s-30.06,15.66-31.83,24Z"/><path class="b96575ab-05f5-4d5e-b03a-d1d5c70995cf" d="M198.14,805.8h47.74v145H301.2v41.93H198.14Z"/><path class="b96575ab-05f5-4d5e-b03a-d1d5c70995cf" d="M456.56,992.73H414.63V977.58h-.51c-7.07,13.64-24.5,19.95-40.92,19.95-44.46,0-70.48-34.86-70.48-75,0-46,33.09-74.78,70.48-74.78,23,0,35.87,11.12,40.92,19.71h.51V852.53h41.93Zm-77-34.35c26.27,0,35.11-22.23,35.11-35.87,0-16.93-11.62-35.62-35.37-35.62-24,0-34.61,20.21-34.61,36.12C344.65,936.15,354.25,958.38,379.52,958.38Z"/><path class="b96575ab-05f5-4d5e-b03a-d1d5c70995cf" d="M507.09,852.53l21,87.15h.5l23-87.15h35.37l23.24,87.15h.5l21-87.15h43.2l-43,140.2H593L569.48,902H569l-23.49,90.69H506.58l-42.94-140.2Z"/><path class="b96575ab-05f5-4d5e-b03a-d1d5c70995cf" d="M818.82,852.53l-70.23,186.94H704.13l22.23-53.81-52-133.13H719l28.05,81.34h.5l26.78-81.34Z"/><path class="b96575ab-05f5-4d5e-b03a-d1d5c70995cf" d="M951.75,948.78c-6.82,15.66-16.67,27.79-28.54,35.87a68.15,68.15,0,0,1-39.92,12.63C843.13,997.28,809,964.69,809,923c0-39.15,30.82-75.28,73.51-75.28s74,33.85,74,76.55a57,57,0,0,1-1,11.11H850.45c2.53,16.67,16.42,26.53,32.84,26.53,12.88,0,19.71-5.82,25.52-13.14ZM914.62,907.1c-1.77-8.34-10.11-24-31.83-24s-30.07,15.66-31.83,24Z"/><path class="b96575ab-05f5-4d5e-b03a-d1d5c70995cf" d="M966.91,852.53h39.41v14.91h.5c3.54-6.82,10.86-19.71,35.12-19.71v42.19c-19.46.5-33.1,4.55-33.1,25.77v77H966.91Z"/><path class="b96575ab-05f5-4d5e-b03a-d1d5c70995cf" d="M1114.69,891.94c-.25-3-.76-10.61-13.14-10.61-8.84,0-11.87,5.56-11.87,9.35,0,7.58,10.36,11.87,21.47,15.15,23.75,6.57,49,13.65,49,44,0,29.56-26,47.74-57.09,47.74-21.22,0-53.3-9.6-57.09-46.48h41.68c1.77,12.89,14.14,12.89,15.91,12.89,7.08,0,14.65-4.05,14.65-10.87,0-10.86-10.35-12.12-37.13-22.48-18.19-5.81-33.35-17.68-33.35-36.63,0-27.79,25.27-46.23,54.32-46.23,18.44,0,50.27,7.33,53.8,44.21Z"/><path class="b96575ab-05f5-4d5e-b03a-d1d5c70995cf" d="M387.6,1107.92c.25,3.28.25,6.06.25,9.85,0,62.65-48,100.29-99.78,100.29-56.59,0-99.28-44.21-99.28-98,0-55.82,45-96.24,100-96.24,44.72,0,83.12,30.06,93.47,66.18H328.74c-7.33-13.13-21-24.25-41.18-24.25-23.49,0-51,17.43-51,54.31,0,39.16,27.79,56.09,51.28,56.09,23.75,0,39.67-11.88,44.72-30.07H276.7v-38.14Z"/><path class="b96575ab-05f5-4d5e-b03a-d1d5c70995cf" d="M398.21,1027.33h41.93v186.94H398.21Z"/><path class="b96575ab-05f5-4d5e-b03a-d1d5c70995cf" d="M524.26,1069.52c51,0,75.54,40.17,75.54,74.52s-24.51,74.53-75.54,74.53-75.53-40.17-75.53-74.53S473.23,1069.52,524.26,1069.52Zm0,109.89c18.19,0,33.6-14.9,33.6-35.37s-15.41-35.36-33.6-35.36-33.59,14.9-33.59,35.36S506.07,1179.41,524.26,1179.41Z"/><path class="b96575ab-05f5-4d5e-b03a-d1d5c70995cf" d="M608.38,1027.33h41.94v57.85c14.9-15.91,34.86-15.91,40.67-15.91,29.3,0,69,21,69,74,0,50.52-35.11,75.78-70.73,75.78-19.7,0-34.86-9.6-40.17-19.7h-.5v14.9H608.38Zm74.53,152.59c21.47,0,35.11-17.44,35.11-35.88,0-18.19-13.64-35.62-34.36-35.62-22.23,0-34.86,17.94-34.86,35.37C648.8,1163.24,661.94,1179.92,682.91,1179.92Z"/><path class="b96575ab-05f5-4d5e-b03a-d1d5c70995cf" d="M920.62,1214.27H878.68v-15.16h-.5c-7.07,13.64-24.51,20-40.93,20-44.46,0-70.48-34.86-70.48-75,0-46,33.1-74.77,70.48-74.77,23,0,35.88,11.11,40.93,19.7h.5v-14.9h41.94Zm-77-34.35c26.27,0,35.11-22.24,35.11-35.88,0-16.92-11.62-35.62-35.36-35.62-24,0-34.61,20.21-34.61,36.13C808.71,1157.68,818.31,1179.92,843.57,1179.92Z"/><path class="b96575ab-05f5-4d5e-b03a-d1d5c70995cf" d="M938.55,1027.33h41.94v186.94H938.55Z"/><path class="b96575ab-05f5-4d5e-b03a-d1d5c70995cf" d="M1035,1033a17.49,17.49,0,1,1-17.45-17.49A17.51,17.51,0,0,1,1035,1033Zm-31.32,0a13.83,13.83,0,1,0,13.83-14A13.89,13.89,0,0,0,1003.67,1033Zm14.79-9.85c1.24,0,7,0,7,5.45a4.6,4.6,0,0,1-3.71,4.86v.09c2.75.78,3.25,2.42,3.34,5,.19,3.39.19,3.8.65,4.62h-3.44c-.36-.59-.5-1.19-.59-3.7-.14-3.16-.78-4-4.22-4.31h-4.07v8H1010v-20Zm-5,8.8h4.12c1.42,0,4.49,0,4.49-3.21-.23-2.11-2.34-2.33-4-2.33h-4.58Z"/></g></svg>