<svg xmlns="http://www.w3.org/2000/svg" viewBox="0 0 5200 925"><defs><style>.ef392e0a-9e2e-497e-b588-106f1df65676{fill:#fff;}</style></defs><title>TLG-LOGO-INLINE-WHITE-TRANSPARENT</title><g id="b99c06da-3990-4db5-93d1-63eae6eb5cfa" data-name="TLG-LOGO-INLINE-WHITE-TRANSPARENT"><path class="ef392e0a-9e2e-497e-b588-106f1df65676" d="M276.65,327.84H201.9v-85H447.66v85H373.42V621.72H276.65Z"/><path class="ef392e0a-9e2e-497e-b588-106f1df65676" d="M462.51,242.85h85V363.68h1c14.34-25.6,43-35.84,73.21-35.84,27.14,0,59.4,9.73,77.32,31.23,24.06,28.16,26.62,53.25,26.62,103.93V621.72h-85V467.1c0-13.82,0-59.39-45.57-59.39-47.61,0-47.61,42.5-47.61,56.32V621.72h-85Z"/><path class="ef392e0a-9e2e-497e-b588-106f1df65676" d="M1034.4,532.63c-13.82,31.75-33.79,56.33-57.85,72.71a138.18,138.18,0,0,1-80.9,25.6c-81.41,0-150.53-66.05-150.53-150.53,0-79.36,62.47-152.57,149-152.57s150,68.61,150,155.13c0,11.27-1,15.87-2.05,22.53h-213c5.12,33.79,33.28,53.76,66.56,53.76,26.11,0,39.94-11.78,51.71-26.63Zm-75.26-84.47c-3.59-16.9-20.48-48.64-64.51-48.64s-60.93,31.74-64.52,48.64Z"/><path class="ef392e0a-9e2e-497e-b588-106f1df65676" d="M1199.78,242.85h96.76V536.73h112.13v85H1199.78Z"/><path class="ef392e0a-9e2e-497e-b588-106f1df65676" d="M1723.55,621.72h-85V591h-1c-14.34,27.65-49.67,40.45-83,40.45-90.11,0-142.84-70.66-142.84-152.06,0-93.18,67.07-151.55,142.84-151.55,46.59,0,72.71,22.53,83,39.93h1v-30.2h85Zm-156.16-69.63c53.25,0,71.17-45.05,71.17-72.7,0-34.31-23.55-72.19-71.68-72.19-48.64,0-70.14,41-70.14,73.21C1496.74,507,1516.19,552.09,1567.39,552.09Z"/><path class="ef392e0a-9e2e-497e-b588-106f1df65676" d="M1826,337.57l42.5,176.63h1l46.59-176.63h71.68l47.1,176.63h1l42.49-176.63h87.55l-87,284.15H2000l-47.62-183.8h-1l-47.62,183.8h-78.84l-87-284.15Z"/><path class="ef392e0a-9e2e-497e-b588-106f1df65676" d="M2457.75,337.57,2315.42,716.44h-90.11l45.05-109.05L2164.89,337.57h90.62l56.83,164.86h1l54.27-164.86Z"/><path class="ef392e0a-9e2e-497e-b588-106f1df65676" d="M2727.17,532.63c-13.82,31.75-33.79,56.33-57.85,72.71a138.14,138.14,0,0,1-80.9,25.6c-81.4,0-150.52-66.05-150.52-150.53,0-79.36,62.46-152.57,149-152.57s150,68.61,150,155.13c0,11.27-1,15.87-2.05,22.53h-213c5.12,33.79,33.28,53.76,66.56,53.76,26.11,0,39.94-11.78,51.71-26.63Zm-75.26-84.47c-3.58-16.9-20.48-48.64-64.51-48.64s-60.93,31.74-64.51,48.64Z"/><path class="ef392e0a-9e2e-497e-b588-106f1df65676" d="M2757.89,337.57h79.87v30.2h1c7.17-13.82,22-39.93,71.17-39.93v85.5c-39.43,1-67.08,9.22-67.08,52.22V621.72h-85Z"/><path class="ef392e0a-9e2e-497e-b588-106f1df65676" d="M3057.41,417.44c-.51-6.15-1.54-21.51-26.63-21.51-17.92,0-24.06,11.27-24.06,18.95,0,15.36,21,24.06,43.52,30.72,48.13,13.31,99.33,27.64,99.33,89.08,0,59.91-52.74,96.77-115.71,96.77-43,0-108-19.46-115.71-94.21h84.47c3.59,26.12,28.68,26.12,32.26,26.12,14.34,0,29.7-8.2,29.7-22,0-22-21-24.58-75.27-45.57-36.86-11.77-67.58-35.84-67.58-74.24,0-56.32,51.2-93.69,110.08-93.69,37.37,0,101.88,14.85,109.05,89.6Z"/><path class="ef392e0a-9e2e-497e-b588-106f1df65676" d="M3684.6,406.17c.51,6.66.51,12.29.51,20,0,127-97.28,203.26-202.23,203.26-114.69,0-201.22-89.6-201.22-198.65,0-113.15,91.14-195.07,202.75-195.07,90.62,0,168.45,60.93,189.44,134.14H3565.31c-14.85-26.62-42.5-49.15-83.46-49.15-47.61,0-103.42,35.33-103.42,110.08,0,79.36,56.32,113.66,103.93,113.66,48.13,0,80.39-24.06,90.63-60.93H3459.84V406.17Z"/><path class="ef392e0a-9e2e-497e-b588-106f1df65676" d="M3706.1,242.85h85V621.72h-85Z"/><path class="ef392e0a-9e2e-497e-b588-106f1df65676" d="M3961.59,328.35c103.42,0,153.08,81.41,153.08,151s-49.66,151-153.08,151S3808.5,549,3808.5,479.39,3858.17,328.35,3961.59,328.35Zm0,222.72c36.86,0,68.09-30.21,68.09-71.68s-31.23-71.68-68.09-71.68-68.1,30.21-68.1,71.68S3924.72,551.07,3961.59,551.07Z"/><path class="ef392e0a-9e2e-497e-b588-106f1df65676" d="M4132.08,242.85h85V360.09c30.21-32.25,70.65-32.25,82.43-32.25,59.39,0,139.77,42.49,139.77,150,0,102.4-71.16,153.6-143.35,153.6-39.94,0-70.66-19.46-81.41-39.94h-1v30.21h-81.41Zm151,309.24c43.52,0,71.16-35.33,71.16-72.7,0-36.87-27.64-72.19-69.63-72.19-45,0-70.65,36.35-70.65,71.68C4214,518.3,4240.62,552.09,4283.12,552.09Z"/><path class="ef392e0a-9e2e-497e-b588-106f1df65676" d="M4764.9,621.72h-85V591h-1c-14.34,27.65-49.66,40.45-82.94,40.45-90.12,0-142.85-70.66-142.85-152.06,0-93.18,67.07-151.55,142.85-151.55,46.59,0,72.7,22.53,82.94,39.93h1v-30.2h85Zm-156.16-69.63c53.25,0,71.17-45.05,71.17-72.7,0-34.31-23.55-72.19-71.68-72.19-48.64,0-70.14,41-70.14,73.21C4538.09,507,4557.55,552.09,4608.74,552.09Z"/><path class="ef392e0a-9e2e-497e-b588-106f1df65676" d="M4801.25,242.85h85V621.72h-85Z"/><path class="ef392e0a-9e2e-497e-b588-106f1df65676" d="M4998.1,244a35.45,35.45,0,1,1-35.36-35.45A35.49,35.49,0,0,1,4998.1,244Zm-63.48,0a28,28,0,1,0,28-28.4A28.14,28.14,0,0,0,4934.62,244Zm30-19.95c2.5,0,14.29,0,14.29,11,0,4.46-2,8.54-7.52,9.84v.18c5.57,1.58,6.59,4.92,6.78,10.12.37,6.87.37,7.7,1.29,9.37h-7c-.74-1.2-1-2.41-1.2-7.51-.28-6.41-1.58-8.17-8.54-8.73h-8.26v16.24h-7V224.06Zm-10.12,17.82h8.35c2.88,0,9.1,0,9.1-6.5-.47-4.27-4.74-4.73-8.17-4.73h-9.28Z"/></g></svg>