<svg version="1.1" id="Layer_1" xmlns="http://www.w3.org/2000/svg" xmlns:xlink="http://www.w3.org/1999/xlink" width="479.591" height="522.94" viewBox="0 0 479.591 522.94" overflow="visible" enable-background="new 0 0 479.591 522.94" xml:space="preserve"> <g> <g> <path d="M425.028,19.064c-0.266-0.805-0.228-2.223-0.32-3.348c-0.022-0.389,0.012-0.783-0.146-1.223 c-0.158-0.44-0.432-0.925-0.717-1.242c-0.285-0.317-0.581-0.466-0.897-0.503c0.599-0.206,1.122-0.616,1.501-1.224 c0.379-0.607,0.611-1.412,0.6-2.275c-0.013-0.864-0.271-1.786-0.731-2.468c-0.99-1.456-2.737-1.704-4.265-1.63h-6.438v14.848 h2.498V13.9h3.732c0.409,0.002,1.088-0.055,1.769,0.475c0.899,1.064,0.502,2.462,0.659,3.651c0.014,0.708,0.083,1.378,0.379,1.973 h2.803C425.564,19.418,425.169,19.515,425.028,19.064z M421.744,11.299c-0.31,0.219-0.722,0.349-1.095,0.424 c-1.368,0.131-3.038,0.042-4.558,0.062V7.265h3.587c0.944,0.014,2.037-0.025,2.671,1.23 C422.673,9.476,422.686,10.532,421.744,11.299z"/> <path d="M430.266,6.263c-1.093-1.892-2.693-3.492-4.586-4.584C423.787,0.585,421.601,0,419.416,0 c-2.187,0-4.372,0.585-6.265,1.678c-1.894,1.092-3.493,2.692-4.587,4.584c-1.093,1.893-1.679,4.078-1.679,6.263 c0,2.186,0.586,4.371,1.679,6.263c1.094,1.893,2.693,3.492,4.587,4.585c1.893,1.093,4.078,1.678,6.265,1.678 c2.186,0,4.371-0.585,6.265-1.678c1.893-1.093,3.493-2.692,4.586-4.585s1.679-4.078,1.679-6.263 C431.945,10.341,431.359,8.155,430.266,6.263z M428.763,17.974c-0.93,1.605-2.29,2.963-3.898,3.89 c-1.609,0.927-3.467,1.424-5.324,1.424c-1.858,0-3.716-0.497-5.325-1.424c-1.608-0.927-2.969-2.284-3.898-3.89 c-0.929-1.606-1.427-3.46-1.427-5.315s0.498-3.708,1.427-5.314c0.93-1.606,2.29-2.963,3.898-3.89 c1.609-0.927,3.467-1.424,5.325-1.424c1.857,0,3.715,0.497,5.324,1.424c1.608,0.927,2.969,2.284,3.898,3.89 c0.929,1.606,1.427,3.46,1.427,5.314S429.692,16.368,428.763,17.974z"/> </g> <path fill="#243389" d="M108.137,420.307c-8.794,0-17.592-1.755-25.718-5.115s-15.582-8.347-21.802-14.567 c-6.221-6.22-11.207-13.675-14.568-21.801c-3.36-8.126-5.116-16.923-5.116-25.716V75.756c0-8.793,1.755-17.591,5.116-25.717 c3.361-8.126,8.347-15.581,14.568-21.801s13.676-11.207,21.802-14.567c8.126-3.36,16.924-5.115,25.718-5.115h254.153 c8.793,0,17.592,1.755,25.718,5.115c8.127,3.36,15.582,8.347,21.803,14.567s11.207,13.675,14.567,21.801 c3.36,8.126,5.116,16.924,5.116,25.717v277.352c0,8.793-1.756,17.59-5.116,25.716s-8.347,15.581-14.567,21.801 c-6.221,6.221-13.676,11.207-21.803,14.567c-8.126,3.36-16.925,5.115-25.718,5.115H108.137"/> <polyline fill="#FFFFFF" points="167.399,251.086 122.189,405.035 241.934,307.9 370.233,405.035 317.081,251.086 418.498,166.17 288.366,166.17 241.934,26.883 194.28,166.17 55.596,166.17 167.399,251.086 "/> <path d="M52.541,471.624H21.994c-0.53,0.087-0.988-0.088-1.693,1.131c-0.091,0.222-0.139,0.462-0.139,0.701v27.491 c-0.068,0.593,0.558,1.53,1.131,1.693c0.222,0.092,0.461,0.14,0.701,0.14h30.547v20.159H18.328 c-2.402,0.001-4.806-0.481-7.022-1.398c-2.216-0.916-4.245-2.275-5.938-3.969c-1.694-1.693-3.053-3.722-3.97-5.938 S0,507.015,0,504.612V469.18c0-2.403,0.481-4.807,1.398-7.022s2.276-4.244,3.97-5.938c1.693-1.693,3.722-3.053,5.938-3.969 c2.216-0.917,4.62-1.399,7.022-1.399h34.213V471.624L52.541,471.624z"/> <path d="M76.979,522.939c-2.403,0-4.806-0.481-7.022-1.398c-2.216-0.916-4.244-2.275-5.938-3.969 c-1.693-1.693-3.052-3.722-3.969-5.938s-1.399-4.619-1.399-7.022V469.18c0-2.403,0.482-4.807,1.399-7.022s2.276-4.244,3.969-5.938 c1.694-1.693,3.722-3.053,5.938-3.969c2.216-0.917,4.62-1.399,7.022-1.399H97.14c2.402,0,4.806,0.482,7.022,1.399 c2.216,0.916,4.244,2.275,5.938,3.969c1.694,1.693,3.053,3.722,3.97,5.938s1.398,4.619,1.398,7.022v35.432 c0,2.403-0.481,4.807-1.398,7.022s-2.276,4.244-3.97,5.938c-1.693,1.693-3.722,3.053-5.938,3.969 c-2.216,0.917-4.62,1.398-7.022,1.398H76.979 M95.307,473.456c0.068-0.592-0.558-1.529-1.131-1.692 c-0.222-0.092-0.461-0.14-0.701-0.14h-12.83c-0.592-0.068-1.53,0.558-1.693,1.131c-0.091,0.222-0.14,0.462-0.14,0.701v26.88 c-0.068,0.593,0.558,1.53,1.132,1.693c0.222,0.092,0.461,0.14,0.701,0.14h12.83c0.592,0.068,1.53-0.558,1.693-1.131 c0.092-0.222,0.14-0.462,0.14-0.702V473.456L95.307,473.456z"/> <path d="M158.846,522.94v-49.483c0.068-0.593-0.558-1.53-1.131-1.693c-0.222-0.092-0.462-0.14-0.702-0.14h-12.219 c-0.53,0.087-0.988-0.088-1.693,1.131c-0.092,0.222-0.14,0.462-0.14,0.701v49.483H122.8v-71.476h36.656 c2.403,0,4.806,0.481,7.022,1.398c2.216,0.917,4.244,2.276,5.938,3.97c1.693,1.693,3.052,3.722,3.969,5.938 s1.398,4.619,1.398,7.021v53.149H158.846"/> <polyline points="219.94,522.939 202.223,522.939 202.223,522.939 199.779,522.939 177.785,451.463 197.946,451.463 211.082,494.151 224.217,451.463 244.377,451.463 222.383,522.939 219.94,522.939 219.94,522.939 "/> <path d="M297.53,477.122v18.938h-30.547c-0.53,0.087-0.988-0.087-1.693,1.132c-0.092,0.222-0.14,0.462-0.14,0.701v2.443 c-0.068,0.593,0.558,1.53,1.132,1.693c0.222,0.092,0.461,0.14,0.701,0.14h30.547v20.771h-34.213c-2.402,0-4.807-0.481-7.022-1.398 s-4.244-2.275-5.938-3.969s-3.053-3.722-3.97-5.938c-0.916-2.216-1.398-4.619-1.398-7.022v-35.433c0-2.402,0.482-4.806,1.398-7.021 c0.917-2.216,2.276-4.244,3.97-5.938s3.722-3.053,5.938-3.969c2.216-0.917,4.62-1.399,7.022-1.399h34.213v20.771h-30.547 c-0.53,0.087-0.988-0.088-1.693,1.131c-0.248,1.047-0.248,2.093,0,3.235c0.441,0.915,1.063,1.102,1.693,1.132H297.53"/> <path d="M342.74,522.94h20.772l-12.219-28.103c2.642-2.024,5.282-4.05,6.708-6.697s1.845-5.91,1.845-9.186v-9.164 c0-2.397-0.479-4.797-1.395-7.014c-0.917-2.216-2.276-4.249-3.974-5.945c-1.696-1.696-3.729-3.057-5.945-3.973 c-2.217-0.917-4.616-1.396-7.015-1.396h-36.656v71.476h20.161v-32.988h2.443L342.74,522.94 M325.023,477.122v-4.276h12.219 c1.215,0,2.688-0.111,3.452,0.682c0.765,0.792,0.765,2.121,0,2.913s-2.237,0.682-3.452,0.682H325.023"/> <path d="M420.331,450.852v20.771h-31.158c-0.53,0.087-0.989-0.088-1.693,1.131c-0.245,0.842-0.249,1.688,0,2.625 c0.44,0.915,1.063,1.101,1.693,1.131h18.326c1.579,0,3.159,0.185,4.604,0.519s2.755,0.822,3.866,1.396s2.023,1.231,2.765,1.968 c0.741,0.737,1.311,1.553,1.8,2.594c0.49,1.04,0.899,2.306,1.188,4.015s0.44,3.861,0.44,6.006v9.162 c0,2.74-0.089,5.488-0.327,7.542c-0.238,2.055-0.581,3.414-0.985,4.541c-0.404,1.128-0.868,2.022-1.47,2.838 s-1.34,1.552-2.243,2.244c-0.903,0.691-1.971,1.34-3.173,1.881c-2.487,1.125-5.441,1.728-8.298,1.725h-39.711v-20.771h34.213 c0.53-0.087,0.988,0.088,1.693-1.131c0.248-1.047,0.248-2.093,0-3.235c-0.44-0.915-1.063-1.102-1.693-1.132h-15.274 c-2.753,0-5.516-0.157-7.635-0.478c-2.119-0.321-3.595-0.775-4.783-1.305c-1.188-0.528-2.09-1.132-2.844-1.874 c-0.754-0.741-1.36-1.622-1.893-2.777c-0.532-1.156-0.988-2.587-1.31-4.616c-0.321-2.03-0.475-4.659-0.475-7.278v-12.219 c-0.002-2.434,0.535-5.048,1.681-7.565c0.545-1.194,1.21-2.311,1.912-3.261s1.44-1.735,2.165-2.328 c0.725-0.594,1.437-0.995,2.288-1.328c0.853-0.332,1.845-0.595,3.487-0.717c1.642-0.122,3.934-0.103,5.277-0.092 c1.343,0.011,1.737,0.02,2.133,0.02H420.331"/> <path d="M479.591,477.122v18.938h-30.547c-0.53,0.087-0.988-0.087-1.693,1.132c-0.092,0.222-0.14,0.462-0.14,0.701v2.443 c-0.068,0.593,0.559,1.53,1.132,1.693c0.222,0.092,0.462,0.14,0.701,0.14h30.547v20.771h-34.213c-2.402,0-4.806-0.481-7.022-1.398 c-2.216-0.917-4.244-2.275-5.938-3.969s-3.053-3.722-3.969-5.938c-0.917-2.216-1.399-4.619-1.399-7.022v-35.433 c0-2.402,0.482-4.806,1.399-7.021c0.916-2.216,2.275-4.244,3.969-5.938s3.722-3.053,5.938-3.969 c2.217-0.917,4.62-1.399,7.022-1.399h34.213v20.771h-30.547c-0.53,0.087-0.988-0.088-1.693,1.131c-0.248,1.047-0.248,2.093,0,3.235 c0.441,0.915,1.063,1.102,1.693,1.132H479.591"/> </g> </svg>
