<svg version="1.2" baseProfile="tiny-ps" xmlns="http://www.w3.org/2000/svg" viewBox="0 0 1416 1591" width="1416" height="1591">
	<title>Prosus</title>
	<style>
		tspan { white-space:pre }
	</style>
	<path id="path1551" fill="#0332af"  fill-rule="evenodd" d="M1415.44 328.82L1415.44 703.86C1415.44 782.09 1386.13 850.56 1340.52 909.28C1317.7 938.63 1291.64 964.7 1259.03 987.56C1255.79 990.81 1255.79 990.81 1252.54 994.06C1158.03 925.61 1060.27 853.85 965.77 785.34C975.56 778.85 982.03 772.31 991.82 765.83C1079.84 700.57 1171.06 638.6 1259.03 573.39C1324.24 524.5 1369.81 465.78 1395.93 387.55C1402.41 371.22 1405.66 354.89 1408.95 338.61C1408.95 335.36 1408.95 332.07 1412.2 328.82C1412.2 328.82 1415.44 325.58 1415.44 328.82ZM1.24 279.89C27.3 299.46 53.36 319.03 76.18 335.36C203.25 429.94 333.59 524.5 460.71 615.77C607.35 723.39 757.22 831.03 903.86 941.88C1008.16 1016.88 1219.94 1173.41 1219.94 1173.41L1356.84 1075.6L1356.84 1492.97L1219.94 1590.85L1.24 694.07L1.24 279.89ZM894.07 5.97C946.25 12.51 995.13 25.54 1040.7 48.36C1070.05 61.44 1099.36 80.96 1122.18 100.53C1167.81 139.68 1200.42 185.32 1210.15 244.05C1223.19 306 1210.15 358.18 1174.31 410.37C1151.54 442.96 1125.43 469.03 1092.87 488.6L1089.58 491.85L1086.33 488.6C988.59 426.63 884.34 407.07 770.25 416.85C708.34 423.39 649.68 436.42 597.56 465.78C587.78 472.32 574.75 478.82 564.96 485.36C561.72 485.36 558.47 488.6 558.47 488.6L278.18 279.89C287.96 273.39 297.75 263.61 310.78 257.06C389.01 201.65 467.2 142.93 542.15 87.5C604.06 41.87 672.49 15.76 744.19 5.97C793.07 -0.53 845.19 -0.53 894.07 5.97Z" />
</svg>