<svg version="1.2" baseProfile="tiny-ps" xmlns="http://www.w3.org/2000/svg" viewBox="0 0 1555 1535" width="1555" height="1535">
	<title>Prosus Wordmark</title>
	<style>
		tspan { white-space:pre }
	</style>
	<path id="path1551" fill="#0332af" fill-rule="evenodd" d="M0.71 1159.65L129.29 1159.65C198.86 1159.65 255.76 1218.69 255.76 1288.31C255.76 1357.9 198.86 1414.84 129.29 1414.84L42.86 1414.84L42.86 1535.07L0.71 1535.07L0.71 1159.65ZM633.09 1157.55C704.75 1157.55 763.79 1216.59 761.69 1286.18C761.69 1357.9 704.75 1414.84 633.09 1414.84C561.42 1414.84 504.51 1357.9 504.51 1286.18C504.51 1214.49 561.42 1157.55 633.09 1157.55ZM1539.53 1195.5L1543.73 1199.73L1516.34 1231.35L1510.01 1225.02C1491.05 1206.06 1472.06 1197.6 1446.78 1197.6C1421.49 1197.6 1404.63 1208.16 1404.63 1225.02C1404.63 1237.68 1408.83 1248.24 1455.2 1258.76C1484.72 1267.22 1507.91 1273.55 1524.77 1286.18C1541.63 1298.84 1550.06 1315.73 1554.29 1345.25C1554.29 1389.52 1514.24 1419.07 1455.2 1419.07C1413.06 1419.07 1377.21 1402.18 1356.12 1374.76L1351.92 1368.43L1381.44 1341.02L1385.64 1347.34C1404.63 1368.43 1425.69 1378.99 1453.11 1378.99C1476.29 1378.99 1505.81 1372.66 1505.81 1345.25C1505.81 1326.26 1497.35 1315.73 1446.78 1305.17C1391.97 1290.41 1360.35 1275.65 1360.35 1229.25C1360.35 1187.07 1396.17 1159.65 1446.78 1159.65C1484.72 1159.65 1514.24 1170.18 1539.53 1195.5ZM1054.69 1159.65L1096.84 1159.65L1096.84 1294.64C1096.84 1338.92 1132.69 1374.76 1176.97 1374.76C1221.21 1374.76 1257.06 1338.92 1257.06 1294.64L1257.06 1159.65L1299.21 1159.65L1299.21 1294.64C1299.21 1362.14 1244.4 1416.97 1176.97 1416.97C1109.5 1416.97 1054.69 1362.14 1054.69 1294.64L1054.69 1159.65ZM898.7 1159.65C936.65 1159.65 966.17 1170.18 991.45 1195.5L995.65 1199.73L968.26 1231.35L961.93 1225.02C942.98 1206.06 923.99 1197.6 898.7 1197.6C873.41 1197.6 856.55 1208.16 856.55 1225.02C856.55 1237.68 860.75 1248.24 907.13 1258.76C936.65 1267.22 959.84 1273.55 976.69 1286.18C995.65 1298.84 1001.98 1315.73 1006.21 1345.25C1006.21 1389.52 966.17 1419.07 907.13 1419.07C864.98 1419.07 829.13 1402.18 808.04 1374.76L803.84 1368.43L833.36 1341.02L837.56 1347.34C856.55 1368.43 877.61 1378.99 905.03 1378.99C928.22 1378.99 957.74 1372.66 957.74 1345.25C957.74 1326.26 949.31 1315.73 898.7 1305.17C843.89 1290.41 812.27 1275.65 812.27 1229.25C812.27 1187.07 848.12 1159.65 898.7 1159.65ZM42.86 1201.83L42.86 1370.56L129.29 1370.56C175.67 1370.56 213.62 1332.59 213.62 1286.18C213.62 1239.81 175.67 1201.83 129.29 1201.83L42.86 1201.83ZM633.09 1199.73C584.61 1199.73 546.66 1237.68 546.66 1286.18C546.66 1334.72 584.61 1372.66 633.09 1372.66C681.57 1372.66 719.51 1334.72 719.51 1286.18C719.51 1239.81 681.57 1199.73 633.09 1199.73ZM432.85 1157.55C439.18 1157.55 445.48 1159.65 449.71 1159.65C453.94 1159.65 460.23 1159.65 466.56 1161.75L466.56 1206.06C456.04 1201.83 445.48 1199.73 434.95 1199.73C388.57 1199.73 348.52 1231.35 348.52 1286.18L348.52 1412.74L306.37 1412.74L306.37 1284.08C306.37 1210.26 363.28 1157.55 432.85 1157.55ZM1229.64 212.67L1229.64 455.23C1229.64 505.83 1210.68 550.11 1181.17 588.09C1166.41 607.07 1149.55 623.93 1128.46 638.72C1126.36 640.82 1126.36 640.82 1124.26 642.92C1063.12 598.65 999.88 552.24 938.75 507.93C945.08 503.73 949.27 499.5 955.6 495.31C1012.54 453.1 1071.55 413.02 1128.46 370.85C1170.64 339.23 1200.12 301.25 1217.02 250.65C1221.21 240.09 1223.31 229.53 1225.44 219C1225.44 216.9 1225.44 214.77 1227.54 212.67C1227.54 212.67 1229.64 210.57 1229.64 212.67ZM314.8 181.02C331.66 193.68 348.52 206.34 363.28 216.9C445.48 278.07 529.8 339.23 612.03 398.26C706.89 467.86 803.84 537.48 898.7 609.17C966.17 657.68 1103.17 758.92 1103.17 758.92L1191.73 695.66L1191.73 965.6L1103.17 1028.9L314.8 448.9L314.8 181.02ZM795.41 3.86C827.03 -0.34 860.75 -0.34 892.37 3.86C926.12 8.09 957.74 16.52 987.22 31.28C1006.21 39.74 1025.17 52.36 1039.93 65.02C1069.45 90.34 1090.54 119.86 1096.84 157.84C1105.27 197.91 1096.84 231.66 1073.65 265.41C1058.92 286.49 1042.03 303.35 1020.97 316.01L1018.84 318.11L1016.74 316.01C953.51 275.93 886.07 263.28 812.27 269.6C772.22 273.83 734.27 282.26 700.56 301.25C694.23 305.48 685.8 309.68 679.47 313.91C677.37 313.91 675.27 316.01 675.27 316.01L493.95 181.02C500.28 176.82 506.61 170.49 515.04 166.26C565.65 130.42 616.23 92.44 664.71 56.59C704.76 27.08 749.03 10.19 795.41 3.86L795.41 3.86Z" />
</svg>