<svg version="1.1" id="Layer_1" xmlns="http://www.w3.org/2000/svg" xmlns:xlink="http://www.w3.org/1999/xlink" x="0px" y="0px" viewBox="0 0 1000 265.1" style="enable-background:new 0 0 1000 265.1;" xml:space="preserve"> <style type="text/css"> .st0{fill:#B31917;} </style> <g> <g> <path class="st0" d="M193.7,19.4c-4.1-0.8-7.8-1.3-11-1.3c-8.4,0-13.2,3.3-13.2,11v6.5h19.4v17.3h-19.4v39.4 c5.4,0.5,11.2,1.1,16,1.9v14.5h-60V94.1c4.8-0.7,10.6-1.4,16.1-1.9V52.8h-17.2V35.6h17.2v-6.2C141.6,9.9,153.3,0,179.8,0 c4.9,0,10.1,0.3,15.6,1.2L193.7,19.4z"/> <path class="st0" d="M264.6,19.4c-4.2-0.8-8-1.3-11.1-1.3c-8.5,0-13.2,3.3-13.2,11v6.5h19.2v17.3h-19.2v39.4 c5.4,0.5,11.2,1.1,16,1.9v14.5h-59.9V94.1c4.9-0.7,10.4-1.4,16-1.9V52.8h-17.3V35.6h17.3v-6.2C212.4,9.9,224.2,0,250.6,0 c4.9,0,10.1,0.3,15.6,1.2L264.6,19.4z"/> <path class="st0" d="M296,28c-9.3,0-17.1-5.9-17.1-13.2c0-7.4,7.7-13.2,17.1-13.2c9.5,0,17.1,5.8,17.1,13.2 C313.1,22,305.5,28,296,28 M266,108.7V94.1c4.8-0.7,10.5-1.4,15.9-1.9V52.6c-4.3-0.6-10.6-1.2-15.9-1.4V36.8 c13.3-1.3,28.5-1.8,44-1.3v56.7c5.1,0.5,10.5,1.1,14.7,1.9v14.5L266,108.7L266,108.7z"/> <path class="st0" d="M369.3,110.1c-29.4,0-45.5-12-45.5-35.7c0-22,14.6-40.3,49.5-40.3c6.8,0,14.4,0.9,21,2.4v25h-18 c-0.7-3-1.2-5.7-1.7-8.2c-1.4-0.5-3.2-0.5-5-0.5c-9.7,0-16.7,6.9-16.7,18.9c0,12.5,6.3,19,22.7,19c5.7,0,12.2-1,17.5-2.9l1.9,19.4 C386.7,109.1,379.1,110.1,369.3,110.1"/> <path class="st0" d="M443.7,50.2c-8,0-13.9,5-14.6,12.5h27.6C457,54.6,451.8,50.2,443.7,50.2 M483.3,77.6h-54.5 c0.3,9.8,7.5,15.3,22.6,15.3c9,0,18.4-1.5,26.9-4.6l2.5,17c-10.3,3.4-22.6,5.1-33.8,5.1c-30.1,0-46.5-11.9-46.5-37.5 c0-22.4,15.6-39.1,43.9-39.1c27.6,0,39.7,14.9,39.7,34.1C484.1,71,483.8,74.1,483.3,77.6"/> <path class="st0" d="M32.2,56.4c0,17.2,10.6,30.4,28.1,30.4c17.4,0,28.1-13.2,28.1-30.4c0-16-9.8-30.8-28.1-30.8 C42,25.7,32.2,40.5,32.2,56.4 M120.6,56.6c0,33.3-27,53.2-60.3,53.2C27.1,109.8,0,89.9,0,56.6C0,24,27.2,2.8,60.3,2.8 C93.4,2.8,120.6,24,120.6,56.6"/> <path class="st0" d="M560,50.8c-3.4,0-2.5,0-4.6,0.3v41.8c1.2,0.2,0.5,0.2,4,0.2c13,0,24.8-7.5,24.8-21.2 C584.2,60.6,579.5,50.8,560,50.8 M555.7,109.3c-11.3,0-24-0.6-27.9-0.6h-13.5V96.8c4.1-0.8,8.6-1.3,13.5-1.5V49.1 c-4.9-0.1-9.4-0.6-13.5-1.1V35.5H527c8.7,0,17.8-0.3,33.3-0.3c31.1,0,52.8,8.8,52.8,35.2C613.1,95.3,590.2,109.3,555.7,109.3"/> <path class="st0" d="M617,108.6V96.7c4-0.8,8.6-1.3,13.3-1.5V49.1C625.5,49,621,48.5,617,48V35.5h81.7v20h-21.5 c-0.6-1.8-0.8-3.5-1-5.1l-18.1-0.1v14.6h16.7c0.4-1.4,0.4-2.2,1-3.5h15.9v19.8h-15.9c-0.6-1.2-0.7-1.8-1-3.1l-16.7,0v16.7h18 c0.4-2,0.9-4.7,1.4-6.6h21.8v20.5C699.1,108.6,617,108.6,617,108.6z"/> <path class="st0" d="M758.5,50.8c-0.4,0-3.7,0-5.1,0.2v20.5c1.3,0.3,3.9,0.3,4.5,0.3c8,0,14.3-3.7,14.3-10.6 C772.2,56,769.2,50.8,758.5,50.8 M756.7,86.2c-0.7,0-1.2,0-3.2-0.1v9.2c4.8,0.2,9.2,0.7,13.4,1.4v11.9h-54.1V96.8 c4.2-0.7,8.6-1.3,13.3-1.5V49c-4.7-0.1-9.1-0.6-13.3-1.1V35.5h13.1c5.1,0,17.5-0.5,29.1-0.5c28.5,0,44,8.5,44,24.4 C798.9,73.6,785.2,86.2,756.7,86.2"/> <path class="st0" d="M972.5,59.7c-0.5-2.4-1.2-6.1-1.5-8.8h-10.9v44.4c4.7,0.2,9,0.7,13.1,1.5v11.8h-53.9V96.8 c4.1-0.8,8.6-1.3,13.4-1.5V50.9h-11.1c-0.2,2.6-0.9,6.4-1.5,8.8h-18.4V35.5h89.3v24.2H972.5z"/> <path class="st0" d="M990.7,101.6h1c1.3,0,2.2-0.5,2.2-1.5c0-0.8-0.6-1.4-2.2-1.4c-0.4,0-0.8,0-1,0V101.6z M990.7,106.1h-1.4v-8.3 c0.8-0.1,1.4-0.2,2.6-0.2c1.3,0,2.2,0.3,2.8,0.7c0.4,0.3,0.7,0.9,0.7,1.7c0,1.2-0.7,1.7-1.7,2v0.2c0.7,0,1.2,0.7,1.4,2 c0.3,1.2,0.5,1.8,0.6,2h-1.5c-0.2-0.2-0.3-1-0.5-2.1c-0.2-1.1-0.9-1.6-2-1.6h-0.9L990.7,106.1L990.7,106.1z M992.1,95.5 c-3.4,0-6.3,2.8-6.3,6.3c0,3.4,2.9,6.3,6.4,6.3c3.6,0,6.4-2.9,6.4-6.3C998.6,98.3,995.8,95.5,992.1,95.5 C992.2,95.5,992.1,95.5,992.1,95.5z M992.2,94.3c4.5,0,7.8,3.4,7.8,7.5c0,4.3-3.3,7.5-7.9,7.5c-4.3,0-8-3.2-8-7.5 C984.1,97.7,987.8,94.3,992.2,94.3C992.1,94.3,992.2,94.3,992.2,94.3z"/> <path class="st0" d="M830.7,72c0,11.4,7.5,21.2,20.3,21.2s20.3-9.7,20.3-21.2c0-10.6-6.9-21.1-20.3-21.1 C837.6,50.9,830.7,61.4,830.7,72 M898.6,72.2c0,24.6-20.4,39.3-47.6,39.3c-27.2,0-47.5-14.8-47.5-39.3c0-24.1,20.4-39.7,47.5-39.7 S898.6,48.1,898.6,72.2"/> </g> <g> <path class="st0" d="M179.2,166.1c9.4,11.1,13.3,27.1,13.3,41.4c0,13.3-3.2,29.1-11.3,39.9c-9.2,12.2-24.8,17.8-39.8,17.8 c-14.9,0-29.5-4-39.5-15.9c-9.1-10.8-12.5-28-12.5-41.9c0-13.2,3-28.6,11.1-39.4c9.2-11.9,24.8-17.6,39.5-17.6 C154.9,150.4,169.2,154.2,179.2,166.1 M119.8,207.7c0,14.6,1.6,34.6,21.1,34.6c19,0,21.1-18.9,21.1-33.7 c0-14.6-1.4-35.4-20.8-35.4C121.9,173.2,119.8,192.6,119.8,207.7"/> <path class="st0" d="M234.9,233.1c0,2.1-0.6,11.1,2.9,11.1c1.6,0,3.2-1.1,5.2-1.1c5.2,0,7,4.3,7,9c0,6-2.7,11-9.4,11 c-6.8-0.2-13.2-1.6-19.7-1.6c-6,0-12.1,1.4-17.3,1.6c-6,0-8.7-4.9-8.7-11c0-4.8,1.7-9,7-9c2.1,0,3.7,1.1,5.2,1.1 c3.5,0,2.9-9,2.9-11.1v-29c0-5.6,0.3-6.2-5.4-6.2c-6.2,0-9.7-1.4-9.7-8.4c0-6.5,2.4-9.4,8.9-9.4c4.9,0,6.2,0.5,6.3-5.2 c0.6-17.3,15.6-24.4,31.3-24.4c5.2,0,11.8,1,16.4,3.3c5.4,2.9,9.5,8,9.5,14.1c0,7-4.8,12.4-11.9,12.4c-5.2,0-10.8-3.6-10.8-9.4 c0-1.7,0.5-2.7,1.4-4.3c-1.1-0.5-1.9-0.6-3.2-0.6c-5.9,0-7.9,3.5-7.9,9.1c0,5.1,0.3,5.1,5.4,5.1c6.7,0,11.3,0.3,11.3,8.6 c0,7.3-3,9.2-10,9.2c-6.5,0-6.7-0.3-6.7,6.2L234.9,233.1"/> <path class="st0" d="M297.8,233.1c0,2.1-0.6,11.1,2.9,11.1c1.6,0,3.2-1.1,5.2-1.1c5.2,0,7,4.3,7,9c0,6-2.7,11-9.4,11 c-6.8-0.2-13.2-1.6-19.7-1.6c-6,0-12,1.4-17.3,1.6c-6,0-8.7-4.9-8.7-11c0-4.8,1.7-9,7-9c2.1,0,3.6,1.1,5.2,1.1 c3.5,0,2.9-9,2.9-11.1v-29c0-5.6,0.3-6.2-5.4-6.2c-6.2,0-9.7-1.4-9.7-8.4c0-6.5,2.4-9.4,8.9-9.4c4.9,0,6.2,0.5,6.3-5.2 c0.6-17.3,15.6-24.4,31.3-24.4c5.2,0,11.7,1,16.3,3.3c5.4,2.9,9.5,8,9.5,14.1c0,7-4.8,12.4-11.9,12.4c-5.2,0-10.8-3.6-10.8-9.4 c0-1.7,0.5-2.7,1.4-4.3c-1.1-0.5-1.9-0.6-3.2-0.6c-5.9,0-8,3.5-8,9.1c0,5.1,0.3,5.1,5.4,5.1c6.7,0,11.3,0.3,11.3,8.6 c0,7.3-3,9.2-10,9.2c-6.5,0-6.7-0.3-6.7,6.2L297.8,233.1"/> <path class="st0" d="M362,233.1c-0.2,2.1-0.8,11.1,2.7,11.1c1.6,0,3.2-1.1,5.2-1.1c5.2,0,7,4.3,7,9c0,6-2.7,11-9.4,11 c-6.8-0.2-13.2-1.6-19.7-1.6c-6,0-12.1,1.4-17.8,1.6c-6.7,0-9.4-4.9-9.4-11c0-4.8,1.7-9,7-9c2.1,0,3.6,1.1,5.2,1.1 c3.5,0,2.9-9,2.9-11.1v-22.9c0-2.1,0.6-11.1-2.9-11.1c-1.6,0-3.2,1.1-5.2,1.1c-5.2,0-7-4.3-7-9.1c0-6,2.7-11,9.5-11 c4.5,0,8.7,1.6,13,1.6c4.8,0,9.4-1.6,14-1.6c4.8,0,4.8,4.5,4.8,8.1L362,233.1L362,233.1z M362.8,158.9c0,8.3-6.7,14.9-14.9,14.9 c-8.2,0-14.9-6.7-14.9-14.9c0-8.2,6.7-14.9,14.9-14.9C356.2,144,362.8,150.7,362.8,158.9"/> <path class="st0" d="M415.3,198.6c-11.8,0-15.9,12.4-15.9,22.2c0,5.1,1.1,11.6,4,15.9c2.9,4.1,8.2,7,13.2,7c7.3,0,9.7-4,12.2-10 c1.1-2.7,1.4-4.4,4-6c2.1-1.4,4.6-1.9,7-1.9c6.8,0,12.3,4.5,12.3,11.7c0,7.6-4.6,14.6-10.4,19.2c-7.3,6-16.7,8.4-26,8.4 c-11.3,0-22.2-3-30.3-11.3c-8.1-8.1-12.1-20.6-12.1-31.9c0-27,16.5-44.1,43.7-44.1c14.8,0,33.2,7,33.2,24.6c0,8.4-6.8,14-14.9,14 c-6.5,0-12.7-3-12.7-10.3c0-2.1,0.5-3.2,1.6-4.8C421.3,199.3,418.9,198.6,415.3,198.6"/> <path class="st0" d="M487.1,225.9c-3.2,0-7.1-1-7.1,3.3c0,9.1,7.1,15.9,16.4,15.9c13.5,0,12.5-12.5,24.9-12.5 c6.2,0,10.9,3.7,10.9,10c0,7-5.2,12.7-10.9,16.2c-7.5,4.6-16.5,6.4-25.2,6.4c-26.1,0-42.2-17.5-42.2-43.2 c0-25.1,15.6-44.1,41.6-44.1c9.5,0,19.7,2.1,26.9,8.7c7.5,6.8,11.4,17.6,11.4,27.6c0,9.4-1,11.8-10.5,11.8L487.1,225.9 L487.1,225.9z M501.9,208.3c2.6,0,5.6,0.8,5.6-2.7c0-2.4-1.6-5.2-3.3-6.8c-2.4-2.1-5.4-3-8.6-3c-4.3,0-7.8,1-10.8,4.3 c-1.4,1.4-4,4-4,6c0,3,4.9,2.2,6.7,2.2L501.9,208.3"/> <path class="st0" d="M632.1,166.9c1.4-5.9,3-14.4,12-14.3c8.1,0,16.1,1.6,24.1,1.6c5.7,0,13.7-1.6,21.8-1.6 c7.1,0,11.1,5.3,11.1,12.1c0,4.8-2.9,10.6-8.2,10.6c-2.4,0-4.6-1.1-7.1-1.1c-4.8,0-4,9.8-4,12.9v41.6c0,3-0.8,12.8,4,12.8 c2.5,0,4.8-1.1,7.1-1.1c5.4,0,8.2,5.9,8.2,10.6c0,6.8-4,12.1-11.1,12.1c-6.8,0-13.7-1.6-19.2-1.6c-7,0-13.8,1.6-20.7,1.6 c-6,0-8.7-5.2-8.7-12.1c0-4.8,1.9-10.6,5.6-10.6c1.6,0,3.2,1.1,4.9,1.1c3.3,0,2.9-9.8,2.9-12.8v-54.8l-21.9,75.2 c-1,3.3-1.9,6.2-4,9.1c-2.2,3.2-4.6,3.2-8.2,3.2h-5.4c-9.7,0-10.1-2.9-12.4-12.2l-21.3-75.2v54.8c0,3-0.3,12.8,3,12.8 c1.7,0,3.3-1.1,4.9-1.1c3.6,0,5.6,5.9,5.6,10.6c0,6.8-2.7,12.1-7.6,12.1c-6.8,0-13.6-1.6-19.2-1.6c-7,0-13.8,1.6-20.6,1.6 c-8.4,0-12.4-5.2-12.4-12.1c0-4.8,2.9-10.6,8.3-10.6c2.4,0,4.6,1.1,7.1,1.1c4.8,0,4-9.8,4-12.8V187c0-3,0.8-12.9-4-12.9 c-2.5,0-4.7,1.1-7.1,1.1c-5.4,0-8.3-5.9-8.3-10.6c0-6.8,4-12.1,15.1-12.1c8.1,0,16,1.6,24.1,1.6c5.7,0,13.6-1.6,21.7-1.6 c7.6-0.2,8,6,9.4,11.9l13,55.1L632.1,166.9"/> <path class="st0" d="M735.9,199.9c0,7.3-7,10.6-13.6,10.6c-7.8,0-14.6-5.5-14.6-13.6c0-16.4,22.5-19.1,34.6-19.1 c7.9,0,18.7,0.8,25.7,4.8c9.4,5.6,10.2,14.6,10.2,24.4v29.9c0,2.1-0.5,7.3,2.7,7.3c1.3,0,2.5-0.1,3.8-0.1c5.1,0,7.9,4.3,7.9,8.9 c0,8.9-8.9,12.2-16.4,12.2c-7.3,0-15.4-2.7-18.1-10.2c-7.5,7.1-17.1,10.2-27.1,10.2c-14.4,0-28.3-7.6-28.3-23.8 c0-37.6,49.2-18.1,49.2-39.1c0-6-5.6-8.9-10.8-8.9c-2.7,0-5.2,0.5-5.2,3.6L735.9,199.9L735.9,199.9z M751.9,226.7 c-4.6,4.9-23,2.5-23,11c0,5.5,4.5,7.4,9.1,7.4c9.3,0,13.9-5.5,13.9-14.9V226.7"/> <path class="st0" d="M813.3,205.9c-1.4-2.1-4.8-6.8-7.2-6.8c-1.4,0-3,0.6-4.4,1.1c-4.6,0-6.2-4.3-6.2-9.1c0-6,2.4-11,8.4-11 c4,0.2,8.2,1.6,12.5,1.6c4.8,0,9.4-1.4,14.3-1.6c5,0,8.2,3.3,8.2,9.1c0,5.4-4.1,5.7-4.1,8.3c0,2.2,3.7,8.1,4.6,9.7l2.2,4.1 l2.4-4.1c1-1.6,4.3-6.4,4.3-8.6c0-3.2-5.2-1.3-5.2-9.1c0-5.9,2.7-9.4,6.5-9.4c4,0.2,8.2,1.6,12.6,1.6c4.7,0,9.3-1.4,14.3-1.6 c5.7,0,8.1,4.9,8.1,11c0,4.8-1.4,9.1-6,9.1c-1.6-0.8-3.2-1.3-4.6-1.3c-2.4,0-3,1.8-4.3,3.8l-10.8,16.7l10.8,18.1 c1.3,1.9,3.6,6,5.9,6c1.1,0,2.5-0.6,4-0.5c4.6,0,6,4.3,6,9c0,6-2.4,11-8.1,11c-4.9-0.2-9.5-1.6-14.3-1.6c-4.3,0-8.6,1.4-12.5,1.6 c-4.8-0.3-8.3-4.6-8.3-10c0-2.7,0.6-3.6,2.4-5.2c1-0.8,2.9-2.2,2.9-3.8c0-1.9-3.5-7.6-4.4-9l-2.4-4.1l-4.6,7.5 c-1,1.4-3.2,4.6-3.2,6.3c0,3.8,5.4,1.7,5.4,8.3c0,6.2-3.7,9.7-8.9,10.1c-5-0.2-9.5-1.6-14.3-1.6c-4.3,0-8.6,1.4-12.5,1.6 c-5.6,0-7.9-4.9-7.9-11c0-4.8,1.4-9,6-9c1.8,0,3.3,0.6,5.1,0.6c2.7,0,4.6-3.3,6-5.7l2.7-4l8.6-13.7L813.3,205.9"/> <path class="st0" d="M893.8,188.5c0-4.4,3.3-7.8,7.6-7.8c4.3,0,7.6,3.4,7.6,7.8c0,4.5-3.3,8-7.6,8 C897.1,196.4,893.8,193,893.8,188.5 M892.1,188.5c0,5.3,4.3,9.3,9.3,9.3c5.1,0,9.3-4,9.3-9.3c0-5.2-4.2-9.2-9.3-9.2 C896.3,179.3,892.1,183.2,892.1,188.5 M897.8,193.9h1.7v-4.6h1.8l2.9,4.6h1.8l-3.1-4.8c1.6-0.2,2.9-1,2.9-2.9 c0-2.1-1.2-3.1-3.8-3.1h-4.2C897.8,183.1,897.8,193.9,897.8,193.9z M899.5,184.5h2.2c1.1,0,2.4,0.2,2.4,1.7c0,1.7-1.4,1.8-2.9,1.8 h-1.7V184.5z"/> </g> </g> </svg>
