<svg width="228" height="228" viewBox="0 0 228 228" fill="none" xmlns="http://www.w3.org/2000/svg">
<g clip-path="url(#clip0_21146_2718)">
<path d="M114.446 30C152.468 30 183.41 60.7737 183.893 98.7471C183.893 99.0137 183.893 99.3335 184 99.6533C184 119.28 175.849 137.04 162.764 149.68L159.063 153.413L143.925 138.245L147.963 134.854C157.24 126 163.032 113.467 163.032 99.6533C163.032 72.88 141.26 51.0664 114.5 51.0664C87.7404 51.0664 65.9678 72.8267 65.9678 99.6533C65.9678 111.813 70.4726 122.96 77.873 131.493C78.5165 132.24 79.1603 132.986 79.8574 133.68L80.9834 134.8L86.668 140.507L114.446 168.347L115.305 169.2L129.247 183.174L114.446 198L99.6455 183.174L71.8672 155.333L65.7002 149.146V149.094C61.3565 144.827 57.6025 139.973 54.4922 134.693C48.486 124.4 45 112.4 45 99.5996V98.7471C45.429 60.7738 76.4251 30 114.446 30ZM114.446 61.5195C135.361 61.5195 152.414 78.6397 152.414 99.5996C152.414 110.533 147.802 120.4 140.401 127.333C136.433 131.066 131.661 133.946 126.405 135.706L136.701 146.053L150.055 159.387L151.556 160.88L136.755 175.706L128.765 167.706L121.954 160.88L94.1758 133.04L87.6328 126.479C80.7152 119.6 76.4785 110.106 76.4785 99.5996C76.4786 78.5864 93.532 61.5196 114.446 61.5195ZM114.446 82.5332C105.062 82.5332 97.3937 90.213 97.3936 99.5996C97.3936 108.986 105.062 116.666 114.446 116.666C123.885 116.666 131.5 108.986 131.5 99.5996C131.5 90.213 123.831 82.5332 114.446 82.5332Z" fill="#DD1600"/>
</g>
<defs>
<clipPath id="clip0_21146_2718">
<rect width="139" height="168" fill="white" transform="translate(45 30)"/>
</clipPath>
</defs>
</svg>
