<svg width="464" height="115" viewBox="0 0 464 115" fill="none" xmlns="http://www.w3.org/2000/svg">
<g clip-path="url(#clip0_1225_5683)">
<path fill-rule="evenodd" clip-rule="evenodd" d="M47.368 0C73.3015 0 94.4068 21.0651 94.736 47.0587C94.736 47.2413 94.736 47.4603 94.8092 47.6794C94.8092 61.1143 89.2494 73.2714 80.3244 81.9238L77.8006 84.4794L67.4747 74.0965L70.229 71.7746C76.5569 65.7143 80.5073 57.1349 80.5073 47.6794C80.5073 29.3524 65.6568 14.4206 47.4046 14.4206C29.1524 14.4206 14.3018 29.3159 14.3018 47.6794C14.3018 56.0032 17.3744 63.6333 22.4221 69.4746L22.4221 69.4747C22.861 69.9857 23.2999 70.4968 23.7754 70.9714L24.5436 71.7381L28.4208 75.6444L47.368 94.7016L47.9532 95.2857L57.4634 104.851L47.368 115L37.2726 104.851L18.3254 85.7937L14.119 81.5587V81.5222C11.1562 78.6016 8.59574 75.2794 6.47424 71.6651C2.37754 64.619 0 56.4048 0 47.6429V47.0587C0.292621 21.0651 21.4345 0 47.368 0ZM55.5248 72.3586L62.5477 79.4411L71.6555 88.5681L72.6797 89.5903L62.5843 99.7395L57.1342 94.2634L52.4888 89.5903L33.5416 70.5332L29.0792 66.0427C24.3607 61.3332 21.471 54.8348 21.471 47.6427C21.471 33.2586 33.1027 21.576 47.368 21.576C61.6333 21.576 73.2649 33.2951 73.2649 47.6427C73.2649 55.1268 70.1193 61.8808 65.0715 66.6268C62.3648 69.1824 59.1094 71.1538 55.5248 72.3586ZM35.7363 47.6427C35.7363 54.0681 40.9669 59.3253 47.368 59.3253C53.8056 59.3253 58.9997 54.0681 58.9997 47.6427C58.9997 41.2173 53.7691 35.9602 47.368 35.9602C40.9669 35.9602 35.7363 41.2173 35.7363 47.6427Z" fill="white"/>
</g>
<path d="M141.699 60.6856V52.6083H154.239C155.854 52.6083 157.393 52.3172 158.701 51.6622C160.009 51.0073 161.086 50.1341 161.855 48.9698C162.624 47.7327 163.009 46.2774 163.009 44.6037C163.009 42.93 162.624 41.5474 161.855 40.3103C161.086 39.0732 160.009 38.2 158.701 37.5451C157.393 36.8902 155.854 36.5991 154.239 36.5991H141.699V28.5218H155.316C158.778 28.5218 161.855 29.1767 164.548 30.4865C167.317 31.7964 169.471 33.6884 171.087 36.0897C172.702 38.4911 173.472 41.3291 173.472 44.6037C173.472 47.8783 172.702 50.789 171.087 53.1904C169.471 55.5918 167.317 57.411 164.548 58.7208C161.855 60.0307 158.778 60.6856 155.316 60.6856H141.699ZM134.006 79.6782V28.5218H144.469V79.6782H134.006ZM193.32 80.4059C189.396 80.4059 185.935 79.6055 182.934 78.0773C179.934 76.4764 177.472 74.2933 175.703 71.5281C173.933 68.7629 173.087 65.6339 173.087 62.0682C173.087 58.5753 173.933 55.4462 175.626 52.7538C177.395 49.9886 179.703 47.8055 182.703 46.2046C185.704 44.5309 189.012 43.7305 192.628 43.7305C196.243 43.7305 199.398 44.5309 202.09 46.0591C204.86 47.5872 207.014 49.6247 208.552 52.3172C210.168 54.9368 210.937 57.9204 210.937 61.2677C210.937 61.9227 210.86 62.5776 210.783 63.2325C210.706 63.8874 210.63 64.6151 210.399 65.4155L179.165 65.4883V58.357L205.706 58.2842L201.629 61.2677C201.552 59.1574 201.09 57.411 200.398 56.0284C199.705 54.6458 198.705 53.5542 197.397 52.8265C196.09 52.0261 194.551 51.6622 192.628 51.6622C190.627 51.6622 188.858 52.0989 187.396 52.9721C185.935 53.7726 184.781 55.0096 183.934 56.5378C183.165 58.0659 182.78 59.8124 182.78 61.9226C182.78 64.0329 183.165 65.9249 184.011 67.5259C184.858 69.054 186.088 70.2911 187.704 71.1643C189.32 71.9647 191.166 72.4014 193.243 72.4014C195.166 72.4014 196.859 72.1103 198.397 71.5281C199.936 70.8732 201.244 70 202.398 68.7629L208.322 74.3661C206.552 76.3309 204.321 77.859 201.706 78.8778C199.167 79.8965 196.32 80.4059 193.32 80.4059ZM229.785 80.4059C226.324 80.4059 223.246 79.6055 220.554 78.0046C217.861 76.4036 215.707 74.2206 214.091 71.4554C212.553 68.6901 211.784 65.5611 211.784 62.1409C211.784 58.648 212.553 55.519 214.091 52.7538C215.707 49.9886 217.784 47.8055 220.477 46.2046C223.169 44.6037 226.324 43.8032 229.785 43.8032C232.478 43.8032 234.863 44.3126 236.94 45.3314C239.094 46.3501 240.787 47.8055 242.094 49.6247C243.402 51.4439 244.172 53.4815 244.249 55.7373V68.2535C244.172 70.5094 243.479 72.6197 242.171 74.4389C240.864 76.2581 239.171 77.7135 237.017 78.805C234.863 79.8965 232.478 80.4059 229.785 80.4059ZM231.478 71.6009C233.401 71.6009 235.017 71.2371 236.402 70.4366C237.863 69.6361 238.94 68.4718 239.71 67.0892C240.556 65.6339 240.941 63.9602 240.941 62.0682C240.941 60.249 240.556 58.5753 239.71 57.1927C238.94 55.7373 237.863 54.6458 236.402 53.8453C235.017 53.0449 233.401 52.6083 231.555 52.6083C229.632 52.6083 228.016 53.0449 226.554 53.8453C225.17 54.6458 224.093 55.8101 223.246 57.1927C222.477 58.5753 222.092 60.249 222.092 62.0682C222.092 63.9602 222.477 65.6339 223.246 67.0892C224.093 68.4718 225.17 69.6361 226.631 70.4366C228.093 71.2371 229.709 71.6009 231.478 71.6009ZM250.403 79.6782H240.402V70.2183L242.018 61.6316L240.325 53.1904V27.0664H250.403V79.6782ZM256.25 79.6782V44.5309H266.405V79.6782H256.25ZM261.327 38.8549C259.712 38.8549 258.327 38.3456 257.25 37.3268C256.173 36.2353 255.634 34.9254 255.634 33.3973C255.634 31.8691 256.173 30.6321 257.25 29.5405C258.327 28.449 259.712 27.9396 261.327 27.9396C263.02 27.9396 264.405 28.449 265.405 29.5405C266.482 30.6321 267.02 31.8691 267.02 33.3973C267.02 34.9254 266.482 36.2353 265.405 37.3268C264.328 38.3456 263.02 38.8549 261.327 38.8549ZM291.046 79.6782L312.818 28.5218H321.357L343.052 79.6782H331.897L315.126 37.6907H318.972L301.971 79.6782H291.046ZM302.586 70.1455V61.8499H331.666V70.1455H302.586ZM366.516 80.4059C363.823 80.4059 361.439 79.8965 359.284 78.8778C357.13 77.7862 355.438 76.4036 354.13 74.5844C352.822 72.7652 352.13 70.7277 352.053 68.3991V55.9556C352.13 53.627 352.822 51.5895 354.13 49.7703C355.438 47.951 357.207 46.4957 359.284 45.4041C361.439 44.3126 363.823 43.8032 366.516 43.8032C369.978 43.8032 373.055 44.6037 375.748 46.2046C378.44 47.8055 380.594 49.9886 382.133 52.7538C383.749 55.519 384.518 58.648 384.518 62.1409C384.518 65.5611 383.749 68.6901 382.133 71.4554C380.594 74.2206 378.44 76.4036 375.748 78.0046C373.055 79.6055 369.978 80.4059 366.516 80.4059ZM364.747 71.6009C366.593 71.6009 368.208 71.2371 369.67 70.4366C371.132 69.6361 372.209 68.4718 372.978 67.0892C373.824 65.6339 374.209 63.9602 374.209 62.0682C374.209 60.249 373.824 58.5753 372.978 57.1927C372.209 55.7373 371.132 54.6458 369.67 53.8453C368.208 53.0449 366.593 52.6083 364.747 52.6083C362.977 52.6083 361.362 53.0449 359.9 53.8453C358.438 54.6458 357.361 55.7373 356.515 57.1927C355.746 58.5753 355.361 60.249 355.361 62.0682C355.361 63.9602 355.746 65.6339 356.515 67.0892C357.361 68.4718 358.438 69.6361 359.823 70.4366C361.285 71.2371 362.9 71.6009 364.747 71.6009ZM345.898 94.3775V44.5309H355.976V53.7725L354.284 62.2865L355.899 70.8004V94.3775H345.898ZM408.674 80.4059C405.982 80.4059 403.597 79.8965 401.443 78.8778C399.289 77.7862 397.596 76.4036 396.288 74.5844C394.981 72.7652 394.288 70.7277 394.211 68.3991V55.9556C394.288 53.627 394.981 51.5895 396.288 49.7703C397.596 47.951 399.366 46.4957 401.443 45.4041C403.597 44.3126 405.982 43.8032 408.674 43.8032C412.136 43.8032 415.214 44.6037 417.906 46.2046C420.599 47.8055 422.753 49.9886 424.291 52.7538C425.907 55.519 426.676 58.648 426.676 62.1409C426.676 65.5611 425.907 68.6901 424.291 71.4554C422.753 74.2206 420.599 76.4036 417.906 78.0046C415.137 79.6055 412.059 80.4059 408.674 80.4059ZM406.905 71.6009C408.751 71.6009 410.367 71.2371 411.829 70.4366C413.29 69.6361 414.367 68.4718 415.137 67.0892C415.983 65.6339 416.368 63.9602 416.368 62.0682C416.368 60.249 415.983 58.5753 415.137 57.1927C414.367 55.7373 413.29 54.6458 411.829 53.8453C410.367 53.0449 408.751 52.6083 406.905 52.6083C405.136 52.6083 403.52 53.0449 402.058 53.8453C400.597 54.6458 399.52 55.7373 398.673 57.1927C397.904 58.5753 397.519 60.249 397.519 62.0682C397.519 63.9602 397.904 65.6339 398.673 67.0892C399.52 68.4718 400.597 69.6361 401.981 70.4366C403.366 71.2371 405.059 71.6009 406.905 71.6009ZM388.057 94.3775V44.5309H398.135V53.7725L396.442 62.2865L398.058 70.8004V94.3775H388.057Z" fill="white"/>
<path d="M448.426 52.7556C441.886 52.7556 436.501 47.6618 436.501 41.4764C436.501 35.2911 441.886 30.1973 448.426 30.1973C454.965 30.1973 460.35 35.2911 460.35 41.4764C460.35 47.6618 454.965 52.7556 448.426 52.7556ZM448.426 32.3803C443.117 32.3803 438.809 36.4554 438.809 41.4764C438.809 46.4975 443.117 50.5725 448.426 50.5725C453.734 50.5725 458.042 46.4975 458.042 41.4764C458.042 36.4554 453.734 32.3803 448.426 32.3803Z" fill="white"/>
<path d="M445.733 42.272V40.5256H449.118C449.81 40.5256 450.349 40.38 450.657 40.0162C451.041 39.6524 451.272 39.2157 451.272 38.6336C451.272 38.1242 451.118 37.6148 450.734 37.251C450.349 36.8871 449.81 36.6688 449.195 36.6688H445.733V34.8496H449.272C450.118 34.8496 450.887 34.9952 451.503 35.359C452.118 35.6501 452.657 36.0867 452.965 36.6688C453.349 37.251 453.503 37.8331 453.503 38.5608C453.503 39.2885 453.349 39.9434 452.965 40.5256C452.58 41.1077 452.118 41.4716 451.503 41.8354C450.887 42.1265 450.118 42.272 449.272 42.272H445.733V42.272ZM444.194 47.6569V34.9224H446.425V47.6569H444.194ZM451.58 47.6569L446.887 42.1265L448.964 41.3988L454.426 47.6569H451.58Z" fill="white"/>
<defs>
<clipPath id="clip0_1225_5683">
<rect width="94.8092" height="115" fill="white"/>
</clipPath>
</defs>
</svg>
