<svg width="24" height="24" viewBox="0 0 24 24" fill="none" xmlns="http://www.w3.org/2000/svg">
<rect width="24" height="24" fill="#01A88D"/>
<path fill-rule="evenodd" clip-rule="evenodd" d="M5 8.1645V13.4475L6.004 14.0305L5.502 14.8955L4.249 14.1685C4.095 14.0785 4 13.9145 4 13.7355V7.3575C4 7.1855 4.09 7.0235 4.236 6.9335C4.259 6.9185 4.286 6.9205 4.31 6.9105L4.305 6.8975L8.685 5.0395C8.811 4.9865 8.952 4.9865 9.078 5.0415L10.465 5.6415L10.068 6.5595L8.878 6.0445L5.696 7.3935L6.399 7.7435L5.954 8.6385L5 8.1645ZM13.991 18.4025V12.1365L18.976 9.6725V15.4545L13.991 18.4025ZM7.96 15.4535V9.6455L12.991 12.1365V18.4055L7.96 15.4535ZM13.489 6.8225L18.286 8.8975L13.491 11.2685L8.657 8.8755L13.489 6.8225ZM19.976 8.8545C19.971 8.6595 19.853 8.4855 19.674 8.4085L13.689 5.8195C13.563 5.7655 13.421 5.7645 13.296 5.8185L7.265 8.3805C7.085 8.4565 6.966 8.6305 6.96 8.8265C6.96 8.8315 6.964 8.8355 6.964 8.8405H6.96V15.7395C6.96 15.9165 7.054 16.0805 7.207 16.1705L13.238 19.7095C13.316 19.7555 13.403 19.7785 13.491 19.7785C13.577 19.7785 13.663 19.7565 13.739 19.7125C13.741 19.7115 13.743 19.7085 13.745 19.7065L13.746 19.7085L19.73 16.1695C19.882 16.0795 19.976 15.9155 19.976 15.7395V8.8675H19.972C19.972 8.8625 19.976 8.8585 19.976 8.8545Z" fill="white"/>
</svg>
