<svg width="40" height="40" viewBox="0 0 40 40" fill="none" xmlns="http://www.w3.org/2000/svg">
<rect width="40" height="40" fill="#01A88D"/>
<path fill-rule="evenodd" clip-rule="evenodd" d="M10.477 12.4869L15.603 9.5459L12.54 8.0639L7.534 10.9049L10.477 12.4869ZM9.985 13.3579L7 11.7539V18.8289L9.985 21.0179V13.3579ZM10.985 13.3479V22.0049C10.985 22.1929 10.879 22.3649 10.71 22.4499C10.639 22.4869 10.562 22.5049 10.485 22.5049C10.38 22.5049 10.277 22.4719 10.189 22.4079L6.205 19.4859C6.077 19.3919 6 19.2419 6 19.0829V10.9179C6 10.7419 6.093 10.5789 6.244 10.4879C6.247 10.4869 6.251 10.4869 6.254 10.4849L6.253 10.4829L12.274 7.0649C12.417 6.9839 12.59 6.9789 12.739 7.0489L16.891 9.0579C17.058 9.1389 17.166 9.3059 17.173 9.4909C17.179 9.6759 17.082 9.8499 16.922 9.9419L10.985 13.3479ZM21.985 30.5899V20.1019L19.579 18.5639L17.401 19.9429L16.866 19.0979L18.648 17.9699L13.923 14.9499V20.9589L15.285 20.0979L15.82 20.9429L13.923 22.1419V25.2519L21.985 30.5899ZM14.4 14.0679L19.015 17.0169V15.5199H20.015V17.6559L22.498 19.2429L31.447 14.1109L22.496 9.5859L20.015 10.9589V13.5199H19.015V11.5129L14.4 14.0679ZM32 24.6609V14.9459L23.493 19.8259L25.34 20.8759L24.846 21.7449L22.985 20.6869V30.6379L31.508 25.5309L30.932 25.2039L31.426 24.3349L32 24.6609ZM32.998 14.0829H33V25.5199C33 25.6959 32.909 25.8589 32.757 25.9489L22.742 31.9489L22.739 31.9439C22.732 31.9479 22.729 31.9569 22.721 31.9609C22.647 32.0009 22.566 32.0199 22.485 32.0199C22.388 32.0199 22.292 31.9919 22.208 31.9369L13.147 25.9369C13.007 25.8439 12.923 25.6879 12.923 25.5199V14.0369H12.927C12.927 14.0319 12.923 14.0269 12.923 14.0219C12.929 13.8449 13.027 13.6849 13.181 13.5999L22.243 8.5829C22.386 8.5029 22.561 8.4989 22.71 8.5739L32.726 13.6359C32.89 13.7189 32.996 13.8859 33 14.0699C33 14.0739 32.998 14.0779 32.998 14.0829ZM27.079 21.8639L29.687 23.3459L29.193 24.2159L26.584 22.7329L27.079 21.8639Z" fill="white"/>
</svg>
