<svg width="141px" height="30px" viewBox="0 0 141 30" version="1.1" xmlns="http://www.w3.org/2000/svg" xmlns:xlink="http://www.w3.org/1999/xlink"> <defs></defs> <g id="Page-1" stroke="none" stroke-width="1" fill="none" fill-rule="evenodd"> <g id="Desktop_about_app" transform="translate(-30.000000, -14.000000)"> <g id="menu"> <g id="logo" transform="translate(30.000000, 14.000000)"> <path d="M9.94924818,2.36394828 L8.46566058,2.36394828 C7.91092336,2.36394828 7.3680219,2.46687931 6.8379854,2.67274138 C6.30691971,2.87912069 5.83657664,3.20653448 5.4269562,3.65446552 C5.01630657,4.10343103 4.68541971,4.69722414 4.43172263,5.43636207 C4.17854015,6.17653448 4.05194891,7.09153448 4.05194891,8.18187931 C4.05194891,9.22515517 4.16618978,10.0972241 4.39570073,10.8006724 C4.62469708,11.5041207 4.93860219,12.0730862 5.33638686,12.5096379 C5.73468613,12.9456724 6.2045146,13.2549828 6.74741606,13.4365345 C7.29031752,13.6186034 7.86255109,13.7096379 8.46566058,13.7096379 L9.94924818,13.7096379 L9.94924818,2.36394828 Z M7.63355474,16.0372241 L3.21984307,26.0008448 L0,26.0008448 L4.84803285,15.3461897 C3.71385766,14.7642931 2.79787226,13.9092931 2.09853285,12.7827414 C1.39867883,11.6551552 1.04926642,10.1220517 1.04926642,8.18187931 C1.04926642,6.82463793 1.24790146,5.63084483 1.64620073,4.59998276 C2.0439854,3.57015517 2.58688686,2.71567241 3.27387591,2.03653448 C3.96137956,1.35791379 4.76312409,0.848948276 5.68013869,0.50912069 C6.59612409,0.169810345 7.56151095,0.000155172414 8.57424088,0.000155172414 L12.7352847,0.000155172414 L12.7352847,26.0008448 L9.94924818,26.0008448 L9.94924818,16.0372241 L7.63355474,16.0372241 Z" id="Fill-1" fill="#FF0000"></path> <path d="M73.1182259,26.2555345 C71.1642953,26.2555345 69.6323354,25.4734655 68.5233755,23.9098448 C67.4139011,22.3462241 66.8591639,19.9891552 66.8591639,16.8370862 C66.8591639,15.4063966 66.9975909,14.1096724 67.2754741,12.9458793 C67.5523281,11.7826034 67.9624631,10.7946724 68.5053646,9.98208621 C69.0477515,9.17053448 69.7229047,8.54001724 70.5313391,8.09105172 C71.3387442,7.64312069 72.2732551,7.41863793 73.3348719,7.41863793 C74.155142,7.41863793 74.8184595,7.50967241 75.3253391,7.6907069 C75.8311894,7.87277586 76.2896967,8.09777586 76.6998318,8.36363793 L76.3020471,11.0548448 C75.9160982,10.7155345 75.4637661,10.4186379 74.9450507,10.1641552 C74.4263354,9.90915517 73.8777734,9.78191379 73.29885,9.78191379 C72.2861201,9.78191379 71.4540142,10.3519138 70.8025325,11.4913966 C70.1515653,12.6308793 69.8258245,14.3641552 69.8258245,16.6917414 C69.8258245,18.9950172 70.0970179,20.7707069 70.6399193,22.0193276 C71.1823062,23.2679483 72.0329376,23.8917414 73.1902697,23.8917414 C73.8896091,23.8917414 74.4927186,23.7769138 74.9995982,23.5462241 C75.5059631,23.3160517 75.9274193,23.0553621 76.2655106,22.7646724 L76.9169923,24.8734655 C76.4342989,25.2862241 75.8913974,25.6193276 75.2888026,25.8738103 C74.6856931,26.1282931 73.9621675,26.2555345 73.1182259,26.2555345 L73.1182259,26.2555345 Z M58.6101493,16.8732931 L58.6101493,26.0010517 L55.7880909,26.0010517 L55.7880909,7.67312069 L58.6101493,7.67312069 L58.6101493,16.1460517 L62.9878391,7.67312069 L65.8459193,7.67312069 L61.3236274,16.2913966 L66.4974011,26.0010517 L63.4221602,26.0010517 L58.6101493,16.8732931 Z M47.8648172,9.7457069 C46.9966894,9.7457069 46.3817442,10.236569 46.0199814,11.2188103 C45.6582186,12.2005345 45.4287077,13.5158793 45.3324777,15.1643276 L49.9993719,15.1643276 C49.9993719,14.3889828 49.96335,13.667431 49.8907916,13.0001897 C49.8187478,12.3339828 49.7039923,11.7582931 49.5475544,11.2731207 C49.3900872,10.7884655 49.1729266,10.4129483 48.8960726,10.1455345 C48.618704,9.87915517 48.2749522,9.7457069 47.8648172,9.7457069 L47.8648172,9.7457069 Z M52.9300106,24.7643276 C52.3510872,25.2257069 51.6872551,25.5888103 50.940058,25.8557069 C50.1923464,26.1220862 49.3602405,26.2555345 48.4437405,26.2555345 C46.5628828,26.2555345 45.0792953,25.5226034 43.9940069,24.0551897 C42.908204,22.5888103 42.3658172,20.4370862 42.3658172,17.6010517 C42.3658172,16.1222586 42.4682223,14.7639828 42.6730325,13.5277759 C42.8778427,12.291569 43.2035836,11.2188103 43.6502551,10.3095 C44.096412,9.40018966 44.6686456,8.69105172 45.3684996,8.18208621 C46.0678391,7.67312069 46.8999449,7.41863793 47.8648172,7.41863793 C48.6120142,7.41863793 49.2995179,7.57018966 49.9273281,7.87277586 C50.5541091,8.17639655 51.0851748,8.66725862 51.5189814,9.34587931 C51.9533026,10.0245 52.2908792,10.9038103 52.5322259,11.9822586 C52.773058,13.0612241 52.8939887,14.376569 52.8939887,15.9277759 L52.8939887,17.4919138 L45.2964558,17.4919138 C45.2964558,19.5769138 45.579485,21.152431 46.1465726,22.2189828 C46.712631,23.2860517 47.5632624,23.8188103 48.696923,23.8188103 C49.4930069,23.8188103 50.1985215,23.6801897 50.8134668,23.4003621 C51.4289266,23.1220862 51.9172807,22.8495 52.2790434,22.5826034 L52.9300106,24.7643276 Z M36.432496,9.96398276 L33.2846967,9.96398276 L33.2846967,10.2913966 C33.2846967,11.2612241 33.2666858,12.3220862 33.2306639,13.4729483 C33.1941274,14.6253621 33.1159084,15.7948448 32.9954923,16.982431 C32.8740471,18.1705345 32.7057734,19.3405345 32.4886128,20.4913966 C32.2719668,21.6432931 31.9698974,22.7041552 31.5844631,23.6734655 L36.432496,23.6734655 L36.432496,9.96398276 Z M40.6655836,29.6010517 L38.1327296,29.6010517 L38.1327296,26.0010517 L30.3180361,26.0010517 L30.3180361,29.6010517 L27.7856967,29.6010517 L27.7856967,23.6734655 L28.9070069,23.6734655 C29.317142,22.7041552 29.6423682,21.6319138 29.883715,20.4551897 C30.1250617,19.2800172 30.3118609,18.0676034 30.4446274,16.8189828 C30.5768792,15.5703621 30.661788,14.2979483 30.6978099,13.0001897 C30.7343464,11.7034655 30.7523573,10.4491552 30.7523573,9.23674138 L30.7523573,7.67312069 L39.2185325,7.67312069 L39.2185325,23.6734655 L40.6655836,23.6734655 L40.6655836,29.6010517 Z M26.1575069,7.67312069 L26.1575069,26.0010517 L23.371985,26.0010517 L23.371985,17.7826034 L19.1749193,17.7826034 L19.1749193,26.0010517 L16.3528609,26.0010517 L16.3528609,7.67312069 L19.1749193,7.67312069 L19.1749193,15.4550172 L23.371985,15.4550172 L23.371985,7.67312069 L26.1575069,7.67312069 Z" id="Fill-3" fill="#000000"></path> <polygon id="Fill-6" fill="#000000" points="89.5069544 1.49110345 89.5069544 26.0011034 87.6981405 26.0011034 87.6981405 1.49110345 82.5969252 1.49110345 82.5969252 -0.000103448276 94.6441916 -0.000103448276 94.6441916 1.49110345"></polygon> <path d="M98.2262606,24.9826552 C99.0702022,24.9826552 99.7875526,24.6314483 100.378826,23.928 C100.969585,23.2255862 101.433753,22.3767931 101.771845,21.3826552 L101.771845,16.3281724 L99.8179139,16.3281724 C98.298819,16.3281724 97.1769942,16.6917931 96.4534686,17.4190345 C95.7299431,18.1462759 95.3681803,19.3095517 95.3681803,20.9098966 C95.3681803,22.2190345 95.6270234,23.2255862 96.1462533,23.928 C96.664454,24.6314483 97.3581328,24.9826552 98.2262606,24.9826552 L98.2262606,24.9826552 Z M102.278209,26.0011034 C102.205651,25.7590345 102.127432,25.4497241 102.043038,25.0736897 C101.958129,24.6981724 101.892261,24.1824828 101.843888,23.5276552 C101.410082,24.4007586 100.86718,25.0917931 100.216213,25.6007586 C99.5647314,26.1102414 98.7809978,26.3647241 97.8644978,26.3647241 C96.6340927,26.3647241 95.6331985,25.8981724 94.8613007,24.9645517 C94.0894029,24.0314483 93.7039686,22.7285172 93.7039686,21.0552414 C93.7039686,19.0912759 94.2221693,17.6067931 95.2596,16.6007586 C96.2965161,15.5952414 97.8037752,15.0914483 99.781892,15.0914483 L101.771845,15.0914483 L101.771845,12.8005862 C101.771845,11.3947241 101.518662,10.3767931 101.012297,9.74575862 C100.505418,9.11575862 99.7458701,8.80024138 98.7326255,8.80024138 C97.9602131,8.80024138 97.2372022,8.97662069 96.5620489,9.32731034 C95.886381,9.67903448 95.3316438,10.1698966 94.8978372,10.8004138 L94.4274942,9.16386207 C94.7892569,8.6792069 95.3373044,8.24886207 96.0736949,7.87282759 C96.8090562,7.49731034 97.6951949,7.30955172 98.7326255,7.30955172 C100.252235,7.30955172 101.415742,7.73989655 102.224177,8.60006897 C103.031582,9.46127586 103.436056,10.8004138 103.436056,12.6190345 L103.436056,22.6193793 C103.436056,23.2493793 103.472078,23.8861034 103.544636,24.528 C103.617195,25.170931 103.71291,25.6612759 103.833841,26.0011034 L102.278209,26.0011034 Z" id="Fill-8" fill="#000000"></path> <polygon id="Fill-10" fill="#000000" points="109.043636 26.0009483 107.342888 26.0009483 107.342888 7.67301724 109.043636 7.67301724 109.043636 16.2918103 115.157582 7.67301724 116.822308 7.67301724 110.816428 16.1826724 117.256115 26.0009483 115.374742 26.0009483 109.043636 16.509569"></polygon> <path d="M124.057924,24.873569 C124.636847,24.873569 125.148873,24.7768448 125.595544,24.5828793 C126.041701,24.3889138 126.421475,24.1587414 126.73538,23.8918448 C127.097143,23.6254655 127.410019,23.2980517 127.676066,22.9101207 L128.218453,24.3278793 C127.95292,24.7163276 127.615343,25.0556379 127.205723,25.3463276 C126.867632,25.6137414 126.42765,25.8501207 125.885263,26.0554655 C125.342362,26.2613276 124.721241,26.3647759 124.021902,26.3647759 C122.188387,26.3647759 120.771183,25.5340862 119.770803,23.8732241 C118.769909,22.2128793 118.269205,19.8801207 118.269205,16.8733966 C118.269205,13.8433966 118.763219,11.4915 119.752792,9.81874138 C120.741336,8.14546552 122.176551,7.30960345 124.057924,7.30960345 C124.99861,7.30960345 125.794694,7.47305172 126.445661,7.79994828 C127.097143,8.12736207 127.627179,8.53391379 128.037829,9.01856897 L127.567486,10.8366724 C127.156836,10.2790862 126.662822,9.79494828 126.083898,9.38218966 C125.505489,8.97046552 124.829822,8.76356897 124.057924,8.76356897 C122.65873,8.76356897 121.627475,9.46753448 120.964672,10.8733966 C120.30084,12.2792586 119.969953,14.2799483 119.969953,16.8733966 C119.969953,19.3949483 120.295179,21.3589138 120.946661,22.7647759 C121.597628,24.1711552 122.634544,24.873569 124.057924,24.873569" id="Fill-12" fill="#000000"></path> <path d="M139.325033,13.2366207 C139.325033,12.7519655 139.336869,12.3097241 139.361055,11.9098966 C139.384727,11.5095517 139.421263,11.1154138 139.469635,10.7274828 L139.361055,10.7274828 C139.240124,11.1402414 139.095522,11.5338621 138.927249,11.9098966 C138.757946,12.2854138 138.577322,12.6795517 138.384347,13.0912759 L132.451026,26.0011034 L131.003975,26.0011034 L131.003975,7.67317241 L132.595628,7.67317241 L132.595628,20.400931 C132.595628,20.8861034 132.583278,21.3340345 132.559606,21.7462759 C132.53542,22.1585172 132.498884,22.5707586 132.451026,22.983 L132.559606,22.983 C132.680022,22.5707586 132.824624,22.1647241 132.993413,21.7643793 C133.162201,21.3645517 133.342825,20.9590345 133.536314,20.5462759 L139.469635,7.67317241 L140.953223,7.67317241 L140.953223,26.0011034 L139.325033,26.0011034 L139.325033,13.2366207 Z" id="Fill-14" fill="#000000"></path> </g> </g> </g> </g> </svg>
