<svg width="126" height="40" viewBox="0 0 126 40" fill="none" xmlns="http://www.w3.org/2000/svg"> <g clip-path="url(#clip0_2002_313)"> <path d="M114.779 5.79883C114.022 5.79883 113.596 6.38759 113.596 6.95474C113.596 7.5219 114.022 8.10796 114.779 8.10796C115.535 8.10796 115.959 7.5192 115.959 6.95474C115.959 6.39029 115.532 5.79883 114.779 5.79883ZM114.779 7.50839C114.425 7.50839 114.233 7.23292 114.233 6.95204C114.233 6.67116 114.425 6.39569 114.779 6.39569C115.132 6.39569 115.324 6.67116 115.324 6.95204C115.324 7.23292 115.132 7.50839 114.779 7.50839Z" fill="black"/> <path d="M18.4324 2.9467C18.0219 2.55779 17.4439 2.35254 16.7579 2.35254C16.2043 2.35254 15.4751 2.49028 14.8323 2.61721C14.0005 2.77925 13.2983 2.91969 12.6204 3.06013C12.615 3.06013 12.6123 3.06283 12.6096 3.06823C12.6096 3.07093 12.6069 3.07634 12.6096 3.08174L12.8824 4.0324C12.8824 4.0324 12.8932 4.0432 12.9013 4.0432L12.9175 4.0378C13.5927 3.87575 14.2922 3.70561 15.0808 3.53546C15.7343 3.39502 16.261 3.3032 16.712 3.3032C17.4844 3.3032 17.9652 3.76772 17.9652 4.51583C17.9652 5.5151 16.8038 6.19838 14.6946 6.43875C14.6892 6.43875 14.6838 6.44145 14.6811 6.44685C14.6784 6.45225 14.6811 6.45765 14.6811 6.46305L15.2482 7.3732C15.2482 7.3732 15.2563 7.3813 15.2617 7.3813C17.7356 7.0086 19.0427 6.00663 19.0427 4.47802C19.0427 3.85685 18.8321 3.3302 18.4297 2.9467H18.4324Z" fill="black"/> <path d="M28.3955 4.49178C28.3955 4.49178 28.4009 4.49718 28.4063 4.49718C28.4063 4.49718 28.4144 4.49448 28.4171 4.49178L28.9384 3.75988C28.9384 3.75988 28.9411 3.74367 28.9384 3.73827C28.3901 3.21973 27.823 2.87134 27.0425 2.57425C27.0344 2.57155 27.0263 2.57425 27.0236 2.58236L26.6104 3.31426C26.6104 3.31426 26.6104 3.32236 26.6104 3.32776C26.6104 3.33316 26.6158 3.33586 26.6185 3.33586C27.3422 3.64375 27.8068 3.94623 28.3955 4.49178Z" fill="black"/> <path d="M26.9018 5.67463C26.8883 5.46938 26.8802 5.23711 26.8802 5.03996C26.8802 4.79959 26.9126 4.59974 27.072 4.28375C27.0747 4.27565 27.072 4.26755 27.0666 4.26215L26.2482 3.79492C26.2482 3.79492 26.232 3.79492 26.2266 3.80032C25.9457 4.23514 25.9052 4.66996 25.9052 4.89142C25.9052 5.03996 25.9214 5.27492 25.9349 5.48828C25.7405 5.46397 25.5811 5.45047 25.438 5.45047C24.5819 5.45047 23.958 5.9393 23.958 6.60909C23.958 7.35719 24.5954 7.87843 25.5082 7.87843C26.4211 7.87843 26.9396 7.3842 26.9396 6.61719V6.61179C27.315 6.79003 27.7012 7.0277 28.0901 7.31668C28.0928 7.31938 28.0982 7.31938 28.1036 7.31938C28.109 7.31938 28.1117 7.31668 28.1144 7.31128L28.5655 6.49295C28.5655 6.49295 28.5655 6.47675 28.5601 6.47135C28.0577 6.15536 27.469 5.87179 26.9018 5.67193V5.67463ZM25.9998 6.35252V6.57398C25.9998 6.83595 25.8134 6.99529 25.5028 6.99529C25.1733 6.99529 24.9438 6.84675 24.9438 6.63609C24.9438 6.42544 25.1841 6.2931 25.5433 6.2931C25.6838 6.2931 25.8296 6.31201 26.0025 6.35252H25.9998Z" fill="black"/> <path d="M26.4645 2.90629C26.4645 2.90629 26.478 2.89549 26.478 2.88739L26.3133 1.99344C26.3133 1.99344 26.3106 1.98534 26.3052 1.98264C26.3025 1.98264 26.2971 1.97994 26.2917 1.98264C25.9514 2.06636 25.5436 2.14469 25.1115 2.2041C25.2033 1.91782 25.2951 1.62074 25.3842 1.31556C25.3842 1.31016 25.3842 1.30746 25.3842 1.30206C25.3842 1.29666 25.3788 1.29666 25.3734 1.29395L24.4228 1.0752C24.4228 1.0752 24.4066 1.0779 24.4039 1.086C24.3039 1.51541 24.1959 1.91782 24.0717 2.32023C23.4937 2.37155 22.8807 2.40396 22.3486 2.41206C22.3432 2.41206 22.3405 2.41206 22.3378 2.41746C22.3351 2.42286 22.3324 2.42556 22.3351 2.43096L22.4512 3.32491C22.4512 3.32491 22.4593 3.33841 22.4674 3.33841C22.7699 3.33301 23.1912 3.306 23.7503 3.26279C23.41 4.13783 22.9617 4.96965 22.3459 5.8744C22.3459 5.8771 22.3432 5.8825 22.3459 5.8879C22.3459 5.8933 22.3486 5.896 22.354 5.8987L23.2263 6.39564C23.2263 6.39564 23.2317 6.39564 23.2344 6.39564C23.2398 6.39564 23.2453 6.39294 23.248 6.38754C23.942 5.22622 24.4066 4.25936 24.8036 3.15746C25.4599 3.07914 26.0675 2.98461 26.4699 2.90089L26.4645 2.90629Z" fill="black"/> <path d="M32.56 3.06864C32.8841 3.07404 33.7213 3.08214 34.6071 3.03893C34.3478 3.22258 34.121 3.39272 33.8968 3.57637C33.8914 3.57907 33.8914 3.58448 33.8914 3.58988C33.8914 3.59528 33.8941 3.60068 33.8995 3.60338L34.6935 3.97068H34.6989C34.7016 3.97068 34.707 3.97068 34.7097 3.96798C35.204 3.52236 35.4579 3.2982 35.8819 3.10645C36.1384 2.98221 36.2492 2.96061 36.5462 2.9363C36.5516 2.9363 36.5543 2.9363 36.557 2.9309C36.5598 2.9282 36.5597 2.9228 36.5597 2.91739L36.395 1.99104C36.395 1.99104 36.3869 1.97754 36.3788 1.97754C35.2661 2.11528 33.9995 2.15579 32.5059 2.10177C32.5005 2.10177 32.4978 2.10177 32.4951 2.10717C32.4924 2.11258 32.4897 2.11528 32.4897 2.11798L32.5438 3.05243C32.5438 3.05243 32.5519 3.06593 32.56 3.06864Z" fill="black"/> <path d="M37.3161 6.2931C37.3161 6.2931 37.308 6.2931 37.3026 6.2931C36.5437 6.48216 35.6255 6.58748 34.7774 6.58748C33.6404 6.58748 33.1111 6.37143 33.1111 5.9096C33.1111 5.61522 33.3271 5.28303 33.689 5.01836C33.6944 5.01566 33.6971 5.01026 33.6944 5.00485C33.6944 4.99945 33.6917 4.99405 33.6863 4.99135L32.868 4.53223C32.868 4.53223 32.8545 4.53223 32.8491 4.53223C32.3603 4.99675 32.1118 5.48018 32.1118 5.96902C32.1118 7.0142 33.0652 7.56515 34.8666 7.56515C35.8334 7.56515 36.7544 7.47333 37.5322 7.30048C37.5376 7.30048 37.5403 7.29778 37.543 7.29238C37.543 7.28967 37.5457 7.28427 37.543 7.28157L37.3161 6.30121C37.3161 6.30121 37.3134 6.2931 37.308 6.2904L37.3161 6.2931Z" fill="black"/> <path d="M37.859 1.13681C37.859 1.13681 37.8455 1.12871 37.8401 1.13141L37.2864 1.39608C37.2864 1.39608 37.2783 1.40148 37.2783 1.40689C37.2783 1.41229 37.2783 1.41499 37.2783 1.42039C37.5349 1.78499 37.6888 2.09827 37.8671 2.62222C37.8671 2.62762 37.8725 2.63032 37.8752 2.63032C37.8752 2.63032 37.8779 2.63032 37.8806 2.63032C37.8806 2.63032 37.886 2.63032 37.8887 2.63032L38.4504 2.35754C38.4504 2.35754 38.4612 2.34674 38.4585 2.33864C38.283 1.85251 38.1399 1.53382 37.8563 1.13681H37.859Z" fill="black"/> <path d="M36.9516 1.37508L36.4061 1.63165C36.4061 1.63165 36.3979 1.63705 36.3979 1.64246C36.3979 1.64786 36.3979 1.65056 36.3979 1.65596C36.6491 2.03946 36.8112 2.38516 36.9786 2.89019C36.9786 2.8956 36.984 2.8983 36.9867 2.8983C36.9867 2.8983 36.9894 2.8983 36.9921 2.8983C36.9921 2.8983 36.9975 2.8983 37.0002 2.8983L37.5755 2.60932C37.5755 2.60932 37.5863 2.59581 37.5836 2.59041C37.3891 2.09618 37.2406 1.77479 36.9678 1.38048C36.9624 1.37508 36.9543 1.37238 36.9489 1.37508H36.9516Z" fill="black"/> <path d="M42.1422 1.80167C42.9227 1.94211 43.7545 2.11226 44.5728 2.50116H44.5782C44.5782 2.50116 44.5809 2.50116 44.5836 2.50116C44.5863 2.50116 44.5917 2.49576 44.5917 2.49306L44.9726 1.63693C44.9726 1.63693 44.9726 1.62883 44.9726 1.62613C44.9726 1.62343 44.9672 1.61802 44.9644 1.61802C44.111 1.24262 43.3548 1.07788 42.4852 0.948242C42.4798 0.948242 42.4717 0.950943 42.469 0.959045L42.126 1.78277C42.126 1.78277 42.126 1.79087 42.126 1.79627C42.126 1.80167 42.1314 1.80437 42.1368 1.80437L42.1422 1.80167Z" fill="black"/> <path d="M43.9275 2.71191C43.5521 2.71191 43.066 2.78753 42.3989 2.95498C41.9857 3.05761 41.3915 3.20075 40.9918 3.28987C40.9864 3.28987 40.9837 3.29257 40.981 3.29797C40.9783 3.30337 40.9783 3.30608 40.981 3.31148L41.2619 4.24593C41.2619 4.24593 41.2727 4.25943 41.2808 4.25673C41.3915 4.22432 41.5185 4.18651 41.6562 4.146C42.0019 4.04338 42.3935 3.92994 42.7041 3.85162C43.3388 3.68148 43.5764 3.64907 43.8195 3.64907C44.1544 3.64907 44.7134 3.7706 44.7134 4.59162C44.7134 5.09666 44.4947 5.626 44.1112 6.04462C43.7061 6.47403 43.1254 6.80893 42.2882 7.0979C42.2828 7.0979 42.2801 7.10331 42.2774 7.10871C42.2747 7.11411 42.2774 7.11951 42.2828 7.12491L43.0687 7.8244C43.0687 7.8244 43.0741 7.8271 43.0795 7.8271C43.0795 7.8271 43.0822 7.8271 43.0849 7.8271C43.9572 7.50031 44.5784 7.0844 45.0375 6.52265C45.5426 5.90958 45.7883 5.2371 45.7883 4.46469C45.7883 3.41681 45.0402 2.71461 43.9275 2.71461V2.71191Z" fill="black"/> <path d="M54.8462 6.98979L54.0225 6.76562C54.0225 6.76562 54.0063 6.76563 54.0036 6.77643C53.8713 7.16803 53.6687 7.54344 53.4364 7.83782C53.4337 7.84052 53.431 7.84592 53.4337 7.85132C53.4364 7.85672 53.4391 7.85942 53.4418 7.86212L54.2899 8.28344C54.2899 8.28344 54.2953 8.28344 54.298 8.28344C54.3034 8.28344 54.3088 8.28344 54.3115 8.27533C54.5302 7.95125 54.7139 7.52453 54.8597 7.00869C54.8597 7.00599 54.8597 7.00059 54.8597 6.99789C54.8597 6.99519 54.8543 6.99249 54.8489 6.98979H54.8462Z" fill="black"/> <path d="M55.9834 6.86035L55.1678 6.96838C55.1678 6.96838 55.1597 6.97108 55.157 6.97648C55.157 6.97918 55.1543 6.98459 55.157 6.98999C55.2623 7.37889 55.3298 7.784 55.3514 8.1621C55.3514 8.16751 55.3514 8.17021 55.3568 8.17291C55.3595 8.17291 55.3622 8.17561 55.3676 8.17561C55.3676 8.17561 55.3676 8.17561 55.3703 8.17561L56.2643 7.98926C56.2643 7.98926 56.2778 7.97846 56.2778 7.97035C56.2075 7.52743 56.1238 7.18714 56.005 6.87115C56.005 6.86575 55.9969 6.86035 55.9888 6.86035H55.9834Z" fill="black"/> <path d="M60.0048 4.69134C60.0048 4.69134 60.021 4.68323 60.021 4.67513V4.21331C60.0912 4.24031 60.1615 4.26732 60.2344 4.29433C60.2425 4.29433 60.2479 4.29433 60.2533 4.28893L60.7124 3.64345C60.7124 3.64345 60.7151 3.63265 60.7124 3.62995C60.7097 3.62725 60.707 3.62185 60.7016 3.61915C60.2452 3.50031 59.8023 3.33827 59.4836 3.17082C59.6996 2.90615 59.8671 2.60097 60.0075 2.22017H60.472C60.472 2.22017 60.4882 2.21206 60.4882 2.20396V1.58009C60.4882 1.58009 60.4801 1.56389 60.472 1.56389H58.6653C58.695 1.46666 58.7679 1.2344 58.7922 1.13987C58.7922 1.13447 58.7922 1.13177 58.7922 1.12637C58.7922 1.12367 58.7868 1.12097 58.7814 1.11827L58.0576 0.969727C58.0576 0.969727 58.0414 0.972427 58.0387 0.98323C57.9225 1.53958 57.6768 2.08783 57.3581 2.49024L57.377 2.30929C57.377 2.30929 57.377 2.30119 57.3743 2.29579C57.3716 2.29309 57.3662 2.29038 57.3635 2.29038H54.8896C54.9058 2.25528 54.922 2.21206 54.9301 2.18236H55.1975C55.1975 2.18236 55.2137 2.17425 55.2137 2.16615V1.91768H55.8592V2.16615C55.8592 2.16615 55.8673 2.18236 55.8754 2.18236H56.5911C56.5911 2.18236 56.6073 2.17425 56.6073 2.16615V1.91768H57.4877C57.4877 1.91768 57.5039 1.90958 57.5039 1.90148V1.41805C57.5039 1.41805 57.4958 1.40184 57.4877 1.40184H56.6073V1.05615C56.6073 1.05615 56.5992 1.03995 56.5911 1.03995H55.8754C55.8754 1.03995 55.8592 1.04805 55.8592 1.05615V1.40725H55.2137V1.05615C55.2137 1.05615 55.2056 1.03995 55.1975 1.03995H54.4818C54.4818 1.03995 54.4656 1.04805 54.4656 1.05615V1.40725H53.5933C53.5933 1.40725 53.5771 1.41535 53.5771 1.42345V1.90688C53.5771 1.90688 53.5852 1.92309 53.5933 1.92309H54.4656V2.03652L54.2279 1.9933C54.2279 1.9933 54.2117 1.99601 54.209 2.00411C54.1091 2.39301 53.8552 2.76571 53.4582 3.11681C53.4528 3.12221 53.4501 3.13031 53.4582 3.13842L53.8796 3.71367C53.8796 3.71367 53.885 3.71907 53.8904 3.71907C53.8931 3.71907 53.8985 3.71907 53.9039 3.71637C54.0308 3.60564 54.1631 3.4652 54.2658 3.33827V3.94593C54.2658 3.94593 54.2739 3.96214 54.282 3.96214H55.8808L55.9429 4.1944H54.3063C54.3063 4.1944 54.2901 4.2025 54.2901 4.21061V6.67097C54.2901 6.67097 54.2982 6.68718 54.3063 6.68718H58.6139L57.9117 6.88973C57.9117 6.88973 57.9036 6.89513 57.9009 6.90054C57.9009 6.90594 57.9009 6.91134 57.9009 6.91404C58.0711 7.149 58.2196 7.45959 58.3493 7.8674C58.3493 7.8701 58.3547 7.8755 58.3574 7.8755C58.3601 7.8755 58.3655 7.8755 58.3709 7.8755L58.7517 7.73506L58.8246 8.06725C58.8246 8.06725 58.83 8.07806 58.8381 8.08076C59.0542 8.12127 59.3188 8.14287 59.5808 8.14287C60.2263 8.14287 60.391 7.79988 60.499 6.20645C60.499 6.20105 60.4991 6.19835 60.4936 6.19564C60.4909 6.19294 60.4855 6.19024 60.4828 6.19024H57.5715V5.94448H59.7509C59.7509 5.94448 59.7672 5.93637 59.7672 5.92827V5.57988C59.7672 5.57988 59.759 5.56367 59.7509 5.56367H57.5715V5.31251H59.7509C59.7509 5.31251 59.7672 5.3044 59.7672 5.2963V4.95061C59.7672 4.95061 59.759 4.9344 59.7509 4.9344H57.5715V4.69674H60.0075L60.0048 4.69134ZM59.2486 7.43798C59.2027 7.43798 59.1676 7.43798 59.1109 7.43258C58.9623 7.10579 58.8516 6.91404 58.6842 6.68448H59.5889C59.5025 7.39747 59.4701 7.43798 59.2486 7.43798ZM55.5837 3.31936V3.56783H54.8842V3.31936H55.5837ZM58.379 2.21476H59.2189C59.1406 2.43082 59.038 2.61717 58.9029 2.78462C58.6923 2.63338 58.4735 2.39571 58.379 2.21476ZM57.2204 3.66236L57.5553 4.1917H56.9233C57.1501 4.05126 57.2393 3.73798 57.3311 2.79272L57.6417 3.20323C57.6417 3.20323 57.6498 3.20863 57.6525 3.20863C57.6579 3.20863 57.6606 3.20863 57.666 3.20323C57.7875 3.0898 57.9063 2.95477 58.0198 2.80622C58.1278 2.95477 58.2709 3.11411 58.406 3.23564C58.0819 3.4436 57.6984 3.57323 57.2312 3.63535C57.2258 3.63535 57.2204 3.63805 57.2177 3.64345C57.2177 3.64885 57.2177 3.65426 57.2177 3.65966L57.2204 3.66236ZM54.652 2.76031H56.5857C56.529 3.30046 56.4912 3.47871 56.4642 3.57323C56.4182 3.71097 56.3588 3.74338 56.2697 3.74878H56.2076V2.96287C56.2076 2.96287 56.1995 2.94666 56.1914 2.94666H54.5385C54.579 2.88185 54.6277 2.80352 54.652 2.76031ZM56.7261 5.93907V6.18484H55.1381V5.93907H56.7261ZM55.1408 4.929V4.69134H56.7288V4.929H55.1408ZM55.1408 5.55827V5.3071H56.7288V5.55827H55.1408ZM57.9712 4.1917C58.3574 4.06747 58.7031 3.88652 58.9542 3.67586C59.2189 3.85141 59.5808 4.03506 59.9697 4.1917H57.9712Z" fill="black"/> <path d="M57.2799 6.75474L56.5264 6.94919C56.5264 6.94919 56.5183 6.95459 56.5156 6.95729C56.5156 6.96269 56.5156 6.96809 56.5156 6.9708C56.6885 7.27058 56.8181 7.63788 56.8802 8.00788C56.8802 8.01328 56.8829 8.01598 56.8883 8.01868C56.891 8.01868 56.8937 8.01868 56.8964 8.01868C56.8964 8.01868 56.8991 8.01868 56.9018 8.01868L57.7418 7.77831C57.7418 7.77831 57.7553 7.76751 57.7526 7.75941C57.658 7.39481 57.5176 7.08693 57.2988 6.75744C57.2961 6.75204 57.288 6.74934 57.2826 6.75204L57.2799 6.75474Z" fill="black"/> <path d="M69.6116 3.02764C69.6116 3.02764 69.6062 3.01954 69.6035 3.01954C69.6008 3.01954 69.5954 3.01954 69.59 3.01954C69.1849 3.15997 68.6096 3.28421 67.8777 3.38954C67.7859 3.17078 67.7075 2.97632 67.64 2.79808C68.2828 2.70085 68.7689 2.60092 69.1254 2.49019C69.1335 2.49019 69.1389 2.47939 69.1362 2.47129L68.9013 1.64486C68.9013 1.64486 68.8986 1.63676 68.8932 1.63406C68.8905 1.63406 68.8851 1.63406 68.8797 1.63406C68.4854 1.76099 67.9587 1.87172 67.3619 1.95005C67.2754 1.63406 67.2133 1.36129 67.1701 1.11552C67.1701 1.11012 67.1674 1.10742 67.1647 1.10472C67.162 1.10472 67.1566 1.10202 67.1512 1.10472L66.2086 1.29107C66.2086 1.29107 66.2005 1.29377 66.1978 1.29917C66.1978 1.30187 66.1951 1.30727 66.1978 1.31267C66.2221 1.3964 66.2465 1.48012 66.2708 1.56384C66.3194 1.73669 66.368 1.89873 66.4193 2.05807C65.8305 2.10939 65.1878 2.12829 64.5585 2.11209C64.5585 2.11209 64.5504 2.11209 64.5477 2.11749C64.545 2.12019 64.5423 2.12559 64.545 2.13099L64.6476 3.00333C64.6476 3.00333 64.6557 3.01683 64.6638 3.01683C65.2283 3.02494 65.9602 2.98983 66.7245 2.91691C66.8028 3.12756 66.8838 3.32742 66.9675 3.50837C65.9629 3.60019 64.9906 3.6353 64.1588 3.6083C64.1534 3.6083 64.1507 3.6083 64.148 3.6137C64.1453 3.6164 64.1426 3.6218 64.1426 3.6272L64.229 4.52925C64.229 4.52925 64.2371 4.54275 64.2452 4.54275C64.8556 4.53735 66.0763 4.50764 67.3889 4.3564C67.5455 4.63457 67.6805 4.85333 67.8264 5.05319C67.5293 4.98567 67.2349 4.95326 66.9297 4.95326C65.628 4.95326 64.7178 5.52582 64.7178 6.34684C64.7178 7.34071 65.655 7.88896 67.3564 7.88896C67.7751 7.88896 68.4178 7.85925 68.8365 7.80253C68.8419 7.80253 68.8446 7.79983 68.8473 7.79713C68.8473 7.79443 68.85 7.78903 68.85 7.78633L68.7176 6.85998C68.7176 6.85998 68.7149 6.85188 68.7122 6.84917C68.7095 6.84917 68.7041 6.84647 68.6987 6.84647C68.3287 6.91669 67.7994 6.96261 67.3862 6.96261C66.3032 6.96261 65.7063 6.73574 65.7063 6.32523C65.7063 6.02275 66.1384 5.71757 66.9675 5.71757C67.324 5.71757 67.6481 5.76078 67.9587 5.8499C68.2936 5.94443 68.5367 6.05786 68.85 6.26852C68.8554 6.27392 68.8662 6.27122 68.8716 6.26582L69.4333 5.55822C69.4333 5.55822 69.436 5.55012 69.436 5.54742C69.436 5.54472 69.4333 5.53932 69.4306 5.53662C69.0525 5.25304 68.6717 4.80472 68.326 4.23757C68.9472 4.14574 69.4684 4.03771 69.8681 3.91348C69.8708 3.91348 69.8762 3.91078 69.8762 3.90538C69.8762 3.90268 69.8762 3.89727 69.8762 3.89187L69.6116 3.03574V3.02764Z" fill="black"/> <path d="M93.675 3.18712H90.6096V2.62807H93.0133C93.0133 2.62807 93.0295 2.61997 93.0295 2.61187V1.91238C93.0295 1.91238 93.0214 1.89617 93.0133 1.89617H90.6096V1.05624C90.6096 1.05624 90.6015 1.04004 90.5934 1.04004H89.7076C89.7076 1.04004 89.6914 1.04814 89.6914 1.05624V1.89617H87.3336C87.3336 1.89617 87.3174 1.90427 87.3174 1.91238V2.61187C87.3174 2.61187 87.3255 2.62807 87.3336 2.62807H89.6914V3.18712H86.672C86.672 3.18712 86.6558 3.19522 86.6558 3.20333V3.91902C86.6558 3.91902 86.6639 3.93522 86.672 3.93522H88.1952C88.3653 4.24311 88.441 4.41596 88.5625 4.72114H86.8664C86.8664 4.72114 86.8502 4.72924 86.8502 4.73734V5.43683C86.8502 5.43683 86.8583 5.45304 86.8664 5.45304H89.6914V6.0364H87.0987C87.0987 6.0364 87.0825 6.0445 87.0825 6.0526V6.76829C87.0825 6.76829 87.0906 6.7845 87.0987 6.7845H89.6914V8.05924C89.6914 8.05924 89.6995 8.07545 89.7076 8.07545H90.5934C90.5934 8.07545 90.6096 8.06735 90.6096 8.05924V6.7845H93.2483C93.2483 6.7845 93.2645 6.7764 93.2645 6.76829V6.0526C93.2645 6.0526 93.2564 6.0364 93.2483 6.0364H90.6096V5.45304H93.4805C93.4805 5.45304 93.4967 5.44493 93.4967 5.43683V4.73734C93.4967 4.73734 93.4886 4.72114 93.4805 4.72114H91.6656C91.8142 4.50508 91.9492 4.26741 92.1112 3.93522H93.675C93.675 3.93522 93.6912 3.92712 93.6912 3.91902V3.20333C93.6912 3.20333 93.6831 3.18712 93.675 3.18712ZM89.1539 3.93522H91.112C91.0066 4.18099 90.8554 4.46457 90.6988 4.72114H89.4969C89.4159 4.50238 89.3619 4.37004 89.1539 3.93522Z" fill="black"/> <path d="M103.651 2.857C103.651 2.857 103.651 2.84889 103.646 2.84619C103.641 2.84349 103.641 2.84349 103.635 2.84349C103.192 2.89481 102.714 2.94072 102.136 2.98933C102.144 2.35736 102.144 1.64707 102.136 1.25546C102.136 1.25006 102.136 1.24736 102.131 1.24466C102.128 1.24196 102.123 1.23926 102.12 1.23926L101.156 1.26356C101.156 1.26356 101.148 1.26356 101.145 1.26897C101.142 1.27437 101.14 1.27707 101.14 1.27977C101.169 1.80101 101.186 2.42218 101.186 3.07035C100.57 3.11627 99.9109 3.16218 99.2573 3.19999C99.2654 2.67065 99.2816 2.15211 99.2951 1.71459C99.2951 1.70919 99.2951 1.70648 99.2897 1.70378C99.2843 1.70108 99.2816 1.69838 99.2789 1.69838L98.3147 1.69028C98.3147 1.69028 98.3066 1.69028 98.3039 1.69568C98.3012 1.69838 98.2985 1.70378 98.2985 1.70648C98.2985 1.95495 98.2931 2.43298 98.285 2.98933V3.2486C97.8367 3.26751 97.41 3.28101 96.9968 3.29452L96.7861 3.30262C96.7861 3.30262 96.778 3.30262 96.7753 3.30802C96.7726 3.31342 96.7699 3.31612 96.7726 3.31882L96.8509 4.23707C96.8509 4.23707 96.859 4.25057 96.8671 4.25057C97.2749 4.22897 97.7044 4.20196 98.1608 4.17225L98.2661 4.16685C98.2661 4.55036 98.2634 4.91496 98.2607 5.20663C98.2607 5.40649 98.258 5.57393 98.258 5.69277C98.258 7.10525 98.9359 7.63189 100.756 7.63189C101.55 7.63189 102.152 7.59138 102.836 7.49145C102.838 7.49145 102.844 7.48875 102.847 7.48605C102.847 7.48335 102.849 7.47795 102.849 7.47525L102.701 6.49488C102.701 6.49488 102.698 6.48678 102.695 6.48408C102.693 6.48408 102.687 6.48138 102.685 6.48138C101.909 6.61372 101.421 6.65963 100.813 6.65963C99.6273 6.65963 99.233 6.49758 99.233 5.53072C99.233 5.0689 99.233 4.59087 99.2411 4.11284C99.8784 4.07503 100.54 4.02641 101.177 3.9832C101.161 4.83393 101.096 5.05539 100.867 5.05539C100.672 5.05539 100.389 4.99598 100.086 4.89335C100.081 4.89335 100.076 4.89335 100.073 4.89335C100.07 4.89335 100.067 4.90145 100.067 4.90685V5.8008C100.067 5.8008 100.073 5.8143 100.078 5.817C100.421 5.90883 100.845 5.96554 101.21 5.96554C102.023 5.96554 102.074 5.50642 102.12 3.91839L103.716 3.80225C103.716 3.80225 103.724 3.80225 103.727 3.79685C103.73 3.79415 103.732 3.78875 103.73 3.78605L103.651 2.8597V2.857Z" fill="black"/> <path d="M112.18 3.49247C112.18 3.49247 112.167 3.48167 112.158 3.48437C111.653 3.68693 111.105 3.91649 110.484 4.18656C110.295 3.70043 109.893 3.44386 109.323 3.44386C109.134 3.44386 108.931 3.48437 108.731 3.55999C108.839 3.38985 108.939 3.217 109.045 3.02255C109.944 2.94692 110.759 2.8497 111.402 2.74167C111.41 2.74167 111.416 2.73357 111.416 2.72276L111.3 1.81262C111.3 1.81262 111.297 1.80451 111.294 1.80181C111.292 1.79911 111.286 1.79911 111.281 1.80181C110.708 1.92335 110.114 2.01517 109.512 2.07999C109.614 1.83152 109.712 1.58576 109.798 1.34809C109.798 1.34269 109.798 1.33999 109.798 1.33459C109.798 1.33189 109.793 1.32648 109.787 1.32648L108.877 1.05371C108.877 1.05371 108.861 1.05371 108.858 1.06451C108.723 1.50743 108.599 1.85583 108.472 2.16641C107.878 2.20152 107.262 2.22043 106.646 2.22043C106.641 2.22043 106.638 2.22043 106.635 2.22583C106.633 2.22853 106.63 2.23393 106.63 2.23933L106.717 3.15758C106.717 3.15758 106.725 3.17379 106.733 3.17109C107.143 3.15488 107.586 3.13328 108.043 3.10357C107.637 3.85707 107.165 4.46204 106.557 5.00488C106.554 5.00758 106.552 5.01299 106.552 5.01839C106.552 5.02379 106.552 5.02649 106.557 5.02919L107.313 5.58824C107.313 5.58824 107.33 5.59094 107.335 5.58554C107.654 5.16693 107.824 4.97247 108.134 4.7078C108.469 4.41342 108.831 4.25138 109.153 4.25138C109.39 4.25138 109.555 4.35401 109.639 4.55386C108.699 5.00758 107.743 5.58824 107.743 6.45248C107.743 7.31671 108.469 7.72992 109.898 7.72992C110.589 7.72992 111.37 7.67861 112.04 7.58948C112.045 7.58948 112.048 7.58678 112.05 7.58408C112.05 7.58138 112.053 7.57598 112.053 7.57328L111.883 6.60912C111.883 6.60912 111.88 6.60102 111.878 6.59832C111.875 6.59832 111.87 6.59561 111.864 6.59832C111.243 6.72795 110.43 6.81708 109.844 6.81708C109.101 6.81708 108.723 6.66313 108.723 6.35795C108.723 6.07707 109.058 5.77189 109.749 5.4262V5.52612C109.749 5.7881 109.725 6.10948 109.704 6.38766C109.704 6.39306 109.704 6.39576 109.709 6.39846C109.714 6.40116 109.717 6.40386 109.72 6.40386H110.646C110.646 6.40386 110.662 6.39846 110.662 6.38766C110.678 6.13109 110.678 5.93123 110.678 5.63145C110.678 5.4289 110.668 5.24255 110.649 5.0589C111.197 4.83744 111.829 4.61328 112.528 4.38642C112.534 4.38642 112.537 4.38101 112.537 4.37831C112.537 4.37561 112.537 4.37021 112.537 4.36481L112.177 3.49247H112.18Z" fill="black"/> <path d="M81.4515 5.79883C80.6953 5.79883 80.2686 6.38759 80.2686 6.95474C80.2686 7.5219 80.6953 8.10796 81.4515 8.10796C82.2077 8.10796 82.6317 7.5192 82.6317 6.95474C82.6317 6.39029 82.205 5.79883 81.4515 5.79883ZM81.4515 7.50839C81.0977 7.50839 80.9059 7.23292 80.9059 6.95204C80.9059 6.67116 81.0977 6.39569 81.4515 6.39569C81.8053 6.39569 81.997 6.67116 81.997 6.95204C81.997 7.23292 81.8053 7.50839 81.4515 7.50839Z" fill="black"/> <path d="M48.0242 5.79883C47.268 5.79883 46.8413 6.38759 46.8413 6.95474C46.8413 7.5219 47.268 8.10796 48.0242 8.10796C48.7804 8.10796 49.2044 7.5192 49.2044 6.95474C49.2044 6.39029 48.7777 5.79883 48.0242 5.79883ZM48.0215 7.50839C47.6677 7.50839 47.476 7.23292 47.476 6.95204C47.476 6.67116 47.6677 6.39569 48.0215 6.39569C48.3753 6.39569 48.5671 6.67116 48.5671 6.95204C48.5671 7.23292 48.3753 7.50839 48.0215 7.50839Z" fill="black"/> <path d="M78.8534 3.49247C78.8534 3.49247 78.8399 3.48167 78.8318 3.48437C78.3241 3.68693 77.792 3.91109 77.1574 4.18656C76.9683 3.70043 76.5659 3.44386 75.9961 3.44386C75.807 3.44386 75.6044 3.48437 75.4046 3.55999C75.5126 3.38985 75.6125 3.217 75.7179 3.02255C76.6172 2.94692 77.4328 2.8497 78.0756 2.74167C78.0837 2.74167 78.0891 2.73357 78.0891 2.72276L77.973 1.81262C77.973 1.81262 77.9703 1.80451 77.9676 1.80181C77.9649 1.79911 77.9595 1.79911 77.9541 1.80181C77.3815 1.92335 76.7874 2.01517 76.1851 2.07999C76.2877 1.83152 76.385 1.58576 76.4714 1.34809C76.4714 1.34269 76.4714 1.33999 76.4714 1.33459C76.4714 1.33189 76.466 1.32648 76.4606 1.32648L75.5504 1.05371C75.5504 1.05371 75.5342 1.05371 75.5315 1.06451C75.3938 1.50743 75.2722 1.85853 75.1453 2.16641C74.5512 2.20152 73.9354 2.22043 73.3196 2.22043C73.3142 2.22043 73.3115 2.22043 73.3088 2.22583C73.3061 2.22853 73.3034 2.23393 73.3034 2.23933L73.3898 3.15758C73.3898 3.15758 73.3979 3.17109 73.406 3.17109C73.8193 3.15488 74.2595 3.13328 74.7159 3.10357C74.3108 3.85707 73.8382 4.46204 73.2305 5.00488C73.2278 5.00758 73.2251 5.01299 73.2251 5.01839C73.2251 5.02379 73.2251 5.02649 73.2305 5.02919L73.9867 5.58824C73.9867 5.58824 74.0029 5.59094 74.0083 5.58554C74.327 5.16693 74.4971 4.97247 74.8077 4.7078C75.1426 4.41342 75.5045 4.25138 75.8259 4.25138C76.0636 4.25138 76.2283 4.35401 76.312 4.55386C75.3722 5.00758 74.4161 5.58824 74.4161 6.45248C74.4161 7.31671 75.1426 7.72992 76.5713 7.72992C77.2627 7.72992 78.0432 7.67861 78.713 7.58948C78.7184 7.58948 78.7211 7.58678 78.7238 7.58408C78.7238 7.58138 78.7265 7.57598 78.7265 7.57328L78.5563 6.60912C78.5563 6.60912 78.5536 6.60102 78.5509 6.59832C78.5482 6.59832 78.5428 6.59561 78.5374 6.59832C77.9163 6.72795 77.1034 6.81708 76.5173 6.81708C75.7746 6.81708 75.3965 6.66313 75.3965 6.35795C75.3965 6.07707 75.7314 5.77189 76.4228 5.4262V5.52612C76.4228 5.7854 76.3985 6.10678 76.3768 6.38766C76.3768 6.39306 76.3769 6.39576 76.3823 6.39846C76.385 6.40116 76.3904 6.40386 76.3931 6.40386H77.3194C77.3194 6.40386 77.3356 6.39846 77.3356 6.38766C77.3518 6.13109 77.3518 5.93123 77.3518 5.63145C77.3518 5.4289 77.341 5.24255 77.3221 5.0589C77.8704 4.83744 78.5023 4.61328 79.2018 4.38642C79.2072 4.38642 79.2099 4.38101 79.2099 4.37831C79.2099 4.37561 79.2099 4.37021 79.2099 4.36481L78.8507 3.49247H78.8534Z" fill="black"/> <path d="M61.396 30.5043C61.396 34.2367 64.094 37.1697 68.3558 37.1697H72.2908V33.6371H68.7096C66.4194 33.6371 65.1581 32.2787 65.1581 30.5043C65.1581 28.7299 66.4221 27.3714 68.7096 27.3714H72.2908V23.8389H68.3558C64.094 23.8389 61.396 26.7692 61.396 30.5043Z" fill="#CC0033"/> <path d="M104.538 23.6748C103.098 23.6748 101.753 23.9665 100.014 25.1386C98.2718 23.9665 96.9296 23.6748 95.4901 23.6748C92.2843 23.6748 90.0454 25.8786 90.0454 29.0547V37.1704H93.8075V29.241C93.8075 27.8852 94.634 27.2074 95.9924 27.2074C97.4292 27.2074 98.1368 27.9231 98.1368 29.0709V37.1704H101.894V29.0709C101.894 27.9231 102.604 27.2074 104.038 27.2074C105.396 27.2074 106.223 27.8852 106.223 29.241V37.1704H109.985V29.0547C109.985 25.8813 107.746 23.6748 104.54 23.6748H104.538Z" fill="#CC0033"/> <path d="M119.013 23.6748C114.543 23.6748 112.018 27.1587 112.018 30.5077C112.018 33.8566 114.543 37.3351 119.013 37.3351C123.483 37.3351 126 33.8485 126 30.5077C126 27.1669 123.475 23.6748 119.013 23.6748ZM119.01 33.7999C116.914 33.7999 115.783 32.1686 115.783 30.5023C115.783 28.8359 116.917 27.2047 119.01 27.2047C121.103 27.2047 122.24 28.8359 122.24 30.5023C122.24 32.1686 121.106 33.7999 119.01 33.7999Z" fill="#CC0033"/> <path d="M39.7845 17.8115V24.5147C38.8743 23.9881 37.7859 23.6748 36.5274 23.6748C32.0145 23.6748 29.6162 27.1885 29.6162 30.5077C29.6162 33.8269 32.0145 37.3351 36.5274 37.3351C39.9168 37.3351 41.1835 35.6985 43.5466 34.6128V17.8115H39.7845ZM33.3783 30.5023C33.3783 28.8386 34.5126 27.2047 36.6057 27.2047C38.6988 27.2047 39.7953 28.7684 39.8331 30.4158V30.586C39.7953 32.2334 38.7015 33.7972 36.6057 33.7972C34.5099 33.7972 33.3783 32.1659 33.3783 30.4996V30.5023Z" fill="#CC0033"/> <path d="M54.7059 17.8145L54.7005 18.7246H53.3798L53.3852 22.0357H52.4076V18.7246H51.0869V17.8145H54.7059Z" fill="#CC0033"/> <path d="M59.0433 17.8145V18.7246H57.7226V22.0357H56.745V18.7246H55.4243V17.8145H59.046H59.0433Z" fill="#CC0033"/> <path d="M47.4034 17.8115L49.3237 20.5204V17.8142H50.2581V22.0355H49.2318L47.3224 19.3374V22.0355H46.3853V17.8115H47.4007H47.4034Z" fill="#CC0033"/> <path d="M52.6614 23.6748C48.1944 23.6748 45.6665 27.1587 45.6665 30.5077C45.6665 33.8566 48.1917 37.3351 52.6614 37.3351C57.1311 37.3351 59.6482 33.8485 59.6482 30.5077C59.6482 27.1669 57.123 23.6748 52.6614 23.6748ZM52.656 33.7999C50.5629 33.7999 49.4286 32.1686 49.4286 30.5023C49.4286 28.8359 50.5629 27.2047 52.656 27.2047C54.7491 27.2047 55.8861 28.8359 55.8861 30.5023C55.8861 32.1686 54.7518 33.7999 52.656 33.7999Z" fill="#CC0033"/> <path d="M81.0222 23.6748C76.5552 23.6748 74.0273 27.1587 74.0273 30.5077C74.0273 33.8566 76.5552 37.3351 81.0222 37.3351C85.4893 37.3351 88.009 33.8485 88.009 30.5077C88.009 27.1669 85.4839 23.6748 81.0222 23.6748ZM81.0168 33.7999C78.9238 33.7999 77.7895 32.1686 77.7895 30.5023C77.7895 28.8359 78.9238 27.2047 81.0168 27.2047C83.1099 27.2047 84.2469 28.8359 84.2469 30.5023C84.2469 32.1686 83.1126 33.7999 81.0168 33.7999Z" fill="#CC0033"/> <path fill-rule="evenodd" clip-rule="evenodd" d="M15.0782 16.0889C13.9817 16.0889 12.8987 16.3265 12.1371 16.6398C11.3755 16.3265 10.2952 16.0889 9.196 16.0889C4.36438 16.0889 0 20.6612 0 26.9323C0 33.7706 5.58512 39.0586 12.1371 39.0586C18.6891 39.0586 24.2742 33.7706 24.2742 26.9323C24.2742 20.6612 19.9098 16.0916 15.0755 16.0916L15.0782 16.0889ZM12.1371 19.8132C13.0688 20.3668 14.2977 21.9738 14.2977 23.7833C14.2977 25.112 13.4226 26.1572 12.1371 26.1572C10.8515 26.1572 9.97651 25.112 9.97651 23.7833C9.97651 21.9738 11.208 20.3668 12.1371 19.8132ZM12.1371 36.0689C7.12723 36.0689 2.98161 32.0394 2.98161 26.8702C2.98161 22.152 6.38723 18.9273 9.06096 19.0489C7.79431 20.3128 7.02461 22.152 7.02461 23.9345C7.02461 26.9971 9.45527 29.1469 12.1344 29.1469C14.8135 29.1469 17.2442 26.9998 17.2442 23.9345C17.2442 22.152 16.4745 20.3128 15.2078 19.0489C17.8843 18.93 21.2872 22.152 21.2872 26.8702C21.2872 32.0394 17.1416 36.0689 12.1317 36.0689H12.1371Z" fill="#CC0033"/> </g> <defs> <clipPath id="clip0_2002_313"> <rect width="126" height="38.11" fill="white" transform="translate(0 0.945312)"/> </clipPath> </defs> </svg>
