<svg xmlns="http://www.w3.org/2000/svg" role="img" viewBox="0 0 171.3 60">
 <title>Gong</title>
 <path fill="#8039E9" d="M54.1,25.7H37.8c-0.9,0-1.6,1-1.3,1.8l3.9,10.1c0.2,0.4-0.2,0.9-0.7,0.9l-5-0.3c-0.2,0-0.4,0.1-0.6,0.3L30.3,44c-0.2,0.3-0.6,0.4-1,0.2l-5.8-3.9c-0.2-0.2-0.5-0.2-0.8,0l-8,5.4c-0.5,0.4-1.2-0.1-1-0.7L16,37c0.1-0.3-0.1-0.7-0.4-0.8l-4.2-1.7c-0.4-0.2-0.6-0.7-0.3-1l3.7-4.6c0.2-0.2,0.2-0.6,0-0.8l-3.1-4.5c-0.3-0.4,0-1,0.5-1l4.9-0.4c0.4,0,0.6-0.3,0.6-0.7l-0.4-6.8c0-0.5,0.5-0.8,0.9-0.7l6,2.5c0.3,0.1,0.6,0,0.8-0.2l4.2-4.6c0.3-0.4,0.9-0.3,1.1,0.2l2.5,6.4c0.3,0.8,1.3,1.1,2,0.6l9.8-7.3c1.1-0.8,0.4-2.6-1-2.4L37.3,10c-0.3,0-0.6-0.1-0.7-0.4l-3.4-8.7c-0.4-0.9-1.5-1.1-2.2-0.4l-7.4,8c-0.2,0.2-0.5,0.3-0.8,0.2l-9.7-4.1c-0.9-0.4-1.8,0.2-1.9,1.2l-0.4,10c0,0.4-0.3,0.6-0.6,0.6l-8.9,0.6c-1,0.1-1.6,1.2-1,2.1l5.9,8.7c0.2,0.2,0.2,0.6,0,0.8l-6,6.9C-0.3,36,0,37.1,0.8,37.4l6.9,3c0.3,0.1,0.5,0.5,0.4,0.8L3.7,58.3c-0.3,1.2,1.1,2.1,2.1,1.4l16.5-11.8c0.2-0.2,0.5-0.2,0.8,0l7.5,5.3c0.6,0.4,1.5,0.3,1.9-0.4l4.7-7.2c0.1-0.2,0.4-0.3,0.6-0.3l11.2,1.4c0.9,0.1,1.8-0.6,1.5-1.5l-4.7-12.1c-0.1-0.3,0-0.7,0.4-0.9l8.5-4C55.9,27.6,55.5,25.7,54.1,25.7z"/>
 <path fill="#3E0075" d="M170.8,25.7h-12.6c-0.2,0-0.5,0.2-0.5,0.5v5.6c0,0.2,0.2,0.5,0.5,0.5h5.4c0.3,0,0.5,0.2,0.5,0.5c0,2.9-0.6,8.1-5.9,8.1c-4.3,0-6-5.2-6-11.2c0-7.2,1.8-11.6,5.7-11.6c2.9,0,3.8,2.4,4.1,3.3c0.1,0.2,0.2,0.3,0.4,0.3h6.6c0.3,0,0.5-0.2,0.5-0.5c-0.3-3.6-3.3-9.9-11.4-9.9c-5.7,0-11,3.5-12.7,12v-11c0-0.1-0.1-0.2-0.2-0.2h-7c-0.1,0-0.2,0.1-0.2,0.2v19.6c0,0.2-0.3,0.3-0.4,0.1l-9.1-19.8c0-0.1-0.1-0.1-0.2-0.1H122c-0.1,0-0.2,0.1-0.2,0.2v11c-2.3-7-8.5-12-16.5-12c-9,0-15.7,6.2-17.2,14.5H75.5c-0.1,0-0.2,0.1-0.2,0.2V32c0,0.1,0.1,0.2,0.2,0.2h5.9c0.1,0,0.2,0.1,0.2,0.2c0,2.8-0.5,8.3-5.9,8.3c-4.3,0-6-5.2-6-11.2c0-7.2,1.8-11.6,5.7-11.6c3.1,0,3.9,2.8,4.1,3.5c0,0.1,0.1,0.2,0.2,0.2h7c0.1,0,0.2-0.1,0.2-0.2c-0.1-3.5-3.2-10.1-11.5-10.1c-6.9,0-13.2,5.1-13.2,18.2c0,9,3.5,18,13.3,18c7.3,0,11.9-5.6,12.9-12.4c2.2,7.2,8.5,12.4,16.7,12.4c7.9,0,14.2-5,16.5-12v11.1c0,0.1,0.1,0.2,0.2,0.2h7c0.1,0,0.2-0.1,0.2-0.2V27.2c0-0.2,0.3-0.3,0.4-0.1l9.1,19.5c0,0.1,0.1,0.1,0.2,0.1h6.2c0.1,0,0.2-0.1,0.2-0.2v-11c1.4,6.6,5.2,12,12.8,12c8.3,0,13.1-7.3,13.1-15.3v-6C171.3,25.9,171,25.7,170.8,25.7z M105.2,40.2c-5.8,0-9.9-4.5-9.9-10.8s4.1-10.8,9.9-10.8c5.8,0,9.9,4.5,9.9,10.8S111.1,40.2,105.2,40.2z"/>
</svg>
