<?xml version="1.0" encoding="UTF-8" standalone="no"?><!-- Created with Inkscape (http://www.inkscape.org/) --><svg version="1.1" id="svg2" width="335.72" height="217.39999" viewBox="0 0 335.72 217.39999" xmlns:inkscape="http://www.inkscape.org/namespaces/inkscape" xmlns:sodipodi="http://sodipodi.sourceforge.net/DTD/sodipodi-0.dtd" xmlns="http://www.w3.org/2000/svg"><defs id="defs6" /><g id="g10" transform="matrix(1.3333333,0,0,-1.3333333,0,217.4)"><g id="g12" transform="scale(0.1)"><path d="m 1230.16,511.25 c 5.03,313.84 226.57,643.67 339.01,643.67 33.23,0 40.28,-21.59 40.28,-44.52 0,-107.42 -159.44,-394.392 -379.29,-599.15 m 1114.71,1119.3 c -104.69,0.58 -205.72,-62.79 -271.15,-157.9 309.09,-202.13 -69.62,-1208.49 -628.16,-1208.49 -66.94,0 -123.74,19.481 -161.74,59.289 302.36,272.371 520.79,642.758 520.79,861.191 0,111.68 -54.55,182.52 -182.42,182.52 -370.98,0 -762.112,-608.664 -689.549,-1047.769 -233.922,-83.09 -350.153,20.839 -350.153,229.597 0,435.879 455.452,887.962 429.002,1023.982 C 539.57,1427.08 170.238,1766.04 0,1214.38 229.398,1339.2 441.129,1139.68 702.82,1285.55 478.078,1026.31 251.25,659.246 254.309,349.262 256.32,146.359 365.91,0 603.289,0 738.102,0 878,47.2109 1012.64,124.211 1070.35,52.0781 1163.32,0 1305.41,0 c 579.34,0 1212.5,814.02 1212.5,1394.87 0,154.1 -61.14,235.06 -173.04,235.68" style="fill:#e62324;fill-opacity:1;fill-rule:nonzero;stroke:none" id="path14" /></g></g></svg>
