<svg role="img" aria-label="Lume" width="1034" height="443" viewBox="0 0 1034 443" fill="none" xmlns="http://www.w3.org/2000/svg">
  <title>Lume</title>
  <path d="M281.777 255.5C281.777 322.603 221.277 377 221.277 377C221.277 377 160.777 322.603 160.777 255.5C160.777 188.397 221.277 134 221.277 134C221.277 134 281.777 188.397 281.777 255.5Z" fill="#D06B57"/>
  <path d="M347.08 168.186C390.212 219.589 378.833 300.149 378.833 300.149C378.833 300.149 297.521 297.367 254.388 245.963C211.256 194.559 222.635 114 222.635 114C222.635 114 303.947 116.782 347.08 168.186Z" fill="#fff"/>
  <path d="M188.167 245.963C145.034 297.367 63.7224 300.149 63.7224 300.149C63.7224 300.149 52.3427 219.589 95.4754 168.186C138.608 116.782 219.92 114 219.92 114C219.92 114 231.3 194.559 188.167 245.963Z" fill="#fff"/>
  <path d="M164.878 0C171.116 -6.8123e-08 177.293 1.22906 183.056 3.61621C188.819 6.00336 194.055 9.50223 198.466 13.9131C202.877 18.3239 206.376 23.5602 208.763 29.3232C211.15 35.0863 212.379 41.2631 212.379 47.501C212.379 49.7101 210.588 51.501 208.379 51.501C206.17 51.501 204.379 49.7101 204.379 47.501C204.379 42.3137 203.357 37.1772 201.372 32.3848C199.387 27.5923 196.478 23.2373 192.81 19.5693C189.142 15.9013 184.787 12.9919 179.994 11.0068C178.154 10.2447 176.263 9.62621 174.338 9.15137C174.361 9.43122 174.377 9.71406 174.377 10C174.377 15.5228 169.9 20 164.377 20C158.854 20 154.377 15.5228 154.377 10C154.377 4.47715 158.854 0 164.377 0C164.467 0 164.558 0.00347141 164.647 0.00585938C164.724 0.00152808 164.801 9.22304e-10 164.878 0Z" fill="#fff"/>
  <path d="M278.379 0C283.902 0 288.379 4.47715 288.379 10C288.379 15.5228 283.902 20 278.379 20C272.856 20 268.379 15.5228 268.379 10C268.379 9.71409 268.393 9.4312 268.417 9.15137C266.492 9.62618 264.602 10.2448 262.762 11.0068C257.969 12.9919 253.614 15.9013 249.946 19.5693C246.278 23.2373 243.369 27.5923 241.384 32.3848C239.399 37.1772 238.377 42.3137 238.377 47.501C238.377 49.7101 236.586 51.501 234.377 51.501C232.168 51.501 230.377 49.7101 230.377 47.501C230.377 41.2631 231.606 35.0863 233.993 29.3232C236.38 23.5602 239.879 18.3239 244.29 13.9131C248.701 9.50223 253.937 6.00336 259.7 3.61621C265.463 1.22906 271.64 -6.8123e-08 277.878 0C277.955 9.18381e-10 278.031 0.00156461 278.107 0.00585938C278.198 0.00345415 278.288 0 278.379 0Z" fill="#fff"/>
  <path d="M261.377 65C261.377 87.0914 243.468 135 221.377 135C199.286 135 181.377 87.0914 181.377 65C181.377 42.9086 199.286 25 221.377 25C243.468 25 261.377 42.9086 261.377 65Z" fill="#fff"/>
  <path opacity="0.6" d="M221.877 443C316.594 443 393.377 366.217 393.377 271.5C393.377 176.783 316.594 100 221.877 100C127.16 100 50.377 176.783 50.377 271.5C50.377 366.217 127.16 443 221.877 443Z" fill="url(#lume-wordmark-dark-radial)"/>
  <path d="M146.211 216.259C89.305 251.818 11.1133 229.337 11.1133 229.337C11.1133 229.337 25.1848 149.204 82.091 113.645C138.997 78.0864 217.189 100.567 217.189 100.567C217.189 100.567 203.118 180.7 146.211 216.259Z" fill="#fff"/>
  <path d="M360.796 113.643C417.702 149.202 431.774 229.335 431.774 229.335C431.774 229.335 353.582 251.816 296.676 216.257C239.77 180.698 225.698 100.564 225.698 100.564C225.698 100.564 303.89 78.0837 360.796 113.643Z" fill="#fff"/>
  <path d="M932.402 226.5V209.6H1010.6L1007.6 214.6C1007.6 214.2 1007.6 213.8 1007.6 213.4C1007.6 212.933 1007.6 212.533 1007.6 212.2C1007.6 206.8 1006.44 201.833 1004.1 197.3C1001.77 192.7 998.269 189.033 993.602 186.3C989.002 183.5 983.235 182.1 976.302 182.1C969.369 182.1 963.269 183.6 958.002 186.6C952.802 189.533 948.735 193.733 945.802 199.2C942.935 204.6 941.502 211.1 941.502 218.7C941.502 226.433 942.902 233.1 945.702 238.7C948.502 244.233 952.535 248.5 957.802 251.5C963.069 254.5 969.369 256 976.702 256C981.835 256 986.269 255.5 990.002 254.5C993.802 253.433 996.902 252.033 999.302 250.3C1001.77 248.567 1003.64 246.7 1004.9 244.7C1006.17 242.633 1006.9 240.6 1007.1 238.6H1028.7C1028.3 242.933 1026.87 247.233 1024.4 251.5C1022 255.7 1018.57 259.533 1014.1 263C1009.7 266.4 1004.3 269.133 997.902 271.2C991.569 273.2 984.269 274.2 976.002 274.2C964.935 274.2 955.235 271.867 946.902 267.2C938.569 262.533 932.069 256.067 927.402 247.8C922.735 239.467 920.402 229.933 920.402 219.2C920.402 208.267 922.769 198.667 927.502 190.4C932.235 182.133 938.802 175.7 947.202 171.1C955.602 166.433 965.235 164.1 976.102 164.1C987.169 164.1 996.735 166.433 1004.8 171.1C1012.94 175.767 1019.2 182.2 1023.6 190.4C1028 198.6 1030.2 208.033 1030.2 218.7C1030.2 219.967 1030.17 221.433 1030.1 223.1C1030.04 224.767 1029.94 225.9 1029.8 226.5H932.402Z" fill="#fff"/>
  <path d="M818.129 272V227C818.129 222.933 818.129 219.433 818.129 216.5C818.129 213.5 818.129 210.967 818.129 208.9C818.129 206.3 817.929 203.533 817.529 200.6C817.195 197.667 816.395 194.933 815.129 192.4C813.929 189.8 812.029 187.7 809.429 186.1C806.829 184.5 803.262 183.7 798.729 183.7C794.195 183.7 790.362 184.6 787.229 186.4C784.095 188.2 781.562 190.6 779.629 193.6C777.695 196.533 776.295 199.833 775.429 203.5C774.562 207.1 774.129 210.733 774.129 214.4L764.929 209.4C764.929 201.067 766.562 193.5 769.829 186.7C773.162 179.833 777.829 174.367 783.829 170.3C789.895 166.167 797.029 164.1 805.229 164.1C813.562 164.1 820.229 165.833 825.229 169.3C830.295 172.7 833.962 177.367 836.229 183.3C838.495 189.167 839.629 195.833 839.629 203.3C839.629 206.033 839.629 209.6 839.629 214C839.629 218.4 839.629 223.5 839.629 229.3V272H818.129ZM752.429 272V165.8H774.129V272H752.429ZM883.529 272V227.1C883.529 222.7 883.529 219.033 883.529 216.1C883.529 213.1 883.529 210.6 883.529 208.6C883.529 205.867 883.362 203.067 883.029 200.2C882.695 197.267 881.895 194.567 880.629 192.1C879.362 189.633 877.395 187.633 874.729 186.1C872.129 184.5 868.495 183.7 863.829 183.7C859.229 183.7 855.362 184.6 852.229 186.4C849.162 188.133 846.695 190.467 844.829 193.4C842.962 196.267 841.629 199.433 840.829 202.9C840.029 206.367 839.629 209.8 839.629 213.2L830.429 208.4C830.429 200.4 832.029 193.033 835.229 186.3C838.495 179.567 843.095 174.2 849.029 170.2C855.029 166.133 862.129 164.1 870.329 164.1C878.329 164.1 884.895 165.7 890.029 168.9C895.162 172.1 898.962 176.533 901.429 182.2C903.895 187.867 905.129 194.433 905.129 201.9C905.129 204.767 905.129 208.367 905.129 212.7C905.129 217.033 905.129 222.067 905.129 227.8V272H883.529Z" fill="#fff"/>
  <path d="M672.863 273.9C665.33 273.9 659.063 272.633 654.063 270.1C649.063 267.5 645.096 264.133 642.163 260C639.23 255.8 637.163 251.233 635.963 246.3C634.763 241.3 634.163 236.433 634.163 231.7C634.163 229.233 634.163 226.667 634.163 224C634.163 221.267 634.163 218.533 634.163 215.8V165.8H655.963V212.7C655.963 215.1 655.963 217.467 655.963 219.8C655.963 222.067 655.963 224.2 655.963 226.2C655.963 231.333 656.63 236.067 657.963 240.4C659.296 244.667 661.63 248.133 664.963 250.8C668.363 253.4 673.096 254.7 679.163 254.7C684.83 254.7 689.763 253.033 693.963 249.7C698.163 246.3 701.43 242.033 703.763 236.9C706.096 231.7 707.263 226.5 707.263 221.3L716.763 226.4C716.763 232.533 715.73 238.433 713.663 244.1C711.663 249.767 708.763 254.867 704.963 259.4C701.163 263.867 696.53 267.4 691.063 270C685.663 272.6 679.596 273.9 672.863 273.9ZM707.263 272V165.8H728.963V272H707.263Z" fill="#fff"/>
  <path d="M542.877 272V124.5H564.577V265.4L554.777 253.6H621.677V272H542.877Z" fill="#fff"/>
  <defs>
    <radialGradient id="lume-wordmark-dark-radial" cx="0" cy="0" r="1" gradientUnits="userSpaceOnUse" gradientTransform="translate(221.877 271.5) rotate(90) scale(171.5)">
      <stop stop-color="#D06B57"/>
      <stop offset="1" stop-color="#D06B57" stop-opacity="0"/>
    </radialGradient>
  </defs>
</svg>
