<?xml version="1.0" encoding="UTF-8" standalone="no"?><!-- Created with Inkscape (http://www.inkscape.org/) --><svg xmlns:dc="http://purl.org/dc/elements/1.1/" xmlns:cc="http://creativecommons.org/ns#" xmlns:rdf="http://www.w3.org/1999/02/22-rdf-syntax-ns#" xmlns="http://www.w3.org/2000/svg" xmlns:sodipodi="http://sodipodi.sourceforge.net/DTD/sodipodi-0.dtd" xmlns:inkscape="http://www.inkscape.org/namespaces/inkscape" width="133.80334" height="43.534649" viewBox="0 0 35.402133 11.518543" version="1.1" id="svg8"><defs id="defs2" /><metadata id="metadata5"><rdf:RDF><cc:Work rdf:about=""><dc:format>image/svg+xml</dc:format><dc:type rdf:resource="http://purl.org/dc/dcmitype/StillImage" /><dc:title></dc:title></cc:Work></rdf:RDF></metadata><g id="layer1" transform="translate(-171.41923,-310.7632)"><g id="g75" transform="translate(0.13229248,-0.13229384)"><path id="path10" d="m 187.62178,317.44809 c -0.41936,0 -0.75909,-0.33311 -0.75909,-0.74401 0,-0.41063 0.33973,-0.74374 0.75909,-0.74374 0.4191,0 0.75909,0.33311 0.75909,0.74374 0,0.4109 -0.33999,0.74401 -0.75909,0.74401 m -0.004,-2.37543 c -0.91652,0 -1.65973,0.72813 -1.65973,1.62639 0,0.89826 0.74321,1.6264 1.65973,1.6264 0.91652,0 1.65947,-0.72814 1.65947,-1.6264 0,-0.89826 -0.74295,-1.62639 -1.65947,-1.62639 m 3.1586,0.97525 -2.7e-4,-10e-4 -0.0116,0.007 z m -0.34449,-0.85275 10e-4,-2.6e-4 -2.6e-4,-2.7e-4 z m 1.2356,0.71596 c 0,-0.14181 0.0103,-0.27649 0.0296,-0.40401 0.006,-0.0408 0.0138,-0.0804 0.0217,-0.11986 -0.5125,-0.40931 -0.84084,-0.31433 -1.28561,-0.19262 a 3.1112354,3.1112354 0 0 1 0.3429,0.85196 c 0.15796,-0.0902 0.27173,-0.0775 0.89138,0.41302 z m 0,1.12369 v -0.0759 c -0.22066,-0.23918 -0.48683,-0.28839 -0.81306,-0.35136 a 3.0363583,3.0363583 0 0 1 -0.1016,0.90487 c 0.18759,-0.0103 0.28284,0.0529 0.61595,0.80037 0.0699,0.15663 0.17515,0.27516 0.29871,0.36565 z m -0.81439,-0.42757 10e-4,2.7e-4 v -2.7e-4 z m -0.1008,0.90647 2.6e-4,-10e-4 -0.0135,7.9e-4 z m -7.09613,-0.85223 c 0,0.23972 -0.0246,0.46699 -0.0722,0.68342 l -2.6e-4,5.3e-4 c 0.29077,0.22199 0.57388,0.20902 0.92683,0.19579 a 3.0620229,3.0620229 0 0 1 -0.12303,-0.90408 c -0.17939,0.0527 -0.28734,0.0124 -0.79375,-0.64003 l -0.0124,-0.0148 a 3.1564791,3.1564791 0 0 1 0.0749,0.67918 m 0.85567,0.87974 h -0.001 v 2.7e-4 z m -0.12436,-0.90514 v 10e-4 l 0.0127,-0.004 z m 3.51631,-3.01413 5.3e-4,-10e-4 h -2.6e-4 z" style="fill:#ed1c24;stroke-width:0.26458332" /><path id="path12" d="m 188.82775,313.8397 c 0.0119,-0.17992 0.0889,-0.2622 0.90144,-0.4781 0.8419,-0.2241 0.84032,-1.38721 0.86016,-1.47055 0.0228,-0.0942 -0.0474,-0.14897 -0.0931,-0.027 -0.0426,0.11271 -0.61622,0.65034 -1.46447,0.80063 -0.8554,0.15134 -0.96494,0.48709 -1.12739,0.95594 a 3.4342916,3.4342916 0 0 1 0.92339,0.21907 m 0.001,5.3e-4 -0.001,-5.3e-4 -7.9e-4,0.013 z m 0.52864,0.26326 c 0.26378,0.16404 0.50588,0.36539 0.71728,0.60193 0.0971,-0.15372 0.20505,-0.19235 1.03293,-0.0243 0.85752,0.17436 1.41473,-0.85514 1.47241,-0.9197 0.0653,-0.0733 0.0294,-0.15266 -0.0701,-0.0651 -0.0921,0.0807 -0.86122,0.30268 -1.6891,0.0603 -0.83476,-0.24421 -1.09353,0.004 -1.46341,0.34687" style="fill:#ed1c24;stroke-width:0.26458332" /><path id="path14" d="m 189.35692,314.10455 8e-4,-0.001 h -2.7e-4 z m 0.71914,0.60193 -7.9e-4,-8e-4 -0.007,0.0111 z m 1.28111,6.32618 c -0.0952,-0.0786 -0.42148,-0.78687 -0.27517,-1.60231 0.14791,-0.82259 -0.14181,-1.0414 -0.54318,-1.35546 a 3.1326666,3.1326666 0 0 1 -0.53235,0.75009 c 0.17145,0.0754 0.2249,0.1741 0.15478,0.9816 -0.0722,0.83609 1.0631,1.25254 1.13745,1.30017 0.0841,0.054 0.16166,0.0111 0.0585,-0.0741 m -1.35175,-2.20662 7.9e-4,-7.9e-4 -0.0124,-0.006 z m 0.53234,-0.75221 0.001,7.9e-4 2.6e-4,-2.6e-4 z m -0.9742,1.13242 5.3e-4,0.001 h 2.6e-4 z m -0.83582,0.42915 0.001,-2.7e-4 -0.008,-0.0103 z" style="fill:#ed1c24;stroke-width:0.26458332" /><path id="path16" d="m 188.7288,319.63487 c 0.11668,0.14235 0.11695,0.25321 -0.33364,0.93583 -0.46646,0.70723 0.34449,1.57771 0.38762,1.65259 0.0487,0.0852 0.13864,0.0815 0.0876,-0.0392 -0.0468,-0.11165 0.003,-0.88238 0.52573,-1.53829 0.52705,-0.66172 0.37412,-0.98345 0.16801,-1.43854 a 3.3144354,3.3144354 0 0 1 -0.83529,0.42757 m -1.52744,0.15028 c 0.0352,0.17754 -0.0177,0.2757 -0.74718,0.67945 -0.75565,0.41857 -0.45218,1.54676 -0.44979,1.63222 0.002,0.0968 0.0844,0.13335 0.0971,0.004 0.0116,-0.11959 0.42677,-0.77841 1.20756,-1.1266 0.78766,-0.35137 0.80645,-0.70326 0.8419,-1.19697 a 3.4242375,3.4242375 0 0 1 -0.94959,0.008" style="fill:#ed1c24;stroke-width:0.26458332" /><path id="path18" d="m 187.20004,319.78515 0.001,2.7e-4 a 0.21669375,0.21669375 0 0 0 -0.003,-0.0127 z m 0.95091,-0.009 v 0.001 h 2.7e-4 z m -1.54596,-0.1262 -7.9e-4,0.001 h 2.6e-4 z m -0.84905,-0.41672 10e-4,7.9e-4 0.004,-0.0124 z" style="fill:#ed1c24;stroke-width:0.26458332" /><path id="path20" d="m 186.60446,319.65075 a 3.3787291,3.3787291 0 0 1 -0.84746,-0.41699 c -0.0548,0.17225 -0.14975,0.23522 -0.99351,0.26538 -0.87445,0.0315 -1.15226,1.16178 -1.19168,1.23798 -0.0445,0.0865 0.0106,0.15531 0.0847,0.0468 0.0683,-0.10002 0.75671,-0.49557 1.61952,-0.45376 0.87021,0.0418 1.05754,-0.25983 1.32847,-0.67945 m -3.61871,-1.11417 c 0.24633,0.054 0.51912,0.14685 0.78449,0.29872 0.75063,0.42915 1.06469,0.24818 1.50998,0.002 a 3.1988125,3.1988125 0 0 1 -0.54663,-0.74877 c -0.13282,0.127 -0.24765,0.13917 -1.01044,-0.21485 a 0.95911457,0.95911457 0 0 0 -0.27914,-0.081 c -0.0357,0.0865 -0.0749,0.17013 -0.11747,0.25056 a 2.5611666,2.5611666 0 0 1 -0.34079,0.49371 m 2.29579,0.29978 -0.001,5.3e-4 2.6e-4,2.6e-4 z m -0.54848,-0.7493 5.3e-4,10e-4 0.01,-0.009 z m 0.0505,-2.88423 -5.3e-4,10e-4 0.0132,0.002 z m -1.86135,-1.83515 c 0.11192,0.0545 0.60537,0.66834 0.66702,1.49517 0.0624,0.83396 0.39793,0.98001 0.86519,1.19327 a 3.0577895,3.0577895 0 0 1 0.32861,-0.85249 c -0.18521,-0.0336 -0.26141,-0.11721 -0.39555,-0.91837 -0.13891,-0.83 -1.34329,-0.97367 -1.4269,-1.00304 -0.0952,-0.0333 -0.15954,0.0265 -0.0384,0.0855 m 1.53353,2.68923 -0.001,-5.3e-4 -2.6e-4,2.7e-4 z m 0.65431,-1.31763 -7.9e-4,-10e-4 -2.6e-4,2.6e-4 z m 0.69956,-0.61118 c -0.14896,-0.11139 -0.17727,-0.21908 0.086,-0.98743 0.27279,-0.79586 -0.73289,-1.45282 -0.79375,-1.51553 -0.0688,-0.0714 -0.15478,-0.0468 -0.0749,0.0587 0.0738,0.0976 0.22066,0.85804 -0.11933,1.61713 -0.34264,0.76597 -0.11351,1.04299 0.20161,1.43722 a 3.2189208,3.2189208 0 0 1 0.70035,-0.61013 m 0.001,-8e-4 -0.001,8e-4 0.0106,0.008 z m 1.46368,-0.50403 h -0.001 l 0.006,0.0119 z" style="fill:#ed1c24;stroke-width:0.26458332" /><path id="path22" d="m 187.27306,313.62354 c -0.078,-0.16484 -0.0505,-0.27226 0.55748,-0.83079 0.62997,-0.57838 0.0579,-1.60788 0.0347,-1.69043 -0.0262,-0.0939 -0.11483,-0.11086 -0.0952,0.018 0.018,0.11907 -0.22251,0.85434 -0.89403,1.37028 -0.67759,0.5207 -0.60907,0.86731 -0.52175,1.35599 a 3.3898416,3.3898416 0 0 1 0.91889,-0.22304" style="fill:#ed1c24;stroke-width:0.26458332" /><path id="path24" d="m 186.35443,313.84764 -2.6e-4,-0.001 -2.7e-4,2.6e-4 z" style="fill:#ed1c24;stroke-width:0.26458332" /><path id="path26" d="m 187.62152,315.97674 c -0.40984,0 -0.74189,0.32544 -0.74189,0.72708 0,0.40163 0.33205,0.72734 0.74189,0.72734 0.40984,0 0.74216,-0.32571 0.74216,-0.72734 0,-0.40164 -0.33232,-0.72708 -0.74216,-0.72708" style="fill:#fcc90a;stroke-width:0.26458332" /><path id="path28" d="m 175.79068,317.34093 a 1.7298458,1.7298458 0 0 1 -0.33364,0.54187 1.4798146,1.4798146 0 0 1 -0.51568,0.3646 1.6380354,1.6380354 0 0 1 -0.65643,0.13043 c -0.24341,0 -0.46355,-0.0434 -0.66172,-0.13043 a 1.49225,1.49225 0 0 1 -0.51065,-0.3646 1.7290521,1.7290521 0 0 1 -0.33337,-0.54187 c -0.0799,-0.20478 -0.11986,-0.42889 -0.11986,-0.67204 0,-0.24315 0.0399,-0.47043 0.11986,-0.68262 0.0799,-0.21167 0.19103,-0.39423 0.33337,-0.5469 a 1.53035,1.53035 0 0 1 0.51065,-0.35957 c 0.19817,-0.0868 0.41831,-0.13017 0.66172,-0.13017 0.23601,0 0.45482,0.0434 0.65643,0.13017 a 1.5168562,1.5168562 0 0 1 0.51568,0.35957 1.6430625,1.6430625 0 0 1 0.33364,0.5469 c 0.0796,0.21219 0.11959,0.43947 0.11959,0.68262 0,0.24315 -0.04,0.46726 -0.11959,0.67204 m 0.53657,-2.64662 c -0.25717,-0.2466 -0.56118,-0.43921 -0.91175,-0.57838 -0.35084,-0.13891 -0.72761,-0.20823 -1.13057,-0.20823 -0.40296,0 -0.77999,0.0693 -1.13083,0.20823 -0.35083,0.13917 -0.65458,0.33178 -0.91149,0.57838 a 2.6696458,2.6696458 0 0 0 -0.60457,0.87524 c -0.14579,0.33708 -0.21881,0.70326 -0.21881,1.09934 0,0.3892 0.073,0.75195 0.21881,1.08903 a 2.665677,2.665677 0 0 0 0.60457,0.87497 c 0.25691,0.24686 0.56066,0.44133 0.91149,0.58367 0.35084,0.14235 0.72787,0.21352 1.13083,0.21352 0.40296,0 0.77973,-0.0712 1.13057,-0.21352 0.35057,-0.14234 0.65458,-0.33681 0.91175,-0.58367 a 2.6691166,2.6691166 0 0 0 0.60431,-0.87497 c 0.14578,-0.33708 0.21881,-0.69983 0.21881,-1.08903 0,-0.39608 -0.073,-0.76226 -0.21881,-1.09934 a 2.6728208,2.6728208 0 0 0 -0.60431,-0.87524 m 5.98117,2.6416 c -0.0767,0.20822 -0.186,0.3892 -0.32835,0.54186 -0.14234,0.15267 -0.31273,0.27279 -0.51064,0.35931 -0.19791,0.087 -0.41513,0.13017 -0.65141,0.13017 -0.24315,0 -0.46328,-0.0431 -0.66145,-0.13017 a 1.4710833,1.4710833 0 0 1 -0.50536,-0.35931 1.6978312,1.6978312 0 0 1 -0.32835,-0.54186 1.8756312,1.8756312 0 0 1 -0.11985,-0.67734 c 0,-0.25029 0.04,-0.47757 0.11985,-0.68262 a 1.5449021,1.5449021 0 0 1 0.33364,-0.52599 1.5329958,1.5329958 0 0 1 0.51038,-0.34396 1.6626416,1.6626416 0 0 1 0.65114,-0.12515 c 0.23628,0 0.4535,0.0437 0.65141,0.13044 0.19791,0.0868 0.3683,0.20479 0.51064,0.35428 0.14235,0.14949 0.25162,0.32649 0.32835,0.53128 0.028,0.0751 0.0489,0.15319 0.0667,0.23257 a 2.028825,2.028825 0 0 1 0.0479,0.42915 c 0,0.24342 -0.0384,0.46884 -0.11457,0.67734 m 1.32054,-1.04855 a 2.7723041,2.7723041 0 0 0 -0.18495,-0.72284 c -0.1389,-0.34052 -0.33178,-0.63209 -0.57838,-0.87551 a 2.7093333,2.7093333 0 0 0 -0.86995,-0.57282 c -0.33337,-0.13917 -0.69823,-0.20849 -1.09405,-0.20849 -0.431,0 -0.82312,0.0659 -1.17739,0.19791 -0.35428,0.13202 -0.65644,0.32491 -0.90673,0.57838 -0.25003,0.25347 -0.4445,0.56621 -0.58367,0.93768 -0.13891,0.37174 -0.20823,0.80063 -0.20823,1.28693 v 4.45982 h 1.18798 v -2.74055 c 0.17357,0.22251 0.41301,0.4101 0.71887,0.56276 0.30586,0.15267 0.65643,0.22913 1.05252,0.22913 0.38179,0 0.73448,-0.0677 1.05754,-0.2032 a 2.5505833,2.5505833 0 0 0 0.84402,-0.56779 l 0.006,-0.006 a 2.5484666,2.5484666 0 0 0 0.43021,-0.59213 2.7111854,2.7111854 0 0 0 0.25744,-0.69824 c 0.0479,-0.21616 0.0725,-0.44371 0.0725,-0.68342 0,-0.13044 -0.008,-0.25717 -0.0235,-0.38153 M 194.95127,314.09 c -0.27437,-0.12145 -0.6305,-0.1823 -1.06812,-0.1823 -0.69453,0 -1.23825,0.17542 -1.63063,0.52599 -0.30533,0.27305 -0.49133,0.63368 -0.55906,1.08109 -0.0193,0.12753 -0.0296,0.26194 -0.0296,0.40402 v 3.46895 h 1.18798 v -3.12526 c 0,-0.11694 0.008,-0.22516 0.023,-0.32623 a 1.8467916,1.8467916 0 0 1 0.0161,-0.0921 c 0.1188,-0.58208 0.51171,-0.87365 1.17978,-0.87365 0.22225,0 0.42042,0.0243 0.59399,0.0728 0.17356,0.0489 0.31961,0.10081 0.43762,0.15637 0.0418,-0.0275 0.0955,-0.0971 0.16166,-0.20823 0.0659,-0.11112 0.0989,-0.22569 0.0989,-0.34396 0,-0.25003 -0.13732,-0.43576 -0.41169,-0.55747 m 3.76661,4.19391 a 1.651,1.651 0 0 1 -0.5625,0.0937 c -0.12515,0 -0.24501,-0.0138 -0.35957,-0.0418 a 0.76332291,0.76332291 0 0 1 -0.30216,-0.14552 0.68871041,0.68871041 0 0 1 -0.2032,-0.27623 c -0.0487,-0.11456 -0.073,-0.2622 -0.073,-0.44291 v -2.32357 h 2.00078 a 2.0187708,2.0187708 0 0 0 0.0833,-0.21379 c 0.0344,-0.10054 0.0521,-0.20981 0.0521,-0.32808 0,-0.18071 -0.0471,-0.31803 -0.14075,-0.41169 -0.0939,-0.0939 -0.25533,-0.14076 -0.48446,-0.14076 h -1.51103 v -1.36499 a 3.0731354,3.0731354 0 0 0 -0.21352,-0.0677 1.25095,1.25095 0 0 0 -0.34925,-0.0468 c -0.19447,0 -0.3474,0.0434 -0.45852,0.13018 -0.11113,0.087 -0.16669,0.22754 -0.16669,0.42201 v 4.58496 c 0,0.51409 0.15637,0.92922 0.46884,1.24513 0.31274,0.31618 0.7747,0.47413 1.38589,0.47413 0.21537,0 0.41328,-0.0193 0.59399,-0.0571 0.18071,-0.0384 0.34396,-0.0855 0.48974,-0.14076 a 2.1423312,2.1423312 0 0 0 0.36989,-0.17727 c 0.1008,-0.0624 0.17886,-0.11456 0.23468,-0.1561 l -0.47942,-0.79216 c -0.0767,0.0558 -0.20161,0.11456 -0.37518,0.17727 m 5.42396,-0.94298 a 1.7346083,1.7346083 0 0 1 -0.33364,0.54187 1.4798146,1.4798146 0 0 1 -0.51567,0.3646 1.6385646,1.6385646 0 0 1 -0.6567,0.13043 c -0.24289,0 -0.46355,-0.0434 -0.66146,-0.13043 -0.19791,-0.0868 -0.3683,-0.20823 -0.51064,-0.3646 -0.14235,-0.15637 -0.25348,-0.33682 -0.33338,-0.54187 -0.0799,-0.20478 -0.11986,-0.42889 -0.11986,-0.67204 0,-0.24315 0.04,-0.47043 0.11986,-0.68262 0.0799,-0.21167 0.19103,-0.39423 0.33338,-0.5469 0.14234,-0.15266 0.31273,-0.27278 0.51064,-0.35957 0.19791,-0.0868 0.41857,-0.13017 0.66146,-0.13017 0.23627,0 0.45508,0.0434 0.6567,0.13017 a 1.5168562,1.5168562 0 0 1 0.51567,0.35957 1.6472958,1.6472958 0 0 1 0.33364,0.5469 1.9261666,1.9261666 0 0 1 0.11985,0.68262 c 0,0.24315 -0.0402,0.46726 -0.11985,0.67204 m 1.14088,-1.77138 a 2.6728208,2.6728208 0 0 0 -0.60431,-0.87524 c -0.25717,-0.2466 -0.56118,-0.43921 -0.91202,-0.57838 -0.35057,-0.13891 -0.7276,-0.20823 -1.13056,-0.20823 -0.4027,0 -0.77973,0.0693 -1.13056,0.20823 -0.35084,0.13917 -0.65458,0.33178 -0.91176,0.57838 a 2.668852,2.668852 0 0 0 -0.60431,0.87524 c -0.14578,0.33708 -0.21854,0.70352 -0.21854,1.09934 0,0.3892 0.0728,0.75195 0.21854,1.08903 a 2.6651479,2.6651479 0 0 0 0.60431,0.87497 c 0.25718,0.24686 0.56092,0.44133 0.91176,0.58367 0.35083,0.14235 0.72786,0.21352 1.13056,0.21352 0.40296,0 0.77999,-0.0712 1.13056,-0.21352 0.35084,-0.14234 0.65485,-0.33681 0.91202,-0.58367 a 2.6691166,2.6691166 0 0 0 0.60431,-0.87497 c 0.14605,-0.33708 0.21881,-0.69983 0.21881,-1.08903 0,-0.39582 -0.0728,-0.76226 -0.21881,-1.09934 m 0.31988,3.32237 c 0,0.0614 0.0111,0.1188 0.0336,0.17304 0.0222,0.054 0.0527,0.1008 0.0913,0.14076 0.0384,0.04 0.0836,0.0712 0.13573,0.0942 0.0519,0.0227 0.10768,0.0341 0.16695,0.0341 a 0.41354374,0.41354374 0 0 0 0.30268,-0.12832 0.44714583,0.44714583 0 0 0 0.12489,-0.3138 0.44714583,0.44714583 0 0 0 -0.12489,-0.3138 0.41354374,0.41354374 0 0 0 -0.30268,-0.12832 c -0.0593,0 -0.11509,0.0114 -0.16695,0.0341 a 0.42227499,0.42227499 0 0 0 -0.13573,0.0942 0.44238333,0.44238333 0 0 0 -0.0913,0.14076 0.44529374,0.44529374 0 0 0 -0.0336,0.17304 m -0.0992,0 c 0,-0.073 0.0138,-0.14129 0.0415,-0.20505 a 0.53631041,0.53631041 0 0 1 0.2802,-0.2802 c 0.0638,-0.0278 0.13202,-0.0415 0.20505,-0.0415 0.073,0 0.14129,0.0138 0.20505,0.0415 a 0.53260624,0.53260624 0 0 1 0.28019,0.2802 c 0.0278,0.0638 0.0415,0.13203 0.0415,0.20505 0,0.073 -0.0137,0.14129 -0.0415,0.20505 a 0.53260624,0.53260624 0 0 1 -0.28019,0.2802 c -0.0638,0.0278 -0.13203,0.0415 -0.20505,0.0415 -0.073,0 -0.14129,-0.0138 -0.20505,-0.0415 a 0.53683958,0.53683958 0 0 1 -0.2802,-0.2802 0.50747083,0.50747083 0 0 1 -0.0415,-0.20505" style="fill:#000000;stroke-width:0.26458332" /><path id="path30" d="m 205.99366,318.66253 c 0.0717,0 0.12118,0.01 0.1479,0.0302 a 0.0936625,0.0936625 0 0 1 0.0392,0.0783 0.098425,0.098425 0 0 1 -0.0392,0.0839 c -0.0265,0.0201 -0.0725,0.0304 -0.13653,0.0304 -0.0283,0 -0.0511,-8e-4 -0.0688,-0.002 a 0.52069999,0.52069999 0 0 1 -0.0368,-0.004 v -0.21141 l 0.0304,-0.003 c 0.0161,-0.002 0.0373,-0.002 0.0638,-0.002 m 0.313,0.52519 a 4.6045437,4.6045437 0 0 0 -0.0677,-0.12356 1.3827125,1.3827125 0 0 0 -0.077,-0.12091 0.2016125,0.2016125 0 0 0 0.0765,-0.0582 0.17806458,0.17806458 0 0 0 0.0376,-0.11403 0.1603375,0.1603375 0 0 0 -0.0791,-0.14949 0.2714625,0.2714625 0 0 0 -0.0881,-0.0328 0.56832499,0.56832499 0 0 0 -0.10927,-0.0101 1.5187083,1.5187083 0 0 0 -0.0945,0.002 0.314325,0.314325 0 0 0 -0.0479,0.005 c -0.031,0.006 -0.0474,0.0243 -0.0474,0.0526 v 0.55748 h 0.0897 v -0.23178 a 0.99112915,0.99112915 0 0 0 0.16722,0.002 1.5345833,1.5345833 0 0 1 0.0704,0.10954 c 0.0135,0.023 0.0259,0.045 0.0378,0.0664 l 0.0278,0.0505 0.002,0.003 h 0.10663 z m -18.67879,-0.89032 c -0.89614,0 -1.62243,-0.71173 -1.62243,-1.58988 0,-0.87815 0.72629,-1.58988 1.62243,-1.58988 0.89614,0 1.62242,0.71173 1.62242,1.58988 0,0.87815 -0.72628,1.58988 -1.62242,1.58988 m -2.7e-4,-4.39605 c -1.58115,0 -2.86305,1.25624 -2.86305,2.80591 0,1.5494 1.2819,2.80564 2.86305,2.80564 1.58115,0 2.86306,-1.25624 2.86306,-2.80564 0,-1.54967 -1.28191,-2.80591 -2.86306,-2.80591" style="fill:#000000;stroke-width:0.26458332" /></g></g></svg>
