<svg width="35" height="32" viewBox="0 0 35 32" fill="none" xmlns="http://www.w3.org/2000/svg">
<path d="M4.22144 4.44173C4.40933 4.41778 4.57522 4.55946 4.57522 4.74902V10.1984C4.57522 16.003 4.86905 25.8203 14.9629 25.8203C21.1812 25.8203 25.3606 20.8478 25.3606 15.0193C25.3606 9.19075 20.3337 4.86076 14.0755 4.86076C13.3079 4.86076 12.6863 5.48132 12.6863 6.24755V10.0248C12.6863 10.0248 14.1874 10.0208 14.5032 10.0208C18.7646 10.0208 20.2097 13.2174 20.2097 15.0193C20.2097 18.3975 17.9771 20.6143 15.1948 20.6143C11.7189 20.6143 9.71211 17.8407 9.71211 14.9774V2.89331C9.71411 1.29501 11.0113 0 12.6104 0C30.4375 0 34.8429 6.79429 34.8429 11.3358C34.8429 22.8771 21.485 32 12.7982 32C2.22465 32 0 22.1208 0 14.9514C0 6.82023 2.42653 4.68117 4.22144 4.44173Z" fill="#22B94F"/>
</svg>
