<svg width="130" height="40" viewBox="0 0 130 40" fill="none" xmlns="http://www.w3.org/2000/svg">
<g clip-path="url(#clip0_8_1954)">
<path d="M29.39 10.02L28.95 4.31L27.56 8.73H25.63L24.24 4.31L23.81 10.02H21.59V9.07L22.56 0.139999H24.98L26.6 5.16L28.21 0.139999H30.64L31.6 9.05V10.02H29.39Z" fill="#A6192E"/>
<path d="M37.5 0.139999H35.33V10.02H37.5V0.139999Z" fill="#A6192E"/>
<path d="M46.09 10.02L43.72 4.67L43.85 6.28V10.02H41.69V0.139999H43.85L46.22 5.49L46.09 3.87V0.139999H48.25V10.02H46.09Z" fill="#A6192E"/>
<path d="M56.85 10.02L54.48 4.67L54.61 6.28V10.02H52.45V0.139999H54.61L56.98 5.49L56.85 3.87V0.139999H59.01V10.02H56.85Z" fill="#A6192E"/>
<path d="M63.21 10.02V0.139999H69.3V1.44L68.71 2.03H65.38V4.06H68.22V5.96H65.38V8.12H69.3V10.02H63.21Z" fill="#A6192E"/>
<path d="M72.35 10.02V8.12H76.07C76.35 8.12 76.54 7.95 76.54 7.71V6.56C76.54 6.5 76.54 6.32 76.15 6.21L74.12 5.67C73.02 5.37 72.41 4.63 72.41 3.58V2.16001C72.41 0.950005 73.28 0.130005 74.58 0.130005H78.44V1.43L77.85 2.02H75.06C74.78 2.02 74.59 2.19001 74.59 2.43001V3.45001C74.59 3.51001 74.59 3.69 74.98 3.8L77.01 4.34C78.11 4.64 78.72 5.38 78.72 6.43V7.99C78.72 9.2 77.85 10.02 76.55 10.02H72.35Z" fill="#A6192E"/>
<path d="M84.33 10.15C83.03 10.15 82.16 9.33 82.16 8.12V2.03C82.16 0.82 83.03 0 84.33 0H86.9C88.2 0 89.07 0.82 89.07 2.03V8.12C89.07 9.33 88.2 10.15 86.9 10.15H84.33ZM84.8 1.89C84.52 1.89 84.33 2.06 84.33 2.3V7.85C84.33 8.09 84.52 8.26 84.8 8.26H86.42C86.7 8.26 86.89 8.09 86.89 7.85V2.3C86.89 2.06 86.7 1.89 86.42 1.89H84.8Z" fill="#A6192E"/>
<path d="M94.34 10.02V2.03H92.11V0.139999H98.74V1.44L98.15 2.03H96.51V10.02H94.34Z" fill="#A6192E"/>
<path d="M106.16 10.02L105.69 7.99H103.44L102.97 10.02H100.85V9.05L103.26 0.139999H105.87L108.29 9.05V10.02H106.17H106.16ZM105.25 6.09L104.56 3.28L103.87 6.09H105.25Z" fill="#A6192E"/>
<path d="M123.4 13.75H96.26H92.27L96.25 17.74V40.01H123.39C127.27 40.01 129.86 37.76 129.86 34.38V19.38C129.86 16 127.27 13.75 123.39 13.75H123.4ZM119.95 32.88H106.18V20.88H119.95V32.88Z" fill="#DDCBA4"/>
<path d="M50.55 13.75H60.47V40H50.55V13.75Z" fill="#DDCBA4"/>
<path d="M92.44 36.86V32.5H74.51V13.75H64.59V40H89.3L92.44 36.86Z" fill="#DDCBA4"/>
<path d="M33.43 13.75V28.75H32.93L29.44 17.87H17.46L13.97 28.75H13.47V13.75H0V17.5L6.04 40H19.46L20.32 37.31L21.57 33.43H20.41L23.45 24.12L26.48 33.43H25.33L26.64 37.51L27.44 40H40.86L46.9 17.5V13.75H33.43Z" fill="#DDCBA4"/>
<path d="M20.1 2.95999L11.69 3.29999L11.54 0.149994L8.42 3.80999L0.119995 6.19999L6.43 6.34999L2.94 11.28L8.66 7.82999L11.78 9.84999L11.77 5.90999L20.1 2.95999Z" fill="#A6192E"/>
<path d="M129.75 6.19999L121.45 3.80999L118.33 0.149994L118.18 3.29999L109.78 2.95999L118.1 5.90999L118.09 9.84999L121.21 7.82999L126.93 11.28L123.44 6.34999L129.75 6.19999Z" fill="#A6192E"/>
</g>
<defs>
<clipPath id="clip0_8_1954">
<rect width="130" height="40" fill="white"/>
</clipPath>
</defs>
</svg>
