<svg width="548" height="322" viewBox="0 0 548 322" fill="none" xmlns="http://www.w3.org/2000/svg">
<g clip-path="url(#clip0_611_32)">
<path fill-rule="evenodd" clip-rule="evenodd" d="M241.619 75.6237C237.848 87.0896 235.541 99.3014 230.062 109.897C200.874 166.351 171.198 222.564 141.077 278.535C119.554 318.529 75.1941 332.764 37.8313 312.62C1.47909 293.022 -10.6419 249.112 10.1278 209.389C40.143 151.985 70.1522 94.563 101.311 37.7692C118.425 6.57327 152.785 -6.12036 186.615 3.56515C218.231 12.6174 239.831 41.7542 241.619 75.6237Z" fill="black"/>
<path fill-rule="evenodd" clip-rule="evenodd" d="M444.345 75.2575C440.575 86.7235 438.268 98.9352 432.79 109.53C403.6 165.985 373.925 222.198 343.804 278.169C322.281 318.162 277.921 332.398 240.558 312.254C204.206 292.656 192.084 248.746 212.855 209.022C242.87 151.619 272.879 94.1968 304.037 37.403C321.151 6.20707 355.512 -6.48657 389.341 3.19893C420.958 12.2511 442.558 41.3881 444.345 75.2575Z" fill="black"/>
<path fill-rule="evenodd" clip-rule="evenodd" d="M475.447 96.5215C496.348 133.171 516.963 168.548 536.833 204.383C556.104 239.138 549.92 279.298 522.384 303.658C495.162 327.74 455.065 327.715 428.233 303.599C400.893 279.026 394.939 238.665 414.198 204.153C434.149 168.399 454.661 132.991 475.447 96.5215Z" fill="black"/>
</g>
<defs>
<clipPath id="clip0_611_32">
<rect width="548" height="322" fill="white"/>
</clipPath>
</defs>
</svg>