<svg version="1.2" xmlns="http://www.w3.org/2000/svg" viewBox="0 0 1548 139" width="1548" height="139"><path fill-rule="evenodd" fill="#009900" d="m196.2 29.1c-3.1 18.6-16.2 27.8-38.1 27.8h-21.5c0 0 0 0-3 14.5-3.2 15.1-15 27.6-36.8 27.6h-88.4l14.7-70.5c4.4-21.4 11.8-27.6 36.3-27.6h45.7l-13 62.6c-1.4 6.9-5.2 10.9-12.6 10.9-7.4 0-10.3-4.2-8.9-10.9 1-4.3 1.7-7.5 2.1-9.3h-19.6c-0.7 3.6-1 5.2-1.8 9.3-3.8 19.4 10.6 27.4 25.7 27.4 16.7 0 30.4-5.7 34.9-27.4l13-62.6h43.5c18.2 0 30.7 10.8 27.8 28.2zm-34.7-13.2h-16.4l-5.4 25.8h16.1c12.1 0 18.9-3.9 20.2-12.6 0.9-7.1-2.2-13.2-14.5-13.2zm-156.2 98.2h10.9c2.6 0 7 1 7 5.7 0 3.3-2.6 5.7-6.5 6.2v0.1c2.9 0.4 4.8 2 4.8 4.7 0 5.2-4.5 7.7-10.1 7.8l-11.2 0.1zm2.3 20h1.8c3.3 0 5.5-0.9 5.5-3.3 0-2.2-1.5-2.5-4.5-2.5h-1.6zm2.2-10.2h2.4c2.8 0 4.4-1.1 4.4-2.8 0-2-1.6-2.3-4.1-2.3h-1.7z"/><path fill-rule="evenodd" fill="#009900" d="m61.1 114.1h8.2l4.1 24.6h-6.7l-0.6-5.2h-9.6l-2.9 5.2h-7.1zm3.3 5.1h-0.1l-5.2 9.6h6.3zm41.9-5.1h8.2l5.1 17.1 3.5-17.1h6.2l-5.2 24.7h-8.2l-5.1-17.1h-0.1l-3.4 17.1h-6.2zm52.4 0h6.6l-2.1 10h0.1l8.8-10h8.5l-11.6 11.9 7.2 12.7h-7.6l-6-11.2h-0.1l-2.3 11.2h-6.7zm98-11c2.7 1 5.6 1.7 9.6 1.7 13.2 0 13.2-10.5 13.2-17.7v-67.1h20.1v76.8c0 10.6-6.9 25.6-27.5 25.6-5.5 0-9.8-0.4-15.4-1.8zm93.3-83.1h22.8l39.5 100.7h-22.3l-8.7-23.1h-40.8l-8.7 23.1h-20.9zm11.1 20.2h-0.3l-14.6 41.5h29.4zm66.3-20.2h25.5c21.9 0 41.9 6.4 41.9 30.5 0 23.5-17.1 32-38.7 32h-8.5v38.2h-20.2zm20.2 46.6h7c10.1 0 19.2-3.3 19.2-15 0-11.7-8.8-15.7-19.2-15.7h-7z"/><path fill-rule="evenodd" fill="#009900" d="m533.3 20h22.8l39.5 100.8h-22.4l-8.6-23.1h-40.8l-8.8 23.1h-20.9zm11.1 20.2h-0.2l-14.6 41.5h29.4zm64.5-20.2h24.8l38.3 75.3h0.3v-75.3h19.3v100.7h-24.6l-38.5-75.3h-0.3v75.3h-19.3zm154.4 0h25.5c21.9 0 41.9 6.4 41.9 30.5 0 23.5-17.1 32-38.7 32h-8.5v38.2h-20.2zm20.2 46.6h7c10.1 0 19.2-3.3 19.2-15 0-11.6-8.8-15.7-19.2-15.7h-7zm108.9-48.3c31.5 0 49.3 21.3 49.3 51.8 0 30.4-17.5 52.4-49.3 52.4-32.3 0-49.3-21.5-49.3-52.4 0-30.9 17.3-51.8 49.3-51.8zm0 88.3c20.6 0 28.2-18.3 28.2-36.5 0-17.8-8.2-36-28.2-36-20 0-28.2 18.2-28.2 36 0 18.2 7.6 36.5 28.2 36.5zm120.3-68.1c-6.3-2.8-13.4-4.4-20.5-4.4-6.9 0-15.8 3.1-15.8 14.1 0 17.4 44.1 10 44.1 43.8 0 22.1-17.5 30.5-37.8 30.5-10.9 0-15.8-1.5-25.8-3.9l1.9-18.2c6.9 3.7 14.9 6.2 22.8 6.2 7.6 0 17.9-3.9 17.9-13 0-19.2-44.1-11.3-44.1-44.6 0-22.5 17.4-30.7 35.1-30.7 8.7 0 16.7 1.1 24.1 3.6zm47.2-2.6h-28.8v-15.9h77.8v15.9h-28.8v84.8h-20.2zm104.8-15.8h35.1c13 0 32.4 3.7 32.4 25.8 0 12-8 20.3-20 22.5v0.3c13.7 1.3 23.1 10.5 23.1 22.9 0 25.4-22.8 29.2-35.5 29.2h-35.1zm20.1 40.6h8.3c8.5 0 19-1.8 19-12.2 0-11.7-10.3-12.6-19.5-12.6h-7.8zm0 44.2h9.6c9.3 0 20.7-2.3 20.7-14 0-13.2-10.7-15.2-20.7-15.2h-9.6zm99.2-84.8h22.8l39.4 100.7h-22.3l-8.7-23.1h-40.7l-8.8 23.1h-20.9zm11.1 20.2h-0.3l-14.6 41.6h29.5zm63.4-20.2h24.7l38.4 75.3h0.3v-75.3h19.3v100.7h-24.7l-38.4-75.3h-0.3v75.3h-19.3zm106.6 0h20.1v43.2l36.3-43.2h24.8l-41.3 47.4 43 53.3h-26.3l-36.2-46.8h-0.3v46.8h-20.1z"/></svg>