<svg enable-background="new 0 0 1241.22 709.04" height="238.812165" viewBox="0 0 1241.22 709.04" width="418.739138" xmlns="http://www.w3.org/2000/svg" xmlns:xlink="http://www.w3.org/1999/xlink"><clipPath id="a"><path d="m-691.83-1502.61h2628v3708h-2628z"/></clipPath><clipPath id="b"><path d="m1195.91 338.36c1.21 166.07-239.28 296.78-571.68 298.9-293.57 1.85-574.74-128.33-575.86-291.59-1.16-163.22 273.62-298.42 571.69-300.31 299.62-1.91 574.76 132.61 575.85 293"/></clipPath><linearGradient id="c" gradientUnits="userSpaceOnUse" x1="375.249" x2="869.029" y1="675.7751" y2="6.855"><stop offset="0" stop-color="#be9b48"/><stop offset=".25" stop-color="#efc85f"/><stop offset=".6" stop-color="#c2a14d"/><stop offset=".82" stop-color="#fed164"/><stop offset="1" stop-color="#bf9d4a"/></linearGradient><path clip-path="url(#a)" clip-rule="evenodd" d="m614.59 668.85h-8.29c-247.73-1.11-482.9-100.98-551.8-240.24 168.74-3.93 616.06-13.65 921.86-13.65 88.49 0 165.19.82 219.78 2.82-66.56 140.33-281.96 243.73-562.47 250.79-6.37.16-12.7.25-19.08.28" fill-rule="evenodd" opacity=".5"/><path clip-path="url(#a)" clip-rule="evenodd" d="m1217.8 337.22c1.2 171.89-248.52 307.17-593.47 309.32-304.78 1.98-596.6-132.78-597.79-301.77-1.2-168.93 284.04-308.85 593.44-310.82 310.98-1.96 596.67 137.27 597.82 303.27" fill="#fff" fill-rule="evenodd"/><g clip-path="url(#a)"><path clip-path="url(#b)" d="m47.21 43.45h1149.92v595.66h-1149.92z" fill="url(#c)"/></g><g clip-rule="evenodd" fill-rule="evenodd"><path clip-path="url(#a)" d="m1160.49 334c1.11 163.61-224.6 292.31-536.42 294.43-275.43 1.84-539.18-126.44-540.24-287.22-1.08-160.83 256.73-293.99 536.34-295.85 281.07-1.9 539.29 130.64 540.32 288.64" fill="#e3000f"/><path clip-path="url(#a)" d="m587.04 330.14c-5.09-.1-6.89-.62-6.89-.62-16.04-3.3-11.1-16.55-11.1-16.55 12.03-25.1 58.21-3.54 58.21-3.54 1.88 2.64-8.08 10.03-8.08 10.03s-14.29 8.99-32.14 10.68m92.02-135.97s16.78-5.23 20.54 15.97c0 0 3.77 20.84-15.48 29.59 0 0-11.03 4.79-15.66-1.79zm31.44 111.64 6.6-7.88-41.85-47.67c50.43-4.61 37.28-45.8 37.28-45.8-12.76-34.79-47.25-18.03-47.25-18.03-.55.94-21.6 101.49-21.6 101.49-.54 8.14-4.89 5.7-4.89 5.7-54.87-25-80.4.54-80.4.54-2.77 3.4.99 5.26.99 5.26 3.11 1.19 5.51-1.01 5.51-1.01 28.59-20.68 65.46.17 65.46.17 5.17 5.16-3.11 3.39-3.11 3.39-62.51-22.53-68.68 13.34-68.68 13.34-1.38 22.38 25.86 24.8 25.86 24.8l21.7-.14c2.06-6.19 3.46-6.74 3.46-6.74 15.01-4.43 33.33-23.07 33.33-23.07 25.19 12.03 39.64 7.59 39.64 7.59 17.26-5.92 9.53-21.71 9.53-21.71-5.12-10.02-12.66-11.72-12.66-11.72-1.75-.25-3.34.81-3.34.81-2.75 1.63-.37 3.39-.37 3.39 6.68 1.97 7.47 7.29 7.47 7.29 1.04 17.72-27.76 6.61-27.76 6.61l8.83-46.25z" fill="#fff"/><path clip-path="url(#a)" d="m594.82 237.19 5.22-17.58 11.01 5.82zm-16.73 6.22c-22.42-3.68-15.18-20.74-15.18-20.74 7.3-14.58 23.39-7.81 23.39-7.81zm54.3 20.99 22.77-99.62s-14.25 2.37-15.58 2.13c0 0-6.04 1.86 1.88 6.36l-12.86 53.07-5.61-1.81s1.88-18.34-9.22-5.27l-12.98-7.29 10.45-48.9-20.2.11s-8.42-.23 4.89 9.38l-8.62 34.4s-24.06-6.22-35.04 16.02c0 0-9 24.46 22.56 31.12l-6.7 27.53s11.68-7.46 18.28-6.75l5.94-24.96s19-11.85 25.82-19.78c0 0 10.18 3.26 7.93 5.54 0 0-8.11 35.68-10.15 36.47 0 0 6.14 10.36 15.82 15.14 0 0 5.86 2.27 4.32-5.12.01.02-7.92-9.61-3.7-17.77z" fill="#fff"/><path clip-path="url(#a)" d="m557.11 289.69c-11.51-15.5-18.4-34.69-18.56-55.51-.34-52.14 41.66-94.67 93.84-95.05 52.13-.34 94.68 41.66 95.1 93.8.11 19.34-4.34 35.31-14.24 50.35 3.14 3.82 4.8 5.26 8.09 8.49 11.16-16.89 17.58-37.16 17.46-58.91-.44-58.42-48.09-105.44-106.47-105.05-58.44.39-105.49 48.04-105.08 106.47.09 23.43 7.92 45.06 20.97 62.48 2.75-2.47 5.73-4.83 8.89-7.07" fill="#fff"/><path clip-path="url(#a)" d="m486.63 460.18 31.35-126.07 2.75-9.77c-.07-4.19 4.07-12.63-.14-11.2-5.56.03-25.09 5.75-27.91 7.18-2.77.04-4.09 4.22-1.36 5.61 2.84 1.35 5.65 2.75 4.27 9.75l-31.33 123.29s-1.37 4.19-1.37 5.58c-1.35 2.81-1.29 4.17-5.53 4.22-4.21 1.43-4.21 7.01.02 6.98h2.79l22.34-.16 7.04-.05c2.77 0 2.72-4.2 1.36-5.6-4.21-2.76-5.59-4.18-4.28-9.76" fill="#fff"/><path clip-path="url(#a)" d="m431.94 435.36c-2.7 12.62-15.18 28.07-26.4 28.15-4.16.04-9.82-2.72-9.85-13.91-.11-19.56 20.76-29.48 43.06-39.42zm23.94 23.65s-2.8 2.76-5.59 2.81c-2.82.02-2.86-4.17-1.49-9.77 0 0 15.07-53.23 15-63.04-.07-11.18-7.2-26.52-30.95-26.37-23.77.17-40.45 12.88-40.38 25.46 0 0 1.42 6.97 9.82 6.91 15.39-.11 12.48-22.45 27.81-22.54 11.17-.07 15.46 8.29 12.76 19.51-5.51 16.8-71.18 21.42-70.9 61.98.05 15.38 8.51 25.11 22.52 25.03 18.13-.15 30.62-17.01 30.62-17.01s.05 14.01 11.28 13.91c11.17-.07 19.5-12.71 19.5-12.71z" fill="#fff"/><path clip-path="url(#a)" d="m268 384.73c-2.75 1.42-5.61 2.85-6.99 2.85-5.56.04-12.57-2.71-12.64-11.1-.09-7 5.49-14.01 16.71-14.09 2.77-.02 5.54-.04 8.38 1.31zm99.43 20.33c6.94-4.26 12.52-9.9 18.06-16.9 2.75-2.84 2.72-7.04-2.85-5.59-2.77 1.39-5.58 2.82-11.17 2.87l24.56-93.85-.05-2.8c1.37-2.8 2.8-4.19 5.57-5.6 4.19-1.45 4.19-5.66 0-5.63l-32.2.23c-2.8.03-2.77 4.22-1.41 5.61 4.25 1.36 7.09 4.16 5.72 11.13l-23.17 86.84c-18.23-6.85-35.16-23.51-51.99-29l15.02-60.19v-2.83c1.35-2.81 1.35-4.21 5.54-5.62 4.16-1.45 4.11-5.63-.02-5.58l-32.2.18c-2.79.03-2.75 4.2-1.35 5.59 4.2 1.41 7.04 4.15 4.27 11.23l-13.64 54.56c-23.76 2.97-39.01 14.27-38.91 32.45.11 16.76 12.75 26.45 23.91 26.39l-12.23 51.82s-1.32 4.2-1.32 5.58c-1.38 2.83-1.38 4.22-5.56 4.27-4.22 1.38-4.14 7.01.04 6.96h2.77l22.38-.14 7.05-.06c2.75 0 2.73-4.21 1.36-5.61-4.24-2.77-5.66-4.16-5.68-9.74l23.19-88.25c18.23 11.03 37.88 26.32 51.91 31.8l-13.58 54.64s-1.39 4.2-1.39 5.61c-1.36 2.79-1.37 4.17-5.58 4.21-4.12 1.44-4.09 7.07.04 6.99h2.82l22.38-.17 6.97-.07c2.82 0 2.82-4.17 1.35-5.58-4.12-2.79-5.61-4.15-4.2-9.76z" fill="#fff"/><path clip-path="url(#a)" d="m567.42 410.71c-1.35 6.98-2.68 15.38-5.4 22.4-4.19 14-11.07 26.61-20.85 26.69-13.97.09-15.44-13.89-15.53-27.84-.14-18.15 12.18-56.01 33.16-56.17 8.4-.05 12.59 5.49 12.69 15.29 0 2.8-1.38 9.82-4.07 19.63m44.83-88.71-.02-1.4c1.2-3.6 4.31-10.2 1.75-11.19h-1.8c-4.22.02-25.17 5.74-27.94 7.17-2.81 0-2.76 4.23-1.32 5.59 4.12 1.35 5.54 2.75 4.22 8.33l-1.38 7.03c-2.7 12.62-7.44 26.98-8.81 36.73-2.81-4.15-8.43-12.51-22.46-12.43-29.36.21-52.89 38.14-52.66 71.68.23 29.38 12.91 43.26 26.92 43.15 16.7-.1 27.8-15.55 30.61-18.39.02 9.8-2.68 18.19 1.47 16.79 4.24-2.83 23.69-14.17 26.51-15.57 2.77-1.43 1.34-4.18-1.47-5.59-4.17.05-8.36.07-7.04-8.37l30.66-113.8z" fill="#fff"/><path clip-path="url(#a)" d="m937.61 349.51c0 5.6-1.37 8.36-4.15 13.97l1.45 2.81s18.06-14.1 17.97-30.9c-.1-8.34-5.71-13.95-11.32-13.89-6.96.04-13.92 5.7-13.85 14.06.05 9.78 9.9 13.95 9.9 13.95" fill="#fff"/><path clip-path="url(#a)" d="m761.88 433.18c-4.01 12.6-16.52 28.08-26.32 28.12-4.22.02-9.8-2.71-9.89-13.93-.12-19.58 20.78-29.47 41.67-39.42zm15.54 16.65s15.05-53.24 16.35-63.04c-.05-11.15-7.15-26.51-30.94-26.35-23.75.17-40.46 12.85-40.39 25.45 0 0 1.47 6.99 8.51 6.94 16.73-.11 12.39-22.45 29.18-22.55 9.72-.1 14.03 8.29 11.32 19.47-4.1 16.84-69.76 21.46-69.52 61.99.1 15.39 8.58 25.12 21.15 25.04 19.53-.14 32-16.97 32-16.97s.12 13.93 9.9 13.89c12.62-.07 20.95-12.72 20.95-12.72v-4.19s-2.82 2.81-7.04 2.86c-1.44-.01-1.44-4.21-1.47-9.82z" fill="#fff"/><path clip-path="url(#a)" d="m621.49 339c-2.74 8.4 1.5 14.01 9.83 13.96 6.98-.07 15.39-5.71 16.74-14.12 2.7-8.42-2.91-13.97-9.87-13.93-7.01.06-15.39 5.73-16.7 14.09" fill="#fff"/><path clip-path="url(#a)" d="m992.19 363.12c-4.18-1.39-11.21-4.13-19.58-4.08-19.62.12-34.92 14.23-34.77 33.79.12 16.81 18.39 26.43 32.41 36.14 8.46 6.94 9.9 13.92 9.95 18.1.04 7.02-6.89 16.84-20.88 16.95-1.43 0-2.75 0-4.22 0-12.62-4.07-12.74-20.85-12.76-25.07 0-4.19-5.58-4.17-6.96.02-1.38 2.82-2.68 16.82-4.09 22.42 5.65 5.53 9.87 8.32 14.09 9.69 5.61 1.36 11.19 2.72 19.6 2.64 16.73-.1 34.8-12.83 34.7-33.79-.16-22.35-19.74-27.82-35.25-43.1-4.21-4.16-7.03-8.35-7.08-13.94-.04-7 5.49-14.02 16.71-14.09 2.77-.03 7.01 1.36 11.17 2.72 8.43 2.73 9.9 11.11 8.55 18.12 0 4.2 6.98 4.18 6.93 1.36 1.4-4.23 4.15-12.61 6.89-19.62-7.01-5.56-11.25-6.88-15.41-8.26" fill="#fff"/><path clip-path="url(#a)" d="m908.3 359.46c-12.61.12-25.16 11.36-27.91 15.6-1.45-6.98-5.65-15.36-16.86-15.29-12.55.1-23.72 11.35-27.84 15.57l-.07-5.58c1.35-5.58 2.75-11.21-4.25-9.75-4.17 1.43-20.93 7.09-23.73 7.15-2.8 1.43-2.75 5.59.02 5.59 2.82 1.37 7.01 2.73 7.08 9.71l-17.64 74.23s-1.45 4.22-2.8 5.62c0 2.79-1.36 4.2-4.19 4.22-4.14 1.43-4.09 7.02.07 7.02l1.39-.03 22.4-.12 6.99-.07c4.18 0 4.11-4.25 1.32-5.61-2.79-2.77-5.61-4.18-4.26-11.18l19.05-74.24c2.81-2.8 5.56-5.64 11.19-5.65 9.78-.08 9.83 8.31 8.48 12.53l-16.35 67.24s-1.37 4.18-1.35 5.58c-1.35 2.84-2.79 4.24-5.56 5.65-4.22.02-4.22 5.58.05 5.58l2.77-.02 20.99-.14 8.4-.07c2.8 0 2.77-4.22 1.36-5.6-4.24-2.77-7.01-4.15-5.66-11.17l19.12-71.4v-1.4c2.7-4.21 6.9-7.02 12.51-7.08 8.33-.06 9.81 8.31 8.46 12.52l-16.32 67.23s-1.37 4.18-1.36 5.61c-1.34 2.79-2.77 4.22-5.53 5.62-4.24.03-4.2 5.62 0 5.59h2.79l20.97-.14 8.38-.07c2.79 0 2.77-4.2 1.39-5.6-4.21-2.77-7.08-4.18-5.7-11.17l17.7-70.03c2.75-8.36 1.26-26.57-15.5-26.45" fill="#fff"/><path clip-path="url(#a)" d="m722.37 373.28c-.06-4.19-1.47-12.53-14.07-12.49-11.14.11-20.85 12.73-25.02 19.75l1.31-9.8c-.05-5.57 1.35-11.17-4.25-9.77-4.18 1.45-22.29 7.16-25.14 7.17-2.74 1.46-2.72 5.64.05 5.59 2.81 1.39 8.46 2.74 7.08 9.77l-17.7 74.22s-1.37 4.16-1.37 5.58c-1.38 2.79-2.77 4.2-5.51 4.23-4.25 1.43-4.2 7.03 0 7.01h2.76l21.02-.19 8.36-.05c2.84-.02 2.77-4.2 1.37-5.6-4.21-2.76-7.04-4.15-5.68-11.14l13.62-53.23c4.09-11.21 9.65-25.22 13.87-25.24 5.56-.05 4.24 8.34 12.62 8.33 9.82-.11 16.76-8.52 16.68-14.14" fill="#fff"/><path clip-path="url(#a)" d="m622.27 457.86 17.73-74.2 4.04-12.65c1.35-5.57 2.75-11.17-2.84-9.74-5.56 1.43-25.12 7.16-27.93 7.16-4.2 1.41-4.17 5.62-1.33 5.62 2.76 1.36 8.33 2.75 5.65 9.75l-17.71 74.23s-1.36 4.22-1.36 5.61c-1.37 2.79-1.37 4.22-5.56 4.24-4.17 1.41-4.17 7.01.07 6.97h2.72l22.42-.16 7.01-.03c2.75 0 2.75-4.27 1.38-5.6-4.22-2.81-7.09-4.18-4.29-11.2" fill="#fff"/></g></svg>