<svg version="1.1" id="svg855" xmlns:x="ns_extend;" xmlns:i="ns_ai;" xmlns:graph="ns_graphs;" xmlns:cc="http://creativecommons.org/ns#" xmlns:dc="http://purl.org/dc/elements/1.1/" xmlns:inkscape="http://www.inkscape.org/namespaces/inkscape" xmlns:rdf="http://www.w3.org/1999/02/22-rdf-syntax-ns#" xmlns:sodipodi="http://sodipodi.sourceforge.net/DTD/sodipodi-0.dtd" xmlns="http://www.w3.org/2000/svg" xmlns:xlink="http://www.w3.org/1999/xlink" x="0px" y="0px" viewBox="0 0 467 85" style="enable-background:new 0 0 467 85;" xml:space="preserve"><style type="text/css"> .st0{fill:#F62B54;} .st1{fill:#FFCC00;} .st2{fill:#00CA72;} .st3{fill:#FFFFFF;} .st4{fill-rule:evenodd;clip-rule:evenodd;fill:#FFFFFF;} </style><metadata id="metadata861"><rdf:RDF><cc:Work rdf:about=""><dc:format> image/svg+xml </dc:format><dc:type rdf:resource="http://purl.org/dc/dcmitype/StillImage"></dc:type></cc:Work></rdf:RDF><sfw xmlns="ns_sfw;"><slices></slices><sliceSourceBounds bottomLeftOrigin="true" height="85" width="467" x="0" y="0"></sliceSourceBounds></sfw></metadata><g id="g853" transform="matrix(3.6956523,0,0,3.6956523,-3.7266276e-4,-19.226192)"><g id="g847" transform="translate(0,5.552)"><path id="path841" class="st0" d="M2.6,17.8c-0.9,0-1.8-0.5-2.3-1.3c-0.5-0.8-0.4-1.8,0.1-2.6 l4.7-7.4c0.5-0.8,1.4-1.3,2.3-1.3c0.9,0,1.8,0.6,2.3,1.4c0.4,0.8,0.4,1.8-0.1,2.6l-4.7,7.4C4.4,17.4,3.5,17.8,2.6,17.8z"></path><path id="path843" class="st1" d="M10.7,17.8c-1,0-1.8-0.5-2.3-1.3C8,15.7,8,14.7,8.5,13.9 l4.7-7.4c0.5-0.8,1.4-1.3,2.3-1.3c1,0,1.8,0.6,2.3,1.4c0.4,0.8,0.4,1.8-0.2,2.6l-4.7,7.4C12.4,17.4,11.6,17.8,10.7,17.8z"></path><ellipse id="ellipse845" class="st2" cx="18.6" cy="15.5" rx="2.4" ry="2.4"></ellipse></g><path id="path849" class="st3" d="M124.2,18.8c0.7,0,1.2,0.5,1.2,1.4v2.9h1v-3 c0-1.5-0.7-2.3-2-2.3c-0.5,0-1.3,0.1-1.8,1.1c-0.2-0.6-0.7-0.9-1.3-1c-0.2,0-0.4,0-0.6,0c-0.4,0-1.1,0.3-1.4,0.9v-0.8h-1v5.2h1 v-2.8c0-1.1,0.7-1.5,1.4-1.5c0.7,0,1.1,0.5,1.1,1.4v2.9h1v-2.8C122.8,19.5,123.3,18.8,124.2,18.8L124.2,18.8z M114.6,22.3 c0.5,0,0.9-0.2,1.2-0.5c0.3-0.3,0.5-0.8,0.5-1.2c0-1-0.8-1.7-1.7-1.7c-0.9,0-1.7,0.7-1.7,1.7c0,0.5,0.2,0.9,0.5,1.2 C113.7,22.1,114.2,22.3,114.6,22.3L114.6,22.3z M114.6,23.2c-1.5,0-2.7-1.1-2.7-2.7c0-1.6,1.2-2.7,2.7-2.7s2.7,1,2.7,2.7 C117.3,22.2,116.1,23.2,114.6,23.2L114.6,23.2z M106.8,20.5L106.8,20.5c0-1.6,1.2-2.7,2.7-2.7c0.7,0,1.5,0.3,2,0.8l-0.8,0.6 c-0.3-0.3-0.8-0.5-1.2-0.5c-0.9,0-1.7,0.7-1.7,1.7c0,0.7,0.4,1.3,1.1,1.6s1.4,0.1,1.9-0.4l0.8,0.6c-0.5,0.5-1.2,0.9-2,0.8 C108.1,23.2,106.8,22.2,106.8,20.5L106.8,20.5z M103.6,22.1c0-0.4,0.3-0.7,0.7-0.7c0,0,0,0,0,0c0.4,0,0.7,0.3,0.7,0.7c0,0,0,0,0,0 c0,0.4-0.3,0.7-0.7,0.7C104,22.8,103.7,22.5,103.6,22.1z"></path><path id="path851" class="st4" d="M106.4,11.4h-3.6l-2.5,6.4l-2.5-6.4h-3.6l4.3,10.1l-2.7,6.7 h3.5L106.4,11.4z M84.8,17c0,1.6,1.4,2.7,2.8,2.7c1.4,0,2.7-1,2.7-2.7s-1.3-2.7-2.7-2.7C86.2,14.3,84.8,15.4,84.8,17L84.8,17z M90.3,22.7v-1.3c-0.7,1.1-2.4,1.5-3.3,1.5c-2.9,0-5.7-2.2-5.7-5.9c0-3.6,2.9-5.9,5.7-5.9c0.7,0,2.4,0.2,3.3,1.5v-1.3h3.3v11.3 L90.3,22.7L90.3,22.7z M80.4,22.7h-3.3v-1.4c-0.6,1-1.9,1.6-3.3,1.6c-2.9,0-5.4-2.3-5.4-5.9c0-3.6,2.5-5.9,5.4-5.9 c1.4,0,2.7,0.6,3.3,1.6V5.2h3.3V22.7z M77,17c0-1.7-1.2-2.7-2.6-2.7c-1.4,0-2.6,1.1-2.6,2.7c0,1.7,1.2,2.7,2.6,2.7 C75.8,19.7,77,18.6,77,17L77,17z M60.2,16.7c0-1.7,0.9-2.3,2.1-2.3c1.1,0,1.9,0.8,1.9,2.2v6h3.3v-6.8c0-3.2-1.6-4.8-4.1-4.8 c-1.3,0-2.6,0.8-3.2,1.9v-1.6h-3.3v11.3h3.3L60.2,16.7z M50.1,22.9c-3.2,0-5.8-2.3-5.8-5.9c0-3.6,2.6-5.9,5.8-5.9s5.8,2.3,5.8,5.9 S53.2,22.9,50.1,22.9L50.1,22.9z M50.1,19.6c1.4,0,2.5-1,2.5-2.6c0-1.5-1.2-2.6-2.5-2.6c-0.7,0-1.3,0.3-1.8,0.7 c-0.5,0.5-0.7,1.1-0.7,1.8C47.6,18.5,48.7,19.6,50.1,19.6z M38.3,14.4c1,0,1.8,0.8,1.8,2.2v6h3.3v-6.4c0-3.4-1.7-5.1-4.3-5.1 c-0.8,0-2.3,0.2-3.4,2c-0.6-1.3-1.8-2-3.6-2c-1.3,0-2.4,0.7-2.9,1.9v-1.6h-3.3v11.3h3.3v-6c0-1.7,0.9-2.3,1.9-2.3 c1,0,1.8,0.8,1.8,2.2v6.1h3.3v-6C36.4,15,37.2,14.4,38.3,14.4L38.3,14.4z"></path></g></svg>
