<svg width="655" height="264" viewBox="0 0 655 264" fill="none" xmlns="http://www.w3.org/2000/svg">
<path d="M88.0395 181C78 181 69.8182 179.402 63.4941 176.205C57.17 173.008 52.2292 168.957 48.6719 164.05C45.1937 159.144 42.7036 154.052 41.2016 148.773C39.6996 143.421 38.7905 138.552 38.4743 134.165C38.1581 129.779 38 126.583 38 124.576V57H70.7273V113.871C70.7273 116.621 70.8854 120.152 71.2016 124.464C71.5178 128.701 72.5059 132.976 74.166 137.288C75.8261 141.6 78.5138 145.205 82.2292 148.104C86.0237 151.004 91.3597 152.453 98.2372 152.453C101.004 152.453 103.968 152.044 107.13 151.227C110.292 150.409 113.257 148.848 116.024 146.543C118.791 144.164 121.043 140.707 122.783 136.173C124.601 131.564 125.51 125.542 125.51 118.108L144.008 126.36C144.008 135.875 141.953 144.796 137.842 153.122C133.731 161.448 127.526 168.176 119.225 173.306C111.004 178.435 100.609 181 88.0395 181Z" fill="black"/>
<path d="M129.541 180V137.511H125.51V57H158V180H129.541Z" fill="black"/>
<path d="M392.04 181C382 181 373.818 179.402 367.494 176.205C361.17 173.008 356.229 168.957 352.672 164.05C349.194 159.144 346.704 154.052 345.202 148.773C343.7 143.421 342.791 138.552 342.474 134.165C342.158 129.779 342 126.583 342 124.576V57H374.727V113.871C374.727 116.621 374.885 120.152 375.202 124.464C375.518 128.701 376.506 132.976 378.166 137.288C379.826 141.6 382.514 145.205 386.229 148.104C390.024 151.004 395.36 152.453 402.237 152.453C405.004 152.453 407.968 152.044 411.13 151.227C414.292 150.409 417.257 148.848 420.024 146.543C422.791 144.164 425.043 140.707 426.783 136.173C428.601 131.564 429.51 125.542 429.51 118.108L448.008 126.36C448.008 135.875 445.953 144.796 441.842 153.122C437.731 161.448 431.526 168.176 423.225 173.306C415.004 178.435 404.609 181 392.04 181ZM433.541 180V137.511H429.51V57H462V180H433.541Z" fill="black"/>
<path d="M216.104 56.9988L176.118 56.9988L227.782 118.44L176.148 179.986H216.154L267.833 118.455L216.104 56.9988Z" fill="#FE4200"/>
<path d="M271.653 122.998L303.357 160.702L303.397 160.645L319.645 179.937L279.491 179.937L251.617 146.787L271.653 122.998Z" fill="#FE4200"/>
<path d="M271.667 113.895L251.592 90.0588L308.618 22.0001H348.604L271.667 113.895Z" fill="#FE4200"/>
<path d="M581.468 56.96H617L540.432 242H503.899L581.468 56.96Z" fill="black"/>
<path d="M544.317 130.941L513.408 56.96H477.376L526.442 173.246L544.317 130.941Z" fill="black"/>
</svg>
