<svg
  xmlns="http://www.w3.org/2000/svg"
  viewBox="148 164 65 65"
>
  <path
    fill="#1867ac"
    d="M176.4,203.8v-16.1c0-7.3,6-13.3,13.3-13.3h13.6c-5.7-5.8-13.5-9.4-22.3-9.4c-17.2,0-31.2,13.9-31.2,31.2 c0,4.5,0.9,8.7,2.6,12.5h19C174.3,208.6,176.4,206.5,176.4,203.8z"
  />
  <path
    fill="#0083dd"
    d="M209.6,183.7h-19.9c-2.2,0-4,1.8-4,4v16.1c0,7.8-6.4,14.2-14.2,14.2h-12.7c5.7,5.8,13.5,9.3,22.2,9.3 c17.2,0,31.2-13.9,31.2-31.2C212.2,191.7,211.3,187.5,209.6,183.7z"
  />
  <path
    fill="transparent"
    d="M185.7,203.8v-16.1c0-2.2,1.8-4,4-4h19.9c-0.2-0.6-0.5-1.1-0.8-1.7c-1.1-2.1-2.4-4.2-4-6 c-0.5-0.6-1-1.1-1.5-1.7h-13.6c-7.3,0-13.3,6-13.3,13.3v16.1c0,2.7-2.2,4.9-4.9,4.9h-19c0.2,0.6,0.5,1.1,0.8,1.7 c1.1,2.2,2.4,4.2,4,6c0.5,0.6,1,1.1,1.5,1.7h12.7C179.4,217.9,185.7,211.6,185.7,203.8z"
  />
</svg>
