<svg xmlns="http://www.w3.org/2000/svg" width="1510" height="1515" viewBox="0 0 1510 1515"><title>PNJ</title><defs><linearGradient id="a" x2="1" gradientTransform="rotate(-12 3591 85)scale(1416.009 450.763)" gradientUnits="userSpaceOnUse"><stop offset="0" stop-color="#fff"/><stop offset="0" stop-color="#fff"/><stop offset=".5" stop-color="#e7d1a2"/><stop offset=".6" stop-color="#d8b273"/><stop offset="1" stop-color="#4d3d21"/></linearGradient><linearGradient id="b" x2="1" gradientTransform="matrix(937.185 0 0 382.541 169 400)" gradientUnits="userSpaceOnUse"><stop offset="0" stop-color="#fff"/><stop offset="0" stop-color="#fff"/><stop offset=".5" stop-color="#e7d1a2"/><stop offset=".6" stop-color="#d8b273"/><stop offset="1" stop-color="#4d3d21"/></linearGradient><linearGradient id="c" x2="1" gradientTransform="matrix(1348.662 0 0 465.997 1 901)" gradientUnits="userSpaceOnUse"><stop offset="0" stop-color="#fff"/><stop offset="0" stop-color="#fff"/><stop offset=".5" stop-color="#e7d1a2"/><stop offset=".6" stop-color="#d8b273"/><stop offset="1" stop-color="#4d3d21"/></linearGradient><linearGradient id="d" x2="1" gradientTransform="matrix(907.401 0 0 703.752 101 1162)" gradientUnits="userSpaceOnUse"><stop offset="0" stop-color="#fff"/><stop offset="0" stop-color="#fff"/><stop offset=".5" stop-color="#e7d1a2"/><stop offset=".6" stop-color="#d8b273"/><stop offset="1" stop-color="#4d3d21"/></linearGradient><linearGradient id="e" x2="1" gradientTransform="matrix(536.189 0 0 381.551 377 192)" gradientUnits="userSpaceOnUse"><stop offset="0" stop-color="#fff"/><stop offset="0" stop-color="#fff"/><stop offset=".5" stop-color="#e7d1a2"/><stop offset=".6" stop-color="#d8b273"/><stop offset="1" stop-color="#4d3d21"/></linearGradient></defs><path d="M52 708c821-230 1355-5 1458 47l-230-229-63-62q-112-29-232-28C534 436 54 705 52 708" style="fill:url(#a)"/><path d="M169 592c538-286 849-257 938-242L977 221l-10-8q-27-3-53-3c-318 0-745 382-745 382" style="fill:url(#b)"/><path d="M0 758s874-76 1135 377l215-214c-44-55-231-253-714-253-173 0-381 24-636 90" style="fill:url(#c)"/><path d="M101 812c2 0 531 87 656 702l252-253c-27-49-261-450-835-450z" style="fill:url(#d)"/><path d="m408 350-32 32s343-258 536-225L757 1z" style="fill:url(#e)"/></svg>