<svg id="Layer_1" data-name="Layer 1" xmlns="http://www.w3.org/2000/svg" viewBox="0 0 190 57.649"><defs><style>.cls-1{fill:#ee3124;}.cls-2{fill:#db202e;}.cls-3{fill:#f37021;}</style></defs><path class="cls-1" d="M94.035,7.272"/><path class="cls-2" d="M36.968,28.346"/><path class="cls-1" d="M36.968,25.662"/><path class="cls-1" d="M84.2,18.882H81.107s0,2.228.05,3.036c.3,4.839,9.166,4.873,9.924-.126L94.8,21.8c-.659,4.383-5.884,6.554-10.658,6.554A10.426,10.426,0,0,1,73.454,17.625c0-6.024,4.471-11.161,10.734-11.161l-.025,2.626c-2.9,0-2.853,3.384-2.853,3.384l-.126,3.661H84.2Z"/><path class="cls-1" d="M171.481,13.484"/><path class="cls-1" d="M181.986,13.484"/><path class="cls-1" d="M36.842,28.35c-3.925,0-11.223-1.735-11.223-10.851,0-8.257,7.3-11,11.223-11V9.182c-2.5,0-2.92,3.322-2.92,8.292s.8,8.223,2.92,8.223Z"/><path class="cls-1" d="M94.992,18.882a15.451,15.451,0,0,0-.071-1.559A10.613,10.613,0,0,0,84.137,6.465l-.025,2.626c2.55,0,2.626,3.434,2.626,3.434l.1,3.611h-2.7v2.746h10.8"/><rect class="cls-1" x="167.618" width="7.727" height="27.373"/><rect class="cls-1" x="178.122" width="7.727" height="27.373"/><path class="cls-1" d="M36.842,25.7c2.348,0,2.819-3.253,2.819-8.223s-.471-8.292-2.819-8.292V6.5c3.925,0,11.211,2.543,11.222,10.952.011,8.613-7.3,10.9-11.222,10.9Z"/><polygon class="cls-1" points="0 0 8.383 0 8.383 11.262 14.898 11.262 14.898 0 23.736 0 23.736 27.373 14.898 27.373 14.898 15.302 8.434 15.302 8.434 27.423 0 27.423 0 0"/><path class="cls-1" d="M50.5,27.373V7.222h7.626V9.166a10.838,10.838,0,0,1,6.111-2.3c3.111,0,6.01,2.146,6.6,4.612a5.5,5.5,0,0,1,.163,1.424V27.373H63.482V14.09s.277-3-2.02-2.879A4.1,4.1,0,0,0,58.128,12.9V27.373Z"/><path class="cls-1" d="M93.025,30.63A4.246,4.246,0,0,0,97.47,35.1a6.988,6.988,0,0,0,6.338-3.763c.776-1.756,9.621-24.064,9.621-24.064l5.858,20.15H125.6l3.233-12.07,3.838,12.07h6.01l5.151-20.15h-3.485l-2.778,10.555L133.983,7.272h-6.211L124.64,18.13,121.459,7.272h-11.01l-3.888,9.7-3.687-9.7H94.035s8.174,18.687,8.131,20.1a5.654,5.654,0,0,1-2.979,4.949h.027a3.647,3.647,0,0,0,.552-1.845,3.357,3.357,0,0,0-3.357-3.357,3.453,3.453,0,0,0-3.382,3.534Z"/><path class="cls-1" d="M165.8,18.882a15.453,15.453,0,0,0-.071-1.559A10.614,10.614,0,0,0,154.942,6.465l-.026,2.626c2.551,0,2.626,3.434,2.626,3.434l.1,3.611h-2.7v2.746h10.8"/><path class="cls-1" d="M155.026,18.882h-3.114s0,2.228.05,3.036c.3,4.839,9.167,4.873,9.924-.126l3.714.011c-.659,4.383-5.884,6.554-10.658,6.554a10.426,10.426,0,0,1-10.684-10.732c0-6.024,4.472-11.161,10.734-11.161l-.026,2.626c-2.9,0-2.853,3.384-2.853,3.384l-.126,3.661h3.039Z"/><polygon points="65.612 39.112 65.612 55.749 55.936 55.749 55.936 57.637 80.029 57.637 80.029 54.015 72.074 54.015 72.074 40.924 80.029 40.924 80.029 37.3 75.374 37.3 75.374 39.112 65.612 39.112"/><polygon class="cls-3" points="51.169 37.296 51.169 41.315 59.135 41.315 59.135 53.631 51.169 53.631 51.169 57.649 55.961 57.649 55.961 55.805 65.651 55.805 65.651 39.547 75.426 39.547 75.426 37.296 51.169 37.296"/><path d="M87.056,50.94h-2V46.677c0-1.2-.592-1.812-2.551-1.812-1.139,0-3.143.422-3.143,2.3V50.94h-2V44.018h1.89V45h.046a5.33,5.33,0,0,1,3.6-1.179c1.845,0,4.168.437,4.168,2.409Z"/><path d="M92.477,44.984v4.5c0,.542.8.542,1.207.542h.706v.914c-.729.039-1.3.093-1.5.093-1.981,0-2.414-.649-2.414-1.484V44.984H88.856v-.966h1.617V42.085h2v1.933H94.39v.966Z"/><path d="M106.46,48.768a3.3,3.3,0,0,1-2.118,1.893,7.983,7.983,0,0,1-3.234.477c-3.348,0-5.329-1.469-5.329-3.468,0-2.145,1.777-3.852,5.716-3.852,3.439,0,5.124,1.588,5.124,4.037h-8.7c0,1.442,1.162,2.276,3.462,2.276,1.89,0,3.006-.847,3.075-1.364Zm-1.913-1.839c-.114-1.071-.888-2.064-3.325-2.064-1.845,0-3.3.992-3.3,2.064Z"/><path d="M111.061,50.94h-2v-9.5h2Z"/><path d="M116.117,50.94h-2v-9.5h2Z"/><path d="M119.168,42.761V41.437h2v1.324Zm2,8.18h-2V44.018h2Z"/><path d="M134.062,50.37c0,.994-.023,3.482-5.534,3.482-1.412,0-4.168-.226-4.555-2.065h2c.364,1.1,2.209,1.1,2.688,1.1,3.462,0,3.393-1.615,3.393-2.435v-.291h-.045v.052a4.668,4.668,0,0,1-3.166.927c-4.054,0-5.238-2.209-5.238-3.865,0-1.945,1.8-3.454,4.965-3.454A4.9,4.9,0,0,1,132.127,45h.045v-.98h1.89Zm-5.17-.239c1.276,0,3.257-.489,3.257-2.33,0-1.125-.318-2.937-3.211-2.937-3.1,0-3.256,1.707-3.256,2.593C125.681,48.981,126.706,50.132,128.892,50.132Z"/><path d="M138.9,50.94h-2V44.018h1.89v1.151h.045a4.458,4.458,0,0,1,3.347-1.35,2.772,2.772,0,0,1,.525.04v1.2h-.753c-1.866,0-3.051.846-3.051,1.853Z"/><path d="M143.911,46.122c.091-1.655,1.981-2.3,4.919-2.3.956,0,4.418.159,4.418,1.932v3.985c0,.291.251.411.66.411a6.17,6.17,0,0,0,.66-.055v.849a6.021,6.021,0,0,1-1.093.133c-1.777,0-2.05-.531-2.118-1.062a7.372,7.372,0,0,1-4.3,1.127c-2.187,0-3.735-.807-3.735-2,0-.583.3-1.932,3.621-2.171l3.3-.239c.478-.028,1.048-.131,1.048-.821,0-.728-.912-1.124-2.8-1.124-2.278,0-2.6.807-2.732,1.336Zm7.333,1.284a11.706,11.706,0,0,1-3.3.437c-.978.08-2.55.252-2.55,1.125,0,.753.66,1.2,2.164,1.2,1.867,0,3.689-.7,3.689-1.628Z"/><path d="M159.1,44.984v4.5c0,.542.8.542,1.208.542h.706v.914c-.729.039-1.3.093-1.5.093-1.981,0-2.414-.649-2.414-1.484V44.984H155.48v-.966H157.1V42.085h2v1.933h1.913v.966Z"/><path d="M173.086,48.768a3.3,3.3,0,0,1-2.118,1.893,7.984,7.984,0,0,1-3.234.477c-3.348,0-5.329-1.469-5.329-3.468,0-2.145,1.776-3.852,5.716-3.852,3.439,0,5.125,1.588,5.125,4.037h-8.7c0,1.442,1.162,2.276,3.462,2.276,1.89,0,3.005-.847,3.074-1.364Zm-1.913-1.839c-.113-1.071-.888-2.064-3.326-2.064-1.845,0-3.3.992-3.3,2.064Z"/><path d="M185.521,50.94H183.63v-.953h-.045a4.536,4.536,0,0,1-3.393,1.151c-4.053,0-5.238-2.209-5.238-3.865,0-1.945,1.8-3.454,4.964-3.454A4.892,4.892,0,0,1,183.47,45l.046-.093V41.437h2Zm-5.285-.808c1.276,0,3.257-.489,3.257-2.33,0-1.125-.319-2.937-3.211-2.937-3.1,0-3.256,1.707-3.256,2.593C177.026,48.981,178.051,50.132,180.236,50.132Z"/><path d="M186.657,40.707a1.671,1.671,0,1,1,1.672,1.672A1.674,1.674,0,0,1,186.657,40.707Zm2.936,0a1.266,1.266,0,1,0-1.264,1.348A1.284,1.284,0,0,0,189.594,40.707Zm-1.907-.954h.7c.454,0,.7.158.7.556a.472.472,0,0,1-.5.509l.511.829h-.362l-.49-.816h-.213v.816h-.352Zm.352.81h.31c.208,0,.388-.028.388-.282,0-.223-.2-.259-.384-.259h-.314Z"/></svg>
