<svg viewBox="0 0 109 109" xmlns="http://www.w3.org/2000/svg" xmlns:xlink="http://www.w3.org/1999/xlink">
 <defs>
  <path id="a" d="M0 .19h108.556v108.557H0z">
  </path>
 </defs>
 <g fill="none" fill-rule="evenodd">
  <g transform="translate(.123 .216)">
   <mask id="b" fill="#fff">
    <use href="#a">
    </use>
   </mask>
   <path d="M108.556 54.47c0 29.976-24.302 54.277-54.277 54.277C24.302 108.747 0 84.447 0 54.47 0 24.492 24.302.19 54.28.19c29.975 0 54.277 24.302 54.277 54.28" fill="#FFF" mask="url(#b)">
   </path>
  </g>
  <path d="M105.348 54.687c0 28.136-22.81 50.945-50.946 50.945-28.137 0-50.947-22.81-50.947-50.945 0-28.138 22.81-50.949 50.947-50.949 28.136 0 50.946 22.81 50.946 50.949" fill="#FFF">
  </path>
  <path d="M89.088 54.687c0 19.156-15.53 34.685-34.686 34.685-19.157 0-34.687-15.53-34.687-34.685 0-19.158 15.53-34.688 34.687-34.688 19.156 0 34.686 15.53 34.686 34.688" fill="#D02C2F">
  </path>
  <path d="M73.211 47.127c1.535 3.829 2.225 8.269 2.256 12.382 0 0-.018.78 1.474.803.656-.014 1.23-.352 1.45-.5 1.157-.811 2.22-2.486 2.233-5.271v-.006l-.001-.038c0-.122-.003-.241-.005-.361-.094-3.846-1.57-6.94-2.397-8.381-.184-.321-.337-.561-.435-.707-.052-.079-.105-.154-.16-.233a32.49 32.49 0 0 0-6.953-7.039c-.363.859-.91 1.742-1.678 2.634 1.75 2 3.173 4.119 4.216 6.717M69.15 48.083c-.177-9.506-7.937-17.158-17.485-17.158h-.036a17.553 17.553 0 0 0-6.681 1.288c-.016.007-.034.011-.05.019a17.599 17.599 0 0 0-6.163 4.244l-.01.012a17.478 17.478 0 0 0-2.64 3.657c-.023.042-.048.084-.071.13a.322.322 0 0 0-.022.046c-.341.69-2.028 4.313-2.012 9.06 0 0-.12 3.133 1.911 6.705a13.775 13.775 0 0 0 1.903 2.665l.046.052c.072.078.147.154.221.23 1.445 1.55 3.302 2.508 5.22 4.326.22.213.445.435.657.625.456.375.683.558 1.224.85a.03.03 0 0 0 .014.01l.002.001v.003l.091.047a8.19 8.19 0 0 0 .88.394c.942.36 2.02.576 3.17.607.114.003.228.003.34.003 2.953 0 5.403-1.42 7.85-2.776a68.268 68.268 0 0 1 2.516-1.311 46.174 46.174 0 0 0 1.633-.82l1.065-.633c7.068-4.289 6.426-12.276 6.426-12.276" fill="#FFF">
  </path>
  <path d="M36.086 40.145c.719-1.33 1.608-2.56 2.64-3.657.003-.004.006-.009.01-.012a17.601 17.601 0 0 1 6.162-4.244c.016-.008.034-.012.05-.02l.003-.003c-.74-1.644-2.247-3.424-4.595-3.778-4.801-.72-11.252 5.05-4.371 11.894l.007-.004a.355.355 0 0 1 .022-.047c.023-.045.048-.087.072-.13M82.325 58.707v-.01l.002-.002a24.51 24.51 0 0 0-.037-1.096 23.971 23.971 0 0 0-.16-1.778l-.003-.014c-.026-.204-.056-.41-.09-.612-.052-.337-.11-.669-.174-.99-.202-.97-.465-1.901-.774-2.794-.77-2.224-1.836-4.209-3.004-5.94-.122-.177-.246-.353-.368-.525l.076.112c.099.147.247.382.428.697.827 1.441 2.303 4.534 2.397 8.38.002.12.005.24.005.362l.001.038v.006c-.014 2.785-1.076 4.46-2.234 5.27-.219.149-.793.487-1.449.5-1.492-.023-1.474-.802-1.474-.802-.031-4.113-.721-8.553-2.256-12.382-1.043-2.598-2.466-4.717-4.216-6.717.768-.892 1.315-1.775 1.678-2.634 2.267-5.368-2.735-9.535-6.86-9.056-1.826.213-3.818 1.804-5.103 3.683 6.055 2.667 10.309 8.67 10.44 15.68 0 0 .64 7.987-6.427 12.276a8.265 8.265 0 0 0-.202.127l-.08.05-.246.147-.03.018-.256.15-.01.004c-.08.048-.162.093-.241.138a.378.378 0 0 1-.035.018l-.013.008a.088.088 0 0 0-.025.013l-.013.007-.025.013-.014.007a.376.376 0 0 1-.026.013l-.014.008a.269.269 0 0 1-.028.014c-.005.003-.008.006-.012.007l-.084.044a.038.038 0 0 1-.013.005.33.33 0 0 1-.032.017l-.014.008a.502.502 0 0 0-.046.024l-.032.016-.014.006-.037.02a.035.035 0 0 0-.009.004c-.03.017-.063.033-.097.05l-.01.005a.933.933 0 0 0-.038.019l-.015.006a.61.61 0 0 1-.05.026c-.012.006-.025.012-.038.02l-.012.006-.046.022-.004.003-.107.052-.006.004c-.015.006-.03.015-.046.022l-.011.005a.908.908 0 0 1-.041.02l-.014.007-.041.02-.012.006-.048.025-.005.001-.11.054-.006.003-.047.023c-.005.001-.01.005-.013.007a.443.443 0 0 1-.041.02.158.158 0 0 0-.014.008l-.041.018a.608.608 0 0 1-.067.033c-.018.009-.037.017-.054.027h-.001l-.052.025a.145.145 0 0 1-.019.008c-.01.007-.021.011-.032.017-.004 0-.005.003-.009.005-.758.377-1.713.866-2.516 1.311-2.448 1.355-4.897 2.776-7.85 2.776h-.244l-.095-.003a9.637 9.637 0 0 1-3.171-.607 8.306 8.306 0 0 1-.421-.172 6.84 6.84 0 0 1-.459-.222l-.09-.047v-.003l-.003-.001a.03.03 0 0 1-.015-.01c-.54-.292-.768-.475-1.223-.85-.212-.19-.438-.412-.656-.625-1.919-1.819-3.777-2.776-5.22-4.326-.075-.076-.15-.152-.222-.23l-.046-.052a25.127 25.127 0 0 1-.256-.29 9.655 9.655 0 0 1-.244-.286l-.003-.006a8.163 8.163 0 0 1-.244-.31l-.072-.093-.022-.028c-.018-.022-.033-.046-.051-.07l-.021-.03a2.446 2.446 0 0 1-.06-.082l-.011-.014-.07-.097-.017-.025a6.77 6.77 0 0 1-.053-.075l-.02-.03a5.103 5.103 0 0 1-.056-.08l-.013-.02-.067-.1c-.005-.005-.006-.01-.01-.015-.02-.029-.039-.058-.057-.088a.463.463 0 0 1-.018-.026c-.018-.027-.035-.055-.054-.082a.127.127 0 0 1-.012-.022c-.045-.068-.089-.14-.133-.21l-.012-.021-.053-.089-.013-.019-.127-.218-.01-.016-.053-.095-.01-.02a15.437 15.437 0 0 1-.588-1.119c-.708 1.123-1.1 2.068-1.597 3.594-1.045 3.184-1.55 6.972-.892 10.317.791 4.064 2.375 7.808 5.406 10.542 1.972 1.777 4.268 2.864 6.942 3.236 2.405.343 4.617-1.077 4.617-3.658 0-1.854-1.537-3.635-1.687-5.457-.224-2.642 1.39-5.01 4.118-4.742 1.338.13 2.9 1.075 3.124 3.031.179 1.585-.07 2.495-.927 4.062-.97 1.773-2.067 3.187-2.02 4.812l-.005-.001s0 .052.008.14c0 .02.004.04.005.061.006.05.012.11.022.175.006.042.007.084.016.126.008.048.024.095.034.144.01.049.02.099.035.152.012.043.02.086.034.126.279.975 1.057 2.46 3.265 2.91.606.123 1.638.178 2.447.119 3.024-.218 9.433-1.623 14.147-10.53 0 0 9.871.75 9.871-15.539l-.002.012" fill="#0C1A22">
  </path>
  <path d="M51.929 61.078c-.889.778-2.374.538-2.688 1.627a.362.362 0 0 1-.031.088.564.564 0 0 1-1.018.025.588.588 0 0 1-.057-.164c-.25-1.168-1.568-.952-2.385-1.908 0 0 .008.006 0 0a.58.58 0 0 1-.135-.368.57.57 0 0 1 .571-.569h.044c.622.028.691.237 2.653.323 1.965.088 2.125-.096 2.74-.066a.563.563 0 0 1 .306 1.012M59.482 51.52c-.658-3.758-3.316-5.192-5.302-4.402-1.391.552-2.642 2.612-1.118 5.304.904 1.599 1.33 2.427 1.555 3.324.093.379.225.702.417.965l.027.035c.084.11.18.21.29.292.212.174.523.352.911.362h.036c1.097-.011 3.819-2.277 3.184-5.88M44.646 46.677c-1.851-.882-4.481.322-5.351 3.872-.85 3.47 1.72 5.832 2.732 5.827.859 0 1.253-.658 1.253-.658.169-.227.298-.502.4-.82.27-.844.73-1.608 1.698-3.08 1.626-2.476.562-4.524-.732-5.14" fill="#0C1A22">
  </path>
  <path d="M42.294 52.244a.961.961 0 0 0 1.02-.895.975.975 0 0 0-.892-1.037.976.976 0 0 0-1.023.909.962.962 0 0 0 .895 1.023M55.875 53.037a.961.961 0 0 0 1.02-.896.973.973 0 0 0-.892-1.036.975.975 0 0 0-1.024.909.965.965 0 0 0 .896 1.023" fill="#FFF">
  </path>
  <path d="M89.706 91.014c-9.717 9.427-22.523 14.505-36.06 14.3-13.538-.205-26.186-5.67-35.613-15.388-9.426-9.717-14.505-22.523-14.3-36.061.206-13.538 5.671-26.185 15.388-35.61 9.718-9.428 22.524-14.506 36.062-14.3 13.537.205 26.184 5.67 35.61 15.387 9.429 9.717 14.507 22.523 14.3 36.06-.204 13.538-5.67 26.185-15.387 35.612m2.408-72.954C82.345 7.991 69.239 2.328 55.21 2.115c-14.03-.213-27.302 5.05-37.37 14.819C7.77 26.703 2.107 39.808 1.895 53.836c-.213 14.031 5.05 27.304 14.819 37.372 9.768 10.07 22.873 15.732 36.903 15.945 14.028.214 27.3-5.05 37.37-14.818 10.07-9.771 15.733-22.878 15.945-36.905.214-14.027-5.049-27.3-14.818-37.37" fill="#D02C2F">
  </path>
  <path d="M97.033 57.609a1.46 1.46 0 0 0-1.46 1.456 1.457 1.457 0 1 0 1.46-1.457" fill="#D02C2F">
  </path>
  <path d="M14.699 74.174a4.593 4.593 0 0 1-.201-.106l-.048-.03a1.93 1.93 0 0 1-.136-.084l-.035-.025-.03-.021a1.678 1.678 0 0 1-.167-.134c-.031-.028-.063-.056-.091-.087a1.235 1.235 0 0 1-.14-.159l-.022-.026-.013-.017-.021-.026a2.423 2.423 0 0 1-.079-.124l-.02-.03-.02-.033a2.27 2.27 0 0 1-.108-.219c-.209-.477-.206-1 .006-1.474.212-.47.612-.853 1.127-1.078.295-.129.6-.194.905-.194.775 0 1.418.414 1.72 1.107.029.065.055.135.08.213l.01.036.008.03c.014.052.026.096.034.14a2.3 2.3 0 0 1 .01.057l.003.022c.007.046.014.09.018.132l.005.079c.003.045.003.088.003.147v.025l-.002.036c-.002.046-.006.09-.011.135l-.01.079a2.268 2.268 0 0 1-.029.17l-.007.04a2.94 2.94 0 0 1-.049.198.516.516 0 0 0 .337.637l.512.16a.528.528 0 0 0 .652-.345c.026-.086.047-.168.067-.253l.01-.044c.02-.086.035-.171.047-.258l.006-.042c.012-.092.02-.18.025-.271l.002-.026a3.125 3.125 0 0 0 0-.282l-.002-.024a3.463 3.463 0 0 0-.027-.291l-.007-.047a3.426 3.426 0 0 0-.059-.296l-.012-.053c-.025-.1-.055-.2-.09-.309l-.019-.048a4.564 4.564 0 0 0-.131-.338c-.574-1.315-1.796-2.133-3.19-2.133-.505 0-1.004.106-1.481.314-1.848.807-2.641 2.79-1.847 4.613.03.069.061.135.092.2l.034.062c.02.042.042.086.066.127l.04.068c.014.027.03.054.046.081l.015.024.046.071a7 7 0 0 0 .113.165l.066.088.05.061.07.083.051.057c.03.033.056.059.08.083l.045.046c.03.03.059.056.088.082l.043.04c.093.08.187.153.28.217l.044.03.1.066.042.025.117.07v-.001l.053.028.037.02.059.03.063.03c.021.012.047.024.072.035l.021.01.113.05a.49.49 0 0 0 .189.037c.207 0 .399-.13.476-.325l.171-.428a.535.535 0 0 0-.265-.675M23.455 79.305a.51.51 0 0 0-.08-.386l-.316-.46a.517.517 0 0 0-.716-.134l-1.774 1.217-1.47-2.144 1.774-1.217a.517.517 0 0 0 .133-.715l-.316-.46a.518.518 0 0 0-.429-.22.504.504 0 0 0-.286.086l-4.82 3.305a.516.516 0 0 0-.132.716l.315.46a.52.52 0 0 0 .716.134l1.804-1.238 1.47 2.144-1.805 1.237a.516.516 0 0 0-.133.716l.316.46a.513.513 0 0 0 .715.133l4.82-3.306a.507.507 0 0 0 .214-.328M25.949 82.033a.507.507 0 0 0-.137-.368l-.379-.41a.515.515 0 0 0-.378-.16.514.514 0 0 0-.35.132l-4.288 3.968a.516.516 0 0 0-.029.727l.38.409a.51.51 0 0 0 .726.029l4.29-3.968c.1-.094.16-.221.165-.36M32.063 87.38a.511.511 0 0 0-.19-.345l-.42-.338a.505.505 0 0 0-.318-.11c-.16 0-.31.071-.404.19l-2.177 2.71.08-4.65a.888.888 0 0 0-.303-.647l-.37-.297a.521.521 0 0 0-.723.08l-3.659 4.556a.516.516 0 0 0 .08.724l.42.336a.522.522 0 0 0 .724-.079l2.256-2.81-.082 4.813a.891.891 0 0 0 .303.647l.292.234a.517.517 0 0 0 .723-.08l3.658-4.557a.508.508 0 0 0 .11-.377M38.27 91.27a.511.511 0 0 0-.215-.696l-3.694-1.964a.524.524 0 0 0-.696.213l-2.743 5.16a.516.516 0 0 0 .212.696l3.737 1.985a.51.51 0 0 0 .696-.214l.206-.385a.516.516 0 0 0-.213-.696l-2.79-1.483.593-1.115 2.385 1.268a.527.527 0 0 0 .696-.212l.206-.388a.51.51 0 0 0 .037-.392.51.51 0 0 0-.25-.303l-2.385-1.268.566-1.067 2.75 1.461a.513.513 0 0 0 .695-.213l.207-.387ZM44.147 93.385l-.042-.05-.017-.022a5.418 5.418 0 0 0-.138-.165 1.743 1.743 0 0 0-.06-.065l-.02-.02a4.263 4.263 0 0 0-.134-.135c-.022-.022-.045-.042-.07-.065l-.023-.02a4.33 4.33 0 0 0-.14-.118l-.023-.017-.076-.06-.003-.002-.014-.01a4.324 4.324 0 0 0-.417-.264l-.02-.012-.088-.047a3.216 3.216 0 0 0-.202-.094l-.031-.015-.028-.012-.035-.016a4.72 4.72 0 0 0-.323-.12 3.058 3.058 0 0 0-.938-.155c-.975 0-1.728.523-2.014 1.4-.412 1.257.28 1.988 1.53 2.76 1.04.625 1.06.85.97 1.122-.096.294-.369.356-.58.356-.142 0-.298-.028-.462-.082a2.688 2.688 0 0 1-.282-.111l-.028-.013a2.519 2.519 0 0 1-.223-.12 1.956 1.956 0 0 1-.121-.078c-.024-.016-.043-.03-.061-.044l-.018-.013a3.274 3.274 0 0 1-.107-.086l-.066-.056a3.09 3.09 0 0 1-.12-.119c-.022-.02-.04-.038-.056-.055-.034-.038-.068-.08-.102-.12l-.022-.027a4.52 4.52 0 0 1-.153-.202l-.038-.052a.536.536 0 0 0-.439-.226.499.499 0 0 0-.265.074l-.411.256a.508.508 0 0 0-.188.664l.027.045.031.049.056.075.018.024.019.028a5.793 5.793 0 0 0 .202.25l.038.044a3.793 3.793 0 0 0 .422.41l.118.097c.058.044.116.086.173.126l.02.013.014.011c.03.021.061.043.092.063.062.04.127.078.191.114l.031.018.09.051c.074.038.147.073.22.106l.04.02.038.017.033.015c.126.053.239.096.347.13a3.34 3.34 0 0 0 1.033.176c.993 0 1.733-.525 2.032-1.44.34-1.044-.1-1.852-1.471-2.701-1.122-.689-1.123-.894-1.032-1.172.07-.213.262-.33.544-.33.123 0 .257.023.397.07.06.02.117.042.175.066.007.004.015.007.022.012l.032.014c.039.017.077.037.114.056l.062.036c.034.02.068.04.1.062l.03.02.04.027c.026.02.06.044.094.072a1.646 1.646 0 0 1 .157.133l.06.055c.036.034.075.074.113.115l.037.038c.044.049.09.104.135.16.102.126.252.199.412.199a.503.503 0 0 0 .305-.102l.381-.283a.521.521 0 0 0 .124-.706l-.018-.027ZM51.05 94.027l-4.142-.602a.517.517 0 0 0-.583.434l-.84 5.782a.514.514 0 0 0 .434.583l4.187.61a.516.516 0 0 0 .583-.435l.064-.434a.513.513 0 0 0-.435-.584l-3.126-.454.182-1.25 2.672.39c.025.002.049.005.073.005.253 0 .473-.19.51-.44l.063-.436a.516.516 0 0 0-.435-.582l-2.673-.388.174-1.195 3.08.447a.516.516 0 0 0 .583-.434l.064-.435a.511.511 0 0 0-.436-.582M66.132 92.94a.518.518 0 0 0-.634-.356l-.538.15a.513.513 0 0 0-.355.635l1.577 5.627a.515.515 0 0 0 .633.357l.538-.151a.516.516 0 0 0 .357-.634l-1.578-5.628ZM71.379 92.027l1.397-.598a.517.517 0 0 0 .27-.674l-.187-.438a.524.524 0 0 0-.675-.27l-4.262 1.822a.514.514 0 0 0-.27.676l.186.437a.526.526 0 0 0 .676.271l1.305-.557h.05l.059-.002 1.893 4.424a.512.512 0 0 0 .675.272l.52-.224a.51.51 0 0 0 .276-.282.51.51 0 0 0-.004-.393l-1.91-4.464ZM81.355 90.573l-.45-.1a.542.542 0 0 0-.622.372 3.908 3.908 0 0 1-.07.215l-.024.055c-.02.055-.04.103-.06.148l-.035.071-.01.016a1.697 1.697 0 0 1-.052.1l-.036.06c-.03.048-.054.083-.079.118-.02.027-.034.047-.05.066a2.058 2.058 0 0 1-.25.257l-.03.028-.02.017c-.075.06-.14.107-.204.149-.298.194-.64.297-.984.297-.672 0-1.315-.373-1.72-.999-.308-.474-.429-1.014-.34-1.52.087-.504.375-.936.81-1.22.066-.041.13-.078.196-.111l.016-.008.003-.001.019-.008.03-.015c.042-.018.087-.039.132-.056l.017-.006.038-.013.022-.007c.039-.013.082-.026.124-.038l.044-.01.034-.008c.04-.008.081-.017.123-.022l.024-.004a1.815 1.815 0 0 1 .19-.019l.037-.003.035-.001a1.67 1.67 0 0 1 .177.001h.045c.064.004.133.01.203.016a.512.512 0 0 0 .573-.437l.075-.53a.517.517 0 0 0-.431-.585l-.086-.01a2.05 2.05 0 0 0-.099-.01l-.219-.013c-.034-.002-.066-.002-.097-.002h-.033l-.194.005-.05.005-.061.005-.054.005-.166.023c-.052.008-.104.019-.156.03l-.066.015-.06.015-.054.014-.068.02-.024.007-.078.024-.036.013-.032.01-.107.04-.051.021-.021.009c-.035.013-.07.028-.104.044l-.073.033-.08.04-.028.014-.07.036a2.607 2.607 0 0 0-.099.054l-.022.012-.058.033c-.064.038-.125.075-.186.115-.83.538-1.386 1.342-1.567 2.263-.177.9.013 1.839.534 2.645.67 1.03 1.77 1.645 2.944 1.645.669 0 1.33-.2 1.91-.578.064-.04.125-.082.182-.123l.059-.044.108-.082.067-.054.043-.037.05-.042.061-.056c.03-.026.058-.053.085-.08l.059-.058.029-.03.047-.05.053-.059.06-.072.058-.07.035-.046.04-.056.033-.044.053-.08.023-.035.021-.033.026-.042.012-.02.052-.094c.028-.051.055-.103.08-.157l.023-.05.011-.026c.013-.027.025-.055.037-.084l.023-.06.04-.1.022-.066.012-.037.02-.06.022-.072.029-.101.03-.12a.512.512 0 0 0-.394-.607M84.25 81.533a.518.518 0 0 0-.37-.152.51.51 0 0 0-.359.141l-.4.39a.513.513 0 0 0-.01.727l1.5 1.542-1.865 1.813-1.499-1.543a.516.516 0 0 0-.37-.152.51.51 0 0 0-.358.142l-.4.39a.513.513 0 0 0-.01.727l4.074 4.19a.517.517 0 0 0 .727.011l.4-.39a.51.51 0 0 0 .156-.362.507.507 0 0 0-.147-.367l-1.523-1.567 1.864-1.813 1.525 1.569a.511.511 0 0 0 .727.01l.4-.388a.511.511 0 0 0 .011-.727l-4.074-4.191ZM93.039 78.857a.52.52 0 0 0-.718.116l-1.843 2.566-1.025-.736 1.575-2.193a.514.514 0 0 0-.118-.717l-.357-.257a.499.499 0 0 0-.295-.093.518.518 0 0 0-.422.21l-1.575 2.195-.841-.605-.003-.11h-.128l1.807-2.518a.515.515 0 0 0-.117-.717l-.357-.256a.503.503 0 0 0-.296-.094.516.516 0 0 0-.421.211l-2.441 3.4a.516.516 0 0 0 .117.718l4.746 3.407a.514.514 0 0 0 .717-.116l2.469-3.438a.504.504 0 0 0 .089-.383.512.512 0 0 0-.206-.335l-.357-.255ZM97.376 71.227l-5.3-2.464a.523.523 0 0 0-.684.25l-.228.489a.51.51 0 0 0-.016.394.504.504 0 0 0 .267.29l3.153 1.466-4.538 1.035a.879.879 0 0 0-.553.448l-.201.43a.51.51 0 0 0 .25.683l5.3 2.463a.516.516 0 0 0 .684-.249l.227-.49a.506.506 0 0 0 .016-.393.506.506 0 0 0-.267-.29l-3.269-1.52 4.695-1.07a.892.892 0 0 0 .554-.45l.158-.34a.509.509 0 0 0-.248-.682M60.856 96.665l1.8-2.431a.219.219 0 0 0 .03-.052.463.463 0 0 0 .07-.243.487.487 0 0 0-.487-.485h-.02l-.012.001-.019.001-.501.065a.99.99 0 0 0-.606.36l-2.097 2.898-.308-2.342a.517.517 0 0 0-.579-.443l-.552.073a.512.512 0 0 0-.442.577l.763 5.795a.515.515 0 0 0 .582.441l.55-.072a.513.513 0 0 0 .441-.578l-.193-1.469.64-.858 2.159 2.183a.888.888 0 0 0 .672.232l.557-.074a.287.287 0 0 0 .085-.025.48.48 0 0 0 .214-.788l-2.747-2.766ZM12.426 44.215l-.355 1.672-2.286-.485.355-1.67c.18-.844.582-1.326 1.132-1.36.101-.005.208.004.318.028l.022.005c.332.07.585.274.733.59.153.329.181.75.081 1.22m3.492 4.425a.462.462 0 0 0 .424-.365l.206-.967a.456.456 0 0 0-.064-.345.455.455 0 0 0-.291-.2l-2.295-.488.355-1.67c.194-.916.118-1.808-.215-2.511-.387-.82-1.1-1.36-2.061-1.565l-.022-.005a3.122 3.122 0 0 0-.832-.066c-1.392.082-2.443 1.16-2.81 2.884l-.856 4.036c-.021.096-.036.221.037.334.076.117.222.191.49.248.1.022.201.03.301.023.522-.03.905-.423 1.067-.722l6.444 1.37c.041.008.08.01.122.009M17.127 35.118l-1.055 2.147-1.86-2.247 2.915.1Zm4.629-1.668a.448.448 0 0 0-.383-.213c-.085 0-8.35-.121-8.887-.124v-.002a.668.668 0 0 0-.575.354l-.333.679a.669.669 0 0 0 .07.672c.015.017.375.472.906 1.14l4.62 5.818c.1.128.247.191.404.176a.471.471 0 0 0 .364-.25l.466-.948a.68.68 0 0 0-.074-.674l-.954-1.195 1.827-3.718 1.531.026a.686.686 0 0 0 .576-.353l.467-.947a.463.463 0 0 0-.025-.44ZM22.412 32.114a.461.461 0 0 0 .65-.046l.634-.73a.46.46 0 0 0-.046-.65l-3.748-3.252 6.732.102.038-.001c.161-.008.381-.069.511-.218l.428-.492a.468.468 0 0 0-.047-.657l-6.008-5.212a.454.454 0 0 0-.323-.11.458.458 0 0 0-.326.156l-.633.73a.458.458 0 0 0 .045.65l3.705 3.214-6.648-.1h-.035a.863.863 0 0 0-.566.27l-.418.48a.466.466 0 0 0 .046.65l6.01 5.216ZM30.08 16.703c.825-.015 1.585.378 2.083 1.079l.012.017c.87 1.223.558 2.731-.758 3.667l-1.176.835-2.98-4.193 1.174-.834c.512-.364 1.081-.561 1.645-.571m-4.841 2.558c.155-.002.312-.03.444-.075l3.817 5.369a.459.459 0 0 0 .642.108l2.357-1.675c2.207-1.57 2.728-4.23 1.237-6.326l-.013-.02c-.856-1.203-2.162-1.88-3.585-1.853-.959.017-1.921.35-2.784.964l-3.146 2.235c-.08.057-.176.14-.2.273-.021.136.036.29.195.513.31.435.782.492 1.036.487M41.043 14.76l-2.245.829.2-2.91 2.045 2.08Zm4.503 1.98a.445.445 0 0 0-.13-.42c-.06-.058-5.97-5.84-6.357-6.21l.002-.002a.672.672 0 0 0-.66-.139l-.71.262a.668.668 0 0 0-.412.534l-.128 1.451-.66 7.4a.448.448 0 0 0 .171.405.47.47 0 0 0 .436.07l.992-.366a.675.675 0 0 0 .41-.537l.132-1.525 3.886-1.436 1.09 1.073c.112.11.3.178.478.175a.567.567 0 0 0 .184-.034l.99-.365a.459.459 0 0 0 .286-.337ZM57.503 15.614l-.009-.924a.476.476 0 0 0-.473-.47l-4.212.04-.015-1.666 3.741-.034a.474.474 0 0 0 .468-.478l-.008-.923a.472.472 0 0 0-.471-.469l-3.749.035-.012-1.604 4.208-.038a.468.468 0 0 0 .333-.141c.089-.09.137-.21.136-.336l-.009-.921a.474.474 0 0 0-.471-.47h-.006l-5.643.051a.469.469 0 0 0-.335.143.468.468 0 0 0-.135.334l.072 7.928a.47.47 0 0 0 .47.47l5.651-.05a.476.476 0 0 0 .47-.477M59.227 16.345l1.022.236a.848.848 0 0 0 .655-.148l2.789-2.189 1.545 3.193c.093.19.318.37.524.42l1.015.235h.005l.018.003a.475.475 0 0 0 .501-.684l-2.091-4.326 1.562-1.215 2.07-1.61a.476.476 0 0 0-.18-.843l-.988-.23a.714.714 0 0 0-.146-.016.865.865 0 0 0-.51.161l-2.643 2.06-1.478-3.014a.864.864 0 0 0-.527-.416l-1.01-.235a.478.478 0 0 0-.57.354.457.457 0 0 0 .033.309l2.044 4.161-3.826 2.967a.482.482 0 0 0-.16.255.486.486 0 0 0 .346.572M80.646 19.969l1.287-1.565 1.479 1.215c1.158.95.984 1.466.703 1.808l-.013.016a.874.874 0 0 1-.736.339c-.348-.012-.749-.197-1.16-.534l-1.56-1.28Zm-4.285 2.93.764.627a.457.457 0 0 0 .648-.064l1.695-2.06 1.305 1.072-.118 3.573a.826.826 0 0 0 .281.61l.823.675a.483.483 0 0 0 .29.111.462.462 0 0 0 .376-.171.484.484 0 0 0 .109-.288c0-.03.084-2.566.112-3.469.191.054.464.11.774.12.599.02 1.458-.132 2.146-.97l.016-.02c.508-.617.714-1.34.596-2.09-.129-.813-.648-1.613-1.503-2.315L82 16.047a.47.47 0 0 0-.663.067l-5.04 6.138a.462.462 0 0 0 .063.647ZM83.486 29.08a.471.471 0 0 0 .097.349l3.477 4.446a.47.47 0 0 0 .664.08l.727-.569a.469.469 0 0 0 .08-.664l-2.59-3.315 1.312-1.024 2.304 2.946a.474.474 0 0 0 .664.08l.728-.569a.475.475 0 0 0 .082-.664l-2.307-2.948 1.264-.985 2.592 3.314a.475.475 0 0 0 .665.082l.725-.568c.1-.077.164-.19.178-.315a.466.466 0 0 0-.096-.35l-3.477-4.445a.473.473 0 0 0-.316-.179l-.034-.002a.464.464 0 0 0-.314.1l-6.245 4.884a.468.468 0 0 0-.18.316M93.816 32.976c-1.274.6-1.608 1.775-1.153 4.057.346 1.733.09 1.853-.119 1.952a.62.62 0 0 1-.31.058c-.373-.026-.763-.377-1.017-.917-.384-.815-.4-1.27-.252-2.307a.481.481 0 0 0-.398-.54l-.893-.144a.497.497 0 0 0-.557.365c-.016.06-.431 1.608.407 3.387.567 1.206 1.55 1.97 2.626 2.046.425.03.84-.05 1.235-.236l.021-.01c1.225-.575 1.578-1.804 1.144-3.978-.36-1.798-.089-1.926.128-2.029a.471.471 0 0 1 .232-.035c.297.02.715.258 1 .86.368.783.318 1.55.305 1.683v.001l-.003.02a.513.513 0 0 0 .396.54l.896.181a.471.471 0 0 0 .554-.36c.01-.045.29-1.24-.458-2.828-.543-1.152-1.543-1.914-2.613-1.99a2.291 2.291 0 0 0-1.15.214l-.02.01ZM100.758 44.105c-.318-1.495-1.421-2.579-2.68-2.634a2.29 2.29 0 0 0-.58.049l-.02.003c-1.379.295-1.972 1.364-2.047 3.69-.058 1.765-.337 1.825-.56 1.873a.646.646 0 0 1-.16.014c-.424-.02-.793-.472-.938-1.153-.188-.88-.1-1.326.28-2.303a.48.48 0 0 0-.265-.615l-.836-.345a.493.493 0 0 0-.625.228c-.03.056-.787 1.468-.376 3.392.338 1.58 1.4 2.638 2.705 2.695.213.01.43-.009.644-.054l.022-.005c1.324-.283 1.946-1.397 2.019-3.613.06-1.834.352-1.896.587-1.946a.33.33 0 0 1 .095-.007c.332.015.76.361.915 1.09a3.5 3.5 0 0 1-.084 1.707l-.001.001-.007.02a.518.518 0 0 0 .262.613l.832.383a.482.482 0 0 0 .364.013.457.457 0 0 0 .257-.237c.055-.113.555-1.185.197-2.859" fill="#0C1A22">
  </path>
  <path d="M11.972 57.609a1.46 1.46 0 0 0-1.46 1.456 1.457 1.457 0 1 0 1.46-1.457" fill="#D02C2F">
  </path>
  <path d="m73.971 16.192-1.54-.74 1.011-2.106 1.54.739c.776.374 1.15.878 1.052 1.42a1.23 1.23 0 0 1-.101.303l-.01.02a1.018 1.018 0 0 1-.747.573c-.355.071-.772-.001-1.205-.209m-5.124 2.347a.463.463 0 0 0 .254.498l.89.429a.456.456 0 0 0 .615-.216l1.016-2.115 1.539.74c.844.405 1.729.542 2.49.384.889-.182 1.582-.747 2.008-1.633l.01-.02c.125-.26.213-.527.261-.793.249-1.372-.55-2.647-2.139-3.411l-3.719-1.786c-.089-.043-.207-.087-.334-.043-.13.046-.237.17-.356.418a1.103 1.103 0 0 0-.094.287c-.093.514.198.98.45 1.207l-2.854 5.938a.496.496 0 0 0-.037.116" fill="#0C1A22">
  </path>
  <path d="M92.896 101.852a2.29 2.29 0 1 1 0-4.58 2.29 2.29 0 0 1 0 4.58m0-5.07a2.78 2.78 0 1 0 0 5.56 2.78 2.78 0 0 0 0-5.56" fill="#FFF">
  </path>
  <path d="M92.354 98.64a.039.039 0 0 0-.039.039v.842c0 .022.018.039.04.039h.664c.345 0 .564-.18.564-.462 0-.301-.211-.457-.567-.457h-.662Zm1.214 2.269-.627-.891a.083.083 0 0 0-.061-.032h-.526a.038.038 0 0 0-.039.038v.877c0 .022-.016.04-.038.04h-.404a.039.039 0 0 1-.038-.04v-2.66c0-.022.017-.039.038-.039h1.182c.63 0 1.017.333 1.017.87 0 .437-.253.709-.616.82-.02.007-.027.026-.014.042l.693.975c.013.017.006.031-.015.031h-.49a.085.085 0 0 1-.062-.031Z" fill="#FFF">
  </path>
 </g>
</svg>