<svg xmlns="http://www.w3.org/2000/svg" viewBox="0 0 121 121">
  <title>VRS</title>
  <circle cx="60.5" cy="60.5" r="60.5" fill="#f2f2f2"/>
  <path d="M20.5 28.1C30 16.5 44.5 9 60.8 9c28.6 0 51.8 23.1 51.8 51.7s-23.2 51.7-51.8 51.7c-26.7 0-48.6-20.1-51.5-45.9h67.9a19.2 19.2 0 0 0 0-38.4H20.5z" fill="#007d64"/>
  <path d="m15.7 53.4 10.7-20.8h9.5l-16.6 30H8.9L5 32.6h8.8l1.9 20.8zM43.7 44.7h2c3.4 0 5.5-.9 5.5-3.1 0-1.7-.9-2.5-3.1-2.5h-3.3l-1.1 5.6zm9 3.5c.5.4.9 1 1.2 1.6.6 1.1.9 2.4 1.1 3.3l2.2 9.5h-8.8l-1.6-7.8c-.7-3.6-.8-3.7-4-3.7h-.4L40 62.6h-8.8l6.3-30h9.7c5.4 0 12.7.1 12.7 7.9.1 4.9-3.3 6.9-7.2 7.7M83.6 40.4l-.5-.2c-1.4-.7-3.4-1.3-6.2-1.3-1.5 0-2.9.1-3.8.5-.9.3-1.3.9-1.3 1.8 0 .7.5 1.3 1.5 1.8 1 .6 2.4 1 3.9 1.6 2.9 1.3 5.9 3.2 5.9 7.9 0 8.5-8 10.6-14.7 10.6-3.1 0-6.6-.7-9.1-1.5l-.5-.1 2.2-7 .6.4c1.4.9 4.4 1.6 6.9 1.6 1.2 0 2.7-.1 3.8-.6 1.1-.4 1.9-1.2 1.9-2.4 0-.9-.5-1.5-1.5-2.1-.5-.3-1.1-.6-1.8-.8-.7-.3-1.4-.5-2.1-.8-2.9-1.2-5.9-2.9-5.9-7.3 0-8 7-10.2 13.5-10.2 3.6 0 7 .4 9.1 1.3l.4.2-2.3 6.6z" fill="#231f20"/>
</svg>
