<svg xmlns="http://www.w3.org/2000/svg" viewBox="0 0 208 92"><path fill="#BC9545" d="M25.957 16.202 2.303 67.675c-3.012 6.461-3.071 12.53-.166 17.092 2.528 3.97 6.99 6.249 12.24 6.249 6.373 0 13.083-3.431 18.41-9.415l13.101-14.775 9.227 22.803h13.736L32.919.555zM34.043 72.793c-4.598 5.262-10.06 8.162-15.377 8.162-3.888 0-7.204-1.689-9.095-4.632-2.162-3.363-2.166-7.815-.014-12.531L28.182 23.249l15.638 38.479zM126.201 42.526c-5.69 0-12.221 2.566-15.85 8.194-2.86-5.09-8.387-8.194-15.081-8.194-5.419 0-10.323 2.046-13.708 5.501v-6.967l-9.758 7.388v41.568h9.758V60.556c0-8.086 5.666-12.317 11.266-12.317 4.977 0 9.999 3.46 9.999 11.191v30.585h9.758V59.488c.518-7.731 6.15-11.252 11.174-11.252 4.977 0 9.999 3.46 9.999 11.191v30.585h9.756V57.578h-.17c-.896-10.325-9.302-15.052-17.143-15.052ZM182.053 67.558c0 12.063-6.701 16.344-12.442 16.344-5.374 0-11.085-3.782-11.085-10.789V41.326l-9.758 4.796v26.991c0 11.678 9.029 17.788 17.948 17.788 5.482 0 11.466-2.343 15.335-7.409v3.996l9.758 3.241V41.326l-9.758 4.796v21.436z"/><path fill="#04530B" d="M198.244 6.769v83.246H208V.555zM81.537 1.244h-3.183v29.383h3.183zM114.297 23.557 94.99 3.504 91.977.373v30.256h3.182V8.374l19.308 20.056 2.14 2.199h.87V1.264h-3.18zM127.92 30.629l3.257-.021V4.581h18.496V1.225H127.92zM149.598 19.31h-16.544v3.316h16.544zM184.734 5.209c-2.813-2.93-6.244-4.417-10.2-4.417s-7.388 1.486-10.201 4.417c-2.799 2.942-4.217 6.531-4.217 10.668 0 4.137 1.418 7.726 4.217 10.668 2.813 2.931 6.245 4.418 10.201 4.418s7.387-1.487 10.2-4.418c2.799-2.942 4.217-6.531 4.217-10.665 0-4.139-1.418-7.728-4.217-10.671m-2.243 19.006c-2.185 2.289-4.864 3.448-7.96 3.448s-5.771-1.16-7.959-3.448c-2.187-2.291-3.297-5.094-3.297-8.338 0-3.243 1.11-6.05 3.297-8.338 2.185-2.288 4.864-3.448 7.959-3.448s5.771 1.16 7.959 3.448c2.187 2.291 3.297 5.097 3.297 8.338 0 3.243-1.11 6.05-3.297 8.338"/></svg>
