<svg id="Layer_1" data-name="Layer 1" xmlns="http://www.w3.org/2000/svg" xmlns:xlink="http://www.w3.org/1999/xlink" viewBox="0 0 798.16 199.56">
 <defs>
  <style>
   .cls-1{fill:url(#linear-gradient);}.cls-2{fill:url(#linear-gradient-2);}.cls-3{fill:url(#linear-gradient-3);}.cls-4{fill:url(#linear-gradient-4);}.cls-5{fill:#382757;}
  </style>
  <linearGradient id="linear-gradient" x1="76.86" y1="65.86" x2="44.43" y2="104.51" gradientTransform="matrix(1, 0, 0, -1, 0, 202)" gradientUnits="userSpaceOnUse">
   <stop offset="0" stop-color="#ce5dcb">
   </stop>
   <stop offset="0.21" stop-color="#c558cc">
   </stop>
   <stop offset="0.55" stop-color="#ac4acf">
   </stop>
   <stop offset="0.98" stop-color="#8534d4">
   </stop>
   <stop offset="1" stop-color="#8333d4">
   </stop>
  </linearGradient>
  <linearGradient id="linear-gradient-2" x1="78.04" y1="109.85" x2="147.73" y2="109.85" gradientTransform="matrix(1, 0, 0, -1, 0, 202)" gradientUnits="userSpaceOnUse">
   <stop offset="0.02" stop-color="#ff5667">
   </stop>
   <stop offset="0.66" stop-color="#fc8b82">
   </stop>
   <stop offset="1" stop-color="#fba28e">
   </stop>
  </linearGradient>
  <linearGradient id="linear-gradient-3" y1="134.9" x2="95.92" y2="134.9" gradientTransform="matrix(1, 0, 0, -1, 0, 202)" gradientUnits="userSpaceOnUse">
   <stop offset="0" stop-color="#00b874">
   </stop>
   <stop offset="0.51" stop-color="#29d3a2">
   </stop>
   <stop offset="0.68" stop-color="#53dfb6">
   </stop>
   <stop offset="1" stop-color="#9ff4d9">
   </stop>
  </linearGradient>
  <linearGradient id="linear-gradient-4" x1="65.36" y1="69.54" x2="161.28" y2="69.54" gradientTransform="matrix(1, 0, 0, -1, 0, 202)" gradientUnits="userSpaceOnUse">
   <stop offset="0" stop-color="#fcd77e">
   </stop>
   <stop offset="0.52" stop-color="#fea500">
   </stop>
   <stop offset="1" stop-color="#ff5b00">
   </stop>
  </linearGradient>
 </defs>
 <path class="cls-1" d="M13.54,134.2a46.21,46.21,0,0,0,65.36,0l1.73-1.73c9-9-9-56.34,0-65.36Z">
 </path>
 <path class="cls-2" d="M82.37,65.37,80.64,67.1c-9,9,9,56.34,0,65.36l67.09-67.09a46.23,46.23,0,0,0-65.36,0">
 </path>
 <path id="SVGID" class="cls-3" d="M13.54,68.84a46.21,46.21,0,0,0,0,65.36L82.38,65.36A46.21,46.21,0,0,0,82.38,0Z">
 </path>
 <path class="cls-4" d="M78.9,134.2a46.21,46.21,0,0,0,0,65.36l68.84-68.84a46.21,46.21,0,0,0,0-65.36Z">
 </path>
 <path class="cls-5" d="M415.54,100.14a51.52,51.52,0,0,0-24.79-30.79,52,52,0,0,0-39.29-4.22,51.63,51.63,0,0,0-35.06,64l0,.13c.88,2.94,2.29,6.7,2.32,6.76,4.39,10.28,11.75,18.13,22.48,24a51.7,51.7,0,0,0,64.81-12.73l.42-.52A50.33,50.33,0,0,0,411,139.9a8.8,8.8,0,0,0-15.35-8.59,33.59,33.59,0,0,1-8.55,10,5.81,5.81,0,0,0-.74.68,34.23,34.23,0,0,1-36.75,2.56,33.6,33.6,0,0,1-12.71-12.26L409.6,111A8.77,8.77,0,0,0,415.54,100.14ZM366.05,80.53a34.24,34.24,0,0,1,28.6,15.6l.52.83L331.9,115.52a34.15,34.15,0,0,1,24.49-33.59A34.41,34.41,0,0,1,366.05,80.53Zm39.43,66Z">
 </path>
 <path class="cls-5" d="M508.81,149.61H460.73l53.77-79a4.86,4.86,0,0,0-4-7.6H442.12a8.23,8.23,0,0,0,0,16.46h45.81l-53.75,79a4.85,4.85,0,0,0,4,7.59h70.6a8.23,8.23,0,0,0,0-16.45Z">
 </path>
 <path class="cls-5" d="M615.33,149.61H567.26l53.76-79A4.85,4.85,0,0,0,617,63H548.65a8.23,8.23,0,0,0,0,16.46h45.81l-53.75,79a4.85,4.85,0,0,0,4,7.59h70.6a8.23,8.23,0,0,0,0-16.46Z">
 </path>
 <path class="cls-5" d="M662.8,18.47a8.24,8.24,0,0,0-8.23,8.23V158.13a8.23,8.23,0,0,0,16.46,0V26.7A8.24,8.24,0,0,0,662.8,18.47Z">
 </path>
 <path class="cls-5" d="M797.81,100.15A51.44,51.44,0,0,0,773,69.36a52,52,0,0,0-39.29-4.22,51.65,51.65,0,0,0-35.06,64l0,.14c.88,2.93,2.29,6.69,2.32,6.76,4.39,10.28,11.75,18.12,22.48,24a51.69,51.69,0,0,0,64.8-12.72l.43-.55a51.66,51.66,0,0,0,4.55-6.8A8.8,8.8,0,0,0,778,131.33a33.58,33.58,0,0,1-8.54,10,6,6,0,0,0-.75.68,34.26,34.26,0,0,1-36.76,2.56,33.53,33.53,0,0,1-12.71-12.26L791.87,111A8.77,8.77,0,0,0,797.81,100.15ZM748.33,80.53a34.24,34.24,0,0,1,28.6,15.6l.52.83-63.27,18.56a34.18,34.18,0,0,1,34.15-35Z">
 </path>
 <path class="cls-5" d="M288.83,120.31a27.63,27.63,0,0,0-10.47-8.85c-7.37-3.75-16.92-5.47-26.08-6.9l-1.45-.22c-6.43-1-13.08-2-17.35-4.2-3.23-1.64-4.38-3.48-4.38-7.07,0-6.95,7.57-12.19,17.6-12.19,12,0,18.66,3.5,26.16,8.07a8.86,8.86,0,1,0,9.24-15.13,76.25,76.25,0,0,0-14.42-7.24,61.22,61.22,0,0,0-21-3.44c-9.24,0-17.89,2.81-24.34,7.91a27.72,27.72,0,0,0-11,22c0,10.3,4.88,18.22,14.11,22.89,6.78,3.43,14.84,4.68,22.63,5.89l1.44.22c20,3.13,25.76,6,25.76,12.56,0,8.19-8.2,13.55-20.89,13.66H254a41.34,41.34,0,0,1-25.36-8c-.68-.46-1.26-.87-1.84-1.23a8.87,8.87,0,0,0-9.39,15c.23.14.58.38,1,.65l.24.16A59.12,59.12,0,0,0,254,166h.61c11-.1,20.48-3.06,27.38-8.58A28.78,28.78,0,0,0,293,134.64,25,25,0,0,0,288.83,120.31Z">
 </path>
</svg>