<svg id="Layer_1" data-name="Layer 1" xmlns="http://www.w3.org/2000/svg" xmlns:xlink="http://www.w3.org/1999/xlink" viewBox="0 0 798 199.52">
 <defs>
  <style>
   .cls-1{fill:url(#linear-gradient);}.cls-2{fill:url(#linear-gradient-2);}.cls-3{fill:url(#linear-gradient-3);}.cls-4{fill:url(#linear-gradient-4);}.cls-5{fill:#fff;}
  </style>
  <linearGradient id="linear-gradient" x1="76.84" y1="65.89" x2="44.41" y2="104.54" gradientTransform="matrix(1, 0, 0, -1, 0, 202)" gradientUnits="userSpaceOnUse">
   <stop offset="0" stop-color="#ce5dcb">
   </stop>
   <stop offset="0.21" stop-color="#c558cc">
   </stop>
   <stop offset="0.55" stop-color="#ac4acf">
   </stop>
   <stop offset="0.98" stop-color="#8534d4">
   </stop>
   <stop offset="1" stop-color="#8333d4">
   </stop>
  </linearGradient>
  <linearGradient id="linear-gradient-2" x1="78.02" y1="109.87" x2="147.69" y2="109.87" gradientTransform="matrix(1, 0, 0, -1, 0, 202)" gradientUnits="userSpaceOnUse">
   <stop offset="0.02" stop-color="#ff5667">
   </stop>
   <stop offset="0.66" stop-color="#fc8b82">
   </stop>
   <stop offset="1" stop-color="#fba28e">
   </stop>
  </linearGradient>
  <linearGradient id="linear-gradient-3" x1="-0.01" y1="134.92" x2="95.89" y2="134.92" gradientTransform="matrix(1, 0, 0, -1, 0, 202)" gradientUnits="userSpaceOnUse">
   <stop offset="0" stop-color="#00b874">
   </stop>
   <stop offset="0.51" stop-color="#29d3a2">
   </stop>
   <stop offset="0.68" stop-color="#53dfb6">
   </stop>
   <stop offset="1" stop-color="#9ff4d9">
   </stop>
  </linearGradient>
  <linearGradient id="linear-gradient-4" x1="65.35" y1="69.57" x2="161.25" y2="69.57" gradientTransform="matrix(1, 0, 0, -1, 0, 202)" gradientUnits="userSpaceOnUse">
   <stop offset="0" stop-color="#fcd77e">
   </stop>
   <stop offset="0.52" stop-color="#fea500">
   </stop>
   <stop offset="1" stop-color="#ff5b00">
   </stop>
  </linearGradient>
 </defs>
 <path class="cls-1" d="M13.53,134.17a46.2,46.2,0,0,0,65.35,0l1.73-1.73c9-9-9-56.32,0-65.35Z">
 </path>
 <path class="cls-2" d="M82.35,65.36l-1.73,1.73c-9,9,9,56.32,0,65.34l67.07-67.07a46.21,46.21,0,0,0-65.34,0">
 </path>
 <path id="SVGID" class="cls-3" d="M13.53,68.83a46.19,46.19,0,0,0,0,65.34L82.36,65.34A46.21,46.21,0,0,0,82.36,0Z">
 </path>
 <path class="cls-4" d="M78.88,134.17a46.22,46.22,0,0,0,0,65.35l68.83-68.83a46.19,46.19,0,0,0,0-65.34Z">
 </path>
 <path class="cls-5" d="M415.45,100.12a51.62,51.62,0,0,0-99.11,28.94l0,.13c.88,2.94,2.29,6.7,2.32,6.76,4.39,10.28,11.74,18.12,22.47,24A51.68,51.68,0,0,0,406,147.22l.42-.52a51.83,51.83,0,0,0,4.56-6.81,8.8,8.8,0,0,0-15.35-8.59,33.68,33.68,0,0,1-8.54,10,5.81,5.81,0,0,0-.74.68,34.22,34.22,0,0,1-36.74,2.56,33.51,33.51,0,0,1-12.7-12.26L409.53,111A8.77,8.77,0,0,0,415.45,100.12ZM366,80.51a34.21,34.21,0,0,1,28.59,15.6l.52.83L331.83,115.5a34.22,34.22,0,0,1,34.15-35Zm39.41,66Z">
 </path>
 <path class="cls-5" d="M508.71,149.58H460.64l53.75-79a4.86,4.86,0,0,0-4-7.6H442a8.23,8.23,0,1,0,0,16.46h45.8l-53.74,79a4.85,4.85,0,0,0,4,7.59H508.7a8.23,8.23,0,0,0,0-16.45Z">
 </path>
 <path class="cls-5" d="M615.2,149.58H567.14l53.75-79a4.85,4.85,0,0,0-4-7.59H548.53a8.23,8.23,0,0,0,0,16.46h45.8l-53.74,79a4.85,4.85,0,0,0,4,7.59H615.2a8.23,8.23,0,0,0,0-16.46Z">
 </path>
 <path class="cls-5" d="M662.66,18.47a8.24,8.24,0,0,0-8.23,8.23V158.11a8.23,8.23,0,0,0,16.46,0V26.7A8.24,8.24,0,0,0,662.66,18.47Z">
 </path>
 <path class="cls-5" d="M797.65,100.12a51.27,51.27,0,0,0-6.16-13.49,51.62,51.62,0,0,0-57.9-21.51,51.63,51.63,0,0,0-35.06,63.94l0,.14c.88,2.93,2.29,6.69,2.32,6.76,4.39,10.28,11.74,18.12,22.47,24a51.7,51.7,0,0,0,64.79-12.71l.43-.55a51.66,51.66,0,0,0,4.55-6.8,8.8,8.8,0,0,0-15.35-8.59,33.7,33.7,0,0,1-8.54,10,6,6,0,0,0-.75.68,34.22,34.22,0,0,1-36.74,2.56A33.6,33.6,0,0,1,719,132.3L791.7,111A8.77,8.77,0,0,0,797.65,100.12ZM748.17,80.51a34.21,34.21,0,0,1,28.59,15.6l.52.83L714,115.5a34.22,34.22,0,0,1,34.15-35Z">
 </path>
 <path class="cls-5" d="M288.77,120.28a27.44,27.44,0,0,0-10.47-8.84c-7.36-3.75-16.92-5.47-26.07-6.9l-1.45-.22c-6.43-1-13.08-2-17.35-4.2-3.23-1.64-4.38-3.48-4.38-7.07,0-7,7.56-12.19,17.6-12.19,12,0,18.66,3.5,26.15,8.07A8.86,8.86,0,1,0,282,73.81a76,76,0,0,0-14.42-7.23,61.22,61.22,0,0,0-21-3.43c-9.24,0-17.88,2.8-24.33,7.91a27.71,27.71,0,0,0-11,22c0,10.3,4.88,18.22,14.11,22.89,6.78,3.43,14.84,4.68,22.63,5.89l1.43.22c20,3.13,25.75,6,25.75,12.56,0,8.19-8.2,13.55-20.89,13.66h-.46a41.33,41.33,0,0,1-25.35-8c-.68-.46-1.26-.87-1.84-1.23a8.86,8.86,0,1,0-9.38,15c.23.14.58.38,1,.65l.24.16A59.1,59.1,0,0,0,253.9,166h.61c11-.1,20.48-3.06,27.37-8.58A28.75,28.75,0,0,0,293,134.62,24.91,24.91,0,0,0,288.77,120.28Z">
 </path>
</svg>