<?xml version="1.0" encoding="UTF-8" ?>
<!DOCTYPE svg PUBLIC "-//W3C//DTD SVG 1.1//EN" "http://www.w3.org/Graphics/SVG/1.1/DTD/svg11.dtd">
<svg width="1230pt" height="526pt" viewBox="0 0 1230 526" version="1.1" xmlns="http://www.w3.org/2000/svg">
<g id="#dd1438ff">
<path fill="#dd1438" opacity="1.00" d=" M 829.89 25.90 C 837.26 18.60 847.65 14.10 858.12 15.08 C 865.05 15.32 872.37 19.56 874.22 26.57 C 876.13 33.97 874.61 41.69 872.88 48.97 C 870.05 60.52 866.19 71.79 863.40 83.35 C 857.40 106.00 851.52 128.72 847.54 151.83 C 847.00 155.15 846.14 158.48 846.21 161.87 C 849.97 166.08 855.53 168.43 858.80 173.19 C 866.01 182.63 864.53 195.82 860.16 206.15 C 856.32 215.45 846.14 220.54 836.43 220.63 C 835.83 225.07 835.36 229.53 834.99 234.00 C 833.67 249.33 831.31 264.56 830.38 279.92 C 829.29 292.92 828.97 305.97 829.07 319.01 C 829.21 332.13 831.18 345.66 837.82 357.19 C 840.11 361.48 843.65 365.28 844.46 370.23 C 845.40 376.66 844.09 383.37 841.08 389.11 C 835.60 398.92 825.07 405.48 813.96 406.69 C 806.84 407.30 799.42 405.59 793.61 401.36 C 789.51 398.43 786.58 394.22 783.96 389.99 C 778.33 380.86 775.08 370.43 773.42 359.88 C 772.01 350.67 772.61 341.33 772.82 332.07 C 764.34 341.50 755.31 350.54 744.93 357.88 C 728.62 369.65 710.54 380.23 690.30 383.06 C 681.42 384.28 671.68 385.05 663.57 380.51 C 658.05 377.56 654.28 372.38 651.04 367.19 C 643.70 381.22 628.00 390.91 612.02 389.66 C 603.48 388.98 596.45 383.06 591.41 376.53 C 584.10 366.75 580.69 354.75 578.04 343.01 C 573.75 324.25 574.61 304.83 575.85 285.78 C 576.40 277.46 578.16 269.27 578.31 260.92 C 574.09 262.12 569.94 263.75 566.39 266.38 C 555.74 273.96 548.38 285.19 542.69 296.75 C 533.52 315.06 528.22 334.96 523.69 354.83 C 521.96 362.83 519.72 370.71 517.39 378.56 C 515.11 386.50 509.86 393.32 503.52 398.49 C 498.75 402.40 492.63 404.02 486.65 404.92 C 482.68 405.48 478.49 405.65 474.71 404.15 C 470.68 402.56 467.49 399.30 465.52 395.50 C 461.76 388.26 460.25 380.08 459.83 372.00 C 459.15 359.44 459.70 346.84 460.75 334.32 C 461.86 325.14 462.13 315.86 463.89 306.76 C 468.21 281.10 473.33 255.53 480.59 230.52 C 484.38 218.39 488.04 205.95 495.30 195.35 C 500.34 187.55 507.19 180.94 515.22 176.26 C 522.05 172.30 530.22 170.90 538.03 171.78 C 543.53 172.40 548.59 176.01 551.00 180.98 C 553.29 186.33 552.59 192.42 551.06 197.87 C 547.20 210.99 540.96 223.22 536.17 235.99 C 540.24 231.09 543.82 225.78 548.07 221.02 C 561.83 205.62 578.14 191.48 598.15 185.11 C 606.51 182.39 616.29 181.28 624.22 185.86 C 632.91 191.13 637.72 201.25 638.47 211.15 C 639.24 222.08 638.54 233.09 636.59 243.86 C 635.32 250.76 634.70 257.76 633.46 264.67 C 631.03 276.96 630.10 289.60 631.17 302.10 C 632.48 313.69 635.67 326.11 644.76 334.11 C 645.97 314.11 650.33 294.31 657.72 275.69 C 673.96 236.67 702.41 202.66 738.45 180.49 C 749.81 173.68 761.84 168.01 774.23 163.32 C 780.20 161.02 786.46 159.60 792.56 157.67 C 794.94 146.35 796.00 134.82 798.24 123.48 C 800.28 113.16 801.69 102.70 804.36 92.51 C 807.46 80.18 809.61 67.60 813.56 55.49 C 816.73 44.62 821.58 33.83 829.89 25.90 M 771.21 224.20 C 751.95 233.36 736.01 248.54 723.94 265.97 C 714.41 279.77 706.64 295.32 704.49 312.13 C 704.25 315.47 703.61 319.08 704.96 322.26 C 708.01 324.86 712.38 322.98 715.55 321.52 C 727.65 314.88 738.17 305.56 746.96 294.96 C 758.83 281.10 767.96 265.10 775.36 248.49 C 778.79 239.26 782.16 229.87 783.31 220.05 C 779.15 221.03 775.05 222.31 771.21 224.20 Z" />
<path fill="#dd1438" opacity="1.00" d=" M 305.86 73.86 C 312.73 68.60 322.29 66.41 330.51 69.57 C 339.45 73.31 344.81 82.66 346.06 91.96 C 347.32 100.97 344.24 109.78 341.03 118.04 C 337.05 128.22 333.92 138.70 330.12 148.95 C 323.76 166.43 318.92 184.41 313.51 202.20 C 310.03 215.21 306.17 228.12 302.88 241.18 C 299.03 255.37 295.64 269.69 291.93 283.92 C 290.20 292.19 287.53 300.25 286.08 308.59 C 293.32 309.93 300.53 311.60 307.90 312.07 C 313.09 295.56 318.57 279.04 326.38 263.55 C 332.93 249.75 341.23 236.76 351.15 225.14 C 363.16 211.85 377.12 199.75 393.75 192.66 C 404.66 188.42 416.29 185.40 428.09 186.08 C 437.18 186.08 446.19 190.00 452.27 196.76 C 457.75 202.89 461.29 210.77 462.06 218.96 C 463.13 229.61 462.09 240.40 459.68 250.81 C 457.01 262.42 452.97 273.77 447.19 284.22 C 436.97 302.77 423.10 319.33 406.42 332.40 C 394.22 342.20 380.15 349.73 365.16 354.21 C 363.94 354.77 362.30 354.89 361.58 356.15 C 361.33 359.91 362.35 363.68 363.94 367.07 C 366.20 372.08 371.74 374.78 377.00 375.25 C 382.76 375.63 388.76 374.70 393.84 371.84 C 400.58 368.10 406.18 362.61 413.01 358.99 C 417.87 356.34 423.40 354.63 428.99 355.06 C 435.12 355.57 440.01 361.11 440.80 367.04 C 442.01 374.67 439.17 382.17 435.77 388.85 C 428.93 401.71 418.29 412.31 406.04 420.06 C 399.10 424.62 391.37 427.89 383.40 430.17 C 373.39 433.20 362.73 433.23 352.41 432.25 C 337.48 430.58 324.46 421.02 316.14 408.83 C 306.32 395.34 302.96 378.58 300.73 362.37 C 291.86 361.38 283.09 359.69 274.22 358.72 C 267.34 389.01 259.87 419.15 252.24 449.25 C 250.50 455.92 248.28 462.62 244.30 468.32 C 240.85 473.26 235.88 477.04 230.35 479.35 C 218.43 484.40 204.49 485.54 192.31 480.76 C 187.34 478.87 182.83 475.66 179.74 471.32 C 174.80 464.49 172.66 456.18 170.90 448.08 C 165.96 427.80 162.54 407.17 160.27 386.43 C 157.98 370.37 156.96 354.17 155.52 338.03 C 154.68 327.38 154.26 316.70 154.15 306.03 C 154.12 301.14 154.05 296.21 152.91 291.43 C 148.69 292.50 147.68 297.03 146.50 300.61 C 143.02 312.37 139.49 324.12 136.13 335.92 C 130.12 358.75 123.86 381.50 118.11 404.39 C 114.71 415.77 112.71 427.49 109.67 438.97 C 106.06 452.10 103.11 465.40 99.57 478.56 C 97.48 485.95 96.62 493.89 92.51 500.54 C 86.83 509.83 77.57 516.59 67.42 520.26 C 57.96 523.48 47.65 525.03 37.76 522.99 C 30.53 521.54 24.83 516.10 21.08 509.99 C 15.50 500.72 12.97 490.07 10.49 479.65 C 7.20 465.87 5.50 451.78 4.70 437.65 C 2.89 416.15 2.39 394.56 2.21 373.00 C 2.59 345.31 3.29 317.62 5.44 290.01 C 6.21 270.63 7.64 251.29 9.02 231.94 C 9.51 224.30 10.59 216.70 10.70 209.04 C 11.01 195.68 12.10 182.32 11.60 168.95 C 11.19 161.40 10.24 153.49 6.01 147.02 C 4.23 144.00 1.63 141.35 0.72 137.89 C 0.88 133.22 4.69 129.79 7.96 126.90 C 16.88 119.71 27.78 115.20 38.97 112.98 C 45.20 111.73 51.64 111.00 57.96 111.98 C 64.35 112.96 70.54 116.51 73.84 122.18 C 76.39 126.32 77.24 131.23 77.43 136.01 C 77.99 148.05 76.33 160.03 75.59 172.03 C 72.75 200.03 68.62 227.89 66.26 255.94 C 65.23 265.44 64.87 274.99 63.81 284.48 C 62.89 292.73 62.92 301.06 62.10 309.32 C 61.19 318.19 61.19 327.12 60.79 336.03 C 60.54 348.30 60.19 360.57 60.44 372.84 C 60.64 379.63 60.21 386.58 62.37 393.13 C 64.19 392.60 66.54 392.52 67.39 390.49 C 70.84 384.08 72.00 376.78 73.88 369.82 C 79.46 349.29 85.57 328.90 91.48 308.45 C 94.21 299.81 96.30 290.99 99.24 282.42 C 105.29 264.29 110.91 246.02 117.02 227.91 C 121.45 214.50 126.31 201.24 131.09 187.95 C 135.34 176.77 139.00 165.28 144.80 154.76 C 147.91 149.17 151.94 143.86 157.46 140.48 C 164.21 136.45 172.33 135.28 180.07 135.87 C 189.14 136.54 198.33 140.83 203.45 148.55 C 207.74 155.18 208.04 163.36 208.03 171.01 C 207.87 191.66 207.06 212.31 207.35 232.96 C 207.65 242.97 207.47 252.99 208.07 262.99 C 208.64 272.10 208.57 281.25 209.29 290.36 C 210.17 312.55 210.19 334.84 213.34 356.87 C 213.91 360.00 214.28 363.40 216.37 365.96 C 217.60 366.33 219.20 366.32 220.04 365.16 C 221.67 363.06 222.14 360.36 222.77 357.84 C 224.03 351.80 225.31 345.76 226.46 339.70 C 229.82 321.16 234.09 302.80 237.50 284.26 C 242.88 259.34 248.16 234.39 254.62 209.72 C 261.62 182.37 269.10 155.15 277.35 128.15 C 280.99 116.63 285.21 105.27 290.50 94.40 C 294.38 86.77 298.98 79.15 305.86 73.86 M 409.53 235.34 C 405.41 236.37 401.91 238.98 398.73 241.70 C 390.29 249.11 383.83 258.41 377.70 267.74 C 373.20 274.51 369.59 281.82 366.20 289.20 C 362.94 296.49 360.29 304.15 359.47 312.14 C 364.24 310.79 368.68 308.53 372.78 305.78 C 382.04 300.00 390.47 292.84 397.34 284.33 C 402.45 277.93 407.37 271.26 410.80 263.77 C 413.68 257.54 416.20 250.92 416.27 243.96 C 416.25 241.63 416.14 239.09 414.77 237.11 C 413.60 235.48 411.44 234.76 409.53 235.34 Z" />
<path fill="#dd1438" opacity="1.00" d=" M 1082.44 99.68 C 1089.60 98.49 1097.48 99.24 1103.60 103.43 C 1109.66 107.76 1113.99 114.58 1114.88 122.03 C 1116.64 135.23 1114.97 149.06 1109.08 161.09 C 1105.54 169.24 1099.77 176.64 1091.90 180.97 C 1086.88 183.69 1080.82 183.79 1075.37 182.48 C 1069.25 181.03 1064.10 175.47 1063.75 169.09 C 1063.15 163.21 1065.43 157.64 1067.29 152.20 C 1069.72 145.21 1070.73 137.61 1069.39 130.29 C 1068.28 124.36 1067.09 118.22 1068.46 112.23 C 1069.98 105.70 1076.01 100.90 1082.44 99.68 Z" />
<path fill="#dd1438" opacity="1.00" d=" M 890.42 177.41 C 896.60 169.97 904.76 163.81 914.24 161.40 C 920.21 160.12 926.56 159.94 932.50 161.54 C 940.40 163.85 945.71 171.84 945.88 179.91 C 946.45 189.06 942.67 197.68 938.56 205.62 C 931.77 218.76 926.91 232.82 923.13 247.10 C 919.03 261.02 916.59 275.46 916.08 289.98 C 915.77 296.85 915.63 303.78 916.64 310.61 C 917.11 313.40 917.71 316.28 919.30 318.68 C 920.96 321.16 924.24 321.63 927.01 321.49 C 930.50 321.35 933.66 319.53 936.20 317.23 C 942.79 311.31 947.81 303.91 952.47 296.44 C 958.87 286.14 963.93 275.02 967.58 263.45 C 971.80 250.62 976.28 237.86 980.10 224.90 C 985.38 209.25 989.62 192.88 999.07 179.08 C 1004.89 170.83 1013.25 163.72 1023.36 161.68 C 1030.22 160.49 1037.99 160.88 1043.70 165.30 C 1049.32 169.67 1051.61 177.03 1051.96 183.90 C 1052.84 200.79 1047.27 216.99 1043.46 233.21 C 1040.04 248.40 1035.96 263.44 1033.03 278.74 C 1030.31 294.11 1027.22 309.43 1025.58 324.97 C 1023.34 341.39 1021.61 357.87 1020.23 374.38 C 1018.24 391.92 1016.84 409.69 1011.66 426.65 C 1007.79 438.86 1004.10 451.33 997.28 462.29 C 988.43 476.60 976.67 489.27 962.55 498.49 C 947.46 507.62 930.50 513.51 913.10 516.27 C 900.57 518.38 887.62 519.10 875.09 516.65 C 864.48 514.34 853.96 509.57 846.71 501.28 C 839.34 492.95 836.76 480.99 839.37 470.26 C 840.75 464.84 844.97 460.40 850.04 458.22 C 854.85 456.25 860.17 457.13 865.14 457.90 C 876.64 459.95 888.41 460.19 900.02 459.23 C 910.48 458.39 920.81 455.31 929.79 449.83 C 937.54 445.06 943.80 438.09 948.23 430.17 C 954.52 419.69 958.86 408.03 960.71 395.94 C 963.24 379.67 964.11 363.21 966.45 346.91 C 961.76 352.70 957.13 358.59 951.55 363.56 C 940.68 373.55 928.67 383.25 914.16 387.17 C 903.80 390.14 891.99 388.20 883.49 381.47 C 877.53 376.81 873.57 370.18 870.33 363.47 C 863.54 350.00 860.80 334.91 859.43 320.02 C 858.04 296.80 859.08 273.41 862.76 250.44 C 865.66 233.97 869.17 217.43 875.91 202.04 C 879.63 193.25 884.34 184.80 890.42 177.41 Z" />
<path fill="#dd1438" opacity="1.00" d=" M 1159.47 166.72 C 1169.43 165.73 1179.76 166.14 1189.24 169.64 C 1198.61 172.94 1206.88 179.83 1211.10 188.92 C 1213.61 194.27 1215.29 200.05 1215.61 205.97 C 1216.18 216.69 1215.37 227.85 1210.60 237.65 C 1207.95 242.97 1204.48 248.22 1199.25 251.29 C 1193.81 254.55 1187.13 254.99 1181.01 253.91 C 1176.38 253.08 1171.71 250.83 1169.12 246.76 C 1165.95 241.76 1165.05 235.81 1163.74 230.16 C 1163.26 228.52 1162.93 226.46 1161.17 225.72 C 1157.66 224.21 1153.70 225.18 1150.21 226.21 C 1141.25 229.29 1132.52 234.03 1126.46 241.48 C 1124.15 244.30 1122.74 248.22 1123.86 251.82 C 1124.96 254.33 1127.25 256.01 1129.30 257.72 C 1136.81 263.56 1145.12 268.28 1153.61 272.53 C 1161.23 276.41 1169.03 280.01 1176.08 284.89 C 1186.00 291.43 1195.07 299.83 1200.53 310.52 C 1203.80 316.83 1204.45 324.12 1203.83 331.10 C 1202.57 343.82 1197.24 356.19 1188.81 365.79 C 1175.86 379.83 1158.53 389.38 1140.24 394.48 C 1126.29 398.98 1111.52 400.33 1096.93 399.90 C 1087.87 399.62 1078.89 397.71 1070.42 394.53 C 1062.78 391.60 1055.67 386.74 1051.11 379.86 C 1047.51 374.40 1044.33 368.45 1043.34 361.91 C 1041.71 351.68 1044.15 340.21 1051.92 332.94 C 1056.93 328.57 1063.37 325.69 1070.02 325.18 C 1077.54 324.73 1084.27 328.72 1090.31 332.72 C 1098.43 338.14 1108.46 339.49 1118.02 339.50 C 1123.80 339.45 1130.08 338.50 1134.56 334.53 C 1136.00 333.41 1136.30 331.26 1135.43 329.70 C 1133.86 326.94 1131.17 325.08 1128.65 323.28 C 1118.57 316.47 1107.08 312.28 1096.28 306.86 C 1085.95 301.71 1075.95 295.39 1068.31 286.63 C 1063.23 280.89 1059.35 273.77 1058.67 266.03 C 1057.35 253.56 1061.25 241.13 1067.33 230.36 C 1082.37 204.17 1106.93 183.83 1135.00 172.92 C 1142.83 169.79 1151.09 167.72 1159.47 166.72 Z" />
</g>
<g id="#1b18173f">
</g>
<g id="#000000fe">
<path fill="#000000" opacity="1.00" d=" M 1209.43 382.62 C 1214.39 381.14 1220.33 382.09 1223.88 386.10 C 1227.30 389.63 1228.26 395.11 1226.85 399.74 C 1225.13 405.11 1219.62 408.93 1214.00 408.81 C 1210.11 408.88 1206.26 407.20 1203.67 404.31 C 1200.16 400.61 1199.21 394.78 1201.14 390.10 C 1202.71 386.62 1205.75 383.74 1209.43 382.62 M 1209.54 385.56 C 1203.12 388.36 1201.65 397.73 1206.38 402.69 C 1209.86 406.69 1216.68 407.22 1220.60 403.58 C 1225.34 399.58 1225.35 391.38 1220.73 387.30 C 1217.79 384.56 1213.17 383.93 1209.54 385.56 Z" />
<path fill="#000000" opacity="1.00" d=" M 1208.88 388.79 C 1212.58 388.38 1216.38 388.50 1219.80 390.14 C 1218.62 394.04 1218.69 398.13 1219.81 402.04 C 1219.19 402.06 1217.94 402.09 1217.32 402.10 C 1216.43 400.44 1215.57 398.77 1214.69 397.12 C 1214.07 397.10 1212.82 397.06 1212.19 397.04 C 1211.94 398.94 1211.71 400.83 1211.49 402.74 C 1210.89 402.73 1209.69 402.71 1209.09 402.71 C 1208.52 398.08 1208.50 393.42 1208.88 388.79 M 1212.02 390.83 C 1212.11 392.29 1212.21 393.75 1212.33 395.23 C 1213.94 394.57 1215.59 393.96 1217.26 393.41 C 1216.86 392.84 1216.05 391.71 1215.65 391.14 C 1214.42 391.04 1213.21 390.93 1212.02 390.83 Z" />
</g>
</svg>
