<svg width="32" height="32" viewBox="0 0 32 32" fill="none" xmlns="http://www.w3.org/2000/svg">
<rect x="4" y="4" width="24" height="24" fill="#E7157B"/>
<rect x="1" y="1" width="30" height="30" stroke="#879196" stroke-width="2"/>
<path d="M24 15.5C24 16.2822 23.6445 17.0049 23.0244 17.4819L22.415 16.689C22.7871 16.4028 23 15.9697 23 15.5C23 14.6729 22.3271 14 21.5 14C21.2236 14 21 13.7764 21 13.5C21 12.6729 20.3271 12 19.5 12C19.2148 12 18.9336 12.084 18.6865 12.2432C18.5508 12.3311 18.3799 12.3467 18.2285 12.2861C18.0771 12.2251 17.9658 12.0943 17.9287 11.9356C17.665 10.7959 16.666 10 15.5 10C14.539 10 13.6514 10.562 13.2393 11.4316L12.3349 11.0029C12.9121 9.78613 14.1543 9 15.5 9C16.9277 9 18.1758 9.8501 18.7148 11.1284C18.9678 11.0435 19.2324 11 19.5 11C20.7217 11 21.7422 11.8813 21.958 13.042C23.1182 13.2578 24 14.2778 24 15.5ZM19.958 16.042C19.7422 14.8814 18.7217 14 17.5 14C17.2324 14 16.9678 14.0435 16.7148 14.1284C16.1758 12.8501 14.9277 12 13.5 12C11.5703 12 10 13.5703 10 15.5C10 15.6782 10.0156 15.8594 10.0459 16.041C8.88379 16.2554 8 17.2764 8 18.5C8 19.8784 9.12109 21 10.5 21H11V20H10.5C9.67285 20 9 19.3272 9 18.5C9 17.6729 9.67285 17 10.5 17L10.6435 17.0171C10.8164 17.0342 10.9805 16.9605 11.085 16.8242C11.1904 16.689 11.2178 16.5088 11.1592 16.3482C11.0518 16.0537 11 15.7759 11 15.5C11 14.1216 12.1211 13 13.5 13C14.666 13 15.665 13.7959 15.9287 14.9356C15.9658 15.0943 16.0771 15.2251 16.2285 15.2862C16.3789 15.3477 16.5517 15.3316 16.6865 15.2432C16.9336 15.084 17.2148 15 17.5 15C18.3271 15 19 15.6729 19 16.5C19 16.7764 19.2236 17 19.5 17C20.3271 17 21 17.6729 21 18.5C21 19.3272 20.3271 20 19.5 20H19V21H19.5C20.8789 21 22 19.8785 22 18.5C22 17.2779 21.1182 16.2578 19.958 16.042ZM18 18.8335V22.167C18 22.3516 17.8984 22.5215 17.7353 22.6084L15.2354 23.9414C15.1621 23.9805 15.0811 24 15 24C14.9189 24 14.8379 23.9805 14.7646 23.9414L12.2646 22.6084C12.1016 22.5215 12 22.3516 12 22.167V18.8335C12 18.6489 12.1016 18.479 12.2646 18.3921L14.7646 17.0591C14.9111 16.98 15.0889 16.98 15.2354 17.0591L17.7353 18.3921C17.8984 18.479 18 18.6489 18 18.8335ZM17 19.1333L15 18.0669L13 19.1333V21.8672L15 22.9336L17 21.8672V19.1333Z" fill="white"/>
</svg>
