<svg width="48" height="48" viewBox="0 0 48 48" fill="none" xmlns="http://www.w3.org/2000/svg">
<rect x="4" y="4" width="40" height="40" fill="#E7157B"/>
<rect x="1" y="1" width="46" height="46" stroke="#879196" stroke-width="2"/>
<path d="M38 20.8887C38 22.7871 36.7539 24.4292 34.9707 24.8818L34.7246 23.9121C36.0644 23.5723 37 22.3291 37 20.8887C37 19.1963 35.7285 17.832 34.1055 17.7832C33.9463 17.7783 33.7988 17.6982 33.708 17.5669C33.6182 17.436 33.5957 17.27 33.6475 17.1196C33.7168 16.9204 33.75 16.7363 33.75 16.5557C33.75 15.6367 33.0371 14.8887 32.1611 14.8887C31.7461 14.8887 31.3525 15.0566 31.0537 15.3623C30.9316 15.4853 30.7578 15.5405 30.5869 15.5C30.418 15.4619 30.2803 15.3394 30.2236 15.1753C29.5674 13.2764 27.8271 12 25.8926 12C24.293 12 22.8311 12.8447 21.9824 14.2593L21.125 13.7446C22.1562 12.0259 23.9385 11 25.8926 11C28.0312 11 29.9727 12.2695 30.9102 14.2202C31.2891 14.0039 31.7168 13.8887 32.1611 13.8887C33.5889 13.8887 34.75 15.085 34.75 16.5557C34.75 16.6528 34.7441 16.7495 34.7334 16.8467C36.6065 17.1919 38 18.8623 38 20.8887ZM30.1543 21.708C30.1738 21.5742 30.1836 21.4414 30.1836 21.3081C30.1836 19.6499 28.8535 18.3008 27.2178 18.3008C26.6768 18.3008 26.1563 18.4483 25.7012 18.7241C24.625 16.4468 22.3389 14.9585 19.8184 14.9585C16.2178 14.9585 13.2891 17.9317 13.2891 21.5865C13.2891 21.6709 13.291 21.7554 13.294 21.8389C11.3613 22.4219 10 24.2408 10 26.3218C10 28.5337 11.5478 30.461 13.6807 30.9048L13.8838 29.9253C12.2129 29.5777 11 28.0625 11 26.3218C11 24.565 12.2275 23.0474 13.918 22.7129C14.1719 22.6626 14.3447 22.4277 14.3183 22.1709C14.2988 21.979 14.2891 21.7842 14.2891 21.5865C14.2891 18.4834 16.7695 15.9585 19.8183 15.9585C22.1416 15.9585 24.2305 17.4575 25.0176 19.6885C25.0752 19.8501 25.2109 19.9717 25.3789 20.0098C25.541 20.0469 25.7207 19.9966 25.8428 19.8755C26.2139 19.5049 26.7021 19.3008 27.2178 19.3008C28.3017 19.3008 29.1836 20.2012 29.1836 21.3081C29.1836 21.5249 29.1426 21.7461 29.0596 21.9844C29.0068 22.1348 29.0293 22.3018 29.1191 22.4331C29.21 22.5645 29.3574 22.645 29.5166 22.6499C31.4814 22.7075 33.0205 24.3208 33.0205 26.3218C33.0205 28.3501 31.4014 30 29.4102 30H29.0772V31H29.4102C31.9522 31 34.0205 28.9014 34.0205 26.3218C34.0205 23.9864 32.3662 22.0659 30.1543 21.708ZM28.001 27.1172V34.5405C28.001 34.731 27.8926 34.9048 27.7227 34.9888L21.71 37.958C21.6396 37.9927 21.5645 38.0098 21.4883 38.0098C21.4121 38.0098 21.3369 37.9927 21.2666 37.958L15.2539 34.9888C15.084 34.9048 14.9756 34.731 14.9756 34.5405V27.1172C14.9756 26.9268 15.084 26.7529 15.2539 26.669L21.2666 23.6997C21.4072 23.6304 21.5693 23.6304 21.71 23.6997L27.7227 26.669C27.8926 26.7529 28.001 26.9268 28.001 27.1172ZM16.6047 27.1171L21.4883 29.5288L26.3719 27.1171L21.4883 24.7056L16.6047 27.1171ZM15.9756 34.23L20.9883 36.7053V30.3972L15.9756 27.9218V34.23ZM27.001 34.23V27.9218L21.9883 30.3972V36.7053L27.001 34.23Z" fill="white"/>
</svg>
