<svg width="90" height="90" viewBox="0 0 90 90" fill="none" xmlns="http://www.w3.org/2000/svg">
<rect x="5" y="5" width="80" height="80" fill="#E7157B"/>
<rect x="1" y="1" width="88" height="88" stroke="#879196" stroke-width="2"/>
<path d="M73 38.7778C73 42.3989 70.6523 45.6421 67.291 46.665L66.709 44.7519C69.2353 43.9829 71 41.5264 71 38.7778C71 35.3926 68.457 32.6641 65.2109 32.5659C64.8936 32.5561 64.5996 32.3965 64.4189 32.1348C64.2383 31.8735 64.1924 31.5415 64.2959 31.2412C64.4336 30.8413 64.5 30.4717 64.5 30.1113C64.5 28.2734 63.0742 26.7778 61.3213 26.7778C60.4922 26.7778 59.7061 27.1138 59.1074 27.7241C58.8652 27.9722 58.5107 28.0757 58.1738 28C57.8359 27.9238 57.5615 27.6787 57.4482 27.3511C56.1357 23.5522 52.6543 21 48.7861 21C46.085 21 43.5283 22.2285 41.7725 24.3701L40.2256 23.1025C42.3633 20.4951 45.4834 19 48.7861 19C53.0635 19 56.9463 21.5391 58.8213 25.4404C59.5791 25.0078 60.4336 24.7778 61.3213 24.7778C64.1768 24.7778 66.5 27.1704 66.5 30.1113C66.5 30.3052 66.4883 30.499 66.4658 30.6938C70.2129 31.3828 73 34.7246 73 38.7778ZM57.2705 38.9097C57.3125 38.624 57.333 38.3403 57.333 38.0557C57.333 34.6553 54.6738 31.8887 51.4043 31.8887C50.3242 31.8887 49.2861 32.1894 48.3799 32.7529C46.2305 28.064 41.6602 25 36.6191 25C29.4248 25 23.5713 31.1143 23.5713 38.6294C23.5713 38.812 23.5752 38.9956 23.582 39.1797C19.7197 40.3769 17 44.1138 17 48.3887C17 53.7783 20.9531 58 26 58V56C22.0752 56 19 52.6567 19 48.3887C19 44.751 21.4551 41.6103 24.8369 40.9204C25.3389 40.8179 25.6826 40.3516 25.6318 39.8413C25.5918 39.4429 25.5713 39.0386 25.5713 38.6294C25.5713 32.2168 30.5273 27 36.6191 27C41.2568 27 45.4306 30.0938 47.0049 34.6987C47.1172 35.0278 47.3935 35.2749 47.7324 35.3511C48.0771 35.4277 48.4268 35.3203 48.6689 35.0713C49.4082 34.3086 50.3799 33.8887 51.4043 33.8887C53.5703 33.8887 55.333 35.7578 55.333 38.0557C55.333 38.5107 55.251 38.9721 55.081 39.4663C54.9785 39.7666 55.0244 40.0981 55.2051 40.3594C55.3857 40.6206 55.6797 40.7803 55.997 40.79C59.9238 40.9106 63 44.248 63 48.3887C63 52.6567 59.9248 56 56 56V58C61.0469 58 65 53.7783 65 48.3887C65 43.5903 61.6914 39.6445 57.2705 38.9097ZM54 50.001V65.001C54 65.3799 53.7861 65.7261 53.4473 65.8955L41.4473 71.8955C41.3066 71.9658 41.1533 72.001 41 72.001C40.8467 72.001 40.6934 71.9658 40.5527 71.8955L28.5527 65.8955C28.2138 65.7261 28 65.3799 28 65.001V50.001C28 49.6221 28.2139 49.2759 28.5527 49.1064L40.5527 43.1064C40.834 42.9658 41.166 42.9658 41.4473 43.1064L53.4473 49.1064C53.7861 49.2759 54 49.6221 54 50.001ZM31.1578 50.0403L41 55.4165L50.8423 50.0403L41 45.1191L31.1578 50.0403ZM30 64.3828L40 69.3828V57.1492L30 51.6866V64.3828ZM52 64.3828V51.6866L42 57.1492V69.3828L52 64.3828Z" fill="white"/>
</svg>
