<svg xmlns="http://www.w3.org/2000/svg" width="292.00003" height="18.393999" viewBox="0 0 77.258338 4.8667453" version="1.1" id="svg3725"><defs id="defs3719" /><g id="layer1" transform="translate(105.64435,-162.76634)"><path id="path3695" d="m -91.695254,166.543 h -10.653976 c -0.95383,0 -1.37795,-0.42916 -1.37795,-1.3507 v -2.05661 h -1.65259 v 2.05661 c 0,1.33112 1.15358,2.06428 2.25451,2.06428 h 11.430006 z m 17.196601,-3.40731 v 3.40731 h -9.739581 c -0.95382,0 -1.37795,-0.42916 -1.37795,-1.3507 v -2.05661 h -1.65312 v 2.05661 c 0,1.33112 1.15359,2.06428 2.25505,2.06428 h 12.16871 v -4.12089 z m 20.36101,3.40731 h -11.23157 c -0.95382,0 -1.37795,-0.42916 -1.37795,-1.3507 0,-0.92869 0.42413,-1.34303 1.37795,-1.34303 h 11.23157 v -0.71358 h -12.00759 c -1.101191,0 -2.255041,0.73025 -2.255041,2.05661 0,1.33112 1.15358,2.06428 2.255041,2.06428 h 12.00759 z m 23.232269,-3.40731 c 1.100662,0 2.254782,0.73025 2.254782,2.05661 0,1.33112 -1.153851,2.06428 -2.254782,2.06428 h -12.332229 v -4.12089 z m 0.601922,2.05661 c 0,-0.92869 -0.424122,-1.34303 -1.37795,-1.34303 h -9.903352 v 2.69346 h 9.903352 c 0.953828,0 1.37795,-0.42889 1.37795,-1.35043 z m -19.189962,2.1762 h 1.609191 v -4.33758 h -1.609191 z" style="fill-rule:evenodd;stroke-width:0.26458332" /></g></svg>
