<svg version="1.1" id="Layer_1" xmlns="http://www.w3.org/2000/svg" xmlns:xlink="http://www.w3.org/1999/xlink" x="0px" y="0px" viewBox="0 0 116.5 62.2" style="enable-background:new 0 0 116.5 62.2;" xml:space="preserve">
 <style type="text/css">
  .st0{fill:#E21A1A;}
	.st1{fill:#FFFFFF;}
 </style>
 <g>
  <rect class="st0" width="116.5" height="62.2">
  </rect>
  <path class="st1" d="M71.1,20v1h8.6c0.7-0.1,1.4,0.1,2,0.6c0.4,0.6,0.6,1.3,0.6,2V32c0.1,0.7-0.1,1.4-0.6,2c-0.6,0.4-1.3,0.6-2,0.6
		h-4.1c-0.7,0-1.7,0-2-0.8c-0.2-0.7,0-1.5,0.6-2l5.6-7.4h-8.6L67.6,29c-0.6,0.6-0.9,1.4-1.1,2.2c0.1,0.8,0.4,1.7,1.1,2.2l0.9,1.1
		l0,0c0.7,1.1,1.7,2.1,2.8,2.8c1.4,0.5,2.8,0.7,4.3,0.6h3.7c2.1,0,5.4,0,7.5-2.1c2.1-2.1,2.1-5.2,2.1-6.4V26c0-1.1,0-4.2-2.1-6.4
		c-2.2-2.1-5.4-2.1-7.5-2.1h-5.9c-0.7-0.1-1.3,0.1-1.9,0.6C71.2,18.6,71,19.3,71.1,20z M60.8,24.3h8.6L59.1,37.9h-8.5L60.8,24.3z
		 M28.1,25c-0.4,0.5-0.7,1.1-0.6,1.8v1H31v16.9h6.8V27.8h6.7c0.7,0,1.7,0,2,0.8c0.2,0.7,0,1.5-0.6,2l-5.6,7.4h8.6l3.5-4.6
		c0.6-0.6,0.9-1.4,1.1-2.2c-0.1-0.8-0.4-1.7-1.1-2.2l-0.9-1.1l0,0c-0.7-1.1-1.7-2.1-2.8-2.8c-1.4-0.5-2.8-0.7-4.3-0.6H30
		C29.3,24.3,28.6,24.5,28.1,25z">
  </path>
 </g>
</svg>