<svg version="1.1" id="Layer_1" xmlns="http://www.w3.org/2000/svg" xmlns:xlink="http://www.w3.org/1999/xlink" x="0px" y="0px" viewBox="0 0 110 48.7" style="enable-background:new 0 0 110 48.7;" xml:space="preserve">
 <style type="text/css">
  .st0{fill:#E21A1A;}
 </style>
 <path class="st0" d="M78.1,4.4v1.8h15.4c1.3-0.1,2.6,0.2,3.6,1c0.8,1,1.1,2.3,1,3.6V26c0.1,1.3-0.2,2.6-1,3.6c-1,0.8-2.3,1.1-3.6,1
	h-7.4c-1.2,0-3,0-3.6-1.4c-0.4-1.3,0-2.7,1-3.6l10-13.2H78.1l-6.2,8.2c-1.1,1.1-1.7,2.5-2,4c0.1,1.5,0.8,3,2,4l1.6,2l0,0
	c1.3,2,3,3.7,5,5c2.5,0.9,5.1,1.3,7.8,1h6.6c3.8,0,9.6,0,13.4-3.8c3.8-3.8,3.8-9.4,3.8-11.4v-6.2c0-2,0-7.6-3.8-11.4
	C102.4,0,96.7,0,92.9,0H82.3c-1.2-0.1-2.4,0.2-3.4,1C78.3,2,78,3.2,78.1,4.4z M59.7,12.2h15.4L56.7,36.6H41.4L59.7,12.2z M1.1,13.4
	c-0.8,0.9-1.2,2-1,3.2v1.8h6.2v30.3h12.2V18.4h12c1.2,0,3,0,3.6,1.4c0.4,1.3,0,2.7-1,3.6L23,36.6h15.4l6.2-8.2c1.1-1.1,1.7-2.5,2-4
	c-0.1-1.5-0.8-3-2-4l-1.6-2l0,0c-1.3-2-3-3.7-5-5c-2.5-0.9-5.1-1.3-7.8-1H4.5C3.2,12.1,1.9,12.5,1.1,13.4z">
 </path>
</svg>