<svg xmlns="http://www.w3.org/2000/svg" viewBox="0 0 16 16" fill="#ff4f40">
  <title>MimiClaw</title>
  <!-- Body -->
  <rect x="5" y="3" width="6" height="1"/>
  <rect x="4" y="4" width="8" height="1"/>
  <rect x="3" y="5" width="10" height="1"/>
  <rect x="3" y="6" width="10" height="1"/>
  <rect x="3" y="7" width="10" height="1"/>
  <rect x="4" y="8" width="8" height="1"/>
  <rect x="5" y="9" width="6" height="1"/>
  <!-- Legs -->
  <rect x="5" y="12" width="6" height="1"/>
  <rect x="6" y="13" width="4" height="1"/>
  <!-- Claws -->
  <rect x="1" y="6" width="2" height="1" fill="#ff775f"/>
  <rect x="2" y="5" width="1" height="1" fill="#ff775f"/>
  <rect x="2" y="7" width="1" height="1" fill="#ff775f"/>
  <rect x="13" y="6" width="2" height="1" fill="#ff775f"/>
  <rect x="13" y="5" width="1" height="1" fill="#ff775f"/>
  <rect x="13" y="7" width="1" height="1" fill="#ff775f"/>
  <!-- Eyes -->
  <rect x="6" y="4" width="1" height="1" fill="#f5fbff"/>
  <rect x="9" y="4" width="1" height="1" fill="#f5fbff"/>
  <rect x="6" y="5" width="1" height="1" fill="#081016"/>
  <rect x="9" y="5" width="1" height="1" fill="#081016"/>
</svg>
