<svg xmlns="http://www.w3.org/2000/svg" viewBox="0 0 16 16" fill="currentColor">
  <title>MimiClaw</title>
  <rect x="5" y="3" width="6" height="1"/>
  <rect x="4" y="4" width="8" height="1"/>
  <rect x="3" y="5" width="10" height="1"/>
  <rect x="3" y="6" width="10" height="1"/>
  <rect x="3" y="7" width="10" height="1"/>
  <rect x="4" y="8" width="8" height="1"/>
  <rect x="5" y="9" width="6" height="1"/>
  <rect x="5" y="12" width="6" height="1"/>
  <rect x="6" y="13" width="4" height="1"/>
  <rect x="1" y="6" width="2" height="1" opacity=".7"/>
  <rect x="2" y="5" width="1" height="1" opacity=".7"/>
  <rect x="2" y="7" width="1" height="1" opacity=".7"/>
  <rect x="13" y="6" width="2" height="1" opacity=".7"/>
  <rect x="13" y="5" width="1" height="1" opacity=".7"/>
  <rect x="13" y="7" width="1" height="1" opacity=".7"/>
</svg>
