<svg width="24" height="24" viewBox="0 0 24 24" fill="none" xmlns="http://www.w3.org/2000/svg">
<g clip-path="url(#clip0_158_128)">
<rect width="24" height="24" fill="#8C4FFF"/>
<path d="M12 15H13V16H12V15ZM14 16H15V15H14V16ZM16.0205 16H17.5C17.7764 16 18 15.7764 18 15.5V14.021H17V15H16.0205V16ZM17 13H18V12.0415H17V13ZM18 9.5C18 9.22363 17.7764 9 17.5 9H16.0205V10H17V11H18V9.5ZM15 9H14.0205V10H15V9ZM13 9H12V10H13V9ZM19 5H10V6H19V7H10V8H19V18H10V19H19C19.5518 19 20 18.5513 20 18V6C20 5.44873 19.5518 5 19 5ZM9 16.5V19.5C9 19.7764 8.77637 20 8.5 20H4.5C4.22363 20 4 19.7764 4 19.5V16.5C4 16.2236 4.22363 16 4.5 16H8.5C8.77637 16 9 16.2236 9 16.5ZM8 17H5V19H8V17ZM4 7.5V4.5C4 4.22363 4.22363 4 4.5 4H8.5C8.77637 4 9 4.22363 9 4.5V7.5C9 7.77637 8.77637 8 8.5 8H4.5C4.22363 8 4 7.77637 4 7.5ZM5 7H8V5H5V7ZM11 10.5V12H13.293L12.6465 11.3535L13.3535 10.6465L14.8535 12.1465C14.9961 12.2896 15.0391 12.5044 14.9619 12.6914C14.9363 12.7533 14.8856 12.7945 14.84 12.84L14.8535 12.8535L13.3535 14.3535L12.6465 13.6465L13.293 13H11V13.5C11 13.7764 10.7764 14 10.5 14H6.5C6.22363 14 6 13.7764 6 13.5V10.5C6 10.2236 6.22363 10 6.5 10H10.5C10.7764 10 11 10.2236 11 10.5ZM10 11H7V13H10V11Z" fill="white"/>
</g>
<defs>
<clipPath id="clip0_158_128">
<rect width="24" height="24" fill="white"/>
</clipPath>
</defs>
</svg>
