<svg width="40" height="40" viewBox="0 0 40 40" fill="none" xmlns="http://www.w3.org/2000/svg">
<g clip-path="url(#clip0_158_129)">
<rect width="40" height="40" fill="#8C4FFF"/>
<path d="M20 27V26H22V27H20ZM24 27H26V26H24V27ZM28 27H30.5C30.7764 27 31 26.7764 31 26.5V24H30V26H28V27ZM30 22H31V19H30V22ZM31 14.5C31 14.2236 30.7764 14 30.5 14H28V15H30V17H31V14.5ZM26 14H24.0312V15H26V14ZM20 14V15H22V14H20ZM32.5 8H17V9H32.5C32.7754 9 33 9.22412 33 9.5V11H17V12H33V31H17V32H33.5C33.7764 32 34 31.7764 34 31.5V9.5C34 8.67285 33.3271 8 32.5 8ZM6 13.5V6.5C6 6.22363 6.22363 6 6.5 6H14.5C14.7764 6 15 6.22363 15 6.5V13.5C15 13.7764 14.7764 14 14.5 14H6.5C6.22363 14 6 13.7764 6 13.5ZM7 13H14V7H7V13ZM17 23.5C17 23.7764 16.7764 24 16.5 24H8.5C8.22363 24 8 23.7764 8 23.5V16.5C8 16.2236 8.22363 16 8.5 16H16.5C16.7764 16 17 16.2236 17 16.5V20H24.293L23.1465 18.8535L23.8535 18.1465L25.8535 20.1465C25.9961 20.2896 26.0391 20.5044 25.9619 20.6914C25.9363 20.7533 25.8856 20.7945 25.84 20.84L25.8535 20.8535L23.8535 22.8535L23.1465 22.1465L24.293 21H17V23.5ZM16 17H9V23H16V17ZM15 26.5V33.5C15 33.7764 14.7764 34 14.5 34H6.5C6.22363 34 6 33.7764 6 33.5V26.5C6 26.2236 6.22363 26 6.5 26H14.5C14.7764 26 15 26.2236 15 26.5ZM14 27H7V33H14V27Z" fill="white"/>
</g>
<defs>
<clipPath id="clip0_158_129">
<rect width="40" height="40" fill="white"/>
</clipPath>
</defs>
</svg>
