<svg viewBox="0 0 88.459999 21.17" xmlns="http://www.w3.org/2000/svg" width="88.459999" height="21.17" id="svg3009" version="1.1"><defs id="defs3011"></defs><g id="layer1" transform="translate(-162.48575,-437.9196)"><text style="font-size:15px" y="445.43842" x="247.39554" id="text62"><tspan style="font-size:3.68162513px;font-variant:normal;font-weight:normal;writing-mode:lr-tb;fill:#2d7bc8;fill-opacity:1;fill-rule:nonzero;stroke:none;font-family:Futura;-inkscape-font-specification:Futura" x="247.39554" y="445.43842" id="tspan64">®</tspan></text><g id="g66" transform="matrix(1.25,0,0,-1.25,193.83667,450.27218)"><path d="M 0,0 C -0.162,0.882 -0.972,1.459 -1.855,1.459 -2.808,1.459 -3.602,0.955 -3.8,0 L 0,0 z m 3.043,-1.891 -6.896,0 c 0,-1.332 0.702,-2.053 2.053,-2.053 0.702,0 1.205,0.235 1.567,0.847 l 3.15,0 c -0.521,-2.178 -2.593,-3.169 -4.7,-3.169 -3.06,0 -5.348,1.729 -5.348,4.915 0,3.08 2.108,4.935 5.114,4.935 3.206,0 5.06,-1.981 5.06,-5.133" style="fill:#2d7bc8;fill-opacity:1;fill-rule:nonzero;stroke:none" id="path68" /></g><g id="g70" transform="matrix(1.25,0,0,-1.25,204.85318,457.90293)"><path d="m 0,0 -3.278,0 0,6.536 -1.638,0 0,2.701 1.638,0 0,2.774 3.278,0 0,-2.774 1.615,0 0,-2.701 -1.615,0" style="fill:#2d7bc8;fill-opacity:1;fill-rule:nonzero;stroke:none" id="path72" /></g><path d="m 219.53005,457.90318 4.09625,0 0,-12.3375 -4.09625,0 0,12.3375 z" style="fill:#2d7bc8;fill-opacity:1;fill-rule:nonzero;stroke:none" id="path74" /><g id="g76" transform="matrix(1.25,0,0,-1.25,231.8458,457.85255)"><path d="m 0,0 -3.279,0 0,6.217 -1.632,0 0,2.702 1.632,0 0,0.482 c 0,1.278 0.037,2.215 0.936,3.241 0.811,0.954 1.982,1.476 3.224,1.476 0.505,0 0.954,-0.089 1.405,-0.324 l 0,-2.827 C 1.908,11.129 1.566,11.273 1.133,11.273 0.288,11.273 0,10.769 0,9.724 l 0,-0.805 1.957,0 0,-2.702 -1.957,0" style="fill:#2d7bc8;fill-opacity:1;fill-rule:nonzero;stroke:none" id="path78" /></g><g id="g80" transform="matrix(1.25,0,0,-1.25,244.10543,450.28018)"><path d="M 0,0 C -0.16,0.883 -0.97,1.458 -1.852,1.458 -2.808,1.458 -3.6,0.954 -3.797,0 L 0,0 z m 3.046,-1.891 -6.898,0 c 0,-1.332 0.702,-2.052 2.053,-2.052 0.702,0 1.206,0.234 1.567,0.846 l 3.151,0 c -0.522,-2.179 -2.594,-3.17 -4.7,-3.17 -3.061,0 -5.349,1.729 -5.349,4.917 0,3.079 2.108,4.933 5.115,4.933 3.206,0 5.061,-1.98 5.061,-5.132" style="fill:#2d7bc8;fill-opacity:1;fill-rule:nonzero;stroke:none" id="path82" /></g><g id="g84" transform="matrix(1.25,0,0,-1.25,221.56968,438.9448)"><path d="m 0,0 c -1.117,0 -2.024,-0.906 -2.024,-2.023 0,-1.117 0.907,-2.023 2.024,-2.023 1.117,0 2.024,0.906 2.024,2.023 C 2.024,-0.906 1.117,0 0,0" style="fill:#2d7bc8;fill-opacity:1;fill-rule:nonzero;stroke:none" id="path86" /></g><g id="g88" transform="matrix(1.25,0,0,-1.25,166.4053,441.72943)"><path d="M 0,0 3.315,0 5.941,-6.921 8.724,0 l 3.349,0 1.958,-12.949 -3.366,0 -0.945,7.453 -0.035,0 -3.108,-7.453 -1.339,0 -2.971,7.453 -0.035,0 -1.082,-7.453 -3.349,0" style="fill:#2d7bc8;fill-opacity:1;fill-rule:nonzero;stroke:none" id="path90" /></g><g id="g92" transform="matrix(1.25,0,0,-1.25,212.87818,454.27043)"><path d="m 0,0 4.102,0 0,-2.896 -7.522,0 0,13.157 3.42,0" style="fill:#2d7bc8;fill-opacity:1;fill-rule:nonzero;stroke:none" id="path94" /></g></g></svg>
