<?xml version="1.0" encoding="utf-8"?>
<!-- Generator: Adobe Illustrator 19.1.0, SVG Export Plug-In . SVG Version: 6.00 Build 0)  -->
<svg version="1.1" id="Layer_1" xmlns="http://www.w3.org/2000/svg" xmlns:xlink="http://www.w3.org/1999/xlink" x="0px" y="0px"
	 viewBox="0 350.6 612 90.8" style="enable-background:new 0 350.6 612 90.8;" xml:space="preserve">
<style type="text/css">
	.st0{fill:#FFFFFF;}
</style>
<path class="st0" d="M410.2,350.6v90.8h-1.6v-90.8L410.2,350.6L410.2,350.6z"/>
<g>
	<path class="st0" d="M433.3,372.8h26.5v2.5h-23.6v18.8h21v2.5h-21v23.1h-2.9V372.8z"/>
	<path class="st0" d="M467.1,372.8h2.9v47h-2.9V372.8z"/>
	<path class="st0" d="M478.3,372.8h2.9v44.5h23.7v2.5h-26.6V372.8z"/>
	<path class="st0" d="M511.2,372.8h4.1l18.3,43.7h0.1l18.2-43.7h4.1v47h-2.9v-43.4H553l-17.9,43.4h-2.9l-18.1-43.4H514v43.4h-2.9
		v-47H511.2z"/>
	<path class="st0" d="M595,386.3c-0.1-2-0.5-3.8-1.3-5.3s-1.8-2.7-3.1-3.7s-2.9-1.8-4.7-2.3s-3.8-0.8-6-0.8c-1.3,0-2.7,0.2-4.2,0.5
		s-2.9,0.8-4.2,1.6c-1.3,0.8-2.4,1.8-3.2,3.1c-0.8,1.3-1.2,2.9-1.2,4.8s0.5,3.4,1.4,4.6s2.1,2.1,3.6,2.9c1.5,0.7,3.2,1.3,5.1,1.7
		c1.9,0.4,3.9,0.9,5.9,1.2c2,0.4,4,0.9,5.9,1.4s3.6,1.3,5.1,2.2c1.5,0.9,2.7,2.2,3.6,3.7c0.9,1.5,1.4,3.4,1.4,5.7
		c0,2.5-0.5,4.5-1.6,6.2s-2.4,3-4,4.1s-3.4,1.8-5.3,2.3c-2,0.5-3.8,0.7-5.6,0.7c-2.8,0-5.3-0.3-7.8-0.9c-2.4-0.6-4.5-1.6-6.3-2.9
		s-3.2-3.1-4.2-5.2s-1.5-4.7-1.5-7.7h2.9c-0.1,2.6,0.2,4.8,1.1,6.5c0.9,1.8,2.1,3.2,3.6,4.4c1.6,1.1,3.4,2,5.5,2.5s4.3,0.8,6.6,0.8
		c1.4,0,2.9-0.2,4.5-0.5c1.6-0.4,3.1-0.9,4.4-1.8c1.3-0.8,2.5-1.9,3.4-3.3s1.3-3.1,1.3-5.1s-0.5-3.6-1.4-4.8c-0.9-1.3-2.1-2.3-3.6-3
		c-1.5-0.8-3.2-1.4-5.1-1.8c-1.9-0.5-3.9-0.9-5.9-1.3s-3.9-0.9-5.9-1.4c-1.9-0.5-3.6-1.2-5.1-2.1s-2.7-2.1-3.6-3.5
		c-0.9-1.4-1.4-3.3-1.4-5.5s0.5-4.2,1.4-5.8c0.9-1.6,2.2-2.9,3.7-3.9s3.2-1.7,5.1-2.2c1.9-0.5,3.7-0.7,5.6-0.7
		c2.5,0,4.7,0.3,6.9,0.8c2.1,0.5,4,1.4,5.6,2.6s2.9,2.7,3.8,4.5c1,1.8,1.5,4.1,1.6,6.6L595,386.3L595,386.3z"/>
</g>
<g>
	<path class="st0" d="M121.1,376.3c-1.4-1.6-3.2-2.8-5.4-3.7c-2.2-0.8-5-1.3-8.2-1.3c-3.3,0-6.5,0.9-9.3,2.6c-2.1,1.3-3.8,3-4.9,5
		v-6.3h-6.8v46.9h6.8v-27.2c0.1-2.2,0.4-4.2,1.1-6.1c0.6-1.8,1.6-3.4,2.7-4.8c1.2-1.3,2.6-2.4,4.2-3.1c1.7-0.8,3.6-1.1,5.7-1.1
		s4,0.3,5.4,1s2.5,1.6,3.4,2.7c0.8,1.2,1.4,2.6,1.8,4.2c0.3,1.6,0.5,3.4,0.5,5.3v29.1h6.8v-30c0-2.8-0.3-5.3-0.8-7.5
		C123.4,379.8,122.5,377.9,121.1,376.3z"/>
	<rect x="129.7" y="372.7" class="st0" width="6.8" height="46.9"/>
	<path class="st0" d="M190.7,371.4c-3.1,0-6.1,0.8-8.8,2.3c-2.4,1.3-4.2,3.2-5.6,5.7c-1-2.5-2.5-4.4-4.7-5.7
		c-2.5-1.5-5.4-2.3-8.5-2.3c-3.8,0-7,0.8-9.5,2.5c-2,1.4-3.8,3.2-5.2,5.4v-6.5h-6.3v46.9h6.8v-26.1c0-2.4,0.3-4.6,0.8-6.5
		c0.5-2,1.3-3.7,2.3-5.1s2.4-2.6,4-3.4c1.7-0.8,3.6-1.2,5.9-1.2c1.7,0,3.1,0.3,4.3,0.8c1.1,0.5,2.1,1.3,2.7,2.2
		c0.7,1,1.2,2.1,1.5,3.4s0.5,2.8,0.5,4.3v31.6h6.8v-26.5c0-2.1,0.2-4.1,0.6-6c0.4-1.9,1-3.6,1.9-5.1c0.9-1.4,2.1-2.6,3.6-3.5
		s3.4-1.3,5.7-1.3c3.8,0,6.5,0.9,8,2.7c1.5,1.9,2.3,4.6,2.3,8.3v31.3h6.8V388C206.4,377,201.1,371.4,190.7,371.4z"/>
	<path class="st0" d="M251.7,413.7c-1.9,0-2.7-0.9-2.7-2.8v-24.3c0-3.2-0.5-5.8-1.6-7.8c-1-2-2.4-3.6-4.1-4.7
		c-1.6-1.1-3.5-1.9-5.6-2.3c-2-0.4-4.1-0.6-6.1-0.6c-2.7,0-5.2,0.3-7.4,0.9s-4.2,1.6-5.9,2.8c-1.7,1.3-3,3-4,5s-1.6,4.4-1.7,7.1v0.6
		h6.8V387c0.1-3.5,1.2-6.1,3.3-7.7s4.9-2.4,8.3-2.4c1.6,0,3.1,0.1,4.5,0.4s2.6,0.7,3.6,1.4c1,0.6,1.8,1.5,2.4,2.7
		c0.6,1.1,0.9,2.6,0.9,4.4c0,1.2-0.1,2.1-0.4,2.8c-0.3,0.7-0.7,1.2-1.2,1.6s-1.2,0.7-2,0.8c-0.9,0.2-1.9,0.3-3.1,0.4
		c-3,0.3-6,0.7-8.9,1.1c-3,0.4-5.7,1.1-8,2c-2.4,1-4.4,2.4-5.9,4.3s-2.3,4.5-2.3,7.8c0,2.4,0.4,4.5,1.3,6.2c0.8,1.8,2,3.2,3.4,4.4
		c1.4,1.1,3.2,2,5.1,2.5c1.9,0.5,4,0.8,6.1,0.8c2.3,0,4.3-0.2,5.9-0.6c1.7-0.4,3.2-1,4.5-1.8s2.5-1.8,3.6-3c0.8-0.8,1.5-1.8,2.2-2.8
		c0,0.6,0.1,1.2,0.2,1.8c0.2,1.1,0.5,2,1,2.8s1.3,1.4,2.2,1.8s2.2,0.6,3.7,0.6c0.8,0,1.4,0,2-0.1c0.5-0.1,1.1-0.2,1.8-0.3l0.5-0.1
		v-6.1l-0.8,0.4C252.8,413.6,252.3,413.7,251.7,413.7z M242.3,395.3v6c0,2.1-0.4,4.1-1.2,5.8c-0.8,1.7-1.9,3.1-3.3,4.3
		c-1.4,1.2-3,2.1-4.9,2.7S229,415,227,415c-1.2,0-2.4-0.2-3.6-0.6c-1.2-0.4-2.2-1-3.1-1.7c-0.9-0.7-1.6-1.6-2.1-2.7
		c-0.5-1-0.8-2.2-0.8-3.5c0-2.1,0.6-3.6,1.8-4.7c1.3-1.1,2.9-2,4.9-2.7c2-0.6,4.3-1.1,6.8-1.4s5-0.7,7.3-1.1
		c0.8-0.1,1.7-0.3,2.7-0.6C241.4,395.8,241.9,395.6,242.3,395.3z"/>
	<path class="st0" d="M252.1,378.6h8v30.7c-0.1,4.1,0.7,6.9,2.3,8.4c1.6,1.6,4.3,2.3,8.2,2.3c0.8,0,1.7,0,2.5-0.1s1.6-0.1,2.4-0.1
		h0.6v-5.9l-0.7,0.1c-1.6,0.2-3.2,0.3-4.7,0.3c-1.8-0.1-2.9-0.6-3.3-1.4c-0.5-0.9-0.7-2.3-0.7-4v-30.2h9.3v-5.9h-24v5.8H252.1z"/>
	<rect x="281.4" y="372.7" class="st0" width="6.8" height="46.9"/>
	<path class="st0" d="M384.5,382.1c-0.6-2.3-1.5-4.2-2.9-5.8c-1.4-1.6-3.2-2.8-5.4-3.7c-2.2-0.8-5-1.3-8.2-1.3
		c-3.3,0-6.5,0.9-9.3,2.6c-2.1,1.3-3.8,3-4.9,5v-6.3H347v46.9h6.8v-27.2c0.1-2.2,0.4-4.2,1.1-6.1c0.6-1.8,1.6-3.4,2.7-4.8
		c1.2-1.3,2.6-2.4,4.2-3.1c1.7-0.8,3.6-1.1,5.7-1.1s4,0.3,5.4,1s2.5,1.6,3.4,2.7c0.8,1.2,1.4,2.6,1.8,4.2c0.3,1.6,0.5,3.4,0.5,5.3
		v29.1h6.8v-30C385.3,386.9,385,384.3,384.5,382.1z"/>
	<path class="st0" d="M317.6,371.2c-13.4,0-24.2,10.8-24.2,24.2c0,13.4,10.8,24.2,24.2,24.2c13.4,0,24.2-10.8,24.2-24.2
		C341.7,382.1,330.9,371.2,317.6,371.2z M317.6,410.2c-8.4,0-9.3-6.6-9.3-6.6h18.5C326.9,403.6,326,410.2,317.6,410.2z"/>
	<path class="st0" d="M31.8,371.3c-7.1,0-19.1,2.3-19.1,17.4v30.9h6.9v-19.3h15.6v-6.4H19.5v-5.3l0,0c0,0-0.3-4,2.6-7.1
		c2.3-2.4,5.8-3.7,10.6-3.7c1.6,0,3.3,0.1,5.1,0.4l0.7,0.1v-6.4l-0.5-0.1C37.9,371.8,35.3,371.3,31.8,371.3z"/>
	<path class="st0" d="M81.3,372.6h-6.9v30c0,11.9-11,12.4-12.3,12.4c-0.1,0-12.6-0.6-12.6-12.4v-30h-6.6v27.9
		c0,0.6-0.5,8.9,4.9,14.8c3.2,3.5,7.7,5.3,13.5,5.5l0,0h0.9h0.3h0.6l0,0c5.8-0.2,10.4-2.1,13.6-5.6c5.2-5.8,4.8-13.8,4.7-14.4
		L81.3,372.6L81.3,372.6z"/>
</g>
</svg>
