<svg xmlns="http://www.w3.org/2000/svg" viewBox="0.005247818306088448 0 21.064754486083984 31.990001678466797"><g>
					<path class="ingov-blue" d="M20.04,.1l-10.32-.1c-.43,0-.86,.09-1.26,.25l-1.7,.73c-.11,.04-.23,.06-.35,.05-.1,0-.21-.02-.3-.06l-1.02-.44c-.31-.15-.67-.1-.92,.14-.16,.17-.26,.39-.25,.62l-.3,22.49c-.02,.26-.1,.52-.25,.74l-2.34,3.21c-.25,.36-.43,.77-.53,1.19L.03,31.02c-.06,.24-.01,.5,.14,.7,.14,.17,.35,.27,.57,.27,.1,0,.21-.01,.31-.04l2.69-.82c.23-.05,.48-.03,.7,.05l1.12,.54c.16,.07,.33,.11,.5,.12,.34,.01,.67-.1,.93-.33l.6-.55c.14-.1,.31-.16,.48-.16h.06l.89,.18c.06,.01,.13,.02,.19,.02,.47,0,.91-.26,1.1-.7l.27-.64c.03-.06,.1-.09,.17-.08l1.93,.68c.11,.04,.22,.06,.33,.06,.42,0,.81-.21,1.03-.56l.32-.54c.17-.27,.37-.52,.61-.75l1.55-1.4c.36-.36,.53-.86,.46-1.36l-.07-.36h.04c.44,.11,.9,.11,1.34,0l1.86-.53c.44-.1,.72-.54,.62-.98-.03-.13-.09-.25-.18-.35l-.57-.75s0-.05,0-.07c0-.02,.02-.05,.04-.06l.31-.23c.38-.31,.61-.77,.64-1.27l.06-19.99c0-.56-.45-1.02-1.02-1.03Z" fill="#00142A">
					</path>
				</g></svg>