<svg version="1.1" id="Layer_1" xmlns="http://www.w3.org/2000/svg" xmlns:xlink="http://www.w3.org/1999/xlink" x="0px" y="0px" width="1000px" height="163.38px" viewBox="0 0 1000 163.38" enable-background="new 0 0 1000 163.38" xml:space="preserve"> <g> <g> <g> <path fill="#FF6702" d="M88.211,74.299c0,0.553,0.368-5.341,0.92-6.26c0-2.578,3.866-22.65,6.628-35.908 c1.657-8.288,5.156-21.361,5.156-21.361c1.29-5.341,4.419-8.288,7.734-9.576c6.077-2.209,21.729,2.947,25.965,6.998 c4.234,4.234,1.472,15.284-0.185,20.992l-25.597,97.043l-3.683,12.154c-0.736,2.21-1.104,2.579,0.185,6.075 c0.551,4.052,0.37,5.155-0.368,6.445c-4.051,4.605-18.598,2.579-24.123,1.104c-18.23-5.34-15.1-7.734-17.862-26.517 l-8.839-56.165l-0.92-5.524l-2.947,22.096c-3.129,22.285-13.626,57.644-13.994,58.373c-1.289,4.975-1.289,8.29-8.104,9.21 c-6.445,1.105-22.833-2.209-26.517-5.709c-4.234-4.23,0.922-19.703,1.29-21.728L30.94,18.871 c0.921-3.683,4.236-16.389,9.575-18.415c4.236-1.657,20.257,1.475,26.701,4.972c12.155,6.261,13.995,26.702,17.495,44.011 C86.553,58.831,88.211,74.299,88.211,74.299z"/> <path fill="#FF6702" d="M156.064,28.709c2.542-0.299,19.45,1.946,23.938,4.189c4.041,1.945,0.899,10.024-1.196,18.103 l-21.246,84.537c-2.542,9.874-4.339,18.704-12.718,17.807c-3.74-0.299-16.159-2.396-20.049-6.283 c-4.787-4.491-0.449-16.459,0.299-19.002l23.938-89.475C150.978,31.403,152.922,29.158,156.064,28.709z"/> <path fill="#FF6702" d="M234.312,60.729c0.15-2.096-1.645-3.441-4.189-2.994c-0.898,0.149-2.393,1.048-3.741,2.095 c-11.072,9.876-17.804,44.586-17.356,53.564c0.15,2.845,1.047,5.237,2.993,6.286c1.196,0.597,2.993,0.597,4.488-0.898 c3.292-3.144,5.237-11.223,9.577-14.365c4.339-2.992,13.466-4.038,19.15-1.794c2.693,1.048,4.788,2.546,5.087,5.388 c0.599,5.984-5.685,25.585-18.104,36.058c-9.126,7.78-24.686,11.221-33.364,8.379c-10.773-3.592-16.309-13.018-18.703-22.893 c-5.536-22.293,2.543-64.636,24.239-86.629c11.819-12.12,28.28-16.16,39.949-13.615c7.481,1.646,13.466,7.031,16.008,14.364 c1.797,5.236,1.797,20.498-2.693,25.882c-4.938,6.133-13.315,6.584-18.703,5.835c-3.142-0.299-5.684-1.646-6.733-4.19 C231.469,69.407,234.013,65.367,234.312,60.729z"/> <path fill="#FF6702" d="M298.046,75.689c15.261-7.778,21.995-15.259,29.326-29.624c2.095-4.041,3.741-8.679,4.339-10.475 c1.347-3.889,1.347-5.535,5.834-6.134c2.244-0.148,18.553,4.489,21.096,7.631c2.246,2.992-1.645,11.52-2.693,13.615 c-7.333,18.104-24.389,41.893-45.484,49.824c1.497,1.945,23.491,41.297,24.239,43.092c1.645,3.44,3.44,6.134,1.345,8.977 c-3.439,4.637-17.503,11.073-20.795,10.774c-4.489-0.151-11.223-14.517-12.568-17.358l-15.261-30.519l-7.481,33.212 c-0.597,2.396-1.646,5.089-4.041,4.64c-3.739-0.45-21.544-3.591-23.79-5.984c-3.142-3.141,0.3-13.616,1.348-17.207l22.292-85.882 c1.047-4.189,1.197-4.338,2.394-8.678c0.749-3.141,2.396-6.283,6.882-6.881c2.693-0.3,19.151,1.645,22.442,4.937 c3.292,3.44-1.046,14.96-1.945,18.104L298.046,75.689z"/> <path fill="#FF6702" d="M386.018,58.634c-1.197,0,9.725,3.891,10.771,7.331c0.449,0.897-2.094,13.167-2.094,13.167h11.969 c2.244,0,18.403-0.299,20.348,3.292c1.647,2.993-3.741,19.75-5.836,22.893c-3.292,5.686-12.865,3.74-17.654,3.441h-17.207 l-3.891,15.408h15.411c8.828,0,16.906-0.447,18.552,3.293c1.348,3.291-2.094,16.758-4.34,20.347 c-3.439,5.388-13.166,5.089-17.654,4.94h-17.954c-7.481,0.146-13.915,0.599-20.499-7.482 c-8.978-11.221-5.834-12.567-2.843-26.632l2.244-10.174c0.749-4.041-5.386-0.45-5.538-5.536 c-0.148-2.993,2.845-20.199,7.184-22.742c1.944-1.198,4.04-0.899,6.283-0.899c0,0,2.843-10.174,4.937-20.646 c-3.741-0.449-7.181,0-8.529-2.843c-1.346-2.542,4.788-20.199,5.686-21.845c2.843-4.938,9.875-4.338,17.056-4.338h40.847 c8.679,0,14.662,0.598,16.458,4.04c1.347,2.992-3.442,18.554-5.687,21.844c-2.094,3.74-4.488,3.891-8.978,3.891 c-1.346,0-2.693-0.299-4.787-0.45c-1.646-0.148-3.592-0.299-5.239-0.299L386.018,58.634L386.018,58.634z"/> <path fill="#FF6702" d="M462.019,120.728h17.208c12.417,0,14.812-0.749,16.757,2.394c1.646,2.691-4.788,22.742-5.387,24.091 c-3.292,6.432-9.125,5.534-16.906,5.534h-14.063c-7.333,0-14.365,1.048-19.75-5.986c-12.418-15.708-11.67-17.205-7.78-33.215 l18.853-73.912c1.944-4.638,2.394-9.426,7.631-10.772c4.338-1.197,21.694,2.992,23.788,5.386 c2.693,2.544-1.346,14.362-1.945,17.356L462.019,120.728z"/> <path fill="#FF6702" d="M558.373,43.971c4.338-3.891,16.456-15.112,20.646-13.766c4.786,1.346,7.332,8.378,8.827,13.614 c6.584,24.538,1.646,69.125-21.693,93.96c-11.521,12.12-27.829,17.655-38.752,15.265c-13.468-2.845-21.396-10.625-26.483-24.988 c-7.48-21.696-0.896-56.855,17.207-78.85c10.623-12.717,27.532-21.544,36.657-20.498c2.691,0.299,4.338,1.198,5.087,3.292 C560.617,33.796,559.569,38.584,558.373,43.971z M555.53,56.539c-0.451,1.197-0.451,2.245-1.647,3.292 c-0.599,0.899-2.691,1.947-3.291,2.394c-2.243,1.498-2.691,1.795-3.59,2.694c-12.569,10.473-19.151,35.01-17.506,45.634 c0.747,4.488,2.244,7.632,5.386,9.128c2.692,1.345,7.182-1.496,8.38-2.697c14.961-15.559,16.009-47.727,13.614-63.286 C556.425,53.396,555.53,56.09,555.53,56.539z"/> <path fill="#FF6702" d="M608.788,60.878c-3.441,1.346-7.479,4.339-10.471,3.59c-1.498-0.598-1.947-1.945-1.947-3.891 c-0.148-0.897,1.347-5.087,1.646-6.134l1.048-3.441c3.592-12.269,2.094-16.606,14.514-19.899 c17.207-4.338,43.391-4.787,60.446,12.27c13.466,13.316,14.362,37.557,10.323,53.115c-7.778,29.476-25.436,47.131-54.609,55.36 c-5.836,1.795-17.807,3.438-23.792-2.244c-17.505-16.609-14.363-18.556-10.771-35.462L608.788,60.878z M650.982,100.527 c4.789-9.877,6.883-24.389,0.147-34.264c-6.882-10.024-21.545-10.024-30.222-8.978c4.638,0.898,11.817,2.245,15.71,6.435 c3.44,4.038-0.299,13.766-1.349,17.355l-9.724,39.649C638.264,118.333,645.595,111.002,650.982,100.527z"/> <path fill="#FF6702" d="M724.59,58.634c-1.197,0,9.727,3.891,10.773,7.331c0.447,0.897-2.096,13.167-2.096,13.167h11.971 c2.242,0,18.4-0.299,20.348,3.292c1.647,2.993-3.741,19.75-5.834,22.893c-3.293,5.686-12.87,3.74-17.656,3.441h-17.205 L721,124.166h15.409c8.829,0,16.906-0.447,18.553,3.293c1.348,3.291-2.093,16.758-4.338,20.347 c-3.441,5.388-13.167,5.089-17.655,4.94h-17.957c-7.479,0.146-13.913,0.599-20.496-7.482 c-8.976-11.221-5.835-12.567-2.842-26.632l2.242-10.174c0.751-4.041-5.386-0.45-5.534-5.536 c-0.148-2.993,2.843-20.199,7.181-22.742c1.945-1.198,4.04-0.899,6.285-0.899c0,0,2.845-10.174,4.938-20.646 c-3.741-0.449-7.183,0-8.528-2.843c-1.346-2.542,4.787-20.199,5.687-21.845c2.842-4.938,9.875-4.338,17.058-4.338h40.845 c8.68,0,14.665,0.598,16.459,4.04c1.347,2.992-3.441,18.554-5.685,21.844c-2.095,3.74-4.489,3.891-8.98,3.891 c-1.345,0-2.69-0.299-4.787-0.45c-1.645-0.148-3.589-0.299-5.235-0.299L724.59,58.634L724.59,58.634z"/> <path fill="#FF6702" d="M829.618,43.971c4.341-3.891,16.458-15.112,20.647-13.766c4.787,1.346,7.331,8.378,8.826,13.614 c6.585,24.538,1.647,69.125-21.692,93.96c-11.521,12.12-27.83,17.655-38.751,15.265c-13.468-2.845-21.395-10.625-26.484-24.988 c-7.479-21.696-0.896-56.855,17.208-78.85c10.621-12.717,27.53-21.544,36.656-20.498c2.691,0.299,4.34,1.198,5.086,3.292 C831.864,33.796,830.815,38.584,829.618,43.971z M826.777,56.539c-0.45,1.197-0.45,2.245-1.647,3.292 c-0.6,0.899-2.694,1.947-3.292,2.394c-2.243,1.498-2.693,1.795-3.591,2.694c-12.569,10.473-19.15,35.01-17.505,45.634 c0.747,4.488,2.244,7.632,5.386,9.128c2.691,1.345,7.183-1.496,8.38-2.697c14.961-15.559,16.009-47.727,13.614-63.286 C827.673,53.396,826.777,56.09,826.777,56.539z"/> <path fill="#FF6702" d="M923.723,89.006c0,0.451,0.302-4.338,0.75-5.086c0-2.097,3.145-18.402,5.387-29.176 c1.347-6.733,4.189-17.356,4.189-17.356c1.046-4.338,3.592-6.731,6.285-7.78c4.937-1.796,17.653,2.395,21.096,5.685 c3.441,3.441,1.197,12.419-0.147,17.057l-20.802,78.852l-2.991,9.874c-0.598,1.794-0.896,2.096,0.15,4.937 c0.447,3.294,0.3,4.189-0.301,5.236c-3.292,3.74-15.11,2.097-19.599,0.896c-14.814-4.339-12.27-6.282-14.516-21.545 l-7.181-45.633l-0.751-4.491l-2.393,17.957c-2.542,18.105-11.07,46.829-11.37,47.43c-1.046,4.038-1.046,6.732-6.583,7.481 c-5.237,0.897-18.555-1.797-21.547-4.64c-3.441-3.442,0.751-16.011,1.05-17.655l22.741-87.079 c0.746-2.993,3.439-13.315,7.779-14.962c3.442-1.347,16.459,1.198,21.694,4.041c9.873,5.086,11.372,21.694,14.215,35.759 C922.378,76.438,923.723,89.006,923.723,89.006z"/> </g> </g> <path fill="#FF6702" d="M983.635,37.719l0.097-4.701l3.036-0.058c1.588-0.021,3.386,0.387,3.443,2.322 c0,2.362-1.896,2.495-3.849,2.437H983.635L983.635,37.719z M983.635,39.692l2.649,0.077l4.003,6.694l2.689-0.079l-4.292-6.772 c2.012-0.173,3.963-1.468,3.905-4.235c-0.038-2.997-1.933-4.352-5.438-4.352l-5.917-0.076v15.436h2.398v-6.693H983.635z M986.418,52.075c7.236,0,13.564-5.65,13.582-13.407c-0.097-7.643-6.364-13.171-13.582-13.307 c-7.329,0.018-13.579,5.626-13.579,13.404C972.764,46.425,979.089,52.033,986.418,52.075 M975.529,38.747 c-0.059-6.444,4.681-11.166,10.89-11.166c5.939,0,10.855,4.837,10.775,11.184c0,6.381-4.799,11.063-10.775,11.024 C980.401,49.868,975.413,45.031,975.529,38.747"/> </g> </svg>
