<svg xmlns="http://www.w3.org/2000/svg" role="img" viewBox="0 0 24 24" fill="none">
<title>Hiver</title>
<path fill-rule="evenodd" clip-rule="evenodd" d="M10.3106 0.941501C11.3553 0.32614 12.6445 0.32614 13.6892 0.941501L20.5539 4.98508C21.5923 5.59673 22.2315 6.72355 22.2315 7.94258V16.0574C22.2315 17.2764 21.5923 18.4032 20.5539 19.0149L13.6892 23.0585C12.6445 23.6738 11.3553 23.6738 10.3106 23.0585L3.44584 19.0149C2.40746 18.4032 1.76831 17.2764 1.76831 16.0574V7.94258C1.76831 6.72355 2.40746 5.59673 3.44584 4.98508L10.3106 0.941501Z" fill="#FDB022"/>
<path d="M8.89624 6.62842V6.62842C10.3899 6.62842 11.6007 7.83927 11.6007 9.33292V17.3023V17.3023C10.1071 17.3023 8.89624 16.0915 8.89624 14.5978V6.62842Z" fill="white"/>
<path d="M12.9509 11.4917V11.4917C14.4446 11.4917 15.6554 12.7025 15.6554 14.1962V17.5911V17.5911C14.1618 17.5911 12.9509 16.3802 12.9509 14.8866V11.4917Z" fill="white"/>
</svg>
