<svg version="1.1" id="Layer_1" xmlns="http://www.w3.org/2000/svg" xmlns:xlink="http://www.w3.org/1999/xlink" x="0px" y="0px" viewBox="0 0 390 47" style="enable-background:new 0 0 390 47;" xml:space="preserve">
 <style type="text/css">
  .st0{fill:#FFFFFF;}
	.st1{fill:#333366;}
	.st2{fill-rule:evenodd;clip-rule:evenodd;fill:#FFFFFF;}
 </style>
 <polygon class="st0" points="66.3,47.2 76.3,0 10,0 0,47.2 ">
 </polygon>
 <path class="st1" d="M49.3,9.9c7.7,1.8,7.9,3.7,7.9,3.7c5,0,6.3,0,7.2,0.9c2.9,2.7-2,9.3-2,9.3c-0.6,0.4-55.8,22-55.8,22h58.1
	L74,1.9H11.6C11.6,1.9,48.4,9.7,49.3,9.9">
 </path>
 <path class="st1" d="M55,16.3c-0.8,0.4-3.2,0.8-4,0.9s-1.2,0.1-1.2,0.3c0,0.3,1.1,0.2,1.5,0.2c1.8,0,8.9-0.5,10.6-0.2
	c1.3,0.2-0.2,2.8-0.6,4.4c-0.1,0.6,0.3,0.3,0.5,0c0.5-0.8,1.9-3.4,2-4.4c0.2-2-1.2-2.3-3.6-2.3h-3.7c-0.3,0-0.4,0.1-0.5,0.3
	C55.7,15.8,55.2,16.1,55,16.3">
 </path>
 <path class="st1" d="M32,31.1L2.3,45.8l7.2-33.7l0,0h30c0.5,0,16.1,0,16.4,3.1h-27L33.1,28c4.8-2.3,16.6-7.1,23.7-7.4
	c3-0.1,4.2,0.4,3.6,0.8c-0.4,0.2-3.3,0.6-5.6,1.2c-4,1-4.2,1-8.4,2.4C41.7,26.6,37.8,28.4,32,31.1">
 </path>
 <path class="st0" d="M94.2,47C82.6,47,75.7,42.4,78,32.1c3.8-17.8,6.3-29.7,6.3-29.7l9.7,0c0,0-5.9,27.4-5.7,26.8
	c-1.5,6.8,0,10.9,7.4,10.9c7.1,0,10.7-4.1,12.2-10.9c0.9-3.9,5.7-26.8,5.7-26.8l9.7,0c-6.5,29.7,0,0-6.4,29.7
	C114.5,42.2,105.7,46.9,94.2,47">
 </path>
 <path class="st0" d="M175.1,29.4c-1.5,0-4.7-0.2-6.3-0.5l1.2-6.3c1.2,0.1,2.8,0.3,4.3,0.3c6.6,0,9-4.5,9.5-7.2
	c1-4.8-1.4-6.5-4.9-6.5l-7.9,0l-7.8,36.9l-9.7,0l9.3-43.8l21,0c9.5,0,10.6,8.3,9.4,13.8C191.4,24.2,183.7,29.4,175.1,29.4">
 </path>
 <path class="st0" d="M154.6,9.3l-10.3,0c-5.3,0-7.6,1.1-8.1,3.2c-1.5,7,17.4,12.5,15.6,23.3c-1,6-6.2,10.3-18.3,10.3l-14.8,0l1.5-7
	l11.8,0c3.7,0,8.2,0.2,9-3.5c1.4-6.3-17.2-12.5-15.8-23c0.9-6.3,6.5-10.3,17.8-10.3l13,0L154.6,9.3z">
 </path>
 <path class="st0" d="M226.7,9.2l-10.3,0c-5.3,0-7.6,1.1-8.1,3.2c-1.5,7,17.4,12.5,15.6,23.3c-1,6-6.2,10.3-18.3,10.3l-14.8,0l1.5-7
	l11.9,0c3.7,0,8.2,0.2,9-3.5c1.4-6.3-17.2-12.5-15.8-23c0.9-6.3,6.5-10.3,17.8-10.3l13,0L226.7,9.2z">
 </path>
 <path class="st0" d="M230,38.2c-2.1,0-3.9,1.7-3.9,3.9c0,2.1,1.7,3.9,3.9,3.9c2.1,0,3.9-1.7,3.9-3.9C233.9,39.9,232.1,38.2,230,38.2
	">
 </path>
 <polygon class="st2" points="375.2,1.8 365.7,45.8 357.6,45.8 364.8,13.2 345.5,45.8 337.2,45.8 332.6,15.3 325.9,45.8 317.9,45.8 
	327.2,1.9 338.8,1.9 343.7,34.2 362.5,1.9 ">
 </polygon>
 <path class="st0" d="M255.6,46.8c-5.8,0-11-1.3-14.8-4.1c-3.8-2.8-6.1-7.2-6.1-13.1c0-1.8,0.2-3.7,0.7-5.8
	C238.6,8.1,251.7,1.1,265,1.1c3.2,0,6.7,0.4,9.8,1l0.7,0.1l-1.6,7.1l-0.6-0.1c-2.2-0.2-3.7-0.4-5.7-0.4c-1.8,0-3.5,0.1-5.4,0.3
	c-4.7,0.7-6.1,1.5-8.7,3.2c-3.9,2.4-7.3,6.5-8.5,11.9c-0.3,1.4-0.5,2.7-0.5,3.9c0,3.9,1.6,6.6,4.4,8.4c2.7,1.8,6.7,2.8,11.2,2.8
	c2.7,0,4-0.1,6.6-0.4l1-0.1l-1.5,6.9l-0.5,0.1C262.1,46.4,259.3,46.8,255.6,46.8L255.6,46.8z">
 </path>
 <path class="st0" d="M299.8,1.8c-13.4,0-24.5,7-27.7,22.3c-2.6,12.3,4.9,22.4,18.2,22.4c13.5,0,24.3-6.7,27.7-22.4
	C320.6,11.3,313,1.8,299.8,1.8 M309,24.2c-2.1,11-8.7,15.7-17,15.7c-8.2,0-12.7-7.1-11.2-15.7c2-10.8,8.8-15.6,17-15.6
	C306,8.5,310.7,15.2,309,24.2">
 </path>
 <path class="st0" d="M380,7.3c0-2.6,2-4.6,4.5-4.6s4.5,2,4.5,4.6c0,2.7-2,4.7-4.5,4.7C381.9,12,380,10,380,7.3 M379,7.3
	c0,3.1,2.5,5.5,5.5,5.5s5.5-2.4,5.5-5.5c0-3.1-2.5-5.4-5.5-5.4C381.5,1.8,379,4.2,379,7.3 M382.4,10.5l1,0l0-2.7l1.1,0l1.7,2.8
	l1.1,0l-1.8-2.8c1-0.1,1.7-0.6,1.7-1.7c0-1.2-0.7-1.8-2.2-1.8l-2.5,0l0,6.2 M383.4,4.9l1.3,0c0.7,0,1.4,0.1,1.4,1
	c0,1-0.8,1.1-1.7,1.1l-1,0L383.4,4.9L383.4,4.9z">
 </path>
</svg>