<svg xmlns="http://www.w3.org/2000/svg" viewBox="0 0 512 512"><defs><style>.cls-1{fill:#28ae60}.cls-3{fill:#fff}</style></defs><rect class="cls-1" x="6.3" y="8.49" width="499.4" height="499.4" rx="93.64"/><g style="isolation:isolate"><path class="cls-3" d="M95.89,239.11c31.53,0,36-11.88,36-33.64V167.21c0-42.48,27.49-61.38,62.07-61.38h10.94v33.8h-4.58c-19.88,0-24.89,12.11-24.89,31.09v34.67c0,27.62-10.41,47.43-37.4,51.85,27.92,4.54,37.4,24.28,37.4,52.78v34.59c0,19.26,7.09,32.14,25.82,32.14h3.65v33.81H194c-31.26,0-62.07-15.54-62.07-60.83V309.94c0-20.41-4.25-33.05-36-33.34Z"/><path class="cls-3" d="M416.11,277.27c-31.53,0-36,11.88-36,33.64v38.27c0,42.47-27.49,61.38-62.07,61.38H307.11V376.75h4.58c19.88,0,24.89-12.11,24.89-31.09V311c0-27.62,10.41-47.43,37.4-51.85-27.92-4.54-37.4-24.28-37.4-52.78V171.78c0-19.27-7.09-32.15-25.82-32.15h-3.65v-33.8h10.94c31.26,0,62.07,15.53,62.07,60.82v39.79c0,20.41,4.25,33.05,36,33.35Z"/></g></svg>