<svg xmlns="http://www.w3.org/2000/svg" viewBox="0 0 149 30"><path fill="#0064FE" fill-rule="evenodd" d="M109.57-.04H87.88v29.79h7.91V3.97h8.97c2.14 0 3.9 1.75 3.9 3.9v21.88h7.91V6.95c0-3.84-3.15-6.99-6.99-6.99zm32.2 0h-14.7c-3.84 0-6.99 3.15-6.99 6.99v15.81c0 3.84 3.15 6.99 6.99 6.99h14.7c3.85 0 6.99-3.15 6.99-6.99V6.95c0-3.84-3.15-6.99-7-6.99zm-4.81 4.01c2.14 0 3.9 1.75 3.9 3.9v13.98c0 2.14-1.75 3.9-3.9 3.9h-5.07c-2.14 0-3.9-1.75-3.9-3.9V7.87c0-2.14 1.75-3.9 3.9-3.9zM39-.04l17.42 0v4.01H43.81c-2.14 0-3.89 1.75-3.89 3.9v.76c0 2.14 1.75 3.9 3.89 3.9h12.61v4.01h-16.5v5.31c0 2.14 1.75 3.9 3.89 3.9h12.61v4.01H39c-3.84 0-6.99-3.15-6.99-6.99V6.95C32.01 3.11 35.16-.04 39-.04zm27.94 0h17.42v4.01H71.75c-2.14 0-3.9 1.75-3.9 3.9v13.98c0 2.14 1.75 3.9 3.9 3.9h12.61v4.01H66.94c-3.85 0-6.99-3.15-6.99-6.99V6.95c0-3.84 3.14-6.99 6.99-6.99zM28.48-.04H-.19v4.01h10.39v25.78h7.91V7.87c0-2.14 1.75-3.89 3.89-3.9h6.5z" clip-rule="evenodd"/></svg>
