<svg xmlns="http://www.w3.org/2000/svg" viewBox="0 0 192 192"><path fill="#4285F4" d="M73.508 16.406q2.719.003 5.438 0 5.682.004 11.362.052c4.847.04 9.693.044 14.539.036 3.739-.003 7.478.01 11.217.026q2.68.011 5.36.01c2.499.002 4.996.023 7.495.05l2.22-.009c5.38.09 9.409 1.341 13.53 4.851 4.393 5.243 7.584 11.015 10.83 17.015q1.844 3.35 3.693 6.696l1.899 3.442c3.042 5.456 6.188 10.85 9.347 16.237l3.308 5.645 1.594 2.717q1.79 3.047 3.59 6.085l1.918 3.252 1.754 2.964c2.849 5.144 3.15 9.776 2.398 15.525-3.285 8.081-7.996 15.635-12.437 23.125a6420 6420 0 0 0-3.684 6.258l-1.917 3.258c-2.021 3.46-4.014 6.933-5.997 10.413l-2.008 3.516a1923 1923 0 0 0-3.806 6.7C144.779 172.407 144.779 172.407 137 175c-2.594.111-5.162.167-7.757.177l-2.391.02q-3.918.028-7.836.041l-2.707.012q-7.092.031-14.185.045c-4.877.011-9.753.045-14.63.085-3.756.026-7.512.035-11.268.038q-2.695.008-5.391.035c-2.521.025-5.04.024-7.56.017-.737.013-1.474.025-2.233.04-5.538-.057-8.574-1.48-13.042-4.51-1.984-2.17-1.984-2.17-3.527-4.524-.58-.88-1.157-1.762-1.754-2.67-2.902-4.736-5.62-9.557-8.281-14.43a1271 1271 0 0 0-16.731-29.32A2317 2317 0 0 1 13 112l-1.474-2.51-1.362-2.369-1.193-2.057c-2.178-4.63-2.73-9.424-1.312-14.359 2.683-6.588 5.997-12.612 9.654-18.705l3.742-6.324 1.956-3.299c2.02-3.432 4.016-6.879 5.997-10.334l.999-1.742q2.381-4.152 4.754-8.307A984 984 0 0 1 40 33l1.716-3.029 1.726-2.92 1.494-2.585c7.722-9.225 17.425-8.17 28.572-8.06m3.298 47.224C75.21 66.004 74.134 68.376 73 71a251 251 0 0 1-3.683 5.734 2875 2875 0 0 0-3.754 6.016l-1.967 3.074-1.842 2.973-1.677 2.667C58.737 94.62 58.876 95.78 60 99a118 118 0 0 0 3.746 6.761c.37.632.743 1.264 1.125 1.915a991 991 0 0 0 2.358 3.981q1.81 3.046 3.6 6.103l2.292 3.876 1.086 1.844c1.452 2.43 2.782 4.51 4.793 6.52 10.592 2.296 24.742 4.25 35 0 8.098-5.926 12.167-16.982 15.768-25.998C131 101 131 101 133 98c-.248-4.958-2.187-8.536-4.781-12.64l-1.132-1.844a924 924 0 0 0-3.587-5.766q-1.21-1.956-2.418-3.914a1476 1476 0 0 0-3.402-5.495c-1.3-2.085-2.58-4.142-3.68-6.34a620 620 0 0 0-14.624-.496 250 250 0 0 1-4.97-.184c-13.647-.628-13.647-.628-17.6 2.31"/><path fill="#4285F4" d="m62.886 16.725 2.396-.015c2.612-.014 5.223-.013 7.835-.01l5.455-.014q5.717-.01 11.434-.002c4.878.006 9.756-.01 14.634-.034 3.756-.015 7.511-.016 11.267-.013q2.697 0 5.395-.016c2.518-.012 5.035-.005 7.553.006l2.24-.023c5.411.055 9.43 1.288 13.575 4.818 4.392 5.243 7.583 11.015 10.83 17.015q1.843 3.35 3.691 6.695l1.9 3.443c3.041 5.455 6.188 10.85 9.346 16.237.555.946 1.11 1.892 1.68 2.867l1.63 2.778 1.592 2.717q1.79 3.045 3.591 6.085l1.917 3.252 1.755 2.964c2.85 5.147 3.146 9.773 2.398 15.525-3.466 8.588-8.552 16.603-13.25 24.562l-1.89 3.23c-4.518 7.694-4.518 7.694-6.86 11.208h-2c-1.107-1.487-1.107-1.487-2.328-3.602l-1.405-2.395-1.517-2.628a846 846 0 0 0-14.375-23.563l-1.829-2.914-1.71-2.69-1.514-2.393C135 98 135 98 133 97a67 67 0 0 1-2.168-4.313c-3.518-7.256-7.839-13.988-12.1-20.824l-1.846-2.988-1.68-2.696C114 64 114 64 114 62l-2.448.107C82.348 63.318 53.212 62.722 24 62c3.995-8.28 8.336-16.31 13.014-24.222 1.06-1.799 2.106-3.607 3.152-5.415q1.026-1.745 2.056-3.488l1.837-3.133c5.037-7.116 10.433-9.045 18.827-9.017"/><path fill="#4285F4" d="m26.17 61.88 2.9.007h3.276l3.564.016c1.197 0 2.394.002 3.628.004q5.762.01 11.524.03 3.895.009 7.791.014Q68.427 61.967 78 62c-1.33 4.546-3.156 8.132-5.73 12.098q-1.092 1.713-2.182 3.428a830 830 0 0 1-3.438 5.318 524 524 0 0 0-3.318 5.19l-2.009 3.107C60 94 60 94 60.057 96.453c1.224 3.307 2.878 6.264 4.69 9.274.184.315.184.315 1.124 1.907a1389 1389 0 0 0 3.566 5.99l2.393 4.048c5.665 9.57 5.665 9.57 8.17 13.328-7.866.085-15.73.1-23.596.067-2.677-.008-5.349.01-8.026.039-3.849.04-7.694.02-11.542-.008l-3.618.074c-8.127-.14-8.127-.14-11.25-3.092-1.553-2.301-2.774-4.577-3.968-7.08a292 292 0 0 0-2.739-4.465 941 941 0 0 1-2.574-4.472c-.44-.734-.883-1.468-1.338-2.225-3.526-6.194-5.512-12.216-3.724-19.322 2.4-6.43 5.97-12.257 9.562-18.078l1.654-2.73c4.68-7.681 4.68-7.681 7.33-7.828"/><path fill="#1967D2" d="M24 130c7.58-.228 15.159-.386 22.742-.494q3.867-.069 7.734-.185a598 598 0 0 1 11.126-.2l3.485-.141c7.805-.005 7.805-.005 10.85 2.811 1.581 2.332 2.834 4.676 4.063 7.209a226 226 0 0 0 2.394 3.896q1.143 1.919 2.278 3.842l1.238 2.085q1.276 2.153 2.55 4.308 1.949 3.293 3.903 6.582 1.25 2.106 2.496 4.213l1.171 1.973c1.765 2.989 3.44 5.986 4.97 9.101-6.992.102-13.985.172-20.978.22q-3.565.03-7.132.082c-3.423.048-6.845.071-10.269.089l-3.205.062c-6.385.002-10.267-.573-15.416-4.453-1.96-2.13-1.96-2.13-3.484-4.453l-1.748-2.662c-3.147-5.136-6.113-10.359-9.018-15.635l-1.852-3.324c-2.736-4.93-5.401-9.87-7.898-14.926"/><path fill="#1967D2" d="M60.044 16.773h3.033c1.073.01 2.146.02 3.25.032l3.347.008c3.526.012 7.05.037 10.576.062q3.585.015 7.172.027Q96.21 16.936 105 17c-4.597 8.6-9.478 17.01-14.46 25.392a2925 2925 0 0 0-3.903 6.594L84.14 53.19l-1.171 1.986C81.463 57.703 80.089 59.91 78 62c-2.291.24-2.291.24-5.184.227H69.54l-3.548-.032-3.623-.008c-3.832-.011-7.663-.037-11.494-.062q-3.889-.016-7.777-.027Q33.549 62.064 24 62c4.074-8.255 8.329-16.3 13.014-24.221a748 748 0 0 0 3.152-5.416q1.027-1.745 2.057-3.488l1.836-3.133c4.062-5.738 8.949-9.005 15.985-8.97M162 52c2.99 2.625 4.696 5.697 6.652 9.137l1.035 1.813q1.081 1.898 2.156 3.8 1.626 2.874 3.264 5.74C186.444 92.396 186.444 92.396 185 101c-3.556 8.571-8.542 16.587-13.25 24.562l-1.891 3.229c-4.516 7.695-4.516 7.695-6.859 11.209h-2c-1.106-1.487-1.106-1.487-2.328-3.602l-1.406-2.394-1.516-2.629c-3.443-5.894-6.937-11.724-10.691-17.426l-1.955-2.98a547 547 0 0 0-3.822-5.719l-1.739-2.652-1.562-2.328c-1.278-2.956-1.002-4.235.019-7.27 1.439-2.732 1.439-2.732 3.281-5.684l2.041-3.293 2.178-3.461 2.196-3.525c2.09-3.353 4.195-6.696 6.304-10.037l1.621-2.567c6.996-11.05 6.996-11.05 8.379-12.433"/></svg>