<svg xmlns="http://www.w3.org/2000/svg" width="1574" height="348" viewBox="0 0 1574 348" version="1.2"><path fill="#005e60" fill-rule="evenodd" d="M534.7 147.1c-8.5-8.1-19.9-12.7-31.7-12.5-21.4 0-37.5 16.9-37.5 38.9s16.3 38.9 38.5 38.9c10.1 0 21.2-2.9 28.5-7.5v-21.4h-31.9v-16H550v45.9c-10.5 9.6-29.6 15.6-46 15.6-31.8 0-56.5-24.6-56.5-55.4-.1-30.5 24.5-55.3 55-55.4h.5c17.4 0 32.5 6.2 43.3 16.6zm67.7 33.9v29h63.4v16.2h-81.2V120.8h81.2v16.1h-63.4V165h53.7v16.1zm128.2-60.2h19.3l35.6 84.2 35.5-84.2h18.4l-45.2 105.4h-18.4zm150 60.2v29H944v16.2h-81.2V120.8H944v16.1h-63.4V165h53.6v16.1zm168.3 45.2-22.9-39.6h-31v39.6h-17.8V120.8h56.2c20.7 0 36 14.2 36 33 0 15-9.9 27.1-24.3 31.3l24.3 41.1zm2.5-72.4c0-10.5-6.8-17-17.9-17H995v33.6h38.5c11.1 0 17.9-6.3 17.9-16.6m52.1-33h18.7l59 78.1v-78.1h17.4v105.4h-17.9l-59.8-78.6v78.6h-17.4zm126.9 52.7c0-30.7 24.8-55.7 55.6-55.8 30.8 0 55.7 24.8 55.8 55.5 0 30.8-24.8 55.7-55.6 55.8h-.1c-30.6.1-55.6-24.5-55.7-55.1zm93.4 0c0-21.5-16.8-38.9-37.7-38.9-20.8 0-37.7 17.4-37.7 38.9 0 21.6 16.9 39 37.7 39 20.9 0 37.7-17.4 37.7-39m31-52.7h19.3l35.6 84.2 35.5-84.2h18.5l-45.3 105.4H1400zM1574 226.2h-19.2l-11.1-26.6h-50l-11.1 26.6h-18.2l45.2-105.4h19.3zm-37.1-42.6-18.1-43.7-18.2 43.7zM173.8 347.1C77.8 347.1.2 269.5.2 173.5.2 77.6 77.8 0 173.8 0c95.9 0 173.5 77.6 173.5 173.5 0 96-77.6 173.6-173.5 173.6m-.2-339C82.1 8 8 82 7.9 173.4c-.1 91.3 74 165.4 165.4 165.4 91.4.2 165.7-73.9 165.7-165.2v-.1C339 82.3 265 8.2 173.6 8.1M320.7 223c-.1.1-.4.3-.9.2-.3-.1-.4-.4-.4-.6 3.7-12 5.6-24.4 5.8-37-.2-21.1-8.7-34.2-19.8-34.2-6.8 0-11.5 4.8-11.5 12 0 12.9 15.8 13.9 15.8 42.3 0 11.6-2.3 22.6-6.3 34.7-17.8 60.1-74.5 88-129.8 88-25.5 0-43.6-5.2-49.1-7.7-.2-.2-.4-.6-.2-1 .1-.3.5-.6.7-.5 12 3.9 24.5 5.8 37 5.8 21.1 0 33.7-8.6 33.7-19.2 0-6.6-5.2-12-11.9-12h-.2c-13 0-14 16.3-41.9 16.3-12 0-22.6-2.3-35.1-6.3-59.7-18.3-88.1-74.5-88-130.3 0-16.7 2.6-33.2 7.8-49 .3-.3.6-.3.9-.1.4.1.5.5.5.6-3.7 12-5.7 24.4-5.8 37 0 21.1 8.6 33.7 19.7 33.7 6.3.1 11.5-4.9 11.5-11.2v-.3c0-12.9-15.8-14.4-15.8-42.3 0-12 2.4-22.6 6.3-35.1C62 47.2 118.2 19.2 173.6 18.9c25.7-.3 48.1 7.5 49 8.1.3.3.3.6.1.9-.1.5-.5.5-.6.5-.2 0-14.9-6.2-37-6.2-20.7 0-33.6 8.6-33.6 19.7 0 6.3 5 11.5 11.4 11.6h.7c12.9 0 13.9-15.9 41.8-15.9 12 0 22.7 2.4 35.1 6.3 60.2 18.3 87.5 75 88 129.8.1 16.6-2.5 33.4-7.8 49.3m-82.6-41.2c-16.4 0-29 11.9-29 26.4 0 11.9 7.2 21.6 16.9 21.6 3.3 0 6.6-2 6.6-6.3 0-6.3-8.3-7.8-7.6-17.2.3-6.2 6.1-10.2 11.9-10.2 11.5 0 17 11.2 17 22.7-.5 17.7-13.6 30.1-28.9 30.1-20.3 0-33.1-19.3-33.1-39.9 0-30.7 20.1-42.8 30.7-45.6.1 0 27.7 4.9 26.8-7.3-.3-5.3-8.3-7.4-14.1-7.7-4.3 0-8.6.7-12.8 2.1-3.5-1.9-5.9-5-7.2-8.9 19.8-14.9 33.6-29.3 33.6-45.6 0-8.6-5.8-16.3-16.8-16.3-19.7 0-34.6 25.1-34.6 47.6-.1 3.7.2 7.4 1 11.1-12.5 9.2-21.7 14.8-38.6 25 .2-5 .8-9.8 1.8-14.6 5.8-6.3 13.7-15.5 13.7-22.8 0-3.4-2-6.3-5.8-6.3-9.6 0-16.8 14.4-18.8 24.5-4.3 5.3-12.9 12-20.2 12-5.8 0-7.7-5.3-8.2-7.1 18.3-6.3 40.9-31.3 40.9-53.9 0-4.8-2-15.4-16.3-15.4-21.6 0-39.9 32.2-39.9 57.3-7.7 0-10.6-8.2-10.6-14.5 0-6.2 2.3-12.4 2.3-14.4s-1-4.3-3.8-4.3c-7.2 0-11.5 9.6-11.5 20.7.5 15.4 10.6 25.1 24.1 25.9 2 9.2 10.1 17.8 20.3 17.8 6.3 0 13.9-2 19.2-6.8-.5 3.3-1 6.3-1.5 9.1-21.1 11.2-36.5 18.8-50.5 31.3-11 10.1-17.3 23.5-17.3 34.2 0 14.4 9.2 27.8 27.9 27.8 22.2 0 39-17.7 47.1-42.3 3.8-11.6 5.4-28.4 6.3-43.7 15.2-8.4 30-17.7 44.1-27.9 1.3 2.3 2.9 4.2 4.8 5.8-10.1 5.3-34.1 20.3-34.1 55.3 0 25.1 16.8 53 50.1 53 27.4 0 46.2-22.6 46.2-44.2.1-20-11-38.3-32.1-38.1m-116.4-46.2c0-15.9 15.7-46 25.2-42.8 11.3 3.7-9.4 34-25.2 42.8m-16 113.4c-7.1.4-11.9-4.3-11.9-12 0-20.7 28.6-40.3 50.2-50.9-3.8 28.9-13.6 61.8-38.3 62.9m106.9-120.7c0-19.7 13.4-38.9 20.6-35.3 8.3 4.2-6.3 22.9-20.6 35.3"/></svg>