<svg xmlns="http://www.w3.org/2000/svg" xmlns:xlink="http://www.w3.org/1999/xlink" version="1.1" xml:space="preserve" viewBox="249.8 192.24 66.61 34.03"> <defs> </defs> <g transform="matrix(1.78 0 0 1.78 283.1 209.25)"> <path style="stroke: none; stroke-width: 1; stroke-dasharray: none; stroke-linecap: butt; stroke-dashoffset: 0; stroke-linejoin: round; stroke-miterlimit: 1.4142; fill: rgb(30,64,124); fill-rule: nonzero; opacity: 1;" transform=" translate(-22.76, -30.78)" d="m 36.224 23.815 c 0.206 -0.064 0.467 -0.089 0.683 -0.05 c 1.155 0.197 1.582 2.132 1.482 4.881 c -0.114 3.163 -1.355 8.327 -3.647 8.352 c -0.175 0.001 -0.392 0 -0.557 -0.059 l -2.269 -15.352 h -4.211 l 1.67 10.059 c -0.305 2.016 -1.179 4.934 -2.973 5.238 c -0.175 0.029 -0.613 0.058 -0.847 0.011 l -2.261 -15.308 h -4.213 l 3.077 18.536 c 1.035 0.263 2.172 0.28 3.134 0.067 c 2.305 -0.512 4.071 -2.761 4.644 -5.163 l 0.847 5.097 c 1.004 0.226 1.604 0.224 2.478 0.21 c 2.315 -0.04 4.159 -1.31 5.432 -3.242 c 1.965 -2.987 2.783 -7.282 2.783 -10.809 c 0 -2.894 -0.877 -5.06 -3.055 -5.06 c -1.085 0 -2.265 0.898 -2.359 2.459 c -0.004 0.055 0.008 0.096 0.045 0.122 c 0.033 0.023 0.081 0.023 0.117 0.011 z m -28.094 5.755 c 2.18 -0.168 3.203 -0.588 4.075 -1.158 c 0.977 -0.64 1.428 -1.515 1.469 -2.347 c 0.048 -0.983 -0.537 -2.011 -2.287 -2.413 c -0.92 -0.211 -2.146 -0.203 -3.257 -0.046 z m 1.745 8.383 c 1.449 0 2.218 -0.282 2.885 -0.665 c 1.197 -0.688 1.881 -2.106 1.741 -3.582 c -0.137 -1.438 -1.101 -2.363 -2.489 -2.761 c -1.017 -0.289 -2.431 -0.286 -3.882 0.099 v 6.744 c 0.48 0.108 1.187 0.165 1.745 0.165 z m 4.501 -8.641 c 0.694 0.136 1.474 0.404 2.103 0.749 c 1.906 1.049 2.62 2.711 2.409 4.694 c -0.208 1.931 -1.507 3.607 -3.406 4.517 c -1.171 0.559 -2.52 0.882 -4.125 1.001 c -2.264 0.166 -4.875 0.016 -7.305 -0.429 v -18.006 c 1.97 -0.323 4.185 -0.603 6.135 -0.601 c 2.114 0.002 3.563 0.214 4.987 0.88 c 1.686 0.79 2.277 2.134 2.292 3.254 c 0.014 1.114 -0.649 2.87 -3.09 3.941 z" stroke-linecap="round"/> </g> </svg>
