<svg xmlns="http://www.w3.org/2000/svg" version="1.1" viewBox="0 0 225 225">
  <g id="Background">
    <rect fill="#f6881f" width="225" height="225" rx="20" ry="20"/>
  </g>
  <g id="Clock">
    <path fill="#fff" d="M112.5,12.5C57.3,12.5,12.5,57.3,12.5,112.5s44.8,100,100,100,100-44.8,100-100S167.7,12.5,112.5,12.5ZM112.5,197.1c-46.7,0-84.6-37.9-84.6-84.6S65.8,27.9,112.5,27.9s84.6,37.9,84.6,84.6-37.9,84.6-84.6,84.6Z"/>
    <path fill="#fff" opacity="0.3" d="M 109.5,126.5 L 68.5,167.5 A 70.4,70.4 0 1,1 182.5,104.8 L 124.5,104.8 Z"/>
    <rect fill="#fff" height="15.4" width="70" x="112.5" y="104.8"/>
    <rect fill="#fff" height="15.4" transform="rotate(135, 112.5, 112.5)" width="70" x="112.5" y="104.8"/>
    <circle fill="#fff" cx="112.5" cy="112.5" r="12"/>
  </g>
</svg>
