<svg xmlns="http://www.w3.org/2000/svg" viewBox="0 0 24 24" fill="currentColor">
  <title>PicoClaw</title>
  <ellipse cx="12" cy="12.5" rx="5.5" ry="6"/>
  <ellipse cx="12" cy="7.5" rx="4" ry="3.5"/>
  <path d="M9.5 5.5 Q7 2 5.5 2.5" stroke="currentColor" stroke-width="1" fill="none" stroke-linecap="round"/>
  <path d="M14.5 5.5 Q17 2 18.5 2.5" stroke="currentColor" stroke-width="1" fill="none" stroke-linecap="round"/>
  <circle cx="5.2" cy="2.5" r="1"/>
  <circle cx="18.8" cy="2.5" r="1"/>
  <path d="M5.5 10 Q2 8.5 2 11 Q2 13.5 5 12.5"/>
  <path d="M18.5 10 Q22 8.5 22 11 Q22 13.5 19 12.5"/>
  <rect x="10" y="18" width="4" height="2" rx="1"/>
  <rect x="10.5" y="20" width="3" height="1.5" rx=".75"/>
  <path d="M10 21.5 Q12 23.5 14 21.5"/>
</svg>
