<svg version="1.2" xmlns="http://www.w3.org/2000/svg" viewBox="0 0 1600 293" width="1600" height="293">
	<title>Onex</title>
	<path fill-rule="evenodd" fill="#002f87" d="m0.8 103.9c0-83.9 47.2-103.9 126.3-103.9h140.9c79.1 0 126.3 19.7 126.3 103.9v85.5c0 83.9-47.2 103.6-126.3 103.6h-140.9c-79.1 0-126.3-19.7-126.3-103.6zm90.3 58.3c0 41.6 8.8 57.6 50.4 57.6h112.4c41.5 0 50.3-15.8 50.3-57.6v-30.9c0-35.7-8.8-57.5-55.1-57.5h-103.1c-46.4 0-55.2 21.8-55.2 57.5v30.9zm337.6-158.7h136.1l165.4 208.3h0.8v-208.3h88.2v286.6h-136.4l-165.4-208.3h-0.8v208.3h-87.9zm430.2 0h313.2v66.6h-225.6v45.8h213.9v59.4h-213.9v45.8h231v69h-318.6z"/>
	<path fill="#002f87" d="m1483.3 290.1l-94.9-104.2-94.5 104.2h-118.1l140.7-143.9-130.8-142.7h113.7l89 100.1 89.3-100.1h113.7l-130.8 142.7 138.5 143.9z"/>
</svg>