<svg version="1.1" id="Layer_1" xmlns:x="ns_extend;" xmlns:i="ns_ai;" xmlns:graph="ns_graphs;" xmlns="http://www.w3.org/2000/svg" xmlns:xlink="http://www.w3.org/1999/xlink" x="0px" y="0px" viewBox="0 0 556.6 79.4" style="enable-background:new 0 0 556.6 79.4;" xml:space="preserve">
 <style type="text/css">
  .st0{fill:#2B2869;}
 </style>
 <metadata>
  <sfw xmlns="ns_sfw;">
   <slices>
   </slices>
   <sliceSourceBounds bottomLeftOrigin="true" height="79.4" width="556.6" x="0" y="-0.5">
   </sliceSourceBounds>
  </sfw>
 </metadata>
 <symbol id="MQ_LOGO_DARK" viewBox="-752.1 -107.3 1504.3 214.6">
  <path id="path-1_1_" class="st0" d="M-220.1,80.4v-110l-31.2,70.4h-18.1l-31.2-70.1V80.4h-27.5V-80.4h31.5L-260-1.1l36.2-79.3h31.2
		V80.4H-220.1z M-83.3-44.1l-21.9,63.5h43.5L-83.3-44.1z M-39.8,80.4l-11.9-34.1h-61.4L-125,80.4h-30.3l56.5-160.8h33L-9.5,80.4
		H-39.8z M107.9-43c0,0,0-1.6-0.3-1.9c-1.6-3-5.8-8.4-8.4-8.6H51.6v43.1h46.3c2.4,0,7.6-5.4,9.7-9.2c0.2-0.3,0.3-0.7,0.3-1.1
		L107.9-43z M113.1,80.4L77.9,16.5H52.6v63.8H25V-80.4h73.8c6.8,0.1,13.3,2.1,18.9,5.9c3.7,2.7,11.6,11.3,13.9,14.8
		c3.1,4.9,4.7,10.6,4.7,16.4v23.2c0.1,5.8-1.6,11.5-4.7,16.4c-2.4,3.5-10.2,11.6-13.9,14.3c-2.9,2-6.2,3.3-9.7,4l37.6,65.7
		L113.1,80.4z M207.4,41.7c0,0,0,0.8,0.3,1.1c3.2,4.8,8.8,10.7,11.7,12.3c0.4,0.2,0.9,0.3,1.3,0.3h6.1l-4-9.4l25.5-8.6l7.7,18h3.5
		c0.5,0,0.9-0.1,1.3-0.3c2.9-1.6,8-7.5,11.1-12.3c0.2-0.3,0.3-0.7,0.3-1.1v-82.8c0,0,0-0.8-0.3-1.1c-3.2-4.8-8.2-9.6-11.2-11.2
		c-0.4-0.2-0.9-0.3-1.3-0.3h-38.7c0,0-1.1,0-1.3,0.3c-4.6,2.9-8.6,6.8-11.7,11.2c-0.2,0.3-0.3,0.7-0.3,1.1L207.4,41.7z M266.1,82.2
		l10.4,23.3h-29.5l-9.8-23.3h-17.5c-5.8-0.1-11.5-1.8-16.5-4.8c-5.6-3.2-16.2-14.7-19.4-19.3c-2.9-4.6-4.4-9.9-4.2-15.3v-83.8
		c-0.1-5.4,1.4-10.7,4.2-15.2c3.2-4.5,13.8-16.1,19.4-19.3c5-3,10.7-4.7,16.5-4.8H260c5.8,0.2,11.5,1.8,16.5,4.8
		c5.6,3.2,15.9,14.7,19.4,19.3c2.9,4.6,4.4,9.9,4.2,15.3v83.9c0.1,5.4-1.3,10.7-4.2,15.3c-3.4,4.6-13.8,16.1-19.4,19.3
		c-4,2.1-6.6,3.8-10.6,4.3L266.1,82.2z M347.2,80.4V-80.4h101.5v26.9h-74.8v40.6h70.8V14h-70.8v39.5h74.8v26.9L347.2,80.4z
		 M559-53.5V80.4h-28.3V-53.5H487v-26.9h115.6v26.9H559z M679.4-44.1l-21.9,63.4H701L679.4-44.1z M721.9,80.4L710,46.2h-61.4
		l-11.9,34.1h-30.3l56.5-160.8h33l56.2,160.8H721.9z">
  </path>
  <polygon class="st0" points="-752.1,-107.3 -629.4,-107.3 -556.5,0 -611.1,80.5 -570.5,80.5 -515.6,0 -588.5,-107.3 -466,-107.3 
		-392.9,0 -466,107.3 -506.7,107.3 -433.8,0 -488.4,-80.5 -529.3,-80.5 -474.7,0 -547.6,107.3 -670.3,107.3 -597.4,0 -652.3,-80.5 
		-693.2,-80.5 -638.1,0 -711.2,107.3 -752.1,107.3 -679,0 	">
  </polygon>
 </symbol>
 <g id="Layer_2_1_">
  <g id="Layer_1-2">
   <g>
    <use href="#MQ_LOGO_DARK" width="1504.3" height="214.6" x="-752.1" y="-107.3" transform="matrix(0.37 0 0 0.37 278.2955 39.6955)" style="overflow:visible;">
    </use>
   </g>
  </g>
 </g>
</svg>