<svg version="1.1" id="Layer_1" xmlns:x="ns_extend;" xmlns:i="ns_ai;" xmlns:graph="ns_graphs;" xmlns="http://www.w3.org/2000/svg" xmlns:xlink="http://www.w3.org/1999/xlink" x="0px" y="0px" viewBox="0 0 553.4 78.9" style="enable-background:new 0 0 553.4 78.9;" xml:space="preserve">
 <style type="text/css">
  .st0{fill:#FFFFFF;}
 </style>
 <metadata>
  <sfw xmlns="ns_sfw;">
   <slices>
   </slices>
   <sliceSourceBounds bottomLeftOrigin="true" height="78.9" width="553.4" x="0" y="0">
   </sliceSourceBounds>
  </sfw>
 </metadata>
 <g id="Layer_2_1_">
  <g id="Layer_1-2">
   <g id="White_MQ_Logo">
    <path id="path-1" class="st0" d="M195.7,69V28.6l-11.5,25.9h-6.7l-11.5-25.8V69H156V9.9h11.6l13.5,29.2l13.3-29.2h11.5V69H195.7z
				 M246.1,23.2L238,46.6h16L246.1,23.2z M262.1,69l-4.4-12.6h-22.6L230.7,69h-11.1l20.8-59.1h12.1L273.2,69H262.1z M316.4,23.6
				c0,0,0-0.6-0.1-0.7c-0.6-1.1-2.1-3.1-3.1-3.2h-17.5v15.9h17c0.9,0,2.8-2,3.6-3.4c0.1-0.1,0.1-0.3,0.1-0.4L316.4,23.6z M318.3,69
				l-12.9-23.5H296V69h-10.1V9.9h27.2c2.5,0,4.9,0.8,7,2.2c1.9,1.6,3.6,3.4,5.1,5.4c1.1,1.8,1.7,3.9,1.7,6V32c0,2.1-0.6,4.2-1.7,6
				c-1.5,2-3.2,3.8-5.2,5.3c-1.1,0.7-2.3,1.2-3.6,1.5L330.3,69H318.3z M353,54.8c0,0.1,0,0.3,0.1,0.4c1.2,1.8,2.6,3.3,4.3,4.5
				c0.2,0.1,0.3,0.1,0.5,0.1h2.2l-1.5-3.5l9.3-3.2l2.8,6.6h1.3c0.2,0,0.3,0,0.5-0.1c1.6-1.3,3-2.8,4.1-4.5c0.1-0.1,0.1-0.3,0.1-0.4
				V24.4c0,0,0-0.3-0.1-0.4c-1.1-1.6-2.5-3-4.1-4.1c-0.2-0.1-0.3-0.1-0.5-0.1h-14.2c0,0-0.4,0-0.5,0.1c-1.7,1.1-3.2,2.5-4.3,4.1
				c-0.1,0.1-0.1,0.3-0.1,0.4L353,54.8z M374.6,69.7l3.8,8.6h-10.8l-3.6-8.6h-6.5c-2.1,0-4.2-0.7-6.1-1.8c-2-1.2-6-5.4-7.1-7.1
				c-1.1-1.7-1.6-3.6-1.6-5.6V24.4c0-2,0.5-3.9,1.6-5.6c1.2-1.7,5.1-5.9,7.1-7.1c1.8-1.1,3.9-1.7,6.1-1.8h14.9
				c2.1,0.1,4.2,0.7,6,1.8c2.1,1.2,5.9,5.4,7.1,7.1c1.1,1.7,1.6,3.6,1.6,5.6v30.8c0,2-0.5,3.9-1.6,5.6c-1.3,1.7-5.1,5.9-7.1,7.1
				c-1.2,0.8-2.5,1.3-3.9,1.6L374.6,69.7z M404.4,69V9.9h37.3v9.9h-27.5v14.9h26v9.9h-26v14.5h27.5V69H404.4z M482.3,19.7V69h-10.4
				V19.8h-16.1V9.9h42.5v9.9L482.3,19.7z M526.6,23.2l-8.1,23.4h16L526.6,23.2z M542.2,69l-4.4-12.6h-22.6L510.9,69h-11.1l20.8-59.1
				h12.1L553.4,69H542.2z">
    </path>
    <polygon class="st0" points="0,0 45.2,0 72,39.5 51.9,69.1 66.8,69.1 87,39.5 60.2,0 105.3,0 132.2,39.5 105.3,78.9 90.3,78.9 
				117.1,39.5 97,9.9 82,9.9 102.1,39.5 75.2,78.9 30.1,78.9 56.9,39.5 36.7,9.9 21.7,9.9 42,39.5 15.1,78.9 0,78.9 26.9,39.5 			
				">
    </polygon>
   </g>
  </g>
 </g>
</svg>