<svg version="1.0" xmlns="http://www.w3.org/2000/svg" width="2555.000000pt" height="810.000000pt" viewBox="0 0 2555.000000 810.000000" preserveAspectRatio="xMidYMid meet"> <g transform="translate(0.000000,810.000000) scale(0.100000,-0.100000)" fill="#ED1C24" stroke="none"> <path d="M491 8054 c-152 -41 -296 -153 -383 -300 -92 -153 -83 142 -86 -2817 l-2 -2618 24 -24 25 -25 287 0 c321 0 358 5 479 68 48 25 96 63 155 122 113 112 156 192 181 339 17 98 18 180 19 1067 0 926 1 965 20 1060 44 214 163 374 340 458 62 30 70 31 195 31 142 0 163 -5 255 -63 74 -47 124 -103 167 -187 105 -205 103 -176 103 -1615 0 -741 4 -1218 10 -1234 18 -47 33 -49 350 -47 285 2 298 3 369 27 96 32 144 61 224 135 81 73 143 167 188 279 l34 85 0 1085 0 1085 -33 200 c-50 305 -132 550 -240 719 -221 345 -520 506 -943 506 -159 0 -288 -20 -409 -62 -186 -66 -335 -159 -461 -289 -89 -92 -129 -114 -156 -87 -13 14 -15 140 -13 1042 l1 1026 -25 25 -25 25 -298 -1 c-226 0 -311 -4 -352 -15z"/> <path d="M5845 7645 c-173 -33 -299 -98 -421 -220 -106 -105 -139 -160 -131 -218 7 -54 39 -84 101 -96 28 -5 62 -9 76 -8 75 4 334 -41 440 -77 25 -8 77 -24 115 -34 85 -24 265 -97 400 -162 300 -145 630 -386 871 -636 111 -116 144 -135 152 -91 12 63 -200 505 -365 761 -132 204 -334 429 -490 544 -161 118 -339 199 -515 233 -113 22 -137 22 -233 4z"/> <path d="M4786 6687 c-249 -31 -398 -79 -556 -178 -123 -78 -215 -189 -278 -334 -58 -133 -66 -181 -66 -396 -1 -260 0 -261 176 -219 46 10 142 26 213 35 72 9 175 23 230 31 163 25 321 33 668 34 340 0 410 -6 632 -51 253 -51 365 -99 365 -156 0 -32 -57 -57 -163 -73 -109 -16 -308 -72 -472 -132 -260 -95 -497 -219 -683 -358 -102 -76 -327 -292 -385 -370 -172 -231 -279 -460 -334 -716 -26 -123 -28 -142 -28 -399 0 -220 4 -288 19 -369 34 -185 129 -419 229 -566 60 -88 258 -279 357 -345 194 -130 474 -234 700 -261 137 -16 393 -18 545 -4 212 21 543 116 770 224 326 154 636 406 851 693 100 133 221 354 284 516 39 102 95 318 115 449 19 119 36 596 24 679 -14 103 -11 138 16 164 31 31 54 31 168 -1 119 -34 251 -93 340 -150 91 -59 111 -66 142 -52 40 18 48 69 42 273 -4 160 -8 191 -34 282 -37 126 -77 194 -171 288 -167 166 -467 275 -759 275 -35 0 -78 6 -97 14 -20 8 -88 74 -172 165 -76 84 -172 180 -213 214 -40 34 -96 81 -125 105 -214 180 -608 403 -905 513 -223 83 -468 144 -706 176 -173 23 -554 23 -739 0z m2080 -2021 c12 -8 46 -57 77 -108 154 -258 204 -497 162 -775 -80 -533 -465 -967 -935 -1054 -36 -7 -128 -11 -205 -10 -223 2 -313 33 -440 153 -119 111 -183 236 -220 429 -8 45 -15 105 -15 134 0 114 53 331 107 440 141 281 423 528 753 658 270 106 653 177 716 133z"/> <path d="M10828 6374 c-204 -37 -419 -133 -583 -263 -112 -88 -132 -98 -160 -77 -18 13 -20 27 -20 125 0 165 17 156 -298 157 -326 1 -367 -4 -486 -61 -75 -36 -110 -61 -173 -123 -123 -120 -178 -226 -198 -390 -6 -47 -10 -723 -11 -1750 0 -1512 1 -1676 16 -1698 19 -29 -15 -26 339 -24 215 1 303 5 344 16 190 50 375 232 446 439 20 59 21 82 27 1090 6 1144 2 1085 74 1241 74 162 158 252 293 317 l87 42 125 0 c118 0 128 -2 185 -29 83 -41 193 -153 233 -237 42 -88 71 -200 84 -322 7 -63 13 -563 17 -1311 l6 -1209 27 -20 c26 -19 40 -20 310 -18 156 1 302 6 326 12 74 16 204 86 271 146 78 70 149 176 187 280 l29 78 3 1085 3 1085 -26 195 c-69 535 -270 891 -620 1098 -82 48 -251 106 -372 127 -108 19 -379 18 -485 -1z"/> <path d="M14660 6370 c-287 -40 -562 -135 -780 -267 -240 -147 -468 -373 -608 -604 -103 -169 -212 -426 -247 -581 -9 -40 -25 -111 -36 -158 -29 -132 -39 -259 -39 -512 0 -381 22 -535 123 -843 166 -511 504 -879 983 -1070 134 -54 369 -109 531 -125 65 -6 151 -15 191 -19 44 -4 118 -2 190 6 64 7 151 10 193 6 75 -6 77 -5 172 41 117 57 190 121 251 219 66 108 87 186 93 347 3 74 0 185 -6 245 -16 160 -44 187 -147 147 -111 -44 -233 -62 -421 -62 -158 0 -189 3 -270 25 -160 43 -287 120 -409 247 -154 161 -240 353 -283 630 -27 175 -27 330 -1 496 45 280 120 453 276 639 95 112 252 209 409 254 122 35 381 39 530 9 59 -12 125 -28 147 -36 94 -33 141 -7 153 84 13 91 54 320 69 378 8 33 17 84 21 114 3 30 15 91 26 136 35 141 8 170 -208 219 -59 13 -164 31 -233 40 -169 21 -503 18 -670 -5z"/> <path d="M17487 6370 c-415 -70 -682 -206 -963 -492 -160 -163 -241 -277 -334 -473 -162 -339 -230 -681 -230 -1148 0 -668 180 -1189 540 -1561 242 -251 503 -391 890 -477 135 -30 509 -38 660 -15 411 65 705 210 976 480 328 328 501 732 559 1311 22 217 12 596 -21 790 -32 193 -37 214 -85 370 -89 291 -228 529 -428 738 -229 237 -444 362 -774 447 -201 52 -574 66 -790 30z m426 -860 c153 -47 291 -201 378 -423 37 -93 89 -317 104 -446 19 -160 19 -485 0 -661 -60 -568 -279 -912 -593 -928 -121 -7 -203 20 -310 100 -207 154 -325 471 -363 970 -6 92 -9 200 -5 240 3 40 11 133 16 206 17 222 66 421 146 590 139 293 379 428 627 352z"/> <path d="M21970 6385 c-8 -2 -49 -9 -90 -15 -199 -32 -416 -136 -561 -268 -63 -57 -88 -72 -124 -72 -36 0 -48 36 -40 129 14 159 3 164 -354 157 -308 -6 -343 -13 -477 -95 -136 -84 -228 -203 -285 -370 -18 -51 -19 -126 -19 -1791 0 -955 2 -1744 6 -1754 13 -35 41 -38 320 -37 305 2 341 7 455 67 130 69 259 212 306 341 52 145 53 159 53 1210 0 1094 -2 1060 73 1212 51 106 119 188 199 242 100 68 147 83 269 83 96 0 110 -2 165 -29 74 -36 159 -121 201 -200 18 -33 47 -110 65 -170 l33 -110 2 -1290 c2 -710 3 -1295 3 -1302 0 -7 10 -21 22 -33 21 -19 34 -20 303 -20 320 0 352 5 474 72 135 75 223 174 294 330 l42 93 6 1060 c7 1152 4 1110 63 1255 28 68 96 168 148 216 57 54 146 104 215 121 100 25 231 9 304 -37 30 -18 65 -43 78 -54 44 -38 119 -165 146 -246 61 -182 58 -121 64 -1502 l6 -1267 22 -22 c21 -22 26 -22 305 -20 156 1 303 7 327 12 25 5 79 28 120 49 138 72 226 161 295 298 69 138 66 72 66 1252 0 595 -5 1116 -10 1181 -13 157 -61 392 -111 536 -67 196 -140 327 -252 451 -220 242 -461 342 -826 342 -374 0 -647 -108 -903 -355 -38 -37 -94 -99 -125 -137 -90 -113 -126 -115 -180 -7 -73 144 -199 274 -352 363 -163 94 -343 137 -576 135 -82 -1 -157 -3 -165 -4z"/> <path d="M6030 1140 c-273 -34 -475 -301 -444 -585 24 -214 176 -400 369 -451 64 -18 246 -18 310 0 155 41 292 173 346 333 33 97 33 260 1 355 -83 243 -315 382 -582 348z"/> </g> </svg>
