<svg xmlns:svg="http://www.w3.org/2000/svg" xmlns="http://www.w3.org/2000/svg" version="1.1" width="300" height="38.97831" viewBox="0 0 300 38.97831" id="svg13180"> <defs id="defs13182" /> <g transform="translate(-219.54089,-442.73226)" id="layer1"> <path d="m 353.15989,478.31206 1.04602,-2.02928 0.0558,0 1.04602,2.02928 -2.14783,0 z m 13.52855,-4.19803 -8.08227,0 c -0.0335,0.52273 -0.10432,1.15063 -0.18131,1.91074 l 0.70433,0 c 0.22315,-0.59275 0.43235,-0.86472 0.63458,-1.03905 0.25774,-0.18857 0.70432,-0.30684 1.82705,-0.30684 l 0.29289,0 0,4.65131 c 0,1.12273 -0.14672,1.23431 -1.3947,1.28312 -0.78103,-0.0502 -1.08089,-0.11883 -1.59692,-1.03905 -0.65551,-1.08088 -1.35286,-2.32914 -2.08507,-3.59831 l -1.1297,-2.02231 -1.1576,0.16067 -3.34727,5.50207 c -0.52998,0.87866 -0.788,0.92748 -1.58995,0.99721 -1.15062,-0.0697 -1.17852,-0.11883 -1.22733,-1.28312 l -0.17406,-3.55647 c -0.0335,-1.12273 0.0223,-1.1576 1.29009,-1.22733 l 0,-0.43236 -4.05856,0 -2.54532,4.22593 -2.92886,-4.22593 -3.90514,0 0,0.43236 c 1.30404,0.0697 1.42956,0.17406 1.31798,1.52021 l -0.18856,2.15481 c -0.0764,0.96931 -0.18131,1.54811 -0.25105,1.85494 -0.11882,0.39777 -0.43235,0.50935 -1.24127,0.53724 l 0,0.43961 4.13527,0 0,-0.43961 c -1.08089,-0.0502 -1.45049,-0.13947 -1.50627,-0.53724 -0.0764,-0.30683 -0.0909,-0.82287 -0.0558,-1.76429 l 0.13222,-2.35703 0.0167,0 3.06833,4.98603 0.89958,0 3.22872,-5.3626 0.0697,0 0.063,3.75173 c 0,1.19247 -0.0446,1.23431 -1.30404,1.28312 l 0,0.43961 9.00276,0 0,-0.43961 -0.4954,-0.0167 c -0.76011,-0.0558 -0.76011,-0.16011 -0.53723,-0.62761 l 0.50209,-1.0251 2.74057,0 0.59972,1.09484 c 0.2159,0.39721 0.19526,0.50209 -0.4463,0.54393 l -0.50209,0.0279 0,0.43961 10.96928,0 0,-0.43961 c -1.40864,-0.0502 -1.54113,-0.11883 -1.54113,-1.28312 l 0,-4.65131 0.40446,0 c 0.80195,0 1.35983,0.063 1.63877,0.27225 0.25773,0.16736 0.43235,0.43961 0.66945,1.07391 l 0.76011,-0.0279 c -0.0837,-0.66248 -0.12553,-1.3947 -0.18131,-1.88284 l -1.31102,0 z m -56.00398,4.19803 1.03904,-2.02928 0.039,0 1.05997,2.02928 -2.14085,0 z m 5.71127,1.2622 c -0.63458,-1.08088 -1.35983,-2.32914 -2.06415,-3.59831 l -1.15759,-2.02231 -1.15063,0.16067 -3.32634,5.50207 c -0.55788,0.88563 -0.80195,0.9484 -1.64574,0.99721 l 0,0.43961 3.89119,0 0,-0.43961 -0.49483,-0.0167 c -0.76709,-0.0558 -0.78801,-0.16011 -0.54393,-0.62761 l 0.50209,-1.0251 2.7336,0 0.59972,1.09484 c 0.23709,0.39721 0.20195,0.50209 -0.43961,0.54393 l -0.48814,0.0279 0,0.43961 5.23708,0 0,-0.43961 c -0.82287,-0.0502 -1.10879,-0.11157 -1.65272,-1.03905 m 64.27453,1.05997 c -1.63877,0 -2.74755,-1.38075 -2.74755,-3.32635 0,-1.85494 1.053,-2.78939 2.34309,-2.78939 1.43653,0 2.63597,1.17155 2.63597,3.31938 0,1.93165 -0.788,2.79636 -2.23151,2.79636 m -0.0909,-6.68059 c -3.98883,0 -5.78102,2.00139 -5.78102,3.72384 0,1.95954 2.19665,3.53555 5.57181,3.53555 3.20083,0 5.6276,-1.42956 5.6276,-3.71686 0,-2.10599 -2.35007,-3.54253 -5.41839,-3.54253 m -55.06257,0.59275 c 1.10878,0.0223 1.55508,0.16011 1.65271,0.52998 0.0502,0.34142 0.11158,0.9205 0.11158,2.02928 l 0,1.42957 -0.039,0 -5.54392,-4.42119 -3.68897,0 0,0.43236 c 0.59275,0.0223 1.01813,0.10432 1.26918,0.32803 0.32747,0.28563 0.36262,0.43236 0.36262,1.21338 l 0,1.96652 c 0,1.12273 -0.0697,1.71548 -0.11883,2.02231 -0.10432,0.37657 -0.52998,0.52273 -1.24825,0.53724 l 0,0.43961 4.14224,0 0,-0.43961 c -1.09483,-0.0167 -1.55508,-0.16011 -1.63876,-0.53724 -0.0502,-0.30683 -0.13222,-0.89958 -0.13222,-2.02231 l 0,-1.96652 0.039,0 6.17152,5.01393 1.45049,0 0,-3.9958 c 0,-1.10878 0.039,-1.68758 0.10432,-2.02928 0.0909,-0.36987 0.52273,-0.50934 1.35983,-0.52998 1.13667,0.0558 1.2622,0.13221 1.2622,1.27614 l 0,3.50766 c 0,1.16457 -0.12553,1.23431 -1.2622,1.28312 l 0,0.43961 5.40444,0 0,-0.43961 c -1.1576,-0.0502 -1.29706,-0.11883 -1.29706,-1.28312 l 0,-3.50766 c 0,-1.14365 0.13946,-1.22036 1.29706,-1.27614 l 0,-0.43236 -9.65826,0 0,0.43236 z m -105.9759,3.59831 87.34975,0 0,-0.6834 -87.34975,0 0,0.6834 z m 174.30201,-3.59831 c 1.09484,0.0223 1.54812,0.16011 1.63877,0.52998 0.0764,0.34142 0.13222,0.9205 0.13222,2.02928 l 0,1.42957 -0.0279,0 -5.5718,-4.42119 -3.67502,0 0,0.43236 c 0.59274,0.0223 1.0251,0.10432 1.2622,0.32803 0.31352,0.28563 0.36262,0.43236 0.36262,1.21338 l 0,1.96652 c 0,1.12273 -0.0697,1.71548 -0.13278,2.02231 -0.0837,0.37657 -0.52998,0.52273 -1.25522,0.53724 l 0,0.43961 4.16316,0 0,-0.43961 c -1.11576,-0.0167 -1.56206,-0.16011 -1.64574,-0.53724 -0.063,-0.30683 -0.13947,-0.89958 -0.13947,-2.02231 l 0,-1.96652 0.0502,0 6.15758,5.01393 1.45048,0 0,-3.9958 c 0,-1.10878 0.0558,-1.68758 0.13278,-2.02928 0.0976,-0.36987 0.51603,-0.50934 1.35285,-0.52998 l 0,-0.43236 -4.25382,0 0,0.43236 z m 37.99847,3.59831 87.36369,0 0,-0.6834 -87.36369,0 0,0.6834 z M 237.0652,447.05444 c 0,-0.99721 0.0446,-1.93863 0.39052,-2.00836 0.46025,-0.16011 1.31101,-0.27894 2.85215,-0.27894 5.61365,0 12.81725,2.39888 12.81725,11.01112 0,7.0711 -5.75312,10.87862 -11.4365,10.87862 -3.16596,0 -4.62342,-0.69038 -4.62342,-4.23987 l 0,-15.36257 z m 36.23418,5.03485 c 0,-1.19247 0.13947,-1.29707 2.10599,-1.29707 1.79218,0 4.63736,0.96234 4.63736,3.86331 0,1.45048 -0.69038,2.8661 -2.61506,3.80751 -0.87865,0.43236 -2.01533,0.52274 -3.48673,0.52274 l -0.64156,0 0,-6.89677 z m 47.14069,3.24964 0.13222,0 2.92885,5.73917 -5.9414,0 2.88005,-5.73917 z m 108.26321,-4.93722 c 4.01672,0 7.36398,3.32635 7.36398,9.34445 0,5.42537 -2.19664,7.92187 -6.18547,7.92187 -4.5746,0 -7.72661,-3.96093 -7.72661,-9.3863 0,-5.24405 2.96373,-7.88002 6.5481,-7.88002 m 23.45876,1.66666 c 0,-1.20641 0.13278,-1.27615 2.09902,-1.27615 1.78521,0 4.64434,0.96234 4.64434,3.84239 0,1.4714 -0.70433,2.87307 -2.629,3.82843 -0.86472,0.41172 -1.98745,0.50935 -3.46582,0.50935 l -0.64854,0 0,-6.90374 z m -186.84032,2.45466 c 0,-1.3668 -0.43961,-2.69873 -1.13667,-3.8633 1.43653,0.25774 1.65968,0.98326 1.65968,3.43792 l 0,9.88839 c 0,3.22872 -0.36987,3.43095 -3.68199,3.6262 l 0,1.17155 14.70008,0 0,-1.17155 c -3.18687,-0.19525 -3.56344,-0.39721 -3.56344,-3.6262 l 0,-3.58437 0.59274,0 c 0.89261,0 1.52022,0.43905 1.96652,1.07392 1.1576,1.6806 2.45467,3.53555 3.87028,4.80472 1.83403,1.7364 3.36819,2.64295 9.98602,2.74755 l 1.99441,0.0112 0.0335,-0.25774 20.73214,0 0,-0.0446 5.79496,0 0,-1.15063 -1.37377,-0.0976 c -2.14086,-0.16737 -2.14086,-0.46025 -1.53417,-1.74337 l 1.40167,-2.88702 7.62898,0 1.67364,3.0753 c 0.59972,1.05299 0.51603,1.37377 -1.20641,1.51324 l -1.41562,0.13947 0,1.15063 8.5704,0 0,0.0446 11.49926,0 0,-1.17155 c -3.02649,-0.16011 -4.05159,-0.43235 -4.22592,-1.52719 -0.18857,-0.94839 -0.22316,-2.37795 -0.0976,-4.95814 l 0.32803,-6.63875 0.0764,0 8.54948,13.9609 2.51742,0 8.96789,-15.01389 0.16737,0 0.17405,10.52995 c 0.0279,3.34726 -0.11157,3.42397 -3.59134,3.64712 l 0,1.17155 14.57458,0 0,-1.17155 c -3.36819,-0.22315 -3.45885,-0.29958 -3.58437,-3.64712 l -0.4742,-10.01391 c -0.13277,-2.64295 0,-3.15899 2.09902,-3.38911 l 9.83957,18.50063 5.11156,0 8.86329,-16.26912 0.12552,0 9.73497,16.2482 5.09064,0 c 2.22454,-4.67223 4.42118,-8.99579 6.24823,-12.46858 -0.34867,0.91353 -0.52998,1.81311 -0.52998,2.72663 0,5.51602 6.10179,9.91628 15.50203,9.91628 8.84934,0 15.59269,-3.95396 15.72519,-10.23008 l 0,4.97906 c 0,3.22174 -0.36932,3.45187 -3.67502,3.64712 l 0,1.15063 14.69311,0 0,-1.15063 c -3.19385,-0.19525 -3.56345,-0.4251 -3.56345,-3.64712 l 0,-3.58437 0.58577,0 c 0.89958,0 1.54114,0.4463 1.95955,1.06694 1.17154,1.68061 2.46861,3.54253 3.8633,4.83262 1.86192,1.7364 3.40306,2.629 10.02089,2.71966 l 1.98744,0.039 0.0446,-0.27894 12.63594,0 0,-1.15063 c -3.29148,-0.20195 -3.66108,-0.4251 -3.66108,-3.64712 l 0,-4.79078 0.0837,0 c 3.41003,3.27056 7.81029,7.67082 9.57458,9.58853 l 10.70429,0 0,-0.70432 c 0.59274,0.17405 1.48535,0.36931 2.72663,0.64853 1.24825,0.25774 3.1799,0.48814 5.04182,0.48814 7.21057,0 11.81306,-2.68478 11.81306,-6.35981 0,-3.5216 -3.67502,-5.04182 -7.9637,-6.31099 l -1.01116,-0.28563 c -2.99162,-0.87866 -4.80472,-1.7364 -4.80472,-3.2357 0,-1.43653 1.68061,-2.6011 4.05856,-2.6011 3.68897,0 5.30682,2.11993 6.31797,4.1004 l 2.0502,-0.19526 c -0.50209,-2.04323 -0.83682,-3.51463 -1.01813,-4.6792 -0.59274,-0.13947 -1.3389,-0.25104 -2.41979,-0.41841 -1.35286,-0.24435 -2.84518,-0.38382 -4.26777,-0.38382 -7.3082,0.0112 -11.12966,2.76847 -11.12966,6.13666 0,3.22175 4.32355,4.7838 8.13107,5.92048 l 0.69734,0.19526 c 2.85216,0.86471 4.65131,1.85494 4.65131,3.61923 0,1.9456 -1.85494,2.94978 -4.29566,2.94978 -4.5467,0 -7.28031,-3.33332 -8.26357,-5.05577 l -2.03625,0.39721 c 0.49539,1.80613 1.01813,3.27753 1.40864,4.56065 -1.67363,-0.16066 -2.58716,-0.55787 -4.92327,-2.55926 -2.93584,-2.51045 -6.01114,-5.26497 -8.9121,-8.1241 1.98046,-1.45746 4.30263,-2.99162 6.80611,-4.55368 2.41979,-1.52022 3.87028,-1.67363 6.52717,-1.84797 l 0,-1.17154 -12.48949,0 0,1.17154 1.76429,0.0976 c 1.25522,0.0976 0.76708,0.71827 0.10488,1.24825 -2.71268,2.2873 -5.53694,4.48395 -8.92605,6.94558 l 0,-4.65828 c 0,-3.23569 0.36932,-3.45884 3.43095,-3.63318 l 0,-1.17154 -14.51878,0 0,1.17154 c 3.26359,0.17406 3.64016,0.39721 3.64016,3.63318 l 0,9.86747 c 0,3.01254 -0.37657,3.40305 -2.83123,3.58436 -0.48145,-0.22315 -0.93445,-0.48144 -1.40167,-0.81589 -0.71827,-0.61367 -1.75732,-1.61785 -3.3403,-3.2078 -1.3389,-1.38772 -3.06832,-3.43792 -3.71686,-4.27474 3.43793,-0.87169 6.00416,-2.43374 6.00416,-5.07669 0,-1.76429 -1.40864,-3.11714 -3.24963,-3.87028 -1.82706,-0.73221 -4.23988,-1.01115 -7.887,-1.01115 l -14.53273,0 0,1.17154 c 3.14504,0.17406 3.51463,0.39721 3.51463,3.63318 l 0,4.51184 c -0.13277,-5.82983 -6.64572,-9.76984 -15.09059,-9.76984 -7.76148,0 -12.55923,2.75452 -14.75588,6.05995 2.06415,-3.84238 3.4449,-6.35981 3.62621,-6.6248 2.24546,-3.52858 2.84518,-3.6541 6.56204,-3.97488 l 0,-1.56206 -15.82979,0 0,1.56206 2.49651,0.16736 c 2.85215,0.20921 3.05438,0.59972 2.20361,2.88005 -0.93444,2.35703 -3.38213,8.01252 -5.71127,12.69869 l -0.11158,0 -10.0697,-17.05711 -4.6513,0 -8.64014,17.05711 -0.13947,0 -6.29007,-13.45183 c -0.79498,-1.63179 -0.59275,-1.9177 1.86192,-2.12691 l 2.11993,-0.16736 0,-1.56206 -20.64149,0 0,1.56206 c 3.02649,0.25104 4.21198,0.41841 5.99022,3.71686 l 0.69735,1.29009 -9.17013,0 -7.11295,11.85491 -8.15896,-11.85491 -10.92744,0 0,1.17155 c 3.66108,0.20195 4.05857,0.52998 3.72384,4.28171 l -0.50879,6.06692 c -0.24435,2.72663 -0.54393,4.30961 -0.7601,5.258 -0.0558,0.265 -0.16012,0.4809 -0.34143,0.66248 -0.49539,-0.3972 -0.9972,-1.05996 -1.60389,-2.09901 -1.76429,-3.06136 -3.77963,-6.58994 -5.7601,-10.16035 l -3.16595,-5.66247 -3.21477,0.41841 -9.0725,15.09758 c -0.86471,0.92049 -1.85494,1.55508 -2.47558,1.95954 -1.03207,0.73222 -3.0753,0.88563 -4.93722,0.88563 -1.44351,0 -2.50348,0 -3.26359,-0.24435 -0.82984,-0.26499 -0.92747,-1.00418 -0.92747,-2.57321 l 0,-4.87446 2.33612,0 c 3.9958,0 4.12132,0.17406 4.61644,2.81729 l 2.03625,0 0,-7.08506 -2.03625,0 c -0.4954,2.29428 -0.62064,2.45467 -4.61644,2.45467 l -2.33612,0 0,-5.77404 c 0,-1.04602 0.0976,-1.04602 1.86889,-1.04602 l 0.80195,0 c 2.44769,0 3.98186,0.16736 4.73499,0.69037 0.74616,0.48145 1.24825,1.31799 1.72245,2.78939 l 2.03626,-0.0909 c -0.22316,-2.24546 -0.453,-4.42816 -0.50879,-4.94419 l -22.05013,0 0,1.17154 c 3.1032,0.16067 3.47279,0.38382 3.47279,3.61923 l 0,9.86747 c 0.0223,2.71268 -0.24379,3.29148 -2.45466,3.52858 -0.40446,-0.20195 -0.79498,-0.43905 -1.22733,-0.76011 -0.72524,-0.59972 -1.7364,-1.61785 -3.34727,-3.2078 -1.33193,-1.38772 -3.06135,-3.43792 -3.70989,-4.27474 3.43793,-0.87168 6.00416,-2.41979 6.00416,-5.05577 0,-1.78521 -1.39469,-3.11714 -3.26358,-3.87028 -1.80613,-0.75313 -4.2329,-1.01812 -7.87306,-1.01812 l -13.63314,0 c -1.01115,-1.19247 -2.23848,-2.18968 -3.59831,-2.9986 -4.42816,-2.58018 -11.21335,-3.5495 -19.3235,-3.5495 l -19.33745,0 0,1.56903 c 4.30961,0.22316 4.84657,0.51604 4.84657,4.82565 l 0,13.21473 c 0,4.30961 -0.53668,4.60947 -5.36958,4.84657 l 0,1.56903 17.07804,0 c 15.27191,0 27.79627,-4.28171 27.79627,-14.26076 m 103.39573,20.02085 c 1.15062,0.0558 1.29009,0.13222 1.29009,1.27615 l 0,3.50766 c 0,1.16457 -0.13947,1.2343 -1.29009,1.28311 l 0,0.43961 5.39049,0 0,-0.43961 c -1.1297,-0.0502 -1.28312,-0.11882 -1.28312,-1.28311 l 0,-3.50766 c 0,-1.14365 0.15342,-1.22036 1.28312,-1.27615 l 0,-0.43235 -5.39049,0 0,0.43235 z m 37.52426,2.15481 -0.33472,-0.11883 c -1.00418,-0.30014 -1.59693,-0.6067 -1.59693,-1.15063 0,-0.50878 0.55788,-0.91352 1.33194,-0.91352 1.25522,0 1.79915,0.74616 2.14783,1.45745 l 0.6834,-0.077 c -0.17406,-0.73919 -0.27894,-1.24825 -0.35593,-1.65272 -0.20195,-0.0558 -0.453,-0.0976 -0.82287,-0.16736 -0.41841,-0.0697 -0.9205,-0.12552 -1.40167,-0.12552 -2.43374,0 -3.74475,0.99721 -3.74475,2.1827 0,1.15759 1.45048,1.71547 2.74057,2.11993 l 0.2371,0.0558 c 0.96931,0.30014 1.56206,0.65551 1.56206,1.29009 0,0.70432 -0.62761,1.08089 -1.45048,1.08089 -1.5272,0 -2.43375,-1.21338 -2.77545,-1.8131 l -0.6834,0.13947 c 0.18131,0.69734 0.40446,1.26917 0.52273,1.77126 0.20196,0.0558 0.51604,0.16067 0.98326,0.27224 0.42566,0.0837 1.03905,0.16012 1.69456,0.16012 2.38493,0 3.94001,-0.9484 3.94001,-2.26638 0,-1.24826 -1.2343,-1.79916 -2.67781,-2.24546 m 9.44905,0.10432 c 0.62064,-0.52273 1.42957,-1.05299 2.25244,-1.61087 0.82287,-0.54393 1.31101,-0.59275 2.18269,-0.67643 l 0,-0.40446 -4.18408,0 0,0.40446 0.59275,0.0502 c 0.42566,0.0502 0.25829,0.25774 0.0335,0.453 -0.87866,0.80195 -1.84797,1.61087 -2.9707,2.45466 l 0,-1.65271 c 0,-1.14365 0.11157,-1.22036 1.15759,-1.30404 l 0,-0.40447 -4.86748,0 0,0.40447 c 1.08786,0.0837 1.20641,0.16011 1.20641,1.30404 l 0,3.52857 c 0,1.15063 -0.11883,1.21339 -1.12273,1.28312 l 0,0.43236 4.85354,0 0,-0.43236 c -1.11576,-0.0697 -1.2622,-0.13221 -1.22733,-1.28312 l 0,-1.70152 0.0223,0 c 1.13668,1.16457 2.61506,2.72663 3.21477,3.417 l 3.58437,0 0,-0.43236 c -0.64853,-0.0335 -0.92747,-0.13947 -1.76429,-0.92747 -0.98326,-0.8926 -2.02231,-1.86889 -2.96373,-2.90096 m 9.67221,1.37377 c 1.63877,0.0764 1.68759,0.16011 1.68759,0.87866 l 0,1.01813 c 0,0.48814 -0.22985,0.60669 -0.62762,0.60669 -2.1548,0 -3.1799,-1.57601 -3.1799,-3.22175 0,-1.82007 1.35285,-2.9428 3.00557,-2.9428 1.01812,0 2.30822,0.27894 2.79636,1.69455 l 0.66945,-0.0335 c -0.11883,-1.01813 -0.2092,-1.57601 -0.24435,-1.93165 -0.54393,-0.11883 -1.76429,-0.29289 -2.9707,-0.29289 -3.3124,0 -6.15758,1.2622 -6.15758,3.70989 0,2.17572 2.23152,3.5495 5.93443,3.5495 1.30404,0 2.56624,-0.2371 3.52858,-0.41116 -0.0909,-0.2583 -0.0909,-0.58577 -0.0909,-0.98326 l 0,-0.76011 c 0,-0.76708 0.0502,-0.77405 0.85076,-0.87866 l 0,-0.48144 -5.20221,0 0,0.48144 z" id="path8975" style="fill:#000000;fill-opacity:1;fill-rule:nonzero;stroke:none" /> </g> </svg>
