<svg width="2525" height="237" viewBox="0 0 2525 237" fill="none" xmlns="http://www.w3.org/2000/svg"> <path d="M2239.67 0.887895C2239.13 1.28789 2238.73 23.2879 2238.73 49.5546C2238.73 75.8212 2238.47 97.2879 2238.07 97.2879C2237.67 97.2879 2234.87 94.8879 2231.8 91.8212C2223.93 84.2212 2210.33 76.4879 2200.07 73.8212C2189.8 71.1546 2169.27 70.7546 2158.73 73.0212C2144.33 76.2212 2127.93 86.6212 2118.6 98.4879C2106.47 113.821 2101.4 130.088 2101.4 153.955C2101.4 181.155 2107.53 198.088 2122.73 213.421C2133.4 224.221 2144.33 229.821 2161.4 233.288C2177.27 236.621 2178.6 236.621 2195.13 233.155C2210.47 230.088 2222.73 224.355 2231.93 215.955C2235.13 213.021 2237.93 210.621 2238.2 210.621C2238.47 210.621 2238.73 215.288 2239 220.888L2239.4 231.288H2247.4H2255.4L2255.8 116.755C2256.07 25.9546 2255.8 1.95456 2254.47 1.02123C2252.33 -0.178772 2240.87 -0.445439 2239.67 0.887895ZM2188.47 89.2879C2223.8 95.0212 2243.53 134.088 2232.07 175.688C2225.4 200.088 2210.87 213.421 2186.87 217.421C2175.27 219.421 2163.67 217.688 2152.2 212.221C2117.13 195.955 2110.2 133.688 2140.07 103.821C2152.73 91.0212 2169.27 86.0879 2188.47 89.2879Z" fill="#24A0F6"/> <path d="M827.935 15.1546C805.135 21.8212 792.068 35.0212 786.601 56.6212C784.335 65.8212 785.668 84.6212 789.268 92.8879C793.535 102.755 804.201 112.355 817.935 118.755C824.068 121.555 830.068 123.955 831.135 123.955C832.335 123.955 833.535 124.488 833.935 125.021C834.335 125.688 838.735 127.288 843.668 128.621C857.268 132.355 878.201 140.755 884.735 145.288C897.535 154.088 902.735 163.821 902.735 178.888C902.735 189.555 900.468 195.688 893.935 202.621C887.001 209.955 879.135 213.821 866.068 216.088C849.001 219.021 818.335 215.555 802.068 208.755C793.801 205.288 792.468 205.821 790.201 213.821C788.335 219.955 788.335 225.288 790.201 225.288C790.468 225.288 796.868 227.155 804.335 229.288C823.001 234.755 847.535 237.021 864.601 234.888C908.201 229.421 933.001 200.088 924.868 163.555C920.468 144.221 908.868 131.555 885.801 121.288C879.135 118.355 873.135 115.955 872.335 115.955C869.535 115.955 837.935 104.888 832.068 101.821C817.935 94.4879 811.401 86.8879 809.135 74.7546C806.068 58.2212 814.068 43.0212 830.335 35.1546C836.601 31.9546 839.935 31.4212 852.201 30.8879C868.868 30.2212 878.868 31.8212 893.668 37.4212C899.401 39.5546 904.601 41.2879 905.268 41.2879C905.935 41.2879 908.068 37.2879 909.935 32.4879C914.201 22.0879 913.668 20.8879 903.535 17.9546C879.668 11.0212 846.201 9.82122 827.935 15.1546Z" fill="black"/> <path d="M1690.07 13.2892C1663.4 17.5558 1646.73 30.2225 1640.2 51.4225C1636.2 64.2225 1635.67 71.8225 1637.93 81.6892C1640.73 93.4225 1643.93 99.4225 1651 106.089C1660.73 115.289 1669.4 119.689 1694.33 127.823C1725.27 137.956 1737 143.689 1744.73 152.356C1758.33 167.289 1757.93 191.423 1743.8 204.889C1733 215.289 1710.73 220.223 1688.33 217.423C1675.93 215.823 1654.07 210.489 1649.27 207.823C1645.13 205.689 1643 207.956 1641.4 215.556C1639.53 224.223 1639.4 224.089 1651.93 227.956C1660.47 230.623 1677.67 233.556 1694.73 235.289C1704.33 236.223 1726.47 233.423 1735.93 229.956C1745.13 226.756 1756.33 219.956 1761.93 214.089C1764.73 211.023 1769.27 204.089 1771.93 198.623C1776.47 189.289 1776.73 187.823 1776.73 175.956C1776.6 165.423 1776.07 161.956 1773.27 155.689C1763.53 133.289 1751.4 125.423 1704.87 110.756C1673.67 100.889 1662.2 91.1559 1659.4 71.6892C1657.27 57.4225 1667.13 40.8892 1681.4 34.7558C1698.87 27.2892 1727.27 28.8892 1749.93 38.4892C1753.13 39.9558 1756.2 40.6225 1757 40.2225C1758.47 39.1558 1762.73 27.1558 1762.73 23.8225C1762.73 21.1558 1751.67 16.7558 1739.4 14.6225C1728.07 12.6225 1699.53 11.8225 1690.07 13.2892Z" fill="#24A0F6"/> <path d="M5.80156 15.9557C4.20156 16.6224 2.33489 18.3557 1.53489 19.8224C-0.598439 23.8224 -0.465105 229.556 1.66823 231.689C4.06823 234.089 18.0682 233.689 20.6016 231.156C22.4682 229.289 22.7349 218.489 22.7349 132.889L22.8682 36.6224L45.6682 82.6224C58.0682 107.956 77.0016 146.089 87.4016 167.422C98.2016 189.422 107.402 206.622 108.735 207.156C111.802 208.222 127.002 208.089 129.002 206.889C130.468 205.956 144.868 177.556 192.602 81.4224L214.735 36.8891V133.556C214.735 206.889 215.135 230.489 216.335 231.689C218.468 233.822 233.668 233.822 235.802 231.689C237.002 230.489 237.402 205.156 237.402 125.822C237.402 25.1557 237.268 21.4224 234.868 18.4891C232.468 15.5557 231.402 15.2891 218.868 15.2891C207.268 15.2891 205.135 15.6891 202.868 17.9557C201.402 19.4224 189.002 43.1557 175.402 70.6224C124.068 173.956 119.668 182.756 118.735 181.689C118.202 181.156 99.2682 143.956 76.8682 99.0224C39.0016 23.4224 35.6682 17.4224 31.8016 16.0891C26.8682 14.3557 9.9349 14.2224 5.80156 15.9557Z" fill="black"/> <path d="M2311.4 16.2216C2306.47 18.8883 2304.07 23.1549 2304.07 29.0216C2304.07 33.6883 2304.87 35.5549 2308.07 38.8883C2311.8 42.4883 2312.87 42.8883 2318.34 42.2216C2321.67 41.8216 2325.54 40.4883 2326.87 39.0216C2337.67 28.2216 2324.6 8.88828 2311.4 16.2216Z" fill="#24A0F6"/> <path d="M1823 30.8884C1821.93 31.9551 1821.4 38.4884 1821.4 52.8884V73.1551L1809.13 73.5551L1796.73 73.9551L1796.33 80.4884C1795.53 93.0217 1795.8 93.2884 1809.4 93.2884H1821.27L1821.67 149.555C1822.07 205.822 1822.07 205.955 1825.27 213.022C1834.07 232.622 1860.2 240.888 1884.47 231.688C1888.6 230.088 1888.87 228.888 1885.93 219.022C1883.93 212.088 1883.53 211.688 1880.33 212.488C1868.87 215.022 1860.47 214.888 1854.6 212.355C1843.93 207.688 1844.07 208.222 1844.07 146.755V93.2884H1861.8C1873.8 93.2884 1880.07 92.7551 1881.13 91.6884C1882.73 90.0884 1883.27 79.0217 1881.93 75.4217C1881.27 73.5551 1878.2 73.2884 1862.6 73.2884H1844.07L1843.8 51.5551L1843.4 29.9551L1834.07 29.5551C1827.93 29.2884 1824.2 29.6884 1823 30.8884Z" fill="#24A0F6"/> <path d="M498.735 73.1551C488.468 76.4884 483.268 79.2884 476.468 85.6884C467.935 93.5551 464.868 100.888 464.735 113.288C464.735 125.555 469.135 135.822 477.402 142.488C484.335 148.088 499.268 155.155 512.735 159.155C526.335 163.155 542.468 169.955 546.468 173.288C550.335 176.488 554.735 186.088 554.735 191.822C554.735 197.688 549.802 207.422 545.135 210.755C532.868 219.555 510.335 221.022 485.402 214.755C477.002 212.622 469.668 211.288 469.268 211.688C468.202 213.022 465.402 223.155 465.402 225.688C465.402 229.955 493.402 235.955 513.002 235.955C536.602 235.955 552.735 230.222 564.068 217.688C571.935 209.022 573.935 203.022 573.935 188.622C573.802 180.488 573.135 176.622 571.002 172.488C565.002 160.622 547.802 149.955 524.202 143.288C493.668 134.488 482.335 124.622 484.602 108.755C486.735 94.6217 495.802 88.8884 517.535 88.2217C529.668 87.6884 533.935 88.2217 546.068 91.2884C553.935 93.2884 560.868 94.3551 561.402 93.6884C561.935 93.1551 563.002 89.6884 563.802 86.2217C564.868 81.1551 564.735 79.4217 563.268 77.9551C557.135 71.8217 512.868 68.4884 498.735 73.1551Z" fill="black"/> <path d="M665.402 73.289C653.268 76.6224 650.335 77.8224 641.668 83.8224C627.802 93.1557 620.468 103.289 613.802 121.956C610.335 131.956 610.068 133.956 610.068 153.289C610.068 172.356 610.335 174.756 613.802 184.756C621.535 207.422 635.668 221.822 657.802 229.956C677.135 236.889 705.268 237.689 727.402 231.956C741.268 228.222 741.935 227.689 739.935 218.889C739.002 215.156 737.668 211.822 736.868 211.556C736.068 211.156 730.868 212.089 725.402 213.556C713.135 216.756 685.935 217.422 674.068 214.756C656.202 210.889 643.802 201.689 636.735 187.289C633.668 181.022 632.735 177.022 632.335 168.356L631.668 157.289H689.668C755.135 157.289 750.468 158.089 753.535 146.356C755.002 141.022 754.868 138.222 752.468 125.956C750.868 118.222 748.068 108.622 746.202 104.889C739.002 89.9557 724.868 78.2224 708.068 73.289C696.602 69.8224 677.668 69.8224 665.402 73.289ZM705.935 91.1557C709.668 93.0224 713.935 95.5557 715.402 96.889C723.402 104.089 730.068 118.089 731.535 130.756L732.335 138.222L718.068 139.022C710.068 139.556 687.402 139.956 667.668 139.956H631.668L632.468 132.756C634.468 113.022 653.535 92.2224 673.535 87.9557C683.002 85.9557 698.202 87.5557 705.935 91.1557Z" fill="black"/> <path d="M1020.74 73.8218C1005.94 77.6884 994.868 84.0884 984.468 95.0218C955.668 124.888 955.668 180.622 984.202 211.288C993.268 220.888 1002.47 226.622 1016.47 231.288C1034.74 237.422 1065 237.155 1079.4 230.755L1085.14 228.222L1083.54 221.022C1081.8 212.888 1081.54 212.888 1065.4 215.688C1048.07 218.755 1025.94 216.755 1013.8 211.022C999.535 204.488 987.935 185.155 985.135 163.288C980.602 127.955 996.735 98.6218 1024.74 91.2884C1035 88.6218 1060.47 88.6218 1071.94 91.2884C1076.74 92.4884 1081 92.8884 1081.54 92.3551C1083 90.6218 1085.14 79.0218 1084.2 77.4218C1083.67 76.6218 1078.2 74.8884 1072.07 73.2884C1056.2 69.5551 1036.6 69.6884 1020.74 73.8218Z" fill="black"/> <path d="M1175.4 71.2876C1174.73 71.5543 1169.93 73.021 1164.73 74.621C1146.47 80.221 1130.2 94.0876 1121.8 110.888C1115 124.488 1112.87 134.488 1112.87 153.288C1112.87 174.754 1115.53 186.754 1123.27 200.088C1132.47 215.821 1143.4 224.488 1162.87 231.554C1171.67 234.754 1174.6 235.154 1190.07 235.154C1205.53 235.154 1208.47 234.754 1217.27 231.554C1231 226.621 1238.2 222.088 1246.87 213.154C1254.6 205.154 1261.53 192.621 1265 180.621C1265.93 176.888 1267.13 167.688 1267.67 159.954C1270.6 107.421 1237.93 70.3543 1189.27 70.7543C1182.33 70.7543 1176.2 71.021 1175.4 71.2876ZM1213.8 93.6876C1228.2 100.221 1239.8 115.421 1244.2 133.288C1246.47 142.621 1246.47 163.688 1244.2 173.288C1239.67 192.088 1227.53 207.554 1212.73 213.288C1201.13 217.954 1179 217.954 1167.4 213.288C1157.93 209.688 1147.4 200.088 1142.33 191.021C1133.8 175.154 1131.27 151.154 1136.07 133.421C1142.33 111.154 1153.4 98.0876 1171.4 91.5543C1181.93 87.821 1203.53 88.8876 1213.8 93.6876Z" fill="black"/> <path d="M1367.27 73.1542C1351.4 77.6876 1337.27 88.7542 1331.67 100.888L1328.73 107.288L1328.07 90.6209L1327.4 73.9542H1318.73H1310.07L1309.67 152.488C1309.4 214.488 1309.67 231.288 1311 232.221C1313.67 233.821 1327.4 233.421 1329.13 231.688C1330.33 230.488 1330.73 218.488 1330.73 185.954C1330.73 137.821 1331.67 129.554 1338.33 115.954C1343 106.354 1352.87 96.6209 1362.47 92.2209C1369.27 89.0209 1371.67 88.6209 1386.07 88.4876C1403.67 88.3542 1403.67 88.3542 1406.07 78.3542C1406.87 75.2876 1406.33 74.4876 1402.87 72.7542C1397.4 69.8209 1377.93 70.0876 1367.27 73.1542Z" fill="black"/> <path d="M1480.07 73.6888C1459.8 79.8222 1445.8 90.8888 1435.94 108.622C1428.74 121.689 1426.07 134.222 1426.2 154.622C1426.34 179.555 1431.94 196.089 1444.74 210.755C1454.47 221.822 1473.14 231.289 1491.27 234.489C1507.54 237.422 1533.27 235.555 1549.14 230.489C1555.94 228.222 1557.4 227.155 1557.4 224.889C1557.4 221.955 1554.47 212.622 1553.27 211.422C1552.87 211.022 1547.8 211.955 1542.07 213.555C1533.67 215.822 1527.4 216.355 1512.74 216.355C1495.8 216.355 1493 216.089 1483.4 212.755C1467.8 207.422 1459.67 200.755 1453.94 188.355C1450.6 181.422 1448.07 169.822 1448.07 161.555V157.289H1505.8H1563.67L1566.6 154.089C1570.6 149.822 1571.54 141.689 1569.4 127.689C1565.54 100.222 1548.74 80.0888 1524.07 73.4222C1510.47 69.5555 1493.4 69.8222 1480.07 73.6888ZM1520.34 89.9555C1523.67 91.1555 1528.74 94.0888 1531.67 96.6222C1540.6 104.222 1548.07 121.689 1548.07 135.022V139.289L1497.94 139.822L1447.67 140.222L1448.74 133.822C1451.4 115.555 1465.4 96.7555 1480.74 90.7555C1492.2 86.3555 1508.6 85.9555 1520.34 89.9555Z" fill="black"/> <path d="M2436.07 71.8212C2414.07 74.8879 2396.07 86.0879 2384.34 104.355C2374.34 119.555 2369.67 139.955 2371.14 161.155C2373.27 189.155 2383.67 209.688 2402.2 221.955C2412.2 228.621 2419.8 231.421 2435.27 234.088C2447.14 236.088 2449 236.088 2460.74 234.088C2487.8 229.421 2503.94 218.755 2515.8 197.288C2522.2 185.555 2524.6 173.821 2524.6 153.955C2524.6 127.288 2518.87 110.488 2504.07 94.6212C2487.8 76.8879 2461.94 68.3546 2436.07 71.8212ZM2467.8 91.5546C2482.87 96.3546 2495.8 111.021 2501.67 129.955C2505.14 141.155 2505.67 161.955 2502.87 173.288C2498.47 191.021 2487.8 205.288 2474.2 211.955C2446.87 225.421 2414.47 216.355 2400.07 191.288C2392.34 177.688 2389.4 156.755 2392.6 138.621C2397.27 112.488 2413.54 94.0879 2436.34 89.2879C2443.8 87.6879 2459 88.7546 2467.8 91.5546Z" fill="#24A0F6"/> <path d="M288.335 73.0216C287.002 73.9549 286.735 86.3549 287.002 134.088L287.402 193.955L292.602 203.688C304.068 225.288 325.535 236.488 355.402 236.488C388.202 236.488 410.602 223.288 419.935 198.488C422.602 191.688 422.735 188.488 422.735 132.488C422.735 66.0883 423.802 71.9549 411.402 71.9549C399.402 71.9549 400.068 68.2216 400.068 131.688C400.068 193.955 400.202 192.622 390.202 203.688C380.868 213.955 362.735 219.022 345.268 216.088C329.002 213.422 319.668 207.155 312.868 194.088L309.402 187.555V132.355C309.402 96.7549 308.868 76.2216 308.068 74.4883C306.868 72.3549 305.135 71.9549 298.335 71.9549C293.802 71.9549 289.268 72.4883 288.335 73.0216Z" fill="black"/> <path d="M1925.67 132.888L1926.07 192.622L1930.34 201.288C1941.27 223.555 1963.94 235.955 1993.4 235.955C2007 235.955 2022.74 232.622 2031.94 227.955C2041.4 223.155 2050.47 213.688 2055.67 202.888L2060.74 192.755V133.422V73.9551L2050.47 73.5551L2040.07 73.1551V126.222C2040.07 189.822 2039.4 193.822 2027.14 205.555C2010.74 221.288 1977.67 221.688 1959.14 206.088C1957 204.355 1953.54 199.688 1951.4 195.688L1947.4 188.622L1946.74 131.288L1946.07 73.9551L1935.67 73.5551L1925.27 73.1551L1925.67 132.888Z" fill="#24A0F6"/> <path d="M2307.4 76.2219C2307 77.1553 2306.87 112.489 2307 154.622L2307.4 231.289L2316.6 231.689C2323.13 231.955 2326.2 231.555 2326.87 230.355C2328.2 228.355 2328.47 79.9553 2327.27 76.7553C2326.2 74.0886 2308.33 73.6886 2307.4 76.2219Z" fill="#24A0F6"/> </svg>
