<svg viewBox="0 0 721 722" width="721" height="722" xmlns="http://www.w3.org/2000/svg" xmlns:xlink="http://www.w3.org/1999/xlink" overflow="hidden"><defs><clipPath id="clip0"><rect x="325" y="-1" width="721" height="722"/></clipPath></defs><g clip-path="url(#clip0)" transform="translate(-325 1)"><path d="M326 360C326 161.177 487.177-4.58328e-14 686-9.16656e-14 884.823-1.83331e-13 1046 161.177 1046 360 1046 558.823 884.823 720 686 720 487.177 720 326 558.823 326 360ZM487.517 360C487.517 469.619 576.381 558.483 686 558.483 795.619 558.483 884.483 469.619 884.483 360 884.483 250.381 795.619 161.517 686 161.517 576.381 161.517 487.517 250.381 487.517 360Z" fill-rule="evenodd"/><path d="M334 360C334 166.148 491.372 9 685.5 9 879.628 9 1037 166.148 1037 360 1037 553.853 879.628 711.001 685.5 711.001 491.372 711.001 334 553.853 334 360ZM478.893 360C478.893 473.83 571.394 566.108 685.5 566.108 799.606 566.108 892.107 473.83 892.107 360 892.107 246.17 799.606 153.893 685.5 153.893 571.394 153.893 478.893 246.17 478.893 360Z" fill="#FFFFFF" fill-rule="evenodd"/><path d="M345 360C345 172.223 497.447 20 685.5 20 873.553 20 1026 172.223 1026 360 1026 547.777 873.553 700.001 685.5 700.001 497.447 700.001 345 547.777 345 360ZM465.877 360C465.877 481.019 564.205 579.123 685.5 579.123 806.795 579.123 905.123 481.019 905.123 360 905.123 238.982 806.795 140.878 685.5 140.878 564.205 140.878 465.877 238.982 465.877 360Z" stroke="#000000" stroke-width="4" stroke-miterlimit="8" fill="#FFFFFF" fill-rule="evenodd"/><path d="M797.593 566.35C796.064 566.495 794.63 566.915 793.317 567.631 792.004 568.348 790.874 569.326 789.926 570.533 783.29 578.98 785.552 598.618 796.079 617.892 808.108 639.92 826.376 653.132 836.881 647.401 847.385 641.67 846.149 619.167 834.119 597.14 823.593 577.865 808.291 565.341 797.593 566.35ZM805.184 549.548C825.024 549.166 846.148 562.087 858.136 584.038 874.119 613.305 867.808 647.543 844.04 660.51 820.271 673.477 788.046 660.262 772.062 630.995 760.074 609.044 760.627 584.297 771.68 567.826 775.365 562.335 780.215 557.764 786.158 554.522 792.1 551.28 798.571 549.675 805.184 549.548ZM556.608 537.751C584.704 558.664 626.433 574.016 653.973 576.577 669.048 577.845 671.325 590.236 655.796 592.06L665.718 656.926 689.435 624.723 714.672 655.408 726.266 590.238C713.417 592.889 713.644 576.63 724.443 575.666L746.617 570.252C757.416 566.903 758.478 582.74 743.96 586.621L726.621 697.127 715.053 697.811 684.652 652.778 660.378 699 649.519 697.482 629.977 591.756C623.748 590.117 617.624 588.218 611.578 586.057L604.691 583.267 571.711 659.669C586.549 666.713 579.408 683.768 563.364 677.465L538.881 667.177C523.487 659.298 535.357 643.634 548.341 650.215L582.854 573.386 576.031 569.967C570.193 566.764 564.382 563.3 558.571 559.576 551.241 570.191 537.234 559.673 544.927 551.379ZM882.648 502.095C878.031 502.544 873.651 504.408 870.794 507.843L857.557 521.073 881.376 547.525 895.833 532.035C912.479 512.135 896.499 500.749 882.648 502.095ZM890.84 481.988C912.544 482.568 935.067 496.122 914.291 531.983L910.682 537.494 953.643 537.494C962.454 524.07 978.195 531.679 972.378 542.367L959.802 559.81C952.017 569.301 934.48 563.401 943.377 549.806L900.155 550.039 891.658 558.943 914.753 584.59C925.881 576.433 937.01 586.629 929.22 596.547L908.91 616.012C898.338 626.023 885.818 612.119 895.555 601.831L839.112 538.947 838.097 539.754C828.77 544.847 816.937 537.101 830.453 524.249 840.938 514.937 859.124 493.825 869.61 486.052 875.164 483.281 882.948 481.777 890.84 481.988ZM497.205 480.186C499.923 480.486 502.711 482.111 504.936 485.57 517.857 503.756 531.833 517.987 546.072 529.847L537.37 542.498C529.987 553.655 515.484 548.472 524.713 532.483L502.826 514.034 484.116 530.028 497.816 543.025C505.815 535.119 517.242 546.452 508.892 554.622L497.289 566.482C492.103 572.456 478.215 565.779 486.477 554.622L471.781 540.572 442.704 565.428 475.93 598.108C484.192 590.553 495.882 598.021 488.06 609.441L475.402 627.099C449.56 606.718 428.201 585.019 409.215 558.839 401.48 548.472 410.621 536.261 422.927 546.452L488.323 495.322C484.368 488.348 488.756 481.478 494.535 480.309 495.401 480.133 496.299 480.086 497.205 480.186ZM914.055 379.131C918.611 379.74 922.717 384.229 922.332 393.079L949.023 451.05 1004.46 408.469C1008.73 392.993 1023.28 393.934 1021.91 406.674L1017.55 430.786C1013.95 446.775 999.838 444.039 1001.38 430.273L953.599 465.875 985.466 481.061C992.396 470.887 1003.94 475.589 1001.63 484.653L988.289 513.894C984.696 521.419 970.068 515.092 974.431 503.378L896.668 465.927C890.337 478.154 875.024 469.861 880.756 458.745L892.048 433.607C896.839 422.235 912.922 428.562 907.96 444.124L937.542 458.222 917.969 412.317C912.665 426.852 896.838 419.072 899.747 407.443L903.083 388.462C904.495 381.792 909.5 378.522 914.055 379.131ZM459.25 369.578C463.009 370.166 466.206 372.801 466.437 377.512L467.755 392.535 397.349 481.353 467.755 455.525C463.36 445.773 478.479 436.812 483.84 446.827L489.905 460.005C495.091 469.932 481.819 478.805 474.611 469.493L379.418 509.817 369.397 486.361 428.728 411.774 367.551 423.107C369.397 435.143 354.63 441.38 351.73 426.006L348.038 399.914C347.159 389.284 361.838 387.879 364.387 398.86L446.923 383.574C445.165 373.306 452.987 368.598 459.25 369.578ZM411.195 174.526C414.736 173.974 418.714 175.827 419.381 180.74L422.508 202.187 417.42 202.972C402.536 205.233 389.946 213.44 390.103 226.705 389.863 237.443 403.457 251.8 423.446 260.913 446.291 271.328 467.056 271.048 473.802 260.066 477.176 254.575 475.383 243.014 469.971 231.788L465.954 224.749C461.963 215.284 473.219 210.316 477.227 215.091L480.039 218.246C491.002 232.923 494.421 250.874 487.398 266.264 476.16 290.888 442.444 299.632 412.091 285.794 389.327 275.416 374.919 255.283 373.879 235.477 373.532 228.875 373.93 224.563 377.48 216.153 384.323 199.944 394.954 196.058 407.438 192.184L405.633 182.739C404.55 178.034 407.654 175.078 411.195 174.526ZM965.169 171.926C967.368 172.07 969.521 173.059 971.148 175.101L985.914 200.666 921.046 288.43 994.88 261.811C990.661 250.83 1006.22 245.383 1009.12 254.695L1013.6 270.508C1017.21 283.159 1002.62 284.213 998.572 274.989L898.104 308.724 894.412 292.911 938.713 228.34 892.83 249.424C897.665 261.372 884.568 267.522 879.646 258.385 876.305 251.445 872.438 246.086 868.834 239.936 861.627 229.13 874.987 219.906 882.019 230.448L957.172 187.752C951.568 178.659 958.573 171.494 965.169 171.926ZM472.623 128.276 489.916 156.522 500.943 146.586ZM905.502 125.544C895.093 124.878 879.686 132.944 866.51 146.935 849.3 165.208 842.413 186.668 851.127 194.867 859.841 203.065 880.857 194.897 898.067 176.624 915.277 158.351 922.164 136.891 913.45 128.692 912.36 127.668 911.079 126.899 909.637 126.373 908.375 125.913 906.99 125.64 905.502 125.544ZM891.527 106.491C896.703 106.292 901.766 106.853 906.541 108.198 912.907 109.992 918.762 113.18 923.691 117.818 943.409 136.368 940.856 171.089 917.99 195.368 895.124 219.647 860.603 224.292 840.885 205.741 821.168 187.191 823.72 152.47 846.586 128.191 859.449 114.534 875.999 107.089 891.527 106.491ZM477.981 93.9483C487.308 92.7226 491.432 102.669 484.871 113.037L555.11 160.255C567.191 154.009 575.523 169.498 566.358 175.494L550.36 186.986C542.195 193.981 528.28 182.239 539.862 171.747L517.772 157.466 500.193 173.307 513.616 195.231C524.031 188.735 534.946 199.727 528.614 206.723 522.365 213.135 517.366 218.798 511.617 226.209 504.451 235.203 487.537 226.459 495.619 212.968L455.125 140.018C441.461 147.846 431.546 133.939 443.377 121.281 449.46 113.869 460.041 105.209 467.124 99.2962 471.185 96.0068 474.872 94.3569 477.981 93.9483ZM811.449 61.1625C800.703 61.1856 786.676 75.1216 778.052 95.3178 768.196 118.399 769.129 140.916 780.136 145.612 791.143 150.307 808.055 135.402 817.911 112.321 827.768 89.2393 826.835 66.7219 815.828 62.0268 814.452 61.4399 812.984 61.1592 811.449 61.1625ZM603.137 49.2118C600.37 48.9855 597.357 49.2813 594.155 50.2194L571.754 58.9636 586.329 96.6497 606.135 89.376C629.867 77.9554 622.509 50.7955 603.137 49.2118ZM802.277 45.1668C808.872 44.6583 815.467 45.6347 821.693 48.2907 846.599 58.9146 856.172 92.3878 843.077 123.055 829.981 153.723 799.176 169.971 774.27 159.348 749.365 148.724 739.791 115.25 752.886 84.5831 762.708 61.5823 782.492 46.6924 802.277 45.1668ZM606.48 32.0839C638.582 34.2956 651.048 72.2914 630.197 93.0345L628.122 94.717 653.714 124.026C670.673 121.566 672.135 140.592 662.098 141.63L641.002 144.792C629.778 147.567 624.803 132.354 634.325 127.634L612.804 103.333 592.045 111.43 602.454 138.346C615.388 133.099 621.255 149.922 611.518 153.503 600.79 157.209 593.3 160.327 583.75 165.505 575.727 169.028 565.643 155.189 578.231 146.942L547.705 68.2737 542.834 69.8758C537.452 70.7711 534.242 68.4949 532.888 64.6712 531.345 60.6274 531.953 55.7933 542.863 51.5064 558.458 44.4217 573.789 38.6547 588.856 34.2055 595.234 32.3406 601.129 31.7152 606.48 32.0839ZM675.93 20.0573C708.554 19.3977 740.018 24.5347 765.576 30.0935L764.826 42.8348C764.576 59.3234 748.579 59.8231 749.079 41.3357L716.584 38.8375 712.584 125.028C725.083 127.194 725.332 142.85 711.835 142.017 703.836 141.267 695.837 141.018 687.838 140.518 674.674 140.268 675.257 124.279 688.088 124.279L691.588 37.8382 660.593 36.8389C660.093 53.8272 644.095 53.3275 643.595 37.5883 643.512 32.7582 643.179 27.6784 643.095 22.8483 654.052 21.1412 665.056 20.2772 675.93 20.0573Z" stroke="#000000" stroke-width="4" stroke-miterlimit="8" fill="#FFFFFF" fill-rule="evenodd"/></g></svg>
